<svg xmlns="http://www.w3.org/2000/svg" viewBox="0 0 176 176"><defs><style>.cls-1{fill:#365066;}.cls-2{fill:#2079d4;}.cls-3{fill:#50a7ef;}.cls-4{fill:none;}</style></defs><g id="kit_analisi_contesto"><path class="cls-1" d="M88,151v-3c1,0,2,0,2.91-.06l.14,3C90,151,89,151,88,151Zm-2.74-.06c-1,0-2-.11-3-.2l.27-3c1,.09,2,.16,2.89.2Zm8.83-.23-.29-3c1-.1,1.94-.21,2.89-.35l.42,2.95C96.11,150.49,95.09,150.61,94.08,150.71Zm-14.9-.32c-1-.14-2-.31-3-.5l.55-2.92c1,.18,1.92.34,2.86.47Zm20.93-.55-.57-2.92c.95-.19,1.9-.4,2.83-.63l.71,2.89C102.11,149.42,101.11,149.64,100.11,149.84Zm-26.92-.59c-1-.23-2-.5-2.94-.78l.84-2.86c.92.27,1.87.52,2.8.75Zm32.83-.87-.84-2.85c.91-.27,1.84-.58,2.75-.9l1,2.81C108,147.78,107,148.1,106,148.38Zm-38.67-.84c-1-.33-1.92-.69-2.86-1.07l1.11-2.76c.9.36,1.81.7,2.72,1Zm44.43-1.18-1.12-2.76c.88-.36,1.78-.75,2.66-1.16l1.26,2.69C113.65,145.56,112.71,146,111.78,146.36ZM61.7,145.27c-.93-.43-1.85-.88-2.73-1.34l1.37-2.64c.84.44,1.72.87,2.6,1.27Zm55.61-1.49-1.38-2.64c.84-.44,1.7-.92,2.54-1.41l1.51,2.56C119.1,142.81,118.2,143.31,117.31,143.78Zm-61-1.32c-.88-.51-1.75-1.05-2.59-1.59l1.62-2.5c.8.52,1.63,1,2.47,1.52Zm66.27-1.78-1.64-2.49c.8-.52,1.6-1.08,2.39-1.65l1.75,2.4C124.25,139.54,123.4,140.13,122.57,140.68ZM51.2,139.14c-.83-.59-1.65-1.21-2.43-1.83L50.62,135c.75.59,1.53,1.18,2.32,1.75Zm76.29-2.06-1.86-2.31c.75-.61,1.49-1.24,2.21-1.88l2,2.23C129.06,135.79,128.28,136.45,127.49,137.08Zm-81.06-1.73c-.76-.67-1.51-1.36-2.24-2.06l2.07-2.14c.69.67,1.41,1.33,2.14,2ZM132.05,133,130,130.91c.7-.69,1.38-1.39,2-2.08l2.19,2C133.5,131.58,132.79,132.32,132.05,133Zm-90-1.92c-.69-.74-1.38-1.51-2-2.27l2.27-1.93c.62.73,1.27,1.45,1.93,2.16Zm94.14-2.55-2.27-1.91c.63-.75,1.24-1.51,1.81-2.27l2.37,1.81C137.49,127,136.85,127.79,136.19,128.57ZM38.1,126.48c-.62-.8-1.23-1.63-1.81-2.46l2.45-1.7c.55.79,1.13,1.57,1.72,2.34Zm101.79-2.75-2.45-1.68q.81-1.18,1.59-2.43l2.53,1.57C141,122.06,140.46,122.92,139.89,123.73ZM34.61,121.48c-.54-.86-1.06-1.74-1.56-2.62l2.59-1.46c.48.84,1,1.68,1.49,2.5Zm108.49-2.92-2.6-1.44c.47-.85.92-1.71,1.35-2.57l2.66,1.32C144.07,116.77,143.59,117.68,143.1,118.56Zm-111.48-2.4c-.46-.91-.9-1.84-1.3-2.76L33,112.2c.39.88.8,1.76,1.24,2.63Zm114.17-3-2.72-1.19c.38-.89.75-1.79,1.09-2.68l2.78,1.05C146.59,111.23,146.2,112.18,145.79,113.11ZM29.15,110.58c-.37-1-.71-1.93-1-2.88l2.83-.93c.29.9.62,1.83,1,2.74ZM148,107.42l-2.83-.92c.3-.92.57-1.86.82-2.78l2.88.78C148.56,105.46,148.26,106.45,148,107.42Zm-120.7-2.64c-.27-1-.52-2-.74-3l2.9-.64c.21.93.45,1.88.71,2.81Zm122.29-3.24-2.91-.64c.21-.94.4-1.9.56-2.85l2.93.5C150,99.54,149.76,100.55,149.54,101.54ZM25.91,98.83c-.17-1-.32-2-.44-3l3-.36c.12,1,.26,1.91.43,2.87Zm124.64-3.3-3-.35c.11-1,.21-1.93.27-2.89l3,.21C150.77,93.5,150.67,94.52,150.55,95.53ZM25.16,92.79c-.07-1-.12-2-.15-3l3-.08c0,1,.07,1.94.14,2.9ZM151,89.45l-3-.06c0-.46,0-.92,0-1.39s0-1,0-1.52l3-.07c0,.53,0,1.06,0,1.59S151,89,151,89.45ZM28,86.76l-3-.06c0-1,.07-2,.13-3l3,.2C28,84.82,28,85.79,28,86.76Zm119.88-3.18c-.07-1-.16-1.93-.28-2.89l3-.36c.12,1,.22,2,.29,3ZM28.37,81l-3-.35c.12-1,.27-2,.43-3l2.94.49C28.62,79,28.48,80,28.37,81Zm118.79-3.15c-.16-.95-.35-1.91-.55-2.85l2.9-.64c.22,1,.42,2,.59,3ZM29.32,75.24l-2.91-.63c.21-1,.46-2,.72-3l2.87.77C29.75,73.35,29.52,74.3,29.32,75.24Zm116.59-3.09c-.25-.92-.53-1.86-.83-2.78l2.83-.92c.31,1,.61,2,.87,2.92ZM30.82,69.64,28,68.73c.31-1,.64-1.93,1-2.88l2.79,1.05C31.44,67.81,31.12,68.73,30.82,69.64Zm113.29-3c-.34-.9-.71-1.8-1.11-2.69l2.73-1.2c.41.94.8,1.89,1.16,2.83ZM32.86,64.21,30.13,63c.4-.93.83-1.86,1.27-2.76l2.67,1.31C33.65,62.44,33.25,63.32,32.86,64.21ZM141.77,61.3c-.43-.86-.88-1.73-1.35-2.57L143,57.28c.5.88,1,1.79,1.43,2.7ZM35.42,59l-2.61-1.44c.49-.89,1-1.77,1.54-2.63l2.53,1.57C36.38,57.32,35.88,58.16,35.42,59Zm103.52-2.78c-.52-.82-1.06-1.64-1.6-2.43l2.44-1.69c.58.82,1.14,1.68,1.68,2.54ZM38.46,54.08,36,52.39c.57-.83,1.17-1.66,1.78-2.46l2.37,1.8C39.58,52.5,39,53.29,38.46,54.08Zm97.16-2.62c-.58-.76-1.2-1.52-1.82-2.26l2.27-1.93c.65.78,1.3,1.57,1.91,2.37ZM42,49.46l-2.28-1.92c.65-.77,1.33-1.54,2-2.28l2.19,2C43.24,48,42.59,48.72,42,49.46ZM131.86,47c-.66-.71-1.34-1.4-2-2.07l2.07-2.14c.73.7,1.45,1.44,2.14,2.18Zm-86-1.84-2.08-2.12c.72-.71,1.47-1.41,2.22-2.08l2,2.22C47.31,43.85,46.6,44.52,45.91,45.19ZM127.7,43c-.73-.64-1.48-1.27-2.22-1.87l1.86-2.32c.78.62,1.56,1.28,2.33,2ZM50.25,41.32,48.37,39c.77-.62,1.59-1.25,2.42-1.86l1.76,2.4C51.76,40.13,51,40.73,50.25,41.32Zm72.92-2c-.78-.57-1.58-1.12-2.39-1.65l1.63-2.49c.85.56,1.69,1.14,2.51,1.73ZM54.93,37.89l-1.64-2.48c.85-.56,1.72-1.11,2.58-1.62l1.53,2.56C56.57,36.84,55.74,37.36,54.93,37.89Zm63.38-1.71c-.84-.49-1.69-1-2.53-1.4l1.38-2.64c.88.46,1.78,1,2.66,1.48ZM59.93,34.93,58.54,32.3c.89-.48,1.81-.94,2.73-1.37l1.26,2.7C61.66,34,60.78,34.47,59.93,34.93Zm53.25-1.43c-.88-.41-1.78-.8-2.66-1.15l1.12-2.76c.92.37,1.86.78,2.79,1.21Zm-48-1L64.06,29.7c1-.38,1.9-.75,2.86-1.09l1,2.81C67,31.74,66.09,32.09,65.2,32.46Zm42.6-1.14c-.91-.32-1.84-.62-2.76-.89l.84-2.85c1,.28,2,.59,2.91.93Zm-37.12-.81-.86-2.85c1-.29,2-.56,2.94-.81l.72,2.89C72.54,30,71.6,30.23,70.68,30.51Zm31.56-.83c-.94-.23-1.9-.44-2.84-.62l.56-2.92c1,.19,2,.4,3,.64Zm-25.93-.57-.57-2.92c1-.19,2-.37,3-.51l.43,2.94C78.22,28.76,77.26,28.93,76.31,29.11Zm20.23-.53c-1-.14-1.93-.25-2.88-.34l.27-3c1,.09,2,.21,3,.35Zm-14.49-.31-.29-3c1-.1,2-.17,3-.22l.15,3C84,28.1,83,28.17,82.05,28.27ZM90.76,28C89.84,28,88.92,28,88,28h-.14V25H88c1,0,1.94,0,2.9.07Z"/><path class="cls-1" d="M54.55,78.12a1.26,1.26,0,0,1-.47-.08C37,72.36,32.07,59.57,31.87,59a1.5,1.5,0,0,1,2.82-1c0,.12,4.64,12,20.33,17.21a1.5,1.5,0,0,1-.47,2.92Z"/><path class="cls-1" d="M78.22,140.8a1.5,1.5,0,0,1-.75-2.8c.08,0,7.63-4.51,11.64-15.29a1.5,1.5,0,1,1,2.81,1c-4.41,11.86-12.61,16.65-13,16.85A1.42,1.42,0,0,1,78.22,140.8Z"/><path class="cls-1" d="M122.28,81a1.5,1.5,0,0,1-.6-2.88C135.14,72.23,139,61.58,139,61.48a1.5,1.5,0,0,1,2.84,1c-.17.49-4.28,12-19,18.37A1.61,1.61,0,0,1,122.28,81Z"/><rect class="cls-2" x="128" y="29" width="28" height="38" rx="2.92" transform="translate(190 -94) rotate(90)"/><polygon class="cls-2" points="30 31 15 43.75 15 65 45 65 45 43.75 30 31"/><rect class="cls-3" x="48" y="136" width="32" height="20" rx="2.54"/><path class="cls-1" d="M88.5,55.5a32,32,0,1,1-32,32,32,32,0,0,1,32-32m0-3a35,35,0,1,0,35,35,35,35,0,0,0-35-35Z"/><path class="cls-1" d="M88,68a7,7,0,1,1-7,7,7,7,0,0,1,7-7m0-3A10,10,0,1,0,98,75,10,10,0,0,0,88,65Z"/><path class="cls-1" d="M90.52,91A7.49,7.49,0,0,1,98,98.48V108H78V98.48A7.49,7.49,0,0,1,85.48,91h5m0-3h-5A10.48,10.48,0,0,0,75,98.48V111h26V98.48A10.48,10.48,0,0,0,90.52,88Z"/><rect class="cls-4" width="176" height="176"/></g></svg>