<svg width="160" height="160" viewBox="0 0 160 160" fill="none" xmlns="http://www.w3.org/2000/svg">
<path d="M111.651 131.497C110.987 131.497 110.33 131.367 109.717 131.114C109.104 130.86 108.546 130.488 108.077 130.019L76.6543 98.5839L83.79 91.4355L115.225 122.871C115.933 123.577 116.414 124.478 116.61 125.458C116.805 126.439 116.705 127.455 116.322 128.379C115.939 129.302 115.291 130.092 114.46 130.647C113.628 131.202 112.651 131.498 111.651 131.497Z" fill="white"/>
<path d="M83.7897 94.1259L113.886 124.21C114.479 124.803 114.812 125.607 114.812 126.445C114.812 127.284 114.479 128.088 113.886 128.681C113.293 129.273 112.489 129.607 111.651 129.607C110.812 129.607 110.008 129.273 109.415 128.681L79.3315 98.5842L83.7897 94.1259ZM83.7897 88.7583L73.9639 98.5842L106.801 131.421C107.446 132.066 108.212 132.578 109.055 132.927C109.898 133.277 110.801 133.456 111.714 133.456C112.626 133.456 113.53 133.277 114.373 132.927C115.216 132.578 115.982 132.066 116.627 131.421C117.272 130.776 117.784 130.01 118.133 129.167C118.482 128.324 118.662 127.421 118.662 126.508C118.662 125.596 118.482 124.692 118.133 123.849C117.784 123.006 117.272 122.241 116.627 121.595L83.7897 88.7583Z" fill="#365066"/>
<path d="M57.2051 111.188C46.4136 111.192 36.0302 107.064 28.1876 99.6509C20.3449 92.2381 15.6384 82.1036 15.0348 71.329C15.0348 70.5207 14.959 69.7124 14.959 68.9167C14.959 60.5487 17.4404 52.3687 22.0894 45.411C26.7384 38.4532 33.3462 33.0303 41.0772 29.828C48.8082 26.6258 57.3152 25.7879 65.5224 27.4204C73.7296 29.0529 81.2684 33.0825 87.1855 38.9995C93.1025 44.9166 97.1321 52.4554 98.7646 60.6626C100.397 68.8698 99.5593 77.3768 96.357 85.1078C93.1547 92.8388 87.7318 99.4466 80.7741 104.096C73.8163 108.745 65.6363 111.226 57.2683 111.226L57.2051 111.188Z" fill="white"/>
<path d="M57.2037 28.4642C64.7998 28.4662 72.2415 30.6089 78.6756 34.6466C85.1097 38.6843 90.2756 44.4535 93.581 51.2927C96.8864 58.1319 98.1974 65.7642 97.3638 73.3144C96.5301 80.8646 93.5856 88.027 88.8677 93.9803C84.1499 99.9337 77.8497 104.437 70.6898 106.974C63.5298 109.51 55.7999 109.978 48.3863 108.323C40.9728 106.667 34.1758 102.956 28.7748 97.6151C23.3738 92.2739 19.5874 85.5186 17.8498 78.1239C17.3198 75.8369 16.986 73.5088 16.852 71.165C16.852 70.4198 16.852 69.6368 16.852 68.879C16.852 58.1603 21.11 47.8807 28.6893 40.3014C36.2685 32.7222 46.5482 28.4642 57.2669 28.4642H57.2037ZM57.2037 24.6753C45.4802 24.6753 34.2368 29.3325 25.947 37.6223C17.6572 45.9121 13 57.1555 13 68.879C13 69.7126 13 70.5588 13.0758 71.405C13.5692 80.0261 16.577 88.3139 21.7275 95.2449C26.8781 102.176 33.946 107.447 42.0583 110.406C50.1706 113.365 58.972 113.884 67.3757 111.897C75.7793 109.911 83.4172 105.507 89.3459 99.2283C95.2747 92.95 99.2347 85.0727 100.737 76.5691C102.239 68.0656 101.218 59.3082 97.7992 51.3786C94.3805 43.4489 88.714 36.6942 81.4997 31.9487C74.2853 27.2032 65.839 24.6746 57.2037 24.6753Z" fill="#365066"/>
<path d="M56.7117 63.9282C63.6868 63.9282 69.3413 58.2737 69.3413 51.2986C69.3413 44.3234 63.6868 38.6689 56.7117 38.6689C49.7365 38.6689 44.082 44.3234 44.082 51.2986C44.082 58.2737 49.7365 63.9282 56.7117 63.9282Z" fill="#50A7EF"/>
<path d="M73.13 98.0284H40.293V81.2436C40.2913 79.4669 40.64 77.7072 41.3192 76.0654C41.9984 74.4235 42.9947 72.9317 44.251 71.6754C45.5074 70.419 46.9992 69.4227 48.641 68.7435C50.2829 68.0644 52.0425 67.7156 53.8193 67.7173H59.6037C61.3805 67.7156 63.1401 68.0644 64.782 68.7435C66.4238 69.4227 67.9156 70.419 69.172 71.6754C70.4283 72.9317 71.4246 74.4235 72.1038 76.0654C72.783 77.7072 73.1317 79.4669 73.13 81.2436V98.0284Z" fill="#50A7EF"/>
<path d="M146 12H108V41H146V12Z" fill="#2079D4"/>
<path d="M144 61H116V83H144V61Z" fill="#CC7A00"/>
<path d="M54 127H26V149H54V127Z" fill="#50A7EF"/>
<path d="M101 72.5H116" stroke="#365066" stroke-width="4"/>
<path d="M85 37L95 27" stroke="#365066" stroke-width="4" stroke-linecap="round"/>
<path d="M95 25C93.8954 25 93 25.8954 93 27C93 28.1046 93.8954 29 95 29V25ZM95 29H108V25H95V29Z" fill="#365066"/>
<line x1="72" y1="108" x2="72" y2="140" stroke="#365066" stroke-width="4"/>
<line x1="54" y1="138" x2="74" y2="138" stroke="#365066" stroke-width="4"/>
<path d="M139 17H113V21H139V17Z" fill="#80B9F2"/>
<path d="M131 24H113V28H131V24Z" fill="#80B9F2"/>
<path d="M44 138.27L36 133V143.54L44 138.27Z" fill="white"/>
</svg>
