<svg width="75" height="75" viewBox="0 0 75 75" fill="none" xmlns="http://www.w3.org/2000/svg">
<path d="M37.0312 70.3125C43.521 70.3125 49.8649 68.3881 55.2609 64.7826C60.6569 61.1771 64.8625 56.0525 67.346 50.0568C69.8296 44.0611 70.4793 37.4636 69.2133 31.0986C67.9472 24.7336 64.8221 18.887 60.2332 14.2981C55.6443 9.70916 49.7977 6.58408 43.4327 5.318C37.0676 4.05192 30.4701 4.70172 24.4744 7.18522C18.4787 9.66872 13.3541 13.8744 9.74865 19.2704C6.14317 24.6664 4.21875 31.0103 4.21875 37.5C4.21875 46.2024 7.67577 54.5484 13.8293 60.702C19.9828 66.8555 28.3288 70.3125 37.0312 70.3125Z" fill="#F0F6FC"/>
<path d="M59.283 67.2656H59.119L13.233 64.4531C12.8883 64.4317 12.5511 64.3423 12.241 64.1901C11.931 64.0378 11.654 63.8258 11.4262 63.5662C11.1983 63.3065 11.0241 63.0044 10.9134 62.6771C10.8028 62.3499 10.7579 62.004 10.7815 61.6594L13.7487 13.9875C13.7893 13.3226 14.082 12.6982 14.5672 12.2418C15.0524 11.7853 15.6935 11.5312 16.3596 11.5313H16.5237L62.4049 14.3438C62.7478 14.364 63.0833 14.4519 63.3921 14.6023C63.701 14.7527 63.977 14.9627 64.2044 15.2201C64.4318 15.4776 64.606 15.7774 64.7172 16.1025C64.8283 16.4275 64.874 16.7713 64.8518 17.1141L61.8752 64.8141C61.8326 65.4745 61.5417 66.0944 61.0608 66.5492C60.58 67.0039 59.9449 67.2599 59.283 67.2656Z" fill="white"/>
<path d="M16.3592 12.2344H16.4811L62.3623 15.0469C62.6126 15.0624 62.8573 15.1271 63.0825 15.2373C63.3077 15.3475 63.509 15.501 63.6748 15.6891C63.8419 15.8809 63.9694 16.1039 64.0499 16.3453C64.1303 16.5867 64.1622 16.8416 64.1436 17.0953L61.1764 64.7672C61.1455 65.2514 60.9317 65.7057 60.5783 66.0382C60.225 66.3707 59.7584 66.5564 59.2733 66.5578H59.1514L13.2701 63.7453C13.0194 63.7304 12.7742 63.6661 12.5484 63.5562C12.3226 63.4462 12.1207 63.2928 11.9543 63.1047C11.788 62.9165 11.6604 62.6974 11.5789 62.4598C11.4974 62.2223 11.4636 61.971 11.4795 61.7203L14.4467 14.0484C14.4708 13.5581 14.6831 13.0959 15.0393 12.758C15.3955 12.4201 15.8682 12.2326 16.3592 12.2344ZM16.3592 10.8281C15.5152 10.8289 14.7032 11.1511 14.0885 11.7294C13.4737 12.3076 13.1023 13.0983 13.0498 13.9406L10.0826 61.6125C10.0534 62.0494 10.1106 62.4877 10.2511 62.9025C10.3915 63.3172 10.6124 63.7001 10.9011 64.0293C11.1898 64.3585 11.5406 64.6275 11.9335 64.8209C12.3263 65.0143 12.7535 65.1282 13.1904 65.1562L59.0623 67.9688H59.2733C60.1164 67.9668 60.9272 67.644 61.541 67.0659C62.1548 66.4878 62.5256 65.6978 62.578 64.8563L65.5451 17.1844C65.5724 16.7494 65.5137 16.3132 65.3722 15.901C65.2307 15.4887 65.0093 15.1084 64.7206 14.7818C64.4319 14.4553 64.0816 14.1889 63.6898 13.9979C63.298 13.8069 62.8724 13.695 62.4373 13.6687L16.5561 10.8562H16.3498L16.3592 10.8281Z" fill="#365066"/>
<path d="M55.8375 10.5469H12.6C11.2072 10.5469 10.0781 11.676 10.0781 13.0687V60.9937C10.0781 62.3865 11.2072 63.5156 12.6 63.5156H55.8375C57.2303 63.5156 58.3594 62.3865 58.3594 60.9937V13.0687C58.3594 11.676 57.2303 10.5469 55.8375 10.5469Z" fill="white"/>
<path d="M55.8375 11.25C56.3199 11.25 56.7825 11.4416 57.1236 11.7827C57.4646 12.1238 57.6562 12.5864 57.6562 13.0687V60.9937C57.6562 61.4761 57.4646 61.9387 57.1236 62.2798C56.7825 62.6209 56.3199 62.8125 55.8375 62.8125H12.6C12.1176 62.8125 11.655 62.6209 11.3139 62.2798C10.9729 61.9387 10.7812 61.4761 10.7812 60.9937V13.0687C10.7812 12.5864 10.9729 12.1238 11.3139 11.7827C11.655 11.4416 12.1176 11.25 12.6 11.25H55.8375ZM55.8375 9.84375H12.6C11.7447 9.84375 10.9244 10.1835 10.3196 10.7883C9.71478 11.3931 9.375 12.2134 9.375 13.0687V60.9937C9.375 61.8491 9.71478 62.6694 10.3196 63.2742C10.9244 63.879 11.7447 64.2188 12.6 64.2188H55.8375C56.6928 64.2188 57.5131 63.879 58.1179 63.2742C58.7227 62.6694 59.0625 61.8491 59.0625 60.9937V13.0687C59.0625 12.2134 58.7227 11.3931 58.1179 10.7883C57.5131 10.1835 56.6928 9.84375 55.8375 9.84375Z" fill="#365066"/>
<path d="M28.5188 51.5859H16.4062V52.9687H28.5188V51.5859Z" fill="#365066"/>
<path d="M32.3438 48.75H16.4062V50.0391H32.3438V48.75Z" fill="#365066"/>
<path d="M51.5625 26.7988H36.5625V29.5316H51.5625V26.7988Z" fill="#65DDE0"/>
<path d="M51.5625 31.875H36.5625V44.0297H51.5625V31.875Z" fill="#50A7EF"/>
<path d="M23.4375 29.2969C26.1558 29.2969 28.3594 27.0933 28.3594 24.375C28.3594 21.6567 26.1558 19.4531 23.4375 19.4531C20.7192 19.4531 18.5156 21.6567 18.5156 24.375C18.5156 27.0933 20.7192 29.2969 23.4375 29.2969Z" fill="white"/>
<path d="M23.4375 20.1562C24.2719 20.1562 25.0875 20.4037 25.7813 20.8672C26.4751 21.3308 27.0158 21.9897 27.3351 22.7606C27.6544 23.5314 27.738 24.3797 27.5752 25.198C27.4124 26.0164 27.0106 26.7681 26.4206 27.3581C25.8306 27.9481 25.0789 28.3499 24.2605 28.5127C23.4422 28.6755 22.5939 28.5919 21.8231 28.2726C21.0522 27.9533 20.3933 27.4126 19.9297 26.7188C19.4662 26.025 19.2188 25.2094 19.2188 24.375C19.2188 23.2561 19.6632 22.1831 20.4544 21.3919C21.2456 20.6007 22.3186 20.1562 23.4375 20.1562ZM23.4375 18.75C22.325 18.75 21.2374 19.0799 20.3124 19.698C19.3874 20.3161 18.6664 21.1946 18.2407 22.2224C17.8149 23.2502 17.7035 24.3812 17.9206 25.4724C18.1376 26.5635 18.6734 27.5658 19.46 28.3525C20.2467 29.1391 21.249 29.6749 22.3401 29.8919C23.4313 30.109 24.5623 29.9976 25.5901 29.5718C26.6179 29.1461 27.4964 28.4251 28.1145 27.5001C28.7326 26.5751 29.0625 25.4875 29.0625 24.375C29.0625 22.8832 28.4699 21.4524 27.415 20.3975C26.3601 19.3426 24.9293 18.75 23.4375 18.75Z" fill="#365066"/>
<path d="M17.1094 43.3594V37.1859C17.1131 35.8407 17.6491 34.5516 18.6004 33.6004C19.5516 32.6491 20.8407 32.1131 22.1859 32.1094H24.8438C26.1479 32.1119 27.3979 32.6314 28.3196 33.554C29.2414 34.4766 29.7597 35.7271 29.7609 37.0312V43.3594H17.1094Z" fill="white"/>
<path d="M22.1859 32.8125H24.8438C25.9626 32.8125 27.0357 33.257 27.8269 34.0481C28.618 34.8393 29.0625 35.9124 29.0625 37.0312V42.6562H17.8125V37.1859C17.8174 36.0276 18.2798 34.918 19.0989 34.0989C19.918 33.2798 21.0276 32.8174 22.1859 32.8125ZM22.1859 31.4062C20.6546 31.4112 19.1874 32.0217 18.1045 33.1045C17.0217 34.1874 16.4112 35.6546 16.4062 37.1859V44.0625H30.4688V37.0312C30.4688 35.5394 29.8761 34.1087 28.8212 33.0538C27.7663 31.9989 26.3356 31.4063 24.8438 31.4062H22.1859Z" fill="#365066"/>
</svg>
