<svg width="160" height="160" viewBox="0 0 160 160" fill="none" xmlns="http://www.w3.org/2000/svg">
<g clip-path="url(#clip0_316_20732)">
<path d="M79 150C92.8447 150 106.378 145.895 117.89 138.203C129.401 130.511 138.373 119.579 143.672 106.788C148.97 93.997 150.356 79.9224 147.655 66.3437C144.954 52.765 138.287 40.2922 128.497 30.5026C118.708 20.7129 106.235 14.046 92.6563 11.3451C79.0777 8.6441 65.003 10.0303 52.2122 15.3285C39.4213 20.6266 28.4888 29.5987 20.7971 41.1101C13.1054 52.6216 9 66.1553 9 80C9 98.5652 16.375 116.37 29.5025 129.498C42.6301 142.625 60.4348 150 79 150Z" fill="#F0F6FC"/>
<path d="M80.998 40C80.998 39.1716 80.3265 38.5 79.498 38.5C78.6696 38.5 77.998 39.1716 77.998 40L80.998 40ZM77.998 43.2021L77.998 44.7021L80.998 44.7021L80.998 43.2021L77.998 43.2021ZM77.998 40L77.998 43.2021L80.998 43.2021L80.998 40L77.998 40Z" fill="#365066"/>
<path fill-rule="evenodd" clip-rule="evenodd" d="M78.4189 110.981C77.5402 110.987 76.8299 111.702 76.8299 112.582L76.8299 122.188C76.8299 123.073 77.5467 123.789 78.431 123.789C79.3152 123.789 80.0321 123.073 80.0321 122.188V112.582C80.0321 111.702 79.3217 110.987 78.443 110.981H78.4189ZM87.4374 112.146C87.0637 111.345 86.1111 110.998 85.3097 111.372C84.5083 111.745 84.1616 112.698 84.5353 113.499L90.3995 126.075C90.7732 126.877 91.7258 127.223 92.5272 126.85C93.3286 126.476 93.6754 125.523 93.3017 124.722L87.4374 112.146ZM62.5635 124.722C62.1898 125.523 62.5365 126.476 63.3379 126.85C64.1393 127.223 65.0919 126.877 65.4656 126.075L71.3298 113.499C71.7035 112.698 71.3568 111.745 70.5554 111.372C69.754 110.998 68.8014 111.345 68.4277 112.146L62.5635 124.722Z" fill="#365066"/>
<path d="M32 44.8032H123.795V105.649C123.795 110.068 120.213 113.649 115.795 113.649H40C35.5817 113.649 32 110.068 32 105.649V44.8032Z" fill="#2079D4"/>
<path d="M33.5 46.3032H122.295V105.649C122.295 109.239 119.385 112.149 115.795 112.149H40C36.4101 112.149 33.5 109.239 33.5 105.649V46.3032Z" fill="white" stroke="#365066" stroke-width="3"/>
<path fill-rule="evenodd" clip-rule="evenodd" d="M115.002 80.9042L115 80.8003L113.026 80.8324L113.058 82.8142L113.377 82.809L113.377 82.8138L115.334 82.782L115.303 80.8993L115.002 80.9042ZM109.073 82.8789L111.065 82.8465L111.033 80.8647L109.041 80.8971L109.073 82.8789ZM105.088 82.9436L107.081 82.9112L107.048 80.9294L105.056 80.9618L105.088 82.9436ZM101.103 83.0083L103.096 82.976L103.063 80.9942L101.071 81.0265L101.103 83.0083ZM97.1183 83.073L99.1108 83.0407L99.0786 81.0589L97.0862 81.0912L97.1183 83.073ZM93.1335 83.1377L95.1259 83.1054L95.0937 81.1236L93.1013 81.1559L93.1335 83.1377ZM89.1486 83.2025L91.141 83.1701L91.1089 81.1883L89.1164 81.2206L89.1486 83.2025ZM85.1637 83.2672L87.1562 83.2348L87.124 81.253L85.1315 81.2854L85.1637 83.2672ZM81.1788 83.3319L83.1713 83.2995L83.1391 81.3177L81.1467 81.3501L81.1788 83.3319ZM77.194 83.3966L79.1864 83.3642L79.1542 81.3824L77.1618 81.4148L77.194 83.3966ZM73.2091 83.4613L75.2015 83.4289L75.1693 81.4471L73.1769 81.4795L73.2091 83.4613ZM69.2242 83.526L71.2166 83.4937L71.1845 81.5119L69.192 81.5442L69.2242 83.526ZM65.2393 83.5907L67.2318 83.5584L67.1996 81.5766L65.2071 81.6089L65.2393 83.5907ZM61.2544 83.6554L63.2469 83.6231L63.2147 81.6413L61.2223 81.6736L61.2544 83.6554ZM57.2696 83.7202L59.262 83.6878L59.2298 81.706L57.2374 81.7384L57.2696 83.7202ZM53.2847 83.7849L55.2771 83.7525L55.2449 81.7707L53.2525 81.8031L53.2847 83.7849ZM49.2998 83.8496L51.2922 83.8172L51.2601 81.8354L49.2676 81.8678L49.2998 83.8496ZM45.3149 83.9143L47.3074 83.8819L47.2752 81.9001L45.2827 81.9325L45.3149 83.9143ZM71.2395 97.6959L69.2833 97.7277L69.3155 99.7095L71.2717 99.6777L71.2395 97.6959ZM65.403 99.773L67.3593 99.7413L67.3271 97.7595L65.3709 97.7912L65.403 99.773ZM61.4906 99.8366L63.4468 99.8048L63.4147 97.823L61.4584 97.8548L61.4906 99.8366ZM57.5782 99.9001L59.5344 99.8683L59.5022 97.8865L57.546 97.9183L57.5782 99.9001ZM53.6658 99.9636L55.622 99.9319L55.5898 97.9501L53.6336 97.9818L53.6658 99.9636ZM49.7534 100.027L51.7096 99.9954L51.6774 98.0136L49.7212 98.0454L49.7534 100.027ZM45.8409 100.091L47.7971 100.059L47.765 98.0771L45.8087 98.1089L45.8409 100.091ZM113.056 62.9958L113.026 62.9963L113.058 64.9781L115.044 64.9459L115.042 64.8467L115.042 64.8467L115.012 62.964L113.056 62.9958ZM109.027 65.0436L111.043 65.0108L111.01 63.029L108.995 63.0618L109.027 65.0436ZM104.996 65.109L107.012 65.0763L106.979 63.0945L104.964 63.1272L104.996 65.109ZM100.965 65.1745L102.981 65.1418L102.948 63.16L100.933 63.1927L100.965 65.1745ZM96.9341 65.2399L98.9496 65.2072L98.9174 63.2254L96.9019 63.2581L96.9341 65.2399ZM92.9031 65.3054L94.9186 65.2727L94.8865 63.2909L92.871 63.3236L92.9031 65.3054ZM88.8722 65.3709L90.8877 65.3381L90.8555 63.3563L88.84 63.3891L88.8722 65.3709ZM84.8412 65.4363L86.8567 65.4036L86.8245 63.4218L84.809 63.4545L84.8412 65.4363ZM80.8102 65.5018L82.8257 65.4691L82.7935 63.4873L80.778 63.52L80.8102 65.5018ZM76.7792 65.5673L78.7947 65.5345L78.7625 63.5527L76.747 63.5855L76.7792 65.5673ZM72.7482 65.6327L74.7637 65.6L74.7316 63.6182L72.7161 63.6509L72.7482 65.6327ZM70.7328 65.6655L70.7006 63.6836L68.7147 63.7159L68.7469 65.6977L70.7328 65.6655ZM96.0176 99.276L94.094 99.3072L94.0618 97.3254L95.9854 97.2942L96.0176 99.276ZM97.8764 97.2635L99.7674 97.2328L99.7996 99.2146L97.9086 99.2453L97.8764 97.2635ZM101.658 97.2021L103.549 97.1714L103.582 99.1532L101.691 99.1839L101.658 97.2021ZM105.44 97.1407L107.331 97.11L107.364 99.0918L105.473 99.1225L105.44 97.1407ZM109.222 97.0792L111.113 97.0485L111.146 99.0303L109.255 99.061L109.222 97.0792ZM113.037 98.9996L113.004 97.0178L114.928 96.9866L114.96 98.9684L113.037 98.9996ZM113.318 79.1475L113.289 77.3638L115.245 77.3321L115.274 79.1157L113.318 79.1475ZM113.26 75.5802L113.231 73.7966L115.187 73.7648L115.216 75.5484L113.26 75.5802ZM113.202 72.013L113.173 70.2293L115.129 70.1976L115.158 71.9812L113.202 72.013ZM113.144 68.4457L113.115 66.6621L115.071 66.6303L115.1 68.414L113.144 68.4457Z" fill="#365066"/>
<path d="M60 52L52 59.125V71H68V59.125L60 52Z" fill="#2079D4"/>
<path d="M83.3354 89L73 98.0098L83.3724 107L93 97.9609L83.3354 89Z" fill="#50A7EF"/>
<path d="M111 93C110.011 93 109.044 93.2932 108.222 93.8427C107.4 94.3921 106.759 95.173 106.381 96.0866C106.002 97.0002 105.903 98.0055 106.096 98.9755C106.289 99.9454 106.765 100.836 107.464 101.536C108.164 102.235 109.055 102.711 110.025 102.904C110.994 103.097 112 102.998 112.913 102.619C113.827 102.241 114.608 101.6 115.157 100.778C115.707 99.9556 116 98.9889 116 98C116 96.6739 115.473 95.4021 114.536 94.4645C113.598 93.5268 112.326 93 111 93Z" fill="#CC7A00"/>
<path d="M46.9821 83.9927L46.9821 82L45 82L45 83.9927L46.9821 83.9927Z" fill="#365066"/>
<path d="M46.9821 87.9781L46.9821 85.9854L45 85.9854L45 87.9781L46.9821 87.9781Z" fill="#365066"/>
<path d="M46.9821 91.9635L46.9821 89.9708L45 89.9708L45 91.9635L46.9821 91.9635Z" fill="#365066"/>
<path d="M46.9821 95.9489L46.9821 93.9562L45 93.9562L45 95.9489L46.9821 95.9489Z" fill="#365066"/>
<path d="M46.9821 99.9343L46.9821 97.9416L45 97.9416L45 99.9343L46.9821 99.9343Z" fill="#365066"/>
</g>
<defs>
<clipPath id="clip0_316_20732">
<rect width="160" height="160" fill="white"/>
</clipPath>
</defs>
</svg>
