<svg width="176" height="176" viewBox="0 0 176 176" fill="none" xmlns="http://www.w3.org/2000/svg">
<g clip-path="url(#clip0_40002001_41379)">
<path d="M33 48C34.6569 48 36 46.6569 36 45C36 43.3431 34.6569 42 33 42C31.3431 42 30 43.3431 30 45C30 46.6569 31.3431 48 33 48Z" fill="#365066"/>
<path d="M42 48C43.6569 48 45 46.6569 45 45C45 43.3431 43.6569 42 42 42C40.3431 42 39 43.3431 39 45C39 46.6569 40.3431 48 42 48Z" fill="#365066"/>
<path d="M51 48C52.6569 48 54 46.6569 54 45C54 43.3431 52.6569 42 51 42C49.3431 42 48 43.3431 48 45C48 46.6569 49.3431 48 51 48Z" fill="#365066"/>
<path d="M157.1 35H24.9C23.8665 35.0026 22.876 35.4144 22.1452 36.1452C21.4144 36.876 21.0026 37.8665 21 38.9V125.1C21.0026 126.134 21.4144 127.124 22.1452 127.855C22.876 128.586 23.8665 128.997 24.9 129H157.1C158.134 128.997 159.124 128.586 159.855 127.855C160.586 127.124 160.997 126.134 161 125.1V38.9C160.997 37.8665 160.586 36.876 159.855 36.1452C159.124 35.4144 158.134 35.0026 157.1 35ZM158 125.1C158 125.339 157.905 125.568 157.736 125.736C157.568 125.905 157.339 126 157.1 126H24.9C24.6613 126 24.4324 125.905 24.2636 125.736C24.0948 125.568 24 125.339 24 125.1V54H158V125.1ZM158 51H24V38.9C24 38.6613 24.0948 38.4324 24.2636 38.2636C24.4324 38.0948 24.6613 38 24.9 38H157.1C157.339 38 157.568 38.0948 157.736 38.2636C157.905 38.4324 158 38.6613 158 38.9V51Z" fill="#365066"/>
<path d="M62 93V87H49H36V93H62Z" fill="#CC7A00"/>
<path d="M88 97H36V100H88V97Z" fill="#2079D4"/>
<path d="M81 106H36V112H81V106Z" fill="#CC7A00"/>
<path d="M88 116H36V119H88V116Z" fill="#2079D4"/>
<path d="M147.79 114.43L160.52 101.7L169 93.22L160.52 84.73L147.79 72L139.3 80.49L146.03 87.22L116 87.22L116 99.22L146.03 99.22L139.3 105.94L147.79 114.43Z" fill="#2079D4"/>
<path d="M36.38 64.4H39.28L40.96 75.64H41.26L43.7 64.4H46.9L49.34 75.64H49.64L51.32 64.4H54.22L51.62 78H47.44L45.3 67.66L43.16 78H38.98L36.38 64.4ZM54.9738 64.4H57.8738L59.5538 75.64H59.8538L62.2938 64.4H65.4938L67.9338 75.64H68.2338L69.9138 64.4H72.8138L70.2138 78H66.0338L63.8938 67.66L61.7538 78H57.5738L54.9738 64.4ZM73.5675 64.4H76.4675L78.1475 75.64H78.4475L80.8875 64.4H84.0875L86.5275 75.64H86.8275L88.5075 64.4H91.4075L88.8075 78H84.6275L82.4875 67.66L80.3475 78H76.1675L73.5675 64.4ZM92.3153 78V74.68H95.1953V78H92.3153Z" fill="#2079D4"/>
</g>
<defs>
<clipPath id="clip0_40002001_41379">
<rect width="176" height="176" fill="white"/>
</clipPath>
</defs>
</svg>
