<svg width="160" height="160" viewBox="0 0 160 160" fill="none" xmlns="http://www.w3.org/2000/svg">
<g clip-path="url(#clip0_39_6980)">
<path d="M79 150C92.8447 150 106.378 145.895 117.89 138.203C129.401 130.511 138.373 119.579 143.672 106.788C148.97 93.997 150.356 79.9224 147.655 66.3437C144.954 52.765 138.287 40.2922 128.497 30.5026C118.708 20.7129 106.235 14.046 92.6563 11.3451C79.0777 8.6441 65.003 10.0303 52.2122 15.3285C39.4213 20.6266 28.4888 29.5987 20.7971 41.1101C13.1054 52.6216 9 66.1553 9 80C9 98.5652 16.375 116.37 29.5025 129.498C42.6301 142.625 60.4348 150 79 150V150Z" fill="#F0F6FC"/>
<path d="M131.5 62.5131C138.222 62.5131 143.671 57.064 143.671 50.3421C143.671 43.6202 138.222 38.171 131.5 38.171C124.778 38.171 119.329 43.6202 119.329 50.3421C119.329 57.064 124.778 62.5131 131.5 62.5131Z" fill="white"/>
<path d="M131.5 39.6316C133.618 39.6316 135.689 40.2598 137.45 41.4367C139.212 42.6136 140.585 44.2863 141.395 46.2434C142.206 48.2005 142.418 50.354 142.005 52.4317C141.591 54.5093 140.571 56.4177 139.073 57.9156C137.576 59.4135 135.667 60.4336 133.59 60.8469C131.512 61.2601 129.358 61.048 127.401 60.2374C125.444 59.4267 123.771 58.0539 122.595 56.2926C121.418 54.5313 120.789 52.4605 120.789 50.3421C120.789 47.5015 121.918 44.7773 123.927 42.7687C125.935 40.7601 128.659 39.6316 131.5 39.6316ZM131.5 36.7106C128.804 36.7106 126.168 37.51 123.927 39.0079C121.685 40.5058 119.938 42.6347 118.906 45.1256C117.874 47.6164 117.604 50.3573 118.13 53.0015C118.656 55.6458 119.955 58.0747 121.861 59.9811C123.767 61.8875 126.196 63.1858 128.841 63.7118C131.485 64.2378 134.226 63.9678 136.717 62.9361C139.207 61.9043 141.336 60.1572 142.834 57.9155C144.332 55.6737 145.132 53.0382 145.132 50.3421C145.132 46.7268 143.695 43.2596 141.139 40.7032C138.583 38.1468 135.115 36.7106 131.5 36.7106V36.7106Z" fill="#365066"/>
<path d="M114.461 98.5394V82.717C114.466 79.1911 115.869 75.811 118.362 73.3178C120.855 70.8246 124.235 69.4217 127.761 69.4165H135.239C138.765 69.4217 142.145 70.8246 144.638 73.3178C147.131 75.811 148.534 79.1911 148.54 82.717V98.5394H114.461Z" fill="white"/>
<path d="M135.239 70.8771C138.378 70.8797 141.388 72.1279 143.608 74.3478C145.828 76.5677 147.076 79.5777 147.079 82.7171V97.079H115.921V82.7171C115.924 79.5777 117.172 76.5677 119.392 74.3478C121.612 72.1279 124.622 70.8797 127.761 70.8771H135.239ZM135.239 67.9561H127.761C123.846 67.9561 120.092 69.5112 117.323 72.2795C114.555 75.0477 113 78.8022 113 82.7171V100H150V82.7171C150 78.8022 148.445 75.0477 145.677 72.2795C142.908 69.5112 139.154 67.9561 135.239 67.9561V67.9561Z" fill="#365066"/>
<path d="M30.08 130.5C25.35 130.5 21.5 126.09 21.5 120.66V35.34C21.5 29.91 25.35 25.5 30.08 25.5H69.92C74.65 25.5 78.5 29.91 78.5 35.34V120.66C78.5 126.09 74.65 130.5 69.92 130.5H30.08Z" fill="white"/>
<path d="M69.91 24H30.09C24.52 24 20 29.08 20 35.34V120.66C20 126.92 24.52 132 30.09 132H69.91C75.48 132 80 126.92 80 120.66V35.34C80 29.08 75.48 24 69.91 24ZM23 35.34C23 30.74 26.18 27 30.09 27H69.91C73.82 27 77 30.74 77 35.34V114H23.24C23.1603 113.99 23.0797 113.99 23 114V35.34ZM69.91 129H30.09C26.18 129 23 125.6 23 121V117H77V120.66C77 125.26 73.82 129 69.91 129Z" fill="#365066"/>
<path d="M50 126C51.6569 126 53 124.657 53 123C53 121.343 51.6569 120 50 120C48.3431 120 47 121.343 47 123C47 124.657 48.3431 126 50 126Z" fill="#365066"/>
<path d="M115.49 135.29C114.964 135.29 114.444 135.187 113.958 134.987C113.473 134.786 113.031 134.491 112.66 134.12L87.7695 109.24L93.4295 103.58L118.32 128.46C118.691 128.832 118.986 129.273 119.188 129.758C119.389 130.244 119.493 130.764 119.493 131.29C119.493 131.816 119.389 132.336 119.188 132.822C118.986 133.307 118.691 133.749 118.32 134.12C117.948 134.491 117.507 134.786 117.021 134.987C116.535 135.187 116.015 135.29 115.49 135.29Z" fill="white"/>
<path d="M93.4304 105.7L117.26 129.53C117.715 130.002 117.966 130.634 117.96 131.289C117.953 131.945 117.689 132.572 117.225 133.035C116.761 133.497 116.133 133.759 115.478 133.764C114.822 133.769 114.191 133.516 113.72 133.06L89.8904 109.24L93.4304 105.7ZM93.4304 101.46L85.6504 109.24L111.6 135.18C112.111 135.691 112.718 136.096 113.385 136.373C114.052 136.649 114.768 136.792 115.49 136.792C116.213 136.792 116.928 136.649 117.596 136.373C118.263 136.096 118.87 135.691 119.38 135.18C120.408 134.146 120.984 132.747 120.984 131.29C120.984 129.832 120.408 128.434 119.38 127.4L93.4304 101.46Z" fill="#365066"/>
<path d="M70 117.53C62.4364 117.555 55.089 115.008 49.1635 110.307C43.238 105.606 39.0864 99.031 37.39 91.66C36.9527 89.7737 36.6783 87.8533 36.57 85.92C36.53 85.2534 36.51 84.6134 36.51 84C36.5159 77.3752 38.486 70.9009 42.1711 65.3956C45.8561 59.8903 51.0908 55.6012 57.2132 53.0705C63.3356 50.5399 70.0709 49.8813 76.5676 51.1781C83.0642 52.4749 89.0305 55.6689 93.7122 60.3561C98.3939 65.0434 101.581 71.0135 102.87 77.5117C104.159 84.0099 103.492 90.7444 100.954 96.8638C98.4163 102.983 94.1209 108.213 88.6112 111.891C83.1015 115.57 76.6248 117.532 70 117.53V117.53Z" fill="white"/>
<path d="M70 52C76.0149 51.9997 81.9081 53.6947 87.0038 56.8905C92.0994 60.0864 96.1912 64.6537 98.8098 70.0686C101.428 75.4836 102.468 81.527 101.809 87.5057C101.15 93.4844 98.8193 99.1563 95.0843 103.871C91.3492 108.586 86.361 112.152 80.6916 114.162C75.0223 116.171 68.9014 116.542 63.0309 115.232C57.1605 113.921 51.7781 110.983 47.5012 106.754C43.2243 102.525 40.2259 97.1754 38.85 91.32C38.4295 89.513 38.1685 87.6726 38.07 85.82C38.07 85.22 38.01 84.61 38.01 84C38.01 75.5131 41.3814 67.3737 47.3826 61.3726C53.3837 55.3714 61.5231 52 70.01 52H70ZM70 49C60.7174 49 51.815 52.6875 45.2513 59.2513C38.6875 65.815 35 74.7174 35 84C35 84.67 35 85.34 35.06 86C35.4507 92.8261 37.8322 99.3883 41.9104 104.876C45.9885 110.364 51.5848 114.537 58.008 116.88C64.4312 119.224 71.4001 119.634 78.054 118.061C84.7079 116.489 90.7555 113.001 95.4498 108.03C100.144 103.059 103.28 96.8219 104.469 90.0889C105.659 83.3559 104.85 76.4219 102.143 70.1433C99.4361 63.8647 94.9495 58.5164 89.2372 54.759C83.525 51.0015 76.8373 48.9995 70 49V49Z" fill="#365066"/>
<path d="M94.6588 72.3515L69.4518 97.5585L63.1003 103.91L56.7488 97.5585L43.91 84.7198L50.2616 78.3773L63.1003 91.207L88.3073 66L94.6588 72.3515Z" fill="#2079D4"/>
</g>
<defs>
<clipPath id="clip0_39_6980">
<rect width="160" height="160" fill="white"/>
</clipPath>
</defs>
</svg>
