<svg width="160" height="160" viewBox="0 0 160 160" fill="none" xmlns="http://www.w3.org/2000/svg">
<g clip-path="url(#clip0_437_223)">
<path d="M79 150C92.8447 150 106.378 145.895 117.89 138.203C129.401 130.511 138.373 119.579 143.672 106.788C148.97 93.997 150.356 79.9224 147.655 66.3437C144.954 52.765 138.287 40.2922 128.497 30.5026C118.708 20.7129 106.235 14.046 92.6563 11.3451C79.0777 8.6441 65.003 10.0303 52.2122 15.3285C39.4213 20.6266 28.4888 29.5987 20.7971 41.1101C13.1054 52.6216 9 66.1553 9 80C9 98.5652 16.375 116.37 29.5025 129.498C42.6301 142.625 60.4348 150 79 150Z" fill="#F0F6FC"/>
<path d="M135.16 27H25.0754C24.4815 27 24 27.4854 24 28.0842V131.916C24 132.515 24.4815 133 25.0754 133H135.16C135.754 133 136.235 132.515 136.235 131.916V28.0842C136.235 27.4854 135.754 27 135.16 27Z" fill="white"/>
<path d="M134.113 27H26.7998C26.0572 27 25.3451 27.295 24.82 27.82C24.295 28.3451 24 29.0572 24 29.7998V130.2C24 130.943 24.295 131.655 24.82 132.18C25.3451 132.705 26.0572 133 26.7998 133H134.113C134.856 133 135.568 132.705 136.093 132.18C136.618 131.655 136.913 130.943 136.913 130.2V29.7998C136.913 29.0572 136.618 28.3451 136.093 27.82C135.568 27.295 134.856 27 134.113 27ZM133.457 30.4565V107.652H28.0326C27.8364 107.657 27.642 107.692 27.4565 107.756V30.4565H133.457ZM27.4565 129.544V111.005C27.642 111.069 27.8364 111.104 28.0326 111.109H133.457V129.544H27.4565Z" fill="#365066"/>
<path d="M127 117H33V123H127V117Z" fill="#80B9F2"/>
<path d="M73 117H40V123H73V117Z" fill="#2079D4"/>
<path d="M116 117H104V123H116V117Z" fill="#2079D4"/>
<path d="M66 117H57V123H66V117Z" fill="#CC7A00"/>
<rect x="45.5336" y="46.4806" width="21.9081" height="21.9081" rx="4.94699" fill="#50A7EF"/>
<rect x="55.4276" y="42.2404" width="2.82685" height="4.94699" rx="0.706713" fill="#50A7EF"/>
<rect x="42" y="72.6289" width="28.9752" height="25.4417" rx="7.77384" fill="#50A7EF"/>
<path d="M51.8941 52.74C52.3334 52.74 52.7628 52.8703 53.1281 53.1144C53.4933 53.3584 53.778 53.7053 53.9461 54.1112C54.1142 54.517 54.1582 54.9636 54.0725 55.3944C53.9868 55.8253 53.7753 56.2211 53.4647 56.5317C53.154 56.8423 52.7583 57.0538 52.3274 57.1395C51.8966 57.2252 51.45 57.1813 51.0441 57.0132C50.6383 56.845 50.2914 56.5604 50.0473 56.1951C49.8033 55.8298 49.673 55.4004 49.673 54.9611C49.673 54.3721 49.907 53.8071 50.3236 53.3906C50.7401 52.974 51.305 52.74 51.8941 52.74ZM51.8941 52.1343C51.335 52.1343 50.7885 52.3001 50.3236 52.6107C49.8587 52.9213 49.4964 53.3628 49.2824 53.8793C49.0685 54.3959 49.0125 54.9643 49.1216 55.5126C49.2306 56.061 49.4999 56.5647 49.8952 56.96C50.2906 57.3554 50.7943 57.6246 51.3426 57.7337C51.891 57.8427 52.4594 57.7868 52.9759 57.5728C53.4924 57.3588 53.9339 56.9965 54.2445 56.5316C54.5552 56.0668 54.721 55.5202 54.721 54.9611C54.721 54.2114 54.4231 53.4924 53.893 52.9622C53.3629 52.4321 52.6438 52.1343 51.8941 52.1343Z" fill="white"/>
<path d="M53.1281 53.1144C52.7628 52.8703 52.3334 52.74 51.8941 52.74C51.305 52.74 50.7401 52.974 50.3236 53.3906C49.907 53.8071 49.673 54.3721 49.673 54.9611C49.673 55.4004 49.8033 55.8298 50.0473 56.1951C50.2914 56.5604 50.6383 56.845 51.0441 57.0132C51.45 57.1813 51.8966 57.2252 52.3274 57.1395C52.7583 57.0538 53.154 56.8423 53.4647 56.5317C53.7753 56.2211 53.9868 55.8253 54.0725 55.3944C54.1582 54.9636 54.1142 54.517 53.9461 54.1112C53.778 53.7053 53.4933 53.3584 53.1281 53.1144Z" fill="white"/>
<path d="M56.8409 38.6058C57.2802 38.6058 57.7097 38.736 58.0749 38.9801C58.4402 39.2241 58.7249 39.571 58.893 39.9769C59.0611 40.3827 59.1051 40.8293 59.0194 41.2602C58.9337 41.691 58.7221 42.0868 58.4115 42.3974C58.1009 42.708 57.7051 42.9196 57.2743 43.0053C56.8434 43.091 56.3968 43.047 55.991 42.8789C55.5851 42.7108 55.2382 42.4261 54.9942 42.0608C54.7501 41.6956 54.6199 41.2661 54.6199 40.8268C54.6199 40.2378 54.8539 39.6728 55.2704 39.2563C55.6869 38.8398 56.2519 38.6058 56.8409 38.6058ZM56.8409 38C56.2819 38 55.7353 38.1658 55.2704 38.4764C54.8056 38.787 54.4432 39.2285 54.2293 39.7451C54.0153 40.2616 53.9593 40.83 54.0684 41.3783C54.1775 41.9267 54.4467 42.4304 54.8421 42.8257C55.2374 43.2211 55.7411 43.4903 56.2895 43.5994C56.8378 43.7085 57.4062 43.6525 57.9227 43.4385C58.4393 43.2246 58.8808 42.8622 59.1914 42.3974C59.502 41.9325 59.6678 41.3859 59.6678 40.8268C59.6678 40.0771 59.37 39.3581 58.8398 38.828C58.3097 38.2978 57.5907 38 56.8409 38Z" fill="#50A7EF"/>
<path d="M58.0749 38.9801C57.7097 38.736 57.2802 38.6058 56.8409 38.6058C56.2519 38.6058 55.6869 38.8398 55.2704 39.2563C54.8539 39.6728 54.6199 40.2378 54.6199 40.8268C54.6199 41.2661 54.7501 41.6956 54.9942 42.0608C55.2382 42.4261 55.5851 42.7108 55.991 42.8789C56.3968 43.047 56.8434 43.091 57.2743 43.0053C57.7051 42.9196 58.1009 42.708 58.4115 42.3974C58.7221 42.0868 58.9337 41.691 59.0194 41.2602C59.1051 40.8293 59.0611 40.3827 58.893 39.9769C58.7249 39.571 58.4402 39.2241 58.0749 38.9801Z" fill="#50A7EF"/>
<path d="M61.7881 52.74C62.2274 52.74 62.6568 52.8703 63.0221 53.1144C63.3873 53.3584 63.672 53.7053 63.8401 54.1112C64.0082 54.517 64.0522 54.9636 63.9665 55.3944C63.8808 55.8253 63.6693 56.2211 63.3587 56.5317C63.048 56.8423 62.6523 57.0538 62.2214 57.1395C61.7906 57.2252 61.344 57.1813 60.9381 57.0132C60.5323 56.845 60.1854 56.5604 59.9413 56.1951C59.6973 55.8298 59.567 55.4004 59.567 54.9611C59.567 54.3721 59.801 53.8071 60.2176 53.3906C60.6341 52.974 61.199 52.74 61.7881 52.74ZM61.7881 52.1343C61.229 52.1343 60.6825 52.3001 60.2176 52.6107C59.7527 52.9213 59.3904 53.3628 59.1764 53.8793C58.9625 54.3959 58.9065 54.9643 59.0156 55.5126C59.1247 56.061 59.3939 56.5647 59.7892 56.96C60.1846 57.3554 60.6883 57.6246 61.2366 57.7337C61.785 57.8427 62.3534 57.7868 62.8699 57.5728C63.3864 57.3588 63.8279 56.9965 64.1385 56.5316C64.4492 56.0668 64.615 55.5202 64.615 54.9611C64.615 54.2114 64.3171 53.4924 63.787 52.9622C63.2569 52.4321 62.5378 52.1343 61.7881 52.1343Z" fill="white"/>
<path d="M63.0221 53.1144C62.6568 52.8703 62.2274 52.74 61.7881 52.74C61.199 52.74 60.6341 52.974 60.2176 53.3906C59.801 53.8071 59.567 54.3721 59.567 54.9611C59.567 55.4004 59.6973 55.8298 59.9413 56.1951C60.1854 56.5604 60.5323 56.845 60.9381 57.0132C61.344 57.1813 61.7906 57.2252 62.2214 57.1395C62.6523 57.0538 63.048 56.8423 63.3587 56.5317C63.6693 56.2211 63.8808 55.8253 63.9665 55.3944C64.0522 54.9636 64.0082 54.517 63.8401 54.1112C63.672 53.7053 63.3873 53.3584 63.0221 53.1144Z" fill="white"/>
<rect x="42" y="83.9364" width="28.9752" height="14.1343" fill="#50A7EF"/>
<path d="M137.072 40.2275H86.1784C85.4984 40.2275 84.825 40.3614 84.1967 40.6217C83.5684 40.8819 82.9976 41.2633 82.5167 41.7442C82.0359 42.2251 81.6544 42.7959 81.3942 43.4242C81.1339 44.0525 81 44.7259 81 45.4059V87.0002L89.2298 78.0911H137.116C137.796 78.0911 138.47 77.9572 139.098 77.6969C139.726 77.4367 140.297 77.0552 140.778 76.5744C141.259 76.0935 141.64 75.5227 141.9 74.8944C142.161 74.2661 142.295 73.5927 142.295 72.9127V45.4059C142.295 44.7221 142.159 44.0451 141.896 43.4139C141.633 42.7827 141.248 42.2098 140.762 41.7284C140.277 41.2469 139.7 40.8664 139.067 40.6088C138.434 40.3512 137.755 40.2216 137.072 40.2275Z" fill="#2079D4"/>
<path d="M98.5838 68L103.101 49.6918H109.007L113.551 68H110.558L109.569 64.0711H102.539L101.551 68H98.5838ZM105.399 52.1775L103.127 61.4518H108.981L106.736 52.1775H105.399ZM125.702 58.7524V64.8462C125.72 65.2382 125.818 65.5322 125.996 65.7282C126.192 65.9064 126.486 66.0222 126.878 66.0756L126.798 68.294C125.266 68.294 124.081 67.9644 123.243 67.3051C121.818 67.9644 120.383 68.294 118.94 68.294C116.285 68.294 114.958 66.8775 114.958 64.0444C114.958 62.6902 115.314 61.7102 116.027 61.1044C116.757 60.4985 117.871 60.1333 119.368 60.0085L122.816 59.7145V58.7524C122.816 58.0396 122.655 57.5407 122.335 57.2556C122.032 56.9706 121.577 56.828 120.971 56.828C119.831 56.828 118.406 56.8993 116.695 57.0418L115.84 57.0953L115.733 55.0373C117.675 54.574 119.457 54.3424 121.078 54.3424C122.718 54.3424 123.894 54.6987 124.606 55.4115C125.337 56.1064 125.702 57.22 125.702 58.7524ZM119.715 62.0665C118.486 62.1735 117.871 62.8416 117.871 64.0711C117.871 65.3005 118.415 65.9153 119.501 65.9153C120.392 65.9153 121.337 65.7727 122.335 65.4876L122.816 65.3273V61.7725L119.715 62.0665Z" fill="white"/>
</g>
<defs>
<clipPath id="clip0_437_223">
<rect width="160" height="160" fill="white"/>
</clipPath>
</defs>
</svg>
