<svg xmlns="http://www.w3.org/2000/svg" viewBox="0 0 176 176"><defs><style>.cls-1{fill:#365066;}.cls-2{fill:#2079d4;}.cls-3{fill:#CC7A00;}.cls-4{fill:#50a7ef;}.cls-5{fill:none;}</style></defs><g id="kit_architettura"><path class="cls-1" d="M154.58,55H62a1.5,1.5,0,0,0,0,3h5v73.5a1.54,1.54,0,0,0,1.59,1.5h17.3a1.5,1.5,0,1,0,0-3H70V95H83.79a1.5,1.5,0,1,0,0-3H70V58h49v73.5a1.5,1.5,0,0,0,1.5,1.5h13.61a1.5,1.5,0,0,0,0-3H122V95h13.15a1.5,1.5,0,0,0,0-3H122V58h32.58a1.5,1.5,0,1,0,0-3Z"/><rect class="cls-2" x="79" y="42" width="34" height="26"/><rect class="cls-3" x="133" y="82" width="28" height="22"/><rect class="cls-4" x="127" y="42" width="34" height="26"/><rect class="cls-2" x="84" y="120" width="28" height="22"/><rect class="cls-2" x="133" y="120" width="28" height="22"/><rect class="cls-4" x="84.22" y="82" width="28" height="22"/><path class="cls-1" d="M34,39A11,11,0,1,1,23,50,11,11,0,0,1,34,39m0-3A14,14,0,1,0,48,50,14,14,0,0,0,34,36Z"/><path class="cls-1" d="M37,70A12,12,0,0,1,49,82V98H19V82A12,12,0,0,1,31,70h6m0-3H31A15,15,0,0,0,16,82v19H52V82A15,15,0,0,0,37,67Z"/><rect class="cls-5" width="176" height="176"/></g></svg>