<svg xmlns="http://www.w3.org/2000/svg" viewBox="0 0 176 176"><defs><style>.cls-1{fill:none;}.cls-2{fill:#365066;}.cls-3{fill:#2079d4;}.cls-4{fill:#80b9f2;}.cls-5{fill:#CC7A00;}.cls-6{fill:#fff;}</style></defs><g id="kit_prototipazione-2" data-name="kit_prototipazione"><rect class="cls-1" x="19.5" y="36.5" width="137" height="91" rx="1.98"/><path class="cls-2" d="M154.52,35h-133A3.48,3.48,0,0,0,18,38.48v87A3.48,3.48,0,0,0,21.48,129H97.19l-4-3H21.48a.49.49,0,0,1-.48-.48V53H155v72.52a.49.49,0,0,1-.48.48H113.86v.06L108.78,129h45.74a3.48,3.48,0,0,0,3.48-3.48v-87A3.48,3.48,0,0,0,154.52,35ZM155,50H21V38.48a.49.49,0,0,1,.48-.48h133a.49.49,0,0,1,.48.48Z"/><rect class="cls-3" x="30" y="103" width="38" height="6" rx="3"/><rect class="cls-4" x="45" y="66" width="9" height="8"/><rect class="cls-3" x="30" y="66" width="9" height="8"/><rect class="cls-5" x="59" y="66" width="9" height="8"/><rect class="cls-4" x="30" y="82" width="38" height="6"/><rect class="cls-4" x="30" y="91" width="53" height="6"/><rect class="cls-3" x="105" y="66" width="41" height="31"/><polygon class="cls-6" points="146 83.98 146 88.22 136.22 78.35 121.16 93.55 112.17 84.48 105 91.73 105 87.48 112.17 80.24 121.16 89.3 136.22 74.11 146 83.98"/><circle class="cls-6" cx="124" cy="76" r="2.5"/><path class="cls-6" d="M124,75a1,1,0,1,1-1,1,1,1,0,0,1,1-1m0-3a4,4,0,1,0,4,4,4,4,0,0,0-4-4Z"/><path class="cls-1" d="M115.55,126,114,112.9l-.06-.79L89.69,97.61l.44,28.24.22.15.49.34L94.4,129l7.72,5.78,10-5.78,3.53-2Zm-6.77,3H97.19l-4-3h20.68v.06Z"/><path class="cls-2" d="M117.24,126l-1.59-13.23-.13-1.65-1.7-1L89.67,95.65a1.08,1.08,0,0,0-.55-.15A1.12,1.12,0,0,0,88,96.62l.44,28.14,0,1.24v.74l1.37.94L91.6,129l10.4,7.78L115.48,129l2-1.14Zm-15,6.78-5-3.78-4-3-1.34-1,0,0v-.26L91.46,104,100,118.82a1.68,1.68,0,0,0,2.9-1.68l-8.54-14.78L112.11,113l.21.13v.06L113.86,126v.06L108.78,129Z"/><path class="cls-2" d="M118.14,129l-.13-.18-.31.18-15.14,8.75,4,9.25L124,137Zm-11.31,10.15,10.26-5.93,2,2.71-10.91,6.3Z"/><circle class="cls-2" cx="30" cy="44" r="3"/><circle class="cls-2" cx="39" cy="44" r="3"/><circle class="cls-2" cx="48" cy="44" r="3"/><rect class="cls-1" width="176" height="176"/></g></svg>