<svg xmlns="http://www.w3.org/2000/svg" viewBox="0 0 176 176"><defs><style>.cls-1{fill:#365066;}.cls-2{fill:#2079d4;}.cls-3{fill:#50a7ef;}.cls-4{fill:#65dde0;}.cls-5{fill:none;}</style></defs><g id="kit_esperienza_utente" data-name="kit_esperienza utente"><rect class="cls-1" x="15.14" y="105" width="36" height="3"/><rect class="cls-1" x="15.14" y="111" width="22" height="3"/><rect class="cls-2" x="53.14" y="44" width="42" height="24" rx="1.02" transform="translate(18.14 130.14) rotate(-90)"/><rect class="cls-3" x="95.14" y="35" width="24" height="42" rx="1.02"/><rect class="cls-4" x="118.14" y="44" width="42" height="24" rx="1.02" transform="translate(83.14 195.14) rotate(-90)"/><path class="cls-1" d="M111.64,141h-.8v-3h.8Zm-3.8,0h-3v-3h3Zm-6,0h-3v-3h3Zm-6,0h-3v-3h3Zm-6,0h-3v-3h3Zm-6,0h-3v-3h3Zm-6,0h-3v-3h3Zm-6.07,0a23.64,23.64,0,0,1-3.19-.37l.55-3a19.13,19.13,0,0,0,2.77.32Zm-6.29-1.16a22.24,22.24,0,0,1-3-1.21l1.32-2.69A19.75,19.75,0,0,0,66.39,137ZM59.7,137a17.84,17.84,0,0,1-2.49-2.14l2.17-2.08a14.11,14.11,0,0,0,2,1.77Zm-4.52-4.77a14.38,14.38,0,0,1-1.39-3l2.86-.91a11.55,11.55,0,0,0,1.1,2.4Zm-2-6.3c0-.45-.06-.91-.06-1.39a15.26,15.26,0,0,1,.1-1.89l3,.32a12.06,12.06,0,0,0-.08,1.57c0,.39,0,.77,0,1.13Zm3.54-5.67-2.9-.79c.13-.46.27-.93.43-1.4a9.65,9.65,0,0,1,.8-1.75l2.59,1.51a6.57,6.57,0,0,0-.55,1.19C56.92,119.39,56.8,119.81,56.69,120.22Zm2.53-4.57-2.22-2a28.65,28.65,0,0,1,2.29-2.21l2,2.27A24,24,0,0,0,59.22,115.65Zm4.29-3.75-1.77-2.42c.79-.58,1.65-1.17,2.55-1.74l1.62,2.52C65.06,110.81,64.25,111.36,63.51,111.9Zm4.9-3.15-1.48-2.6c.88-.5,1.79-1,2.7-1.46L71,107.36C70.12,107.81,69.25,108.28,68.41,108.75Zm5.23-2.66-1.25-2.73c.93-.42,1.88-.83,2.82-1.21l1.13,2.78C75.43,105.29,74.53,105.68,73.64,106.09Zm5.44-2.2-1-2.83c1-.34,2-.66,2.93-.94l.84,2.88C81,103.26,80,103.56,79.08,103.89Zm5.64-1.7-.79-2.9c1-.26,1.93-.52,2.92-.77l.76,2.9C86.63,101.67,85.67,101.93,84.72,102.19Zm5.78-1.51-.72-2.91,2.93-.71.7,2.91Zm5.82-1.4-.68-2.92,2.93-.67.67,2.92ZM102.16,98,101.51,95l2.94-.65.64,2.93Zm5.86-1.3-.64-2.93,2.94-.64L111,96Zm5.87-1.28-.64-2.93,2.93-.64.65,2.93Zm5.87-1.29-.65-2.93L122,90.5l.67,2.93Zm5.87-1.33L125,89.84l2.92-.69.69,2.92Zm5.87-1.41-.73-2.91,2.9-.73.75,2.9Zm5.84-1.52-.79-2.89,2.87-.81.84,2.88C139.31,89.29,138.33,89.56,137.34,89.83Zm5.82-1.7-.89-2.86c1-.3,1.9-.61,2.81-.93l1,2.84C145.12,87.5,144.16,87.82,143.16,88.13Zm5.77-2-1.08-2.8c1-.38,1.88-.75,2.71-1.12L151.78,85C150.9,85.35,149.94,85.75,148.93,86.14Zm5.64-2.53L153.16,81a24,24,0,0,0,2.43-1.46l1.7,2.47A28.71,28.71,0,0,1,154.57,83.61Zm5.25-3.76-2.18-2.06a6.06,6.06,0,0,0,1.3-2l2.81,1A8.83,8.83,0,0,1,159.82,79.85Zm-.75-6.09a6.11,6.11,0,0,0-.91-2l-.11-.16,2.46-1.72.14.21a9.12,9.12,0,0,1,1.35,3Zm-2.78-4.19a18.58,18.58,0,0,0-2.16-1.73l1.71-2.47a22.76,22.76,0,0,1,2.51,2Zm-4.58-3.22c-.79-.43-1.66-.86-2.58-1.27l1.22-2.74c1,.45,1.93.91,2.8,1.38ZM146.43,64c-.87-.33-1.8-.65-2.76-1l.92-2.86c1,.33,2,.67,2.9,1Zm-5.58-1.81c-.93-.26-1.88-.5-2.86-.74l.71-2.92c1,.25,2,.5,3,.77Zm-5.74-1.4c-1-.21-1.93-.4-2.91-.59l.56-3c1,.19,2,.39,3,.6Zm-5.84-1.11c-1-.17-2-.33-2.94-.47l.45-3c1,.15,2,.31,3,.48Zm-5.88-.89c-1-.13-2-.26-3-.37l.35-3,3,.37Zm-5.93-.71-3-.29.28-3,3,.3Zm-5.94-.55-3-.23.21-3,3,.23Zm-6-.43-3-.17.15-3,3,.17ZM54.73,57l-.18-3,3-.15.14,3C55.8,56.93,54.74,57,54.73,57Zm44.86-.24-3-.12.11-3,3,.13Zm-38.89,0-.12-3,3-.1.09,3Zm32.91-.18-3-.08.07-3,3,.08Zm-26.93,0-.08-3,3-.07.06,3Zm20.94-.12-3,0,0-3,3,0Zm-15,0,0-3,3,0,0,3Zm9,0h-3v-3h3Z"/><path class="cls-2" d="M131.14,106.58a18,18,0,0,0-36,0A17.11,17.11,0,0,0,95.5,110h0l0,0c0,.16.06.31.1.47a17.14,17.14,0,0,0,1.49,4h0c0,.09.08.18.13.27l.79,1.3c.08.13.18.25.26.37L113.14,141,128,116.56s0,0,0,0l0-.08.23-.33.79-1.3c.06-.11.11-.22.16-.32v0s0,0,0,0v0a16.5,16.5,0,0,0,1.41-3.84c0-.17.07-.33.11-.5v0h0A17.11,17.11,0,0,0,131.14,106.58Zm-18,8.42a8.16,8.16,0,1,1,8.33-8.15A8.24,8.24,0,0,1,113.11,115Z"/><path class="cls-1" d="M33.14,36a11,11,0,1,1-11,11,11,11,0,0,1,11-11m0-3a14,14,0,1,0,14,14,14,14,0,0,0-14-14Z"/><path class="cls-1" d="M36.14,67a12,12,0,0,1,12,12V95h-30V79a12,12,0,0,1,12-12h6m0-3h-6a15,15,0,0,0-15,15V98h36V79a15,15,0,0,0-15-15Z"/><rect class="cls-5" width="176" height="176"/></g></svg>