<svg xmlns="http://www.w3.org/2000/svg" viewBox="0 0 176 176"><defs><style>.cls-1{fill:#CC7A00;}.cls-2{fill:#50a7ef;}.cls-3{fill:#2079d4;}.cls-4{fill:#fff;}.cls-5{fill:#365066;}.cls-6{fill:none;}</style></defs><g id="kit_linguaggio"><rect class="cls-1" x="26" y="54" width="39" height="6"/><rect class="cls-2" x="26" y="63" width="29" height="6"/><path class="cls-3" d="M149.75,29H93a5,5,0,0,0-5,5.26V73.94L98,64h52c2.9,0,5-1.77,5-4.67V34.26A5.25,5.25,0,0,0,149.75,29Z"/><path class="cls-4" d="M109,55l4.57-18.53h6L124.15,55h-3l-1-4H113l-1,4Zm6.9-16-2.3,9.39h5.92L117.25,39Z"/><path class="cls-4" d="M137.81,45.62v6.16a1.29,1.29,0,0,0,.31.88A1.47,1.47,0,0,0,139,53l-.08,2.24a5.69,5.69,0,0,1-3.6-1,10.22,10.22,0,0,1-4.35,1q-4,0-4-4.3a3.67,3.67,0,0,1,1.1-3,5.93,5.93,0,0,1,3.37-1.11l3.49-.3v-1A1.64,1.64,0,0,0,133,43.67c-1.15,0-2.6.07-4.33.22l-.86,0-.11-2.08a23.48,23.48,0,0,1,5.42-.71,5,5,0,0,1,3.57,1.07A4.58,4.58,0,0,1,137.81,45.62ZM131.75,49a1.83,1.83,0,0,0-1.87,2c0,1.24.55,1.87,1.65,1.87a10.39,10.39,0,0,0,2.87-.44l.49-.16v-3.6Z"/><path class="cls-2" d="M154,80.25v44.5a1.25,1.25,0,0,1-1.25,1.25h-48.5a1.25,1.25,0,0,1-1.25-1.25V80.25A1.25,1.25,0,0,1,104.25,79h48.5A1.25,1.25,0,0,1,154,80.25ZM141.13,92.92a5.25,5.25,0,1,0-5.25,5.25A5.25,5.25,0,0,0,141.13,92.92ZM103,115.06l12.66-12.66,15.79,15.78L143,106.6l11.2,11.2v-5L143,101.55l-11.58,11.58L115.66,97.35,103,110Z"/><path class="cls-5" d="M65.75,35H25.25C19.59,35,15,40,15,46.13v83.78C15,136.06,19.34,141,25,141H66c5.66,0,10-4.94,10-11.09V98l-3,2V122H18V46.13C18,41.65,21,38,25,38H66c4,0,7,3.65,7,8.13v48.8l3,2V46.13C76,40,71.41,35,65.75,35ZM73,125v5c0,4.48-3.25,8-7.25,8H25.25c-4,0-7.25-3.65-7.25-8.13V125Z"/><circle class="cls-5" cx="46.11" cy="131.04" r="3"/><path class="cls-2" d="M95.85,79H42.15A1.14,1.14,0,0,0,41,80.15v33.7A1.14,1.14,0,0,0,42.15,115h53.7A1.14,1.14,0,0,0,97,113.85V80.15A1.14,1.14,0,0,0,95.85,79ZM76,98l-3,2-9,5.92V89l9,5.93,3,2,.8.53Z"/><rect class="cls-6" width="176" height="176"/></g></svg>