<svg id="circle" xmlns="http://www.w3.org/2000/svg" viewBox="0 0 160 160"><defs><style>.cls-1{fill:#f0f6fc;}.cls-2{fill:#fff;}.cls-3{fill:#365066;}.cls-4{fill:#50a7ef;}.cls-5{fill:#CC7A00;}.cls-6{fill:#2079d4;}.cls-7{fill:none;}</style></defs><path class="cls-1" d="M79,150A70,70,0,1,0,9,80,70,70,0,0,0,79,150Z"/><polygon class="cls-2" points="21.72 32.6 21.72 138.1 114.23 138.1 114.23 20.99 33.22 20.99 21.72 32.6"/><path class="cls-3" d="M33.67,19.41,20.17,33V139.67h95.61V19.41Zm79,117.12H23.27V33H33.73V22.54l79,0Z"/><rect class="cls-4" x="39" y="63" width="29" height="3"/><rect class="cls-4" x="39" y="53" width="33" height="6"/><rect class="cls-4" x="39.09" y="111" width="51.91" height="3"/><rect class="cls-4" x="39" y="102" width="59.07" height="6"/><rect class="cls-4" x="39" y="87" width="29" height="3"/><rect class="cls-4" x="39" y="78" width="33" height="6"/><path class="cls-2" d="M135.49,132.76a4,4,0,0,1-2.83-1.17l-24.89-24.88,5.66-5.66,24.89,24.88a4,4,0,0,1,0,5.66A4,4,0,0,1,135.49,132.76Z"/><path class="cls-3" d="M113.43,103.17,137.26,127a2.5,2.5,0,0,1-3.54,3.53l-23.83-23.82,3.54-3.54m0-4.24-7.78,7.78,25.95,25.94a5.5,5.5,0,0,0,7.78,0h0a5.52,5.52,0,0,0,0-7.78L113.43,98.93Z"/><path class="cls-2" d="M90,115A33.35,33.35,0,0,1,57.39,89.13a33.78,33.78,0,0,1-.82-5.74q-.06-1-.06-1.92A33.5,33.5,0,1,1,90,115Z"/><path class="cls-3" d="M90,49.47A32,32,0,1,1,58.85,88.79a31.68,31.68,0,0,1-.78-5.5c0-.6-.06-1.21-.06-1.82a32,32,0,0,1,32-32Zm0-3a35,35,0,0,0-35,35c0,.67,0,1.34.06,2A35,35,0,1,0,90,46.47Z"/><rect class="cls-5" x="68" y="67" width="34" height="8"/><rect class="cls-6" x="68" y="89" width="42" height="8"/><rect class="cls-6" x="68" y="78" width="30" height="8"/><rect class="cls-7" width="160" height="160"/></svg>