<svg xmlns="http://www.w3.org/2000/svg" viewBox="0 0 176 176"><defs><style>.cls-1{fill:#365066;}.cls-2{fill:#2079d4;}.cls-3{fill:#50a7ef;}.cls-4{fill:#CC7A00;}.cls-5{fill:none;}</style></defs><g id="kit_analitics"><path class="cls-1" d="M89,34H87.67L86,34.07l.15,3c.94,0,1.9-.07,2.85-.07V34Zm-6,.3c-1,.1-2,.23-3,.38l.46,3c.93-.14,1.88-.26,2.82-.35l-.3-3Zm-5.93.9-.67.15h-.07c-.73.16-1.46.34-2.18.52l.75,2.91c.91-.24,1.85-.46,2.77-.65l-.6-2.94Zm-5.81,1.51c-1,.3-1.9.62-2.83,1l1,2.81c.89-.33,1.79-.64,2.69-.92l-.9-2.86ZM65.65,38.8l-.36.16H65q-1.07.48-2.1,1l1.33,2.69q1.27-.63,2.58-1.2L65.65,38.8Zm-5.38,2.65q-1.23.69-2.43,1.44h-.15l1.6,2.54c.8-.5,1.62-1,2.45-1.45l-1.47-2.62Zm-5.08,3.19-.56.4h0l0,0h-.11l0,0h-.17l0,0h0l-1.46,1.1h0l1.84,2.37c.75-.58,1.52-1.15,2.3-1.69l-1.73-2.46Zm-4.73,3.68-.21.19h0v0h0l0,0h0l-.17.16h0l0,0h0v0h0c-.56.5-1.12,1-1.66,1.52l2.07,2.17c.69-.65,1.4-1.3,2.11-1.92l-2-2.27Zm-4.33,4.15-.71.75h0v0h0l0,0h0l-.11.12h0v0h0v0h-.11l0,0h-.21v0h0l-.13.15h0l0,0h0l0,0h0l-.5.58,2.28,1.95c.62-.72,1.26-1.43,1.91-2.12l-2.18-2.06ZM38.82,62h0M38.88,118l-2.68,1.34q.28.59.6,1.17h0v0h0v0h0v0h0v0h0v0h0v0h0v0h0v0h0c.22.42.45.84.69,1.25l2.61-1.48c-.47-.82-.92-1.67-1.34-2.51Zm2.8,4.95-2.53,1.61c.12.2.25.4.38.59h0v0h0v0h0v0h0v0h0v0h0v0h0v0h0v0h0v0h0l.06.08h0v0h.18l0,.05h0v0h0v0h.16l0,0h0v0h.09v0h0a.83.83,0,0,1,.08.12h0l0,0h0v0h.05v0h0v0h0v0h0c.09.14.19.27.29.41l2.45-1.73c-.55-.77-1.08-1.57-1.59-2.37ZM45,127.61l-2.36,1.85c.59.75,1.2,1.49,1.83,2.21h0v0h0l0,0h0v0h0l2.26-2c-.62-.71-1.23-1.45-1.82-2.19Zm3.75,4.29L46.56,134c.63.66,1.28,1.3,1.95,1.93h0v0h.13l.05.05,2-2.19c-.69-.65-1.38-1.32-2-2Zm4.15,3.89-1.93,2.29.22.19h0l0,0h.15l.18.15h0c.41.33.81.66,1.23,1h0l0,0h0l0,0h0l0,0h0l.15.11h0l0,0h.16v0h0l.06,0h0l1.81-2.39c-.75-.57-1.49-1.17-2.22-1.78Zm4.53,3.45-1.69,2.48c.81.55,1.63,1.09,2.47,1.6h0l1.57-2.56c-.8-.49-1.61-1-2.39-1.55Zm4.86,3-1.44,2.64h.1c.69.38,1.39.74,2.1,1.09h.18l.29.15,1.3-2.71c-.85-.41-1.7-.84-2.53-1.3Zm5.13,2.47-1.16,2.76.53.22H67l1.4.54h.27l.39.14,1-2.82c-.89-.32-1.78-.67-2.65-1Zm5.35,1.92-.87,2.88c.9.27,1.82.52,2.74.75h.15l.73-2.91c-.92-.23-1.84-.48-2.75-.76ZM78.26,148l-.57,2.95.71.13H79c.54.09,1.08.18,1.62.25l.42-3c-.93-.13-1.88-.29-2.81-.47Zm5.64.8-.27,3c1,.09,2,.15,3,.19l.12-3c-.94,0-1.9-.1-2.84-.19Zm8.54.13c-.94,0-1.9.09-2.85.1l0,3c1,0,2-.05,3-.11l-.18-3Zm5.66-.64c-.93.16-1.88.29-2.82.39l.33,3h1.78l1.19-.18-.48-3Zm5.56-1.2c-.91.25-1.84.47-2.76.67l.63,2.94,1-.22h.31c.55-.13,1.11-.27,1.66-.42l-.79-2.9Zm5.41-1.76c-.88.34-1.78.66-2.68.95l.93,2.85,1.37-.47h.4l1.06-.39-1.08-2.8Zm5.2-2.31c-.84.42-1.71.84-2.57,1.22l1.22,2.74,0,0h.25l.06,0h.38l0,0H114c.55-.26,1.1-.52,1.64-.8L114.27,143Zm4.94-2.83c-.79.51-1.61,1-2.43,1.48l1.49,2.6c.87-.5,1.72-1,2.56-1.56l-1.62-2.52Zm4.63-3.32c-.74.59-1.5,1.17-2.27,1.72l1.75,2.44,1.45-1.07h0v0h.16c.26-.19.52-.4.77-.6l-1.87-2.35Zm4.27-3.76c-.67.66-1.38,1.31-2.09,1.94l2,2.25.38-.35h.1c.58-.53,1.16-1.07,1.72-1.62l-2.1-2.14ZM132,128.9c-.61.72-1.24,1.44-1.88,2.14l2.2,2h0v0h0l0,0h0q1-1.06,1.92-2.19L132,128.9Zm3.43-4.55c-.53.79-1.09,1.56-1.66,2.32l2.4,1.81v0h0l0,0h0v0h0v0h0v0h0v0h0l0,0h0c.56-.75,1.11-1.52,1.63-2.3l-2.48-1.68Zm3-4.87c-.45.83-.93,1.67-1.42,2.48l2.57,1.55h0v0h0c.51-.85,1-1.7,1.47-2.58l-2.64-1.42Zm-5.3-65.72-2.24,2c.63.71,1.25,1.44,1.84,2.18L135,56.05c-.23-.29-.46-.57-.7-.85h-.11v0h0c-.36-.43-.72-.85-1.09-1.26Zm-4.21-4.27-2,2.21c.7.64,1.39,1.3,2.05,2L131,51.57l-1.31-1.28h0v0h-.13l-.71-.66Zm-4.62-3.83-1.8,2.41c.76.57,1.51,1.16,2.24,1.76l1.91-2.31-.44-.37H126l-1.74-1.35Zm-5-3.33L117.7,44.9c.81.49,1.62,1,2.41,1.53l1.67-2.5-1.3-.84h-.13l-1.11-.68Zm-5.3-2.81-1.27,2.71c.86.4,1.72.83,2.55,1.28l1.41-2.65-.1-.06h-.18l-.13-.07h-.76l-.08,0h-.69l-.75-.35Zm-5.55-2.26-1,2.83c.89.31,1.79.65,2.67,1l1.12-2.78c-.53-.22-1.06-.43-1.6-.63h-.23l-1-.35Zm-5.76-1.68-.69,2.92c.92.22,1.84.46,2.75.73l.84-2.88h-.07L104.21,36h-.47l-.13,0H103l-.41-.1Zm-5.9-1.08-.39,3c.94.12,1.88.27,2.81.44l.54-3-.64-.12H98l-1-.14h-.28Zm-6-.47-.09,3c1,0,1.91.08,2.85.16l.24-3h-.2L92,34.07h-.31l-.91,0Z"/><path class="cls-2" d="M97.86,103.75a6.17,6.17,0,0,0,6.17,6.17,6,6,0,0,0,2.47-.52v14.1H92.4a6,6,0,0,1,.52,2.47,6.17,6.17,0,0,1-12.34,0,6,6,0,0,1,.52-2.47H67V84h39.5V98.1a6,6,0,0,0-2.47-.52A6.17,6.17,0,0,0,97.86,103.75Z"/><path class="cls-3" d="M95.62,37.25a6.17,6.17,0,0,0,8.46,2.15,5.93,5.93,0,0,0,1.85-1.7l7.21,12.11L101,57a6.08,6.08,0,0,1,1.71,1.85,6.17,6.17,0,0,1-10.61,6.31,6.09,6.09,0,0,1-.82-2.38L79.19,70,59,36.05,93,15.86,100.16,28a6.15,6.15,0,0,0-4.54,9.27Z"/><path class="cls-4" d="M86.75,131.64a6.17,6.17,0,0,0,6.17-6.17A6,6,0,0,0,92.4,123h14.1v14.1a6,6,0,0,1,2.47-.52,6.17,6.17,0,1,1,0,12.34,6,6,0,0,1-2.47-.52v14.1H67V123H81.1a6,6,0,0,0-.52,2.47A6.17,6.17,0,0,0,86.75,131.64Z"/><path class="cls-1" d="M141.55,53.82A11.35,11.35,0,1,1,130.2,65.17a11.36,11.36,0,0,1,11.35-11.35m0-3A14.35,14.35,0,1,0,155.9,65.17a14.35,14.35,0,0,0-14.35-14.35Z"/><path class="cls-1" d="M145.56,86a12.12,12.12,0,0,1,12.11,12.11V113H126V98.12A12.12,12.12,0,0,1,138.11,86h7.45m0-3h-7.45A15.11,15.11,0,0,0,123,98.12V116h37.67V98.12A15.1,15.1,0,0,0,145.56,83Z"/><path class="cls-1" d="M32.87,54A11.35,11.35,0,1,1,21.52,65.35,11.37,11.37,0,0,1,32.87,54m0-3A14.35,14.35,0,1,0,47.23,65.35,14.36,14.36,0,0,0,32.87,51Z"/><path class="cls-1" d="M36.89,86.18A12.13,12.13,0,0,1,49,98.3v14.88H17.33V98.3A12.13,12.13,0,0,1,29.44,86.18h7.45m0-3H29.44A15.11,15.11,0,0,0,14.33,98.3v17.88H52V98.3A15.12,15.12,0,0,0,36.89,83.18Z"/><rect class="cls-5" width="176" height="176"/></g></svg>