<svg xmlns="http://www.w3.org/2000/svg" viewBox="0 0 160 160"><defs><style>.cls-1{fill:none;}.cls-2{fill:#f0f6fc;}.cls-3{fill:#fff;}.cls-4{fill:#365066;}.cls-5{fill:#65dde0;}.cls-6{fill:#2079d4;}.cls-7{fill:#50a7ef;}</style></defs><g id="questionario_risultati"><rect class="cls-1" width="160" height="160"/><path class="cls-2" d="M79,150A70,70,0,1,0,9,80,70,70,0,0,0,79,150Z"/><rect class="cls-3" x="16.5" y="35.5" width="127" height="89" rx="2.22"/><path class="cls-4" d="M141.28,37a.72.72,0,0,1,.72.72v84.56a.72.72,0,0,1-.72.72H18.72a.72.72,0,0,1-.72-.72V37.72a.72.72,0,0,1,.72-.72H141.28m0-3H18.72A3.73,3.73,0,0,0,15,37.72v84.56A3.73,3.73,0,0,0,18.72,126H141.28a3.73,3.73,0,0,0,3.72-3.72V37.72A3.73,3.73,0,0,0,141.28,34Z"/><path class="cls-4" d="M141.5,52H18.5a1.5,1.5,0,0,1,0-3h123a1.5,1.5,0,0,1,0,3Z"/><rect class="cls-5" x="31" y="64" width="12" height="48"/><rect class="cls-6" x="49" y="78" width="12" height="34"/><rect class="cls-7" x="67" y="94" width="12" height="18"/><circle class="cls-4" cx="33" cy="43" r="2"/><circle class="cls-4" cx="39" cy="43" r="2"/><circle class="cls-4" cx="45" cy="43" r="2"/><path class="cls-6" d="M116.67,67a18,18,0,1,0,18,18h-18Z"/><path class="cls-7" d="M134.64,85a18,18,0,0,0-18-18V85Z"/></g></svg>