<svg width="160" height="160" viewBox="0 0 160 160" fill="none" xmlns="http://www.w3.org/2000/svg">
<g clip-path="url(#clip0_1492_13944)">
<path d="M79 150C92.8447 150 106.378 145.895 117.89 138.203C129.401 130.511 138.373 119.579 143.672 106.788C148.97 93.997 150.356 79.9224 147.655 66.3437C144.954 52.765 138.287 40.2922 128.497 30.5026C118.708 20.7129 106.235 14.046 92.6563 11.3451C79.0777 8.6441 65.003 10.0303 52.2122 15.3285C39.4213 20.6266 28.4888 29.5987 20.7971 41.1101C13.1054 52.6216 9 66.1553 9 80C9 98.5652 16.375 116.37 29.5025 129.498C42.6301 142.625 60.4348 150 79 150V150Z" fill="#F0F6FC"/>
<path d="M98 32H58C57.4477 32 57 32.4477 57 33V59C57 59.5523 57.4477 60 58 60H98C98.5523 60 99 59.5523 99 59V33C99 32.4477 98.5523 32 98 32Z" fill="#2079D4"/>
<path d="M149 59.0001C149 59.2653 148.894 59.5197 148.707 59.7072C148.519 59.8947 148.265 60.0001 148 60.0001H108.05C107.785 60.0001 107.53 59.8947 107.343 59.7072C107.155 59.5197 107.05 59.2653 107.05 59.0001V33.1001C107.05 32.8349 107.155 32.5805 107.343 32.393C107.53 32.2055 107.785 32.1001 108.05 32.1001H148.05C148.315 32.1001 148.569 32.2055 148.757 32.393C148.944 32.5805 149.05 32.8349 149.05 33.1001L149 59.0001Z" fill="#2079D4"/>
<path d="M148 67H108.05C107.498 67 107.05 67.4477 107.05 68V93C107.05 93.5523 107.498 94 108.05 94H148C148.552 94 149 93.5523 149 93V68C149 67.4477 148.552 67 148 67Z" fill="#50A7EF"/>
<path d="M97.95 67H58C57.4477 67 57 67.4477 57 68V93C57 93.5523 57.4477 94 58 94H97.95C98.5023 94 98.95 93.5523 98.95 93V68C98.95 67.4477 98.5023 67 97.95 67Z" fill="#50A7EF"/>
<path d="M148 101H108.05C107.498 101 107.05 101.448 107.05 102V127C107.05 127.552 107.498 128 108.05 128H148C148.552 128 149 127.552 149 127V102C149 101.448 148.552 101 148 101Z" fill="#CC7A00"/>
<path d="M150 25L56 25" stroke="#365066" stroke-width="3" stroke-linecap="round"/>
<path d="M97.95 101H58C57.4477 101 57 101.448 57 102V127C57 127.552 57.4477 128 58 128H97.95C98.5023 128 98.95 127.552 98.95 127V102C98.95 101.448 98.5023 101 97.95 101Z" fill="#CC7A00"/>
<path d="M49 88H13V91H49V88Z" fill="#365066"/>
<path d="M35 94H13V97H35V94Z" fill="#365066"/>
<path d="M14.5596 79.5V63.89C14.5622 62.2595 14.8861 60.6454 15.5128 59.1401C16.1395 57.6348 17.0568 56.2678 18.212 55.1172C19.3673 53.9665 20.7381 53.0548 22.2459 52.4342C23.7537 51.8135 25.369 51.4961 26.9996 51.5H33.0996C36.3753 51.5185 39.5109 52.8314 41.8225 55.1524C44.1341 57.4734 45.4343 60.6143 45.4396 63.89V79.5H14.5596Z" fill="white"/>
<path d="M29.5 46.5C36.1274 46.5 41.5 41.1274 41.5 34.5C41.5 27.8726 36.1274 22.5 29.5 22.5C22.8726 22.5 17.5 27.8726 17.5 34.5C17.5 41.1274 22.8726 46.5 29.5 46.5Z" fill="white"/>
<path d="M29.5 24C31.5767 24 33.6068 24.6158 35.3335 25.7696C37.0602 26.9233 38.406 28.5632 39.2007 30.4818C39.9955 32.4005 40.2034 34.5116 39.7983 36.5485C39.3931 38.5853 38.3931 40.4562 36.9246 41.9246C35.4562 43.3931 33.5853 44.3931 31.5485 44.7982C29.5117 45.2034 27.4005 44.9955 25.4818 44.2007C23.5632 43.406 21.9233 42.0602 20.7696 40.3335C19.6158 38.6068 19 36.5767 19 34.5C19.0027 31.716 20.1097 29.0469 22.0783 27.0783C24.0469 25.1097 26.716 24.0027 29.5 24M29.5 21C26.83 21 24.2199 21.7918 21.9998 23.2752C19.7797 24.7586 18.0494 26.867 17.0276 29.3338C16.0058 31.8006 15.7385 34.515 16.2594 37.1337C16.7803 39.7525 18.0661 42.1579 19.9541 44.0459C21.8421 45.934 24.2475 47.2197 26.8663 47.7406C29.485 48.2615 32.1994 47.9942 34.6662 46.9724C37.133 45.9506 39.2414 44.2203 40.7248 42.0002C42.2082 39.7801 43 37.1701 43 34.5C43.0013 32.7268 42.653 30.9707 41.9751 29.3322C41.2971 27.6937 40.3027 26.205 39.0489 24.9511C37.795 23.6973 36.3063 22.7029 34.6678 22.025C33.0293 21.347 31.2732 20.9987 29.5 21V21Z" fill="#365066"/>
<path d="M33.0496 53.0001C35.9362 53.0054 38.703 54.1544 40.7441 56.1955C42.7852 58.2367 43.9343 61.0035 43.9396 63.8901V78.0001H16.0596V63.8901C16.0622 62.4565 16.3473 61.0375 16.8986 59.7142C17.45 58.3909 18.2567 57.1892 19.2727 56.1779C20.2887 55.1665 21.4941 54.3653 22.8199 53.82C24.1457 53.2748 25.566 52.9961 26.9996 53.0001H33.0996M33.0996 50.0001H26.9996C25.1713 49.9935 23.3597 50.3479 21.6687 51.043C19.9778 51.7381 18.4406 52.7602 17.1455 54.0507C15.8504 55.3411 14.8228 56.8746 14.1216 58.563C13.4205 60.2515 13.0596 62.0618 13.0596 63.8901V81.0001H46.9396V63.8901C46.9396 60.2062 45.4762 56.6733 42.8713 54.0684C40.2664 51.4635 36.7334 50.0001 33.0496 50.0001H33.0996Z" fill="#365066"/>
</g>
<defs>
<clipPath id="clip0_1492_13944">
<rect width="160" height="160" fill="none"/>
</clipPath>
</defs>
</svg>
