<svg width="160" height="160" viewBox="0 0 160 160" fill="none" xmlns="http://www.w3.org/2000/svg">
<g clip-path="url(#clip0_40002028_487)">
<path d="M79 150C92.8447 150 106.378 145.895 117.89 138.203C129.401 130.511 138.373 119.579 143.672 106.788C148.97 93.997 150.356 79.9223 147.655 66.3437C144.954 52.765 138.287 40.2922 128.497 30.5025C118.708 20.7128 106.235 14.046 92.6563 11.345C79.0777 8.64407 65.003 10.0303 52.2122 15.3284C39.4213 20.6266 28.4888 29.5986 20.7971 41.1101C13.1054 52.6215 9 66.1553 9 80C9 98.5652 16.375 116.37 29.5025 129.497C42.6301 142.625 60.4348 150 79 150V150Z" fill="#F0F6FC"/>
<path d="M32.5497 33.19V138.69H125.06V21.58H44.0497L32.5497 33.19Z" fill="white"/>
<path d="M44.5 20L31 33.59V140.26H126.61V20H44.5ZM123.5 137.12H34.1V33.59H44.56V23.13H123.56L123.5 137.12Z" fill="#365066"/>
<path d="M90.83 51.59H49.83V54.59H90.83V51.59Z" fill="#CC7A00"/>
<path d="M99.83 41.59H49.83V47.59H99.83V41.59Z" fill="#50A7EF"/>
<path d="M76 100H50V103H76V100Z" fill="#50A7EF"/>
<path d="M108.9 90.59H49.83V96.59H108.9V90.59Z" fill="#50A7EF"/>
<path d="M92.83 75.59H49.83V78.59H92.83V75.59Z" fill="#50A7EF"/>
<path d="M99.83 66.59H49.83V72.59H99.83V66.59Z" fill="#50A7EF"/>
<path d="M140 107.707L110.198 138.293L102.689 146L95.1792 138.293L80 122.715L87.5094 115.019L102.689 130.586L132.491 100L140 107.707Z" fill="#2079D4"/>
</g>
<defs>
<clipPath id="clip0_40002028_487">
<rect width="160" height="160" fill="white"/>
</clipPath>
</defs>
</svg>
