<svg xmlns="http://www.w3.org/2000/svg" viewBox="0 0 160 160"><defs><style>.cls-1{fill:#f0f6fc;}.cls-2{fill:#fff;}.cls-3{fill:#365066;}.cls-4{fill:#50a7ef;}.cls-5{fill:none;}.cls-6{fill:#CC7A00;}.cls-7{fill:#2079d4;}</style></defs><g id="linguagg_privacy"><path class="cls-1" d="M79,150A70,70,0,1,0,9,80,70,70,0,0,0,79,150Z"/><rect class="cls-2" x="33.5" y="24.4" width="93" height="119.19" rx="4.43"/><path class="cls-3" d="M122.07,25.9A2.94,2.94,0,0,1,125,28.84V139.16a2.94,2.94,0,0,1-2.93,2.94H37.93A2.94,2.94,0,0,1,35,139.16V28.84a2.94,2.94,0,0,1,2.93-2.94h84.14m0-3H37.93A5.94,5.94,0,0,0,32,28.84V139.16a5.94,5.94,0,0,0,5.93,5.94h84.14a5.94,5.94,0,0,0,5.93-5.94V28.84a5.94,5.94,0,0,0-5.93-5.94Z"/><path class="cls-3" d="M101,15H90V12a3,3,0,0,0-3-3H72a3,3,0,0,0-3,3v3H59a3,3,0,0,0-3,3V32h48V18A3,3,0,0,0,101,15Z"/><path class="cls-4" d="M74.39,105.28a6.05,6.05,0,0,0,6.08,6,6,6,0,0,0,2.43-.51v13.76H69A6.07,6.07,0,1,1,57.37,127a5.92,5.92,0,0,1,.51-2.41H44V86H82.9V99.76a6.14,6.14,0,0,0-2.43-.5A6.05,6.05,0,0,0,74.39,105.28Z"/><path class="cls-3" d="M105,61V41.5a1.56,1.56,0,0,0-3.12,0V58H51V73.17l-4.31-4.93-2.26,2,8.13,9.29,8.13-9.29-2.26-2-4.31,4.93V61Z"/><rect class="cls-5" width="160" height="160"/><path class="cls-6" d="M106.19,101.71a3.07,3.07,0,0,0-3.06,3.09,3.19,3.19,0,0,0,.25,1.24h-7V99a3.09,3.09,0,1,1-1.22-5.93,2.93,2.93,0,0,1,1.22.26V86.25H116V106h-7a3.2,3.2,0,0,0,.26-1.24A3.08,3.08,0,0,0,106.19,101.71Z"/><path class="cls-7" d="M100.54,115.19a3.07,3.07,0,0,0-3.09-3.06,3.19,3.19,0,0,0-1.24.25v-7h7.06a3.09,3.09,0,1,1,5.93-1.22,2.93,2.93,0,0,1-.26,1.22H116V125H96.21v-7a3.2,3.2,0,0,0,1.24.26A3.08,3.08,0,0,0,100.54,115.19Z"/></g></svg>