<svg width="176" height="176" viewBox="0 0 176 176" fill="none" xmlns="http://www.w3.org/2000/svg">
<g clip-path="url(#clip0_40002020_183)">
<path d="M169 103.298V82.7018H157.262C156.46 79.8892 155.333 77.1799 153.902 74.6291L162.193 66.3382L147.662 51.8073L139.371 60.0982C136.82 58.6674 134.111 57.5398 131.298 56.7382V45H110.702V56.7382C107.889 57.5398 105.18 58.6674 102.629 60.0982L94.3382 51.8073L79.8073 66.3382L88.0982 74.6291C86.6674 77.1799 85.5398 79.8892 84.7382 82.7018H73V103.298H84.7382C85.5398 106.111 86.6674 108.82 88.0982 111.371L79.8073 119.662L94.3382 134.193L102.629 125.902C105.18 127.333 107.889 128.46 110.702 129.262V141H131.298V129.262C134.111 128.46 136.82 127.333 139.371 125.902L147.662 134.193L162.193 119.662L153.902 111.371C155.333 108.82 156.46 106.111 157.262 103.298H169ZM121 117.611C116.132 117.611 111.374 116.168 107.327 113.463C103.28 110.759 100.125 106.915 98.2625 102.418C96.3998 97.9211 95.9124 92.9727 96.862 88.1986C97.8116 83.4246 100.156 79.0394 103.597 75.5975C107.039 72.1556 111.425 69.8116 116.199 68.862C120.973 67.9124 125.921 68.3997 130.418 70.2625C134.915 72.1252 138.759 75.2797 141.463 79.3269C144.168 83.3742 145.611 88.1324 145.611 93C145.599 99.5237 143.003 105.777 138.39 110.39C133.777 115.003 127.524 117.599 121 117.611V117.611Z" fill="#365066"/>
<rect x="72" y="44" width="54" height="99" fill="white"/>
<path d="M127.67 39.1127V39V36.92C127.67 36.1417 127.517 35.3711 127.218 34.6522C126.92 33.9333 126.483 33.2803 125.933 32.7304C125.382 32.1805 124.728 31.7447 124.009 31.4478C123.289 31.1508 122.518 30.9987 121.74 31H37.61C36.8313 30.9987 36.0599 31.1508 35.34 31.4476C34.62 31.7444 33.9655 32.1801 33.414 32.7298C32.8624 33.2795 32.4245 33.9325 32.1253 34.6515C31.826 35.3704 31.6714 36.1413 31.67 36.92V147.08C31.6714 147.859 31.826 148.63 32.1253 149.349C32.4245 150.068 32.8624 150.721 33.414 151.27C33.9655 151.82 34.62 152.256 35.34 152.552C36.0599 152.849 36.8313 153.001 37.61 153H44.67H60C61 153 64 153 65 153C66.5 153 70.5 153 71.5 153C71.5 153 76.5 153 77.5 153C78.5 153 84 153 84 153L121.74 153C122.518 153.001 123.951 152.797 124.67 152.5C125.389 152.203 126.5 151 127 150C127.349 149.302 127.5 148 127.5 147.08C127.5 147.08 127.67 143.5 127.67 132V113C127.67 112.222 127.67 66 127.67 65C127.67 64 127.67 53 127.67 52C127.67 51.5 127.67 46.156 127.67 44.92C127.67 44.1377 127.67 39.1127 127.67 39.1127ZM37.61 150C37.2253 150.001 36.844 149.927 36.488 149.781C36.132 149.635 35.8083 149.42 35.5353 149.149C35.2623 148.878 35.0454 148.555 34.8969 148.201C34.7484 147.846 34.6714 147.465 34.67 147.08V36.92C34.6714 36.5352 34.7484 36.1545 34.8969 35.7995C35.0454 35.4445 35.2623 35.1223 35.5353 34.8511C35.8083 34.58 36.132 34.3652 36.488 34.2192C36.844 34.0732 37.2253 33.9987 37.61 34H121.74C122.515 34 123.259 34.3073 123.808 34.8546C124.358 35.402 124.667 36.1447 124.67 36.92V147.08C124.667 147.855 124.358 148.598 123.808 149.145C123.259 149.693 122.515 150 121.74 150H37.61Z" fill="#365066"/>
<path d="M101 21H90V18C90 17.2044 89.6839 16.4413 89.1213 15.8787C88.5587 15.3161 87.7956 15 87 15H72C71.2044 15 70.4413 15.3161 69.8787 15.8787C69.3161 16.4413 69 17.2044 69 18V21H59C58.2044 21 57.4413 21.3161 56.8787 21.8787C56.3161 22.4413 56 23.2044 56 24V38H104V24C104 23.2044 103.684 22.4413 103.121 21.8787C102.559 21.3161 101.796 21 101 21Z" fill="#365066"/>
<path d="M68.67 67V85H50.67V67H68.67ZM71.67 64H47.67V88H71.67V64Z" fill="#365066"/>
<path d="M68.67 101V119H50.67V101H68.67ZM71.67 98H47.67V122H71.67V98Z" fill="#365066"/>
<path d="M116.6 70H79.67V76H116.6V70Z" fill="#CC7A00"/>
<path d="M105.61 82H79.67V88H105.61V82Z" fill="#50A7EF"/>
<path d="M116.6 103.99H79.67V109.99H116.6V103.99Z" fill="#CC7A00"/>
<path d="M106.571 115.99H79.6505V121.99H106.571V115.99Z" fill="#50A7EF"/>
<rect x="31" y="128" width="6" height="24" fill="white"/>
<path d="M24.8521 158.138L37.2198 153.178L38.7799 152.625L39.3059 150.724L47.0323 123.652C47.0842 123.466 47.0851 123.269 47.0349 123.082C46.958 122.795 46.7703 122.55 46.513 122.402C46.2558 122.253 45.9501 122.213 45.6632 122.29L18.5959 129.998L17.3981 130.319L16.6834 130.511L16.13 132.077L15.3182 134.148L10.495 146.207L21.4988 157.214L23.1176 158.851L24.8521 158.138ZM14.4209 145.404L16.778 139.596L18.6405 134.955L19.2596 133.402L19.5107 133.335L39.4301 127.542L27.3254 139.627C27.0476 139.948 26.9019 140.363 26.9177 140.788C26.9334 141.212 27.1095 141.615 27.4103 141.915C27.7112 142.215 28.1146 142.39 28.5392 142.404C28.9638 142.419 29.3781 142.272 29.6988 141.993L41.7648 129.919L36.0814 149.818L36.0102 150.054L35.9522 150.07L23.9773 154.873L23.9194 154.888L19.7647 150.742L14.4209 145.404Z" fill="#365066"/>
<path d="M22.1874 159.783L22.3276 159.611L22.0735 159.358L9.70315 146.999L1.80361 153.256L15.9767 167.514L22.1874 159.783ZM9.45602 151.485L17.8394 159.861L15.7394 162.494L6.83037 153.587L9.45602 151.485Z" fill="#365066"/>
<path d="M83 55.3613L62.1385 76.6387L56.882 82L51.6254 76.6387L41 65.8014L46.2566 60.4477L56.882 71.2773L77.7435 50L83 55.3613Z" fill="#2079D4"/>
</g>
<defs>
<clipPath id="clip0_40002020_183">
<rect width="176" height="176" fill="white"/>
</clipPath>
</defs>
</svg>
