<svg xmlns="http://www.w3.org/2000/svg" viewBox="0 0 160 160"><defs><style>.cls-1{fill:#f0f6fc;}.cls-2{fill:#fff;}.cls-3{fill:#365066;}.cls-4{fill:#65dde0;}.cls-5{fill:#2079d4;}.cls-6{fill:#50a7ef;}.cls-7{fill:none;}</style></defs><g id="privacy_social"><path class="cls-1" d="M79,150A70,70,0,1,0,9,80,70,70,0,0,0,79,150Z"/><circle class="cls-2" cx="121" cy="53" r="12.5"/><path class="cls-3" d="M121,42a11,11,0,1,1-11,11,11,11,0,0,1,11-11m0-3a14,14,0,1,0,14,14,14,14,0,0,0-14-14Z"/><path class="cls-2" d="M103.5,102.5V86.25a13.68,13.68,0,0,1,13.66-13.66h7.68A13.68,13.68,0,0,1,138.5,86.25V102.5Z"/><path class="cls-3" d="M124.84,74.09A12.17,12.17,0,0,1,137,86.25V101H105V86.25a12.17,12.17,0,0,1,12.16-12.16h7.68m0-3h-7.68A15.16,15.16,0,0,0,102,86.25V104h38V86.25a15.16,15.16,0,0,0-15.16-15.16Z"/><path class="cls-2" d="M30.08,130.5c-4.73,0-8.58-4.41-8.58-9.84V35.34c0-5.43,3.85-9.84,8.58-9.84H69.92c4.73,0,8.58,4.41,8.58,9.84v85.32c0,5.43-3.85,9.84-8.58,9.84Z"/><path class="cls-3" d="M69.91,24H30.09C24.52,24,20,29.08,20,35.34v85.32C20,126.92,24.52,132,30.09,132H69.91C75.48,132,80,126.92,80,120.66V35.34C80,29.08,75.48,24,69.91,24ZM23,35.34c0-4.6,3.18-8.34,7.09-8.34H69.91C73.82,27,77,30.74,77,35.34V114H23.24a.93.93,0,0,0-.24,0V35.34ZM69.91,129H30.09c-3.91,0-7.09-3.4-7.09-8v-4H77v3.66C77,125.26,73.82,129,69.91,129Z"/><circle class="cls-3" cx="50" cy="123" r="3"/><path class="cls-4" d="M50.1,94.91a3.45,3.45,0,0,0,3.5,3.4A3.61,3.61,0,0,0,55,98V106l-8,0a2.48,2.48,0,0,1,.29,1.18,3.51,3.51,0,0,1-7,0,2.43,2.43,0,0,1,.18-1.18H33V84H55v7.78a3.61,3.61,0,0,0-1.4-.28A3.45,3.45,0,0,0,50.1,94.91Z"/><path class="cls-5" d="M50.1,72.91a3.45,3.45,0,0,0,3.5,3.4A3.61,3.61,0,0,0,55,76V84l-8,0a2.48,2.48,0,0,1,.29,1.18,3.51,3.51,0,0,1-7,0A2.43,2.43,0,0,1,40.47,84H33V62H55v7.78a3.61,3.61,0,0,0-1.4-.28A3.45,3.45,0,0,0,50.1,72.91Z"/><path class="cls-6" d="M87.61,55.43a4.77,4.77,0,0,0,4.79,4.74,4.67,4.67,0,0,0,1.91-.4V70.61H83.38a4.57,4.57,0,0,1,.4,1.89,4.78,4.78,0,0,1-9.56,0,4.57,4.57,0,0,1,.4-1.89H63.69V40.25H94.31V51.08a4.67,4.67,0,0,0-1.91-.4A4.78,4.78,0,0,0,87.61,55.43Z"/><rect class="cls-7" width="160" height="160"/></g></svg>