<svg xmlns="http://www.w3.org/2000/svg" viewBox="0 0 176 176"><defs><style>.cls-1{fill:#2079d4;}.cls-2{fill:#f0f6fc;}.cls-3{fill:#50a7ef;}.cls-4{fill:#CC7A00;}.cls-5{fill:#365066;}.cls-6{fill:none;}</style></defs><g id="kit_prototipazione"><path class="cls-1" d="M100,105H67V45h33Z"/><path class="cls-2" d="M100,81H76V73h24Z"/><path class="cls-2" d="M100,86H76v8h24Z"/><circle class="cls-2" cx="89" cy="59" r="6"/><rect class="cls-3" x="114" y="64" width="30" height="3"/><rect class="cls-3" x="114" y="57" width="30" height="3"/><polygon class="cls-3" points="130 96 114 96 114 88.26 114 80 130 80 130 96"/><polygon class="cls-3" points="149 89 133 89 133 87.55 133 86 149 86 149 89"/><path class="cls-4" d="M130,117H114V101h16Z"/><path class="cls-4" d="M149,111H133v-3h16Z"/><path class="cls-5" d="M29.45,125.94a5.2,5.2,0,0,0-7.3-.69,5.19,5.19,0,1,0,7.3.69Zm-2.6,5A2.19,2.19,0,0,1,23.27,129a2.2,2.2,0,0,1,3.88-1.18,2.17,2.17,0,0,1,.49,1.59A2.22,2.22,0,0,1,26.85,130.93ZM58.16,80A11.85,11.85,0,0,0,52,73.15l-1.35-.65L40.81,93.05l1.68,3.42L52,76.61A9,9,0,0,1,55,87.8L46.69,105l1.68,3.42L57.66,89.1A11.86,11.86,0,0,0,58.16,80Zm-28.71,46a5.2,5.2,0,0,0-7.3-.69,5.19,5.19,0,1,0,7.3.69Zm-2.6,5A2.19,2.19,0,0,1,23.27,129a2.2,2.2,0,0,1,3.88-1.18,2.17,2.17,0,0,1,.49,1.59A2.22,2.22,0,0,1,26.85,130.93Zm2.6-5a5.2,5.2,0,0,0-7.3-.69,5.19,5.19,0,1,0,7.3.69Zm-2.6,5A2.19,2.19,0,0,1,23.27,129a2.2,2.2,0,0,1,3.88-1.18,2.17,2.17,0,0,1,.49,1.59A2.22,2.22,0,0,1,26.85,130.93Zm-4.7-5.68a5.19,5.19,0,1,0,7.3.69A5.2,5.2,0,0,0,22.15,125.25Zm4.7,5.68A2.19,2.19,0,0,1,23.27,129a2.2,2.2,0,0,1,3.88-1.18,2.17,2.17,0,0,1,.49,1.59A2.22,2.22,0,0,1,26.85,130.93Zm12.41-10.49-5.86,12.2a8.81,8.81,0,0,1-16.52-.84A8.81,8.81,0,0,1,29,121.22l1.33.61,4.77-9.92-1.68-3.42L28.84,118a11.79,11.79,0,1,0,7.29,15.92l4.82-10Zm-9.81,5.5a5.2,5.2,0,0,0-7.3-.69,5.19,5.19,0,1,0,7.3.69Zm-2.6,5A2.19,2.19,0,0,1,23.27,129a2.2,2.2,0,0,1,3.88-1.18,2.17,2.17,0,0,1,.49,1.59A2.22,2.22,0,0,1,26.85,130.93Zm2.6-5a5.2,5.2,0,0,0-7.3-.69,5.19,5.19,0,1,0,7.3.69Zm-2.6,5A2.19,2.19,0,0,1,23.27,129a2.2,2.2,0,0,1,3.88-1.18,2.17,2.17,0,0,1,.49,1.59A2.22,2.22,0,0,1,26.85,130.93Zm2.6-5a5.2,5.2,0,0,0-7.3-.69,5.19,5.19,0,1,0,7.3.69Zm-2.6,5A2.19,2.19,0,0,1,23.27,129a2.2,2.2,0,0,1,3.88-1.18,2.17,2.17,0,0,1,.49,1.59A2.22,2.22,0,0,1,26.85,130.93Zm2.6-5a5.2,5.2,0,0,0-7.3-.69,5.19,5.19,0,1,0,7.3.69Zm-2.6,5A2.19,2.19,0,0,1,23.27,129a2.2,2.2,0,0,1,3.88-1.18,2.17,2.17,0,0,1,.49,1.59A2.22,2.22,0,0,1,26.85,130.93Z"/><path class="cls-5" d="M61.71,128.72a5.19,5.19,0,1,0-1.14,3.8A5.19,5.19,0,0,0,61.71,128.72Zm-3.46,1.9a2.2,2.2,0,0,1-3.89-1.15,2.15,2.15,0,0,1,.48-1.6,2.21,2.21,0,0,1,1.71-.8,2.25,2.25,0,0,1,1.38.48,2.2,2.2,0,0,1,.32,3.07Zm3.46-1.9a5.19,5.19,0,1,0-1.14,3.8A5.19,5.19,0,0,0,61.71,128.72Zm-3.46,1.9a2.2,2.2,0,0,1-3.89-1.15,2.15,2.15,0,0,1,.48-1.6,2.21,2.21,0,0,1,1.71-.8,2.25,2.25,0,0,1,1.38.48,2.2,2.2,0,0,1,.32,3.07Zm3.46-1.9a5.19,5.19,0,1,0-1.14,3.8A5.19,5.19,0,0,0,61.71,128.72Zm-3.46,1.9a2.2,2.2,0,0,1-3.89-1.15,2.15,2.15,0,0,1,.48-1.6,2.21,2.21,0,0,1,1.71-.8,2.25,2.25,0,0,1,1.38.48,2.2,2.2,0,0,1,.32,3.07Zm3.46-1.9a5.19,5.19,0,1,0-1.14,3.8A5.19,5.19,0,0,0,61.71,128.72Zm-3.46,1.9a2.2,2.2,0,0,1-3.89-1.15,2.15,2.15,0,0,1,.48-1.6,2.21,2.21,0,0,1,1.71-.8,2.25,2.25,0,0,1,1.38.48,2.2,2.2,0,0,1,.32,3.07Zm3.46-1.9a5.19,5.19,0,1,0-1.14,3.8A5.19,5.19,0,0,0,61.71,128.72Zm-3.46,1.9a2.2,2.2,0,0,1-3.89-1.15,2.15,2.15,0,0,1,.48-1.6,2.21,2.21,0,0,1,1.71-.8,2.25,2.25,0,0,1,1.38.48,2.2,2.2,0,0,1,.32,3.07Zm3.46-1.9a5.19,5.19,0,1,0-1.14,3.8A5.19,5.19,0,0,0,61.71,128.72Zm-3.46,1.9a2.2,2.2,0,0,1-3.89-1.15,2.15,2.15,0,0,1,.48-1.6,2.21,2.21,0,0,1,1.71-.8,2.25,2.25,0,0,1,1.38.48,2.2,2.2,0,0,1,.32,3.07Zm3.46-1.9a5.19,5.19,0,1,0-1.14,3.8A5.19,5.19,0,0,0,61.71,128.72Zm-3.46,1.9a2.2,2.2,0,0,1-3.89-1.15,2.15,2.15,0,0,1,.48-1.6,2.21,2.21,0,0,1,1.71-.8,2.25,2.25,0,0,1,1.38.48,2.2,2.2,0,0,1,.32,3.07Zm3.46-1.9a5.19,5.19,0,1,0-1.14,3.8A5.19,5.19,0,0,0,61.71,128.72Zm-3.46,1.9a2.2,2.2,0,0,1-3.89-1.15,2.15,2.15,0,0,1,.48-1.6,2.21,2.21,0,0,1,1.71-.8,2.25,2.25,0,0,1,1.38.48,2.2,2.2,0,0,1,.32,3.07Z"/><path class="cls-5" d="M60.78,118.15a11.72,11.72,0,0,0-7.71-.16l-4.7-9.57L46.69,105l-4.2-8.53-1.68-3.42-10-20.33-1.34.66a11.94,11.94,0,0,0-5.48,16l9.39,19.12,1.68,3.42,4.19,8.53L41,123.86l4.93,10A11.81,11.81,0,0,0,68,132.6,11.93,11.93,0,0,0,60.78,118.15Zm4.36,13.58a8.82,8.82,0,0,1-11.3,5.79,8.85,8.85,0,0,1-5.24-4.87L26.69,88.05a8.93,8.93,0,0,1,2.82-11.21l22.12,45,1.33-.63a8.8,8.8,0,0,1,12.18,10.48Z"/><path class="cls-5" d="M161,47.13C161,41,156.41,36,150.75,36h-40.5C104.59,36,100,41,100,47.13v83.74C100,137,104.59,142,110.25,142h40.5c5.66,0,10.25-5,10.25-11.13Zm-58,0c0-4.48,3.25-8.13,7.25-8.13h40.5c4,0,7.25,3.65,7.25,8.13V123H103ZM150.75,139h-40.5c-4,0-7.25-3.65-7.25-8.13V126h55v4.87C158,135.35,154.75,139,150.75,139Z"/><circle class="cls-5" cx="131.03" cy="132" r="3"/><rect class="cls-5" x="39" y="41" width="3" height="3"/><rect class="cls-5" x="39" y="35" width="3" height="3"/><rect class="cls-5" x="39" y="53" width="3" height="3"/><rect class="cls-5" x="39" y="47" width="3" height="3"/><rect class="cls-5" x="39" y="65" width="3" height="3"/><rect class="cls-5" x="39" y="59" width="3" height="3"/><rect class="cls-5" x="39" y="77" width="3" height="3"/><rect class="cls-5" x="39" y="83" width="3" height="3"/><rect class="cls-5" x="39" y="71" width="3" height="3"/><rect class="cls-6" width="176" height="176"/></g></svg>