<svg xmlns="http://www.w3.org/2000/svg" viewBox="0 0 160 160"><defs><style>.cls-1{fill:none;}.cls-2{fill:#f0f6fc;}.cls-3{fill:#fff;}.cls-4{fill:#365066;}.cls-5{fill:#2079d4;}.cls-6{fill:#50a7ef;}.cls-7{fill:#65dde0;}</style></defs><g id="interviste_pianifica"><rect class="cls-1" width="160" height="160"/><path class="cls-2" d="M79,150A70,70,0,1,0,9,80,70,70,0,0,0,79,150Z"/><rect class="cls-3" x="33.5" y="24" width="93" height="119.5" rx="4.44"/><path class="cls-4" d="M122.06,25.5A2.94,2.94,0,0,1,125,28.44V139.06a2.94,2.94,0,0,1-2.94,2.94H37.94A2.94,2.94,0,0,1,35,139.06V28.44a2.94,2.94,0,0,1,2.94-2.94h84.12m0-3H37.94A5.94,5.94,0,0,0,32,28.44V139.06A5.94,5.94,0,0,0,37.94,145h84.12a5.94,5.94,0,0,0,5.94-5.94V28.44a5.94,5.94,0,0,0-5.94-5.94Z"/><path class="cls-4" d="M68,98v18H50V98H68m3-3H47v24H71V95Z"/><rect class="cls-5" x="80" y="102" width="33" height="6"/><rect class="cls-6" x="80" y="78" width="33" height="6"/><rect class="cls-7" x="80" y="67" width="33" height="6"/><rect class="cls-6" x="80" y="113" width="33" height="6"/><path class="cls-4" d="M101,15H90V11a3,3,0,0,0-3-3H72a3,3,0,0,0-3,3v4H59a3,3,0,0,0-3,3V32h48V18A3,3,0,0,0,101,15Z"/><circle class="cls-6" cx="59.07" cy="63.52" r="8.5"/><path class="cls-6" d="M47,84a9.78,9.78,0,0,1,9.46-9.77h5.22C66.87,74.23,71,78.81,71,84Z"/></g></svg>