<svg xmlns="http://www.w3.org/2000/svg" viewBox="0 0 160 160"><defs><style>.cls-1{opacity:0.5;}.cls-2,.cls-3,.cls-4{fill:none;}.cls-2,.cls-3{stroke:#cd16f9;stroke-width:0.13px;}.cls-3{stroke-linecap:square;}.cls-5{fill:#f0f6fc;}.cls-6{fill:#fff;}.cls-7{fill:#365066;}.cls-8{fill:#50a7ef;}.cls-9{fill:#2079d4;}.cls-10{fill:#CC7A00;}</style></defs><g id="grid"><g id="Keylines" class="cls-1"><path id="NESW" class="cls-2" d="M8,152,152,8.08Z"/><path id="NWSE" class="cls-2" d="M8,8.08,152,152"/><path id="Southern-Tropic" class="cls-3" d="M8,104H152"/><path id="Northern-Tropic" class="cls-3" d="M8.05,56H152"/><path id="Equator" class="cls-3" d="M8,80H152"/><path id="Western-Tropic" class="cls-2" d="M104,152V8.05"/><path id="Eastern-Tropic" class="cls-2" d="M56,152V8"/><path id="Mean" class="cls-2" d="M80,152V8"/><path id="Core" class="cls-2" d="M110,80a30,30,0,1,0-30,30,30,30,0,0,0,30-30Z"/><path id="Circle" class="cls-2" d="M80,145a65,65,0,1,1,65-65,65,65,0,0,1-65,65"/><path id="Square" class="cls-2" d="M130.53,140H29.47A9.5,9.5,0,0,1,20,130.53V29.47A9.5,9.5,0,0,1,29.47,20H130.53A9.5,9.5,0,0,1,140,29.47V130.53a9.5,9.5,0,0,1-9.47,9.47"/><path id="Vertical-Rectangle" class="cls-2" d="M119,145H41a9,9,0,0,1-9-8.86V23.86A9,9,0,0,1,41,15h78a9,9,0,0,1,9,8.86V136.14a9,9,0,0,1-9,8.86"/><path id="Horizontal-Rectangle" class="cls-2" d="M136.14,128H23.86A9,9,0,0,1,15,119V41a9,9,0,0,1,8.86-9H136.14A9,9,0,0,1,145,41v78a9,9,0,0,1-8.86,9"/></g></g><g id="analytics_usa"><rect class="cls-4" width="160" height="160"/><path class="cls-5" d="M79,150A70,70,0,1,0,9,80,70,70,0,0,0,79,150Z"/><rect class="cls-6" x="25.5" y="33.5" width="119" height="77" rx="1.5"/><circle class="cls-7" cx="32" cy="41" r="2"/><circle class="cls-7" cx="39" cy="41" r="2"/><circle class="cls-7" cx="46" cy="41" r="2"/><path class="cls-7" d="M143,32H27a3,3,0,0,0-3,3v74a3,3,0,0,0,3,3H143a3,3,0,0,0,3-3V35A3,3,0,0,0,143,32Zm0,3V47H27V35ZM27,109V50H143v59Z"/><rect class="cls-8" x="109" y="58" width="12" height="45"/><rect class="cls-9" x="94" y="71" width="12" height="32" transform="translate(200 174) rotate(180)"/><rect class="cls-8" x="79" y="86" width="12" height="17"/><rect class="cls-10" x="124" y="76" width="12" height="27" transform="translate(260 179) rotate(180)"/><path class="cls-8" d="M52,64A18,18,0,1,0,70,82H52Z"/><path class="cls-9" d="M70,82A18,18,0,0,0,52,64V82Z"/><polygon class="cls-6" points="69.31 122.18 60.93 129.35 66.72 100.84 88.47 120.1 77.87 119.35 82.27 132.51 73.72 135.37 69.31 122.18"/><path class="cls-7" d="M68.37,100.29h0m-.69,3.4,16.48,14.6-4-.28-4.48-.32L77.16,122l3.21,9.61-5.7,1.91-3.23-9.65L70,119.59l-3.39,2.9-3.38,2.89,4.42-21.69m-1.27-4.8a1,1,0,0,0-1,.8l-6.26,30.79a1,1,0,0,0,1.63,1l7.79-6.67,3.89,11.63a.95.95,0,0,0,1.16.58l9.66-3.23a.92.92,0,0,0,.58-1.16L80,121l9.83.7h.08a1,1,0,0,0,.65-1.75L67.07,99.14a1,1,0,0,0-.66-.25Z"/></g></svg>