<svg width="160" height="160" viewBox="0 0 160 160" fill="none" xmlns="http://www.w3.org/2000/svg">
<g clip-path="url(#clip0_1581_14014)">
<path d="M79 150C92.8447 150 106.378 145.895 117.89 138.203C129.401 130.511 138.373 119.579 143.672 106.788C148.97 93.997 150.356 79.9224 147.655 66.3437C144.954 52.765 138.287 40.2922 128.497 30.5026C118.708 20.7129 106.235 14.046 92.6563 11.3451C79.0777 8.6441 65.003 10.0303 52.2122 15.3285C39.4213 20.6266 28.4888 29.5987 20.7971 41.1101C13.1054 52.6216 9 66.1553 9 80C9 98.5652 16.375 116.37 29.5025 129.498C42.6301 142.625 60.4348 150 79 150V150Z" fill="#F0F6FC"/>
<path d="M96.31 61.8884L97.88 49.1284L98.11 47.2284L97.73 46.7984L82.73 29.3584C82.3686 28.9326 81.9189 28.5906 81.412 28.3561C80.9052 28.1215 80.3535 28 79.795 28C79.2365 28 78.6848 28.1215 78.178 28.3561C77.6711 28.5906 77.2214 28.9326 76.86 29.3584L62 46.7084L61.61 47.1684L61.82 49.1684L63.09 60.8684L49 95.2584H53.34L65.51 82.8084L66.31 90.1984H68.83L71.1 98.2584H88.1L90.55 90.2584H92.78L93.67 83.0384L105.67 95.2584H110L96.31 61.8884ZM85.92 95.2584H73.37L72 90.2584H87.49L85.92 95.2584ZM79.19 31.3084C79.271 31.212 79.372 31.1344 79.486 31.0809C79.5999 31.0274 79.7241 30.9992 79.85 30.9984C79.9744 30.9993 80.0971 31.0276 80.2094 31.0811C80.3218 31.1347 80.421 31.2123 80.5 31.3084L92.41 45.1884H67.28L79.19 31.3084ZM54.48 89.7984L63.48 67.9684L64.88 79.1984L54.48 89.7984ZM92.77 66.0884L91 80.2584L90.14 87.2584L69 87.1984L64.84 48.7984L64.77 48.1884H95L94.93 48.7584L92.77 66.0884ZM94.18 79.2584L95.56 68.0084L104.56 89.8384L94.18 79.2584Z" fill="#365066"/>
<path d="M79.19 31.3084C79.271 31.212 79.372 31.1344 79.486 31.0809C79.5999 31.0274 79.7241 30.9992 79.85 30.9984C79.9744 30.9993 80.0971 31.0276 80.2094 31.0811C80.3218 31.1347 80.421 31.2123 80.5 31.3084L92.41 45.1884H67.28L79.19 31.3084Z" fill="white"/>
<path d="M92.77 66.0884L91 80.2584L90.14 87.2584L69 87.1984L64.84 48.7984L64.77 48.1884H95L94.93 48.7584L92.77 66.0884Z" fill="white"/>
<path d="M85.92 95.2584H73.37L72 90.2584H87.49L85.92 95.2584Z" fill="white"/>
<path d="M94.18 79.2584L95.56 68.0084L104.56 89.8384L94.18 79.2584Z" fill="white"/>
<path d="M54.48 89.7984L63.48 67.9684L64.88 79.1984L54.48 89.7984Z" fill="white"/>
<path d="M86 129L84.5 129L86 129ZM84.5 103L84.5 101.5L87.5 101.5L87.5 103L84.5 103ZM94 135.5C94.8284 135.5 95.5 136.172 95.5 137C95.5 137.828 94.8284 138.5 94 138.5L94 135.5ZM84.5 129L84.5 103L87.5 103L87.5 129L84.5 129ZM87.5 129C87.5 130.093 87.8403 131.767 88.8173 133.124C89.7392 134.404 91.2889 135.5 94 135.5L94 138.5C90.3111 138.5 87.8608 136.929 86.3827 134.876C84.9597 132.9 84.5 130.573 84.5 129L87.5 129Z" fill="#50A7EF"/>
<path d="M78.5 135C78.5 135.828 79.1716 136.5 80 136.5C80.8284 136.5 81.5 135.828 81.5 135L78.5 135ZM81.5 103L81.5 101.5L78.5 101.5L78.5 103L81.5 103ZM81.5 135L81.5 103L78.5 103L78.5 135L81.5 135Z" fill="#50A7EF"/>
<path d="M74 129L75.5 129L74 129ZM75.5 103L75.5 101.5L72.5 101.5L72.5 103L75.5 103ZM66 135.5C65.1716 135.5 64.5 136.172 64.5 137C64.5 137.828 65.1716 138.5 66 138.5L66 135.5ZM75.5 129L75.5 103L72.5 103L72.5 129L75.5 129ZM72.5 129C72.5 130.093 72.1597 131.767 71.1827 133.124C70.2608 134.404 68.7111 135.5 66 135.5L66 138.5C69.6889 138.5 72.1392 136.929 73.6173 134.876C75.0403 132.9 75.5 130.573 75.5 129L72.5 129Z" fill="#50A7EF"/>
<circle cx="80" cy="62" r="6" fill="#CC7A00"/>
<path d="M123.7 42.0998C123.692 40.8364 123.183 39.6278 122.285 38.7392C121.387 37.8506 120.173 37.3545 118.91 37.3598C118.252 37.3571 117.602 37.4934 117 37.7598L117 26.9198L127.93 26.9198C127.664 26.3255 127.527 25.6811 127.53 25.0298C127.53 23.7621 128.034 22.5462 128.93 21.6498C129.827 20.7534 131.042 20.2498 132.31 20.2498C133.578 20.2498 134.794 20.7534 135.69 21.6498C136.587 22.5462 137.09 23.7621 137.09 25.0298C137.093 25.6811 136.957 26.3255 136.69 26.9198L147.62 26.9198L147.62 57.2798L117 57.2798L117 46.4498C117.602 46.7161 118.252 46.8524 118.91 46.8498C120.174 46.8525 121.388 46.3541 122.286 45.4639C123.184 44.5737 123.692 43.3641 123.7 42.0998V42.0998Z" fill="#50A7EF"/>
<path d="M45.8102 116.29C46.2142 116.289 46.6139 116.208 46.9866 116.052C47.3592 115.895 47.6973 115.667 47.9816 115.38C48.2659 115.093 48.4907 114.753 48.6432 114.379C48.7957 114.005 48.8728 113.604 48.8702 113.2C48.8704 112.774 48.7854 112.352 48.6202 111.96L55.6202 111.96L55.6202 119C56.0415 118.819 56.4977 118.735 56.9558 118.752C57.4138 118.77 57.8623 118.889 58.2686 119.101C58.6749 119.314 59.0288 119.614 59.3049 119.98C59.5809 120.346 59.772 120.768 59.8643 121.217C59.9567 121.666 59.948 122.13 59.8389 122.575C59.7298 123.021 59.523 123.436 59.2335 123.792C58.944 124.147 58.579 124.433 58.1651 124.63C57.7511 124.827 57.2986 124.93 56.8402 124.93C56.4195 124.932 56.0034 124.843 55.6202 124.67L55.6202 131.75L36.0002 131.75L36.0002 112L43.0002 112C42.8317 112.392 42.7433 112.813 42.7402 113.24C42.748 114.05 43.0746 114.824 43.6492 115.395C44.2239 115.966 45.0002 116.287 45.8102 116.29V116.29Z" fill="#CC7A00"/>
<path d="M108.399 122.118C108.398 121.714 108.317 121.314 108.161 120.941C108.005 120.569 107.777 120.23 107.49 119.946C107.203 119.662 106.862 119.437 106.488 119.285C106.114 119.132 105.713 119.055 105.309 119.058C104.883 119.057 104.462 119.142 104.069 119.308L104.069 112.308L111.109 112.308C110.929 111.886 110.844 111.43 110.862 110.972C110.879 110.514 110.998 110.065 111.211 109.659C111.423 109.253 111.723 108.899 112.089 108.623C112.455 108.347 112.878 108.156 113.327 108.063C113.776 107.971 114.24 107.98 114.685 108.089C115.13 108.198 115.545 108.405 115.901 108.694C116.256 108.984 116.543 109.349 116.74 109.763C116.937 110.177 117.039 110.629 117.039 111.088C117.041 111.508 116.953 111.924 116.779 112.308L123.859 112.308L123.859 131.928L104.109 131.928L104.109 124.928C104.501 125.096 104.923 125.184 105.349 125.188C106.159 125.18 106.934 124.853 107.504 124.278C108.075 123.704 108.397 122.928 108.399 122.118V122.118Z" fill="#CC7A00"/>
<path d="M31.46 47.8102C31.4613 48.2142 31.5424 48.6139 31.6985 48.9866C31.8546 49.3592 32.0828 49.6973 32.3698 49.9816C32.6569 50.2659 32.9972 50.4907 33.3714 50.6432C33.7455 50.7957 34.146 50.8728 34.55 50.8702C34.9759 50.8704 35.3975 50.7854 35.79 50.6202L35.79 57.6202L28.73 57.6202C28.9107 58.0415 28.9953 58.4977 28.9778 58.9558C28.9603 59.4138 28.8411 59.8623 28.6288 60.2686C28.4165 60.6749 28.1165 61.0288 27.7505 61.3048C27.3845 61.5809 26.9617 61.772 26.5127 61.8643C26.0637 61.9567 25.5998 61.948 25.1546 61.8389C24.7093 61.7298 24.294 61.523 23.9385 61.2335C23.5831 60.944 23.2966 60.579 23.0997 60.1651C22.9027 59.7511 22.8004 59.2986 22.8 58.8402C22.7981 58.4195 22.8868 58.0034 23.06 57.6202L16 57.6202L16 38.0002L35.79 38.0002L35.79 45.0002C35.3982 44.8317 34.9766 44.7433 34.55 44.7402C34.1456 44.7388 33.7448 44.8172 33.3706 44.9708C32.9964 45.1243 32.6562 45.3501 32.3692 45.6352C32.0823 45.9203 31.8543 46.2591 31.6983 46.6323C31.5423 47.0054 31.4613 47.4057 31.46 47.8102V47.8102Z" fill="#2079D4"/>
</g>
<defs>
<clipPath id="clip0_1581_14014">
<rect width="160" height="160" fill="white"/>
</clipPath>
</defs>
</svg>
