<svg width="160" height="160" viewBox="0 0 160 160" fill="none" xmlns="http://www.w3.org/2000/svg">
<g clip-path="url(#clip0_39_6816)">
<path d="M138 61.5H88C87.1716 61.5 86.5 62.1716 86.5 63V132C86.5 132.828 87.1716 133.5 88 133.5H138C138.828 133.5 139.5 132.828 139.5 132V63C139.5 62.1716 138.828 61.5 138 61.5Z" fill="white"/>
<path d="M138 63V132H88V63H138ZM138 60H88C87.2044 60 86.4413 60.3161 85.8787 60.8787C85.3161 61.4413 85 62.2044 85 63V132C85 132.796 85.3161 133.559 85.8787 134.121C86.4413 134.684 87.2044 135 88 135H138C138.796 135 139.559 134.684 140.121 134.121C140.684 133.559 141 132.796 141 132V63C141 62.2044 140.684 61.4413 140.121 60.8787C139.559 60.3161 138.796 60 138 60Z" fill="#365066"/>
<path d="M114 69C110.638 69 107.351 69.997 104.555 71.865C101.76 73.733 99.5807 76.388 98.2941 79.4944C97.0074 82.6007 96.6707 86.0189 97.3267 89.3165C97.9826 92.6142 99.6017 95.6433 101.979 98.0208C104.357 100.398 107.386 102.017 110.683 102.673C113.981 103.329 117.399 102.993 120.506 101.706C123.612 100.419 126.267 98.2403 128.135 95.4447C130.003 92.6491 131 89.3623 131 86H114V69Z" fill="#2079D4"/>
<path d="M131 86C131 81.4913 129.209 77.1673 126.021 73.9792C122.833 70.7911 118.509 69 114 69V86H131Z" fill="#50A7EF"/>
<path d="M132 119H94V125H132V119Z" fill="#50A7EF"/>
<path d="M75 25.5H23C22.1716 25.5 21.5 26.1716 21.5 27V132C21.5 132.828 22.1716 133.5 23 133.5H75C75.8284 133.5 76.5 132.828 76.5 132V27C76.5 26.1716 75.8284 25.5 75 25.5Z" fill="white"/>
<path d="M39.16 41.08V48.92H31.32V41.08H39.16ZM40.84 39.4H29.64V50.6H40.84V39.4Z" fill="#365066"/>
<path d="M69.96 43.3199H44.2V46.6799H69.96V43.3199Z" fill="#CC7A00"/>
<path d="M39.16 58.28V66.12H31.32V58.28H39.16ZM40.84 56.6H29.64V67.8H40.84V56.6Z" fill="#365066"/>
<path d="M69.96 60.5199H44.2V63.8799H69.96V60.5199Z" fill="#CC7A00"/>
<path d="M39.16 75.4799V83.3199H31.32V75.4799H39.16ZM40.84 73.7999H29.64V84.9999H40.84V73.7999Z" fill="#365066"/>
<path d="M69.96 77.7198H44.2V81.0798H69.96V77.7198Z" fill="#CC7A00"/>
<path d="M39.16 92.6799V100.52H31.32V92.6799H39.16ZM40.84 90.9999H29.64V102.2H40.84V90.9999Z" fill="#365066"/>
<path d="M69.96 94.9198H44.2V98.2798H69.96V94.9198Z" fill="#CC7A00"/>
<path d="M39.16 109.88V117.72H31.32V109.88H39.16ZM40.84 108.2H29.64V119.4H40.84V108.2Z" fill="#365066"/>
<path d="M69.96 112.12H44.2V115.48H69.96V112.12Z" fill="#CC7A00"/>
<path d="M75 27V132H23V27H75ZM75 24H23C22.2044 24 21.4413 24.3161 20.8787 24.8787C20.3161 25.4413 20 26.2044 20 27V132C20 132.796 20.3161 133.559 20.8787 134.121C21.4413 134.684 22.2044 135 23 135H75C75.7956 135 76.5587 134.684 77.1213 134.121C77.6839 133.559 78 132.796 78 132V27C78 26.2044 77.6839 25.4413 77.1213 24.8787C76.5587 24.3161 75.7956 24 75 24Z" fill="#365066"/>
<path d="M139 25.5H88C87.1716 25.5 86.5 26.1716 86.5 27V51C86.5 51.8284 87.1716 52.5 88 52.5H139C139.828 52.5 140.5 51.8284 140.5 51V27C140.5 26.1716 139.828 25.5 139 25.5Z" fill="white"/>
<path d="M139 27V51H88V27H139ZM139 24H88C87.2044 24 86.4413 24.3161 85.8787 24.8787C85.3161 25.4413 85 26.2044 85 27V51C85 51.7956 85.3161 52.5587 85.8787 53.1213C86.4413 53.6839 87.2044 54 88 54H139C139.796 54 140.559 53.6839 141.121 53.1213C141.684 52.5587 142 51.7956 142 51V27C142 26.2044 141.684 25.4413 141.121 24.8787C140.559 24.3161 139.796 24 139 24Z" fill="#365066"/>
<path d="M133 33H94V45H133V33Z" fill="#50A7EF"/>
<path d="M140.49 135.29C139.964 135.29 139.444 135.187 138.958 134.987C138.473 134.786 138.031 134.491 137.66 134.12L112.77 109.24L118.43 103.58L143.32 128.46C143.691 128.832 143.986 129.273 144.188 129.758C144.389 130.244 144.493 130.764 144.493 131.29C144.493 131.816 144.389 132.336 144.188 132.822C143.986 133.307 143.691 133.749 143.32 134.12C142.948 134.491 142.507 134.786 142.021 134.987C141.535 135.187 141.015 135.29 140.49 135.29Z" fill="white"/>
<path d="M118.43 105.7L142.26 129.53C142.715 130.002 142.966 130.634 142.96 131.289C142.953 131.945 142.689 132.572 142.225 133.035C141.761 133.497 141.133 133.759 140.478 133.764C139.822 133.769 139.191 133.516 138.72 133.06L114.89 109.24L118.43 105.7ZM118.43 101.46L110.65 109.24L136.6 135.18C137.111 135.691 137.718 136.096 138.385 136.373C139.052 136.649 139.768 136.792 140.49 136.792C141.213 136.792 141.928 136.649 142.596 136.373C143.263 136.096 143.87 135.691 144.38 135.18C145.408 134.146 145.984 132.747 145.984 131.29C145.984 129.832 145.408 128.434 144.38 127.4L118.43 101.46Z" fill="#365066"/>
<path d="M96 117.53C88.4364 117.555 81.089 115.008 75.1635 110.307C69.238 105.606 65.0864 99.031 63.39 91.66C62.9527 89.7737 62.6783 87.8533 62.57 85.92C62.53 85.2534 62.51 84.6134 62.51 84C62.5159 77.3752 64.486 70.9009 68.1711 65.3956C71.8561 59.8903 77.0908 55.6012 83.2132 53.0705C89.3356 50.5399 96.0709 49.8813 102.568 51.1781C109.064 52.4749 115.031 55.6689 119.712 60.3561C124.394 65.0434 127.581 71.0135 128.87 77.5117C130.159 84.0099 129.492 90.7444 126.954 96.8638C124.416 102.983 120.121 108.213 114.611 111.891C109.102 115.57 102.625 117.532 96 117.53V117.53Z" fill="white"/>
<path d="M96 52C102.015 51.9997 107.908 53.6947 113.004 56.8905C118.099 60.0864 122.191 64.6537 124.81 70.0686C127.428 75.4836 128.468 81.527 127.809 87.5057C127.15 93.4844 124.819 99.1563 121.084 103.871C117.349 108.586 112.361 112.152 106.692 114.162C101.022 116.171 94.9014 116.542 89.0309 115.232C83.1605 113.921 77.7781 110.983 73.5012 106.754C69.2243 102.525 66.2259 97.1754 64.85 91.32C64.4295 89.513 64.1685 87.6726 64.07 85.82C64.07 85.22 64.01 84.61 64.01 84C64.01 75.5131 67.3814 67.3737 73.3826 61.3726C79.3837 55.3714 87.5231 52 96.01 52H96ZM96 49C86.7174 49 77.815 52.6875 71.2513 59.2513C64.6875 65.815 61 74.7174 61 84C61 84.67 61 85.34 61.06 86C61.4507 92.8261 63.8322 99.3883 67.9104 104.876C71.9885 110.364 77.5848 114.537 84.008 116.88C90.4312 119.224 97.4001 119.634 104.054 118.061C110.708 116.489 116.755 113.001 121.45 108.03C126.144 103.059 129.28 96.8219 130.469 90.0889C131.659 83.3559 130.85 76.4219 128.143 70.1433C125.436 63.8647 120.949 58.5164 115.237 54.759C109.525 51.0015 102.837 48.9995 96 49V49Z" fill="#365066"/>
<path d="M96 65C92.4399 65 88.9598 66.0557 85.9997 68.0335C83.0397 70.0114 80.7326 72.8226 79.3702 76.1117C78.0078 79.4008 77.6513 83.02 78.3459 86.5116C79.0404 90.0033 80.7547 93.2106 83.2721 95.7279C85.7894 98.2453 88.9967 99.9596 92.4884 100.654C95.98 101.349 99.5992 100.992 102.888 99.6298C106.177 98.2675 108.989 95.9604 110.966 93.0003C112.944 90.0402 114 86.5601 114 83H96V65Z" fill="#2079D4"/>
<path d="M113.97 83C113.97 78.2261 112.073 73.6477 108.698 70.2721C105.322 66.8964 100.744 65 95.9697 65V83H113.97Z" fill="#50A7EF"/>
</g>
<defs>
<clipPath id="clip0_39_6816">
<rect width="160" height="160" fill="white"/>
</clipPath>
</defs>
</svg>
