<svg width="160" height="160" viewBox="0 0 160 160" fill="none" xmlns="http://www.w3.org/2000/svg">
<g clip-path="url(#clip0_316_20788)">
<path d="M79 150C92.8447 150 106.378 145.895 117.89 138.203C129.401 130.511 138.373 119.579 143.672 106.788C148.97 93.997 150.356 79.9224 147.655 66.3437C144.954 52.765 138.287 40.2922 128.497 30.5026C118.708 20.7129 106.235 14.046 92.6563 11.3451C79.0777 8.6441 65.003 10.0303 52.2122 15.3285C39.4213 20.6266 28.4888 29.5987 20.7971 41.1101C13.1054 52.6216 9 66.1553 9 80C9 98.5652 16.375 116.37 29.5025 129.498C42.6301 142.625 60.4348 150 79 150Z" fill="#F0F6FC"/>
<path d="M81.998 40C81.998 39.1716 81.3265 38.5 80.498 38.5C79.6696 38.5 78.998 39.1716 78.998 40L81.998 40ZM78.998 43.2021L78.998 44.7021L81.998 44.7021L81.998 43.2021L78.998 43.2021ZM78.998 40L78.998 43.2021L81.998 43.2021L81.998 40L78.998 40Z" fill="#365066"/>
<path fill-rule="evenodd" clip-rule="evenodd" d="M79.4189 110.981C78.5402 110.987 77.8299 111.702 77.8299 112.582L77.8299 122.188C77.8299 123.073 78.5467 123.789 79.431 123.789C80.3152 123.789 81.0321 123.073 81.0321 122.188V112.582C81.0321 111.702 80.3217 110.987 79.443 110.981H79.4189ZM88.4374 112.146C88.0637 111.345 87.1111 110.998 86.3097 111.372C85.5083 111.745 85.1616 112.698 85.5353 113.499L91.3995 126.075C91.7732 126.877 92.7258 127.223 93.5272 126.85C94.3286 126.476 94.6754 125.523 94.3017 124.722L88.4374 112.146ZM63.5635 124.722C63.1898 125.523 63.5365 126.476 64.3379 126.85C65.1393 127.223 66.0919 126.877 66.4656 126.075L72.3298 113.499C72.7035 112.698 72.3568 111.745 71.5554 111.372C70.754 110.998 69.8014 111.345 69.4277 112.146L63.5635 124.722Z" fill="#365066"/>
<path d="M33 44.8032H124.795V105.649C124.795 110.068 121.213 113.649 116.795 113.649H41C36.5817 113.649 33 110.068 33 105.649V44.8032Z" fill="#2079D4"/>
<path d="M34.5 46.3032H123.295V105.649C123.295 109.239 120.385 112.149 116.795 112.149H41C37.4101 112.149 34.5 109.239 34.5 105.649V46.3032Z" fill="white" stroke="#365066" stroke-width="3"/>
<path d="M79.5 89C82.5376 89 85 86.5376 85 83.5C85 80.4624 82.5376 78 79.5 78C76.4624 78 74 80.4624 74 83.5C74 86.5376 76.4624 89 79.5 89Z" fill="#50A7EF"/>
<path d="M108.5 69C111.538 69 114 66.5376 114 63.5C114 60.4624 111.538 58 108.5 58C105.462 58 103 60.4624 103 63.5C103 66.5376 105.462 69 108.5 69Z" fill="#50A7EF"/>
<path d="M50.5 69C53.5376 69 56 66.5376 56 63.5C56 60.4624 53.5376 58 50.5 58C47.4624 58 45 60.4624 45 63.5C45 66.5376 47.4624 69 50.5 69Z" fill="#50A7EF"/>
<path d="M87 104H72V96.9643C72 95.3834 72.6331 93.8672 73.7602 92.7488C74.8873 91.6304 76.4161 91.0014 78.0108 91H80.9893C82.5839 91.0014 84.1127 91.6304 85.2398 92.7488C86.3669 93.8672 87 95.3834 87 96.9643V104Z" fill="#50A7EF"/>
<path d="M116 84H101V76.9643C101 75.3834 101.633 73.8672 102.76 72.7488C103.887 71.6304 105.416 71.0014 107.011 71H109.989C111.584 71.0014 113.113 71.6304 114.24 72.7488C115.367 73.8672 116 75.3834 116 76.9643V84Z" fill="#50A7EF"/>
<path d="M58 84H43V76.9643C43 75.3834 43.6331 73.8672 44.7602 72.7488C45.8873 71.6304 47.4161 71.0014 49.0108 71H51.9893C53.5839 71.0014 55.1127 71.6304 56.2398 72.7488C57.3669 73.8672 58 75.3834 58 76.9643V84Z" fill="#50A7EF"/>
<path fill-rule="evenodd" clip-rule="evenodd" d="M79.1225 61.12C78.6958 59.0933 77.2781 56 74.4825 56C71.7625 56 70.1132 58.2421 70.0025 61.12C69.877 64.3839 74.479 68.1402 77.3176 70.4571C78.097 71.0932 78.7434 71.6209 79.1225 72C79.5016 71.6209 80.1481 71.0932 80.9274 70.4571C83.766 68.1402 88.368 64.3839 88.2425 61.12C88.1318 58.2421 86.4825 56 83.7625 56C80.967 56 79.5492 59.0933 79.1225 61.12Z" fill="#CC7A00"/>
</g>
<defs>
<clipPath id="clip0_316_20788">
<rect width="160" height="160" fill="white"/>
</clipPath>
</defs>
</svg>
