<svg width="160" height="160" viewBox="0 0 160 160" fill="none" xmlns="http://www.w3.org/2000/svg">
<g clip-path="url(#clip0_181_52624)">
<path d="M79 150C92.8447 150 106.378 145.895 117.89 138.203C129.401 130.511 138.373 119.579 143.672 106.788C148.97 93.997 150.356 79.9224 147.655 66.3437C144.954 52.765 138.287 40.2922 128.497 30.5026C118.708 20.7129 106.235 14.046 92.6563 11.3451C79.0777 8.6441 65.003 10.0303 52.2122 15.3285C39.4213 20.6266 28.4888 29.5987 20.7971 41.1101C13.1054 52.6216 9 66.1553 9 80C9 98.5652 16.375 116.37 29.5025 129.498C42.6301 142.625 60.4348 150 79 150V150Z" fill="#F0F6FC"/>
<path d="M128.75 38.214H24.194C23.7447 38.214 23.3139 38.3925 22.9962 38.7102C22.6785 39.0279 22.5 39.4587 22.5 39.908C22.5 40.3573 22.6785 40.7882 22.9962 41.1059C23.3139 41.4236 23.7447 41.602 24.194 41.602H29.8408V124.61C29.8466 124.839 29.8978 125.065 29.9914 125.274C30.0849 125.484 30.219 125.673 30.386 125.83C30.5529 125.988 30.7493 126.111 30.9639 126.192C31.1785 126.273 31.4071 126.311 31.6365 126.304H51.1743C51.6236 126.304 52.0544 126.125 52.3721 125.807C52.6898 125.49 52.8683 125.059 52.8683 124.61C52.8683 124.16 52.6898 123.729 52.3721 123.412C52.0544 123.094 51.6236 122.915 51.1743 122.915H33.2289V83.3881H48.8026C49.2519 83.3881 49.6828 83.2096 50.0005 82.892C50.3182 82.5743 50.4967 82.1434 50.4967 81.6941C50.4967 81.2448 50.3182 80.8139 50.0005 80.4962C49.6828 80.1785 49.2519 80.0001 48.8026 80.0001H33.2289V41.602H88.5672V124.61C88.5672 125.059 88.7456 125.49 89.0633 125.807C89.381 126.125 89.8119 126.304 90.2612 126.304H105.632C106.081 126.304 106.512 126.125 106.83 125.807C107.147 125.49 107.326 125.059 107.326 124.61C107.326 124.16 107.147 123.729 106.83 123.412C106.512 123.094 106.081 122.915 105.632 122.915H91.9552V83.3881H106.806C107.255 83.3881 107.686 83.2096 108.004 82.892C108.322 82.5743 108.5 82.1434 108.5 81.6941C108.5 81.2448 108.322 80.8139 108.004 80.4962C107.686 80.1785 107.255 80.0001 106.806 80.0001H91.9552V41.602H128.75C129.199 41.602 129.63 41.4236 129.947 41.1059C130.265 40.7882 130.444 40.3573 130.444 39.908C130.444 39.4587 130.265 39.0279 129.947 38.7102C129.63 38.3925 129.199 38.214 128.75 38.214Z" fill="#365066"/>
<path d="M81.791 23.5323H43.393V52.8955H81.791V23.5323Z" fill="#2079D4"/>
<path d="M136 68.7064H104.378V93.5522H136V68.7064Z" fill="#CC7A00"/>
<path d="M136 23.5323H97.602V52.8955H136V23.5323Z" fill="#50A7EF"/>
<path d="M80.6617 111.622H49.0398V136.468H80.6617V111.622Z" fill="#2079D4"/>
<path d="M136 111.622H104.378V136.468H136V111.622Z" fill="#2079D4"/>
<path d="M80.9099 68.7064H49.288V93.5522H80.9099V68.7064Z" fill="#50A7EF"/>
</g>
<defs>
<clipPath id="clip0_181_52624">
<rect width="160" height="160" fill="white"/>
</clipPath>
</defs>
</svg>
