<svg width="160" height="160" viewBox="0 0 160 160" fill="none" xmlns="http://www.w3.org/2000/svg">
<path d="M80 150C93.8447 150 107.378 145.895 118.89 138.203C130.401 130.511 139.373 119.579 144.672 106.788C149.97 93.997 151.356 79.9224 148.655 66.3437C145.954 52.765 139.287 40.2922 129.497 30.5026C119.708 20.7129 107.235 14.046 93.6563 11.3451C80.0777 8.6441 66.003 10.0303 53.2122 15.3285C40.4213 20.6266 29.4888 29.5987 21.7971 41.1101C14.1054 52.6216 10 66.1553 10 80C10 98.5652 17.375 116.37 30.5025 129.498C43.6301 142.625 61.4348 150 80 150V150Z" fill="#F0F6FC"/>
<path d="M108.513 121.488C107.548 121.488 106.49 121.488 105.4 121.435L105.473 118.298C106.583 118.298 107.61 118.298 108.585 118.35L108.513 121.488ZM102.174 121.341C101.137 121.289 100.099 121.237 99.0617 121.163L99.2692 118.026C100.307 118.099 101.344 118.162 102.381 118.204L102.174 121.341ZM95.8768 120.902C94.8394 120.808 93.802 120.703 92.7645 120.578L93.1276 117.44C94.1651 117.566 95.2025 117.67 96.2399 117.765L95.8768 120.902ZM89.6523 120.159C88.6149 120.013 87.5774 119.846 86.54 119.657L87.0795 116.572C88.1169 116.75 89.1543 116.917 90.1088 117.064L89.6523 120.159ZM83.4277 119.051C82.3903 118.831 81.3529 118.601 80.3155 118.34L81.0728 115.296C82.1102 115.547 83.0543 115.778 84.0502 115.987L83.4277 119.051ZM77.2654 117.482C76.228 117.168 75.1906 116.823 74.2258 116.436L75.2632 113.477C76.1865 113.811 77.1513 114.136 78.1473 114.439L77.2654 117.482ZM71.2173 115.276C70.1799 114.836 69.215 114.366 68.3021 113.874L69.7234 111.092C70.5741 111.542 71.487 111.971 72.4311 112.389L71.2173 115.276ZM65.4907 112.222C64.5696 111.621 63.683 110.968 62.8349 110.266L64.8164 107.84C65.5719 108.466 66.3616 109.049 67.1817 109.586L65.4907 112.222ZM60.3866 107.955C59.6233 107.125 58.9293 106.233 58.3117 105.288L60.9157 103.573C61.4541 104.385 62.0579 105.151 62.7208 105.863L60.3866 107.955ZM56.7452 102.276C56.2999 101.231 55.9526 100.145 55.7078 99.0343L58.7474 98.365C58.9508 99.2915 59.2355 100.198 59.5981 101.074L56.7452 102.276ZM55.3032 95.6877C55.3032 95.3461 55.3032 94.9975 55.3032 94.6419C55.3038 93.8628 55.3454 93.0844 55.4277 92.3098L58.54 92.6235C58.4777 93.3033 58.4362 93.983 58.4362 94.6419C58.4362 94.9347 58.4362 95.2276 58.4362 95.5204L55.3032 95.6877ZM59.0068 89.8835L56.0398 88.9318C56.3949 87.8372 56.868 86.7851 57.4507 85.7944L60.1272 87.3945C59.6815 88.1798 59.3198 89.0107 59.0483 89.873L59.0068 89.8835ZM61.7871 85.0937L59.4529 83.0021C60.1865 82.1637 60.9768 81.3775 61.8182 80.6491L63.8931 83.0231C63.1593 83.6617 62.4695 84.35 61.8286 85.0833L61.7871 85.0937ZM66.1754 81.2243L64.4325 78.6725C65.2625 78.0869 66.1754 77.5012 67.1402 76.9156L68.7378 79.6033C67.8353 80.1157 66.9846 80.67 66.2169 81.2138L66.1754 81.2243ZM71.3625 78.0869L69.9101 75.3155C70.8334 74.824 71.7775 74.3429 72.7527 73.8723L74.1013 76.7064C73.1815 77.1526 72.2754 77.6093 71.3833 78.0764L71.3625 78.0869ZM76.892 75.4096L75.6263 72.5441C76.5704 72.1154 77.5352 71.697 78.5104 71.2787L79.7241 74.1756C78.7905 74.573 77.836 74.9809 76.9127 75.3992L76.892 75.4096ZM82.5874 72.9729L81.4151 70.076L84.3095 68.8943L85.4715 71.8016L82.5874 72.9729ZM88.397 70.6199L87.2351 67.7125L90.1088 66.5308L91.2914 69.4276L88.397 70.6199ZM94.1962 68.2145L92.9617 65.3281C93.9265 64.9098 94.8601 64.5019 95.7938 64.0731L97.0802 66.9282C96.1258 67.3674 95.161 67.7857 94.1858 68.2145H94.1962ZM99.9435 65.5686L98.5638 62.7554C99.5182 62.2744 100.431 61.8038 101.261 61.3331L102.765 64.0836C101.883 64.5751 100.929 65.0771 99.9331 65.5686H99.9435ZM105.535 62.4312L103.865 59.7749C104.747 59.2102 105.566 58.635 106.313 58.0702L108.201 60.5593C107.382 61.1972 106.479 61.8247 105.525 62.4417L105.535 62.4312ZM110.722 58.384L108.544 56.146C109.217 55.4801 109.834 54.7596 110.39 53.9916L112.922 55.8113C112.253 56.7355 111.507 57.5997 110.691 58.3944L110.722 58.384ZM114.602 52.789L111.729 51.5863C112.071 50.7558 112.305 49.884 112.424 48.9927L115.536 49.411C115.36 50.5776 115.036 51.7165 114.571 52.7994L114.602 52.789ZM112.424 46.2527C112.31 45.3128 112.112 44.3852 111.832 43.4813L114.81 42.5506C115.143 43.65 115.379 44.7769 115.515 45.918L112.424 46.2527ZM110.753 40.9087C110.291 40.1016 109.753 39.3416 109.145 38.6393L111.49 36.5477C112.241 37.4113 112.901 38.3505 113.461 39.3504L110.753 40.9087ZM107.071 36.6418C106.324 36.0187 105.537 35.4458 104.716 34.9267L106.376 32.2703C107.306 32.8637 108.2 33.5133 109.052 34.2155L107.071 36.6418ZM102.132 33.5044C101.292 33.0756 100.369 32.6573 99.4041 32.2599L100.587 29.3526C101.624 29.7813 102.662 30.231 103.533 30.7016L102.132 33.5044ZM96.5823 31.2036C95.659 30.8899 94.6838 30.5866 93.6775 30.2938L94.5282 27.2819C95.5656 27.5747 96.603 27.8989 97.5782 28.2336L96.5823 31.2036ZM90.7519 29.5199C89.7768 29.2898 88.7705 29.0702 87.7642 28.861L88.3763 25.7864C89.4137 26.006 90.4511 26.2256 91.4885 26.4766L90.7519 29.5199ZM84.7453 28.3068C83.7079 28.129 82.7327 27.9721 81.7056 27.8257L82.1413 24.6883C83.1788 24.8452 84.2162 25.002 85.2536 25.1798L84.7453 28.3068ZM78.6556 27.4283C77.6182 27.3028 76.5808 27.1982 75.5433 27.0936L75.8442 23.9562C76.8816 24.0503 77.919 24.1654 78.9565 24.2909L78.6556 27.4283ZM72.5452 26.7799L69.4329 26.5707L69.6196 23.4333L72.7319 23.6529L72.5452 26.7799ZM44.763 26.4557L44.6281 23.3183L47.7404 23.2137L47.8338 26.3511L44.763 26.4557ZM66.4244 26.4557L63.3121 26.3407L63.4055 23.2032L66.5177 23.3183L66.4244 26.4557ZM50.946 26.2779V23.1405H54.0583V26.2779H50.946ZM60.2828 26.2779H57.1706V23.1405H60.2828V26.2779Z" fill="#365066"/>
<path d="M127.992 100.91C133.44 100.91 137.856 96.4943 137.856 91.047C137.856 85.5996 133.44 81.1836 127.992 81.1836C122.545 81.1836 118.129 85.5996 118.129 91.047C118.129 96.4943 122.545 100.91 127.992 100.91Z" fill="white"/>
<path d="M127.992 82.3672C129.709 82.3672 131.387 82.8763 132.815 83.83C134.242 84.7838 135.354 86.1393 136.011 87.7254C136.668 89.3114 136.84 91.0566 136.505 92.7403C136.17 94.424 135.344 95.9706 134.13 97.1845C132.916 98.3984 131.369 99.225 129.686 99.5599C128.002 99.8948 126.257 99.723 124.671 99.066C123.085 98.4091 121.729 97.2965 120.775 95.8692C119.822 94.4418 119.313 92.7637 119.313 91.047C119.313 88.7449 120.227 86.5372 121.855 84.9094C123.483 83.2817 125.69 82.3672 127.992 82.3672ZM127.992 80C125.807 80 123.672 80.6479 121.855 81.8617C120.038 83.0756 118.622 84.8009 117.786 86.8195C116.95 88.838 116.731 91.0592 117.158 93.2021C117.584 95.345 118.636 97.3134 120.181 98.8583C121.726 100.403 123.694 101.455 125.837 101.882C127.98 102.308 130.201 102.089 132.22 101.253C134.238 100.417 135.964 99.001 137.178 97.1843C138.391 95.3677 139.039 93.2318 139.039 91.047C139.039 88.1171 137.875 85.3073 135.804 83.2356C133.732 81.1639 130.922 80 127.992 80V80Z" fill="#365066"/>
<path d="M114.184 130.106V117.283C114.188 114.426 115.325 111.687 117.345 109.666C119.366 107.646 122.105 106.509 124.962 106.505H131.022C133.88 106.509 136.619 107.646 138.639 109.666C140.66 111.687 141.797 114.426 141.801 117.283V130.106H114.184Z" fill="white"/>
<path d="M131.022 107.688C133.566 107.691 136.006 108.702 137.805 110.501C139.604 112.3 140.615 114.739 140.617 117.284V128.922H115.367V117.284C115.369 114.739 116.381 112.3 118.18 110.501C119.979 108.702 122.418 107.691 124.962 107.688H131.022ZM131.022 105.321H124.962C121.79 105.321 118.747 106.582 116.504 108.825C114.26 111.068 113 114.111 113 117.284V131.29H142.985V117.284C142.985 114.111 141.724 111.068 139.481 108.825C137.238 106.582 134.195 105.321 131.022 105.321V105.321Z" fill="#365066"/>
<path d="M67.2393 41.759C67.2393 39.2413 69.0462 37.1901 71.2701 37.1901H93.787C96.0109 37.1901 97.8178 39.2413 97.8178 41.759V84.3967H67.2393V41.759ZM93.787 93.3884H71.2701C69.0462 93.3884 67.2393 91.3372 67.2393 88.8195V86.0826H97.8178V88.8195C97.8178 91.3372 96.0109 93.3884 93.787 93.3884Z" fill="white"/>
<path d="M90.3798 51.2396H73.8509V52.8925H90.3798V51.2396Z" fill="#50A7EF"/>
<path d="M90.3798 47.1074H73.8509V48.7603H90.3798V47.1074Z" fill="#50A7EF"/>
<path d="M82.1154 66.1157H73.8509V61.718V57.0248H82.1154V66.1157Z" fill="#50A7EF"/>
<path d="M92.8592 61.9835H83.7683V61.1846V60.3306H92.8592V61.9835Z" fill="#50A7EF"/>
<path d="M82.1154 77.6859H73.8509V68.595H82.1154V77.6859Z" fill="#CC7A00"/>
<path d="M92.8592 74.3802H83.7683V72.7273H92.8592V74.3802Z" fill="#CC7A00"/>
<path d="M99.4708 41.7852C99.4708 38.344 96.9211 35.5372 93.7771 35.5372H71.2802C68.1361 35.5372 65.5865 38.344 65.5865 41.7852V88.7934C65.5865 92.2346 68.1361 95.0414 71.2802 95.0414H93.7771C96.9211 95.0414 99.4708 92.2346 99.4708 88.7934V41.7852ZM67.2529 41.7852C67.2529 39.2703 69.0582 37.2213 71.2802 37.2213H93.7771C95.999 37.2213 97.8043 39.2703 97.8043 41.7852V84.3755H67.2529V41.7852ZM93.7771 93.3573H71.2802C69.0582 93.3573 67.2529 91.3083 67.2529 88.7934V86.0596H97.8043V88.7934C97.8043 91.3083 95.999 93.3573 93.7771 93.3573Z" fill="#365066"/>
<path d="M82.1154 92.5619C83.4847 92.5619 84.5947 91.4519 84.5947 90.0826C84.5947 88.7133 83.4847 87.6033 82.1154 87.6033C80.7461 87.6033 79.636 88.7133 79.636 90.0826C79.636 91.4519 80.7461 92.5619 82.1154 92.5619Z" fill="#365066"/>
<path d="M26.8182 9.48706L15 19.6169V36.5H38.6364V19.6169L26.8182 9.48706Z" fill="#2079D4"/>
</svg>
