<svg xmlns="http://www.w3.org/2000/svg" viewBox="0 0 176 176"><defs><style>.cls-1{fill:#365066;}.cls-2{fill:#CC7A00;}.cls-3{fill:#2079d4;}</style></defs><g id="linguagg_planning"><path class="cls-1" d="M134.74,39h-7.07V36.92A5.92,5.92,0,0,0,121.74,31H37.61a5.93,5.93,0,0,0-5.94,5.92V147.08A5.93,5.93,0,0,0,37.61,153h7.06v2.08A5.93,5.93,0,0,0,50.61,161h84.13a5.92,5.92,0,0,0,5.93-5.92V44.92A5.92,5.92,0,0,0,134.74,39ZM37.61,150a2.93,2.93,0,0,1-2.94-2.92V36.92A2.93,2.93,0,0,1,37.61,34h84.13a2.93,2.93,0,0,1,2.93,2.92V147.08a2.93,2.93,0,0,1-2.93,2.92Zm100.06,5.08a2.93,2.93,0,0,1-2.93,2.92H50.61a2.93,2.93,0,0,1-2.94-2.92V153h74.07a5.92,5.92,0,0,0,5.93-5.92V42h7.07a2.93,2.93,0,0,1,2.93,2.92Z"/><path class="cls-1" d="M101,21H90V18a3,3,0,0,0-3-3H72a3,3,0,0,0-3,3v3H59a3,3,0,0,0-3,3V38h48V24A3,3,0,0,0,101,21Z"/><path class="cls-1" d="M68.67,67V85h-18V67h18m3-3h-24V88h24V64Z"/><path class="cls-1" d="M68.67,101v18h-18V101h18m3-3h-24v24h24V98Z"/><rect class="cls-2" x="79.67" y="70" width="36.93" height="6"/><rect class="cls-3" x="79.67" y="82" width="25.94" height="6"/><rect class="cls-2" x="79.67" y="103.99" width="36.93" height="6"/><rect class="cls-3" x="79.65" y="115.99" width="26.92" height="6"/></g></svg>