<svg width="176" height="176" viewBox="0 0 176 176" fill="none" xmlns="http://www.w3.org/2000/svg">
<g clip-path="url(#clip0_1492_13867)">
<path d="M107.88 50.2981C108.193 49.5409 108.564 48.8093 108.99 48.11L111.562 49.6506C111.214 50.2333 110.905 50.839 110.638 51.4635L107.88 50.2981ZM110.917 45.4327C111.647 44.6127 112.452 43.8632 113.322 43.1939L115.144 45.578C114.425 46.1302 113.76 46.7488 113.157 47.4255L110.917 45.4327ZM116.116 41.4466C117.09 40.9747 118.108 40.597 119.154 40.3187L119.938 43.2153C119.068 43.4694 118.223 43.8047 117.414 44.2166L116.116 41.4466ZM122.664 42.6173L122.376 39.599C123.465 39.4954 124.561 39.4948 125.65 39.5974L125.357 42.594C124.453 42.5301 123.544 42.5533 122.645 42.6633L122.664 42.6173ZM128.049 43.1164L128.876 40.2359C129.911 40.558 130.914 40.977 131.871 41.4871L130.521 44.1667C129.724 43.7548 128.89 43.4186 128.03 43.1624L128.049 43.1164ZM132.878 45.5852L134.704 43.2107C135.574 43.8765 136.378 44.6236 137.106 45.4418L134.867 47.4339C134.262 46.758 133.596 46.1392 132.878 45.5852ZM136.486 49.6207L139.05 48.0738C139.615 49.0095 140.092 49.9954 140.475 51.019L137.645 52.075C137.326 51.2248 136.932 50.405 136.466 49.6255L136.486 49.6207ZM138.55 57.3513C138.573 56.4435 138.505 55.5357 138.348 54.6414L141.314 54.1389C141.493 55.2186 141.572 56.3126 141.55 57.4068L138.55 57.3513Z" fill="#365066"/>
<path d="M124.6 106H91.5C91.1022 106 90.7206 106.158 90.4393 106.439C90.158 106.721 90 107.102 90 107.5C90 107.898 90.158 108.279 90.4393 108.561C90.7206 108.842 91.1022 109 91.5 109H124.6" fill="#365066"/>
<path d="M88.6 138H55.5C55.1022 138 54.7206 138.158 54.4393 138.439C54.158 138.721 54 139.102 54 139.5C54 139.898 54.158 140.279 54.4393 140.561C54.7206 140.842 55.1022 141 55.5 141H88.6" fill="#365066"/>
<path d="M31 84L16 96.75V118H46V96.75L31 84Z" fill="#2079D4"/>
<path d="M141.55 66.8198C143.795 66.8198 145.989 67.4855 147.856 68.7326C149.722 69.9798 151.177 71.7524 152.036 73.8264C152.895 75.9003 153.12 78.1824 152.682 80.3841C152.244 82.5858 151.163 84.6082 149.576 86.1955C147.989 87.7828 145.966 88.8638 143.764 89.3017C141.563 89.7397 139.281 89.5149 137.207 88.6559C135.133 87.7968 133.36 86.342 132.113 84.4755C130.866 82.609 130.2 80.4146 130.2 78.1698C130.203 75.1604 131.4 72.2751 133.527 70.1471C135.655 68.0191 138.541 66.8225 141.55 66.8198M141.55 63.8198C138.712 63.8198 135.938 64.6614 133.578 66.2382C131.218 67.815 129.379 70.0562 128.293 72.6783C127.206 75.3004 126.922 78.1857 127.476 80.9694C128.03 83.753 129.396 86.3099 131.403 88.3168C133.41 90.3237 135.967 91.6904 138.751 92.2441C141.534 92.7978 144.42 92.5136 147.042 91.4275C149.664 90.3414 151.905 88.5021 153.482 86.1423C155.059 83.7824 155.9 81.008 155.9 78.1698C155.9 74.364 154.388 70.714 151.697 68.0228C149.006 65.3317 145.356 63.8198 141.55 63.8198V63.8198Z" fill="#365066"/>
<path d="M145.56 99C148.771 99.0027 151.85 100.279 154.12 102.55C156.391 104.82 157.667 107.899 157.67 111.11V126H126V111.12C126 107.907 127.276 104.826 129.546 102.553C131.817 100.281 134.897 99.0027 138.11 99H145.56ZM145.56 96H138.11C136.125 96 134.159 96.3912 132.325 97.1511C130.491 97.9111 128.825 99.025 127.422 100.429C126.019 101.833 124.906 103.5 124.147 105.335C123.389 107.169 122.999 109.135 123 111.12V129H160.67V111.12C160.673 109.135 160.284 107.168 159.525 105.333C158.767 103.498 157.654 101.831 156.251 100.426C154.847 99.0218 153.181 97.908 151.346 97.1485C149.512 96.3889 147.545 95.9987 145.56 96V96Z" fill="#365066"/>
<path d="M90 80.04V139.5C90 139.898 89.842 140.279 89.5607 140.561C89.2794 140.842 88.8978 141 88.5 141C88.1022 141 87.7206 140.842 87.4393 140.561C87.158 140.279 87 139.898 87 139.5V109.04L46 109.039V106.039L87 106.04V80.04C87 80.04 90 79.95 90 80.04Z" fill="#365066"/>
<path d="M88.34 89L66 107.42L88.42 125.8L109.23 107.32L88.34 89Z" fill="#50A7EF"/>
<path d="M110 82H66V62H110V82Z" fill="#2079D4"/>
<path d="M110 62H66V56H110V62Z" fill="#CC7A00"/>
<path d="M68 149H32V139.33V129H68V149Z" fill="#CC7A00"/>
<path d="M81.0088 51.79H62.0088V60L54.0088 51.79H43.0088C41.8488 51.79 41.0088 50.48 41.0088 49.06V30.55C40.9556 29.9347 41.1456 29.3231 41.5383 28.8463C41.9309 28.3696 42.4947 28.0657 43.1088 28H80.9088C81.5229 28.0657 82.0867 28.3696 82.4793 28.8463C82.8719 29.3231 83.062 29.9347 83.0088 30.55V49.06C83.0088 50.48 82.1688 51.79 81.0088 51.79Z" fill="#2079D4"/>
</g>
<defs>
<clipPath id="clip0_1492_13867">
<rect width="176" height="176" fill="none"/>
</clipPath>
</defs>
</svg>
