<svg width="160" height="160" viewBox="0 0 160 160" fill="none" xmlns="http://www.w3.org/2000/svg">
<g clip-path="url(#clip0_181_52626)">
<path d="M117.651 127.497C116.987 127.497 116.33 127.367 115.716 127.114C115.103 126.86 114.546 126.488 114.076 126.019L82.6538 94.5839L89.7896 87.4355L121.225 118.871C121.932 119.577 122.414 120.478 122.609 121.458C122.804 122.439 122.704 123.455 122.322 124.379C121.939 125.302 121.291 126.092 120.459 126.647C119.628 127.202 118.65 127.498 117.651 127.497V127.497Z" fill="white"/>
<path d="M89.7896 90.1257L119.886 120.209C120.479 120.802 120.812 121.606 120.812 122.445C120.812 123.283 120.479 124.087 119.886 124.68C119.293 125.273 118.489 125.606 117.651 125.606C116.812 125.606 116.008 125.273 115.415 124.68L85.3313 94.5839L89.7896 90.1257ZM89.7896 84.7581L79.9637 94.5839L112.801 127.421C113.446 128.066 114.212 128.578 115.055 128.927C115.898 129.276 116.801 129.456 117.714 129.456C118.626 129.456 119.53 129.276 120.373 128.927C121.216 128.578 121.981 128.066 122.627 127.421C123.272 126.776 123.784 126.01 124.133 125.167C124.482 124.324 124.662 123.42 124.662 122.508C124.662 121.596 124.482 120.692 124.133 119.849C123.784 119.006 123.272 118.24 122.627 117.595L89.7896 84.7581Z" fill="#365066"/>
<path d="M63.2047 107.188C52.4132 107.192 42.0298 103.064 34.1872 95.6512C26.3445 88.2384 21.638 78.1039 21.0344 67.3292C21.0344 66.5209 20.9586 65.7126 20.9586 64.917C20.9586 56.549 23.44 48.3689 28.089 41.4112C32.738 34.4535 39.3458 29.0306 47.0768 25.8283C54.8078 22.626 63.3148 21.7881 71.522 23.4206C79.7292 25.0532 87.268 29.0827 93.1851 34.9998C99.1021 40.9169 103.132 48.4556 104.764 56.6628C106.397 64.87 105.559 73.377 102.357 81.108C99.1543 88.8391 93.7314 95.4469 86.7737 100.096C79.8159 104.745 71.6359 107.226 63.2679 107.226L63.2047 107.188Z" fill="white"/>
<path d="M63.2037 24.4642C70.7998 24.4662 78.2415 26.6089 84.6756 30.6466C91.1097 34.6843 96.2756 40.4535 99.581 47.2927C102.886 54.1319 104.197 61.7642 103.364 69.3144C102.53 76.8646 99.5856 84.027 94.8677 89.9803C90.1499 95.9337 83.8497 100.437 76.6898 102.974C69.5298 105.51 61.7999 105.978 54.3863 104.323C46.9728 102.667 40.1758 98.9564 34.7748 93.6151C29.3738 88.2739 25.5874 81.5186 23.8498 74.1239C23.3198 71.8369 22.986 69.5088 22.852 67.165C22.852 66.4199 22.852 65.6368 22.852 64.879C22.852 54.1603 27.11 43.8807 34.6893 36.3014C42.2685 28.7222 52.5482 24.4642 63.2669 24.4642H63.2037ZM63.2037 20.6753C51.4802 20.6753 40.2368 25.3325 31.947 33.6223C23.6572 41.9121 19 53.1555 19 64.879C19 65.7126 19 66.5588 19.0758 67.405C19.5692 76.0261 22.577 84.3139 27.7275 91.2449C32.8781 98.1759 39.946 103.447 48.0583 106.406C56.1706 109.365 64.972 109.884 73.3757 107.897C81.7793 105.911 89.4172 101.507 95.3459 95.2283C101.275 88.95 105.235 81.0727 106.737 72.5691C108.239 64.0656 107.218 55.3082 103.799 47.3786C100.38 39.4489 94.714 32.6942 87.4997 27.9487C80.2853 23.2032 71.839 20.6746 63.2037 20.6753V20.6753Z" fill="#365066"/>
<path d="M62.7116 59.9281C69.6868 59.9281 75.3413 54.2736 75.3413 47.2985C75.3413 40.3233 69.6868 34.6688 62.7116 34.6688C55.7365 34.6688 50.082 40.3233 50.082 47.2985C50.082 54.2736 55.7365 59.9281 62.7116 59.9281Z" fill="#50A7EF"/>
<path d="M79.1302 94.0282H46.2931V77.2434C46.2914 75.4666 46.6402 73.707 47.3193 72.0651C47.9985 70.4233 48.9948 68.9315 50.2512 67.6751C51.5075 66.4188 52.9993 65.4225 54.6412 64.7433C56.283 64.0641 58.0427 63.7154 59.8194 63.717H65.6038C67.3806 63.7154 69.1403 64.0641 70.7821 64.7433C72.4239 65.4225 73.9157 66.4188 75.1721 67.6751C76.4285 68.9315 77.4247 70.4233 78.1039 72.0651C78.7831 73.707 79.1318 75.4666 79.1302 77.2434V94.0282Z" fill="#50A7EF"/>
<path d="M152 8H114V37H152V8Z" fill="#2079D4"/>
<path d="M150 57H122V79H150V57Z" fill="#CC7A00"/>
<path d="M60 123H32V145H60V123Z" fill="#50A7EF"/>
<path d="M107 68.5H122" stroke="#365066" stroke-width="4"/>
<path d="M91 33L101 23" stroke="#365066" stroke-width="4" stroke-linecap="round"/>
<path d="M101 21C99.8954 21 99 21.8954 99 23C99 24.1046 99.8954 25 101 25V21ZM101 25H114V21H101V25Z" fill="#365066"/>
<line x1="78" y1="104" x2="78" y2="136" stroke="#365066" stroke-width="4"/>
<line x1="60" y1="134" x2="80" y2="134" stroke="#365066" stroke-width="4"/>
<path d="M145 13H119V17H145V13Z" fill="#80B9F2"/>
<path d="M137 20H119V24H137V20Z" fill="#80B9F2"/>
<path d="M50 134.27L42 129V139.54L50 134.27Z" fill="white"/>
</g>
<defs>
<clipPath id="clip0_181_52626">
<rect width="160" height="160" fill="white"/>
</clipPath>
</defs>
</svg>
