<svg xmlns="http://www.w3.org/2000/svg" viewBox="0 0 160 160"><defs><style>.cls-1{fill:#f0f6fc;}.cls-2{fill:#fff;}.cls-3{fill:#365066;}.cls-4{fill:#50a7ef;}.cls-5{fill:#CC7A00;}.cls-6{fill:#80b9f2;}.cls-7{fill:#2079d4;}.cls-8{fill:none;}</style></defs><g id="privacy__launch" data-name="privacy _launch"><path class="cls-1" d="M79,150A70,70,0,1,0,9,80,70,70,0,0,0,79,150Z"/><rect class="cls-2" x="16.5" y="45.5" width="127" height="81" rx="1.85"/><circle class="cls-3" cx="24" cy="53" r="2"/><circle class="cls-3" cx="31" cy="53" r="2"/><circle class="cls-3" cx="38" cy="53" r="2"/><path class="cls-3" d="M141.65,44H18.35A3.35,3.35,0,0,0,15,47.35v77.3A3.35,3.35,0,0,0,18.35,128h123.3a3.35,3.35,0,0,0,3.35-3.35V47.35A3.35,3.35,0,0,0,141.65,44ZM18.35,47h123.3a.35.35,0,0,1,.35.35V58H18V47.35A.35.35,0,0,1,18.35,47Zm123.3,78H18.35a.35.35,0,0,1-.35-.35V61H142v63.65A.35.35,0,0,1,141.65,125Z"/><path class="cls-2" d="M87.66,92.44l-4.46-41L98.05,34.07a2.36,2.36,0,0,1,3.59,0l14.9,17.38-5,41.05Z"/><rect class="cls-4" x="92" y="105" width="3" height="28"/><rect class="cls-4" x="98" y="105" width="3" height="28"/><rect class="cls-4" x="104" y="105" width="3" height="28"/><circle class="cls-5" cx="100" cy="66" r="6"/><path class="cls-3" d="M116.31,65.63l1.57-12.76.23-1.9-.38-.43-15-17.44a3.85,3.85,0,0,0-5.87,0L82,50.45l-.39.46.21,2,1.27,11.7L69,99h4.34L85.51,86.55l.8,7.39h2.52L91.1,102h17l2.45-8h2.23l.89-7.22,12,12.22H130ZM105.92,99H93.37L92,94h15.49ZM99.19,35.05a.87.87,0,0,1,.66-.31.85.85,0,0,1,.65.31l11.91,13.88H87.28ZM74.48,93.54l9-21.83,1.4,11.23Zm38.29-23.71L111,84l0,0-.86,7L89,90.94l-4.16-38.4-.07-.61H115l-.07.57ZM114.18,83l1.38-11.25,9,21.83Z"/><path class="cls-6" d="M49,97H46.32V93.57a7.33,7.33,0,0,0-14.64,0V97H29V93.57A9.8,9.8,0,0,1,39,84a9.8,9.8,0,0,1,10,9.57Z"/><path class="cls-7" d="M51.55,115H26.45a.45.45,0,0,1-.45-.45V97.45a.45.45,0,0,1,.45-.45h25.1a.45.45,0,0,1,.45.45v17.1A.45.45,0,0,1,51.55,115ZM41.43,103.62a2.37,2.37,0,1,0-4.06,1.67,2.37,2.37,0,1,0,3.38,0A2.38,2.38,0,0,0,41.43,103.62Z"/><rect class="cls-8" width="160" height="160"/></g></svg>