<svg width="160" height="160" viewBox="0 0 160 160" fill="none" xmlns="http://www.w3.org/2000/svg">
<g clip-path="url(#clip0_40002010_41497)">
<path d="M79 150C92.8447 150 106.378 145.895 117.89 138.203C129.401 130.511 138.373 119.579 143.672 106.788C148.97 93.997 150.356 79.9224 147.655 66.3437C144.954 52.765 138.287 40.2922 128.497 30.5026C118.708 20.7129 106.235 14.046 92.6563 11.3451C79.0777 8.6441 65.003 10.0303 52.2122 15.3285C39.4213 20.6266 28.4888 29.5987 20.7971 41.1101C13.1054 52.6216 9 66.1553 9 80C9 98.5652 16.375 116.37 29.5025 129.498C42.6301 142.625 60.4348 150 79 150V150Z" fill="#F0F6FC"/>
<path d="M98.9029 30.9688H19.0471C18.4515 30.9688 17.9686 31.4516 17.9686 32.0472V82.1976C17.9686 82.7932 18.4515 83.2761 19.0471 83.2761H98.9029C99.4985 83.2761 99.9813 82.7932 99.9813 82.1976V32.0472C99.9813 31.4516 99.4985 30.9688 98.9029 30.9688Z" fill="white"/>
<path d="M22.1339 37.1036C22.8472 37.1036 23.4254 36.5253 23.4254 35.812C23.4254 35.0987 22.8472 34.5205 22.1339 34.5205C21.4206 34.5205 20.8423 35.0987 20.8423 35.812C20.8423 36.5253 21.4206 37.1036 22.1339 37.1036Z" fill="#365066"/>
<path d="M26.6543 37.1036C27.3676 37.1036 27.9458 36.5253 27.9458 35.812C27.9458 35.0987 27.3676 34.5205 26.6543 34.5205C25.941 34.5205 25.3627 35.0987 25.3627 35.812C25.3627 36.5253 25.941 37.1036 26.6543 37.1036Z" fill="#365066"/>
<path d="M31.1747 37.1036C31.888 37.1036 32.4662 36.5253 32.4662 35.812C32.4662 35.0987 31.888 34.5205 31.1747 34.5205C30.4614 34.5205 29.8831 35.0987 29.8831 35.812C29.8831 36.5253 30.4614 37.1036 31.1747 37.1036Z" fill="#365066"/>
<path d="M98.9029 30H19.0535C18.7842 29.9992 18.5173 30.0515 18.2682 30.154C18.0191 30.2565 17.7926 30.4071 17.6019 30.5973C17.4111 30.7875 17.2597 31.0134 17.1564 31.2622C17.0532 31.511 17 31.7777 17 32.0471V82.1975C17 82.4669 17.0532 82.7336 17.1564 82.9824C17.2597 83.2312 17.4111 83.4572 17.6019 83.6473C17.7926 83.8375 18.0191 83.9882 18.2682 84.0907C18.5173 84.1932 18.7842 84.2455 19.0535 84.2446H98.9029C99.4458 84.2446 99.9665 84.029 100.35 83.6451C100.734 83.2612 100.95 82.7405 100.95 82.1975V32.0471C100.95 31.5042 100.734 30.9835 100.35 30.5996C99.9665 30.2157 99.4458 30 98.9029 30V30ZM19.0535 31.9373H98.9029C98.9315 31.9389 98.9586 31.9509 98.9788 31.9712C98.9991 31.9915 99.0112 32.0185 99.0127 32.0471V39.6866H18.9373V32.0471C18.939 32.0174 18.9519 31.9895 18.9736 31.969C18.9952 31.9486 19.0238 31.9373 19.0535 31.9373V31.9373ZM98.9029 82.3073H19.0535C19.0238 82.3074 18.9952 82.296 18.9736 82.2756C18.9519 82.2552 18.939 82.2272 18.9373 82.1975V41.6239H99.0127V82.1975C99.0112 82.2262 98.9991 82.2532 98.9788 82.2735C98.9586 82.2937 98.9315 82.3058 98.9029 82.3073V82.3073Z" fill="#365066"/>
<path d="M88.2784 130C87.4924 130 86.6304 130 85.743 129.957L85.8021 127.405C86.7064 127.405 87.5431 127.405 88.3376 127.448L88.2784 130ZM90.8138 130L90.7716 127.448C91.9548 127.448 92.8168 127.388 93.307 127.371L93.4253 129.923C92.952 129.923 92.0646 129.957 90.8476 129.983L90.8138 130ZM83.1146 129.881C82.2694 129.838 81.4243 129.796 80.5792 129.736L80.7482 127.184C81.5933 127.244 82.4385 127.295 83.2836 127.329L83.1146 129.881ZM77.9846 129.524C77.1394 129.447 76.2943 129.362 75.4492 129.26L75.745 126.708C76.5901 126.81 77.4352 126.895 78.2804 126.972L77.9846 129.524ZM72.9137 128.92C72.0686 128.801 71.2235 128.664 70.3783 128.511L70.8178 126.002C71.6629 126.146 72.5081 126.282 73.2856 126.402L72.9137 128.92ZM67.8429 128.018C66.9978 127.839 66.1526 127.652 65.3075 127.439L65.9244 124.964C66.7696 125.168 67.5386 125.355 68.35 125.525L67.8429 128.018ZM62.8228 126.742C61.9776 126.487 61.1325 126.206 60.3465 125.891L61.1916 123.484C61.9438 123.756 62.7298 124.02 63.5411 124.266L62.8228 126.742ZM57.8956 124.947C57.0505 124.59 56.2645 124.207 55.5208 123.807L56.6786 121.544C57.3716 121.91 58.1153 122.259 58.8844 122.599L57.8956 124.947ZM53.2304 122.463C52.4801 121.974 51.7577 121.443 51.0669 120.872L52.6811 118.898C53.2966 119.408 53.9399 119.882 54.608 120.319L53.2304 122.463ZM49.0723 118.992C48.4505 118.317 47.8851 117.591 47.3821 116.823L49.5034 115.427C49.942 116.088 50.4339 116.711 50.9739 117.291L49.0723 118.992ZM46.1059 114.373C45.7432 113.522 45.4602 112.639 45.2607 111.735L47.737 111.191C47.9027 111.945 48.1346 112.682 48.43 113.394L46.1059 114.373ZM44.9311 109.013C44.9311 108.735 44.9311 108.452 44.9311 108.162C44.9317 107.529 44.9655 106.896 45.0326 106.265L47.568 106.521C47.5173 107.074 47.4835 107.627 47.4835 108.162C47.4835 108.401 47.4835 108.639 47.4835 108.877L44.9311 109.013ZM47.9483 104.292L45.5312 103.518C45.8205 102.627 46.2059 101.771 46.6806 100.966L48.861 102.267C48.4979 102.906 48.2033 103.582 47.9821 104.283L47.9483 104.292ZM50.2133 100.396L48.3117 98.6942C48.9094 98.0121 49.5532 97.3726 50.2386 96.7801L51.9289 98.7112C51.3311 99.2307 50.7692 99.7906 50.2471 100.387L50.2133 100.396ZM53.7882 97.248L52.3684 95.1723C53.0445 94.6959 53.7882 94.2195 54.5742 93.7431L55.8757 95.9294C55.1404 96.3462 54.4474 96.7971 53.822 97.2395L53.7882 97.248ZM58.0139 94.6959L56.8307 92.4415C57.5829 92.0417 58.352 91.6504 59.1464 91.2675L60.2451 93.5729C59.4957 93.9359 58.7576 94.3074 58.0308 94.6874L58.0139 94.6959ZM62.5185 92.5181L61.4874 90.1872C62.2565 89.8384 63.0425 89.4981 63.8369 89.1578L64.8257 91.5142C64.0651 91.8375 63.2876 92.1693 62.5354 92.5096L62.5185 92.5181ZM67.1583 90.5359L66.2033 88.1795L68.5613 87.2182L69.5078 89.5832L67.1583 90.5359ZM71.8911 88.6219L70.9446 86.2569L73.2856 85.2956L74.2491 87.6521L71.8911 88.6219ZM76.6155 86.6652L75.6097 84.3173C76.3957 83.977 77.1563 83.6453 77.917 83.2965L78.965 85.6189C78.1874 85.9762 77.4014 86.3165 76.607 86.6652H76.6155ZM81.2975 84.513L80.1735 82.2246C80.951 81.8333 81.6947 81.4504 82.3709 81.0676L83.5963 83.305C82.8779 83.7048 82.1004 84.1131 81.2891 84.513H81.2975ZM85.8528 81.9609L84.4922 79.8001C85.2105 79.3407 85.8782 78.8728 86.4867 78.4134L88.0249 80.4381C87.3572 80.957 86.6219 81.4675 85.8444 81.9694L85.8528 81.9609ZM90.0786 78.6686L88.3038 76.8481C88.8521 76.3065 89.3553 75.7204 89.8081 75.0957L91.8702 76.5759C91.3258 77.3277 90.7178 78.0307 90.0532 78.6772L90.0786 78.6686ZM93.2394 74.1174L90.8983 73.1391C91.1772 72.4635 91.3676 71.7543 91.4646 71.0293L94 71.3696C93.8568 72.3186 93.5927 73.245 93.214 74.1259L93.2394 74.1174ZM91.4646 68.8005C91.3719 68.036 91.2107 67.2814 90.9828 66.5461L93.4084 65.789C93.6794 66.6834 93.8717 67.6 93.9831 68.5283L91.4646 68.8005ZM90.1039 64.4534C89.7275 63.7969 89.2888 63.1787 88.7939 62.6074L90.7039 60.906C91.3155 61.6085 91.8536 62.3725 92.3097 63.1859L90.1039 64.4534ZM87.1037 60.9826C86.4952 60.4757 85.8543 60.0097 85.1852 59.5874L86.5374 57.4266C87.2953 57.9093 88.0234 58.4377 88.7179 59.0089L87.1037 60.9826ZM83.0808 58.4305C82.3962 58.0817 81.644 57.7414 80.8581 57.4181L81.8215 55.0532C82.6667 55.402 83.5118 55.7678 84.2217 56.1506L83.0808 58.4305ZM78.5593 56.5589C77.8071 56.3037 77.0127 56.057 76.1929 55.8188L76.8859 53.3688C77.731 53.607 78.5762 53.8707 79.3706 54.1429L78.5593 56.5589ZM73.8096 55.1893C73.0152 55.0021 72.1954 54.8235 71.3756 54.6533L71.8742 52.1523C72.7194 52.3309 73.5645 52.5096 74.4096 52.7137L73.8096 55.1893ZM68.9162 54.2025C68.0711 54.0578 67.2767 53.9302 66.44 53.8111L66.7949 51.259C67.6401 51.3866 68.4852 51.5142 69.3303 51.6589L68.9162 54.2025ZM63.9553 53.4879C63.1101 53.3858 62.265 53.3007 61.4198 53.2157L61.6649 50.6635C62.5101 50.7401 63.3552 50.8337 64.2003 50.9358L63.9553 53.4879ZM26.2535 53.3177L26 50.7656C26 50.7656 26.9297 50.6721 28.5354 50.553L28.7298 53.1051C27.1409 53.2242 26.2535 53.3177 26.2535 53.3177ZM58.9774 52.9604L56.442 52.7903L56.5941 50.2382L59.1295 50.4168L58.9774 52.9604ZM31.2737 52.9604L31.1131 50.4083L33.6485 50.2552L33.7837 52.8073L31.2737 52.9604ZM36.3445 52.6967L36.2346 50.1446L38.7701 50.0595L38.8461 52.6117L36.3445 52.6967ZM53.991 52.6967L51.4556 52.6031L51.5317 50.051L54.0671 50.1446L53.991 52.6967ZM41.3816 52.5521V50H43.917V52.5521H41.3816ZM48.9878 52.5521H46.4524V50H48.9878V52.5521Z" fill="#365066"/>
<path d="M140.903 61.9688H61.0471C60.4515 61.9688 59.9686 62.4516 59.9686 63.0472V113.198C59.9686 113.793 60.4515 114.276 61.0471 114.276H140.903C141.498 114.276 141.981 113.793 141.981 113.198V63.0472C141.981 62.4516 141.498 61.9688 140.903 61.9688Z" fill="white"/>
<path d="M64.1339 68.1036C64.8472 68.1036 65.4254 67.5253 65.4254 66.812C65.4254 66.0987 64.8472 65.5205 64.1339 65.5205C63.4206 65.5205 62.8423 66.0987 62.8423 66.812C62.8423 67.5253 63.4206 68.1036 64.1339 68.1036Z" fill="#365066"/>
<path d="M68.6543 68.1036C69.3676 68.1036 69.9458 67.5253 69.9458 66.812C69.9458 66.0987 69.3676 65.5205 68.6543 65.5205C67.941 65.5205 67.3627 66.0987 67.3627 66.812C67.3627 67.5253 67.941 68.1036 68.6543 68.1036Z" fill="#365066"/>
<path d="M73.1747 68.1036C73.888 68.1036 74.4662 67.5253 74.4662 66.812C74.4662 66.0987 73.888 65.5205 73.1747 65.5205C72.4614 65.5205 71.8831 66.0987 71.8831 66.812C71.8831 67.5253 72.4614 68.1036 73.1747 68.1036Z" fill="#365066"/>
<path d="M140.903 61H61.0535C60.7842 60.9992 60.5173 61.0515 60.2682 61.154C60.0191 61.2565 59.7926 61.4071 59.6019 61.5973C59.4111 61.7875 59.2597 62.0134 59.1564 62.2622C59.0532 62.511 59 62.7777 59 63.0471V113.198C59 113.467 59.0532 113.734 59.1564 113.982C59.2597 114.231 59.4111 114.457 59.6019 114.647C59.7926 114.838 60.0191 114.988 60.2682 115.091C60.5173 115.193 60.7842 115.245 61.0535 115.245H140.903C141.446 115.245 141.967 115.029 142.35 114.645C142.734 114.261 142.95 113.74 142.95 113.198V63.0471C142.95 62.5042 142.734 61.9835 142.35 61.5996C141.967 61.2157 141.446 61 140.903 61V61ZM61.0535 62.9373H140.903C140.932 62.9389 140.959 62.9509 140.979 62.9712C140.999 62.9915 141.011 63.0185 141.013 63.0471V70.6866H60.9373V63.0471C60.939 63.0174 60.9519 62.9895 60.9736 62.969C60.9952 62.9486 61.0238 62.9373 61.0535 62.9373V62.9373ZM140.903 113.307H61.0535C61.0238 113.307 60.9952 113.296 60.9736 113.276C60.9519 113.255 60.939 113.227 60.9373 113.198V72.6239H141.013V113.198C141.011 113.226 140.999 113.253 140.979 113.273C140.959 113.294 140.932 113.306 140.903 113.307V113.307Z" fill="#365066"/>
<path d="M115 97.5C115 93.3891 113.367 89.4467 110.46 86.5398C107.553 83.633 103.611 82 99.5 82C95.3892 82 91.4467 83.633 88.5398 86.5398C85.633 89.4467 84 93.3891 84 97.5C84.0103 98.5085 84.1209 99.5134 84.33 100.5V100.5V100.61C84.33 100.73 84.33 100.84 84.39 100.96C84.6705 102.196 85.1039 103.391 85.68 104.52L85.79 104.75L86.47 105.9L86.7 106.23L99.49 127.76L112.25 106.28V106.2L112.45 105.92L113.13 104.77L113.27 104.49C113.802 103.417 114.208 102.286 114.48 101.12C114.48 101 114.48 100.87 114.54 100.76V100.69C114.806 99.6459 114.96 98.5766 115 97.5V97.5ZM99.47 104.91C98.0495 104.91 96.6609 104.489 95.48 103.699C94.299 102.91 93.3787 101.788 92.8356 100.475C92.2925 99.1628 92.1508 97.7186 92.4287 96.3256C92.7066 94.9325 93.3914 93.6532 94.3965 92.6494C95.4017 91.6457 96.6819 90.9627 98.0754 90.6867C99.4688 90.4108 100.913 90.5544 102.225 91.0994C103.536 91.6444 104.657 92.5662 105.445 93.7483C106.233 94.9304 106.652 96.3195 106.65 97.74C106.65 98.6824 106.464 99.6156 106.103 100.486C105.742 101.357 105.213 102.148 104.546 102.813C103.88 103.479 103.088 104.007 102.217 104.367C101.346 104.727 100.412 104.911 99.47 104.91V104.91Z" fill="#2079D4"/>
</g>
<defs>
<clipPath id="clip0_40002010_41497">
<rect width="160" height="160" fill="white"/>
</clipPath>
</defs>
</svg>
