<svg width="160" height="160" viewBox="0 0 160 160" fill="none" xmlns="http://www.w3.org/2000/svg">
<g clip-path="url(#clip0_316_20759)">
<path d="M79 150C92.8447 150 106.378 145.895 117.89 138.203C129.401 130.511 138.373 119.579 143.672 106.788C148.97 93.997 150.356 79.9224 147.655 66.3437C144.954 52.765 138.287 40.2922 128.497 30.5026C118.708 20.7129 106.235 14.046 92.6563 11.3451C79.0777 8.6441 65.003 10.0303 52.2122 15.3285C39.4213 20.6266 28.4888 29.5987 20.7971 41.1101C13.1054 52.6216 9 66.1553 9 80C9 98.5652 16.375 116.37 29.5025 129.498C42.6301 142.625 60.4348 150 79 150Z" fill="#F0F6FC"/>
<path d="M80.998 40C80.998 39.1716 80.3265 38.5 79.498 38.5C78.6696 38.5 77.998 39.1716 77.998 40L80.998 40ZM77.998 43.2021L77.998 44.7021L80.998 44.7021L80.998 43.2021L77.998 43.2021ZM77.998 40L77.998 43.2021L80.998 43.2021L80.998 40L77.998 40Z" fill="#365066"/>
<path fill-rule="evenodd" clip-rule="evenodd" d="M78.4189 110.981C77.5402 110.987 76.8299 111.702 76.8299 112.582L76.8299 122.188C76.8299 123.073 77.5467 123.789 78.431 123.789C79.3152 123.789 80.0321 123.073 80.0321 122.188V112.582C80.0321 111.702 79.3217 110.987 78.443 110.981H78.4189ZM87.4374 112.146C87.0637 111.345 86.1111 110.998 85.3097 111.372C84.5083 111.745 84.1616 112.698 84.5353 113.499L90.3995 126.075C90.7732 126.877 91.7258 127.223 92.5272 126.85C93.3286 126.476 93.6754 125.523 93.3017 124.722L87.4374 112.146ZM62.5635 124.722C62.1898 125.523 62.5365 126.476 63.3379 126.85C64.1393 127.223 65.0919 126.877 65.4656 126.075L71.3298 113.499C71.7035 112.698 71.3568 111.745 70.5554 111.372C69.754 110.998 68.8014 111.345 68.4277 112.146L62.5635 124.722Z" fill="#365066"/>
<path d="M32 44.8032H123.795V105.649C123.795 110.068 120.213 113.649 115.795 113.649H40C35.5817 113.649 32 110.068 32 105.649V44.8032Z" fill="#2079D4"/>
<path d="M33.5 46.3032H122.295V105.649C122.295 109.239 119.385 112.149 115.795 112.149H40C36.4101 112.149 33.5 109.239 33.5 105.649V46.3032Z" fill="white" stroke="#365066" stroke-width="3"/>
<path d="M49.5 88C51.9853 88 54 85.9853 54 83.5C54 81.0147 51.9853 79 49.5 79C47.0147 79 45 81.0147 45 83.5C45 85.9853 47.0147 88 49.5 88Z" fill="#50A7EF"/>
<path d="M65.5 88C67.9853 88 70 85.9853 70 83.5C70 81.0147 67.9853 79 65.5 79C63.0147 79 61 81.0147 61 83.5C61 85.9853 63.0147 88 65.5 88Z" fill="#50A7EF"/>
<path d="M81.5 88C83.9853 88 86 85.9853 86 83.5C86 81.0147 83.9853 79 81.5 79C79.0147 79 77 81.0147 77 83.5C77 85.9853 79.0147 88 81.5 88Z" fill="#50A7EF"/>
<path d="M56 101H43V95.0467C43 93.709 43.5487 92.4261 44.5255 91.4798C45.5023 90.5334 46.8273 90.0012 48.2093 90H50.7907C52.1727 90.0012 53.4977 90.5334 54.4745 91.4798C55.4513 92.4261 56 93.709 56 95.0467V101Z" fill="#50A7EF"/>
<path d="M72 101H59V95.0467C59 93.709 59.5487 92.4261 60.5255 91.4798C61.5023 90.5334 62.8273 90.0012 64.2093 90H66.7907C68.1727 90.0012 69.4977 90.5334 70.4745 91.4798C71.4513 92.4261 72 93.709 72 95.0467V101Z" fill="#50A7EF"/>
<path d="M88 101H75V95.0467C75 93.709 75.5487 92.4261 76.5255 91.4798C77.5023 90.5334 78.8273 90.0012 80.2093 90H82.7907C84.1727 90.0012 85.4977 90.5334 86.4745 91.4798C87.4513 92.4261 88 93.709 88 95.0467V101Z" fill="#50A7EF"/>
<path d="M113.728 100C113.43 100 113.134 99.9417 112.859 99.8278C112.583 99.7139 112.333 99.5468 112.122 99.3361L98 85.2119L101.207 82L115.334 96.1242C115.652 96.4417 115.869 96.8463 115.956 97.2868C116.044 97.7274 115.999 98.184 115.827 98.599C115.655 99.014 115.364 99.3686 114.99 99.618C114.616 99.8674 114.177 100 113.728 100V100Z" fill="white"/>
<path d="M101.397 83.4017L114.863 96.8627C115.128 97.1279 115.277 97.4877 115.277 97.8629C115.277 98.2381 115.128 98.5979 114.863 98.8632C114.598 99.1284 114.238 99.2775 113.863 99.2775C113.488 99.2775 113.128 99.1284 112.863 98.8632L99.4017 85.3966L101.397 83.4017ZM101.397 81L97 85.3966L111.693 100.089C111.982 100.378 112.324 100.607 112.701 100.763C113.079 100.92 113.483 101 113.891 101C114.299 101 114.704 100.92 115.081 100.763C115.458 100.607 115.801 100.378 116.089 100.089C116.378 99.8008 116.607 99.458 116.763 99.0809C116.92 98.7037 117 98.2994 117 97.8912C117 97.4829 116.92 97.0786 116.763 96.7015C116.607 96.3243 116.378 95.9816 116.089 95.6929L101.397 81Z" fill="#365066"/>
<path d="M89.9716 90.9834C85.1254 90.9852 80.4625 89.18 76.9406 85.9387C73.4187 82.6974 71.3051 78.2661 71.034 73.5548C71.034 73.2013 71 72.8479 71 72.5C71 68.841 72.1143 65.2643 74.2021 62.222C76.2898 59.1796 79.2572 56.8085 82.729 55.4082C86.2008 54.008 90.0211 53.6417 93.7067 54.3555C97.3924 55.0693 100.778 56.8313 103.435 59.4185C106.092 62.0058 107.902 65.3022 108.635 68.8908C109.368 72.4795 108.992 76.1992 107.554 79.5796C106.116 82.9601 103.68 85.8494 100.556 87.8822C97.4313 89.915 93.7578 91 90 91L89.9716 90.9834Z" fill="white"/>
<path d="M89.4992 54.6714C92.85 54.6723 96.1327 55.6175 98.9709 57.3987C101.809 59.1799 104.088 61.725 105.546 64.742C107.004 67.759 107.582 71.1259 107.215 74.4566C106.847 77.7873 105.548 80.9469 103.467 83.5732C101.386 86.1994 98.6066 88.186 95.4482 89.305C92.2898 90.4241 88.8799 90.6303 85.6097 89.9001C82.3394 89.1699 79.3411 87.5329 76.9586 85.1766C74.5761 82.8204 72.9058 79.8404 72.1393 76.5783C71.9055 75.5694 71.7583 74.5424 71.6992 73.5084C71.6992 73.1797 71.6992 72.8343 71.6992 72.5C71.6992 67.7716 73.5775 63.2368 76.9209 59.8933C80.2642 56.5498 84.7988 54.6714 89.5271 54.6714H89.4992ZM89.4992 53C84.3277 53 79.368 55.0545 75.7112 58.7114C72.0544 62.3684 70 67.3283 70 72.5C70 72.8677 70 73.241 70.0334 73.6143C70.2511 77.4174 71.5779 81.0735 73.8499 84.131C76.1219 87.1885 79.2397 89.5136 82.8182 90.8191C86.3967 92.1246 90.2792 92.3533 93.9863 91.4771C97.6933 90.6008 101.063 88.6579 103.678 85.8883C106.293 83.1187 108.04 79.6437 108.703 75.8924C109.365 72.1412 108.915 68.2779 107.407 64.7799C105.899 61.2818 103.399 58.302 100.217 56.2086C97.0343 54.1151 93.3084 52.9997 89.4992 53V53Z" fill="#365066"/>
<path d="M89.5 70C92.5376 70 95 67.5376 95 64.5C95 61.4624 92.5376 59 89.5 59C86.4624 59 84 61.4624 84 64.5C84 67.5376 86.4624 70 89.5 70Z" fill="#50A7EF"/>
<path d="M97 85H82V77.8013C81.9992 77.0392 82.1585 76.2845 82.4688 75.5804C82.779 74.8762 83.2341 74.2364 83.808 73.6976C84.382 73.1587 85.0634 72.7314 85.8134 72.4401C86.5634 72.1489 87.3672 71.9993 88.1788 72H90.8212C91.6328 71.9993 92.4366 72.1489 93.1866 72.4401C93.9366 72.7314 94.618 73.1587 95.192 73.6976C95.7659 74.2364 96.221 74.8762 96.5312 75.5804C96.8415 76.2845 97.0008 77.0392 97 77.8013V85Z" fill="#50A7EF"/>
</g>
<defs>
<clipPath id="clip0_316_20759">
<rect width="160" height="160" fill="white"/>
</clipPath>
</defs>
</svg>
