<svg width="160" height="160" viewBox="0 0 160 160" fill="none" xmlns="http://www.w3.org/2000/svg">
<path d="M79 150C92.8447 150 106.378 145.895 117.89 138.203C129.401 130.511 138.373 119.579 143.672 106.788C148.97 93.997 150.356 79.9223 147.655 66.3437C144.954 52.765 138.287 40.2922 128.497 30.5025C118.708 20.7128 106.235 14.046 92.6563 11.345C79.0777 8.64407 65.003 10.0303 52.2122 15.3284C39.4213 20.6266 28.4888 29.5986 20.7971 41.1101C13.1054 52.6215 9 66.1553 9 80C9 98.5652 16.375 116.37 29.5025 129.497C42.6301 142.625 60.4348 150 79 150V150Z" fill="#F0F6FC"/>
<path d="M79 144V140.952C80.0159 140.952 81.0318 140.952 81.9562 140.891L82.0984 143.939C81.0318 144 80.0159 144 79 144ZM76.2165 143.939C75.2006 143.939 74.1848 143.827 73.1689 143.736L73.4432 140.688C74.459 140.78 75.4749 140.851 76.379 140.891L76.2165 143.939ZM85.1867 143.705L84.8921 140.658C85.9079 140.556 86.8629 140.444 87.8279 140.302L88.2546 143.299C87.2387 143.482 86.2025 143.604 85.1765 143.705H85.1867ZM70.0502 143.38C69.0343 143.238 68.0184 143.065 67.0025 142.872L67.5613 139.906C68.5771 140.089 69.5117 140.251 70.4667 140.383L70.0502 143.38ZM91.3124 142.822L90.7333 139.855C91.6984 139.662 92.6635 139.449 93.6082 139.215L94.3295 142.151C93.334 142.395 92.3181 142.618 91.3022 142.822H91.3124ZM63.9651 142.222C62.9492 141.989 61.9333 141.714 60.9784 141.43L61.8317 138.524C62.7663 138.799 63.7314 139.053 64.6762 139.286L63.9651 142.222ZM97.3162 141.338L96.4629 138.443C97.3873 138.169 98.3321 137.854 99.2565 137.529L100.272 140.383C99.3175 140.729 98.3016 141.054 97.2857 141.338H97.3162ZM58.0324 140.485C57.0165 140.15 56.0819 139.784 55.127 139.398L56.2546 136.594C57.1689 136.96 58.0933 137.305 59.0178 137.61L58.0324 140.485ZM103.168 139.286L102.03 136.483C102.924 136.117 103.838 135.721 104.732 135.304L106.012 138.037C105.057 138.474 104.102 138.921 103.157 139.286H103.168ZM52.2825 138.179C51.3378 137.742 50.4032 137.285 49.5092 136.818L50.901 134.136C51.7543 134.583 52.6483 135.02 53.5422 135.426L52.2825 138.179ZM108.775 136.665L107.373 133.983C108.227 133.537 109.1 133.049 109.954 132.551L111.488 135.152C110.594 135.68 109.679 136.188 108.775 136.665ZM46.807 135.324C45.913 134.806 45.0292 134.258 44.1759 133.709L45.8216 131.17C46.6343 131.698 47.4775 132.185 48.3308 132.714L46.807 135.324ZM114.129 133.516L112.463 130.987C113.276 130.458 114.088 129.89 114.891 129.31L116.669 131.749C115.825 132.358 114.962 132.957 114.119 133.516H114.129ZM41.6159 131.952C40.7727 131.352 39.9397 130.723 39.1473 130.093L41.0267 127.746C41.7886 128.345 42.581 128.945 43.3835 129.524L41.6159 131.952ZM119.117 129.859L117.227 127.512C117.989 126.893 118.741 126.253 119.472 125.603L121.504 127.868C120.712 128.549 119.919 129.219 119.117 129.859ZM36.7702 128.102C35.9981 127.421 35.2362 126.72 34.4946 126.009L36.5975 123.835C37.2984 124.516 38.0298 125.186 38.7714 125.867L36.7702 128.102ZM123.749 125.714L121.667 123.591C122.378 122.89 123.069 122.179 123.698 121.478L125.923 123.51C125.222 124.272 124.501 125.023 123.749 125.714ZM32.3206 123.764C31.6197 123.012 30.9187 122.23 30.2889 121.458L32.5949 119.497C33.2248 120.239 33.8851 120.97 34.5556 121.691L32.3206 123.764ZM127.955 121.173L125.649 119.233C126.289 118.471 126.909 117.699 127.488 116.927L129.895 118.766C129.276 119.619 128.625 120.422 127.955 121.214V121.173ZM28.3079 119.091C27.6781 118.278 27.0584 117.435 26.4692 116.592L28.9581 114.865C29.5168 115.667 30.106 116.46 30.7054 117.242L28.3079 119.091ZM131.714 116.297L129.225 114.59C129.773 113.791 130.312 112.968 130.84 112.122L133.41 113.717C132.841 114.601 132.293 115.474 131.714 116.297ZM24.7625 114.011C24.214 113.138 23.6857 112.244 23.1778 111.35L25.8089 109.867C26.2965 110.72 26.8248 111.573 27.3225 112.406L24.7625 114.011ZM134.975 111.045L132.333 109.582C132.811 108.719 133.268 107.845 133.705 106.971L136.407 108.312C135.96 109.227 135.472 110.151 134.975 111.045ZM21.7251 108.607C21.2578 107.683 20.8108 106.738 20.4044 105.803L23.127 104.584C23.5232 105.478 23.9397 106.372 24.3867 107.256L21.7251 108.607ZM137.707 105.559L134.944 104.35C135.33 103.446 135.706 102.532 136.051 101.628L138.876 102.695C138.52 103.599 138.124 104.564 137.707 105.509V105.559ZM19.2159 102.938C18.84 101.923 18.4946 100.978 18.2 100.013L21.0749 99.0679C21.3695 99.9822 21.7048 100.927 22.0908 101.851L19.2159 102.938ZM139.952 99.7283L137.077 98.7936C137.382 97.859 137.657 96.9041 137.91 95.9695L140.836 96.7619C140.521 97.7371 140.217 98.7429 139.952 99.7283ZM17.3365 97.0463C17.0622 96.0305 16.8083 95.0146 16.5848 93.9987L19.5308 93.3486C19.7441 94.2933 19.9879 95.2584 20.2521 96.2032L17.3365 97.0463ZM141.568 93.7549L138.611 93.1048C138.825 92.1498 139.018 91.1746 139.18 90.2095L142.157 90.7175C141.984 91.7232 141.74 92.7492 141.517 93.7549H141.568ZM15.9244 91.0019C15.7517 89.986 15.5994 88.9702 15.4775 87.9543L18.5251 87.5886C18.647 88.6044 18.7892 89.5289 18.9619 90.5041L15.9244 91.0019ZM142.543 87.6495L139.495 87.294C139.607 86.2781 139.709 85.3333 139.77 84.3581L142.817 84.5714C142.766 85.5873 142.665 86.6235 142.543 87.6495ZM15.1625 84.866C15.0914 83.8502 15.0406 82.8343 15.0102 81.8184L18.0578 81.7371C18.0578 82.753 18.1289 83.7079 18.2 84.6832L15.1625 84.866ZM143 81.473L139.952 81.4121C139.952 80.9448 139.952 80.4775 139.952 80C139.952 79.5225 139.952 78.9841 139.952 78.4559L143 78.3848C143 78.9232 143 79.4616 143 80C143 80.5384 143 81.0159 143 81.473ZM18.0476 78.7403L15 78.6794C15 77.6635 15.0711 76.6476 15.1321 75.6317L18.1797 75.8349C18.0476 76.7695 18.0476 77.7549 18.0476 78.7403ZM139.83 75.5098C139.759 74.494 139.668 73.5492 139.546 72.574L142.594 72.2083C142.716 73.2241 142.817 74.24 142.888 75.2559L139.83 75.5098ZM18.4235 72.8889L15.3759 72.5333C15.4978 71.5175 15.6502 70.5016 15.8127 69.4857L18.7994 69.9835C18.6775 70.8571 18.5352 71.873 18.4235 72.8889ZM139.099 69.6889C138.937 68.7238 138.743 67.7486 138.54 66.7937L141.486 66.1435C141.71 67.1594 141.913 68.1752 142.086 69.1911L139.099 69.6889ZM19.3886 67.0375L16.4324 66.3975C16.6457 65.3816 16.8997 64.3657 17.1638 63.3498L20.0794 64.1321C19.8254 65.1175 19.5917 66.0825 19.3886 67.0375ZM137.829 63.8984C137.575 62.9638 137.291 62.0089 136.986 61.0743L139.861 60.1397C140.176 61.1556 140.481 62.1714 140.745 63.106L137.829 63.8984ZM20.9124 61.3486L18.0476 60.4241C18.3625 59.4083 18.6978 58.4635 19.0635 57.4984L21.8978 58.5651C21.5422 59.4895 21.2171 60.4241 20.9124 61.3486ZM136.001 58.301C135.655 57.3867 135.279 56.4724 134.873 55.5683L137.646 54.3492C138.063 55.3041 138.459 56.2692 138.825 57.2241L136.001 58.301ZM22.9848 55.8324L20.2114 54.6032C20.6178 53.6584 21.0546 52.7137 21.5016 51.7994L24.214 53.1302C23.7873 54.0343 23.381 54.9283 22.9848 55.8324ZM133.623 52.8762C133.187 52.0025 132.73 51.1187 132.252 50.2654L134.873 48.7924C135.381 49.6863 135.889 50.6108 136.326 51.5352L133.623 52.8762ZM25.5854 50.5397L22.934 49.0768C23.4317 48.1727 23.9498 47.2787 24.4984 46.4051L27.0686 48C26.5606 48.833 26.0527 49.6863 25.5854 50.5397ZM130.749 47.7156C130.22 46.8825 129.672 46.0495 129.123 45.247L131.602 43.5302C132.191 44.3632 132.76 45.2368 133.309 46.1105L130.749 47.7156ZM28.6737 45.5416L26.1746 43.8248C26.7537 42.9816 27.3632 42.1384 27.9829 41.3257L30.3905 43.1543C29.8114 43.9365 29.2222 44.739 28.6737 45.5416ZM127.376 42.88C126.787 42.1079 126.157 41.3359 125.527 40.5841L127.833 38.6235C128.493 39.4159 129.154 40.2184 129.773 41.0311L127.376 42.88ZM32.2698 40.8483L29.9537 38.8978C30.614 38.1156 31.3048 37.3333 31.9854 36.5816L34.2102 38.6133C33.5295 39.3651 32.8692 40.0965 32.2698 40.8483ZM123.556 38.3492C122.886 37.6279 122.195 36.927 121.524 36.2464L123.627 34.0724C124.369 34.7835 125.1 35.5352 125.801 36.287L123.556 38.3492ZM36.1911 36.48L34.0781 34.3263C34.8095 33.6051 35.5714 32.894 36.3333 32.2133L38.3651 34.4686C37.6641 35.1492 36.9429 35.8298 36.2419 36.5105L36.1911 36.48ZM119.33 34.2857C118.589 33.6356 117.827 32.9956 117.075 32.386L118.964 30.0292C119.757 30.659 120.549 31.3295 121.331 32.061L119.33 34.2857ZM40.6508 32.579L38.741 30.2222C39.5232 29.5924 40.3562 28.9524 41.1994 28.3327L42.9873 30.7708C42.1848 31.3702 41.4127 31.9797 40.6508 32.579ZM114.728 30.5473C113.936 29.9683 113.123 29.4095 112.3 28.8711L113.956 26.3416C114.82 26.9105 115.673 27.4997 116.506 28.099L114.728 30.5473ZM45.4051 29.0946L43.739 26.5752C44.6025 26.0063 45.4863 25.4476 46.36 24.9295L47.9143 27.5302C47.0711 28.0279 46.2279 28.5562 45.4051 29.0946ZM109.791 27.3575C108.938 26.8597 108.074 26.3416 107.221 25.9352L108.623 23.2533C109.517 23.7206 110.431 24.2692 111.325 24.7568L109.791 27.3575ZM50.4844 26.0876L49.0724 23.4159C49.9765 22.9283 50.9111 22.461 51.8457 22.0241L53.1257 24.767C52.2419 25.1429 51.3479 25.6203 50.4844 26.0876ZM104.58 24.6349C103.686 24.2184 102.771 23.8222 101.877 23.4667L103.015 20.6629C103.95 21.0387 104.905 21.4552 105.85 21.8921L104.58 24.6349ZM55.8178 23.619L54.68 20.7746C55.6959 20.3886 56.6102 20.0127 57.5854 19.6673L58.6013 22.5219C57.6667 22.847 56.7422 23.2025 55.8381 23.5784L55.8178 23.619ZM99.094 22.461C98.1695 22.1359 97.2248 21.8311 96.2902 21.5568L97.1435 18.6616C98.1594 18.946 99.1752 19.261 100.1 19.6063L99.094 22.461ZM61.3848 21.6381L60.5111 18.7429C61.527 18.4483 62.5429 18.174 63.4978 17.92L64.2292 20.8559C63.2946 21.0794 62.3397 21.313 61.4051 21.5975L61.3848 21.6381ZM93.4457 20.7949C92.4908 20.5613 91.5156 20.3479 90.5606 20.1651L91.1295 17.1987C92.1454 17.3917 93.1613 17.6051 94.1771 17.8489L93.4457 20.7949ZM67.1041 20.2159L66.5251 17.2495C67.541 17.0565 68.5568 16.8737 69.5727 16.7314L70.0095 19.7181C69.0648 19.8197 68.0895 19.9924 67.1244 20.1752L67.1041 20.2159ZM87.6552 19.6775C86.6394 19.5352 85.6946 19.4235 84.7295 19.3321L85.0038 16.2844C86.0197 16.3759 87.0356 16.4978 88.0514 16.64L87.6552 19.6775ZM72.9352 19.3625L72.6406 16.3149C73.6565 16.2133 74.6724 16.1422 75.6883 16.0914L75.8406 19.139C74.9365 19.1492 73.9206 19.2203 72.9556 19.3219L72.9352 19.3625ZM81.8038 19.0476C80.8692 19.0476 79.9346 19.0476 79 19.0476H78.8578V16H79C80.0159 16 80.9708 16 81.946 16.0711L81.8038 19.0476Z" fill="#365066"/>
<path d="M52 44L35 58.1806V79H69V58.1806L52 44Z" fill="#2079D4"/>
<path d="M54.3433 105.051C54.3433 103.895 53.866 102.787 53.0165 101.97C52.167 101.153 51.0148 100.693 49.8134 100.693C49.1887 100.691 48.5706 100.816 48 101.061L48 91.1022L58.3519 91.1022C58.0975 90.5533 57.9674 89.9587 57.9701 89.3577C57.9701 88.202 58.4474 87.0936 59.2969 86.2763C60.1464 85.4591 61.2986 85 62.5 85C63.7014 85 64.8536 85.4591 65.7031 86.2763C66.5526 87.0936 67.0299 88.202 67.0299 89.3577C67.0326 89.9587 66.9025 90.5533 66.6481 91.1022L77 91.1022L77 119L48 119L48 109.042C48.5706 109.286 49.1887 109.411 49.8134 109.409C50.4083 109.409 50.9973 109.296 51.5469 109.077C52.0965 108.858 52.5959 108.537 53.0165 108.132C53.4372 107.728 53.7708 107.247 53.9985 106.719C54.2261 106.19 54.3433 105.623 54.3433 105.051V105.051Z" fill="#CC7A00"/>
<rect x="114" y="33.6597" width="11" height="39.6696" transform="rotate(-35.6237 114 33.6597)" fill="#F0F6FC"/>
<path d="M96.2374 84.8268C100.608 84.8268 104.151 81.2838 104.151 76.9134C104.151 72.5429 100.608 69 96.2374 69C91.8669 69 88.324 72.5429 88.324 76.9134C88.324 81.2838 91.8669 84.8268 96.2374 84.8268Z" fill="#50A7EF"/>
<path d="M85.0001 95.98C85.0012 93.6175 85.9206 91.348 87.5639 89.6508C89.2073 87.9535 91.446 86.9615 93.8072 86.8842H98.6669C103.499 86.8842 107.344 91.1481 107.344 95.98H85.0001Z" fill="#50A7EF"/>
<path d="M144.403 48.5972C143.509 48.7918 142.663 49.1618 141.913 49.6858C141.163 50.2098 140.524 50.8774 140.034 51.65L132.712 47.1891L130.942 32.3943C130.832 31.4788 130.542 30.5939 130.09 29.7905C129.637 28.9871 129.03 28.2808 128.305 27.7121C127.579 27.1435 126.748 26.7236 125.859 26.4766C124.971 26.2296 124.042 26.1603 123.127 26.2726L125.08 42.543L111.173 34.0672C110.691 34.8542 110.368 35.7287 110.224 36.6407C110.08 37.5526 110.117 38.484 110.333 39.3815C110.55 40.279 110.941 41.125 111.485 41.8709C112.029 42.6169 112.715 43.2481 113.504 43.7285L126.136 51.4157L127.139 59.829C125.775 60.0161 124.499 60.6061 123.473 61.5233C122.447 62.4405 121.718 63.6433 121.38 64.9773C121.042 66.3113 121.11 67.7159 121.575 69.0111C122.041 70.3063 122.882 71.433 123.992 72.2468C125.102 73.0607 126.429 73.5246 127.804 73.5792C129.179 73.6338 130.54 73.2765 131.71 72.5531C132.881 71.8297 133.809 70.7732 134.376 69.519C134.942 68.2648 135.121 66.87 134.89 65.5134L133.761 56.0505L141.982 61.0611C142.93 61.7033 144.023 62.1001 145.162 62.216C146.301 62.3319 147.451 62.1633 148.508 61.7252C149.566 61.2871 150.499 60.5933 151.222 59.706C151.946 58.8186 152.438 57.7656 152.654 56.6413C152.87 55.517 152.804 54.3566 152.461 53.2642C152.118 52.1718 151.51 51.1816 150.69 50.3823C149.87 49.5831 148.865 48.9999 147.764 48.685C146.663 48.3701 145.502 48.3334 144.383 48.5782L144.403 48.5972ZM130.542 67.3985C130.391 67.8652 130.106 68.2768 129.722 68.5813C129.337 68.8858 128.871 69.0694 128.383 69.1089C127.894 69.1484 127.404 69.042 126.976 68.8033C126.548 68.5645 126.2 68.2041 125.977 67.7676C125.754 67.3311 125.665 66.8381 125.722 66.3511C125.779 65.8642 125.979 65.405 126.297 65.0318C126.615 64.6587 127.036 64.3882 127.508 64.2547C127.98 64.1212 128.481 64.1307 128.947 64.2819C129.571 64.4844 130.09 64.9262 130.389 65.5105C130.688 66.0948 130.743 66.7738 130.542 67.3985ZM148.257 55.7124C148.179 56.3641 147.846 56.9584 147.331 57.3653C146.816 57.7723 146.161 57.959 145.508 57.8845C145.024 57.8265 144.567 57.6262 144.196 57.3089C143.825 56.9915 143.556 56.5714 143.424 56.1015C143.291 55.6316 143.301 55.1329 143.451 54.6685C143.602 54.2041 143.887 53.7947 144.27 53.492C144.653 53.1892 145.117 53.0068 145.604 52.9676C146.09 52.9284 146.578 53.0343 147.004 53.2718C147.431 53.5094 147.777 53.868 148 54.3023C148.223 54.7367 148.313 55.2274 148.257 55.7124Z" fill="white"/>
<path d="M144.403 48.5972C143.509 48.7918 142.663 49.1618 141.913 49.6858C141.163 50.2098 140.524 50.8774 140.034 51.65L132.712 47.1891L130.942 32.3943C130.832 31.4788 130.542 30.5939 130.09 29.7905C129.637 28.9871 129.03 28.2808 128.305 27.7121C127.579 27.1435 126.748 26.7236 125.859 26.4766C124.971 26.2296 124.042 26.1603 123.127 26.2726L125.08 42.543L111.173 34.0672C110.691 34.8542 110.368 35.7287 110.224 36.6407C110.08 37.5526 110.117 38.484 110.333 39.3815C110.55 40.279 110.941 41.125 111.485 41.8709C112.029 42.6169 112.715 43.2481 113.504 43.7285L126.136 51.4157L127.139 59.829C125.775 60.0161 124.499 60.6061 123.473 61.5233C122.447 62.4405 121.718 63.6433 121.38 64.9773C121.042 66.3113 121.11 67.7159 121.575 69.0111C122.041 70.3063 122.882 71.433 123.992 72.2468C125.102 73.0607 126.429 73.5246 127.804 73.5792C129.179 73.6338 130.54 73.2765 131.71 72.5531C132.881 71.8297 133.809 70.7732 134.376 69.519C134.942 68.2648 135.121 66.87 134.89 65.5134L133.761 56.0505L141.982 61.0611C142.93 61.7033 144.023 62.1001 145.162 62.216C146.301 62.3319 147.451 62.1633 148.508 61.7252C149.566 61.2871 150.499 60.5933 151.222 59.706C151.946 58.8186 152.438 57.7656 152.654 56.6413C152.87 55.517 152.804 54.3566 152.461 53.2642C152.118 52.1718 151.51 51.1816 150.69 50.3823C149.87 49.5831 148.865 48.9999 147.764 48.685C146.663 48.3701 145.502 48.3334 144.383 48.5782L144.403 48.5972ZM130.542 67.3985C130.391 67.8652 130.106 68.2768 129.722 68.5813C129.337 68.8858 128.871 69.0694 128.383 69.1089C127.894 69.1484 127.404 69.042 126.976 68.8033C126.548 68.5645 126.2 68.2041 125.977 67.7676C125.754 67.3311 125.665 66.8381 125.722 66.3511C125.779 65.8642 125.979 65.405 126.297 65.0318C126.615 64.6587 127.036 64.3882 127.508 64.2547C127.98 64.1212 128.481 64.1307 128.947 64.2819C129.571 64.4844 130.09 64.9262 130.389 65.5105C130.688 66.0948 130.743 66.7738 130.542 67.3985ZM148.257 55.7124C148.179 56.3641 147.846 56.9584 147.331 57.3653C146.816 57.7723 146.161 57.959 145.508 57.8845C145.024 57.8265 144.567 57.6262 144.196 57.3089C143.825 56.9915 143.556 56.5714 143.424 56.1015C143.291 55.6316 143.301 55.1329 143.451 54.6685C143.602 54.2041 143.887 53.7947 144.27 53.492C144.653 53.1892 145.117 53.0068 145.604 52.9676C146.09 52.9284 146.578 53.0343 147.004 53.2718C147.431 53.5094 147.777 53.868 148 54.3023C148.223 54.7367 148.313 55.2274 148.257 55.7124Z" fill="white"/>
<path d="M124.873 65.5709C124.731 66.0059 124.678 66.4645 124.714 66.9204C124.75 67.3763 124.876 67.8206 125.084 68.2278C125.293 68.635 125.579 68.9971 125.928 69.2934C126.276 69.5898 126.679 69.8145 127.115 69.9548C127.77 70.1655 128.473 70.1773 129.135 69.9889C129.797 69.8004 130.389 69.42 130.835 68.8957C131.281 68.3715 131.562 67.7268 131.643 67.043C131.723 66.3592 131.599 65.667 131.286 65.0537C131.081 64.6443 130.796 64.2805 130.447 63.9841C130.098 63.6877 129.693 63.4648 129.256 63.3288C128.378 63.0476 127.423 63.1256 126.602 63.5457C125.781 63.9658 125.159 64.6938 124.873 65.5709ZM129.58 67.0875C129.46 67.4579 129.198 67.7657 128.851 67.9431C128.504 68.1206 128.101 68.1533 127.731 68.0341C127.547 67.9771 127.377 67.884 127.23 67.7603C127.082 67.6366 126.962 67.4848 126.874 67.3137C126.698 66.9654 126.667 66.5616 126.788 66.1905C126.893 65.8638 127.11 65.5847 127.4 65.4023C127.572 65.2916 127.766 65.2182 127.968 65.1868C128.17 65.1555 128.377 65.1669 128.575 65.2204C128.772 65.2739 128.956 65.3682 129.115 65.4973C129.274 65.6264 129.404 65.7874 129.497 65.9699C129.585 66.1411 129.638 66.3283 129.652 66.5203C129.666 66.7122 129.642 66.9051 129.58 67.0875Z" fill="#365066"/>
<path d="M146.188 51.9507C145.271 51.8457 144.349 52.1085 143.625 52.6816C142.9 53.2546 142.433 54.0913 142.324 55.0084C142.27 55.4631 142.307 55.9239 142.431 56.3644C142.556 56.8049 142.766 57.2165 143.05 57.5755C143.334 57.9345 143.687 58.2339 144.087 58.4566C144.487 58.6792 144.927 58.8207 145.382 58.8729C146.175 58.9603 146.975 58.774 147.649 58.3449C148.256 57.9601 148.73 57.3965 149.004 56.7314C149.278 56.0664 149.339 55.3328 149.179 54.6316C149.019 53.9303 148.645 53.296 148.11 52.8159C147.574 52.3358 146.903 52.0335 146.188 51.9507ZM147.241 55.5793C147.208 55.8683 147.09 56.1411 146.902 56.363C146.714 56.585 146.464 56.7462 146.185 56.8263C145.905 56.9063 145.608 56.9017 145.331 56.8129C145.054 56.724 144.809 56.5551 144.628 56.3273C144.391 56.0203 144.282 55.6336 144.323 55.2479C144.369 54.8595 144.567 54.505 144.873 54.2621C145.179 54.0193 145.57 53.9078 145.958 53.9522C146.149 53.9748 146.334 54.0348 146.502 54.1288C146.669 54.2227 146.817 54.3489 146.936 54.4999C147.06 54.6516 147.152 54.827 147.207 55.0156C147.261 55.2041 147.276 55.4017 147.252 55.5963L147.241 55.5793Z" fill="#365066"/>
<path d="M144.208 47.6392C142.467 48.0019 140.9 48.9434 139.763 50.3103L133.649 46.5847L131.945 32.2811C131.677 30.1796 130.592 28.2681 128.925 26.9605C127.258 25.6529 125.143 25.0544 123.038 25.2945L122.043 25.4189L123.829 40.6015L110.832 32.6925L110.307 33.544C109.757 34.4438 109.389 35.4432 109.225 36.4852C109.061 37.5272 109.104 38.5913 109.352 39.6166C109.599 40.642 110.047 41.6084 110.668 42.4607C111.29 43.3129 112.073 44.0343 112.974 44.5835L125.189 52.0272L126.027 59.0324C124.308 59.4876 122.794 60.5133 121.733 61.9414C120.555 63.5648 120.029 65.571 120.259 67.5636C120.488 69.5562 121.457 71.3902 122.973 72.7032C124.266 73.7929 125.872 74.4426 127.559 74.5581C129.245 74.6736 130.925 74.2489 132.354 73.3455C133.661 72.5157 134.696 71.3211 135.331 69.9095C135.965 68.4978 136.173 66.931 135.926 65.4028L135.044 58.0036L141.449 61.8862C142.344 62.4883 143.352 62.9013 144.412 63.1001C145.472 63.2989 146.561 63.2793 147.613 63.0424C148.665 62.8055 149.658 62.3564 150.53 61.7225C151.403 61.0887 152.137 60.2834 152.687 59.356C153.242 58.4369 153.603 57.4138 153.747 56.3499C153.891 55.286 153.815 54.2039 153.525 53.1703C152.947 51.2491 151.668 49.6148 149.943 48.5907C148.218 47.5665 146.171 47.227 144.208 47.6392ZM124.272 27.2317C125.687 27.3073 127.032 27.8783 128.069 28.8447C129.106 29.8112 129.771 31.1116 129.947 32.5186L131.469 45.2497L126.014 41.9328L124.272 27.2317ZM133.911 65.6752C134.045 66.4734 134.013 67.2905 133.818 68.0759C133.623 68.8612 133.268 69.5981 132.776 70.2406C132.284 70.8831 131.665 71.4176 130.958 71.8109C130.25 72.2041 129.47 72.4477 128.664 72.5265C127.874 72.6086 127.076 72.5296 126.317 72.2943C125.558 72.0591 124.855 71.6724 124.25 71.1577C123.122 70.1727 122.404 68.8008 122.237 67.3125C122.071 65.8242 122.468 64.3274 123.35 63.1173C123.819 62.4896 124.408 61.9616 125.083 61.5645C125.758 61.1673 126.506 60.9089 127.283 60.8043L128.262 60.6665L127.374 53.3584L132.824 56.679L133.911 65.6752ZM151.561 53.7121C151.776 54.4784 151.834 55.2801 151.732 56.0694C151.63 56.8587 151.37 57.6193 150.968 58.3058C150.565 58.9923 150.028 59.5907 149.389 60.0652C148.75 60.5397 148.022 60.8805 147.249 61.0674C146.444 61.2581 145.609 61.2794 144.795 61.1298C143.982 60.9803 143.208 60.6632 142.524 60.1987L134.718 55.4408L132.533 54.1096L127.083 50.789L124.9 49.4727L114.038 42.8548C112.824 42.1161 111.911 40.9698 111.463 39.6205C111.015 38.2711 111.061 36.8065 111.593 35.4879L124.135 43.1452L126.32 44.4765L131.787 47.7862L133.972 49.1175L140.365 53.0074L140.895 52.1765C141.314 51.5146 141.861 50.9428 142.503 50.4941C143.146 50.0455 143.871 49.7291 144.637 49.5633C146.104 49.2637 147.63 49.5264 148.913 50.2993C150.195 51.0723 151.14 52.2991 151.561 53.7363L151.561 53.7121Z" fill="#365066"/>
</svg>
