<svg width="160" height="160" viewBox="0 0 160 160" fill="none" xmlns="http://www.w3.org/2000/svg">
<path d="M80 150C93.8447 150 107.378 145.895 118.89 138.203C130.401 130.511 139.373 119.579 144.672 106.788C149.97 93.997 151.356 79.9224 148.655 66.3437C145.954 52.765 139.287 40.2922 129.497 30.5026C119.708 20.7129 107.235 14.046 93.6563 11.3451C80.0777 8.6441 66.003 10.0303 53.2122 15.3285C40.4213 20.6266 29.4888 29.5987 21.7971 41.1101C14.1054 52.6216 10 66.1553 10 80C10 98.5652 17.375 116.37 30.5025 129.498C43.6301 142.625 61.4348 150 80 150V150Z" fill="#F0F6FC"/>
<path d="M33.349 51.2925V61.7805H91.4236H149.498V51.2925C149.498 51.0856 149.416 50.8871 149.27 50.7408C149.123 50.5945 148.925 50.5123 148.718 50.5123H34.1291C33.9222 50.5123 33.7238 50.5945 33.5775 50.7408C33.4312 50.8871 33.349 51.0856 33.349 51.2925Z" fill="white"/>
<path d="M41.1867 59.2169C42.6228 59.2169 43.787 58.0527 43.787 56.6166C43.787 55.1805 42.6228 54.0162 41.1867 54.0162C39.7505 54.0162 38.5863 55.1805 38.5863 56.6166C38.5863 58.0527 39.7505 59.2169 41.1867 59.2169Z" fill="#365066"/>
<path d="M48.9878 59.2169C50.4239 59.2169 51.5882 58.0527 51.5882 56.6166C51.5882 55.1805 50.4239 54.0162 48.9878 54.0162C47.5517 54.0162 46.3875 55.1805 46.3875 56.6166C46.3875 58.0527 47.5517 59.2169 48.9878 59.2169Z" fill="#365066"/>
<path d="M56.7888 59.2169C58.225 59.2169 59.3892 58.0527 59.3892 56.6166C59.3892 55.1805 58.225 54.0162 56.7888 54.0162C55.3527 54.0162 54.1885 55.1805 54.1885 56.6166C54.1885 58.0527 55.3527 59.2169 56.7888 59.2169Z" fill="#365066"/>
<path d="M148.755 47.9486H34.1657C33.2699 47.9509 32.4114 48.3078 31.7779 48.9413C31.1445 49.5747 30.7876 50.4333 30.7853 51.3291V126.046C30.7876 126.942 31.1445 127.8 31.7779 128.434C32.4114 129.067 33.2699 129.424 34.1657 129.426H148.755C149.651 129.424 150.509 129.067 151.143 128.434C151.776 127.8 152.133 126.942 152.135 126.046V51.3291C152.133 50.4333 151.776 49.5747 151.143 48.9413C150.509 48.3078 149.651 47.9509 148.755 47.9486ZM149.535 126.046C149.535 126.253 149.453 126.451 149.306 126.598C149.16 126.744 148.962 126.826 148.755 126.826H91.4602H34.1657C33.9588 126.826 33.7604 126.744 33.6141 126.598C33.4678 126.451 33.3856 126.253 33.3856 126.046V64.4176H149.535V126.046ZM149.535 61.8172H91.4602H33.3856V51.3291C33.3856 51.1222 33.4678 50.9238 33.6141 50.7775C33.7604 50.6312 33.9588 50.549 34.1657 50.549H148.755C148.962 50.549 149.16 50.6312 149.306 50.7775C149.453 50.9238 149.535 51.1222 149.535 51.3291V61.8172Z" fill="#365066"/>
<path d="M149.343 126.729C149.489 126.582 149.571 126.383 149.571 126.175V64.1856H33.349V126.175C33.349 126.383 33.4312 126.582 33.5776 126.729C33.724 126.877 33.9226 126.959 34.1296 126.959H91.4602H148.791C148.998 126.959 149.196 126.877 149.343 126.729Z" fill="white"/>
<path d="M97.9795 96.5557H59.8409V99.156H97.9795V96.5557Z" fill="#2079D4"/>
<path d="M85.8445 104.79H59.8409V109.991H85.8445V104.79Z" fill="#CC7A00"/>
<path d="M97.9795 113.025H59.8409V115.625H97.9795V113.025Z" fill="#2079D4"/>
<path d="M125.717 76.1863C126.406 76.1863 127.068 76.4603 127.555 76.9479C128.043 77.4356 128.317 78.097 128.317 78.7866C128.317 79.4763 128.043 80.1377 127.555 80.6254C127.068 81.113 126.406 81.387 125.717 81.387H65.0417C64.352 81.387 63.6906 81.113 63.2029 80.6254C62.7153 80.1377 62.4413 79.4763 62.4413 78.7866C62.4413 78.097 62.7153 77.4356 63.2029 76.9479C63.6906 76.4603 64.352 76.1863 65.0417 76.1863H125.717ZM125.717 73.5859H65.0417C63.6623 73.5859 62.3395 74.1339 61.3642 75.1092C60.3889 76.0845 59.8409 77.4073 59.8409 78.7866C59.8409 80.166 60.3889 81.4888 61.3642 82.4641C62.3395 83.4394 63.6623 83.9874 65.0417 83.9874H125.717C127.096 83.9874 128.419 83.4394 129.394 82.4641C130.369 81.4888 130.917 80.166 130.917 78.7866C130.917 77.4073 130.369 76.0845 129.394 75.1092C128.419 74.1339 127.096 73.5859 125.717 73.5859Z" fill="#50A7EF"/>
<path d="M82.3774 88.3211H59.8409V93.5218H82.3774V88.3211Z" fill="#CC7A00"/>
<path d="M21.3849 42.7468V53.2349H79.4595H137.534V42.7468C137.534 42.5399 137.452 42.3414 137.306 42.1951C137.159 42.0488 136.961 41.9667 136.754 41.9667H22.165C21.9581 41.9667 21.7597 42.0488 21.6134 42.1951C21.4671 42.3414 21.3849 42.5399 21.3849 42.7468Z" fill="white"/>
<path d="M29.2225 50.6711C30.6587 50.6711 31.8229 49.5069 31.8229 48.0708C31.8229 46.6346 30.6587 45.4704 29.2225 45.4704C27.7864 45.4704 26.6222 46.6346 26.6222 48.0708C26.6222 49.5069 27.7864 50.6711 29.2225 50.6711Z" fill="#365066"/>
<path d="M37.0237 50.6711C38.4598 50.6711 39.6241 49.5069 39.6241 48.0708C39.6241 46.6346 38.4598 45.4704 37.0237 45.4704C35.5876 45.4704 34.4233 46.6346 34.4233 48.0708C34.4233 49.5069 35.5876 50.6711 37.0237 50.6711Z" fill="#365066"/>
<path d="M44.8248 50.6711C46.261 50.6711 47.4252 49.5069 47.4252 48.0708C47.4252 46.6346 46.261 45.4704 44.8248 45.4704C43.3887 45.4704 42.2245 46.6346 42.2245 48.0708C42.2245 49.5069 43.3887 50.6711 44.8248 50.6711Z" fill="#365066"/>
<path d="M136.791 39.4029H22.2018C21.3059 39.4052 20.4474 39.7621 19.8139 40.3955C19.1805 41.029 18.8236 41.8875 18.8213 42.7834V117.5C18.8236 118.396 19.1805 119.255 19.8139 119.888C20.4474 120.522 21.3059 120.878 22.2018 120.881H136.791C137.687 120.878 138.545 120.522 139.179 119.888C139.812 119.255 140.169 118.396 140.171 117.5V42.7834C140.169 41.8875 139.812 41.029 139.179 40.3955C138.545 39.7621 137.687 39.4052 136.791 39.4029ZM137.571 117.5C137.571 117.707 137.489 117.906 137.342 118.052C137.196 118.198 136.998 118.28 136.791 118.28H79.4963H22.2018C21.9949 118.28 21.7964 118.198 21.6501 118.052C21.5038 117.906 21.4216 117.707 21.4216 117.5V55.8718H137.571V117.5ZM137.571 53.2715H79.4963H21.4216V42.7834C21.4216 42.5765 21.5038 42.378 21.6501 42.2317C21.7964 42.0854 21.9949 42.0032 22.2018 42.0032H136.791C136.998 42.0032 137.196 42.0854 137.342 42.2317C137.489 42.378 137.571 42.5765 137.571 42.7834V53.2715Z" fill="#365066"/>
<path d="M137.379 118.184C137.525 118.036 137.607 117.837 137.607 117.629V55.6398H21.3849V117.629C21.3849 117.837 21.4671 118.036 21.6135 118.184C21.7599 118.331 21.9585 118.413 22.1655 118.413H79.4961H136.827C137.034 118.413 137.232 118.331 137.379 118.184Z" fill="white"/>
<path d="M86.0155 88.0098H47.877V90.6102H86.0155V88.0098Z" fill="#2079D4"/>
<path d="M73.8805 96.2443H47.877V101.445H73.8805V96.2443Z" fill="#CC7A00"/>
<path d="M86.0155 104.479H47.877V107.079H86.0155V104.479Z" fill="#2079D4"/>
<path d="M113.753 67.6405C114.442 67.6405 115.104 67.9144 115.591 68.4021C116.079 68.8898 116.353 69.5512 116.353 70.2408C116.353 70.9305 116.079 71.5919 115.591 72.0796C115.104 72.5672 114.442 72.8412 113.753 72.8412H53.0777C52.388 72.8412 51.7266 72.5672 51.2389 72.0796C50.7513 71.5919 50.4773 70.9305 50.4773 70.2408C50.4773 69.5512 50.7513 68.8898 51.2389 68.4021C51.7266 67.9144 52.388 67.6405 53.0777 67.6405H113.753ZM113.753 65.0401H53.0777C51.6983 65.0401 50.3755 65.5881 49.4002 66.5634C48.4249 67.5387 47.877 68.8615 47.877 70.2408C47.877 71.6202 48.4249 72.943 49.4002 73.9183C50.3755 74.8936 51.6983 75.4416 53.0777 75.4416H113.753C115.132 75.4416 116.455 74.8936 117.43 73.9183C118.405 72.943 118.953 71.6202 118.953 70.2408C118.953 68.8615 118.405 67.5387 117.43 66.5634C116.455 65.5881 115.132 65.0401 113.753 65.0401Z" fill="#50A7EF"/>
<path d="M70.4134 79.7752H47.877V84.9759H70.4134V79.7752Z" fill="#CC7A00"/>
<path d="M9.4209 34.2009V44.689H67.4955H125.57V34.2009C125.57 33.994 125.488 33.7956 125.342 33.6493C125.195 33.503 124.997 33.4208 124.79 33.4208H10.201C9.99411 33.4208 9.79568 33.503 9.64939 33.6493C9.50309 33.7956 9.4209 33.994 9.4209 34.2009Z" fill="white"/>
<path d="M17.2586 42.1253C18.6947 42.1253 19.8589 40.9611 19.8589 39.5249C19.8589 38.0888 18.6947 36.9246 17.2586 36.9246C15.8224 36.9246 14.6582 38.0888 14.6582 39.5249C14.6582 40.9611 15.8224 42.1253 17.2586 42.1253Z" fill="#365066"/>
<path d="M25.0597 42.1253C26.4958 42.1253 27.6601 40.9611 27.6601 39.5249C27.6601 38.0888 26.4958 36.9246 25.0597 36.9246C23.6236 36.9246 22.4594 38.0888 22.4594 39.5249C22.4594 40.9611 23.6236 42.1253 25.0597 42.1253Z" fill="#365066"/>
<path d="M32.8607 42.1253C34.2969 42.1253 35.4611 40.9611 35.4611 39.5249C35.4611 38.0888 34.2969 36.9246 32.8607 36.9246C31.4246 36.9246 30.2604 38.0888 30.2604 39.5249C30.2604 40.9611 31.4246 42.1253 32.8607 42.1253Z" fill="#365066"/>
<path d="M124.827 30.8571H10.2376C9.34173 30.8594 8.48322 31.2163 7.84976 31.8498C7.21629 32.4832 6.8594 33.3417 6.85712 34.2376V108.954C6.8594 109.85 7.21629 110.709 7.84976 111.342C8.48322 111.976 9.34173 112.333 10.2376 112.335H124.827C125.722 112.333 126.581 111.976 127.214 111.342C127.848 110.709 128.205 109.85 128.207 108.954V34.2376C128.205 33.3417 127.848 32.4832 127.214 31.8498C126.581 31.2163 125.722 30.8594 124.827 30.8571ZM125.607 108.954C125.607 109.161 125.524 109.36 125.378 109.506C125.232 109.652 125.033 109.735 124.827 109.735H67.5321H10.2376C10.0307 109.735 9.83226 109.652 9.68596 109.506C9.53966 109.36 9.45747 109.161 9.45747 108.954V47.326H125.607V108.954ZM125.607 44.7257H67.5321H9.45747V34.2376C9.45747 34.0307 9.53966 33.8323 9.68596 33.686C9.83226 33.5397 10.0307 33.4575 10.2376 33.4575H124.827C125.033 33.4575 125.232 33.5397 125.378 33.686C125.524 33.8323 125.607 34.0307 125.607 34.2376V44.7257Z" fill="#365066"/>
<path d="M125.415 109.638C125.561 109.491 125.643 109.291 125.643 109.083V47.0939H9.4209V109.083C9.4209 109.291 9.50314 109.491 9.64953 109.638C9.79592 109.785 9.99447 109.868 10.2015 109.868H67.5321H124.863C125.07 109.868 125.268 109.785 125.415 109.638Z" fill="white"/>
<path d="M74.0514 79.4641H35.9128V82.0645H74.0514V79.4641Z" fill="#2079D4"/>
<path d="M61.4321 88H35.4286V93.2007H61.4321V88Z" fill="#50A7EF"/>
<path d="M74.0514 95.9329H35.9128V98.5333H74.0514V95.9329Z" fill="#2079D4"/>
<path d="M58.4493 71.2296H35.9128V76.4303H58.4493V71.2296Z" fill="#50A7EF"/>
<path d="M42.4367 61.4696L38.9424 62.796L42.4367 64.2435V66.0647L37 63.5736V62.0991L42.4367 59.6484V61.4696Z" fill="#2079D4"/>
<path d="M43.2344 67.2834L47.099 57.7733L48.6812 58.3355L44.8132 67.8456L43.2344 67.2834Z" fill="#2079D4"/>
<path d="M53.0576 62.796L49.5599 61.4696V59.6484L55 62.0991V63.5736L49.5599 66.0647V64.2435L53.0576 62.796Z" fill="#2079D4"/>
<path d="M132.477 135.49C131.949 135.491 131.426 135.387 130.937 135.185C130.449 134.984 130.006 134.688 129.632 134.314L104.612 109.304L110.301 103.615L135.322 128.625C135.696 128.998 135.992 129.442 136.194 129.93C136.397 130.418 136.501 130.941 136.501 131.469C136.501 131.998 136.397 132.521 136.194 133.009C135.992 133.497 135.696 133.941 135.322 134.314C134.948 134.688 134.504 134.984 134.016 135.185C133.528 135.387 133.005 135.491 132.477 135.49Z" fill="white"/>
<path d="M110.302 105.746L134.257 129.7C134.714 130.175 134.967 130.81 134.96 131.469C134.953 132.128 134.688 132.758 134.221 133.223C133.755 133.688 133.124 133.952 132.465 133.957C131.806 133.961 131.172 133.707 130.698 133.249L106.744 109.304L110.302 105.746ZM110.302 101.483L102.482 109.304L128.567 135.38C129.081 135.893 129.69 136.301 130.361 136.579C131.032 136.857 131.751 137 132.478 137C133.204 137 133.923 136.857 134.594 136.579C135.265 136.301 135.875 135.893 136.388 135.38C137.421 134.34 138 132.935 138 131.469C138 130.004 137.421 128.599 136.388 127.559L110.302 101.483Z" fill="#365066"/>
<path d="M87.7546 117.638C80.1514 117.663 72.7655 115.102 66.809 110.377C60.8525 105.652 56.6792 99.0417 54.974 91.6322C54.5343 89.736 54.2586 87.8056 54.1497 85.8622C54.1095 85.192 54.0894 84.5487 54.0894 83.9321C54.0953 77.2727 56.0757 70.7644 59.78 65.2303C63.4844 59.6962 68.7464 55.3847 74.9009 52.8408C81.0553 50.2969 87.8259 49.6349 94.3565 50.9385C100.887 52.2421 106.885 55.4527 111.591 60.1645C116.297 64.8763 119.5 70.8776 120.796 77.4098C122.092 83.942 121.422 90.7118 118.871 96.8632C116.32 103.015 112.002 108.271 106.463 111.969C100.925 115.667 94.4141 117.64 87.7546 117.638Z" fill="white"/>
<path d="M87.7545 51.7646C93.8009 51.7643 99.7249 53.4681 104.847 56.6807C109.97 59.8933 114.083 64.4845 116.715 69.9277C119.347 75.371 120.392 81.446 119.73 87.456C119.067 93.466 116.725 99.1676 112.97 103.907C109.215 108.646 104.201 112.232 98.5021 114.251C92.8031 116.271 86.6502 116.644 80.749 115.327C74.8478 114.01 69.4373 111.056 65.138 106.805C60.8387 102.553 57.8247 97.1764 56.4416 91.2903C56.0188 89.4739 55.7564 87.6239 55.6575 85.7615C55.6575 85.1584 55.5972 84.5452 55.5972 83.932C55.5972 75.4007 58.9862 67.2188 65.0188 61.1862C71.0513 55.1537 79.2333 51.7646 87.7646 51.7646H87.7545ZM87.7545 48.7489C78.4234 48.7489 69.4744 52.4557 62.8763 59.0538C56.2782 65.6519 52.5714 74.6009 52.5714 83.932C52.5714 84.6055 52.5714 85.279 52.6317 85.9425C53.0245 92.8043 55.4184 99.4008 59.5179 104.917C63.6174 110.434 69.243 114.629 75.6998 116.985C82.1566 119.34 89.162 119.753 95.8507 118.172C102.539 116.591 108.619 113.085 113.337 108.088C118.056 103.091 121.208 96.821 122.404 90.0528C123.6 83.2846 122.787 76.3143 120.066 70.0029C117.345 63.6914 112.835 58.3151 107.092 54.538C101.35 50.7609 94.6276 48.7483 87.7545 48.7489V48.7489Z" fill="#365066"/>
<path d="M96.7083 71.5879C101.74 71.5879 104.791 75.7359 104.995 81.0596C105.291 88.7548 91.3815 97.9296 88.1252 101.186C84.8693 97.9297 70.9582 88.7549 71.2542 81.0596C71.4589 75.7361 74.5099 71.5881 79.5413 71.5879C84.7127 71.5879 87.336 77.3105 88.1252 81.0596C88.9145 77.3106 91.537 71.5881 96.7083 71.5879Z" fill="#CC7A00"/>
</svg>
