<svg width="176" height="176" viewBox="0 0 176 176" fill="none" xmlns="http://www.w3.org/2000/svg">
<g clip-path="url(#clip0_40002001_41379)">
<path d="M33 48C34.6569 48 36 46.6569 36 45C36 43.3431 34.6569 42 33 42C31.3431 42 30 43.3431 30 45C30 46.6569 31.3431 48 33 48Z" fill="#365066"/>
<path d="M42 48C43.6569 48 45 46.6569 45 45C45 43.3431 43.6569 42 42 42C40.3431 42 39 43.3431 39 45C39 46.6569 40.3431 48 42 48Z" fill="#365066"/>
<path d="M51 48C52.6569 48 54 46.6569 54 45C54 43.3431 52.6569 42 51 42C49.3431 42 48 43.3431 48 45C48 46.6569 49.3431 48 51 48Z" fill="#365066"/>
<path d="M157.1 35H24.9C23.8665 35.0026 22.876 35.4144 22.1452 36.1452C21.4144 36.876 21.0026 37.8665 21 38.9V125.1C21.0026 126.134 21.4144 127.124 22.1452 127.855C22.876 128.586 23.8665 128.997 24.9 129H157.1C158.134 128.997 159.124 128.586 159.855 127.855C160.586 127.124 160.997 126.134 161 125.1V38.9C160.997 37.8665 160.586 36.876 159.855 36.1452C159.124 35.4144 158.134 35.0026 157.1 35ZM158 125.1C158 125.339 157.905 125.568 157.736 125.736C157.568 125.905 157.339 126 157.1 126H24.9C24.6613 126 24.4324 125.905 24.2636 125.736C24.0948 125.568 24 125.339 24 125.1V54H158V125.1ZM158 51H24V38.9C24 38.6613 24.0948 38.4324 24.2636 38.2636C24.4324 38.0948 24.6613 38 24.9 38H157.1C157.339 38 157.568 38.0948 157.736 38.2636C157.905 38.4324 158 38.6613 158 38.9V51Z" fill="#365066"/>
<path d="M62 88V82H49H36V88H62Z" fill="#CC7A00"/>
<path d="M73 92H36V95H73V92Z" fill="#2079D4"/>
<path d="M66 101H36V107H66V101Z" fill="#CC7A00"/>
<path d="M73 111H36V114H73V111Z" fill="#2079D4"/>
<path d="M122.79 113.43L135.52 100.7L144 92.22L135.52 83.73L122.79 71L114.3 79.49L121.03 86.22L91 86.22L91 98.22L121.03 98.22L114.3 104.94L122.79 113.43Z" fill="#2079D4"/>
<path d="M36.19 67.2H37.64L38.48 72.82H38.63L39.85 67.2H41.45L42.67 72.82H42.82L43.66 67.2H45.11L43.81 74H41.72L40.65 68.83L39.58 74H37.49L36.19 67.2ZM45.4869 67.2H46.9369L47.7769 72.82H47.9269L49.1469 67.2H50.7469L51.9669 72.82H52.1169L52.9569 67.2H54.4069L53.1069 74H51.0169L49.9469 68.83L48.8769 74H46.7869L45.4869 67.2ZM54.7838 67.2H56.2338L57.0738 72.82H57.2238L58.4438 67.2H60.0438L61.2638 72.82H61.4138L62.2538 67.2H63.7038L62.4038 74H60.3138L59.2438 68.83L58.1738 74H56.0838L54.7838 67.2ZM64.1577 74V72.34H65.5977V74H64.1577Z" fill="#2079D4"/>
</g>
<defs>
<clipPath id="clip0_40002001_41379">
<rect width="176" height="176" fill="white"/>
</clipPath>
</defs>
</svg>
