<svg xmlns="http://www.w3.org/2000/svg" viewBox="0 0 160 160"><defs><style>.cls-1{fill:none;}.cls-2{fill:#f0f6fc;}.cls-3{fill:#2079d4;}.cls-4{fill:#365066;}.cls-5{fill:#fff;}.cls-6{fill:#50a7ef;}.cls-7{fill:#CC7A00;}</style></defs><g id="proto_flussi"><rect class="cls-1" width="160" height="160"/><path class="cls-2" d="M79,150A70,70,0,1,0,9,80,70,70,0,0,0,79,150Z"/><rect class="cls-3" x="18" y="60" width="42" height="28" rx="1"/><path class="cls-4" d="M37,88v27.5a1.51,1.51,0,0,0,1.52,1.5h78.16a1.5,1.5,0,1,0,0-3H40V88Z"/><path class="cls-4" d="M96,33H62.9a1.5,1.5,0,0,0,0,3H96"/><path class="cls-4" d="M121,47v63.85a1.5,1.5,0,0,1-3,0V76H60V73h58V47S121,46.91,121,47Z"/><circle class="cls-5" cx="119.46" cy="115.46" r="13.5"/><path class="cls-4" d="M119.46,103.46a12,12,0,1,1-12,12,12,12,0,0,1,12-12m0-3a15,15,0,1,0,15,15,15,15,0,0,0-15-15Z"/><polygon class="cls-6" points="119.42 56.08 97.08 74.5 119.5 92.88 140.31 74.4 119.42 56.08"/><path class="cls-3" d="M140,47H96V27h44Z"/><path class="cls-7" d="M140,27H96V21h44Z"/><circle class="cls-5" cx="64" cy="35" r="13.5"/><path class="cls-4" d="M64,23A12,12,0,1,1,52,35,12,12,0,0,1,64,23m0-3A15,15,0,1,0,79,35,15,15,0,0,0,64,20Z"/></g></svg>