<svg xmlns="http://www.w3.org/2000/svg" viewBox="0 0 160 160"><defs><style>.cls-1{fill:none;}.cls-2{fill:#f0f6fc;}.cls-3{fill:#fff;}.cls-4{fill:#365066;}.cls-5{fill:#CC7A00;}.cls-6{fill:#50a7ef;}</style></defs><g id="utente_tipo"><rect class="cls-1" width="160" height="160"/><path class="cls-2" d="M79,150A70,70,0,1,0,9,80,70,70,0,0,0,79,150Z"/><path class="cls-3" d="M126.47,143.5h-.35l-97.89-6A5.59,5.59,0,0,1,23,131.54l6.33-101.7A5.58,5.58,0,0,1,34.9,24.6l.35,0,97.88,6a5.56,5.56,0,0,1,5.22,5.91L132,138.27A5.59,5.59,0,0,1,126.47,143.5Z"/><path class="cls-4" d="M34.9,26.1h.26l97.88,6a4.07,4.07,0,0,1,2.8,1.37,4.11,4.11,0,0,1,1,3l-6.33,101.7a4.08,4.08,0,0,1-4.06,3.82h-.26l-97.88-6a4.07,4.07,0,0,1-3.82-4.32l6.33-101.7A4.07,4.07,0,0,1,34.9,26.1m0-3a7.08,7.08,0,0,0-7.06,6.64l-6.33,101.7A7.1,7.1,0,0,0,28.14,139L126,145h.45a7.08,7.08,0,0,0,7.05-6.64l6.33-101.7a7.07,7.07,0,0,0-6.63-7.5l-97.88-6-.44,0Z"/><rect class="cls-3" x="21.5" y="22.5" width="103" height="113" rx="5.38"/><path class="cls-4" d="M119.12,24A3.88,3.88,0,0,1,123,27.88V130.12a3.88,3.88,0,0,1-3.88,3.88H26.88A3.88,3.88,0,0,1,23,130.12V27.88A3.88,3.88,0,0,1,26.88,24h92.24m0-3H26.88A6.88,6.88,0,0,0,20,27.88V130.12A6.88,6.88,0,0,0,26.88,137h92.24a6.88,6.88,0,0,0,6.88-6.88V27.88A6.88,6.88,0,0,0,119.12,21Z"/><polygon class="cls-4" points="60.84 110.05 35 110.05 35 113 60.84 113 60.84 110.05 60.84 110.05"/><polygon class="cls-4" points="69 104 35 104 35 106.75 69 106.75 69 104 69 104"/><rect class="cls-5" x="78" y="57.17" width="32" height="5.83"/><rect class="cls-6" x="78" y="68" width="32" height="25.93"/><circle class="cls-3" cx="50" cy="52" r="10.5"/><path class="cls-4" d="M50,43a9,9,0,1,1-9,9,9,9,0,0,1,9-9m0-3A12,12,0,1,0,62,52,12,12,0,0,0,50,40Z"/><path class="cls-3" d="M36.5,92.5V79.33A10.86,10.86,0,0,1,47.33,68.5H53A10.51,10.51,0,0,1,63.49,79V92.5Z"/><path class="cls-4" d="M47.33,70H53a9,9,0,0,1,9,9V91H38V79.33A9.37,9.37,0,0,1,47.33,70h0m0-3A12.37,12.37,0,0,0,35,79.33V94H65V79A12,12,0,0,0,53,67Z"/></g></svg>