<svg width="160" height="160" viewBox="0 0 160 160" fill="none" xmlns="http://www.w3.org/2000/svg">
<path d="M80 150C93.8447 150 107.378 145.895 118.89 138.203C130.401 130.511 139.373 119.579 144.672 106.788C149.97 93.997 151.356 79.9224 148.655 66.3437C145.954 52.765 139.287 40.2922 129.497 30.5026C119.708 20.7129 107.235 14.046 93.6563 11.3451C80.0777 8.6441 66.003 10.0303 53.2122 15.3285C40.4213 20.6266 29.4888 29.5987 21.7971 41.1101C14.1054 52.6216 10 66.1553 10 80C10 98.5652 17.375 116.37 30.5025 129.498C43.6301 142.625 61.4348 150 80 150V150Z" fill="#F0F6FC"/>
<path d="M33.349 51.2926V61.7807H91.4236H149.498V51.2926C149.498 51.0857 149.416 50.8872 149.27 50.7409C149.123 50.5946 148.925 50.5125 148.718 50.5125H34.1291C33.9222 50.5125 33.7238 50.5946 33.5775 50.7409C33.4312 50.8872 33.349 51.0857 33.349 51.2926Z" fill="white"/>
<path d="M41.1867 59.2171C42.6228 59.2171 43.787 58.0528 43.787 56.6167C43.787 55.1806 42.6228 54.0164 41.1867 54.0164C39.7505 54.0164 38.5863 55.1806 38.5863 56.6167C38.5863 58.0528 39.7505 59.2171 41.1867 59.2171Z" fill="#365066"/>
<path d="M48.9878 59.2171C50.4239 59.2171 51.5882 58.0528 51.5882 56.6167C51.5882 55.1806 50.4239 54.0164 48.9878 54.0164C47.5517 54.0164 46.3875 55.1806 46.3875 56.6167C46.3875 58.0528 47.5517 59.2171 48.9878 59.2171Z" fill="#365066"/>
<path d="M56.7889 59.2171C58.225 59.2171 59.3892 58.0528 59.3892 56.6167C59.3892 55.1806 58.225 54.0164 56.7889 54.0164C55.3528 54.0164 54.1885 55.1806 54.1885 56.6167C54.1885 58.0528 55.3528 59.2171 56.7889 59.2171Z" fill="#365066"/>
<path d="M148.755 47.9487H34.1657C33.2699 47.951 32.4114 48.3079 31.7779 48.9414C31.1445 49.5748 30.7876 50.4333 30.7853 51.3292V126.046C30.7876 126.942 31.1445 127.8 31.7779 128.434C32.4114 129.067 33.2699 129.424 34.1657 129.427H148.755C149.651 129.424 150.509 129.067 151.143 128.434C151.776 127.8 152.133 126.942 152.135 126.046V51.3292C152.133 50.4333 151.776 49.5748 151.143 48.9414C150.509 48.3079 149.651 47.951 148.755 47.9487ZM149.535 126.046C149.535 126.253 149.453 126.451 149.306 126.598C149.16 126.744 148.962 126.826 148.755 126.826H91.4602H34.1657C33.9588 126.826 33.7604 126.744 33.6141 126.598C33.4678 126.451 33.3856 126.253 33.3856 126.046V64.4176H149.535V126.046ZM149.535 61.8173H91.4602H33.3856V51.3292C33.3856 51.1223 33.4678 50.9239 33.6141 50.7776C33.7604 50.6313 33.9588 50.5491 34.1657 50.5491H148.755C148.962 50.5491 149.16 50.6313 149.306 50.7776C149.453 50.9239 149.535 51.1223 149.535 51.3292V61.8173Z" fill="#365066"/>
<path d="M149.343 126.73C149.489 126.582 149.571 126.383 149.571 126.175V64.1857H33.349V126.175C33.349 126.383 33.4312 126.582 33.5776 126.73C33.724 126.877 33.9226 126.959 34.1296 126.959H91.4602H148.791C148.998 126.959 149.196 126.877 149.343 126.73Z" fill="white"/>
<path d="M97.9794 96.5558H59.8409V99.1561H97.9794V96.5558Z" fill="#2079D4"/>
<path d="M85.8444 104.79H59.8409V109.991H85.8444V104.79Z" fill="#CC7A00"/>
<path d="M97.9794 113.025H59.8409V115.625H97.9794V113.025Z" fill="#2079D4"/>
<path d="M125.717 76.1864C126.406 76.1864 127.068 76.4604 127.555 76.948C128.043 77.4357 128.317 78.0971 128.317 78.7868C128.317 79.4764 128.043 80.1378 127.555 80.6255C127.068 81.1132 126.406 81.3871 125.717 81.3871H65.0416C64.3519 81.3871 63.6905 81.1132 63.2029 80.6255C62.7152 80.1378 62.4412 79.4764 62.4412 78.7868C62.4412 78.0971 62.7152 77.4357 63.2029 76.948C63.6905 76.4604 64.3519 76.1864 65.0416 76.1864H125.717ZM125.717 73.5861H65.0416C63.6623 73.5861 62.3395 74.134 61.3641 75.1093C60.3888 76.0846 59.8409 77.4075 59.8409 78.7868C59.8409 80.1661 60.3888 81.4889 61.3641 82.4642C62.3395 83.4395 63.6623 83.9875 65.0416 83.9875H125.717C127.096 83.9875 128.419 83.4395 129.394 82.4642C130.369 81.4889 130.917 80.1661 130.917 78.7868C130.917 77.4075 130.369 76.0846 129.394 75.1093C128.419 74.134 127.096 73.5861 125.717 73.5861Z" fill="#50A7EF"/>
<path d="M82.3773 88.3212H59.8409V93.5219H82.3773V88.3212Z" fill="#CC7A00"/>
<path d="M21.3849 42.7468V53.2349H79.4595H137.534V42.7468C137.534 42.5399 137.452 42.3415 137.306 42.1952C137.159 42.0489 136.961 41.9667 136.754 41.9667H22.165C21.9581 41.9667 21.7597 42.0489 21.6134 42.1952C21.4671 42.3415 21.3849 42.5399 21.3849 42.7468Z" fill="white"/>
<path d="M29.2225 50.6712C30.6587 50.6712 31.8229 49.507 31.8229 48.0708C31.8229 46.6347 30.6587 45.4705 29.2225 45.4705C27.7864 45.4705 26.6222 46.6347 26.6222 48.0708C26.6222 49.507 27.7864 50.6712 29.2225 50.6712Z" fill="#365066"/>
<path d="M37.0237 50.6712C38.4598 50.6712 39.6241 49.507 39.6241 48.0708C39.6241 46.6347 38.4598 45.4705 37.0237 45.4705C35.5876 45.4705 34.4233 46.6347 34.4233 48.0708C34.4233 49.507 35.5876 50.6712 37.0237 50.6712Z" fill="#365066"/>
<path d="M44.8249 50.6712C46.261 50.6712 47.4253 49.507 47.4253 48.0708C47.4253 46.6347 46.261 45.4705 44.8249 45.4705C43.3888 45.4705 42.2245 46.6347 42.2245 48.0708C42.2245 49.507 43.3888 50.6712 44.8249 50.6712Z" fill="#365066"/>
<path d="M136.791 39.403H22.2018C21.3059 39.4052 20.4474 39.7621 19.8139 40.3956C19.1805 41.0291 18.8236 41.8876 18.8213 42.7834V117.5C18.8236 118.396 19.1805 119.255 19.8139 119.888C20.4474 120.522 21.3059 120.878 22.2018 120.881H136.791C137.687 120.878 138.545 120.522 139.179 119.888C139.812 119.255 140.169 118.396 140.171 117.5V42.7834C140.169 41.8876 139.812 41.0291 139.179 40.3956C138.545 39.7621 137.687 39.4052 136.791 39.403ZM137.571 117.5C137.571 117.707 137.489 117.906 137.342 118.052C137.196 118.198 136.998 118.28 136.791 118.28H79.4963H22.2018C21.9949 118.28 21.7964 118.198 21.6501 118.052C21.5038 117.906 21.4216 117.707 21.4216 117.5V55.8719H137.571V117.5ZM137.571 53.2715H79.4963H21.4216V42.7834C21.4216 42.5765 21.5038 42.3781 21.6501 42.2318C21.7964 42.0855 21.9949 42.0033 22.2018 42.0033H136.791C136.998 42.0033 137.196 42.0855 137.342 42.2318C137.489 42.3781 137.571 42.5765 137.571 42.7834V53.2715Z" fill="#365066"/>
<path d="M137.379 118.184C137.525 118.036 137.607 117.837 137.607 117.629V55.6398H21.3849V117.629C21.3849 117.837 21.4671 118.036 21.6135 118.184C21.7599 118.331 21.9585 118.413 22.1655 118.413H79.4961H136.827C137.034 118.413 137.232 118.331 137.379 118.184Z" fill="white"/>
<path d="M86.0154 88.0099H47.8769V90.6102H86.0154V88.0099Z" fill="#2079D4"/>
<path d="M73.8804 96.2443H47.8769V101.445H73.8804V96.2443Z" fill="#CC7A00"/>
<path d="M86.0154 104.479H47.8769V107.079H86.0154V104.479Z" fill="#2079D4"/>
<path d="M113.753 67.6405C114.442 67.6405 115.104 67.9145 115.591 68.4021C116.079 68.8898 116.353 69.5512 116.353 70.2409C116.353 70.9305 116.079 71.5919 115.591 72.0796C115.104 72.5673 114.442 72.8412 113.753 72.8412H53.0776C52.3879 72.8412 51.7265 72.5673 51.2389 72.0796C50.7512 71.5919 50.4772 70.9305 50.4772 70.2409C50.4772 69.5512 50.7512 68.8898 51.2389 68.4021C51.7265 67.9145 52.3879 67.6405 53.0776 67.6405H113.753ZM113.753 65.0402H53.0776C51.6983 65.0402 50.3755 65.5881 49.4001 66.5634C48.4248 67.5387 47.8769 68.8616 47.8769 70.2409C47.8769 71.6202 48.4248 72.943 49.4001 73.9183C50.3755 74.8936 51.6983 75.4416 53.0776 75.4416H113.753C115.132 75.4416 116.455 74.8936 117.43 73.9183C118.405 72.943 118.953 71.6202 118.953 70.2409C118.953 68.8616 118.405 67.5387 117.43 66.5634C116.455 65.5881 115.132 65.0402 113.753 65.0402Z" fill="#50A7EF"/>
<path d="M70.4133 79.7753H47.8769V84.976H70.4133V79.7753Z" fill="#CC7A00"/>
<path d="M9.4209 34.201V44.6891H67.4955H125.57V34.201C125.57 33.9941 125.488 33.7957 125.342 33.6494C125.195 33.5031 124.997 33.4209 124.79 33.4209H10.201C9.99411 33.4209 9.79568 33.5031 9.64939 33.6494C9.50309 33.7957 9.4209 33.9941 9.4209 34.201Z" fill="white"/>
<path d="M17.2585 42.1254C18.6946 42.1254 19.8589 40.9612 19.8589 39.525C19.8589 38.0889 18.6946 36.9247 17.2585 36.9247C15.8224 36.9247 14.6581 38.0889 14.6581 39.525C14.6581 40.9612 15.8224 42.1254 17.2585 42.1254Z" fill="#365066"/>
<path d="M25.0597 42.1254C26.4958 42.1254 27.6601 40.9612 27.6601 39.525C27.6601 38.0889 26.4958 36.9247 25.0597 36.9247C23.6236 36.9247 22.4594 38.0889 22.4594 39.525C22.4594 40.9612 23.6236 42.1254 25.0597 42.1254Z" fill="#365066"/>
<path d="M32.8607 42.1254C34.2969 42.1254 35.4611 40.9612 35.4611 39.525C35.4611 38.0889 34.2969 36.9247 32.8607 36.9247C31.4246 36.9247 30.2604 38.0889 30.2604 39.525C30.2604 40.9612 31.4246 42.1254 32.8607 42.1254Z" fill="#365066"/>
<path d="M124.827 30.8572H10.2376C9.34173 30.8595 8.48322 31.2164 7.84976 31.8498C7.21629 32.4833 6.8594 33.3418 6.85712 34.2376V108.955C6.8594 109.85 7.21629 110.709 7.84976 111.342C8.48322 111.976 9.34173 112.333 10.2376 112.335H124.827C125.722 112.333 126.581 111.976 127.214 111.342C127.848 110.709 128.205 109.85 128.207 108.955V34.2376C128.205 33.3418 127.848 32.4833 127.214 31.8498C126.581 31.2164 125.722 30.8595 124.827 30.8572ZM125.607 108.955C125.607 109.161 125.524 109.36 125.378 109.506C125.232 109.652 125.033 109.735 124.827 109.735H67.5321H10.2376C10.0307 109.735 9.83226 109.652 9.68596 109.506C9.53966 109.36 9.45747 109.161 9.45747 108.955V47.3261H125.607V108.955ZM125.607 44.7257H67.5321H9.45747V34.2376C9.45747 34.0307 9.53966 33.8323 9.68596 33.686C9.83226 33.5397 10.0307 33.4575 10.2376 33.4575H124.827C125.033 33.4575 125.232 33.5397 125.378 33.686C125.524 33.8323 125.607 34.0307 125.607 34.2376V44.7257Z" fill="#365066"/>
<path d="M125.415 109.638C125.561 109.491 125.643 109.291 125.643 109.083V47.094H9.4209V109.083C9.4209 109.291 9.50314 109.491 9.64953 109.638C9.79592 109.785 9.99447 109.868 10.2015 109.868H67.5321H124.863C125.07 109.868 125.268 109.785 125.415 109.638Z" fill="white"/>
<path d="M74.0513 79.4642H35.9128V82.0646H74.0513V79.4642Z" fill="#2079D4"/>
<path d="M61.4321 88.0001H35.4285V93.2008H61.4321V88.0001Z" fill="#50A7EF"/>
<path d="M74.0513 95.933H35.9128V98.5333H74.0513V95.933Z" fill="#2079D4"/>
<path d="M101.788 59.0949C102.478 59.0949 103.14 59.3688 103.627 59.8565C104.115 60.3441 104.389 61.0056 104.389 61.6952C104.389 62.3849 104.115 63.0463 103.627 63.5339C103.14 64.0216 102.478 64.2956 101.788 64.2956H41.1135C40.4238 64.2956 39.7624 64.0216 39.2748 63.5339C38.7871 63.0463 38.5131 62.3849 38.5131 61.6952C38.5131 61.0056 38.7871 60.3441 39.2748 59.8565C39.7624 59.3688 40.4238 59.0949 41.1135 59.0949H101.788ZM101.788 56.4945H41.1135C39.7342 56.4945 38.4114 57.0424 37.436 58.0178C36.4607 58.9931 35.9128 60.3159 35.9128 61.6952C35.9128 63.0745 36.4607 64.3974 37.436 65.3727C38.4114 66.348 39.7342 66.8959 41.1135 66.8959H101.788C103.168 66.8959 104.491 66.348 105.466 65.3727C106.441 64.3974 106.989 63.0745 106.989 61.6952C106.989 60.3159 106.441 58.9931 105.466 58.0178C104.491 57.0424 103.168 56.4945 101.788 56.4945Z" fill="#50A7EF"/>
<path d="M58.4492 71.2296H35.9128V76.4303H58.4492V71.2296Z" fill="#50A7EF"/>
<path d="M132.477 135.49C131.949 135.491 131.426 135.387 130.937 135.185C130.449 134.984 130.006 134.688 129.632 134.314L104.612 109.304L110.301 103.615L135.322 128.625C135.696 128.998 135.992 129.442 136.194 129.93C136.397 130.418 136.501 130.941 136.501 131.469C136.501 131.998 136.397 132.521 136.194 133.009C135.992 133.497 135.696 133.941 135.322 134.314C134.948 134.688 134.504 134.984 134.016 135.185C133.528 135.387 133.005 135.491 132.477 135.49Z" fill="white"/>
<path d="M110.302 105.746L134.257 129.7C134.714 130.175 134.967 130.81 134.96 131.469C134.953 132.128 134.688 132.758 134.222 133.223C133.755 133.688 133.124 133.952 132.465 133.957C131.806 133.961 131.172 133.707 130.698 133.249L106.744 109.304L110.302 105.746ZM110.302 101.483L102.482 109.304L128.567 135.38C129.081 135.893 129.69 136.301 130.361 136.579C131.032 136.857 131.751 137 132.478 137C133.204 137 133.923 136.857 134.594 136.579C135.265 136.301 135.875 135.893 136.388 135.38C137.421 134.34 138 132.935 138 131.469C138 130.004 137.421 128.599 136.388 127.559L110.302 101.483Z" fill="#365066"/>
<path d="M87.7545 117.638C80.1513 117.663 72.7655 115.102 66.809 110.377C60.8525 105.652 56.6792 99.0417 54.9739 91.6322C54.5343 89.736 54.2585 87.8056 54.1496 85.8622C54.1094 85.192 54.0893 84.5487 54.0893 83.9321C54.0953 77.2726 56.0756 70.7644 59.78 65.2303C63.4843 59.6962 68.7463 55.3847 74.9008 52.8408C81.0553 50.2969 87.8258 49.6349 94.3564 50.9385C100.887 52.2421 106.885 55.4527 111.591 60.1645C116.297 64.8762 119.5 70.8776 120.796 77.4098C122.092 83.942 121.422 90.7117 118.871 96.8632C116.319 103.015 112.002 108.271 106.463 111.969C100.925 115.667 94.414 117.64 87.7545 117.638Z" fill="white"/>
<path d="M87.7545 51.7646C93.8009 51.7643 99.7249 53.4681 104.847 56.6807C109.97 59.8933 114.083 64.4845 116.715 69.9277C119.347 75.371 120.392 81.446 119.73 87.456C119.067 93.466 116.725 99.1676 112.97 103.907C109.215 108.646 104.201 112.232 98.5021 114.251C92.8031 116.271 86.6502 116.644 80.749 115.327C74.8478 114.01 69.4373 111.056 65.138 106.805C60.8387 102.553 57.8247 97.1764 56.4416 91.2903C56.0188 89.4739 55.7564 87.6239 55.6575 85.7615C55.6575 85.1584 55.5972 84.5452 55.5972 83.932C55.5972 75.4007 58.9862 67.2188 65.0188 61.1862C71.0513 55.1537 79.2333 51.7646 87.7646 51.7646H87.7545ZM87.7545 48.7489C78.4234 48.7489 69.4744 52.4557 62.8763 59.0538C56.2782 65.6519 52.5714 74.6009 52.5714 83.932C52.5714 84.6055 52.5714 85.279 52.6317 85.9425C53.0245 92.8043 55.4184 99.4008 59.5179 104.917C63.6174 110.434 69.243 114.629 75.6998 116.985C82.1566 119.34 89.162 119.753 95.8507 118.172C102.539 116.591 108.619 113.085 113.337 108.088C118.056 103.091 121.208 96.821 122.404 90.0528C123.6 83.2846 122.787 76.3143 120.066 70.0029C117.345 63.6914 112.835 58.3151 107.092 54.538C101.35 50.7609 94.6276 48.7483 87.7545 48.7489V48.7489Z" fill="#365066"/>
<path d="M110.875 76.6099H65.6394V79.6941H110.875V76.6099Z" fill="#2079D4"/>
<path d="M96.4817 86.3767H65.6394V92.5452H96.4817V86.3767Z" fill="#CC7A00"/>
<path d="M110.875 96.1433H65.6394V99.2275H110.875V96.1433Z" fill="#2079D4"/>
<path d="M93.3746 66.8431H66.6445V73.0116H93.3746V66.8431Z" fill="#CC7A00"/>
</svg>
