<svg xmlns="http://www.w3.org/2000/svg" viewBox="0 0 176 176"><defs><style>.cls-1{fill:#50a7ef;}.cls-2{fill:#365066;}.cls-3{fill:#65dde0;}.cls-4{fill:#2079d4;}.cls-5{fill:none;}</style></defs><g id="kit_analitics"><rect class="cls-1" x="115" y="63" width="34" height="36"/><rect class="cls-1" x="115" y="102" width="34" height="6"/><path class="cls-2" d="M157.1,35H24.9A3.91,3.91,0,0,0,21,38.9v86.2a3.91,3.91,0,0,0,3.9,3.9h7.37l3.25-3H24.9a.9.9,0,0,1-.9-.9V38.9a.9.9,0,0,1,.9-.9H157.1a.9.9,0,0,1,.9.9v86.2a.9.9,0,0,1-.9.9H100.75a39.21,39.21,0,0,1-2.61,3h59a3.91,3.91,0,0,0,3.9-3.9V38.9A3.91,3.91,0,0,0,157.1,35Z"/><circle class="cls-2" cx="38" cy="45" r="3"/><circle class="cls-2" cx="47" cy="45" r="3"/><circle class="cls-2" cx="56" cy="45" r="3"/><path class="cls-2" d="M45.16,132.07,26.23,149.54a5.5,5.5,0,0,1-7.46-8.08l19-17.52c.48.7,1,1.39,1.51,2.06.09.13.18.25.28.37L20.8,143.66a2.51,2.51,0,0,0-.8,1.74,2.55,2.55,0,0,0,.66,1.8,2.5,2.5,0,0,0,1.84.8,2.55,2.55,0,0,0,1.7-.66l18.72-17.28C43.64,130.77,44.39,131.43,45.16,132.07Z"/><rect class="cls-2" x="22.26" y="51" width="136.74" height="3"/><path class="cls-2" d="M70,63a39,39,0,0,0-32.25,60.94c.48.7,1,1.39,1.51,2.06.09.13.18.25.28.37.74.91,1.51,1.79,2.32,2.63.35.36.7.72,1.06,1.06.72.71,1.47,1.37,2.24,2A39,39,0,1,0,70,63Zm26.8,63a34.21,34.21,0,0,1-3,3,35.91,35.91,0,0,1-46.37,1c-.4-.32-.79-.65-1.18-1a34.31,34.31,0,0,1-3-3,36.82,36.82,0,0,1-3.2-4.14A36,36,0,1,1,96.8,126Z"/><rect class="cls-3" x="78" y="81" width="12" height="42" transform="translate(168 204) rotate(180)"/><rect class="cls-4" x="63" y="93" width="12" height="30" transform="translate(138 216) rotate(180)"/><rect class="cls-1" x="48" y="107" width="12" height="16"/><rect class="cls-5" width="176" height="176"/></g></svg>