<svg width="176" height="176" viewBox="0 0 176 176" fill="none" xmlns="http://www.w3.org/2000/svg">
<g clip-path="url(#clip0_1581_14028)">
<path d="M120 45.5C120 44.6716 119.328 44 118.5 44C117.672 44 117 44.6716 117 45.5L120 45.5ZM117 48.5L117 50L120 50L120 48.5L117 48.5ZM117 45.5L117 48.5L120 48.5L120 45.5L117 45.5Z" fill="#365066"/>
<path fill-rule="evenodd" clip-rule="evenodd" d="M117.5 112C116.672 112 116 112.672 116 113.5V122.5C116 123.328 116.672 124 117.5 124C118.328 124 119 123.328 119 122.5V113.5C119 112.672 118.328 112 117.5 112ZM125.938 113.092C125.588 112.341 124.695 112.016 123.944 112.366C123.194 112.716 122.869 113.609 123.219 114.359L128.713 126.141C129.063 126.892 129.955 127.217 130.706 126.867C131.457 126.517 131.782 125.624 131.432 124.874L125.938 113.092ZM102.634 124.874C102.284 125.624 102.609 126.517 103.36 126.867C104.11 127.217 105.003 126.892 105.353 126.141L110.847 114.359C111.197 113.609 110.872 112.716 110.121 112.366C109.371 112.016 108.478 112.341 108.128 113.092L102.634 124.874Z" fill="#365066"/>
<path d="M74 50H160V106.5C160 110.918 156.418 114.5 152 114.5H82C77.5817 114.5 74 110.918 74 106.5V50Z" fill="#2079D4"/>
<path d="M35.1373 73.8198C32.8925 73.8198 30.6981 74.4855 28.8316 75.7326C26.9651 76.9798 25.5103 78.7524 24.6513 80.8264C23.7922 82.9003 23.5674 85.1824 24.0054 87.3841C24.4433 89.5858 25.5243 91.6082 27.1116 93.1955C28.699 94.7828 30.7213 95.8638 32.923 96.3017C35.1247 96.7397 37.4068 96.5149 39.4808 95.6559C41.5547 94.7968 43.3273 93.342 44.5745 91.4755C45.8216 89.609 46.4873 87.4146 46.4873 85.1698C46.4847 82.1604 45.288 79.2751 43.16 77.1471C41.0321 75.0191 38.1467 73.8225 35.1373 73.8198M35.1373 70.8198C37.9755 70.8198 40.7499 71.6614 43.1097 73.2382C45.4696 74.815 47.3089 77.0562 48.395 79.6783C49.4811 82.3004 49.7653 85.1857 49.2116 87.9694C48.6579 90.753 47.2912 93.3099 45.2843 95.3168C43.2774 97.3237 40.7205 98.6904 37.9368 99.2441C35.1532 99.7978 32.2679 99.5136 29.6458 98.4275C27.0237 97.3414 24.7825 95.5021 23.2057 93.1423C21.6289 90.7824 20.7873 88.008 20.7873 85.1698C20.7873 81.364 22.2992 77.714 24.9903 75.0228C27.6815 72.3317 31.3314 70.8198 35.1373 70.8198V70.8198Z" fill="#365066"/>
<path d="M31.4576 106C28.2466 106.003 25.1679 107.279 22.8974 109.55C20.627 111.82 19.3502 114.899 19.3476 118.11V133H51.0176V118.12C51.0176 114.907 49.742 111.826 47.4712 109.553C45.2005 107.281 42.1203 106.003 38.9076 106H31.4576ZM31.4576 103H38.9076C40.8927 103 42.8583 103.391 44.6922 104.151C46.5261 104.911 48.1923 106.025 49.5955 107.429C50.9987 108.833 52.1115 110.5 52.8703 112.335C53.629 114.169 54.0189 116.135 54.0176 118.12V136H16.3476V118.12C16.3449 116.135 16.7339 114.168 17.4922 112.333C18.2505 110.498 19.3632 108.831 20.7667 107.426C22.1702 106.022 23.8369 104.908 25.6714 104.148C27.5058 103.389 29.4721 102.999 31.4576 103V103Z" fill="#365066"/>
<path d="M18.0088 58.79H45.0088V67L53.0088 58.79H64.0088C65.1688 58.79 66.0088 57.48 66.0088 56.06V37.55C66.062 36.9347 65.8719 36.3231 65.4793 35.8463C65.0867 35.3696 64.5229 35.0657 63.9088 35H18.1088C17.4947 35.0657 16.9309 35.3696 16.5383 35.8463C16.1456 36.3231 15.9556 36.9347 16.0088 37.55V56.06C16.0088 57.48 16.8488 58.79 18.0088 58.79Z" fill="#CC7A00"/>
<path fill-rule="evenodd" clip-rule="evenodd" d="M129.879 67.8306V74.3306H135.608V79.7055H129.837V89.3305C129.837 90.2889 129.879 90.9139 129.92 91.3305C129.962 91.7055 130.128 92.0388 130.419 92.3305C130.709 92.6222 131.166 92.7472 131.789 92.7472L135.359 92.6638L135.65 97.6638C133.574 98.1222 131.955 98.3722 130.875 98.3722C128.052 98.3722 126.142 97.7472 125.146 96.4555C124.108 95.2055 123.61 92.8722 123.61 89.4555V67.8306H129.879ZM117.296 74.7318V97.7848H110.982V74.7318H117.296ZM101.658 73.2634C102.782 73.2634 103.733 73.642 104.468 74.3992C105.203 75.1564 105.549 76.0819 105.549 77.2177C105.549 78.3535 105.203 79.2368 104.468 79.994C103.776 80.6671 102.868 81.0457 101.701 81.0457C100.577 81.0457 99.6257 80.6671 98.8907 79.9099C98.1557 79.1527 97.7666 78.2273 97.7666 77.1335C97.7666 76.0398 98.1557 75.1144 98.8475 74.3572C99.5825 73.6 100.534 73.2634 101.658 73.2634Z" fill="white"/>
<path d="M75.9485 89.5399C76.7834 88.1087 78.6203 87.6253 80.0515 88.4601C81.4826 89.295 81.966 91.1319 81.1312 92.5631L61.6428 125.972C60.808 127.403 58.971 127.886 57.5399 127.051C56.1087 126.217 55.6253 124.38 56.4601 122.949L75.9485 89.5399Z" fill="#365066" stroke="white" stroke-width="3" stroke-linecap="round"/>
</g>
<defs>
<clipPath id="clip0_1581_14028">
<rect width="176" height="176" fill="white"/>
</clipPath>
</defs>
</svg>
