<svg width="160" height="160" viewBox="0 0 160 160" fill="none" xmlns="http://www.w3.org/2000/svg">
<g clip-path="url(#clip0_1504_13796)">
<path d="M79 150C92.8447 150 106.378 145.895 117.89 138.203C129.401 130.511 138.373 119.579 143.672 106.788C148.97 93.997 150.356 79.9224 147.655 66.3437C144.954 52.765 138.287 40.2922 128.497 30.5026C118.708 20.7129 106.235 14.046 92.6563 11.3451C79.0777 8.6441 65.003 10.0303 52.2122 15.3285C39.4213 20.6266 28.4888 29.5987 20.7971 41.1101C13.1054 52.6216 9 66.1553 9 80C9 98.5652 16.375 116.37 29.5025 129.498C42.6301 142.625 60.4348 150 79 150Z" fill="#F0F6FC"/>
<path fill-rule="evenodd" clip-rule="evenodd" d="M124.5 65.5V68.5H127.5V65.5H124.5ZM127.5 62.5V59.5H124.5V62.5H127.5ZM127.5 56.5V53.5H124.5V56.5H127.5ZM127.5 50.5V47.5H124.5V50.5H127.5ZM127.5 44.5V41.5H124.5V44.5H127.5ZM127.5 38.5V35.5H124.5V38.5H127.5ZM127.5 32.5V29.5H124.5V32.5H127.5ZM124.5 26.5H126L127.5 26.5V25L127.5 23.5H126H124.5H124.438V26.5H124.5ZM71.5 133.455V133.5V136.5H74.35H74.5L74.5 133.455H71.5ZM74.5 130.364L74.5 127.273H71.5V130.364H74.5ZM74.5 124.182L74.5 121.091H71.5V124.182H74.5ZM74.5 118L74.5 114.909H71.5V118H74.5ZM74.5 111.818V108.727L71.5 108.727V111.818H74.5ZM74.5 105.636V102.545H71.5V105.636H74.5ZM74.5 99.4546V96.3636H71.5V99.4546H74.5ZM74.5 93.2727V90.1818H71.5L71.5 93.2727H74.5ZM74.5 87.0909L74.5 84H71.5L71.5 87.0909H74.5ZM74.5 80.9091L74.5 77.8182H71.5L71.5 80.9091H74.5ZM74.5 74.7273L74.5 71.6364H71.5L71.5 74.7273H74.5ZM71.5 68.5455H74.5L74.5 65.5H71.5L71.5 68.5455ZM127.5 103.5V106.45H124.5V103.5H127.5ZM124.5 112.25V109.35H127.5V112.25H124.5ZM124.5 118.05V115.15H127.5V118.05H124.5ZM124.5 123.85V120.95L127.5 120.95V123.85H124.5ZM124.5 129.65V126.75H127.5V129.65L124.5 129.65ZM127.5 132.55V135.5H124.5V132.55H127.5ZM98.5 133.472V136.5H98.65H101.5V133.5V133.472H98.5ZM101.5 130.417V127.361L98.5 127.361V130.417H101.5ZM101.5 124.306V121.25H98.5V124.306H101.5ZM101.5 118.194V115.139H98.5V118.194H101.5ZM101.5 112.083V109.028H98.5V112.083H101.5ZM101.5 105.972V102.917L98.5 102.917V105.972L101.5 105.972ZM101.5 99.8611V96.8055L98.5 96.8056V99.8611L101.5 99.8611ZM101.5 93.75V90.6944L98.5 90.6944V93.75L101.5 93.75ZM101.5 87.6389V84.5833H98.5V87.6389L101.5 87.6389ZM101.5 81.5278V78.4722H98.5V81.5278H101.5ZM101.5 75.4167V72.3611H98.5V75.4167H101.5ZM101.5 69.3055V66.25H98.5V69.3055H101.5ZM101.5 63.1944V60.1389H98.5V63.1944H101.5ZM101.5 57.0833V54.0278H98.5V57.0833H101.5ZM101.5 50.9722V47.9166H98.5V50.9722H101.5ZM101.5 44.8611V41.8055H98.5V44.8611H101.5ZM101.5 38.75V35.6944H98.5V38.75H101.5ZM101.5 32.6389V29.5833H98.5V32.6389H101.5ZM98.5 26.5277L101.5 26.5277V26.5H102.562V23.5H101.5H101H98.5V26.5277ZM118.188 23.5H121.312V26.5H118.188V23.5ZM111.938 23.5H115.062V26.5H111.938V23.5ZM105.688 23.5H108.812V26.5H105.688V23.5ZM95.95 133.5H93.25V136.5H95.95V133.5ZM90.55 133.5H87.85V136.5H90.55V133.5ZM85.15 133.5H82.45V136.5H85.15V133.5ZM79.75 133.5H77.05V136.5H79.75V133.5Z" fill="#365066"/>
<path d="M73.34 28L51 46.42L73.42 64.8L94.23 46.32L73.34 28Z" fill="#50A7EF"/>
<path d="M93 94H54V84.33V74H93V94Z" fill="#50A7EF"/>
<path d="M93 126H54V116.33V106H93V126Z" fill="#CC7A00"/>
<path d="M146 126H107V116.33V106H146V126Z" fill="#CC7A00"/>
<path d="M146 58H107V38H146V58Z" fill="#2079D4"/>
<path d="M146 38H107V32H146V38Z" fill="#CC7A00"/>
<path d="M13 71V58.735C13.002 57.4539 13.2432 56.1857 13.71 55.003C14.1768 53.8202 14.8599 52.7461 15.7204 51.842C16.5809 50.938 17.6019 50.2216 18.7249 49.734C19.8479 49.2463 21.0511 48.9969 22.2655 49H26.8089C29.2488 49.0145 31.5842 50.0461 33.3059 51.8697C35.0277 53.6934 35.9961 56.1612 36 58.735V71H13Z" fill="white"/>
<path d="M24.5 43C29.1944 43 33 39.1944 33 34.5C33 29.8056 29.1944 26 24.5 26C19.8056 26 16 29.8056 16 34.5C16 39.1944 19.8056 43 24.5 43Z" fill="white"/>
<path d="M26 28C27.3845 28 28.7379 28.4105 29.889 29.1797C31.0401 29.9489 31.9373 31.0421 32.4672 32.3212C32.997 33.6003 33.1356 35.0078 32.8655 36.3656C32.5954 37.7235 31.9287 38.9708 30.9497 39.9497C29.9708 40.9287 28.7235 41.5954 27.3656 41.8655C26.0078 42.1356 24.6003 41.997 23.3212 41.4672C22.0421 40.9373 20.9489 40.0401 20.1797 38.889C19.4105 37.7378 19 36.3845 19 35C19 33.1435 19.7375 31.363 21.0503 30.0503C22.363 28.7375 24.1435 28 26 28M26 25C24.0222 25 22.0888 25.5865 20.4443 26.6853C18.7998 27.7841 17.5181 29.3459 16.7612 31.1732C16.0043 33.0004 15.8063 35.0111 16.1922 36.9509C16.578 38.8907 17.5304 40.6725 18.9289 42.0711C20.3275 43.4696 22.1093 44.422 24.0491 44.8079C25.9889 45.1937 27.9996 44.9957 29.8268 44.2388C31.6541 43.4819 33.2159 42.2002 34.3147 40.5557C35.4135 38.9112 36 36.9778 36 35C36 32.3478 34.9464 29.8043 33.0711 27.9289C31.1957 26.0536 28.6522 25 26 25Z" fill="#365066"/>
<path d="M28.52 51C30.503 51.0026 32.404 51.7916 33.8062 53.1938C35.2084 54.596 35.9974 56.497 36 58.48V68H16V58.48C16.0026 56.497 16.7916 54.596 18.1938 53.1938C19.596 51.7916 21.497 51.0026 23.48 51H28.48M28.48 48H23.48C20.7005 48 18.0349 49.1041 16.0695 51.0695C14.1041 53.0349 13 55.7005 13 58.48V71H39V58.48C39 55.7005 37.8959 53.0349 35.9305 51.0695C33.9651 49.1041 31.2995 48 28.52 48H28.48Z" fill="#365066"/>
<path d="M26 86L13 96.875V115H39V96.875L26 86Z" fill="#2079D4"/>
<path d="M28 120H13V123H28V120Z" fill="#365066"/>
<path d="M28 76H13V79H28V76Z" fill="#365066"/>
<path d="M144.135 93.3031H126.5V101L119.075 93.3031H108.865C107.788 93.3031 107.008 92.075 107.008 90.7438V73.3906C106.959 72.8138 107.135 72.2404 107.5 71.7934C107.864 71.3465 108.387 71.0616 108.957 71H144.043C144.613 71.0616 145.136 71.3465 145.5 71.7934C145.865 72.2404 146.041 72.8138 145.992 73.3906V90.7438C145.992 92.075 145.212 93.3031 144.135 93.3031Z" fill="#2079D4"/>
</g>
<defs>
<clipPath id="clip0_1504_13796">
<rect width="160" height="160" fill="null"/>
</clipPath>
</defs>
</svg>
