<?xml version="1.0" encoding="utf-8"?>
<!-- Generator: Adobe Illustrator 20.1.0, SVG Export Plug-In . SVG Version: 6.00 Build 0)  -->
<svg version="1.1" id="Livello_1" xmlns="http://www.w3.org/2000/svg" xmlns:xlink="http://www.w3.org/1999/xlink" x="0px" y="0px"
	 viewBox="0 0 26.8 28.4" style="enable-background:new 0 0 26.8 28.4;" xml:space="preserve">
<style type="text/css">
	.st0{opacity:0.1;fill:#5A6772;}
</style>
<title>Group 17</title>
<desc>Created with Sketch.</desc>
<path class="st0" d="M16.3,0C10.5,0,5.8,4.7,5.8,10.5c0,2.4,0.8,4.7,2.3,6.6l-0.3,2.7l-1.8,0.5L6.8,21c-0.8,1-0.6,2.1-0.5,3.1
	c0.1,0.9,0.2,1.8-0.4,2.4C5.3,27,4.6,27,3.6,26.9c-1.1-0.1-2.4-0.3-3.6,0.9l0.7,0.7c0.9-0.8,1.7-0.7,2.8-0.6c1,0.1,2.1,0.3,3.1-0.7
	c0.9-0.9,0.8-2.1,0.7-3.2c-0.1-0.9-0.2-1.6,0.3-2.3l0.7,0.7l0.5-1.8l2.7-0.8c1.5,0.8,3.2,1.2,4.9,1.2c5.8,0,10.5-4.7,10.5-10.5
	C26.8,4.7,22.1,0,16.3,0z M16.3,20c-1.6,0-3.2-0.4-4.6-1.2l-0.2-0.1l-2.6,0.8l0.3-2.7L9,16.6c-1.4-1.7-2.2-3.9-2.2-6.1
	c0-5.2,4.3-9.5,9.5-9.5s9.5,4.3,9.5,9.5S21.5,20,16.3,20z"/>
</svg>
