<svg width="120" height="120" viewBox="0 0 120 120" fill="none" xmlns="http://www.w3.org/2000/svg">
<path d="M60.4872 11.0397C61.3811 11.0397 62.255 10.7746 62.9983 10.278C63.7416 9.78134 64.3209 9.07543 64.663 8.24954C65.0051 7.42364 65.0946 6.51485 64.9202 5.63808C64.7458 4.76131 64.3153 3.95595 63.6832 3.32384C63.0511 2.69172 62.2457 2.26125 61.369 2.08685C60.4922 1.91245 59.5834 2.00196 58.7575 2.34406C57.9316 2.68615 57.2257 3.26548 56.729 4.00876C56.2324 4.75205 55.9673 5.62592 55.9673 6.51986C55.9673 7.7186 56.4435 8.86825 57.2912 9.71589C58.1388 10.5635 59.2884 11.0397 60.4872 11.0397Z" fill="#BFDFFF"/>
<path d="M26.2821 20.2568C27.176 20.2568 28.0499 19.9917 28.7932 19.495C29.5365 18.9984 30.1158 18.2925 30.4579 17.4666C30.8 16.6407 30.8895 15.7319 30.7151 14.8551C30.5407 13.9784 30.1102 13.173 29.4781 12.5409C28.846 11.9088 28.0406 11.4783 27.1638 11.3039C26.2871 11.1295 25.3783 11.219 24.5524 11.5611C23.7265 11.9032 23.0206 12.4825 22.5239 13.2258C22.0273 13.9691 21.7622 14.843 21.7622 15.7369C21.7622 16.9356 22.2384 18.0853 23.086 18.9329C23.9337 19.7806 25.0833 20.2568 26.2821 20.2568Z" fill="#BFDFFF"/>
<path d="M41.8974 14.1514C42.7914 14.1514 43.6652 13.8863 44.4085 13.3896C45.1518 12.893 45.7311 12.1871 46.0732 11.3612C46.4153 10.5353 46.5048 9.62649 46.3304 8.74972C46.156 7.87295 45.7256 7.06759 45.0934 6.43548C44.4613 5.80336 43.656 5.37289 42.7792 5.19849C41.9024 5.02409 40.9936 5.1136 40.1677 5.45569C39.3419 5.79779 38.6359 6.37711 38.1393 7.1204C37.6426 7.86369 37.3776 8.73756 37.3776 9.6315C37.3776 10.8302 37.8538 11.9799 38.7014 12.8275C39.549 13.6752 40.6987 14.1514 41.8974 14.1514Z" fill="#BFDFFF"/>
<path d="M15.1282 32.4671C16.0222 32.4671 16.896 32.202 17.6393 31.7054C18.3826 31.2087 18.9619 30.5028 19.304 29.6769C19.6461 28.851 19.7356 27.9422 19.5612 27.0654C19.3868 26.1887 18.9564 25.3833 18.3243 24.7512C17.6921 24.1191 16.8868 23.6886 16.01 23.5142C15.1332 23.3398 14.2244 23.4293 13.3986 23.7714C12.5727 24.1135 11.8668 24.6928 11.3701 25.4361C10.8735 26.1794 10.6084 27.0533 10.6084 27.9472C10.6084 29.146 11.0846 30.2956 11.9322 31.1433C12.7798 31.9909 13.9295 32.4671 15.1282 32.4671Z" fill="#BFDFFF"/>
<path d="M9.1795 47.7305C10.0734 47.7305 10.9473 47.4654 11.6906 46.9688C12.4339 46.4721 13.0132 45.7662 13.3553 44.9403C13.6974 44.1144 13.7869 43.2056 13.6125 42.3289C13.4381 41.4521 13.0076 40.6467 12.3755 40.0146C11.7434 39.3825 10.938 38.952 10.0613 38.7776C9.18451 38.6032 8.27572 38.6928 7.44982 39.0349C6.62393 39.3769 5.91802 39.9563 5.42137 40.6996C4.92472 41.4428 4.65964 42.3167 4.65964 43.2107C4.65964 44.4094 5.13584 45.559 5.98347 46.4067C6.83111 47.2543 7.98076 47.7305 9.1795 47.7305Z" fill="#BFDFFF"/>
<path d="M5.51986 64.5198C6.4138 64.5198 7.28767 64.2547 8.03096 63.7581C8.77425 63.2614 9.35357 62.5555 9.69567 61.7296C10.0378 60.9037 10.1273 59.995 9.95287 59.1182C9.77847 58.2414 9.348 57.4361 8.71589 56.8039C8.08377 56.1718 7.27841 55.7414 6.40164 55.567C5.52487 55.3926 4.61608 55.4821 3.79018 55.8242C2.96429 56.1663 2.25838 56.7456 1.76173 57.4889C1.26509 58.2322 1 59.106 1 60C1 61.1987 1.4762 62.3484 2.32384 63.196C3.17147 64.0436 4.32112 64.5198 5.51986 64.5198Z" fill="#BFDFFF"/>
<path d="M8.43591 81.3094C9.32985 81.3094 10.2037 81.0443 10.947 80.5476C11.6903 80.051 12.2696 79.3451 12.6117 78.5192C12.9538 77.6933 13.0433 76.7845 12.8689 75.9077C12.6945 75.031 12.264 74.2256 11.6319 73.5935C10.9998 72.9614 10.1945 72.5309 9.31769 72.3565C8.44092 72.1821 7.53213 72.2716 6.70623 72.6137C5.88033 72.9558 5.17443 73.5351 4.67778 74.2784C4.18113 75.0217 3.91605 75.8956 3.91605 76.7895C3.91605 77.9883 4.39224 79.1379 5.23988 79.9855C6.08752 80.8332 7.23717 81.3094 8.43591 81.3094Z" fill="#BFDFFF"/>
<path d="M15.1282 96.5726C16.0222 96.5726 16.896 96.3075 17.6393 95.8108C18.3826 95.3142 18.9619 94.6083 19.304 93.7824C19.6461 92.9565 19.7356 92.0477 19.5612 91.1709C19.3868 90.2942 18.9564 89.4888 18.3243 88.8567C17.6921 88.2246 16.8868 87.7941 16.01 87.6197C15.1332 87.4453 14.2244 87.5348 13.3986 87.8769C12.5727 88.219 11.8668 88.7983 11.3701 89.5416C10.8735 90.2849 10.6084 91.1588 10.6084 92.0527C10.6084 93.2514 11.0846 94.4011 11.9322 95.2487C12.7798 96.0964 13.9295 96.5726 15.1282 96.5726Z" fill="#BFDFFF"/>
<path d="M27.0256 108.783C27.9196 108.783 28.7934 108.518 29.5367 108.021C30.28 107.525 30.8593 106.819 31.2014 105.993C31.5435 105.167 31.633 104.258 31.4586 103.381C31.2842 102.505 30.8538 101.699 30.2217 101.067C29.5895 100.435 28.7842 100.005 27.9074 99.8303C27.0306 99.6559 26.1218 99.7454 25.296 100.087C24.4701 100.43 23.7642 101.009 23.2675 101.752C22.7709 102.495 22.5058 103.369 22.5058 104.263C22.5058 105.462 22.982 106.612 23.8296 107.459C24.6772 108.307 25.8269 108.783 27.0256 108.783Z" fill="#BFDFFF"/>
<path d="M43.3846 114.888C44.2786 114.888 45.1524 114.623 45.8957 114.126C46.639 113.63 47.2183 112.924 47.5604 112.098C47.9025 111.272 47.992 110.363 47.8176 109.487C47.6432 108.61 47.2128 107.804 46.5807 107.172C45.9485 106.54 45.1432 106.11 44.2664 105.935C43.3897 105.761 42.4809 105.85 41.655 106.193C40.8291 106.535 40.1232 107.114 39.6265 107.857C39.1299 108.601 38.8648 109.474 38.8648 110.368C38.8648 111.567 39.341 112.717 40.1886 113.564C41.0363 114.412 42.1859 114.888 43.3846 114.888Z" fill="#BFDFFF"/>
<path d="M76.8462 13.3882C75.9522 13.3882 75.0784 13.1231 74.3351 12.6265C73.5918 12.1299 73.0125 11.4239 72.6704 10.598C72.3283 9.77215 72.2388 8.86336 72.4132 7.98659C72.5876 7.10982 73.018 6.30446 73.6502 5.67235C74.2823 5.04024 75.0876 4.60976 75.9644 4.43536C76.8412 4.26096 77.75 4.35047 78.5759 4.69257C79.4017 5.03466 80.1077 5.61399 80.6043 6.35727C81.101 7.10056 81.366 7.97443 81.366 8.86837C81.366 10.0671 80.8898 11.2168 80.0422 12.0644C79.1946 12.912 78.0449 13.3882 76.8462 13.3882Z" fill="#BFDFFF"/>
<path d="M91.7179 20.2568C92.6119 20.2568 93.4858 19.9917 94.229 19.495C94.9723 18.9984 95.5517 18.2925 95.8937 17.4666C96.2358 16.6407 96.3254 15.7319 96.151 14.8551C95.9766 13.9784 95.5461 13.173 94.914 12.5409C94.2819 11.9088 93.4765 11.4783 92.5997 11.3039C91.723 11.1295 90.8142 11.219 89.9883 11.5611C89.1624 11.9032 88.4565 12.4825 87.9598 13.2258C87.4632 13.9691 87.1981 14.843 87.1981 15.7369C87.1981 16.9356 87.6743 18.0853 88.5219 18.9329C89.3696 19.7806 90.5192 20.2568 91.7179 20.2568Z" fill="#BFDFFF"/>
<path d="M102.872 32.4671C101.978 32.4671 101.104 32.202 100.361 31.7054C99.6174 31.2087 99.0381 30.5028 98.696 29.6769C98.3539 28.851 98.2644 27.9422 98.4388 27.0654C98.6132 26.1887 99.0436 25.3833 99.6758 24.7512C100.308 24.1191 101.113 23.6886 101.99 23.5142C102.867 23.3398 103.776 23.4293 104.601 23.7714C105.427 24.1135 106.133 24.6928 106.63 25.4361C107.127 26.1794 107.392 27.0533 107.392 27.9472C107.392 29.146 106.915 30.2956 106.068 31.1433C105.22 31.9909 104.071 32.4671 102.872 32.4671Z" fill="#BFDFFF"/>
<path d="M108.821 47.7305C107.927 47.7305 107.053 47.4654 106.309 46.9688C105.566 46.4721 104.987 45.7662 104.645 44.9403C104.303 44.1144 104.213 43.2056 104.387 42.3289C104.562 41.4521 104.992 40.6467 105.624 40.0146C106.257 39.3825 107.062 38.952 107.939 38.7776C108.815 38.6032 109.724 38.6928 110.55 39.0349C111.376 39.3769 112.082 39.9563 112.579 40.6996C113.075 41.4428 113.34 42.3167 113.34 43.2107C113.34 44.4094 112.864 45.559 112.017 46.4067C111.169 47.2543 110.019 47.7305 108.821 47.7305Z" fill="#BFDFFF"/>
<path d="M112.48 64.5198C111.586 64.5198 110.712 64.2547 109.969 63.7581C109.226 63.2614 108.646 62.5555 108.304 61.7296C107.962 60.9037 107.873 59.995 108.047 59.1182C108.222 58.2414 108.652 57.4361 109.284 56.8039C109.916 56.1718 110.722 55.7414 111.598 55.567C112.475 55.3926 113.384 55.4821 114.21 55.8242C115.036 56.1663 115.742 56.7456 116.238 57.4889C116.735 58.2322 117 59.106 117 60C117 61.1987 116.524 62.3484 115.676 63.196C114.829 64.0436 113.679 64.5198 112.48 64.5198Z" fill="#BFDFFF"/>
<path d="M109.564 81.3094C108.67 81.3094 107.796 81.0443 107.053 80.5476C106.31 80.051 105.73 79.3451 105.388 78.5192C105.046 77.6933 104.957 76.7845 105.131 75.9077C105.305 75.031 105.736 74.2256 106.368 73.5935C107 72.9614 107.806 72.5309 108.682 72.3565C109.559 72.1821 110.468 72.2716 111.294 72.6137C112.12 72.9558 112.826 73.5351 113.322 74.2784C113.819 75.0217 114.084 75.8956 114.084 76.7895C114.084 77.9883 113.608 79.1379 112.76 79.9855C111.912 80.8332 110.763 81.3094 109.564 81.3094Z" fill="#BFDFFF"/>
<path d="M102.872 96.5726C101.978 96.5726 101.104 96.3075 100.361 95.8108C99.6174 95.3142 99.0381 94.6083 98.696 93.7824C98.3539 92.9565 98.2644 92.0477 98.4388 91.1709C98.6132 90.2942 99.0436 89.4888 99.6758 88.8567C100.308 88.2246 101.113 87.7941 101.99 87.6197C102.867 87.4453 103.776 87.5348 104.601 87.8769C105.427 88.219 106.133 88.7983 106.63 89.5416C107.127 90.2849 107.392 91.1588 107.392 92.0527C107.392 93.2514 106.915 94.4011 106.068 95.2487C105.22 96.0964 104.071 96.5726 102.872 96.5726Z" fill="#BFDFFF"/>
<path d="M90.9744 108.783C90.0804 108.783 89.2066 108.518 88.4633 108.021C87.72 107.525 87.1407 106.819 86.7986 105.993C86.4565 105.167 86.367 104.258 86.5414 103.381C86.7158 102.505 87.1462 101.699 87.7784 101.067C88.4105 100.435 89.2158 100.005 90.0926 99.8303C90.9694 99.6559 91.8782 99.7454 92.7041 100.087C93.53 100.43 94.2359 101.009 94.7325 101.752C95.2292 102.495 95.4942 103.369 95.4942 104.263C95.4942 105.462 95.018 106.612 94.1704 107.459C93.3228 108.307 92.1731 108.783 90.9744 108.783Z" fill="#BFDFFF"/>
<path d="M76.8462 114.888C75.9522 114.888 75.0784 114.623 74.3351 114.126C73.5918 113.63 73.0125 112.924 72.6704 112.098C72.3283 111.272 72.2388 110.363 72.4132 109.487C72.5876 108.61 73.018 107.804 73.6502 107.172C74.2823 106.54 75.0876 106.11 75.9644 105.935C76.8412 105.761 77.75 105.85 78.5759 106.193C79.4017 106.535 80.1077 107.114 80.6043 107.857C81.101 108.601 81.366 109.474 81.366 110.368C81.366 111.567 80.8898 112.717 80.0422 113.564C79.1946 114.412 78.0449 114.888 76.8462 114.888Z" fill="#BFDFFF"/>
<path d="M60.4872 118C61.3811 118 62.255 117.735 62.9983 117.238C63.7416 116.742 64.3209 116.036 64.663 115.21C65.0051 114.384 65.0946 113.475 64.9202 112.598C64.7458 111.722 64.3153 110.916 63.6832 110.284C63.0511 109.652 62.2457 109.222 61.369 109.047C60.4922 108.873 59.5834 108.962 58.7575 109.304C57.9316 109.646 57.2257 110.226 56.729 110.969C56.2324 111.712 55.9673 112.586 55.9673 113.48C55.9673 114.679 56.4435 115.829 57.2912 116.676C58.1388 117.524 59.2884 118 60.4872 118Z" fill="#BFDFFF"/>
<path d="M60.5256 26.7343C61.1421 26.7343 61.7448 26.5515 62.2574 26.209C62.77 25.8664 63.1696 25.3796 63.4055 24.81C63.6414 24.2404 63.7031 23.6137 63.5829 23.009C63.4626 22.4044 63.1657 21.8489 62.7298 21.413C62.2938 20.9771 61.7384 20.6802 61.1337 20.5599C60.5291 20.4396 59.9023 20.5014 59.3327 20.7373C58.7632 20.9732 58.2763 21.3727 57.9338 21.8854C57.5913 22.398 57.4085 23.0006 57.4085 23.6171C57.4085 24.4439 57.7369 25.2367 58.3215 25.8213C58.906 26.4059 59.6989 26.7343 60.5256 26.7343Z" fill="#BFDFFF"/>
<path d="M36.9359 33.0909C37.5524 33.0909 38.1551 32.908 38.6677 32.5655C39.1803 32.223 39.5798 31.7362 39.8158 31.1666C40.0517 30.597 40.1134 29.9703 39.9932 29.3656C39.8729 28.7609 39.576 28.2055 39.1401 27.7696C38.7041 27.3336 38.1487 27.0367 37.544 26.9165C36.9394 26.7962 36.3126 26.8579 35.743 27.0938C35.1734 27.3298 34.6866 27.7293 34.3441 28.2419C34.0016 28.7545 33.8188 29.3572 33.8188 29.9737C33.8188 30.8004 34.1472 31.5933 34.7317 32.1779C35.3163 32.7624 36.1092 33.0909 36.9359 33.0909Z" fill="#BFDFFF"/>
<path d="M47.7051 28.8804C48.3216 28.8804 48.9243 28.6976 49.4369 28.355C49.9495 28.0125 50.3491 27.5257 50.585 26.9561C50.8209 26.3865 50.8827 25.7598 50.7624 25.1551C50.6421 24.5504 50.3452 23.995 49.9093 23.5591C49.4733 23.1231 48.9179 22.8263 48.3133 22.706C47.7086 22.5857 47.0818 22.6474 46.5122 22.8834C45.9427 23.1193 45.4558 23.5188 45.1133 24.0314C44.7708 24.544 44.588 25.1467 44.588 25.7632C44.588 26.5899 44.9164 27.3828 45.501 27.9674C46.0856 28.552 46.8784 28.8804 47.7051 28.8804Z" fill="#BFDFFF"/>
<path d="M29.2436 41.5118C29.8601 41.5118 30.4628 41.3289 30.9754 40.9864C31.488 40.6439 31.8875 40.1571 32.1235 39.5875C32.3594 39.0179 32.4211 38.3912 32.3008 37.7865C32.1806 37.1818 31.8837 36.6264 31.4477 36.1905C31.0118 35.7545 30.4564 35.4576 29.8517 35.3374C29.2471 35.2171 28.6203 35.2788 28.0507 35.5147C27.4811 35.7507 26.9943 36.1502 26.6518 36.6628C26.3093 37.1754 26.1264 37.7781 26.1264 38.3946C26.1264 39.2213 26.4549 40.0142 27.0394 40.5988C27.624 41.1833 28.4169 41.5118 29.2436 41.5118Z" fill="#BFDFFF"/>
<path d="M25.1411 52.0382C25.7576 52.0382 26.3602 51.8554 26.8728 51.5129C27.3855 51.1704 27.785 50.6836 28.0209 50.114C28.2569 49.5444 28.3186 48.9176 28.1983 48.313C28.078 47.7083 27.7812 47.1529 27.3452 46.7169C26.9093 46.281 26.3538 45.9841 25.7492 45.8639C25.1445 45.7436 24.5178 45.8053 23.9482 46.0412C23.3786 46.2772 22.8918 46.6767 22.5492 47.1893C22.2067 47.7019 22.0239 48.3046 22.0239 48.9211C22.0239 49.7478 22.3523 50.5407 22.9369 51.1253C23.5215 51.7098 24.3143 52.0382 25.1411 52.0382Z" fill="#BFDFFF"/>
<path d="M22.6171 63.6171C23.2337 63.6171 23.8363 63.4343 24.3489 63.0918C24.8616 62.7493 25.2611 62.2624 25.497 61.6928C25.7329 61.1233 25.7947 60.4965 25.6744 59.8918C25.5541 59.2872 25.2572 58.7317 24.8213 58.2958C24.3854 57.8599 23.8299 57.563 23.2253 57.4427C22.6206 57.3224 21.9938 57.3842 21.4243 57.6201C20.8547 57.856 20.3679 58.2556 20.0253 58.7682C19.6828 59.2808 19.5 59.8834 19.5 60.5C19.5 61.3267 19.8284 62.1195 20.413 62.7041C20.9976 63.2887 21.7904 63.6171 22.6171 63.6171Z" fill="#BFDFFF"/>
<path d="M24.6282 75.1962C25.2447 75.1962 25.8474 75.0134 26.36 74.6709C26.8726 74.3284 27.2722 73.8415 27.5081 73.2719C27.744 72.7024 27.8057 72.0756 27.6855 71.4709C27.5652 70.8663 27.2683 70.3108 26.8324 69.8749C26.3964 69.439 25.841 69.1421 25.2363 69.0218C24.6317 68.9015 24.0049 68.9633 23.4353 69.1992C22.8658 69.4351 22.3789 69.8347 22.0364 70.3473C21.6939 70.8599 21.5111 71.4625 21.5111 72.0791C21.5111 72.9058 21.8395 73.6986 22.4241 74.2832C23.0086 74.8678 23.8015 75.1962 24.6282 75.1962Z" fill="#BFDFFF"/>
<path d="M29.2436 85.7225C29.8601 85.7225 30.4628 85.5396 30.9754 85.1971C31.488 84.8546 31.8875 84.3678 32.1235 83.7982C32.3594 83.2286 32.4211 82.6018 32.3008 81.9972C32.1806 81.3925 31.8837 80.8371 31.4477 80.4012C31.0118 79.9652 30.4564 79.6683 29.8517 79.5481C29.2471 79.4278 28.6203 79.4895 28.0507 79.7254C27.4811 79.9614 26.9943 80.3609 26.6518 80.8735C26.3093 81.3861 26.1264 81.9888 26.1264 82.6053C26.1264 83.432 26.4549 84.2249 27.0394 84.8095C27.624 85.394 28.4169 85.7225 29.2436 85.7225Z" fill="#BFDFFF"/>
<path d="M37.4487 94.1436C38.0652 94.1436 38.6679 93.9608 39.1805 93.6183C39.6931 93.2757 40.0927 92.7889 40.3286 92.2193C40.5645 91.6497 40.6262 91.023 40.506 90.4183C40.3857 89.8137 40.0888 89.2582 39.6529 88.8223C39.2169 88.3864 38.6615 88.0895 38.0568 87.9692C37.4522 87.8489 36.8254 87.9107 36.2558 88.1466C35.6863 88.3825 35.1994 88.782 34.8569 89.2947C34.5144 89.8073 34.3316 90.4099 34.3316 91.0264C34.3316 91.8532 34.66 92.646 35.2446 93.2306C35.8291 93.8152 36.622 94.1436 37.4487 94.1436Z" fill="#BFDFFF"/>
<path d="M48.7308 98.3539C49.3473 98.3539 49.95 98.1711 50.4626 97.8286C50.9752 97.4861 51.3747 96.9992 51.6107 96.4297C51.8466 95.8601 51.9083 95.2333 51.788 94.6287C51.6678 94.024 51.3709 93.4686 50.9349 93.0326C50.499 92.5967 49.9436 92.2998 49.3389 92.1795C48.7343 92.0592 48.1075 92.121 47.5379 92.3569C46.9683 92.5928 46.4815 92.9924 46.139 93.505C45.7965 94.0176 45.6136 94.6203 45.6136 95.2368C45.6136 96.0635 45.9421 96.8564 46.5266 97.4409C47.1112 98.0255 47.9041 98.3539 48.7308 98.3539Z" fill="#BFDFFF"/>
<path d="M71.8077 28.3539C71.1912 28.3539 70.5885 28.1711 70.0759 27.8286C69.5633 27.4861 69.1638 26.9992 68.9279 26.4297C68.6919 25.8601 68.6302 25.2333 68.7505 24.6287C68.8707 24.024 69.1676 23.4686 69.6036 23.0326C70.0395 22.5967 70.5949 22.2998 71.1996 22.1795C71.8043 22.0592 72.431 22.121 73.0006 22.3569C73.5702 22.5928 74.057 22.9924 74.3995 23.505C74.742 24.0176 74.9249 24.6203 74.9249 25.2368C74.9249 26.0635 74.5965 26.8564 74.0119 27.4409C73.4273 28.0255 72.6344 28.3539 71.8077 28.3539Z" fill="#BFDFFF"/>
<path d="M82.0641 33.0909C82.6806 33.0909 83.2833 32.908 83.7959 32.5655C84.3085 32.223 84.708 31.7362 84.944 31.1666C85.1799 30.597 85.2416 29.9703 85.1213 29.3656C85.0011 28.7609 84.7042 28.2055 84.2683 27.7696C83.8323 27.3336 83.2769 27.0367 82.6722 26.9165C82.0676 26.7962 81.4408 26.8579 80.8712 27.0938C80.3016 27.3298 79.8148 27.7293 79.4723 28.2419C79.1298 28.7545 78.947 29.3572 78.947 29.9737C78.947 30.8004 79.2754 31.5933 79.8599 32.1779C80.4445 32.7624 81.2374 33.0909 82.0641 33.0909Z" fill="#BFDFFF"/>
<path d="M89.7564 41.5118C89.1399 41.5118 88.5372 41.3289 88.0246 40.9864C87.512 40.6439 87.1125 40.1571 86.8766 39.5875C86.6406 39.0179 86.5789 38.3912 86.6992 37.7865C86.8195 37.1818 87.1163 36.6264 87.5523 36.1905C87.9882 35.7545 88.5436 35.4576 89.1483 35.3374C89.753 35.2171 90.3797 35.2788 90.9493 35.5147C91.5189 35.7507 92.0057 36.1502 92.3482 36.6628C92.6908 37.1754 92.8736 37.7781 92.8736 38.3946C92.8736 39.2213 92.5452 40.0142 91.9606 40.5988C91.376 41.1833 90.5831 41.5118 89.7564 41.5118Z" fill="#BFDFFF"/>
<path d="M93.8589 52.0382C93.2424 52.0382 92.6398 51.8554 92.1272 51.5129C91.6145 51.1704 91.215 50.6836 90.9791 50.114C90.7431 49.5444 90.6814 48.9176 90.8017 48.313C90.922 47.7083 91.2188 47.1529 91.6548 46.7169C92.0907 46.281 92.6462 45.9841 93.2508 45.8639C93.8555 45.7436 94.4822 45.8053 95.0518 46.0412C95.6214 46.2772 96.1082 46.6767 96.4508 47.1893C96.7933 47.7019 96.9761 48.3046 96.9761 48.9211C96.9761 49.7478 96.6477 50.5407 96.0631 51.1253C95.4785 51.7098 94.6857 52.0382 93.8589 52.0382Z" fill="#BFDFFF"/>
<path d="M96.3829 63.6171C95.7663 63.6171 95.1637 63.4343 94.6511 63.0918C94.1384 62.7493 93.7389 62.2624 93.503 61.6928C93.2671 61.1233 93.2053 60.4965 93.3256 59.8918C93.4459 59.2872 93.7428 58.7317 94.1787 58.2958C94.6146 57.8599 95.1701 57.563 95.7747 57.4427C96.3794 57.3224 97.0062 57.3842 97.5757 57.6201C98.1453 57.856 98.6321 58.2556 98.9747 58.7682C99.3172 59.2808 99.5 59.8834 99.5 60.5C99.5 61.3267 99.1716 62.1195 98.587 62.7041C98.0024 63.2887 97.2096 63.6171 96.3829 63.6171Z" fill="#BFDFFF"/>
<path d="M94.3718 75.1962C93.7553 75.1962 93.1526 75.0134 92.64 74.6709C92.1274 74.3284 91.7278 73.8415 91.4919 73.2719C91.256 72.7024 91.1943 72.0756 91.3145 71.4709C91.4348 70.8663 91.7317 70.3108 92.1676 69.8749C92.6036 69.439 93.159 69.1421 93.7637 69.0218C94.3683 68.9015 94.9951 68.9633 95.5647 69.1992C96.1342 69.4351 96.6211 69.8347 96.9636 70.3473C97.3061 70.8599 97.4889 71.4625 97.4889 72.0791C97.4889 72.9058 97.1605 73.6986 96.5759 74.2832C95.9914 74.8678 95.1985 75.1962 94.3718 75.1962Z" fill="#BFDFFF"/>
<path d="M89.7564 85.7225C89.1399 85.7225 88.5372 85.5396 88.0246 85.1971C87.512 84.8546 87.1125 84.3678 86.8766 83.7982C86.6406 83.2286 86.5789 82.6018 86.6992 81.9972C86.8195 81.3925 87.1163 80.8371 87.5523 80.4012C87.9882 79.9652 88.5436 79.6683 89.1483 79.5481C89.753 79.4278 90.3797 79.4895 90.9493 79.7254C91.5189 79.9614 92.0057 80.3609 92.3482 80.8735C92.6908 81.3861 92.8736 81.9888 92.8736 82.6053C92.8736 83.432 92.5452 84.2249 91.9606 84.8095C91.376 85.394 90.5831 85.7225 89.7564 85.7225Z" fill="#BFDFFF"/>
<path d="M81.5513 94.1436C80.9348 94.1436 80.3321 93.9608 79.8195 93.6183C79.3069 93.2757 78.9073 92.7889 78.6714 92.2193C78.4355 91.6497 78.3738 91.023 78.494 90.4183C78.6143 89.8137 78.9112 89.2582 79.3471 88.8223C79.7831 88.3864 80.3385 88.0895 80.9432 87.9692C81.5478 87.8489 82.1746 87.9107 82.7442 88.1466C83.3137 88.3825 83.8006 88.782 84.1431 89.2947C84.4856 89.8073 84.6684 90.4099 84.6684 91.0264C84.6684 91.8532 84.34 92.646 83.7554 93.2306C83.1709 93.8152 82.378 94.1436 81.5513 94.1436Z" fill="#BFDFFF"/>
<path d="M71.8077 98.3539C71.1912 98.3539 70.5885 98.1711 70.0759 97.8286C69.5633 97.4861 69.1638 96.9992 68.9279 96.4297C68.6919 95.8601 68.6302 95.2333 68.7505 94.6287C68.8707 94.024 69.1676 93.4686 69.6036 93.0326C70.0395 92.5967 70.5949 92.2998 71.1996 92.1795C71.8043 92.0592 72.431 92.121 73.0006 92.3569C73.5702 92.5928 74.057 92.9924 74.3995 93.505C74.742 94.0176 74.9249 94.6203 74.9249 95.2368C74.9249 96.0635 74.5965 96.8564 74.0119 97.4409C73.4273 98.0255 72.6344 98.3539 71.8077 98.3539Z" fill="#BFDFFF"/>
<path d="M60.5256 100.5C61.1421 100.5 61.7448 100.317 62.2574 99.9747C62.77 99.6322 63.1696 99.1454 63.4055 98.5758C63.6414 98.0062 63.7031 97.3794 63.5829 96.7748C63.4626 96.1701 63.1657 95.6147 62.7298 95.1787C62.2938 94.7428 61.7384 94.4459 61.1337 94.3256C60.5291 94.2054 59.9023 94.2671 59.3327 94.503C58.7632 94.739 58.2763 95.1385 57.9338 95.6511C57.5913 96.1637 57.4085 96.7664 57.4085 97.3829C57.4085 98.2096 57.7369 99.0025 58.3215 99.587C58.906 100.172 59.6989 100.5 60.5256 100.5Z" fill="#BFDFFF"/>
<path d="M61.1923 38.7081C61.6084 38.7081 62.0152 38.5847 62.3613 38.3535C62.7073 38.1223 62.977 37.7937 63.1362 37.4093C63.2955 37.0248 63.3371 36.6017 63.2559 36.1936C63.1748 35.7854 62.9744 35.4105 62.6801 35.1163C62.3858 34.822 62.0109 34.6216 61.6028 34.5404C61.1946 34.4592 60.7716 34.5009 60.3871 34.6602C60.0026 34.8194 59.674 35.0891 59.4428 35.4351C59.2116 35.7811 59.0882 36.1879 59.0882 36.6041C59.0882 37.1621 59.3099 37.6973 59.7045 38.0919C60.0991 38.4865 60.6343 38.7081 61.1923 38.7081Z" fill="#BFDFFF"/>
<path d="M45.2692 42.9987C45.6854 42.9987 46.0922 42.8753 46.4382 42.6441C46.7842 42.4129 47.0539 42.0843 47.2131 41.6998C47.3724 41.3153 47.4141 40.8923 47.3329 40.4841C47.2517 40.076 47.0513 39.7011 46.757 39.4068C46.4628 39.1125 46.0879 38.9121 45.6797 38.831C45.2716 38.7498 44.8485 38.7914 44.464 38.9507C44.0796 39.1099 43.751 39.3796 43.5198 39.7256C43.2886 40.0717 43.1652 40.4785 43.1652 40.8946C43.1652 41.4526 43.3868 41.9878 43.7814 42.3824C44.176 42.777 44.7112 42.9987 45.2692 42.9987Z" fill="#BFDFFF"/>
<path d="M52.5385 40.1567C52.9546 40.1567 53.3614 40.0333 53.7074 39.8021C54.0534 39.5709 54.3231 39.2423 54.4824 38.8579C54.6416 38.4734 54.6833 38.0503 54.6021 37.6422C54.5209 37.234 54.3205 36.8591 54.0263 36.5649C53.732 36.2706 53.3571 36.0702 52.9489 35.989C52.5408 35.9078 52.1177 35.9495 51.7333 36.1087C51.3488 36.268 51.0202 36.5377 50.789 36.8837C50.5578 37.2297 50.4344 37.6365 50.4344 38.0527C50.4344 38.6107 50.6561 39.1459 51.0507 39.5405C51.4452 39.9351 51.9804 40.1567 52.5385 40.1567Z" fill="#BFDFFF"/>
<path d="M40.0769 48.6829C40.4931 48.6829 40.8999 48.5595 41.2459 48.3283C41.5919 48.0971 41.8616 47.7685 42.0208 47.384C42.1801 46.9995 42.2218 46.5765 42.1406 46.1683C42.0594 45.7602 41.859 45.3853 41.5647 45.091C41.2705 44.7967 40.8956 44.5963 40.4874 44.5152C40.0793 44.434 39.6562 44.4756 39.2717 44.6349C38.8873 44.7941 38.5587 45.0638 38.3275 45.4098C38.0963 45.7559 37.9729 46.1627 37.9729 46.5788C37.9729 47.1368 38.1945 47.672 38.5891 48.0666C38.9837 48.4612 39.5189 48.6829 40.0769 48.6829Z" fill="#BFDFFF"/>
<path d="M37.3077 55.7883C37.7238 55.7883 38.1306 55.6649 38.4767 55.4337C38.8227 55.2025 39.0924 54.8739 39.2516 54.4895C39.4109 54.105 39.4525 53.6819 39.3713 53.2738C39.2902 52.8656 39.0898 52.4907 38.7955 52.1965C38.5012 51.9022 38.1263 51.7018 37.7182 51.6206C37.31 51.5394 36.887 51.5811 36.5025 51.7404C36.118 51.8996 35.7894 52.1693 35.5582 52.5153C35.327 52.8613 35.2036 53.2681 35.2036 53.6843C35.2036 54.2423 35.4253 54.7775 35.8199 55.1721C36.2145 55.5667 36.7497 55.7883 37.3077 55.7883Z" fill="#BFDFFF"/>
<path d="M35.6041 63.6041C36.0202 63.6041 36.427 63.4807 36.773 63.2495C37.119 63.0183 37.3887 62.6897 37.548 62.3053C37.7072 61.9208 37.7489 61.4977 37.6677 61.0896C37.5865 60.6814 37.3861 60.3065 37.0919 60.0123C36.7976 59.718 36.4227 59.5176 36.0146 59.4364C35.6064 59.3552 35.1833 59.3969 34.7989 59.5562C34.4144 59.7154 34.0858 59.9851 33.8546 60.3311C33.6234 60.6771 33.5 61.0839 33.5 61.5001C33.5 62.0581 33.7217 62.5933 34.1163 62.9879C34.5109 63.3825 35.046 63.6041 35.6041 63.6041Z" fill="#BFDFFF"/>
<path d="M36.9616 71.4199C37.3777 71.4199 37.7845 71.2965 38.1305 71.0653C38.4765 70.8341 38.7462 70.5055 38.9055 70.1211C39.0647 69.7366 39.1064 69.3135 39.0252 68.9054C38.944 68.4972 38.7436 68.1223 38.4494 67.8281C38.1551 67.5338 37.7802 67.3334 37.372 67.2522C36.9639 67.171 36.5408 67.2127 36.1564 67.372C35.7719 67.5312 35.4433 67.8009 35.2121 68.1469C34.9809 68.4929 34.8575 68.8997 34.8575 69.3159C34.8575 69.8739 35.0792 70.4091 35.4738 70.8037C35.8683 71.1983 36.4035 71.4199 36.9616 71.4199Z" fill="#BFDFFF"/>
<path d="M40.0769 78.5252C40.4931 78.5252 40.8999 78.4018 41.2459 78.1706C41.5919 77.9394 41.8616 77.6108 42.0208 77.2263C42.1801 76.8418 42.2218 76.4188 42.1406 76.0106C42.0594 75.6025 41.859 75.2275 41.5647 74.9333C41.2705 74.639 40.8956 74.4386 40.4874 74.3574C40.0793 74.2763 39.6562 74.3179 39.2717 74.4772C38.8873 74.6364 38.5587 74.9061 38.3275 75.2521C38.0963 75.5981 37.9729 76.0049 37.9729 76.4211C37.9729 76.9791 38.1945 77.5143 38.5891 77.9089C38.9837 78.3035 39.5189 78.5252 40.0769 78.5252Z" fill="#BFDFFF"/>
<path d="M45.6154 84.2094C46.0315 84.2094 46.4383 84.086 46.7844 83.8548C47.1304 83.6236 47.4001 83.295 47.5593 82.9105C47.7186 82.526 47.7602 82.103 47.679 81.6948C47.5979 81.2867 47.3975 80.9118 47.1032 80.6175C46.8089 80.3232 46.434 80.1228 46.0259 80.0417C45.6177 79.9605 45.1947 80.0021 44.8102 80.1614C44.4257 80.3206 44.0971 80.5903 43.8659 80.9363C43.6347 81.2823 43.5113 81.6891 43.5113 82.1053C43.5113 82.6633 43.733 83.1985 44.1276 83.5931C44.5222 83.9877 45.0574 84.2094 45.6154 84.2094Z" fill="#BFDFFF"/>
<path d="M53.2308 87.0514C53.6469 87.0514 54.0537 86.928 54.3997 86.6968C54.7457 86.4656 55.0154 86.137 55.1747 85.7525C55.3339 85.3681 55.3756 84.945 55.2944 84.5369C55.2132 84.1287 55.0128 83.7538 54.7186 83.4595C54.4243 83.1653 54.0494 82.9649 53.6413 82.8837C53.2331 82.8025 52.81 82.8442 52.4256 83.0034C52.0411 83.1627 51.7125 83.4324 51.4813 83.7784C51.2501 84.1244 51.1267 84.5312 51.1267 84.9473C51.1267 85.5054 51.3484 86.0406 51.743 86.4351C52.1376 86.8297 52.6727 87.0514 53.2308 87.0514Z" fill="#BFDFFF"/>
<path d="M68.8077 39.8014C68.3916 39.8014 67.9848 39.678 67.6388 39.4468C67.2928 39.2156 67.0231 38.887 66.8638 38.5025C66.7046 38.1181 66.6629 37.695 66.7441 37.2869C66.8253 36.8787 67.0257 36.5038 67.3199 36.2095C67.6142 35.9153 67.9891 35.7149 68.3972 35.6337C68.8054 35.5525 69.2285 35.5942 69.6129 35.7534C69.9974 35.9127 70.326 36.1824 70.5572 36.5284C70.7884 36.8744 70.9118 37.2812 70.9118 37.6973C70.9118 38.2554 70.6901 38.7906 70.2955 39.1851C69.9009 39.5797 69.3658 39.8014 68.8077 39.8014Z" fill="#BFDFFF"/>
<path d="M75.7308 42.9987C76.1469 42.9987 76.5537 42.8753 76.8997 42.6441C77.2457 42.4129 77.5154 42.0843 77.6747 41.6998C77.8339 41.3153 77.8756 40.8923 77.7944 40.4841C77.7132 40.076 77.5128 39.7011 77.2186 39.4068C76.9243 39.1125 76.5494 38.9121 76.1413 38.831C75.7331 38.7498 75.31 38.7914 74.9256 38.9507C74.5411 39.1099 74.2125 39.3796 73.9813 39.7256C73.7501 40.0717 73.6267 40.4785 73.6267 40.8946C73.6267 41.4526 73.8484 41.9878 74.243 42.3824C74.6376 42.777 75.1727 42.9987 75.7308 42.9987Z" fill="#BFDFFF"/>
<path d="M80.9231 48.6829C80.507 48.6829 80.1002 48.5595 79.7541 48.3283C79.4081 48.0971 79.1384 47.7685 78.9792 47.384C78.8199 46.9995 78.7783 46.5765 78.8595 46.1683C78.9406 45.7602 79.141 45.3853 79.4353 45.091C79.7296 44.7967 80.1045 44.5963 80.5126 44.5152C80.9208 44.434 81.3438 44.4756 81.7283 44.6349C82.1128 44.7941 82.4414 45.0638 82.6726 45.4098C82.9038 45.7559 83.0272 46.1627 83.0272 46.5788C83.0272 47.1368 82.8055 47.672 82.4109 48.0666C82.0163 48.4612 81.4811 48.6829 80.9231 48.6829Z" fill="#BFDFFF"/>
<path d="M83.6923 55.7883C83.2762 55.7883 82.8694 55.6649 82.5233 55.4337C82.1773 55.2025 81.9076 54.8739 81.7484 54.4895C81.5891 54.105 81.5475 53.6819 81.6287 53.2738C81.7098 52.8656 81.9102 52.4907 82.2045 52.1965C82.4988 51.9022 82.8737 51.7018 83.2818 51.6206C83.69 51.5394 84.113 51.5811 84.4975 51.7404C84.882 51.8996 85.2106 52.1693 85.4418 52.5153C85.673 52.8613 85.7964 53.2681 85.7964 53.6843C85.7964 54.2423 85.5747 54.7775 85.1801 55.1721C84.7855 55.5667 84.2503 55.7883 83.6923 55.7883Z" fill="#BFDFFF"/>
<path d="M85.3959 63.6041C84.9798 63.6041 84.573 63.4807 84.227 63.2495C83.881 63.0183 83.6113 62.6897 83.452 62.3053C83.2928 61.9208 83.2511 61.4977 83.3323 61.0896C83.4135 60.6814 83.6139 60.3065 83.9081 60.0123C84.2024 59.718 84.5773 59.5176 84.9854 59.4364C85.3936 59.3552 85.8167 59.3969 86.2011 59.5562C86.5856 59.7154 86.9142 59.9851 87.1454 60.3311C87.3766 60.6771 87.5 61.0839 87.5 61.5001C87.5 62.0581 87.2783 62.5933 86.8837 62.9879C86.4891 63.3825 85.954 63.6041 85.3959 63.6041Z" fill="#BFDFFF"/>
<path d="M84.0385 71.4199C83.6223 71.4199 83.2155 71.2965 82.8695 71.0653C82.5235 70.8341 82.2538 70.5055 82.0945 70.1211C81.9353 69.7366 81.8936 69.3135 81.9748 68.9054C82.056 68.4972 82.2564 68.1223 82.5506 67.8281C82.8449 67.5338 83.2198 67.3334 83.628 67.2522C84.0361 67.171 84.4592 67.2127 84.8436 67.372C85.2281 67.5312 85.5567 67.8009 85.7879 68.1469C86.0191 68.4929 86.1425 68.8997 86.1425 69.3159C86.1425 69.8739 85.9208 70.4091 85.5263 70.8037C85.1317 71.1983 84.5965 71.4199 84.0385 71.4199Z" fill="#BFDFFF"/>
<path d="M80.9231 78.5252C80.507 78.5252 80.1002 78.4018 79.7541 78.1706C79.4081 77.9394 79.1384 77.6108 78.9792 77.2263C78.8199 76.8418 78.7783 76.4188 78.8595 76.0106C78.9406 75.6025 79.141 75.2275 79.4353 74.9333C79.7296 74.639 80.1045 74.4386 80.5126 74.3574C80.9208 74.2763 81.3438 74.3179 81.7283 74.4772C82.1128 74.6364 82.4414 74.9061 82.6726 75.2521C82.9038 75.5981 83.0272 76.0049 83.0272 76.4211C83.0272 76.9791 82.8055 77.5143 82.4109 77.9089C82.0163 78.3035 81.4811 78.5252 80.9231 78.5252Z" fill="#BFDFFF"/>
<path d="M75.3846 84.2094C74.9685 84.2094 74.5617 84.086 74.2156 83.8548C73.8696 83.6236 73.5999 83.295 73.4407 82.9105C73.2814 82.526 73.2398 82.103 73.321 81.6948C73.4021 81.2867 73.6025 80.9118 73.8968 80.6175C74.1911 80.3232 74.566 80.1228 74.9741 80.0417C75.3823 79.9605 75.8053 80.0021 76.1898 80.1614C76.5743 80.3206 76.9029 80.5903 77.1341 80.9363C77.3653 81.2823 77.4887 81.6891 77.4887 82.1053C77.4887 82.6633 77.267 83.1985 76.8724 83.5931C76.4778 83.9877 75.9426 84.2094 75.3846 84.2094Z" fill="#BFDFFF"/>
<path d="M68.8077 87.0514C68.3916 87.0514 67.9848 86.928 67.6388 86.6968C67.2928 86.4656 67.0231 86.137 66.8638 85.7525C66.7046 85.3681 66.6629 84.945 66.7441 84.5369C66.8253 84.1287 67.0257 83.7538 67.3199 83.4595C67.6142 83.1653 67.9891 82.9649 68.3972 82.8837C68.8054 82.8025 69.2285 82.8442 69.6129 83.0034C69.9974 83.1627 70.326 83.4324 70.5572 83.7784C70.7884 84.1244 70.9118 84.5312 70.9118 84.9473C70.9118 85.5054 70.6901 86.0406 70.2955 86.4351C69.9009 86.8297 69.3658 87.0514 68.8077 87.0514Z" fill="#BFDFFF"/>
<path d="M61.1923 88.5C61.6084 88.5 62.0152 88.3766 62.3613 88.1454C62.7073 87.9142 62.977 87.5856 63.1362 87.2011C63.2955 86.8167 63.3371 86.3936 63.2559 85.9855C63.1748 85.5773 62.9744 85.2024 62.6801 84.9081C62.3858 84.6139 62.0109 84.4135 61.6028 84.3323C61.1946 84.2511 60.7716 84.2928 60.3871 84.452C60.0026 84.6113 59.674 84.881 59.4428 85.227C59.2116 85.573 59.0882 85.9798 59.0882 86.3959C59.0882 86.954 59.3099 87.4892 59.7045 87.8837C60.0991 88.2783 60.6343 88.5 61.1923 88.5Z" fill="#BFDFFF"/>
<path d="M60.4231 48.0716C60.6774 48.0716 60.926 47.9962 61.1374 47.8549C61.3489 47.7137 61.5137 47.5128 61.611 47.2779C61.7083 47.0429 61.7338 46.7844 61.6842 46.535C61.6346 46.2855 61.5121 46.0564 61.3323 45.8766C61.1525 45.6968 60.9234 45.5743 60.6739 45.5247C60.4245 45.4751 60.166 45.5006 59.931 45.5979C59.6961 45.6952 59.4952 45.86 59.354 46.0715C59.2127 46.2829 59.1373 46.5315 59.1373 46.7858C59.1373 47.1268 59.2727 47.4539 59.5139 47.695C59.755 47.9362 60.0821 48.0716 60.4231 48.0716Z" fill="#BFDFFF"/>
<path d="M50.6923 50.6936C50.9466 50.6936 51.1952 50.6182 51.4067 50.4769C51.6181 50.3356 51.7829 50.1348 51.8803 49.8998C51.9776 49.6649 52.003 49.4063 51.9534 49.1569C51.9038 48.9075 51.7814 48.6784 51.6015 48.4986C51.4217 48.3187 51.1926 48.1963 50.9432 48.1467C50.6937 48.097 50.4352 48.1225 50.2003 48.2198C49.9653 48.3171 49.7645 48.482 49.6232 48.6934C49.4819 48.9049 49.4065 49.1535 49.4065 49.4078C49.4065 49.7488 49.542 50.0758 49.7831 50.317C50.0242 50.5581 50.3513 50.6936 50.6923 50.6936Z" fill="#BFDFFF"/>
<path d="M55.1346 48.9568C55.3889 48.9568 55.6375 48.8813 55.849 48.7401C56.0604 48.5988 56.2252 48.398 56.3226 48.163C56.4199 47.928 56.4453 47.6695 56.3957 47.4201C56.3461 47.1707 56.2236 46.9416 56.0438 46.7617C55.864 46.5819 55.6349 46.4594 55.3855 46.4098C55.136 46.3602 54.8775 46.3857 54.6425 46.483C54.4076 46.5803 54.2068 46.7451 54.0655 46.9566C53.9242 47.168 53.8488 47.4166 53.8488 47.6709C53.8488 48.012 53.9843 48.339 54.2254 48.5802C54.4665 48.8213 54.7936 48.9568 55.1346 48.9568Z" fill="#BFDFFF"/>
<path d="M47.5192 54.1673C47.7736 54.1673 48.0222 54.0919 48.2336 53.9506C48.4451 53.8094 48.6099 53.6085 48.7072 53.3736C48.8045 53.1386 48.83 52.8801 48.7804 52.6307C48.7307 52.3812 48.6083 52.1521 48.4285 51.9723C48.2486 51.7925 48.0195 51.67 47.7701 51.6204C47.5207 51.5708 47.2621 51.5963 47.0272 51.6936C46.7922 51.7909 46.5914 51.9557 46.4501 52.1672C46.3088 52.3786 46.2334 52.6272 46.2334 52.8815C46.2334 53.2225 46.3689 53.5496 46.61 53.7907C46.8512 54.0319 47.1782 54.1673 47.5192 54.1673Z" fill="#BFDFFF"/>
<path d="M45.8269 58.5095C46.0812 58.5095 46.3298 58.4341 46.5413 58.2928C46.7527 58.1515 46.9176 57.9507 47.0149 57.7158C47.1122 57.4808 47.1377 57.2223 47.088 56.9728C47.0384 56.7234 46.916 56.4943 46.7361 56.3145C46.5563 56.1346 46.3272 56.0122 46.0778 55.9626C45.8284 55.913 45.5698 55.9384 45.3349 56.0357C45.0999 56.1331 44.8991 56.2979 44.7578 56.5093C44.6165 56.7208 44.5411 56.9694 44.5411 57.2237C44.5411 57.5647 44.6766 57.8918 44.9177 58.1329C45.1589 58.374 45.4859 58.5095 45.8269 58.5095Z" fill="#BFDFFF"/>
<path d="M44.7858 63.2858C45.0401 63.2858 45.2887 63.2103 45.5002 63.0691C45.7116 62.9278 45.8764 62.727 45.9738 62.492C46.0711 62.257 46.0966 61.9985 46.0469 61.7491C45.9973 61.4997 45.8749 61.2705 45.695 61.0907C45.5152 60.9109 45.2861 60.7884 45.0367 60.7388C44.7872 60.6892 44.5287 60.7147 44.2938 60.812C44.0588 60.9093 43.858 61.0741 43.7167 61.2856C43.5754 61.497 43.5 61.7456 43.5 61.9999C43.5 62.341 43.6355 62.668 43.8766 62.9091C44.1177 63.1503 44.4448 63.2858 44.7858 63.2858Z" fill="#BFDFFF"/>
<path d="M45.6154 68.0622C45.8697 68.0622 46.1183 67.9868 46.3298 67.8455C46.5412 67.7043 46.706 67.5034 46.8033 67.2685C46.9007 67.0335 46.9261 66.775 46.8765 66.5256C46.8269 66.2761 46.7044 66.047 46.5246 65.8672C46.3448 65.6874 46.1157 65.5649 45.8662 65.5153C45.6168 65.4657 45.3583 65.4912 45.1233 65.5885C44.8884 65.6858 44.6876 65.8506 44.5463 66.0621C44.405 66.2735 44.3296 66.5221 44.3296 66.7764C44.3296 67.1174 44.465 67.4445 44.7062 67.6856C44.9473 67.9268 45.2744 68.0622 45.6154 68.0622Z" fill="#BFDFFF"/>
<path d="M47.5192 72.4043C47.7736 72.4043 48.0222 72.3289 48.2336 72.1876C48.4451 72.0463 48.6099 71.8455 48.7072 71.6105C48.8045 71.3756 48.83 71.117 48.7804 70.8676C48.7307 70.6182 48.6083 70.3891 48.4285 70.2093C48.2486 70.0294 48.0195 69.907 47.7701 69.8573C47.5207 69.8077 47.2621 69.8332 47.0272 69.9305C46.7922 70.0278 46.5914 70.1926 46.4501 70.4041C46.3088 70.6156 46.2334 70.8642 46.2334 71.1185C46.2334 71.4595 46.3689 71.7865 46.61 72.0277C46.8512 72.2688 47.1782 72.4043 47.5192 72.4043Z" fill="#BFDFFF"/>
<path d="M50.9039 75.8779C51.1582 75.8779 51.4068 75.8025 51.6182 75.6612C51.8297 75.5199 51.9945 75.3191 52.0918 75.0842C52.1891 74.8492 52.2146 74.5907 52.165 74.3412C52.1154 74.0918 51.9929 73.8627 51.8131 73.6829C51.6333 73.5031 51.4041 73.3806 51.1547 73.331C50.9053 73.2814 50.6468 73.3068 50.4118 73.4042C50.1768 73.5015 49.976 73.6663 49.8347 73.8777C49.6935 74.0892 49.618 74.3378 49.618 74.5921C49.618 74.9331 49.7535 75.2602 49.9947 75.5013C50.2358 75.7424 50.5628 75.8779 50.9039 75.8779Z" fill="#BFDFFF"/>
<path d="M55.5577 77.6149C55.812 77.6149 56.0606 77.5394 56.272 77.3982C56.4835 77.2569 56.6483 77.0561 56.7456 76.8211C56.8429 76.5861 56.8684 76.3276 56.8188 76.0782C56.7692 75.8288 56.6467 75.5996 56.4669 75.4198C56.2871 75.24 56.0579 75.1175 55.8085 75.0679C55.5591 75.0183 55.3006 75.0438 55.0656 75.1411C54.8307 75.2384 54.6298 75.4032 54.4886 75.6147C54.3473 75.8261 54.2719 76.0747 54.2719 76.329C54.2719 76.6701 54.4073 76.9971 54.6485 77.2382C54.8896 77.4794 55.2167 77.6149 55.5577 77.6149Z" fill="#BFDFFF"/>
<path d="M65.0769 48.7399C64.8226 48.7399 64.574 48.6644 64.3626 48.5232C64.1511 48.3819 63.9863 48.1811 63.889 47.9461C63.7917 47.7111 63.7662 47.4526 63.8158 47.2032C63.8654 46.9538 63.9879 46.7246 64.1677 46.5448C64.3476 46.365 64.5767 46.2425 64.8261 46.1929C65.0755 46.1433 65.334 46.1688 65.569 46.2661C65.804 46.3634 66.0048 46.5282 66.1461 46.7397C66.2874 46.9511 66.3628 47.1997 66.3628 47.454C66.3628 47.7951 66.2273 48.1221 65.9862 48.3632C65.745 48.6044 65.418 48.7399 65.0769 48.7399Z" fill="#BFDFFF"/>
<path d="M69.3077 50.6936C69.562 50.6936 69.8106 50.6182 70.0221 50.4769C70.2335 50.3356 70.3983 50.1348 70.4956 49.8998C70.593 49.6649 70.6184 49.4063 70.5688 49.1569C70.5192 48.9075 70.3967 48.6784 70.2169 48.4986C70.0371 48.3187 69.808 48.1963 69.5585 48.1467C69.3091 48.097 69.0506 48.1225 68.8156 48.2198C68.5807 48.3171 68.3799 48.482 68.2386 48.6934C68.0973 48.9049 68.0219 49.1535 68.0219 49.4078C68.0219 49.7488 68.1573 50.0758 68.3985 50.317C68.6396 50.5581 68.9667 50.6936 69.3077 50.6936Z" fill="#BFDFFF"/>
<path d="M72.4808 54.1673C72.2264 54.1673 71.9778 54.0919 71.7664 53.9506C71.5549 53.8094 71.3901 53.6085 71.2928 53.3736C71.1955 53.1386 71.17 52.8801 71.2196 52.6307C71.2693 52.3812 71.3917 52.1521 71.5715 51.9723C71.7514 51.7925 71.9805 51.67 72.2299 51.6204C72.4793 51.5708 72.7379 51.5963 72.9728 51.6936C73.2078 51.7909 73.4086 51.9557 73.5499 52.1672C73.6912 52.3786 73.7666 52.6272 73.7666 52.8815C73.7666 53.2225 73.6311 53.5496 73.39 53.7907C73.1488 54.0319 72.8218 54.1673 72.4808 54.1673Z" fill="#BFDFFF"/>
<path d="M74.1731 58.5095C73.9188 58.5095 73.6702 58.4341 73.4587 58.2928C73.2472 58.1515 73.0824 57.9507 72.9851 57.7158C72.8878 57.4808 72.8623 57.2223 72.9119 56.9728C72.9616 56.7234 73.084 56.4943 73.2638 56.3145C73.4437 56.1346 73.6728 56.0122 73.9222 55.9626C74.1716 55.913 74.4302 55.9384 74.6651 56.0357C74.9001 56.1331 75.1009 56.2979 75.2422 56.5093C75.3835 56.7208 75.4589 56.9694 75.4589 57.2237C75.4589 57.5647 75.3234 57.8918 75.0823 58.1329C74.8411 58.374 74.5141 58.5095 74.1731 58.5095Z" fill="#BFDFFF"/>
<path d="M75.2142 63.2858C74.9599 63.2858 74.7113 63.2103 74.4998 63.0691C74.2884 62.9278 74.1236 62.727 74.0262 62.492C73.9289 62.257 73.9034 61.9985 73.9531 61.7491C74.0027 61.4997 74.1251 61.2705 74.305 61.0907C74.4848 60.9109 74.7139 60.7884 74.9633 60.7388C75.2128 60.6892 75.4713 60.7147 75.7062 60.812C75.9412 60.9093 76.142 61.0741 76.2833 61.2856C76.4246 61.497 76.5 61.7456 76.5 61.9999C76.5 62.341 76.3645 62.668 76.1234 62.9091C75.8823 63.1503 75.5552 63.2858 75.2142 63.2858Z" fill="#BFDFFF"/>
<path d="M74.3846 68.0622C74.1303 68.0622 73.8817 67.9868 73.6703 67.8455C73.4588 67.7043 73.294 67.5034 73.1967 67.2685C73.0994 67.0335 73.0739 66.775 73.1235 66.5256C73.1731 66.2761 73.2956 66.047 73.4754 65.8672C73.6553 65.6874 73.8844 65.5649 74.1338 65.5153C74.3832 65.4657 74.6418 65.4912 74.8767 65.5885C75.1117 65.6858 75.3125 65.8506 75.4538 66.0621C75.5951 66.2735 75.6705 66.5221 75.6705 66.7764C75.6705 67.1174 75.535 67.4445 75.2939 67.6856C75.0527 67.9268 74.7257 68.0622 74.3846 68.0622Z" fill="#BFDFFF"/>
<path d="M72.4808 72.4043C72.2264 72.4043 71.9778 72.3289 71.7664 72.1876C71.5549 72.0463 71.3901 71.8455 71.2928 71.6105C71.1955 71.3756 71.17 71.117 71.2196 70.8676C71.2693 70.6182 71.3917 70.3891 71.5715 70.2093C71.7514 70.0294 71.9805 69.907 72.2299 69.8573C72.4793 69.8077 72.7379 69.8332 72.9728 69.9305C73.2078 70.0278 73.4086 70.1926 73.5499 70.4041C73.6912 70.6156 73.7666 70.8642 73.7666 71.1185C73.7666 71.4595 73.6311 71.7865 73.39 72.0277C73.1488 72.2688 72.8218 72.4043 72.4808 72.4043Z" fill="#BFDFFF"/>
<path d="M69.0961 75.8779C68.8418 75.8779 68.5932 75.8025 68.3818 75.6612C68.1703 75.5199 68.0055 75.3191 67.9082 75.0842C67.8109 74.8492 67.7854 74.5907 67.835 74.3412C67.8846 74.0918 68.0071 73.8627 68.1869 73.6829C68.3667 73.5031 68.5959 73.3806 68.8453 73.331C69.0947 73.2814 69.3532 73.3068 69.5882 73.4042C69.8232 73.5015 70.024 73.6663 70.1653 73.8777C70.3065 74.0892 70.382 74.3378 70.382 74.5921C70.382 74.9331 70.2465 75.2602 70.0053 75.5013C69.7642 75.7424 69.4372 75.8779 69.0961 75.8779Z" fill="#BFDFFF"/>
<path d="M65.0769 77.6149C64.8226 77.6149 64.574 77.5394 64.3626 77.3982C64.1511 77.2569 63.9863 77.0561 63.889 76.8211C63.7917 76.5861 63.7662 76.3276 63.8158 76.0782C63.8654 75.8288 63.9879 75.5996 64.1677 75.4198C64.3476 75.24 64.5767 75.1175 64.8261 75.0679C65.0755 75.0183 65.334 75.0438 65.569 75.1411C65.804 75.2384 66.0048 75.4032 66.1461 75.6147C66.2874 75.8261 66.3628 76.0747 66.3628 76.329C66.3628 76.6701 66.2273 76.9971 65.9862 77.2382C65.745 77.4794 65.418 77.6149 65.0769 77.6149Z" fill="#BFDFFF"/>
<path d="M60.4231 78.5C60.6774 78.5 60.926 78.4246 61.1374 78.2833C61.3489 78.142 61.5137 77.9412 61.611 77.7062C61.7083 77.4713 61.7338 77.2127 61.6842 76.9633C61.6346 76.7139 61.5121 76.4848 61.3323 76.305C61.1525 76.1251 60.9234 76.0027 60.6739 75.9531C60.4245 75.9034 60.166 75.9289 59.931 76.0262C59.6961 76.1235 59.4952 76.2884 59.354 76.4998C59.2127 76.7113 59.1373 76.9599 59.1373 77.2142C59.1373 77.5552 59.2727 77.8822 59.5139 78.1234C59.755 78.3645 60.0821 78.5 60.4231 78.5Z" fill="#BFDFFF"/>
<circle cx="60.5" cy="61.5" r="7.5" fill="#2079D4"/>
</svg>
