<svg width="106" height="96" viewBox="0 0 106 96" fill="none" xmlns="http://www.w3.org/2000/svg">
<path d="M50 21.2831L38.9885 8.99805L1 21.713L12.0115 33.998" fill="#FFBF0D"/>
<path d="M50.4302 21.2831L61.5698 8.99805L100 21.713L88.8605 33.998L50.4302 21.2831ZM50.4302 21.2831L12 33.998L50.4302 21.2831Z" fill="#FFBF0D"/>
<path d="M51.6639 50.998L12 34.1905L50.5 20.998L89 34.1905L51.6639 50.998Z" fill="#FFD671"/>
<path d="M76 12.998H25V58.998H76V12.998Z" fill="white"/>
<path d="M76 12.998H25V16.998H76V12.998Z" fill="#9AC7F7"/>
<path d="M28 14.998C28 15.5409 27.5429 15.998 27 15.998C26.4286 15.998 26 15.5409 26 14.998C26 14.4266 26.4571 13.998 27 13.998C27.5429 13.998 28 14.4552 28 14.998Z" fill="#003E99"/>
<path d="M31 14.998C31 15.5409 30.5429 15.998 30 15.998C29.4571 15.998 29 15.5409 29 14.998C29 14.4266 29.4571 13.998 30 13.998C30.5429 13.998 31 14.4552 31 14.998Z" fill="#0450CF"/>
<path d="M33 14.998C33 15.5409 32.7714 15.998 32.5 15.998C32.2143 15.998 32 15.5409 32 14.998C32 14.4266 32.2286 13.998 32.5 13.998C32.7714 13.998 33 14.4552 33 14.998Z" fill="#EAF4FE"/>
<path d="M69.9318 44.5801H26.9492V45.7294H69.9318V44.5801Z" fill="#9AC7F7"/>
<path d="M71.5858 46.6719H26.9492V47.8212H71.5858V46.6719Z" fill="#9AC7F7"/>
<path d="M58.8817 48.7637H26.9492V49.9131H58.8817V48.7637Z" fill="#9AC7F7"/>
<path d="M70.7594 22.5801H46.1094V23.7294H70.7594V22.5801Z" fill="#9AC7F7"/>
<path d="M71.5865 24.6719H46.1094V25.8212H71.5865V24.6719Z" fill="#9AC7F7"/>
<path d="M71.5865 26.7637H46.1094V27.913H71.5865V26.7637Z" fill="#9AC7F7"/>
<path d="M70.4838 28.8555H46.1094V30.0048H70.4838V28.8555Z" fill="#9AC7F7"/>
<path d="M71.5865 30.9473H46.1094V32.0966H71.5865V30.9473Z" fill="#9AC7F7"/>
<path d="M69.9324 33.0391H46.1094V34.1884H69.9324V33.0391Z" fill="#9AC7F7"/>
<path d="M71.5865 35.1328H46.1094V36.2822H71.5865V35.1328Z" fill="#9AC7F7"/>
<path d="M70.2081 37.2227H46.1094V38.372H70.2081V37.2227Z" fill="#9AC7F7"/>
<path d="M56.9756 39.3164H46.1094V40.4658H56.9756V39.3164Z" fill="#9AC7F7"/>
<path d="M43 22.998H27V36.998H43V22.998Z" fill="#2A66C4"/>
<path d="M30.988 28.998C30.8439 28.998 30.7239 29.01 30.6039 29.0338C30.4838 29.0576 30.3638 29.0933 30.2677 29.1409C30.0757 29.2361 29.9796 29.3671 30.0036 29.498C30.0036 29.629 30.0997 29.76 30.2917 29.8552C30.3878 29.9028 30.5078 29.9385 30.6279 29.9623C30.7479 29.9861 30.892 29.998 31.012 29.998C31.1561 29.998 31.2761 29.9861 31.3961 29.9623C31.5162 29.9385 31.6362 29.9028 31.7323 29.8552C31.9243 29.76 32.0204 29.629 31.9964 29.498C31.9964 29.3671 31.9003 29.2361 31.7323 29.1409C31.6362 29.0933 31.5402 29.0576 31.3961 29.0338C31.2761 29.01 31.1561 28.998 30.988 28.998Z" fill="white"/>
<path d="M36.0465 31.6785H34.6744V33.998H33V25.998H36.0465C38 25.998 39 26.9211 39 28.7673C39 29.6904 38.7442 30.4241 38.2558 30.9211C37.7442 31.4182 37.0233 31.6785 36.0465 31.6785ZM34.6977 30.2821H36.0465C36.8837 30.2821 37.3023 29.7614 37.3023 28.7673C37.3488 28.3886 37.2326 28.0099 37 27.7022C36.8837 27.5838 36.7209 27.4892 36.5581 27.4418C36.3953 27.3945 36.2093 27.3708 36.0465 27.3708H34.6977V30.2821Z" fill="white"/>
<path d="M11.7402 50.4629V76.4615L51.6674 95.2651V50.6008L11.7402 50.4629Z" fill="#D98F00"/>
<path d="M51.6641 50.6002V95.2645L89.2479 76.4609V50.2324L51.6641 50.6002Z" fill="#FECE40"/>
<path d="M52 50.4134L40.185 67.998L0 49.2442L11.815 33.998" fill="#FFBF0D"/>
<path d="M89.4656 33.998L100 49.3228L64.8702 66.998L52 50.498" fill="#FFBF0D"/>
<path d="M83 11.998H106V30.1751H101.559V34.998L96.7547 30.1751H83V11.998Z" fill="#C5E1F9"/>
<path d="M99.3928 0.501953H65.3008V24.7306H99.3928V0.501953Z" fill="#559BFF"/>
<path d="M71.2285 31.1679V20.2949H82.0948L71.2285 31.1679Z" fill="#559BFF"/>
<path d="M93.9503 7.92578H70.7246V9.41996H93.9503V7.92578Z" fill="#C5E1F9"/>
<path d="M93.9503 11.8789H70.7246V13.3731H93.9503V11.8789Z" fill="#C5E1F9"/>
<path d="M93.9503 15.834H70.7246V17.3282H93.9503V15.834Z" fill="#C5E1F9"/>
<path d="M58.5586 33.4492H57.5938V36.0008H58.5586V33.4492Z" fill="#FFD671"/>
<path d="M54.516 38.3238L52.3105 37.0595L52.793 36.209L54.9984 37.4963L54.516 38.3238Z" fill="#FFD671"/>
<path d="M52.793 43.4273L52.3105 42.5998L54.516 41.3125L54.9984 42.163L52.793 43.4273Z" fill="#FFD671"/>
<path d="M58.5586 43.6562H57.5938V46.2078H58.5586V43.6562Z" fill="#FFD671"/>
<path d="M61.6252 41.3242L61.1426 42.1602L63.3506 43.4365L63.8333 42.6005L61.6252 41.3242Z" fill="#C5E1F9"/>
<path d="M63.3414 36.2147L61.1328 37.4902L61.6152 38.3264L63.8237 37.0509L63.3414 36.2147Z" fill="#FFD671"/>
<path d="M69.6079 43.5412L64.8755 42.0011L60.166 40.4609L61.7052 45.1963L63.2214 49.9087L64.8755 46.6675L67.4025 49.1961L68.8958 47.7019L66.3687 45.1963L69.6079 43.5412Z" fill="#0450CF"/>
<path d="M64.8755 42.0011L60.166 40.4609L60.212 40.6218L68.0917 48.5065L68.8958 47.7019L66.3687 45.1963L69.6079 43.5412L64.8755 42.0011Z" fill="#0561FC"/>
</svg>
