<svg width="122" height="96" viewBox="0 0 122 96" fill="none" xmlns="http://www.w3.org/2000/svg">
<path d="M121.832 68.5872V14.96C121.832 14.306 121.582 13.652 121.083 13.1615C120.583 12.671 119.917 12.4258 119.251 12.4258H30.5772C29.9111 12.4258 29.245 12.671 28.7454 13.1615C28.2459 13.652 27.9961 14.306 27.9961 14.96V68.5872H121.832Z" fill="#0058B0"/>
<path d="M27.8301 68.751V76.5171C27.8301 77.2529 28.1631 77.9069 28.6627 78.3974C29.1623 78.8878 29.9116 79.2148 30.5777 79.2148H119.252C120.001 79.2148 120.667 78.9696 121.167 78.3974C121.666 77.9069 121.999 77.1711 121.999 76.5171V68.751H27.8301Z" fill="#C5E1F9"/>
<path d="M91.1913 90.5777C91.1913 90.5777 90.5252 90.2507 89.6926 89.9237C88.8599 89.5967 87.8608 89.188 87.278 88.9427C86.2788 88.4522 86.1123 88.1252 85.7793 86.4902C85.3629 84.6918 84.9466 80.8495 84.7801 79.1328H65.1303C64.9638 80.8495 64.5474 84.6918 64.1311 86.4902C63.7148 88.1252 63.6316 88.4522 62.6324 88.9427C62.0496 89.188 61.0504 89.5967 60.2178 89.9237C59.3852 90.2507 58.8024 90.4142 58.8024 90.4142C58.8024 90.4142 58.1363 90.7412 59.2187 90.8229H90.775C91.6909 90.9047 91.1913 90.5777 91.1913 90.5777Z" fill="#C5E1F9"/>
<path d="M84.9478 81.1766C84.8645 80.3591 84.7812 79.6233 84.698 79.1328H65.1314C65.0481 79.6233 65.0481 80.3591 64.9648 81.1766H84.9478Z" fill="#9AC7F7"/>
<path d="M44.8984 68.5872H64.465L100.184 12.4258H80.5345L44.8984 68.5872Z" fill="#1F62B2"/>
<path d="M69.9609 68.5872H77.1214L112.841 12.4258H105.68L69.9609 68.5872Z" fill="#1F62B2"/>
<path d="M117.504 16.5947H32.4102V63.682H117.504V16.5947Z" fill="#C5E1F9"/>
<path d="M117.585 22.8896H76.5371V56.7336H117.585V22.8896Z" fill="#EAF4FE"/>
<path d="M117.585 22.8896H76.5371V26.0778H117.585V22.8896Z" fill="#0058B0"/>
<path d="M117.587 23.7891H93.3574V25.1788H117.587V23.7891Z" fill="white"/>
<path d="M79.0353 24.5248C79.0353 24.6883 79.0353 24.77 78.952 24.8518C78.8688 24.9335 78.7855 25.0153 78.619 25.097C78.4525 25.1788 78.3692 25.1788 78.2027 25.097C78.0362 25.097 77.9529 25.0153 77.8696 24.9335C77.7864 24.8518 77.7031 24.6883 77.7031 24.6065C77.7031 24.443 77.7031 24.3613 77.7031 24.1978C77.7864 24.1161 77.8696 23.9526 77.9529 23.8708C78.0362 23.7891 78.2027 23.7891 78.2859 23.7891C78.4525 23.7891 78.619 23.8708 78.7855 23.9526C78.952 24.1978 79.0353 24.3613 79.0353 24.5248Z" fill="#D98F00"/>
<path d="M81.1995 24.5248C81.1995 24.6883 81.1995 24.77 81.1162 24.8518C81.0329 24.9335 80.9497 25.0153 80.7831 25.097C80.6999 25.1788 80.5333 25.1788 80.3668 25.097C80.2003 25.097 80.117 25.0153 80.0337 24.9335C79.9505 24.8518 79.8672 24.6883 79.8672 24.6065C79.8672 24.443 79.8672 24.3613 79.8672 24.1978C79.8672 24.0343 80.0337 23.9526 80.117 23.8708C80.2003 23.7891 80.3668 23.7891 80.4501 23.7891C80.6166 23.7891 80.7831 23.8708 80.9497 23.9526C81.1162 24.1978 81.1995 24.3613 81.1995 24.5248Z" fill="#FFCC00"/>
<path d="M83.2814 24.5248C83.2814 24.6883 83.2814 24.77 83.1981 24.8518C83.1148 24.9335 83.0316 25.0153 82.8651 25.097C82.7818 25.1788 82.6153 25.1788 82.4488 25.097C82.2823 25.097 82.199 25.0153 82.1157 24.9335C82.0325 24.8518 81.9492 24.6883 81.9492 24.6065C81.9492 24.443 81.9492 24.3613 81.9492 24.1978C82.0325 24.1161 82.1157 23.9526 82.199 23.8708C82.2823 23.7891 82.4488 23.7891 82.532 23.7891C82.6986 23.7891 82.8651 23.8708 83.0316 23.9526C83.1981 24.1978 83.2814 24.3613 83.2814 24.5248Z" fill="#7EB3FF"/>
<path d="M48.7285 52.6461H53.3911C54.5568 52.6461 55.6392 52.2373 56.3885 51.4198C57.2211 50.6023 57.6375 49.5396 57.6375 48.4768C57.6375 47.3323 57.2211 46.2696 56.3885 45.5339C55.5559 44.7164 54.4735 44.3076 53.3911 44.3076H48.7285V52.6461Z" fill="#D98F00"/>
<path d="M53.3907 52.6465H5.51524H4.76588C3.68348 52.6465 2.68434 53.0552 1.93498 53.7092C1.18563 54.3632 0.686055 55.3442 0.519531 56.3252C0.519531 57.4697 0.519531 93.3574 0.519531 95.2377C0.602793 94.2567 1.10236 93.2757 1.93498 92.6217C2.68434 91.9677 3.68348 91.559 4.76588 91.559H5.76502H53.3075C54.3899 91.559 55.389 91.1502 56.1384 90.4962C56.8877 89.8422 57.3873 88.8613 57.5538 87.8803C57.5538 86.7358 57.5538 50.848 57.5538 48.9678C57.4706 49.9488 56.971 50.9297 56.1384 51.5837C55.389 52.3195 54.3899 52.6465 53.3907 52.6465Z" fill="#EAF4FE"/>
<path d="M51.4772 72.5928H6.09961V73.4109H51.4772V72.5928Z" fill="#0066CC"/>
<path d="M46.4805 72.9196C46.4805 73.5736 46.314 74.1459 45.8977 74.6364C45.5646 75.1269 45.0651 75.5356 44.4822 75.7809C43.8994 76.0261 43.2333 76.1079 42.6505 75.9444C42.0676 75.8626 41.4848 75.5356 40.9852 75.0451C40.4856 74.5546 40.2359 74.0641 40.0693 73.4101C39.9861 72.8379 39.9861 72.1839 40.2359 71.6117C40.4856 71.0394 40.902 70.5489 41.4015 70.2219C41.9011 69.8949 42.5672 69.7314 43.15 69.7314C43.5663 69.7314 43.9827 69.8132 44.399 69.9767C44.8153 70.1402 45.1483 70.3854 45.4814 70.6307C45.8144 70.9577 45.981 71.2847 46.1475 71.6934C46.3973 72.1022 46.4805 72.5109 46.4805 72.9196Z" fill="#EAF4FE"/>
<path d="M43.3161 76.5171C42.5667 76.5171 41.9006 76.2718 41.3178 75.9449C40.7349 75.5361 40.2354 74.9639 39.9856 74.3916C39.7358 73.7376 39.6525 73.0019 39.8191 72.3479C39.9856 71.6939 40.3186 71.0399 40.8182 70.5494C41.3178 70.059 41.9839 69.732 42.65 69.5685C43.3161 69.405 44.0654 69.4867 44.7315 69.732C45.3976 69.9772 45.9805 70.4677 46.3968 71.0399C46.8131 71.6122 46.9796 72.3479 46.9796 73.0019C46.9796 73.9829 46.5633 74.8821 45.8972 75.5361C45.1478 76.1083 44.232 76.5171 43.3161 76.5171ZM43.3161 70.2224C42.7332 70.2224 42.2337 70.3859 41.7341 70.7129C41.2345 71.0399 40.9015 71.4487 40.7349 71.9392C40.4852 72.4297 40.4852 73.0019 40.5684 73.4924C40.6517 74.0646 40.9847 74.5551 41.3178 74.8821C41.7341 75.2909 42.2337 75.5361 42.7332 75.6179C43.3161 75.6996 43.8156 75.6996 44.3152 75.4544C44.8148 75.2091 45.2311 74.8821 45.5642 74.4734C45.8972 73.9829 46.0637 73.4924 46.0637 72.9202C46.0637 72.1844 45.7307 71.4487 45.2311 70.9582C44.7315 70.4677 44.0654 70.2224 43.3161 70.2224Z" fill="#0066CC"/>
<path d="M34.2408 70.3037H22.834V75.5358H34.2408V70.3037Z" fill="#EAF4FE"/>
<path d="M34.5742 75.9449H22.418V69.8955H34.5742V75.9449ZM23.2506 75.1275H33.8248V70.713H23.2506V75.1275Z" fill="#0066CC"/>
<path d="M55.3893 70.3037H50.0605V75.5358H55.3893V70.3037Z" fill="#EAF4FE"/>
<path d="M55.304 75.9449H49.1426V69.8955H55.304V75.9449ZM49.9752 75.1275H54.4713V70.713H49.9752V75.1275Z" fill="#0066CC"/>
<path d="M55.7225 69.4863H48.7285V76.3533H55.7225V69.4863Z" fill="#2A66C4"/>
<path d="M50.3948 72.1846C50.3115 72.1846 50.3115 72.1846 50.2283 72.1846C50.145 72.1846 50.145 72.2664 50.0618 72.2664C49.9785 72.3482 49.9785 72.43 49.9785 72.5936C49.9785 72.6754 49.9785 72.8391 50.145 72.9209C50.145 73.0027 50.2283 73.0027 50.3115 73.0027C50.3948 73.0027 50.3948 73.0027 50.4781 73.0027C50.5613 73.0027 50.5613 73.0027 50.6446 73.0027C50.7278 73.0027 50.7278 72.9209 50.8111 72.9209C50.8943 72.8391 50.8943 72.7573 50.8943 72.5936C50.8943 72.5118 50.8943 72.3482 50.8111 72.2664C50.8111 72.1846 50.7278 72.1846 50.6446 72.1846C50.5613 72.1846 50.4781 72.1846 50.3948 72.1846Z" fill="white"/>
<path d="M52.8908 73.656H52.3079V74.7188H51.5586V71.04H52.8908C53.8067 71.04 54.223 71.4488 54.223 72.2663C54.223 72.675 54.1397 73.002 53.8899 73.2473C53.6401 73.5743 53.3071 73.656 52.8908 73.656ZM52.3079 73.002H52.8908C53.3071 73.002 53.4736 72.7568 53.4736 72.348C53.4736 72.1845 53.4736 72.021 53.3071 71.8575C53.2238 71.7758 53.2238 71.7758 53.1406 71.7758C53.0573 71.7758 52.974 71.7758 52.8908 71.7758H52.3079V73.002Z" fill="white"/>
<path d="M14.5911 68.4238L10.0117 72.92L14.5911 77.4161L19.1705 72.92L14.5911 68.4238Z" fill="#EAF4FE"/>
<path d="M14.5919 77.9884L9.42969 72.92L14.5919 67.8516L19.7542 72.92L14.5919 77.9884ZM10.5954 72.92L14.5919 76.8439L18.5885 72.92L14.5919 68.996L10.5954 72.92Z" fill="#0066CC"/>
<path d="M23.4991 81.0126H14.1738V77.5791H15.0064V80.2768H23.5824V81.0126H23.4991Z" fill="#0066CC"/>
<path d="M14.9225 68.3416H14.0898V64.9082H23.4984V65.7257H14.9225V68.3416Z" fill="#0066CC"/>
<path d="M43.8995 81.0128H34.5742V80.1953H43.1502V75.9443H43.9828V81.0128H43.8995Z" fill="#0066CC"/>
<path d="M43.8995 69.8955H43.0669V65.6446H34.5742V64.8271H43.8995V69.8955Z" fill="#0066CC"/>
<path d="M34.2408 62.9463H22.834V68.1783H34.2408V62.9463Z" fill="#EAF4FE"/>
<path d="M34.5742 68.5875H22.418V62.5381H34.5742V68.5875ZM23.2506 67.77H33.8248V63.3556H23.2506V67.77Z" fill="#0066CC"/>
<path d="M34.2408 77.7432H22.834V82.9751H34.2408V77.7432Z" fill="#EAF4FE"/>
<path d="M34.5742 83.3834H22.418V77.334H34.5742V83.3834ZM23.2506 82.5659H33.8248V78.1515H23.2506V82.5659Z" fill="#0066CC"/>
<path d="M56.722 42.4276H68.0456C68.2121 42.4276 68.4619 42.3458 68.5451 42.1823C68.7117 42.0188 68.7949 41.8553 68.7949 41.6918C68.7949 41.5283 68.7117 41.2831 68.5451 41.2013C68.3786 41.0378 68.2121 40.9561 68.0456 40.9561H56.722C56.5555 40.9561 56.3057 41.0378 56.2224 41.2013C56.0559 41.3648 55.9727 41.5283 55.9727 41.6918C55.9727 41.8553 56.0559 42.1006 56.2224 42.1823C56.389 42.264 56.5555 42.4276 56.722 42.4276Z" fill="#0058B0"/>
<path d="M48.3125 13.8973C48.3125 10.2186 49.8112 6.7034 52.4756 4.08744C55.14 1.47148 58.7203 0 62.467 0C66.2138 0 69.7941 1.47148 72.4585 4.08744C75.1229 6.7034 76.6216 10.2186 76.6216 13.8973C76.6216 14.3878 76.2885 20.7642 70.9598 27.4676C69.3778 29.5113 69.6276 33.5988 69.7108 33.5988H55.2232C55.2232 33.5988 55.5563 29.5113 53.9743 27.4676C48.6455 20.7642 48.3125 14.306 48.3125 13.8973Z" fill="#D98F00"/>
<path d="M57.8866 31.8002C57.8033 30.0835 57.387 26.7318 56.2213 25.3421C51.1424 18.9656 50.8926 12.9162 50.8926 12.8345C50.8926 9.64627 52.2248 6.53981 54.4728 4.33259C56.8042 2.04362 59.8849 0.817383 63.1321 0.817383C66.3793 0.817383 69.5432 2.12537 71.7913 4.33259C74.2059 6.53981 75.5381 9.56452 75.5381 12.7527C75.5381 12.8345 75.2883 18.8839 70.2926 25.2603C69.2102 26.7318 68.7106 30.0018 68.6273 31.8002H57.8866Z" fill="#FFCC00"/>
<path d="M73.5403 14.9597C73.3737 14.9597 73.2905 14.9597 73.124 14.878C72.9574 14.7962 72.8742 14.7145 72.7909 14.6327C72.7077 14.551 72.6244 14.3875 72.5411 14.3057C72.4579 14.1422 72.4579 14.0605 72.4579 13.897C72.4579 11.281 71.3755 8.7468 69.5437 6.94832C67.6287 5.06809 65.1308 4.08711 62.4664 4.08711C62.1334 4.08711 61.8836 4.00536 61.7171 3.76011C61.384 3.51486 61.3008 3.26962 61.3008 2.94262C61.3008 2.61562 61.384 2.37038 61.6338 2.20688C61.8004 2.04338 62.1334 1.87988 62.3832 1.87988C65.6304 1.87988 68.7111 3.18787 71.0424 5.39509C73.3737 7.68406 74.6227 10.7088 74.6227 13.897C74.6227 14.224 74.5394 14.4692 74.2896 14.6327C74.1231 14.878 73.8733 14.9597 73.5403 14.9597Z" fill="#FFDD55"/>
<path d="M58.8024 34.6617L56.9707 20.3556L57.72 20.1104L59.5518 34.4164L58.8024 34.6617Z" fill="#0058B0"/>
<path d="M65.9642 34.6617L67.7959 20.3556L67.0466 20.1104L65.2148 34.4164L65.9642 34.6617Z" fill="#0058B0"/>
<path d="M67.2134 22.1541C66.7138 22.1541 66.464 21.6636 66.2975 21.3366C66.2142 21.1731 66.131 20.8461 66.0477 20.8461C65.9644 20.8461 65.7979 21.1731 65.7979 21.3366C65.6314 21.6636 65.3816 22.1541 64.882 22.1541C64.3824 22.1541 64.1327 21.6636 63.9661 21.3366C63.9661 21.2549 63.8829 21.0914 63.7996 21.0096C63.5498 21.5001 63.0502 22.1541 62.4674 22.1541C61.9678 22.1541 61.718 21.6636 61.5515 21.3366C61.4682 21.1731 61.385 20.8461 61.3017 20.8461C61.2185 20.8461 61.0519 21.1731 61.0519 21.3366C60.8854 21.6636 60.6356 22.1541 60.136 22.1541C59.6365 22.1541 59.3867 21.6636 59.2202 21.3366C59.1369 21.1731 59.0536 20.8461 58.9704 20.8461C58.8871 20.8461 58.7206 21.1731 58.7206 21.3366C58.5541 21.6636 58.3043 22.1541 57.8047 22.1541V21.5001C57.888 21.5001 58.0545 21.1731 58.0545 21.0096C58.221 20.6826 58.4708 20.1921 58.9704 20.1921C59.4699 20.1921 59.7197 20.6826 59.8863 21.0096C59.9695 21.1731 60.0528 21.5001 60.136 21.5001C60.2193 21.5001 60.3858 21.1731 60.3858 21.0096C60.5524 20.6826 60.8021 20.1921 61.3017 20.1921C61.8013 20.1921 62.0511 20.6826 62.2176 21.0096C62.3009 21.1731 62.3841 21.5001 62.4674 21.5001C62.6339 21.5001 63.0502 21.0096 63.3 20.3556C63.3 20.2739 63.3833 20.2739 63.3833 20.1921C63.4666 20.1921 63.4666 20.1104 63.5498 20.1104C64.0494 20.1104 64.2992 20.6009 64.4657 20.9279C64.549 21.0914 64.6322 21.4184 64.7155 21.4184C64.7988 21.4184 64.9653 21.0914 64.9653 20.9279C65.1318 20.6009 65.3816 20.1104 65.8812 20.1104C66.3808 20.1104 66.6305 20.6009 66.7971 20.9279C66.8803 21.0914 66.9636 21.4184 67.0469 21.4184V22.1541H67.2134Z" fill="#0058B0"/>
<path d="M69.627 33.6807V40.9563C69.627 41.2016 69.5437 41.4468 69.3772 41.6103C69.2106 41.7738 68.9609 41.8556 68.7111 41.8556H56.1385C55.8887 41.8556 55.639 41.7738 55.4724 41.6103C55.3059 41.4468 55.2227 41.2016 55.2227 40.9563V33.6807H69.627Z" fill="#0058B0"/>
<path d="M69.8752 35.0701H54.888C54.8048 35.0701 54.7215 35.0701 54.6382 34.9883C54.555 34.9883 54.4717 34.9066 54.3885 34.8248C54.3052 34.7431 54.3052 34.6613 54.2219 34.5796C54.2219 34.4978 54.1387 34.4161 54.1387 34.3344C54.1387 34.2526 54.1387 34.1709 54.2219 34.0891C54.2219 34.0074 54.3052 33.9256 54.3885 33.8439C54.4717 33.7621 54.555 33.7621 54.6382 33.6804C54.7215 33.6804 54.8048 33.5986 54.888 33.5986H69.8752C70.0417 33.5986 70.2915 33.6804 70.3747 33.8439C70.5413 34.0074 70.6245 34.1709 70.6245 34.3344C70.6245 34.4978 70.5413 34.7431 70.3747 34.8248C70.2915 34.9883 70.1249 35.0701 69.8752 35.0701Z" fill="#0058B0"/>
<path d="M63.2992 34.7439H54.973C54.8897 34.7439 54.8897 34.7439 54.8064 34.7439C54.7232 34.7439 54.7232 34.6621 54.6399 34.6621C54.6399 34.6621 54.5566 34.5803 54.5566 34.4985C54.5566 34.4167 54.5566 34.4167 54.5566 34.3348C54.5566 34.253 54.5566 34.253 54.5566 34.1712C54.5566 34.0894 54.6399 34.0894 54.6399 34.0076C54.6399 34.0076 54.7232 33.9258 54.8064 33.9258C54.8897 33.9258 54.8897 33.9258 54.973 33.9258H63.2992C63.3824 33.9258 63.5489 34.0076 63.5489 34.0076C63.6322 34.0894 63.6322 34.1712 63.6322 34.253C63.6322 34.3348 63.5489 34.4167 63.5489 34.4985C63.4657 34.6621 63.3824 34.7439 63.2992 34.7439Z" fill="#4B96E1"/>
<path d="M69.8752 37.4412H54.888C54.8048 37.4412 54.7215 37.4412 54.6382 37.3595C54.555 37.3595 54.4717 37.2777 54.3885 37.196C54.3052 37.1142 54.3052 37.0325 54.2219 36.9507C54.2219 36.869 54.1387 36.7872 54.1387 36.7055C54.1387 36.6237 54.1387 36.542 54.2219 36.4602C54.2219 36.3785 54.3052 36.2967 54.3885 36.215C54.4717 36.1332 54.555 36.1332 54.6382 36.0515C54.7215 36.0515 54.8048 35.9697 54.888 35.9697H69.8752C70.0417 35.9697 70.2915 36.0515 70.3747 36.215C70.5413 36.3785 70.6245 36.542 70.6245 36.7055C70.6245 36.869 70.5413 37.1142 70.3747 37.196C70.2082 37.2777 70.1249 37.4412 69.8752 37.4412Z" fill="#0058B0"/>
<path d="M69.8752 39.8113H54.888C54.8048 39.8113 54.7215 39.8113 54.6382 39.7296C54.555 39.7296 54.4717 39.6478 54.3885 39.5661C54.3052 39.4843 54.3052 39.4026 54.2219 39.3208C54.2219 39.2391 54.1387 39.1573 54.1387 39.0756C54.1387 38.9938 54.1387 38.9121 54.2219 38.8303C54.2219 38.7486 54.3052 38.6668 54.3885 38.5851C54.4717 38.5033 54.555 38.5033 54.6382 38.4216C54.7215 38.4216 54.8048 38.3398 54.888 38.3398H69.8752C70.0417 38.3398 70.2915 38.4216 70.3747 38.5851C70.5413 38.7486 70.6245 38.9121 70.6245 39.0756C70.6245 39.2391 70.5413 39.4843 70.3747 39.5661C70.2915 39.7296 70.1249 39.8113 69.8752 39.8113Z" fill="#0058B0"/>
<path d="M63.2992 36.9509H54.973C54.8897 36.9509 54.8897 36.9509 54.8064 36.9509C54.7232 36.9509 54.7232 36.8691 54.6399 36.8691C54.6399 36.8691 54.5566 36.7873 54.5566 36.7055C54.5566 36.6236 54.5566 36.6236 54.5566 36.5418C54.5566 36.46 54.5566 36.46 54.5566 36.3782C54.5566 36.2964 54.6399 36.2964 54.6399 36.2146C54.6399 36.2146 54.7232 36.1328 54.8064 36.1328C54.8897 36.1328 54.8897 36.1328 54.973 36.1328H63.2992C63.3824 36.1328 63.5489 36.2146 63.5489 36.2146C63.6322 36.2964 63.6322 36.3782 63.6322 36.46C63.6322 36.5418 63.5489 36.6236 63.5489 36.7055C63.4657 36.9509 63.3824 36.9509 63.2992 36.9509Z" fill="#4B96E1"/>
<path d="M63.2978 39.4036H54.9717C54.8885 39.4036 54.7219 39.3217 54.7219 39.3217C54.6387 39.2399 54.6387 39.1581 54.6387 39.0763C54.6387 38.9945 54.7219 38.8308 54.7219 38.8308C54.8052 38.749 54.8885 38.749 54.9717 38.749H63.2978C63.3811 38.749 63.5476 38.749 63.5476 38.8308C63.6309 38.9127 63.6309 38.9945 63.6309 39.0763C63.6309 39.1581 63.5476 39.2399 63.5476 39.3217C63.4643 39.3217 63.3811 39.4036 63.2978 39.4036Z" fill="#4B96E1"/>
<path d="M64.298 35.0703H57.2207V35.8067H64.298V35.0703Z" fill="#1569BE"/>
<path d="M64.298 37.3594H57.2207V38.0957H64.298V37.3594Z" fill="#1569BE"/>
<path d="M64.298 39.7295H57.2207V40.4657H64.298V39.7295Z" fill="#1569BE"/>
<path d="M103.513 35.1523L98.0176 38.0953V43.9812L103.513 47.4147L109.008 43.9812V38.0953L103.513 35.1523Z" fill="#FFCC00"/>
<path d="M110.924 44.9619L113.422 46.4334L103.431 52.3193L93.4395 46.4334L95.9373 44.9619" stroke="#7EB3FF" stroke-width="0.870447" stroke-linecap="round" stroke-linejoin="round"/>
<path d="M93.5234 35.1522L103.515 41.0381L113.506 35.1522L103.515 29.7568L93.5234 35.1522Z" stroke="#7EB3FF" stroke-width="0.870447" stroke-linecap="round" stroke-linejoin="round"/>
<path d="M103.514 41.0381V52.3195" stroke="#7EB3FF" stroke-width="0.870447" stroke-linecap="round" stroke-linejoin="round"/>
<path d="M103.514 29.7568V32.2093" stroke="#7EB3FF" stroke-width="0.870447" stroke-linecap="round" stroke-linejoin="round"/>
<path d="M93.5234 35.1523V46.4338" stroke="#7EB3FF" stroke-width="0.870447" stroke-linecap="round" stroke-linejoin="round"/>
<path d="M89.6084 30.4102H80.9492V30.819H89.6084V30.4102Z" fill="#4B96E1"/>
<path d="M89.6084 31.6367H80.9492V32.0455H89.6084V31.6367Z" fill="#4B96E1"/>
<path d="M87.1106 32.9453H80.9492V33.354H87.1106V32.9453Z" fill="#4B96E1"/>
<path d="M80.0343 30.165H79.0352V30.9832H80.0343V30.165Z" fill="#4B96E1"/>
<path d="M89.6084 36.0508H80.9492V36.4595H89.6084V36.0508Z" fill="#4B96E1"/>
<path d="M89.6084 37.3594H80.9492V37.7681H89.6084V37.3594Z" fill="#4B96E1"/>
<path d="M87.1106 38.585H80.9492V38.9937H87.1106V38.585Z" fill="#4B96E1"/>
<path d="M80.0343 35.8877H79.0352V36.7058H80.0343V35.8877Z" fill="#4B96E1"/>
<path d="M89.6084 41.9375H80.9492V42.3463H89.6084V41.9375Z" fill="#4B96E1"/>
<path d="M89.6084 43.1631H80.9492V43.5724H89.6084V43.1631Z" fill="#4B96E1"/>
<path d="M87.1106 44.4717H80.9492V44.8807H87.1106V44.4717Z" fill="#4B96E1"/>
<path d="M80.0343 41.6914H79.0352V42.5096H80.0343V41.6914Z" fill="#4B96E1"/>
<path d="M89.6084 47.5781H80.9492V47.9868H89.6084V47.5781Z" fill="#4B96E1"/>
<path d="M89.6084 48.8857H80.9492V49.2946H89.6084V48.8857Z" fill="#4B96E1"/>
<path d="M87.1106 50.1123H80.9492V50.521H87.1106V50.1123Z" fill="#4B96E1"/>
<path d="M80.0343 47.4141H79.0352V48.2323H80.0343V47.4141Z" fill="#4B96E1"/>
<path d="M83.531 46.5967H82.6152V48.8857H83.531V46.5967Z" fill="#C5E1F9"/>
<path d="M79.7847 51.0111L77.7031 49.8666L78.1194 49.1309L80.201 50.2754L79.7847 51.0111Z" fill="#C5E1F9"/>
<path d="M79.7847 53.709L77.7031 54.8535L78.1194 55.5892L80.201 54.4447L79.7847 53.709Z" fill="#C5E1F9"/>
<path d="M83.531 55.834H82.6152V58.1228H83.531V55.834Z" fill="#C5E1F9"/>
<path d="M88.0269 49.1309L85.9453 50.2754L86.3616 51.0111L88.4432 49.8666L88.0269 49.1309Z" fill="#C5E1F9"/>
<path d="M96.5197 56.2432L89.7755 54.1177L83.0312 51.9922L85.1961 58.6139L87.3609 65.2356L89.7755 60.7394L93.3557 64.2546L95.5205 62.2109L91.9403 58.6956L96.5197 56.2432Z" fill="#3683F2"/>
<path d="M89.7754 54.1177L83.0312 51.9922L83.1145 52.2374L94.4381 63.2736L95.6038 62.1291L92.0235 58.6139L96.6862 56.3249L89.7754 54.1177Z" fill="#7EB3FF"/>
</svg>
