<svg width="160" height="160" viewBox="0 0 160 160" fill="none" xmlns="http://www.w3.org/2000/svg">
<g clip-path="url(#clip0_316_20814)">
<path d="M79 150C92.8447 150 106.378 145.895 117.89 138.203C129.401 130.511 138.373 119.579 143.672 106.788C148.97 93.997 150.356 79.9224 147.655 66.3437C144.954 52.765 138.287 40.2922 128.497 30.5026C118.708 20.7129 106.235 14.046 92.6563 11.3451C79.0777 8.6441 65.003 10.0303 52.2122 15.3285C39.4213 20.6266 28.4888 29.5987 20.7971 41.1101C13.1054 52.6216 9 66.1553 9 80C9 98.5652 16.375 116.37 29.5025 129.498C42.6301 142.625 60.4348 150 79 150Z" fill="#F0F6FC"/>
<path d="M81.998 40C81.998 39.1716 81.3265 38.5 80.498 38.5C79.6696 38.5 78.998 39.1716 78.998 40L81.998 40ZM78.998 43.2021L78.998 44.7021L81.998 44.7021L81.998 43.2021L78.998 43.2021ZM78.998 40L78.998 43.2021L81.998 43.2021L81.998 40L78.998 40Z" fill="#365066"/>
<path fill-rule="evenodd" clip-rule="evenodd" d="M79.4189 110.981C78.5402 110.987 77.8299 111.702 77.8299 112.582L77.8299 122.188C77.8299 123.073 78.5467 123.789 79.431 123.789C80.3152 123.789 81.0321 123.073 81.0321 122.188V112.582C81.0321 111.702 80.3217 110.987 79.443 110.981H79.4189ZM88.4374 112.146C88.0637 111.345 87.1111 110.998 86.3097 111.372C85.5083 111.745 85.1616 112.698 85.5353 113.499L91.3995 126.075C91.7732 126.877 92.7258 127.223 93.5272 126.85C94.3286 126.476 94.6754 125.523 94.3017 124.722L88.4374 112.146ZM63.5635 124.722C63.1898 125.523 63.5365 126.476 64.3379 126.85C65.1393 127.223 66.0919 126.877 66.4656 126.075L72.3298 113.499C72.7035 112.698 72.3568 111.745 71.5554 111.372C70.754 110.998 69.8014 111.345 69.4277 112.146L63.5635 124.722Z" fill="#365066"/>
<path d="M33 44.8032H124.795V105.649C124.795 110.068 121.213 113.649 116.795 113.649H41C36.5817 113.649 33 110.068 33 105.649V44.8032Z" fill="#2079D4"/>
<path d="M34.5 46.3032H123.295V105.649C123.295 109.239 120.385 112.149 116.795 112.149H41C37.4101 112.149 34.5 109.239 34.5 105.649V46.3032Z" fill="white" stroke="#365066" stroke-width="3"/>
<path d="M69 67H61V105H69V67Z" fill="#50A7EF"/>
<path d="M52 105H59V78H52V105Z" fill="#2079D4"/>
<path d="M50 91H42V105H50V91Z" fill="#50A7EF"/>
<path d="M71 105H79V82H71V105Z" fill="#CC7A00"/>
<path d="M101.6 82C99.3057 82 97.063 82.6803 95.1554 83.955C93.2478 85.2296 91.761 87.0413 90.883 89.1609C90.005 91.2805 89.7753 93.6129 90.2229 95.863C90.6705 98.1132 91.7753 100.18 93.3976 101.802C95.0199 103.425 97.0868 104.53 99.337 104.977C101.587 105.425 103.92 105.195 106.039 104.317C108.159 103.439 109.97 101.952 111.245 100.045C112.52 98.137 113.2 95.8943 113.2 93.6H101.6V82Z" fill="#50A7EF"/>
<path d="M113.2 93.6C113.2 90.5235 111.977 87.573 109.802 85.3976C107.627 83.2221 104.676 82 101.6 82V93.6H113.2Z" fill="#2079D4"/>
<path d="M107.799 71H107.696C107.501 70.9828 107.313 70.9115 107.154 70.7935C106.995 70.6755 106.869 70.5153 106.79 70.3296L101.672 58.4297L96.5163 65.6138C96.4237 65.7416 96.3065 65.8481 96.1722 65.9268C96.0379 66.0055 95.8892 66.0545 95.7357 66.0709C95.5816 66.0883 95.4256 66.0714 95.2783 66.0215C95.131 65.9716 94.9957 65.8897 94.8814 65.7814L86.4414 57.7517C86.3188 57.6564 86.2166 57.5358 86.1415 57.3974C86.0664 57.2591 86.02 57.1061 86.0052 56.9482C85.9904 56.7903 86.0075 56.6309 86.0555 56.4802C86.1035 56.3295 86.1813 56.1908 86.284 56.0729C86.3866 55.955 86.5119 55.8606 86.6518 55.7955C86.7917 55.7304 86.9431 55.6962 87.0965 55.6951C87.2499 55.6939 87.4018 55.7258 87.5426 55.7887C87.6834 55.8515 87.81 55.9441 87.9144 56.0604L95.4779 63.2064L101.009 55.4661C101.123 55.3048 101.277 55.1774 101.454 55.0968C101.631 55.0161 101.826 54.9851 102.018 55.0067C102.211 55.0283 102.394 55.1018 102.551 55.2199C102.707 55.3379 102.83 55.4964 102.909 55.6795L107.998 67.526L114.98 57.0203C115.062 56.8962 115.167 56.7901 115.289 56.7081C115.411 56.626 115.547 56.5696 115.69 56.542C115.833 56.5144 115.979 56.5162 116.122 56.5473C116.264 56.5784 116.399 56.6381 116.519 56.7232C116.639 56.8082 116.741 56.9169 116.821 57.0429C116.9 57.1689 116.955 57.3099 116.981 57.4578C117.008 57.6056 117.006 57.7575 116.976 57.9046C116.946 58.0518 116.888 58.1914 116.806 58.3154L108.705 70.5048C108.603 70.656 108.467 70.7798 108.31 70.8659C108.152 70.952 107.977 70.998 107.799 71V71Z" fill="#80B9F2"/>
<path d="M87 59C88.1046 59 89 58.1046 89 57C89 55.8954 88.1046 55 87 55C85.8954 55 85 55.8954 85 57C85 58.1046 85.8954 59 87 59Z" fill="#2079D4"/>
<path d="M95.5 67C96.8807 67 98 65.8807 98 64.5C98 63.1193 96.8807 62 95.5 62C94.1193 62 93 63.1193 93 64.5C93 65.8807 94.1193 67 95.5 67Z" fill="#2079D4"/>
<path d="M102 59C103.105 59 104 58.1046 104 57C104 55.8954 103.105 55 102 55C100.895 55 100 55.8954 100 57C100 58.1046 100.895 59 102 59Z" fill="#2079D4"/>
<path d="M108 71C109.105 71 110 70.1046 110 69C110 67.8954 109.105 67 108 67C106.895 67 106 67.8954 106 69C106 70.1046 106.895 71 108 71Z" fill="#2079D4"/>
<path d="M116 60C117.105 60 118 59.1046 118 58C118 56.8954 117.105 56 116 56C114.895 56 114 56.8954 114 58C114 59.1046 114.895 60 116 60Z" fill="#2079D4"/>
</g>
<defs>
<clipPath id="clip0_316_20814">
<rect width="160" height="160" fill="white"/>
</clipPath>
</defs>
</svg>
