<svg width="589" height="572" viewBox="0 0 589 572" fill="none" xmlns="http://www.w3.org/2000/svg">
<g clip-path="url(#clip0)">
<ellipse cx="433.639" cy="67.4907" rx="99.8661" ry="99.1628" fill="#0066CC"/>
<ellipse cx="524.361" cy="339.661" rx="99.1628" ry="99.8661" fill="#0066CC"/>
<circle cx="290.872" cy="511.965" r="99.1628" fill="#0066CC"/>
<circle cx="148.809" cy="67.4907" r="99.1628" fill="#0066CC"/>
<ellipse cx="53.1628" cy="339.661" rx="99.1628" ry="99.8661" fill="#0066CC"/>
<path d="M428.748 40.54C432.368 40.54 435.385 43.5564 435.385 47.1761C435.385 50.7958 432.368 53.8122 428.748 53.8122C425.129 53.8122 422.112 50.7958 422.112 47.1761C422.112 43.5564 425.008 40.54 428.748 40.54ZM428.748 35.7137C422.354 35.7137 417.286 40.902 417.286 47.1761C417.286 53.4502 422.474 58.6384 428.748 58.6384C435.143 58.6384 440.211 53.4502 440.211 47.1761C440.211 40.902 435.023 35.7137 428.748 35.7137Z" fill="white"/>
<path d="M462.167 47.176C461.563 46.452 446.602 28.4743 428.986 28.4743C428.866 28.4743 428.866 28.4743 428.866 28.4743C427.297 28.3536 410.526 28.233 395.323 47.176C409.44 65.0331 425.125 65.9983 428.383 65.9983C428.624 65.9983 428.745 65.9983 428.866 65.9983H428.986C446.602 65.9983 461.563 48.0206 462.167 47.176ZM428.986 61.1721H428.745H428.624C428.504 61.1721 414.87 61.7754 401.718 47.176C408.233 40.0573 414.628 36.6789 419.213 35.1104C424.763 33.0592 428.624 33.3005 428.745 33.3005H428.866H428.986C429.107 33.3005 429.107 33.3005 429.228 33.3005C440.449 33.3005 451.066 42.3497 455.772 47.2966C450.704 52.1229 440.207 61.1721 428.986 61.1721Z" fill="white"/>
<path d="M460.842 19.184H397.619C393.878 19.184 390.741 22.3211 390.741 26.0614V125.723C390.741 129.464 393.878 132.601 397.619 132.601H460.722V115.709H482.44L460.842 19.184ZM455.895 110.883V127.774H397.619C396.533 127.774 395.567 126.809 395.567 125.723V26.0614C395.567 24.9755 396.533 24.0103 397.619 24.0103H456.378L475.804 110.883H455.895Z" fill="white"/>
<path d="M401.385 1.70785L397.205 4.12097L404.444 16.6596L408.624 14.2464L401.385 1.70785Z" fill="white"/>
<path d="M429.471 -0.121216H424.645V14.3575H429.471V-0.121216Z" fill="white"/>
<path d="M456.904 4.12583L452.725 1.71271L445.485 14.2513L449.665 16.6644L456.904 4.12583Z" fill="white"/>
<path d="M465.196 355.764L480.52 371.087L465.196 355.764ZM536.021 313.896L522.267 300.262L522.146 300.141L536.021 314.017V313.896Z" fill="white"/>
<path d="M518.04 302.796L533.363 318.119L518.04 302.796Z" fill="white"/>
<path d="M468.573 352.265L483.897 367.588L468.573 352.265Z" fill="white"/>
<path d="M517.802 309.432L475.09 352.024L478.589 355.402L521.18 312.81L517.802 309.432Z" fill="white"/>
<path d="M566.55 282.405H504.653C500.913 282.405 497.776 285.542 497.776 289.282V316.309L462.183 351.903C458.201 355.885 458.201 362.4 462.183 366.382L469.905 374.104C471.956 376.155 474.489 377.12 477.144 377.12C479.798 377.12 482.332 376.155 484.383 374.104L497.776 360.59V396.184C497.776 400.045 500.913 403.061 504.653 403.061H567.757V386.169H589.475L566.55 282.405ZM480.522 371.087C479.557 371.811 478.35 372.294 477.144 372.294C475.696 372.294 474.369 371.691 473.283 370.725L465.561 363.003C464.596 362.038 463.992 360.59 463.992 359.142C463.992 357.936 464.354 356.729 465.199 355.764L480.522 371.087ZM498.862 352.024C498.862 352.265 498.741 352.506 498.741 352.748L483.901 367.709L468.577 352.265L518.046 302.796L533.37 318.119L517.322 334.287C510.324 335.011 504.412 339.234 501.154 345.267C501.034 345.387 499.224 349.852 498.862 352.024ZM522.269 300.141H522.511L538.437 297.849L536.145 313.776V314.017L522.269 300.141ZM562.93 381.343V398.235H504.653C503.568 398.235 502.602 397.27 502.602 396.184V367.709C502.723 367.95 503.568 368.915 503.688 369.157C507.549 373.621 513.099 376.517 519.374 376.517V371.691C511.531 371.691 505.015 365.899 503.688 358.177C503.568 357.212 503.447 356.367 503.447 355.402C503.447 355.281 503.447 355.161 503.447 355.04L503.688 352.627C504.291 349.248 505.86 346.232 508.032 343.94C510.928 340.923 514.909 339.113 519.374 339.113L540.126 318.361L543.625 295.557C543.867 293.988 542.66 292.661 540.971 292.661C540.85 292.661 518.046 296.039 518.046 296.039L502.602 311.362V289.282C502.602 288.197 503.568 287.231 504.653 287.231H562.086L582.718 381.343H562.93Z" fill="white"/>
<path d="M512.614 355.281C512.614 358.901 515.631 361.917 519.371 361.917V366.744C512.976 366.744 507.788 361.555 507.788 355.281C507.788 352.265 508.874 349.61 510.804 347.559C510.925 347.439 511.046 347.318 511.166 347.197C513.218 345.146 516.113 343.819 519.371 343.819V348.645C515.631 348.645 512.614 351.661 512.614 355.281Z" fill="white"/>
<path d="M274.055 497.442H273.935V498.648H274.297C274.176 498.286 274.176 497.804 274.055 497.442Z" fill="white"/>
<path d="M294.929 540.999C286 540.999 278.761 533.76 278.761 524.831V504.44C276.589 503.113 275.02 501.062 274.297 498.649H273.935V524.831C273.935 536.293 283.104 545.584 294.446 545.825V572.249H341.502V540.999H294.929ZM336.676 567.423H299.272V545.825H336.676V567.423Z" fill="white"/>
<path d="M331.248 492.616C331.248 492.616 331.127 492.616 331.248 492.616C329.438 492.737 328.111 494.064 328.231 495.753C328.352 497.321 329.679 498.649 331.248 498.649H331.368C333.057 498.528 334.385 497.201 334.264 495.512C334.143 493.943 332.816 492.616 331.248 492.616Z" fill="white"/>
<path d="M315.562 492.616C315.562 492.616 315.441 492.616 315.562 492.616C313.752 492.737 312.425 494.064 312.546 495.753C312.666 497.321 313.994 498.649 315.562 498.649H315.683C317.372 498.528 318.699 497.201 318.579 495.512C318.458 493.943 317.131 492.616 315.562 492.616Z" fill="white"/>
<path d="M284.19 492.616C284.19 492.616 284.069 492.616 284.19 492.616C282.38 492.737 281.053 494.064 281.174 495.753C281.294 497.321 282.622 498.649 284.19 498.649H284.311C286 498.528 287.327 497.201 287.206 495.512C287.086 493.943 285.759 492.616 284.19 492.616Z" fill="white"/>
<path d="M299.876 492.616C299.876 492.616 299.755 492.616 299.876 492.616C298.066 492.737 296.739 494.064 296.859 495.753C296.98 497.321 298.307 498.649 299.876 498.649H299.996C301.685 498.528 303.013 497.201 302.892 495.512C302.771 493.943 301.444 492.616 299.876 492.616Z" fill="white"/>
<path d="M294.449 479.344L305.308 479.464V479.344H294.449Z" fill="white"/>
<path d="M310.132 479.344L320.991 479.464V479.344H310.132Z" fill="white"/>
<path d="M341.504 479.344V474.638H273.936V479.344H261.75C258.372 473.552 252.218 469.691 244.979 469.691C235.93 469.691 228.449 475.845 226.277 484.17H241.359V493.822H226.277C228.449 502.148 235.93 508.301 244.979 508.301C252.098 508.301 258.372 504.44 261.75 498.649H273.936V497.442H274.057C274.057 497.804 274.178 498.287 274.298 498.649C275.022 501.062 276.591 503.113 278.763 504.44C280.331 505.405 282.141 506.009 284.192 506.009C287.329 506.009 290.104 504.561 292.035 502.389C293.965 504.682 296.74 506.009 299.878 506.009C303.015 506.009 305.79 504.561 307.72 502.389C309.651 504.682 312.426 506.009 315.563 506.009C318.7 506.009 321.475 504.561 323.405 502.389C325.336 504.682 328.111 506.009 331.248 506.009C333.299 506.009 335.109 505.405 336.678 504.44V540.999H341.504V498.649H358.396V479.344H341.504ZM273.936 493.822H258.854L257.527 496.236C254.993 500.7 250.167 503.475 244.979 503.475C240.756 503.475 236.895 501.665 234.12 498.649H246.186V479.344H234.12C236.774 476.327 240.635 474.518 244.979 474.518C250.167 474.518 254.993 477.293 257.527 481.757L258.854 484.17H273.936V493.822ZM289.622 495.753C289.622 498.769 287.209 501.183 284.192 501.183C281.779 501.183 279.728 499.614 279.004 497.322C278.883 496.839 278.763 496.236 278.763 495.753V479.464H289.622V495.753ZM305.307 495.753C305.307 498.769 302.894 501.183 299.878 501.183C296.861 501.183 294.448 498.769 294.448 495.874V479.344H305.307V495.753ZM315.563 501.183C312.546 501.183 310.133 498.769 310.133 495.874V479.344H320.992V495.753C320.992 498.769 318.579 501.183 315.563 501.183ZM336.678 495.753C336.678 496.356 336.557 496.839 336.436 497.322C335.712 499.493 333.661 501.183 331.248 501.183C328.232 501.183 325.819 498.769 325.819 495.874V479.464H336.678V495.753ZM353.569 493.822H341.504V484.17H353.569V493.822Z" fill="white"/>
<path d="M185.084 28.957H171.45L172.536 33.7833H181.102L198.235 111.003H180.137V125.482H132.96C132.478 125.482 131.995 124.999 131.995 124.517V120.656H127.169V124.517C127.169 127.654 129.823 130.308 132.96 130.308H185.084V115.829H204.389L185.084 28.957Z" fill="white"/>
<path d="M189.907 106.177H170.602V120.656H118.479C115.342 120.656 112.688 118.001 112.688 114.864V111.003H117.514V114.864C117.514 115.347 117.996 115.829 118.479 115.829H165.776V101.351H183.875L166.741 24.1309H159.381L158.296 19.3046H170.602L189.907 106.177Z" fill="white"/>
<path d="M159.263 24.1307L158.177 19.3045L156.005 9.65198H104.002C100.865 9.65198 98.2109 12.1858 98.2109 15.4435V105.212C98.2109 108.349 100.865 111.003 104.002 111.003H156.126V96.5243H175.431L159.263 24.1307ZM151.3 91.6981V106.177H104.002C103.52 106.177 103.037 105.694 103.037 105.212V15.4435C103.037 14.9608 103.52 14.4782 104.002 14.4782H152.265L169.398 91.6981H151.3Z" fill="white"/>
<path d="M142.854 42.229C145.519 42.229 147.68 40.0682 147.68 37.4027C147.68 34.7373 145.519 32.5765 142.854 32.5765C140.188 32.5765 138.027 34.7373 138.027 37.4027C138.027 40.0682 140.188 42.229 142.854 42.229Z" fill="white"/>
<path d="M82.495 292.054L72.2393 302.31L75.7383 305.689L85.9941 295.433L82.495 292.054Z" fill="white"/>
<path d="M75.7383 285.297L72.2393 288.676L82.495 298.932L85.9941 295.433L75.7383 285.297Z" fill="white"/>
<path d="M99.2683 324.511C99.2683 318.598 94.442 313.772 88.5299 313.772H88.4092C85.1515 313.772 82.1351 315.22 80.2046 317.633C78.1534 315.22 75.0164 313.41 71.5174 313.41C68.139 313.41 65.2432 315.22 63.1921 317.633C61.1409 315.22 58.0039 313.41 54.6255 313.41C52.333 313.41 50.2819 314.255 48.5927 315.461V292.537C48.5927 291.089 48.3514 289.641 47.8688 288.314C46.1796 283.488 41.5947 279.989 36.1651 279.989C30.7356 279.989 26.03 283.488 24.0995 288.314C23.4962 289.762 23.2549 291.21 23.2549 292.778V297.846V344.298L19.1526 337.421C17.2221 334.163 13.8438 332.353 10.2241 332.353C8.41424 332.353 6.60439 332.836 4.91521 333.801C1.6575 335.732 -0.152344 339.231 -0.152344 342.73C-0.152344 344.54 0.330279 346.349 1.29553 348.039L24.8235 387.252L26.03 389.303C26.1507 389.544 26.2713 389.786 26.5126 390.027C26.5126 390.027 26.5126 390.148 26.6333 390.148C27.9605 391.957 29.6497 393.405 31.5802 394.491C33.9933 395.939 36.7684 396.663 39.7848 396.663H99.2683V324.511ZM23.2549 375.186L5.51849 345.625C3.94996 342.971 4.79455 339.593 7.44899 338.024C8.29358 337.541 9.25883 337.3 10.2241 337.3C12.1546 337.3 13.9644 338.265 14.9297 339.955L23.2549 353.709V375.186ZM39.9055 391.957C37.7337 391.957 35.8032 391.354 34.114 390.509C32.6661 389.786 31.3389 388.7 30.4943 387.372C30.0117 386.769 29.529 386.045 29.2877 385.321C28.5638 383.873 28.2018 382.184 28.2018 380.374V292.778C28.2018 291.089 28.8051 289.52 29.6497 288.314C31.0976 286.263 33.5107 284.815 36.1651 284.815C38.9402 284.815 41.2327 286.142 42.5599 288.314C43.2838 289.52 43.7665 290.968 43.7665 292.537V323.545C43.7665 323.787 43.7665 351.055 43.7665 351.055H48.5927V323.787C48.9547 320.891 51.6091 318.357 54.7462 318.357C57.8832 318.357 60.417 321.374 60.6583 324.39C60.6583 324.511 60.6583 350.934 60.6583 350.934H65.4846V324.39C65.6052 321.494 68.3803 318.357 71.5174 318.357C74.7751 318.357 77.5502 321.374 77.5502 324.39V350.934H82.3764V324.39C82.3764 321.132 85.1515 318.719 88.4092 318.719H88.6505C91.9082 318.719 94.5627 321.374 94.5627 324.631V391.957H39.9055Z" fill="white"/>
<path d="M40.1444 292.296C40.1444 292.537 40.1444 292.778 40.1444 293.02C39.9031 295.071 38.2139 296.639 36.1628 296.639C33.991 296.76 32.0605 295.071 31.8192 293.02C31.8192 292.899 31.8192 292.778 31.8192 292.658C31.6985 290.365 33.5084 288.314 35.9215 288.314H36.0421C38.0933 288.314 40.0238 290.003 40.1444 292.296Z" fill="white"/>
<path d="M0.329102 293.02V297.846H23.2538H28.08V293.02H23.2538H0.329102Z" fill="white"/>
<path d="M79.7201 293.02H46.1777V297.846H79.7201V293.02Z" fill="white"/>
<path d="M537.995 245.827C538.826 246.555 540.089 246.472 540.817 245.641L552.677 232.101C553.405 231.27 553.321 230.006 552.49 229.278C551.659 228.55 550.396 228.634 549.668 229.465L539.126 241.501L527.09 230.958C526.259 230.231 524.996 230.314 524.268 231.145C523.54 231.976 523.624 233.24 524.454 233.967L537.995 245.827ZM504.542 136.378C523.753 169.629 534.82 206.703 537.317 244.455L541.308 244.191C538.771 205.837 527.528 168.167 508.006 134.377L504.542 136.378Z" fill="white"/>
<path d="M383.19 491.339C382.768 492.359 383.252 493.529 384.273 493.952L400.902 500.842C401.922 501.264 403.092 500.78 403.515 499.76C403.938 498.739 403.453 497.569 402.433 497.146L387.651 491.022L393.775 476.241C394.198 475.22 393.714 474.05 392.693 473.627C391.673 473.205 390.503 473.689 390.08 474.71L383.19 491.339ZM476.124 424.543C450.792 453.406 419.228 475.781 384.273 490.257L385.803 493.952C421.317 479.245 453.388 456.512 479.13 427.182L476.124 424.543Z" fill="white"/>
<path d="M103.232 423.466C102.13 423.391 101.176 424.224 101.101 425.326L99.8825 443.285C99.8077 444.387 100.64 445.341 101.742 445.416C102.844 445.49 103.798 444.658 103.873 443.556L104.957 427.592L120.92 428.676C122.022 428.75 122.976 427.918 123.051 426.816C123.126 425.714 122.293 424.76 121.191 424.685L103.232 423.466ZM196.206 490.205C160.766 475.416 129.483 452.649 104.603 424.146L101.59 426.777C126.867 455.735 158.651 478.868 194.666 493.897L196.206 490.205Z" fill="white"/>
<path d="M77.9545 134.246C77.6856 133.175 76.5991 132.524 75.5278 132.793L58.0693 137.175C56.998 137.444 56.3475 138.53 56.6164 139.602C56.8853 140.673 57.9717 141.324 59.0431 141.055L74.5617 137.16L78.4569 152.678C78.7258 153.749 79.8122 154.4 80.8836 154.131C81.9549 153.862 82.6054 152.776 82.3365 151.704L77.9545 134.246ZM43.1602 243.276C46.2921 205.002 58.2956 168.221 77.7306 135.76L74.2987 133.705C54.5534 166.684 42.3562 204.056 39.1735 242.95L43.1602 243.276Z" fill="white"/>
<path d="M348.82 17.9815C349.752 17.3877 350.025 16.1512 349.431 15.2199L339.754 0.0427549C339.16 -0.888589 337.924 -1.16217 336.992 -0.568311C336.061 0.0255509 335.787 1.26197 336.381 2.19332L344.983 15.6841L331.493 24.2864C330.561 24.8802 330.288 26.1166 330.882 27.048C331.476 27.9793 332.712 28.2529 333.643 27.6591L348.82 17.9815ZM234.382 19.4477C271.683 10.3167 310.372 10.0741 347.313 18.2479L348.177 14.3424C310.647 6.03805 271.336 6.28346 233.431 15.5624L234.382 19.4477Z" fill="white"/>
</g>
<defs>
<clipPath id="clip0">
<rect width="589" height="572" fill="white"/>
</clipPath>
</defs>
</svg>
