<svg width="213" height="213" viewBox="0 0 213 213" fill="none" xmlns="http://www.w3.org/2000/svg">
<path d="M165.365 98.4777C172.326 87.4353 175.132 74.2765 173.281 61.3549C171.429 48.4334 165.041 36.592 155.259 27.9489C145.476 19.3058 132.938 14.4247 119.887 14.1787C106.836 13.9327 94.123 18.3379 84.0221 26.6064H57.1856C55.7377 26.5994 54.3025 26.8779 52.9623 27.4261C51.6221 27.9743 50.4031 28.7814 49.3751 29.8011C48.3471 30.8209 47.5302 32.0333 46.9713 33.3691C46.4123 34.7049 46.1222 36.1377 46.1176 37.5857V134.13L17.1172 163.183L20.8243 166.89L46.1176 141.544V191.208C46.1199 192.657 46.4083 194.092 46.9662 195.43C47.5241 196.768 48.3406 197.982 49.3688 199.004C50.3971 200.026 51.6168 200.834 52.9582 201.384C54.2996 201.933 55.7362 202.212 57.1856 202.205H147.22V175.599H184.468L165.365 98.4777ZM85.9732 31.9275C88.2101 29.9347 90.6267 28.1534 93.1922 26.6064C100.949 21.9107 109.844 19.4282 118.911 19.4282C127.979 19.4282 136.873 21.9107 144.63 26.6064C145.855 27.3465 147.039 28.1518 148.178 29.0186C150.246 30.5232 152.191 32.1899 153.996 34.0028C161.315 41.3195 166.166 50.74 167.87 60.948C169.575 71.156 168.048 81.6415 163.503 90.9394C162.4 93.2485 161.107 95.4615 159.636 97.5553C155.685 103.188 150.607 107.938 144.724 111.505C138.84 115.071 132.28 117.377 125.459 118.275C118.638 119.172 111.704 118.643 105.098 116.721C98.4924 114.798 92.358 111.524 87.0841 107.106C81.8101 102.687 77.5117 97.2217 74.4613 91.0549C71.4108 84.888 69.675 78.1547 69.3638 71.2817C69.0525 64.4087 70.1727 57.546 72.6533 51.1287C75.1339 44.7114 78.9207 38.8795 83.7738 34.0028C84.4833 33.2933 85.1395 32.6015 85.9732 31.9275ZM51.4388 37.5857C51.4528 36.074 52.0656 34.6296 53.1429 33.569C54.2201 32.5083 55.6739 31.9181 57.1856 31.9275H78.4703C69.4987 41.6568 64.3372 54.2955 63.9332 67.5237C63.5291 80.752 67.9097 93.6821 76.2709 103.941L51.4388 128.773V37.5857ZM141.899 170.278V196.884H57.1856C55.6739 196.893 54.2201 196.303 53.1429 195.242C52.0656 194.182 51.4528 192.737 51.4388 191.226V136.24L79.8184 107.861L79.978 108.038C90.2897 118.349 104.275 124.142 118.858 124.142C133.441 124.142 147.426 118.349 157.738 108.038C158.997 106.779 160.168 105.484 161.286 104.154L177.675 170.278H141.899Z" fill="white"/>
<path d="M118.84 56.7598C116.384 56.7598 113.984 57.488 111.942 58.8523C109.9 60.2165 108.309 62.1557 107.369 64.4244C106.429 66.6932 106.183 69.1896 106.662 71.5981C107.141 74.0066 108.324 76.2189 110.06 77.9553C111.797 79.6917 114.009 80.8743 116.418 81.3533C118.826 81.8324 121.323 81.5865 123.591 80.6468C125.86 79.707 127.799 78.1157 129.163 76.0738C130.528 74.032 131.256 71.6315 131.256 69.1758C131.256 65.8829 129.948 62.7248 127.619 60.3963C125.291 58.0679 122.133 56.7598 118.84 56.7598ZM118.84 76.4126C117.41 76.4056 116.014 75.9752 114.829 75.1758C113.644 74.3764 112.722 73.2437 112.179 71.9207C111.637 70.5978 111.499 69.1438 111.782 67.7424C112.065 66.3409 112.757 65.0548 113.771 64.0462C114.784 63.0377 116.074 62.352 117.477 62.0756C118.879 61.7992 120.333 61.9446 121.653 62.4934C122.973 63.0421 124.101 63.9697 124.895 65.159C125.689 66.3483 126.112 67.746 126.112 69.1758C126.098 71.0921 125.325 72.9245 123.961 74.2712C122.598 75.6179 120.756 76.3689 118.84 76.3594V76.4126Z" fill="white"/>
<path d="M157.011 68.2537C156.302 67.3314 140.374 46.969 120.402 46.969H120.118C119.267 46.969 98.4785 45.1953 80.7412 68.2537C96.9531 89.3078 116.216 91.3122 119.763 91.3122H120.047C140.179 91.3122 156.373 69.1406 157.082 68.2537H157.011ZM119.249 85.991H119.018C118.344 85.991 103.055 85.6717 87.8361 68.2537C103.019 50.818 119.16 52.2902 119.994 52.2902H120.224C133.439 52.2902 144.524 62.5423 149.916 68.2537C144.507 73.9474 132.587 85.991 119.249 85.991V85.991Z" fill="white"/>
</svg>
