<svg width="196" height="196" viewBox="0 0 196 196" fill="none" xmlns="http://www.w3.org/2000/svg">
<circle cx="98" cy="98" r="98" fill="#CA7900"/>
<path d="M100.633 53H62.5852C61.4367 53.0137 60.3359 53.4615 59.504 54.2535C58.6721 55.0455 58.1707 56.1229 58.1006 57.2694V122.35C58.1687 123.497 58.6694 124.576 59.5018 125.368C60.3341 126.161 61.4361 126.608 62.5852 126.619H98.4621V116.753H115.504L100.633 53ZM95.7714 114.054V123.92H62.5852C62.1492 123.906 61.7316 123.741 61.4042 123.453C61.0767 123.165 60.86 122.772 60.7914 122.341V57.2694C60.86 56.8386 61.0767 56.4453 61.4042 56.1572C61.7316 55.8691 62.1492 55.7041 62.5852 55.6908H98.4621L99.7358 61.1441L101.619 69.2164L112.104 114.063L95.7714 114.054Z" fill="white"/>
<path d="M127.164 124.754H110.122V134.62H74.2454C73.0962 134.608 71.9943 134.161 71.1619 133.369C70.3296 132.576 69.8288 131.498 69.7607 130.35V126.548H72.4515V130.35C72.5202 130.781 72.7369 131.174 73.0643 131.463C73.3917 131.751 73.8094 131.916 74.2454 131.929H107.432V122.063H123.764L110.122 63.6912L110.042 63.7629H103.037L102.409 61.0721H112.167L114.069 69.1445L114.697 71.8352L127.164 124.754Z" fill="white"/>
<path d="M123.826 69.1442H114.068L114.696 71.8349H121.701L121.781 71.7632L135.424 130.135H119.091V140.001H85.9045C85.4686 139.988 85.0509 139.823 84.7235 139.535C84.3961 139.247 84.1794 138.853 84.1107 138.422V134.62H81.4199V138.422C81.488 139.57 81.9887 140.648 82.8211 141.441C83.6534 142.233 84.7554 142.68 85.9045 142.692H121.781V132.826H138.823L123.826 69.1442Z" fill="white"/>
<path d="M91.2859 76.3195C93.2674 76.3195 94.8736 74.7133 94.8736 72.7319C94.8736 70.7504 93.2674 69.1442 91.2859 69.1442C89.3045 69.1442 87.6982 70.7504 87.6982 72.7319C87.6982 74.7133 89.3045 76.3195 91.2859 76.3195Z" fill="white"/>
</svg>
