<svg width="278" height="278" viewBox="0 0 278 278" fill="none" xmlns="http://www.w3.org/2000/svg">
<circle cx="139" cy="139" r="139" fill="#089994" style="mix-blend-mode:multiply"/>
<path d="M145.209 80.6538H99.5262C98.1472 80.6703 96.8255 81.208 95.8267 82.1589C94.8278 83.1098 94.2258 84.4034 94.1416 85.78V163.922C94.2233 165.299 94.8246 166.594 95.824 167.546C96.8233 168.497 98.1465 169.034 99.5262 169.048H142.603V157.202H163.065L145.209 80.6538ZM139.372 153.96V165.806H99.5262C99.0028 165.79 98.5013 165.592 98.1082 165.246C97.715 164.9 97.4548 164.428 97.3724 163.911V85.78C97.4548 85.2628 97.715 84.7906 98.1082 84.4446C98.5013 84.0986 99.0028 83.9006 99.5262 83.8846H142.603L144.132 90.4323L146.394 100.125L158.983 153.971L139.372 153.96Z" fill="white"/>
<path d="M177.065 166.808H156.603V178.654H113.526C112.146 178.64 110.823 178.103 109.824 177.151C108.825 176.2 108.223 174.905 108.142 173.528V168.961H111.372V173.528C111.455 174.045 111.715 174.517 112.108 174.863C112.501 175.209 113.003 175.407 113.526 175.423H153.372V163.577H172.983L156.603 93.4906L156.506 93.5767H148.095L147.342 90.3459H159.059L161.342 100.038L162.095 103.269L177.065 166.808Z" fill="white"/>
<path d="M173.058 100.038H161.341L162.094 103.269H170.505L170.602 103.183L186.982 173.269H167.371V185.115H127.525C127.002 185.099 126.5 184.901 126.107 184.555C125.714 184.209 125.454 183.737 125.371 183.22V178.653H122.141V183.22C122.222 184.597 122.824 185.892 123.823 186.844C124.822 187.795 126.145 188.332 127.525 188.346H170.602V176.5H191.064L173.058 100.038Z" fill="white"/>
<path d="M133.986 108.653C136.365 108.653 138.294 106.725 138.294 104.346C138.294 101.967 136.365 100.038 133.986 100.038C131.607 100.038 129.679 101.967 129.679 104.346C129.679 106.725 131.607 108.653 133.986 108.653Z" fill="white"/>
</svg>
