<svg xmlns="http://www.w3.org/2000/svg" viewBox="0 0 176 176"><defs><style>.cls-1{fill:#50a7ef;}.cls-2{fill:#2079d4;}.cls-3{fill:#365066;}.cls-4{fill:none;}</style></defs><g id="Kit_interviste"><path class="cls-1" d="M78,64H50v8L40,64H24a3.1,3.1,0,0,1-3-3.25V38.32A3.17,3.17,0,0,1,24,35H78a3.17,3.17,0,0,1,3,3.32V60.75A3.1,3.1,0,0,1,78,64Z"/><path class="cls-2" d="M97,64h28v8l10-8h16a3.1,3.1,0,0,0,3-3.25V38.32A3.17,3.17,0,0,0,151,35H97a3.17,3.17,0,0,0-3,3.32V60.75A3.1,3.1,0,0,0,97,64Z"/><path class="cls-3" d="M43,78A11,11,0,1,1,32,89,11,11,0,0,1,43,78m0-3A14,14,0,1,0,57,89,14,14,0,0,0,43,75Z"/><path class="cls-3" d="M46,109a12,12,0,0,1,12,12v16H28V121a12,12,0,0,1,12-12h6m0-3H40a15,15,0,0,0-15,15v19H61V121a15,15,0,0,0-15-15Z"/><path class="cls-3" d="M88,78A11,11,0,1,1,77,89,11,11,0,0,1,88,78m0-3a14,14,0,1,0,14,14A14,14,0,0,0,88,75Z"/><path class="cls-3" d="M91,109a12,12,0,0,1,12,12v16H73V121a12,12,0,0,1,12-12h6m0-3H85a15,15,0,0,0-15,15v19h36V121a15,15,0,0,0-15-15Z"/><path class="cls-3" d="M133,78a11,11,0,1,1-11,11,11,11,0,0,1,11-11m0-3a14,14,0,1,0,14,14,14,14,0,0,0-14-14Z"/><path class="cls-3" d="M136,109a12,12,0,0,1,12,12v16H118V121a12,12,0,0,1,12-12h6m0-3h-6a15,15,0,0,0-15,15v19h36V121a15,15,0,0,0-15-15Z"/><rect class="cls-4" width="176" height="176"/></g></svg>