<svg xmlns="http://www.w3.org/2000/svg" viewBox="0 0 160 160"><defs><style>.cls-1{fill:none;}.cls-2{fill:#f0f6fc;}.cls-3{fill:#50a7ef;}.cls-4{fill:#CC7A00;}.cls-5{fill:#365066;}.cls-6{fill:#2079d4;}.cls-7{fill:#fff;}</style></defs><g id="esperienza_utente-journey"><rect class="cls-1" width="160" height="160"/><path class="cls-2" d="M79,150A70,70,0,1,0,9,80,70,70,0,0,0,79,150Z"/><rect class="cls-3" x="97" y="29" width="26" height="48" rx="1.11"/><rect class="cls-4" x="52" y="40" width="48" height="26" rx="1.11" transform="translate(23 129) rotate(-90)"/><path class="cls-5" d="M131.39,137.94c-.93,0-1.95,0-3-.05l.07-3c1.07,0,2.06,0,3,.05Zm3,0-.05-3c1.4,0,2.42-.07,3-.09l.14,3C136.92,137.85,135.87,137.89,134.43,137.92Zm-9.11-.14c-1-.05-2-.1-3-.17l.2-3c1,.07,2,.13,3,.17Zm-6.07-.42c-1-.09-2-.19-3-.31l.35-3c1,.12,2,.22,3,.31Zm-6-.71c-1-.14-2-.3-3-.48l.52-2.95c1,.17,2,.33,2.92.47Zm-6-1.06c-1-.21-2-.43-3-.68l.73-2.91c1,.24,1.91.46,2.87.66Zm-5.94-1.5c-1-.3-2-.63-2.93-1l1-2.83c.89.32,1.82.63,2.78.92ZM95.44,132c-1-.42-1.93-.87-2.81-1.34L94,128c.82.43,1.7.84,2.61,1.24Zm-5.52-2.92a28.11,28.11,0,0,1-2.56-1.87l1.91-2.32a25.29,25.29,0,0,0,2.28,1.67ZM85,125a19.64,19.64,0,0,1-2-2.55l2.51-1.64A17.05,17.05,0,0,0,87.25,123Zm-3.51-5.43a17.46,17.46,0,0,1-1-3.1l2.93-.64a15.3,15.3,0,0,0,.82,2.59Zm-1.39-6.3q0-.49,0-1a21.11,21.11,0,0,1,.12-2.23l3,.3c-.06.65-.1,1.3-.1,1.93,0,.28,0,.56,0,.84Zm3.57-5.55-2.86-.91a15.06,15.06,0,0,1,1.36-3l2.58,1.53A12.21,12.21,0,0,0,83.71,107.71Zm2.68-4.58-2.25-2a23.16,23.16,0,0,1,2.28-2.25l2,2.27A20.56,20.56,0,0,0,86.39,103.13Zm4.23-3.7L88.9,97c.8-.56,1.68-1.12,2.61-1.68l1.54,2.57C92.18,98.38,91.36,98.91,90.62,99.43Zm5-3-1.4-2.65c.89-.47,1.8-.93,2.74-1.38l1.3,2.71Q96.89,95.76,95.6,96.43Zm5.33-2.56-1.22-2.74c.91-.41,1.84-.81,2.78-1.21l1.17,2.77C102.74,93.08,101.82,93.47,100.93,93.87Zm5.49-2.33-1.13-2.77,2.79-1.13,1.12,2.78ZM112,89.3l-1.12-2.78,2.77-1.13,1.14,2.77Zm5.59-2.3-1.19-2.76c.93-.4,1.83-.79,2.73-1.2l1.24,2.73C119.45,86.19,118.52,86.59,117.58,87Zm5.54-2.53-1.33-2.69c.92-.46,1.8-.91,2.6-1.36l1.45,2.63C125,83.52,124.08,84,123.12,84.47Zm5.39-3-1.61-2.54c.85-.54,1.64-1.09,2.36-1.63l1.82,2.38C130.3,80.29,129.43,80.89,128.51,81.48Zm5-3.87-2.1-2.14a16.57,16.57,0,0,0,1.78-2.06l2.44,1.74A19,19,0,0,1,133.49,77.61Zm3.74-5.35-2.77-1.15a9.91,9.91,0,0,0,.67-2.48l3,.4A13.12,13.12,0,0,1,137.23,72.26ZM135.16,66a15,15,0,0,0-.57-2.65l2.87-.89a18.73,18.73,0,0,1,.68,3.22Zm-1.61-5.11A13.79,13.79,0,0,0,132,58.72l2.26-2a16,16,0,0,1,1.9,2.68ZM130,56.81a21.35,21.35,0,0,0-2.27-1.64l1.6-2.54a26.3,26.3,0,0,1,2.58,1.86Zm-4.76-3c-.81-.41-1.7-.81-2.63-1.19l1.14-2.78c1,.41,2,.84,2.84,1.29Zm-5.35-2.2c-.89-.3-1.83-.59-2.8-.87l.82-2.88c1,.28,2,.59,2.94.91ZM114.27,50c-.94-.22-1.91-.43-2.88-.63l.59-2.94c1,.21,2,.42,3,.66Zm-5.79-1.16c-1-.17-1.94-.32-2.93-.46l.42-3c1,.15,2,.3,3,.47ZM102.61,48c-1-.12-2-.22-3-.32l.29-3c1,.09,2,.2,3,.32ZM58,47.8l-.3-3s1.1-.11,3-.25l.23,3C59.05,47.69,58,47.8,58,47.8Zm38.72-.42-3-.2.18-3,3,.21Zm-32.78,0-.19-3,3-.18.16,3Zm6-.31-.13-3,3-.1.09,3Zm20.88,0-3-.11.09-3,3,.11Zm-14.92-.17,0-3,3,0,0,3Zm9,0-3,0,0-3,3,0Z"/><path class="cls-6" d="M153.32,102.38a15.5,15.5,0,0,0-31,0,15.22,15.22,0,0,0,.33,3h0l0,.11c0,.12,0,.23.06.35A15.26,15.26,0,0,0,124,109.4l.11.23.68,1.15.23.33,12.79,21.53,12.76-21.48a0,0,0,0,0,0,0l0-.08.2-.28.68-1.15.14-.28h0s0,0,0,0l0,0a15.54,15.54,0,0,0,1.21-3.37c0-.12,0-.25.06-.36l0-.07a0,0,0,0,0,0,0h0A15.22,15.22,0,0,0,153.32,102.38Zm-15.53,7.41a7.18,7.18,0,1,1,7.18-7.17A7.17,7.17,0,0,1,137.79,109.79Z"/><circle class="cls-7" cx="31.5" cy="34.5" r="12"/><path class="cls-5" d="M31.5,24A10.5,10.5,0,1,1,21,34.5,10.51,10.51,0,0,1,31.5,24m0-3A13.5,13.5,0,1,0,45,34.5,13.49,13.49,0,0,0,31.5,21Z"/><path class="cls-7" d="M16.56,79.5V63.89A12.41,12.41,0,0,1,29,51.5h6.1A12.41,12.41,0,0,1,47.44,63.89V79.5Z"/><path class="cls-5" d="M35.05,53A10.91,10.91,0,0,1,45.94,63.89V78H18.06V63.89A10.91,10.91,0,0,1,29,53h6.1m0-3H29A13.89,13.89,0,0,0,15.06,63.89V81H48.94V63.89A13.89,13.89,0,0,0,35.05,50Z"/></g></svg>