<svg width="176" height="176" viewBox="0 0 176 176" fill="none" xmlns="http://www.w3.org/2000/svg">
<path d="M33 48C34.6569 48 36 46.6569 36 45C36 43.3431 34.6569 42 33 42C31.3431 42 30 43.3431 30 45C30 46.6569 31.3431 48 33 48Z" fill="#365066"/>
<path d="M42 48C43.6569 48 45 46.6569 45 45C45 43.3431 43.6569 42 42 42C40.3431 42 39 43.3431 39 45C39 46.6569 40.3431 48 42 48Z" fill="#365066"/>
<path d="M51 48C52.6569 48 54 46.6569 54 45C54 43.3431 52.6569 42 51 42C49.3431 42 48 43.3431 48 45C48 46.6569 49.3431 48 51 48Z" fill="#365066"/>
<path d="M157.1 35H24.9C23.8665 35.0026 22.876 35.4144 22.1452 36.1452C21.4144 36.876 21.0026 37.8665 21 38.9V125.1C21.0026 126.134 21.4144 127.124 22.1452 127.855C22.876 128.586 23.8665 128.997 24.9 129H157.1C158.134 128.997 159.124 128.586 159.855 127.855C160.586 127.124 160.997 126.134 161 125.1V38.9C160.997 37.8665 160.586 36.876 159.855 36.1452C159.124 35.4144 158.134 35.0026 157.1 35ZM158 125.1C158 125.339 157.905 125.568 157.736 125.736C157.568 125.905 157.339 126 157.1 126H24.9C24.6613 126 24.4324 125.905 24.2636 125.736C24.0948 125.568 24 125.339 24 125.1V54H158V125.1ZM158 51H24V38.9C24 38.6613 24.0948 38.4324 24.2636 38.2636C24.4324 38.0948 24.6613 38 24.9 38H157.1C157.339 38 157.568 38.0948 157.736 38.2636C157.905 38.4324 158 38.6613 158 38.9V51Z" fill="#365066"/>
<path d="M73 83H47V89H73V83Z" fill="#65DDE0"/>
<path d="M91 92.5H47V95.5H91V92.5Z" fill="#2079D4"/>
<path d="M77 102H47V108H77V102Z" fill="#65DDE0"/>
<path d="M91 111.5H47V114.5H91V111.5Z" fill="#2079D4"/>
<path d="M123 69C123.796 69 124.559 69.3161 125.121 69.8787C125.684 70.4413 126 71.2044 126 72C126 72.7956 125.684 73.5587 125.121 74.1213C124.559 74.6839 123.796 75 123 75H53C52.2044 75 51.4413 74.6839 50.8787 74.1213C50.3161 73.5587 50 72.7956 50 72C50 71.2044 50.3161 70.4413 50.8787 69.8787C51.4413 69.3161 52.2044 69 53 69H123ZM123 66H53C51.4087 66 49.8826 66.6321 48.7574 67.7574C47.6321 68.8826 47 70.4087 47 72C47 73.5913 47.6321 75.1174 48.7574 76.2426C49.8826 77.3679 51.4087 78 53 78H123C124.591 78 126.117 77.3679 127.243 76.2426C128.368 75.1174 129 73.5913 129 72C129 70.4087 128.368 68.8826 127.243 67.7574C126.117 66.6321 124.591 66 123 66Z" fill="#50A7EF"/>
<path d="M150 109.21L137.27 96.48L128.79 88L120.3 96.48L107.57 109.21L116.06 117.7L122.79 110.97V141H134.79V110.97L141.51 117.7L150 109.21Z" fill="#2079D4"/>
</svg>
