<svg xmlns="http://www.w3.org/2000/svg" viewBox="0 0 176 176"><defs><style>.cls-1{fill:#365066;}.cls-2,.cls-6{fill:none;}.cls-2{stroke:#80b9f2;stroke-miterlimit:10;stroke-width:3px;}.cls-3{fill:#2079d4;}.cls-4{fill:#fff;}.cls-5{fill:#50a7ef;}</style></defs><g id="kit_privacy"><circle class="cls-1" cx="31" cy="45" r="3"/><circle class="cls-1" cx="40" cy="45" r="3"/></g><g id="kit_analitics"><path class="cls-1" d="M155.52,36h-133A3.48,3.48,0,0,0,19,39.48v87A3.48,3.48,0,0,0,22.48,130H48.72c-1.18-1-2.33-2-3.43-3H22.48a.49.49,0,0,1-.48-.48v-87a.49.49,0,0,1,.48-.48h133a.49.49,0,0,1,.48.48v87a.49.49,0,0,1-.48.48H91.79c-1.1,1-2.25,2-3.43,3h67.16a3.48,3.48,0,0,0,3.48-3.48v-87A3.48,3.48,0,0,0,155.52,36Z"/><rect class="cls-1" x="22" y="51" width="135" height="3"/><circle class="cls-1" cx="49" cy="45" r="3"/><path class="cls-1" d="M101.15,72.33,68.58,65,36,72.33v40.72c0,4.08,4,9.13,9.29,14,1.1,1,2.25,2,3.43,3a177.41,177.41,0,0,0,19.86,14,181.05,181.05,0,0,0,19.78-14c1.18-1,2.33-2,3.43-3,5.28-4.85,9.37-9.91,9.37-14V72.33Zm-3,40.72c0,3.38-4.65,8.61-10.91,14-1.17,1-2.4,2-3.66,3a166.67,166.67,0,0,1-15,10.49A160.12,160.12,0,0,1,53.49,130c-1.26-1-2.49-2-3.66-3-6.22-5.32-10.83-10.53-10.83-14V74.73l29.58-6.65,29.58,6.65Z"/><path class="cls-2" d="M78.76,98.83V92.76a10.76,10.76,0,0,0-21.52,0v5.15"/><rect class="cls-3" x="52" y="97.39" width="32" height="22.07" rx="0.55"/><circle class="cls-4" cx="68" cy="105.47" r="2.91"/><circle class="cls-4" cx="68" cy="109.54" r="2.91"/><ellipse class="cls-5" cx="125.84" cy="81.88" rx="10.63" ry="10.61"/><path class="cls-5" d="M140,119.45H112.1v-13.2a11.19,11.19,0,0,1,11.18-11.19h5.54A11.19,11.19,0,0,1,140,106.25Z"/><rect class="cls-6" width="176" height="176"/></g></svg>