<svg xmlns="http://www.w3.org/2000/svg" viewBox="0 0 1440 634" xmlns:xlink="http://www.w3.org/1999/xlink">
  <defs>
    <path id="a" d="M0 0h1440v634H0z"/>
  </defs>
  <g fill="none" fill-rule="evenodd">
    <mask id="b" fill="#fff">
      <use xlink:href="#a"/>
    </mask>
    <use fill="#00C5CA" xlink:href="#a"/>
    <g stroke="#0FF" stroke-opacity=".275" mask="url(#b)">
      <path stroke-width=".606" d="M1238-56l224 129M-25 75L203-56m967 0l292 168m-1487 2L270-56m832 0l360 208m-1487 2L339-56"/>
      <path stroke-width="1.211" d="M1306-56l156 90"/>
      <path stroke-width=".606" d="M-25 36l160-92m831 0l496 286m-1487 2L474-56"/>
      <path stroke-width="2.019" d="M1034-56l428 247m-1487 2L407-56"/>
      <path stroke-width="1.211" d="M694-56l768 443m-1487 2L746-56"/>
      <path stroke-width=".606" d="M898-56l564 325m-1487 2L542-56m288 0l632 365m-1487 2L610-56m152 0l700 404m-1487 2L678-56m-118 0l899 519m-1484 5L883-56m-393 0l972 561m-1487 2L950-56m-528 0l1040 600m-1487 2L1019-56m-393 0l836 483m-1487 2L815-56m-529 0l1176 679m-1487 2L1154-56"/>
      <path stroke-width="2.019" d="M351-56l1107 640m-1483 2L1087-56"/>
      <path stroke-width="1.211" d="M27-44l1435 823m-1480-1L1437-58"/>
      <path stroke-width=".606" d="M218-56l1244 718m-1487 2L1222-56M150-56l1312 757m-1487 2L1291-56M82-56l1380 797m-1487 2L1358-56M-25 0l1487 858m-1487 3L1462 3M-25 39l1487 858m-1487 2L1462 41M-25 78l1487 858m-1487 2L1462 80M-25-40l1487 858m-1487 3L1462-37M-25 157l1487 858m-1487 2l1487-858"/>
      <path stroke-width="2.019" d="M-25 118l1487 858m-1487 2l1487-858"/>
      <path stroke-width="1.211" d="M-25 314l1487 858m-1487 2l1487-858"/>
      <path stroke-width=".606" d="M-25 196l1487 858m-1487 2l1487-858M-25 235l1487 858m-1487 2l1487-858M-25 275l1487 858m-1487 2l1487-858M-25 392l1487 858m-1487 2l1487-858M-25 353l1487 858m-1487 2l1487-858M-25 434l1487 858m-1487-2l1487-858M-25 472l1487 858m-1487 2l1487-858"/>
      <path stroke-width="2.019" d="M-24 511l1487 858m-1487 2l413.65-238.676L1463 513"/>
      <path stroke-width=".606" d="M-25 1486l1487-858m-1487 2l1487 858m-1487-39l1487-858m-1487 2l1487 858m-1487-41l1487-858m-1487 2l1487 858"/>
    </g>
  </g>
</svg>
