<?xml version="1.0" encoding="UTF-8" standalone="no"?>
<svg
   xmlns:dc="http://purl.org/dc/elements/1.1/"
   xmlns:cc="http://creativecommons.org/ns#"
   xmlns:rdf="http://www.w3.org/1999/02/22-rdf-syntax-ns#"
   xmlns:svg="http://www.w3.org/2000/svg"
   xmlns="http://www.w3.org/2000/svg"
   xmlns:xlink="http://www.w3.org/1999/xlink"
   xmlns:sodipodi="http://sodipodi.sourceforge.net/DTD/sodipodi-0.dtd"
   xmlns:inkscape="http://www.inkscape.org/namespaces/inkscape"
   viewBox="0 0 1440 634.00001"
   id="svg2"
   version="1.1"
   inkscape:version="0.91 r13725"
   sodipodi:docname="background.svg"
   width="1440"
   height="634">
  <metadata
     id="metadata46">
    <rdf:RDF>
      <cc:Work
         rdf:about="">
        <dc:format>image/svg+xml</dc:format>
        <dc:type
           rdf:resource="http://purl.org/dc/dcmitype/StillImage" />
        <dc:title></dc:title>
      </cc:Work>
    </rdf:RDF>
  </metadata>
  <sodipodi:namedview
     pagecolor="#ffffff"
     bordercolor="#666666"
     borderopacity="1"
     objecttolerance="10"
     gridtolerance="10"
     guidetolerance="10"
     inkscape:pageopacity="0"
     inkscape:pageshadow="2"
     inkscape:window-width="1920"
     inkscape:window-height="1024"
     id="namedview44"
     showgrid="false"
     fit-margin-top="0"
     fit-margin-left="0"
     fit-margin-right="0"
     fit-margin-bottom="0"
     inkscape:zoom="0.20486111"
     inkscape:cx="720"
     inkscape:cy="316.99994"
     inkscape:window-x="0"
     inkscape:window-y="0"
     inkscape:window-maximized="1"
     inkscape:current-layer="g7" />
  <defs
     id="defs4">
    <path
       id="a"
       d="m 0,0 1440,0 0,634 -1440,0 z"
       inkscape:connector-curvature="0" />
  </defs>
  <g
     id="g7"
     style="fill:none;fill-rule:evenodd">
    <mask
       id="b"
       fill="#fff">
      <use
         xlink:href="#a"
         id="use10"
         x="0"
         y="0"
         width="100%"
         height="100%" />
    </mask>
    <use
       xlink:href="#a"
       id="use12"
       style="fill:#00c5ca"
       x="0"
       y="0"
       width="100%"
       height="100%" />
    <g
       mask="url(#b)"
       id="g14"
       style="stroke:#00ffff;stroke-opacity:0.275">
      <path
         d="M 1238,-56 1462,73 M -25,75 203,-56 m 967,0 292,168 M -25,114 270,-56 m 832,0 360,208 M -25,154 339,-56"
         id="path16"
         inkscape:connector-curvature="0"
         style="stroke-width:0.60600001" />
      <path
         d="m 1306,-56 156,90"
         id="path18"
         inkscape:connector-curvature="0"
         style="stroke-width:1.21099997" />
      <path
         d="m -25,36 160,-92 m 831,0 496,286 M -25,232 474,-56"
         id="path20"
         inkscape:connector-curvature="0"
         style="stroke-width:0.60600001" />
      <path
         d="m 1034,-56 428,247 M -25,193 407,-56"
         id="path22"
         inkscape:connector-curvature="0"
         style="stroke-width:2.01900005" />
      <path
         d="m 694,-56 768,443 M -25,389 746,-56"
         id="path24"
         inkscape:connector-curvature="0"
         style="stroke-width:1.21099997" />
      <path
         d="m 898,-56 564,325 M -25,271 542,-56 m 288,0 632,365 M -25,311 610,-56 m 152,0 700,404 M -25,350 678,-56 m -118,0 899,519 M -25,468 883,-56 m -393,0 972,561 M -25,507 950,-56 m -528,0 1040,600 M -25,546 1019,-56 m -393,0 836,483 M -25,429 815,-56 m -529,0 1176,679 M -25,625 1154,-56"
         id="path26"
         inkscape:connector-curvature="0"
         style="stroke-width:0.60600001" />
      <path
         d="M 351,-56 1458,584 M -25,586 1087,-56"
         id="path28"
         inkscape:connector-curvature="0"
         style="stroke-width:2.01900005" />
      <path
         d="M 27,-44 1462,779 M -18,778 1437,-58"
         id="path30"
         inkscape:connector-curvature="0"
         style="stroke-width:1.21099997" />
      <path
         d="M 218,-56 1462,662 M -25,664 1222,-56 M 150,-56 1462,701 M -25,703 1291,-56 M 82,-56 1462,741 M -25,743 1358,-56 M -25,0 1462,858 M -25,861 1462,3 M -25,39 1462,897 M -25,899 1462,41 M -25,78 1462,936 M -25,938 1462,80 M -25,-40 1462,818 M -25,821 1462,-37 M -25,157 1462,1015 m -1487,2 1487,-858"
         id="path32"
         inkscape:connector-curvature="0"
         style="stroke-width:0.60600001" />
      <path
         d="M -25,118 1462,976 M -25,978 1462,120"
         id="path34"
         inkscape:connector-curvature="0"
         style="stroke-width:2.01900005" />
      <path
         d="m -25,314 1487,858 m -1487,2 1487,-858"
         id="path36"
         inkscape:connector-curvature="0"
         style="stroke-width:1.21099997" />
      <path
         d="m -25,196 1487,858 M -25,1056 1462,198 M -25,235 1462,1093 M -25,1095 1462,237 M -25,275 1462,1133 M -25,1135 1462,277 M -25,392 1462,1250 M -25,1252 1462,394 M -25,353 1462,1211 M -25,1213 1462,355 M -25,434 1462,1292 M -25,1290 1462,432 m -1487,40 1487,858 m -1487,2 1487,-858"
         id="path38"
         inkscape:connector-curvature="0"
         style="stroke-width:0.60600001" />
      <path
         d="m -24,511 1487,858 M -24,1371 389.65,1132.324 1463,513"
         id="path40"
         inkscape:connector-curvature="0"
         style="stroke-width:2.01900005" />
      <path
         d="M -25,1486 1462,628 m -1487,2 1487,858 M -25,1449 1462,591 m -1487,2 1487,858 M -25,1410 1462,552 m -1487,2 1487,858"
         id="path42"
         inkscape:connector-curvature="0"
         style="stroke-width:0.60600001" />
    </g>
  </g>
</svg>
