<?xml version="1.0" encoding="utf-8"?>
<!-- Generator: Adobe Illustrator 20.1.0, SVG Export Plug-In . SVG Version: 6.00 Build 0)  -->
<svg version="1.1" id="Livello_1" xmlns="http://www.w3.org/2000/svg" xmlns:xlink="http://www.w3.org/1999/xlink" x="0px" y="0px"
	 viewBox="0 0 377 399.5" style="enable-background:new 0 0 377 399.5;" xml:space="preserve">
<style type="text/css">
	.st0{filter:url(#filter-2);}
	.st1{fill:#0066CC;}
	.st2{fill:#0059B3;}
	.st3{fill:#2079D4;}
	.st4{fill:url(#Combined-Shape_1_);}
	.st5{fill:#428FDB;}
</style>
<filter  filterUnits="objectBoundingBox" height="164.3%" id="filter-2" width="164.3%" x="-32.1%" y="-32.1%">
	<feOffset  dx="0" dy="0" in="SourceAlpha" result="shadowOffsetOuter1"></feOffset>
	<feGaussianBlur  in="shadowOffsetOuter1" result="shadowBlurOuter1" stdDeviation="25"></feGaussianBlur>
	<feColorMatrix  in="shadowBlurOuter1" type="matrix" values="0 0 0 0 0   0 0 0 0 0   0 0 0 0 0  0 0 0 0.5 0"></feColorMatrix>
</filter>
<g>
	<g class="st0">
		<polygon points="188.5,177.2 353.4,272.5 188.5,367.8 23.5,272.5 		"/>
	</g>
	<g id="_x2D_home">
		<g id="home---1280up" transform="translate(-252.000000, -3430.000000)">
			<g id="Isometric_x5F_graph_x5F_paper_x2C__x5F_US_x5F_letter_x5F_size_x5F_SVG" transform="translate(0.000000, 3272.000000)">
				<g id="lego-brick-shaded" transform="translate(252.000000, 87.000000)">
					<polygon id="Rectangle-17" class="st1" points="23.5,165 188.5,260 188.5,325 23.5,230 					"/>
					<polygon id="Rectangle-17_1_" class="st2" points="353.5,165 188.5,260 188.5,325 353.5,230 					"/>
					<polygon id="Rectangle-16" class="st3" points="188.5,71 353.4,165 188.5,259.9 23.5,165 					"/>
					<g id="Group-14" transform="translate(112.000000, 115.000000)">
						
							<linearGradient id="Combined-Shape_1_" gradientUnits="userSpaceOnUse" x1="50.7444" y1="198.8015" x2="49.7344" y2="198.8015" gradientTransform="matrix(110 0 0 -68 -5447 13571.5)">
							<stop  offset="0" style="stop-color:#0059B3"/>
							<stop  offset="1" style="stop-color:#0066CC"/>
						</linearGradient>
						<path id="Combined-Shape" class="st4" d="M23.5,53.9C24.3,72.3,48.6,87,78.5,87s54.2-14.7,55-33.1h0V33H123
							c-10-8.5-26.2-14-44.5-14S44,24.5,34,33H23.5L23.5,53.9L23.5,53.9z"/>
						<ellipse id="Oval-4" class="st5" cx="78.5" cy="34" rx="55" ry="34"/>
					</g>
				</g>
			</g>
		</g>
	</g>
</g>
</svg>
