<?xml version="1.0" encoding="UTF-8" standalone="no"?>
<!-- Created with Inkscape (http://www.inkscape.org/) -->

<svg
   width="75.935417mm"
   height="75.935425mm"
   viewBox="0 0 75.935417 75.935425"
   version="1.1"
   id="svg157"
   xml:space="preserve"
   xmlns="http://www.w3.org/2000/svg"
   xmlns:svg="http://www.w3.org/2000/svg"><defs
     id="defs154" /><g
     id="layer1"
     transform="translate(-63.801141,-79.653104)"><g
       style="fill:none"
       id="g170"
       transform="matrix(0.26458333,0,0,0.26458333,63.801139,79.653109)"><rect
         x="2"
         y="2"
         width="283"
         height="283"
         stroke="#0066cc"
         stroke-width="4"
         stroke-dasharray="4, 4"
         id="rect161" /></g><g
       style="fill:none"
       id="g181"
       transform="matrix(0.26458333,0,0,0.26458333,72.97292,94.138691)"><path
         d="m 182.746,69.6389 v -2 h -2 v 2 z m 0.456,65.4271 -1.99,0.194 0.001,0.01 0.001,0.011 z m 10.272,7.973 v 2 h 0.024 0.024 z m 19.631,-0.469 1.996,-0.113 -0.109,-1.932 -1.935,0.046 z m 1.598,28.141 0.44,1.951 1.652,-0.374 -0.096,-1.69 z m -57.751,-6.801 1.597,-1.203 -0.021,-0.029 -0.023,-0.028 z M 148.506,2.80469 V 0.804688 h -2 V 2.80469 Z m 34.468,0 h 2 V 0.804688 h -2 z m 0,36.58291 h -2 v 2 h 2 z m 31.5,0 h 2 v -2 h -2 z m 0,30.2513 v 2 h 2 v -2 z M 77.1092,41.527 v -2 h -2 v 2 z m 35.4618,0 h 2 v -2 h -2 z m 0,129.392 v 2 h 2 v -2 z m -35.4618,0 h -2 v 2 h 2 z M 9.15838,70.6018 7.72416,71.9957 v 0 z m 31.17522,0.4697 1.3938,1.4343 0.0205,-0.0199 0.0199,-0.0205 z m 0,-31.2338 -1.4342,1.394 z M 8.91671,39.6029 7.48249,38.209 7.4614,38.2307 7.44098,38.253 Z M 180.746,69.6389 v 1.9347 h 4 v -1.9347 z m 0,5.804 v 3.8694 h 4 v -3.8694 z m 0,7.7387 v 3.8694 h 4 v -3.8694 z m 0,7.7387 v 3.8694 h 4 v -3.8694 z m 0,7.7387 v 3.869 h 4 v -3.869 z m 0,7.739 v 3.869 h 4 v -3.869 z m 0,7.738 v 3.87 h 4 v -3.87 z m 0,7.739 v 1.935 h 4 v -1.935 z m 0,1.935 c 0,1.013 0.008,1.961 0.022,2.85 l 4,-0.065 c -0.014,-0.866 -0.022,-1.793 -0.022,-2.785 z m 0.238,8.574 c 0.069,1.111 0.148,2.061 0.228,2.876 l 3.981,-0.388 c -0.075,-0.77 -0.15,-1.675 -0.217,-2.739 z m 0.23,2.897 c 0.07,0.649 0.194,1.284 0.374,1.904 l 3.842,-1.111 c -0.113,-0.392 -0.193,-0.799 -0.239,-1.223 z m 2.079,5.369 c 0.364,0.502 0.77,0.981 1.215,1.439 l 2.867,-2.79 c -0.319,-0.327 -0.599,-0.659 -0.843,-0.996 z m 1.215,1.439 c 0.622,0.638 1.336,1.159 2.127,1.575 l 1.858,-3.542 c -0.444,-0.234 -0.812,-0.508 -1.118,-0.823 z m 6.744,2.846 c 0.71,0.071 1.452,0.104 2.222,0.104 v -4 c -0.658,0 -1.265,-0.028 -1.825,-0.084 z m 2.27,0.104 2.454,-0.059 -0.096,-3.999 -2.454,0.059 z m 7.361,-0.176 4.908,-0.117 -0.096,-3.999 -4.907,0.117 z m 9.816,-0.235 2.453,-0.058 -0.095,-3.999 -2.454,0.058 z m 0.409,-1.944 0.1,1.758 3.993,-0.226 -0.1,-1.759 z m 0.299,5.276 0.2,3.518 3.994,-0.227 -0.2,-3.518 z m 0.4,7.035 0.2,3.518 3.993,-0.227 -0.199,-3.518 z m 0.399,7.035 0.2,3.518 3.994,-0.227 -0.2,-3.517 z m 0.4,7.036 0.1,1.758 3.993,-0.226 -0.1,-1.759 z m 1.656,-0.306 c -0.728,0.165 -1.445,0.324 -2.151,0.479 l 0.855,3.907 c 0.716,-0.156 1.442,-0.318 2.177,-0.484 z m -6.459,1.388 c -1.493,0.302 -2.931,0.578 -4.311,0.829 l 0.713,3.936 c 1.41,-0.256 2.874,-0.538 4.392,-0.845 z m -8.629,1.554 c -1.529,0.234 -2.968,0.427 -4.316,0.58 l 0.449,3.974 c 1.407,-0.159 2.899,-0.359 4.473,-0.6 z m -8.607,0.94 c -0.749,0.037 -1.454,0.056 -2.115,0.056 v 4 c 0.734,0 1.506,-0.021 2.313,-0.061 z m -2.115,0.056 c -0.716,0 -1.421,-0.008 -2.114,-0.023 l -0.088,3.999 c 0.723,0.016 1.458,0.024 2.202,0.024 z m -6.316,-0.22 c -1.446,-0.106 -2.831,-0.25 -4.159,-0.432 l -0.543,3.963 c 1.417,0.195 2.887,0.347 4.409,0.459 z m -8.248,-1.152 c -1.401,-0.307 -2.721,-0.665 -3.961,-1.073 l -1.25,3.799 c 1.38,0.454 2.832,0.847 4.355,1.181 z m -7.714,-2.575 c -1.252,-0.603 -2.393,-1.273 -3.428,-2.006 l -2.313,3.263 c 1.231,0.872 2.566,1.653 4.003,2.346 z m -6.376,-4.562 c -0.445,-0.474 -0.861,-0.968 -1.249,-1.482 l -3.194,2.407 c 0.475,0.63 0.984,1.234 1.526,1.812 z m -1.293,-1.539 c -0.377,-0.465 -0.743,-0.963 -1.097,-1.496 l -3.331,2.214 c 0.42,0.633 0.861,1.234 1.322,1.802 z m -2.939,-4.81 c -0.514,-1.104 -0.992,-2.303 -1.433,-3.601 l -3.787,1.285 c 0.482,1.422 1.013,2.758 1.595,4.006 z m -2.536,-7.376 c -0.307,-1.226 -0.587,-2.519 -0.839,-3.879 l -3.933,0.729 c 0.266,1.434 0.563,2.809 0.892,4.123 z m -1.467,-7.827 c -0.172,-1.281 -0.324,-2.611 -0.454,-3.991 l -3.983,0.377 c 0.135,1.429 0.293,2.812 0.473,4.149 z m -0.766,-8.012 c -0.081,-1.306 -0.144,-2.65 -0.191,-4.032 l -3.998,0.136 c 0.048,1.417 0.114,2.798 0.196,4.142 z m -0.28,-8.082 c -0.007,-0.669 -0.011,-1.345 -0.011,-2.03 h -4 c 0,0.698 0.004,1.389 0.011,2.072 z m -0.011,-2.03 v -2.028 h -4 v 2.028 z m 0,-6.085 v -4.057 h -4 v 4.057 z m 0,-8.114 v -4.057 h -4 v 4.057 z m 0,-8.114 v -4.0569 h -4 V 102.2 Z m 0,-8.1139 v -4.0569 h -4 v 4.0569 z m 0,-8.1139 v -4.0569 h -4 v 4.0569 z m 0,-8.1139 v -4.0569 h -4 v 4.0569 z m 0,-8.1139 v -4.0569 h -4 v 4.0569 z m 0,-8.1139 v -4.0569 h -4 v 4.0569 z m 0,-8.1139 v -4.0569 h -4 v 4.0569 z m 0,-8.1139 v -4.0569 h -4 v 4.0569 z m 0,-8.1139 v -4.057 h -4 v 4.057 z m 0,-8.1139 v -4.057 h -4 v 4.057 z m 0,-8.1139 v -4.057 h -4 v 4.057 z m 0,-8.1139 V 8.89012 h -4 v 4.05698 z m 0,-8.11393 V 2.80469 h -4 v 2.02848 z m -2,-0.02848 h 2.155 V 0.804688 h -2.155 z m 6.463,0 h 4.309 V 0.804688 h -4.309 z m 8.617,0 h 4.308 V 0.804688 h -4.308 z m 8.617,0 h 4.308 V 0.804688 h -4.308 z m 8.617,0 h 2.154 V 0.804688 h -2.154 z m 0.154,-2 v 1.82914 h 4 V 2.80469 Z m 0,5.48744 v 3.65827 h 4 V 8.29213 Z m 0,7.31657 v 3.6583 h 4 v -3.6583 z m 0,7.3166 v 3.6583 h 4 v -3.6583 z m 0,7.3166 v 3.6583 h 4 v -3.6583 z m 0,7.3166 v 1.8291 h 4 v -1.8291 z m 2,3.8291 h 1.969 v -4 h -1.969 z m 5.906,0 h 3.938 v -4 h -3.938 z m 7.875,0 h 3.938 v -4 h -3.938 z m 7.875,0 h 3.938 v -4 h -3.938 z m 7.875,0 h 1.969 v -4 h -1.969 z m -0.031,-2 v 1.8907 h 4 v -1.8907 z m 0,5.6721 v 3.7814 h 4 v -3.7814 z m 0,7.5629 v 3.7814 h 4 v -3.7814 z m 0,7.5628 v 3.7814 h 4 v -3.7814 z m 0,7.5628 v 1.8907 h 4 v -1.8907 z m 2,-0.1093 h -0.057 v 4 h 0.057 z m -0.171,0 h -0.057 v 4 h 0.057 z m -0.057,0 h -1.969 v 4 h 1.969 z m -5.906,0 h -3.938 v 4 h 3.938 z m -7.875,0 h -3.938 v 4 h 3.938 z m -7.875,0 h -3.938 v 4 h 3.938 z m -7.875,0 h -1.969 v 4 h 1.969 z M 75.1092,41.527 v 2.0182 h 4 V 41.527 Z m 0,6.0545 v 4.0363 h 4 v -4.0363 z m 0,8.0726 v 4.0363 h 4 v -4.0363 z m 0,8.0727 v 4.0363 h 4 v -4.0363 z m 0,8.0726 v 4.0363 h 4 v -4.0363 z m 0,8.0726 v 4.0363 h 4 V 79.872 Z m 0,8.0726 v 4.0364 h 4 v -4.0364 z m 0,8.0727 v 4.0367 h 4 v -4.0367 z m 0,8.0727 v 4.036 h 4 v -4.036 z m 0,8.073 v 4.036 h 4 v -4.036 z m 0,8.072 v 4.036 h 4 v -4.036 z m 0,8.073 v 4.036 h 4 v -4.036 z m 0,8.072 v 4.037 h 4 v -4.037 z m 0,8.073 v 4.036 h 4 v -4.036 z m 0,8.073 v 4.036 h 4 v -4.036 z m 0,8.072 v 4.037 h 4 v -4.037 z m 0,8.073 v 2.018 h 4 v -2.018 z m 0,2.018 v 0.058 h 4 v -0.058 z m 0,0.172 v 0.058 h 4 v -0.058 z m 2,2.058 h 2.2163 v -4 h -2.2163 z m 6.6491,0 h 4.4328 v -4 h -4.4328 z m 8.8656,0 h 4.4327 v -4 h -4.4327 z m 8.8651,0 h 4.433 v -4 h -4.433 z m 8.866,0 h 2.216 v -4 h -2.216 z m 4.216,-2 v -2.022 h -4 v 2.022 z m 0,-6.065 v -4.044 h -4 v 4.044 z m 0,-8.087 v -4.044 h -4 v 4.044 z m 0,-8.087 v -4.044 h -4 v 4.044 z m 0,-8.087 v -4.044 h -4 v 4.044 z m 0,-8.087 v -4.044 h -4 v 4.044 z m 0,-8.087 v -4.044 h -4 v 4.044 z m 0,-8.087 v -4.044 h -4 v 4.044 z m 0,-8.087 v -4.044 h -4 v 4.044 z m 0,-8.087 v -4.0438 h -4 v 4.0438 z m 0,-8.0873 v -4.0434 h -4 v 4.0434 z m 0,-8.0869 v -4.0435 h -4 v 4.0435 z m 0,-8.087 v -4.0435 h -4 v 4.0435 z m 0,-8.087 v -4.0435 h -4 v 4.0435 z m 0,-8.087 v -4.0435 h -4 v 4.0435 z m 0,-8.087 v -4.0435 h -4 v 4.0435 z m 0,-8.087 V 41.527 h -4 v 2.0218 z m -2,-4.0218 h -2.216 v 4 h 2.216 z m -6.649,0 h -4.433 v 4 h 4.433 z m -8.8654,0 h -4.4327 v 4 h 4.4327 z m -8.8655,0 h -4.4328 v 4 h 4.4328 z m -8.8656,0 h -2.2163 v 4 h 2.2163 z M 24.8668,74.9425 c -0.6861,0 -1.357,-0.0271 -2.0125,-0.081 l -0.3274,3.9866 c 0.7681,0.0631 1.5483,0.0944 2.3399,0.0944 z m -5.9265,-0.7661 c -1.2855,-0.3562 -2.5026,-0.8359 -3.6504,-1.4378 l -1.8576,3.5425 c 1.4056,0.7371 2.888,1.32 4.4398,1.75 z m -6.9022,-3.6228 c -0.497,-0.4173 -0.979,-0.8657 -1.4455,-1.3457 l -2.86844,2.7878 c 0.55864,0.5748 1.13937,1.1154 1.74178,1.6212 z M 10.5926,69.2079 C 10.127,68.7288 9.6901,68.2385 9.28192,67.7371 l -3.10209,2.5253 c 0.48442,0.595 0.99952,1.1728 1.54433,1.7333 z M 7.12192,64.4945 C 6.51601,63.3532 6.03022,62.1572 5.66748,60.9046 l -3.84215,1.1126 c 0.43956,1.5179 1.02916,2.9696 1.76365,4.353 z M 4.95973,57.0719 C 4.90351,56.4302 4.875,55.7737 4.875,55.1024 h -4 c 0,0.7847 0.033332,1.5576 0.09999,2.3186 z M 4.875,55.1024 c 0,-0.6663 0.02808,-1.3182 0.08314,-1.956 L 0.972968,52.8024 C 0.907825,53.5569 0.875,54.3236 0.875,55.1024 Z M 5.64713,49.3297 C 5.99989,48.0755 6.47037,46.877 7.05206,45.7328 L 3.4864,43.92 c -0.699,1.375 -1.26546,2.8177 -1.68987,4.3267 z M 9.13094,42.4531 C 9.5252,41.9412 9.94586,41.441 10.3924,40.9528 L 7.44098,38.253 c -0.52056,0.5691 -1.01413,1.1556 -1.47929,1.7597 z m 1.21996,-1.4563 c 0.4624,-0.4757 0.94,-0.9168 1.4323,-1.3246 L 9.23148,36.5918 C 8.62651,37.093 8.04336,37.6319 7.48249,38.209 Z m 4.6745,-3.4427 c 1.1456,-0.5746 2.3641,-1.0253 3.656,-1.3567 l -0.9939,-3.8746 c -1.553,0.3984 -3.041,0.9465 -4.4553,1.6558 z m 7.5807,-1.9845 c 0.6572,-0.0484 1.3303,-0.0725 2.0191,-0.0725 v -4 c -0.7821,0 -1.5533,0.0273 -2.3131,0.0833 z m 2.0191,-0.0725 c 0.6861,0 1.357,0.0271 2.0125,0.0809 l 0.3274,-3.9866 c -0.7681,-0.063 -1.5483,-0.0943 -2.3399,-0.0943 z m 5.9265,0.7661 c 1.2855,0.3562 2.5026,0.8359 3.6504,1.4377 l 1.8576,-3.5425 c -1.4057,-0.737 -2.888,-1.32 -4.4399,-1.75 z m 6.9021,3.6227 c 0.4971,0.4174 0.9791,0.8658 1.4456,1.3458 l 2.8684,-2.7879 C 41.2092,37.869 40.6284,37.3285 40.026,36.8226 Z m 1.4456,1.3458 c 0.4674,0.4809 0.9019,0.973 1.3047,1.4764 l 3.1236,-2.4986 c -0.4855,-0.6069 -1.0055,-1.1953 -1.5599,-1.7657 z m 3.4088,4.7569 c 0.5744,1.1506 1.0274,2.3667 1.3611,3.6558 l 3.8723,-1.0026 C 47.1401,47.0909 46.5905,45.6112 45.887,44.2019 Z m 1.994,7.5695 c 0.0487,0.6534 0.0731,1.3246 0.0731,2.0139 h 4 c 0,-0.7838 -0.0278,-1.5542 -0.0842,-2.3112 z m 0.0731,2.0139 c 0,0.6835 -0.024,1.3455 -0.0718,1.9875 l 3.989,0.2969 c 0.0555,-0.746 0.0828,-1.5073 0.0828,-2.2844 z m -0.7008,5.8381 c -0.3337,1.2662 -0.7877,2.4559 -1.3651,3.5843 l 3.5608,1.8222 c 0.7115,-1.3903 1.2671,-2.8497 1.6723,-4.3873 z m -3.4744,6.8059 c -0.4012,0.4949 -0.8343,0.9817 -1.3007,1.4616 l 2.8684,2.7878 c 0.5462,-0.5619 1.0595,-1.1383 1.5396,-1.7306 z m -1.2603,1.4212 c -0.4629,0.4498 -0.9433,0.8721 -1.4417,1.2665 l 2.4821,3.1367 c 0.6074,-0.4806 1.1896,-0.9927 1.7472,-1.5346 z m -4.6644,3.3002 c -1.1144,0.5458 -2.3106,0.9875 -3.5957,1.3161 l 0.9908,3.8753 c 1.5435,-0.3946 2.998,-0.9299 4.3645,-1.5993 z m -7.4356,1.933 c -0.6384,0.0477 -1.2958,0.0721 -1.973,0.0721 v 4 c 0.7732,0 1.5302,-0.0278 2.2712,-0.0832 z"
         fill="#0066cc"
         id="path172" /></g></g></svg>
