<?xml version="1.0" encoding="utf-8"?>
<!-- Generator: Adobe Illustrator 25.4.1, SVG Export Plug-In . SVG Version: 6.00 Build 0)  -->
<svg version="1.1" id="Livello_1" xmlns="http://www.w3.org/2000/svg" xmlns:xlink="http://www.w3.org/1999/xlink" x="0px" y="0px"
	 viewBox="0 0 65.2 53.3" style="enable-background:new 0 0 65.2 53.3;" xml:space="preserve">
<style type="text/css">
	.st0{fill-rule:evenodd;clip-rule:evenodd;fill:#FFFFFF;}
</style>
<path class="st0" d="M22.7,52.3V11.4h10.8v41L22.7,52.3L22.7,52.3z M65,20.7h-9.9v16.8c0,1.7,0.1,2.8,0.1,3.5
	c0.1,0.7,0.4,1.2,0.9,1.7s1.3,0.7,2.4,0.7l6.1-0.1l0.5,8.7c-3.6,0.8-6.4,1.2-8.2,1.2c-4.9,0-8.1-1.1-9.9-3.3
	c-1.8-2.2-2.6-6.3-2.6-12.2V0h10.8v11.4h9.9L65,20.7L65,20.7z M6.5,23.9c-1.9,0-3.4-0.7-4.6-2C0.6,20.6,0,19,0,17.1
	c0-1.9,0.6-3.5,1.8-4.8C3,11,4.6,10.4,6.4,10.4s3.4,0.7,4.6,2c1.2,1.3,1.8,2.9,1.8,4.9c0,2-0.6,3.5-1.8,4.8
	C9.9,23.2,8.4,23.9,6.5,23.9z"/>
</svg>
