<svg width="66" height="51" viewBox="0 0 66 51" fill="none" xmlns="http://www.w3.org/2000/svg">
<path d="M58.2 5.80075V1.90675H24.564V5.80075H18.294C17.521 4.18985 16.3085 2.83018 14.7963 1.8785C13.2841 0.926821 11.5337 0.421875 9.74697 0.421875C7.96021 0.421875 6.20983 0.926821 4.69762 1.8785C3.18541 2.83018 1.97293 4.18985 1.19996 5.80075C0.936083 6.37754 0.734928 6.981 0.599965 7.60075H8.21997V11.8008H0.563965C0.698928 12.4205 0.900083 13.024 1.16396 13.6008C1.93491 15.2166 3.14763 16.581 4.6618 17.5363C6.17596 18.4915 7.92967 18.9984 9.71996 18.9984C11.5103 18.9984 13.264 18.4915 14.7781 17.5363C16.2923 16.581 17.505 15.2166 18.276 13.6008H24.546V27.5388C24.5389 28.854 24.7911 30.1578 25.2882 31.3755C25.7854 32.5933 26.5177 33.7011 27.4433 34.6356C28.3688 35.5701 29.4696 36.313 30.6825 36.8217C31.8954 37.3305 33.1967 37.5953 34.512 37.6008H35.352V50.2008H58.2V13.6008H65.4V5.80075H58.2ZM17.034 11.8008C16.849 12.4345 16.5785 13.0401 16.23 13.6008C15.5425 14.7018 14.5861 15.6098 13.4509 16.2394C12.3157 16.8689 11.039 17.1992 9.74096 17.1992C8.4429 17.1992 7.16619 16.8689 6.03099 16.2394C4.89579 15.6098 3.93944 14.7018 3.25197 13.6008H10.044V5.80075H3.25197C3.93944 4.69969 4.89579 3.79167 6.03099 3.16216C7.16619 2.53264 8.4429 2.20234 9.74096 2.20234C11.039 2.20234 12.3157 2.53264 13.4509 3.16216C14.5861 3.79167 15.5425 4.69969 16.23 5.80075C16.5785 6.36144 16.849 6.96701 17.034 7.60075C17.4421 8.971 17.4421 10.4305 17.034 11.8008ZM24.546 11.7648H18.918C19.2459 10.4083 19.2459 8.99322 18.918 7.63675H24.546V11.7648ZM50.232 3.74275H56.346V12.8988C56.3643 13.3116 56.2987 13.7239 56.1534 14.1107C56.008 14.4975 55.7858 14.8509 55.5001 15.1495C55.2144 15.4481 54.8712 15.6858 54.4912 15.8482C54.1112 16.0105 53.7022 16.0942 53.289 16.0942C52.8757 16.0942 52.4667 16.0105 52.0867 15.8482C51.7067 15.6858 51.3635 15.4481 51.0778 15.1495C50.7922 14.8509 50.5699 14.4975 50.4246 14.1107C50.2792 13.7239 50.2137 13.3116 50.232 12.8988V3.74275ZM42.282 3.74275H48.396V12.8988C48.4143 13.3116 48.3487 13.7239 48.2034 14.1107C48.058 14.4975 47.8358 14.8509 47.5501 15.1495C47.2644 15.4481 46.9212 15.6858 46.5412 15.8482C46.1612 16.0105 45.7522 16.0942 45.339 16.0942C44.9257 16.0942 44.5167 16.0105 44.1367 15.8482C43.7567 15.6858 43.4135 15.4481 43.1278 15.1495C42.8422 14.8509 42.6199 14.4975 42.4746 14.1107C42.3292 13.7239 42.2637 13.3116 42.282 12.8988V3.74275ZM34.332 3.74275H40.446V12.8988C40.4643 13.3116 40.3987 13.7239 40.2534 14.1107C40.108 14.4975 39.8858 14.8509 39.6001 15.1495C39.3144 15.4481 38.9712 15.6858 38.5912 15.8482C38.2112 16.0105 37.8022 16.0942 37.389 16.0942C36.9757 16.0942 36.5667 16.0105 36.1867 15.8482C35.8067 15.6858 35.4635 15.4481 35.1778 15.1495C34.8922 14.8509 34.6699 14.4975 34.5246 14.1107C34.3792 13.7239 34.3137 13.3116 34.332 12.8988V3.74275ZM26.4 3.73075H32.496V12.8988C32.4611 13.6861 32.1238 14.4296 31.5543 14.9744C30.9848 15.5192 30.2271 15.8233 29.439 15.8233C28.6509 15.8233 27.8931 15.5192 27.3237 14.9744C26.7542 14.4296 26.4169 13.6861 26.382 12.8988L26.4 3.73075ZM34.512 35.7468C32.3493 35.7293 30.2816 34.8559 28.7613 33.3176C27.241 31.7794 26.392 29.7015 26.4 27.5388V16.7388V16.6788C26.917 17.0951 27.5136 17.4016 28.1533 17.5793C28.7929 17.7571 29.4621 17.8024 30.1198 17.7126C30.7776 17.6227 31.41 17.3995 31.9785 17.0567C32.547 16.7138 33.0396 16.2586 33.426 15.7188C33.8776 16.3528 34.4743 16.8698 35.1663 17.2264C35.8583 17.5831 36.6255 17.7692 37.404 17.7692C38.1825 17.7692 38.9497 17.5831 39.6416 17.2264C40.3336 16.8698 40.9303 16.3528 41.382 15.7188C41.8338 16.3516 42.4302 16.8675 43.1216 17.2234C43.813 17.5793 44.5793 17.765 45.357 17.765C46.1346 17.765 46.901 17.5793 47.5924 17.2234C48.2837 16.8675 48.8801 16.3516 49.332 15.7188C49.7179 16.2599 50.2104 16.7165 50.7792 17.0605C51.348 17.4044 51.981 17.6285 52.6395 17.719C53.2981 17.8094 53.9681 17.7644 54.6086 17.5865C55.249 17.4087 55.8464 17.1018 56.364 16.6848V35.7348L34.512 35.7468ZM56.4 48.4008H37.2V37.6008H56.4V48.4008ZM63.6 11.8008H58.2V7.60075H63.6V11.8008Z" fill="#0066CC"/>
</svg>
