<?xml version="1.0" encoding="UTF-8"?>
<svg width="86px" height="86px" viewBox="0 0 86 86" version="1.1" xmlns="http://www.w3.org/2000/svg" xmlns:xlink="http://www.w3.org/1999/xlink">
    <title>Designers Italia</title>
    <g id="Logo" stroke="none" stroke-width="1" fill="none" fill-rule="evenodd">
        <g id="logo" transform="translate(1.000000, 1.000000)">
            <rect id="Rectangle" stroke="#979797" fill="#FFFFFF" x="0" y="0" width="84" height="84"></rect>
            <path d="M60.8517241,20 L60.8517241,29.3642565 L68.9413793,29.3642565 L68.9413793,37.1077763 L60.7931033,37.1077763 L60.7931033,50.9740791 C60.7931033,52.3547068 60.8517241,53.2551161 60.9103448,53.8553888 C60.9689655,54.3956345 61.2034484,54.8758528 61.6137931,55.2960438 C62.0241379,55.7162347 62.6689655,55.8963167 63.5482758,55.8963167 L68.5896552,55.7762621 L69,62.9795362 C66.0689654,63.6398364 63.7827587,64 62.2586205,64 C58.2724137,64 55.575862,63.0995909 54.1689655,61.238745 C52.7034484,59.4379265 52,56.0763986 52,51.1541612 L52,20 L60.8517241,20 Z M43,30 L43,63 L34,63 L34,30 L43,30 Z M20.5,28 C22.0888889,28 23.4333334,28.535135 24.4722223,29.6054054 C25.5111111,30.6756757 26,31.9837837 26,33.5891893 C26,35.1945946 25.5111111,36.4432433 24.4722223,37.5135136 C23.4944443,38.464865 22.2111111,39 20.5611111,39 C18.9722223,39 17.6277777,38.464865 16.5888889,37.3945946 C15.55,36.3243243 15,35.0162163 15,33.4702703 C15,31.9243243 15.55,30.6162163 16.5277777,29.545946 C17.5666666,28.4756757 18.9111111,28 20.5,28 Z" id="Combined-Shape-Copy-2" fill="#0066CC"></path>
        </g>
    </g>
</svg>