<svg width="132" height="34" viewBox="0 0 132 34" fill="none" xmlns="http://www.w3.org/2000/svg">
<path fill-rule="evenodd" clip-rule="evenodd" d="M58.5128 19.1019H50.8882C50.6915 19.1019 50.532 19.2614 50.532 19.4584V23.1861C50.532 23.3826 50.6915 23.5428 50.8882 23.5428H53.8625V28.1742C53.8625 28.1742 53.1947 28.4019 51.3482 28.4019C49.17 28.4019 46.1269 27.6061 46.1269 20.9144C46.1269 14.2214 49.2957 13.3408 52.2705 13.3408C54.8457 13.3408 55.9549 13.794 56.661 14.0126C56.8829 14.0804 57.088 13.8597 57.088 13.6627L57.9384 10.0612C57.9384 9.96898 57.9072 9.85789 57.8024 9.78282C57.5157 9.57827 55.7667 8.59961 51.3482 8.59961C46.2584 8.59961 41.0371 10.765 41.0371 21.1754C41.0371 31.5857 47.0149 33.137 52.0523 33.137C56.2232 33.137 58.7533 31.3547 58.7533 31.3547C58.8576 31.2971 58.8689 31.1515 58.8689 31.0847V19.4584C58.8689 19.2614 58.7095 19.1019 58.5128 19.1019Z" fill="#0066CC"/>
<path fill-rule="evenodd" clip-rule="evenodd" d="M97.8063 9.59454C97.8063 9.39629 97.6491 9.23633 97.4521 9.23633H93.1591C92.9631 9.23633 92.8037 9.39629 92.8037 9.59454C92.8037 9.59555 92.8049 17.8911 92.8049 17.8911H86.113V9.59454C86.113 9.39629 85.9553 9.23633 85.7588 9.23633H81.466C81.2708 9.23633 81.1113 9.39629 81.1113 9.59454V32.0592C81.1113 32.2575 81.2708 32.4187 81.466 32.4187H85.7588C85.9553 32.4187 86.113 32.2575 86.113 32.0592V22.4504H92.8049C92.8049 22.4504 92.7931 32.0585 92.7931 32.0592C92.7931 32.2575 92.9523 32.4187 93.1488 32.4187H97.4519C97.6486 32.4187 97.8058 32.2575 97.8063 32.0592V9.59454Z" fill="#0066CC"/>
<path fill-rule="evenodd" clip-rule="evenodd" d="M66.6143 12.5432C66.6143 10.9973 65.3752 9.74805 63.8461 9.74805C62.3185 9.74805 61.0781 10.9973 61.0781 12.5432C61.0781 14.0874 62.3185 15.3399 63.8461 15.3399C65.3752 15.3399 66.6143 14.0874 66.6143 12.5432Z" fill="#0066CC"/>
<path fill-rule="evenodd" clip-rule="evenodd" d="M66.3075 27.3215C66.3075 26.7457 66.3075 16.9517 66.3075 16.9517C66.3075 16.7547 66.1485 16.5938 65.9523 16.5938H61.6726C61.4764 16.5938 61.3008 16.7963 61.3008 16.9933C61.3008 16.9933 61.3008 29.4713 61.3008 31.8498C61.3008 32.2864 61.5728 32.4164 61.9248 32.4164C61.9248 32.4164 63.7516 32.4164 65.7805 32.4164C66.2037 32.4164 66.3075 32.2085 66.3075 31.8428C66.3075 31.0465 66.3075 27.9269 66.3075 27.3215Z" fill="#0066CC"/>
<path fill-rule="evenodd" clip-rule="evenodd" d="M114.122 16.627H109.862C109.667 16.627 109.507 16.7879 109.507 16.9859V28.0011C109.507 28.0011 108.425 28.7929 106.889 28.7929C105.353 28.7929 104.945 28.0958 104.945 26.5919C104.945 25.086 104.945 16.9859 104.945 16.9859C104.945 16.7879 104.787 16.627 104.591 16.627H100.267C100.072 16.627 99.9121 16.7879 99.9121 16.9859C99.9121 16.9859 99.9121 22.8519 99.9121 27.3192C99.9121 31.7868 102.402 32.8798 105.827 32.8798C108.637 32.8798 110.903 31.3273 110.903 31.3273C110.903 31.3273 111.011 32.1455 111.06 32.2425C111.108 32.3392 111.236 32.437 111.373 32.437L114.124 32.4246C114.319 32.4246 114.479 32.2634 114.479 32.0662L114.477 16.9859C114.477 16.7879 114.318 16.627 114.122 16.627Z" fill="#0066CC"/>
<path fill-rule="evenodd" clip-rule="evenodd" d="M124.085 28.7791C122.607 28.7343 121.605 28.0637 121.605 28.0637V20.9496C121.605 20.9496 122.594 20.3435 123.807 20.2352C125.341 20.0979 126.819 20.5611 126.819 24.2208C126.819 28.0798 126.152 28.8416 124.085 28.7791ZM125.765 16.122C123.346 16.122 121.7 17.2017 121.7 17.2017V9.59454C121.7 9.39629 121.541 9.23633 121.346 9.23633H117.04C116.844 9.23633 116.686 9.39629 116.686 9.59454V32.0592C116.686 32.2575 116.845 32.4187 117.041 32.4187C117.041 32.4187 120.027 32.4187 120.028 32.4187C120.162 32.4187 120.264 32.3494 120.339 32.228C120.414 32.1073 120.521 31.1922 120.521 31.1922C120.521 31.1922 122.281 32.8603 125.614 32.8603C129.526 32.8603 131.77 30.8758 131.77 23.9516C131.77 17.0268 128.186 16.122 125.765 16.122Z" fill="#0066CC"/>
<path fill-rule="evenodd" clip-rule="evenodd" d="M78.6464 16.5915H75.426C75.426 16.5915 75.4212 12.338 75.4212 12.3373C75.4212 12.1761 75.3381 12.0957 75.152 12.0957H70.7637C70.5929 12.0957 70.5015 12.1708 70.5015 12.3348V16.7311C70.5015 16.7311 68.3023 17.2621 68.1534 17.3049C68.0056 17.3477 67.8965 17.4843 67.8965 17.6473V20.4099C67.8965 20.6087 68.0552 20.7689 68.2514 20.7689H70.5015C70.5015 20.7689 70.5015 23.6586 70.5015 27.4153C70.5015 32.3519 73.9642 32.8368 76.3007 32.8368C77.3685 32.8368 78.6457 32.494 78.8565 32.4161C78.984 32.3693 79.058 32.237 79.058 32.094L79.0618 29.0549C79.0618 28.8567 78.8943 28.6962 78.7059 28.6962C78.518 28.6962 78.0381 28.7725 77.5438 28.7725C75.9618 28.7725 75.426 28.037 75.426 27.085C75.426 26.1338 75.4258 20.7689 75.4258 20.7689H78.6464C78.8427 20.7689 79.0016 20.6087 79.0016 20.4099V16.9495C79.0016 16.7512 78.8427 16.5915 78.6464 16.5915Z" fill="#0066CC"/>
<path fill-rule="evenodd" clip-rule="evenodd" d="M16.6261 0.714844C7.44496 0.714844 0 8.17336 0 17.3743C0 24.7349 4.76388 30.9795 11.3699 33.1824C12.2009 33.3366 12.5059 32.821 12.5059 32.381C12.5059 31.9837 12.4905 30.6714 12.4833 29.2793C7.85794 30.2871 6.88193 27.3137 6.88193 27.3137C6.12562 25.3881 5.0359 24.8761 5.0359 24.8761C3.52741 23.8421 5.14961 23.8634 5.14961 23.8634C6.81915 23.9809 7.69825 25.5801 7.69825 25.5801C9.18113 28.127 11.5877 27.3907 12.5365 26.965C12.6857 25.8883 13.1166 25.1534 13.5921 24.7374C9.89917 24.3161 6.01714 22.8876 6.01714 16.5042C6.01714 14.6854 6.66663 13.1992 7.73019 12.0326C7.55756 11.613 6.98848 9.91853 7.89125 7.62382C7.89125 7.62382 9.28741 7.17608 12.4646 9.33148C13.7908 8.96236 15.2131 8.77725 16.6261 8.7709C18.039 8.77725 19.4624 8.96236 20.7911 9.33148C23.9645 7.17608 25.3587 7.62382 25.3587 7.62382C26.2637 9.91853 25.6943 11.613 25.5217 12.0326C26.5878 13.1992 27.2328 14.6854 27.2328 16.5042C27.2328 22.9028 23.3434 24.3117 19.6411 24.7241C20.2375 25.2411 20.7688 26.2549 20.7688 27.8092C20.7688 30.0383 20.7496 31.8323 20.7496 32.381C20.7496 32.8243 21.0489 33.3438 21.8916 33.1802C28.4941 30.9749 33.2519 24.7324 33.2519 17.3743C33.2519 8.17336 25.8081 0.714844 16.6261 0.714844Z" fill="#0066CC"/>
<path fill-rule="evenodd" clip-rule="evenodd" d="M6.28325 24.59C6.24293 24.6473 6.09984 24.6645 5.96948 24.6252C5.8367 24.5875 5.76213 24.5095 5.80518 24.452C5.84459 24.393 5.98798 24.3766 6.12045 24.4161C6.25354 24.4537 6.32932 24.5326 6.28325 24.59Z" fill="#0066CC"/>
<path fill-rule="evenodd" clip-rule="evenodd" d="M7.00039 25.3632C6.91848 25.4373 6.75835 25.4029 6.64971 25.2858C6.53736 25.1689 6.51632 25.0126 6.59936 24.9374C6.68384 24.8633 6.83912 24.898 6.95175 25.0149C7.06409 25.1331 7.08599 25.2883 7.00039 25.3632Z" fill="#0066CC"/>
<path fill-rule="evenodd" clip-rule="evenodd" d="M7.48148 26.1341C7.38389 26.1938 7.22431 26.1378 7.12567 26.0131C7.02808 25.8884 7.02807 25.7388 7.12778 25.6788C7.22669 25.6189 7.38389 25.6728 7.48385 25.7966C7.58118 25.9234 7.58118 26.073 7.48148 26.1341Z" fill="#0066CC"/>
<path fill-rule="evenodd" clip-rule="evenodd" d="M8.5223 27.1159C8.44853 27.199 8.29141 27.1767 8.17641 27.0633C8.05874 26.9524 8.02598 26.7951 8.09997 26.712C8.17463 26.6287 8.33264 26.6521 8.44853 26.7646C8.56531 26.8752 8.60097 27.0337 8.5223 27.1159Z" fill="#0066CC"/>
<path fill-rule="evenodd" clip-rule="evenodd" d="M9.8163 27.7712C9.77307 27.8979 9.57202 27.9555 9.36949 27.9016C9.16726 27.8462 9.03491 27.6978 9.07577 27.5698C9.11781 27.4423 9.31975 27.3823 9.52376 27.4399C9.7257 27.4951 9.85835 27.6424 9.8163 27.7712Z" fill="#0066CC"/>
<path fill-rule="evenodd" clip-rule="evenodd" d="M11.0837 27.9164C11.0887 28.0556 10.9198 28.1711 10.7107 28.1736C10.5005 28.1781 10.3305 28.0654 10.3281 27.9284C10.3281 27.7877 10.4932 27.6734 10.7035 27.67C10.9125 27.6661 11.0837 27.778 11.0837 27.9164Z" fill="#0066CC"/>
<path fill-rule="evenodd" clip-rule="evenodd" d="M12.3408 27.6072C12.3659 27.7404 12.22 27.8772 12.0115 27.9137C11.8065 27.9488 11.6168 27.8665 11.5907 27.7344C11.5653 27.5979 11.7138 27.4611 11.9185 27.4258C12.1273 27.3918 12.3142 27.4718 12.3408 27.6072Z" fill="#0066CC"/>
</svg>
