<svg width="128" height="128" viewBox="0 0 128 128" fill="none" xmlns="http://www.w3.org/2000/svg">
<path d="M63.9998 109.82V107.638C64.7271 107.638 65.4544 107.638 66.1162 107.594L66.218 109.776C65.4544 109.82 64.7271 109.82 63.9998 109.82ZM62.0071 109.776C61.2798 109.776 60.5525 109.696 59.8253 109.631L60.0216 107.449C60.7489 107.515 61.4762 107.565 62.1235 107.594L62.0071 109.776ZM68.4289 109.609L68.218 107.427C68.9453 107.354 69.6289 107.274 70.3198 107.173L70.6253 109.318C69.898 109.449 69.1562 109.536 68.4216 109.609H68.4289ZM57.5925 109.376C56.8653 109.274 56.138 109.151 55.4107 109.013L55.8107 106.889C56.538 107.02 57.2071 107.136 57.8907 107.231L57.5925 109.376ZM72.8144 108.976L72.3998 106.853C73.0907 106.715 73.7816 106.562 74.458 106.394L74.9744 108.496C74.2616 108.671 73.5344 108.831 72.8071 108.976H72.8144ZM53.2362 108.547C52.5089 108.38 51.7816 108.184 51.098 107.98L51.7089 105.9C52.378 106.096 53.0689 106.278 53.7453 106.445L53.2362 108.547ZM77.1125 107.915L76.5016 105.842C77.1635 105.645 77.8398 105.42 78.5016 105.187L79.2289 107.231C78.5453 107.478 77.818 107.711 77.0907 107.915H77.1125ZM48.9889 107.304C48.2616 107.064 47.5925 106.802 46.9089 106.525L47.7162 104.518C48.3707 104.78 49.0325 105.027 49.6944 105.245L48.9889 107.304ZM81.3016 106.445L80.4871 104.438C81.1271 104.176 81.7816 103.893 82.4216 103.594L83.338 105.551C82.6544 105.864 81.9707 106.184 81.2944 106.445H81.3016ZM44.8725 105.653C44.1962 105.34 43.5271 105.013 42.8871 104.678L43.8835 102.758C44.4944 103.078 45.1344 103.391 45.7744 103.682L44.8725 105.653ZM85.3162 104.569L84.3125 102.649C84.9235 102.329 85.5489 101.98 86.1598 101.624L87.258 103.485C86.618 103.864 85.9635 104.227 85.3162 104.569ZM40.9525 103.609C40.3125 103.238 39.6798 102.845 39.0689 102.453L40.2471 100.634C40.8289 101.013 41.4326 101.362 42.0435 101.74L40.9525 103.609ZM89.1489 102.314L87.9562 100.504C88.538 100.125 89.1198 99.7181 89.6944 99.3036L90.9671 101.049C90.3635 101.485 89.7453 101.914 89.1416 102.314H89.1489ZM37.2362 101.194C36.6325 100.765 36.0362 100.314 35.4689 99.8636L36.8144 98.1836C37.3598 98.6127 37.9271 99.0418 38.5016 99.4563L37.2362 101.194ZM92.7198 99.6963L91.3671 98.0163C91.9125 97.5727 92.4507 97.1145 92.9744 96.649L94.4289 98.2709C93.8616 98.7581 93.2944 99.2381 92.7198 99.6963ZM33.7671 98.4381C33.2144 97.9509 32.6689 97.449 32.138 96.9399L33.6435 95.3836C34.1453 95.8709 34.6689 96.3509 35.1998 96.8381L33.7671 98.4381ZM96.0362 96.729L94.5453 95.209C95.0544 94.7072 95.5489 94.1981 95.9998 93.6963L97.5925 95.1509C97.0907 95.6963 96.5744 96.2345 96.0362 96.729ZM30.5816 95.3327C30.0798 94.7945 29.578 94.2345 29.1271 93.6818L30.778 92.2781C31.2289 92.809 31.7016 93.3327 32.1816 93.849L30.5816 95.3327ZM99.0471 93.4781L97.3962 92.089C97.8544 91.5436 98.298 90.9909 98.7125 90.4381L100.436 91.7545C99.9925 92.3654 99.5271 92.94 99.0471 93.5072V93.4781ZM27.7089 91.9872C27.258 91.4054 26.8144 90.8018 26.3925 90.1981L28.1744 88.9618C28.5744 89.5363 28.9962 90.1036 29.4253 90.6636L27.7089 91.9872ZM101.738 89.9872L99.9562 88.7654C100.349 88.1933 100.734 87.6042 101.113 86.9981L102.953 88.14C102.545 88.7727 102.153 89.3981 101.738 89.9872ZM25.1707 88.3509C24.778 87.7254 24.3998 87.0854 24.0362 86.4454L25.9198 85.3836C26.2689 85.9945 26.6471 86.6054 27.0035 87.2018L25.1707 88.3509ZM104.073 86.2272L102.182 85.18C102.523 84.5618 102.851 83.9363 103.163 83.3109L105.098 84.2709C104.778 84.9254 104.429 85.5872 104.073 86.2272ZM22.9962 84.4818C22.6616 83.82 22.3416 83.1436 22.0507 82.4745L23.9998 81.6018C24.2835 82.2418 24.5816 82.8818 24.9016 83.5145L22.9962 84.4818ZM106.029 82.3L104.051 81.4345C104.327 80.7872 104.596 80.1327 104.843 79.4854L106.865 80.249C106.611 80.8963 106.327 81.5872 106.029 82.2636V82.3ZM21.1998 80.4236C20.9307 79.6963 20.6835 79.02 20.4725 78.329L22.5307 77.6527C22.7416 78.3072 22.9816 78.9836 23.258 79.6454L21.1998 80.4236ZM107.636 78.1254L105.578 77.4563C105.796 76.7872 105.993 76.1036 106.174 75.4345L108.269 76.0018C108.043 76.7 107.825 77.42 107.636 78.1254ZM19.8544 76.2054C19.658 75.4781 19.4762 74.7509 19.3162 74.0236L21.4253 73.5581C21.578 74.2345 21.7525 74.9254 21.9416 75.6018L19.8544 76.2054ZM108.793 73.849L106.676 73.3836C106.829 72.7 106.967 72.0018 107.083 71.3109L109.214 71.6745C109.091 72.3945 108.916 73.129 108.756 73.849H108.793ZM18.8435 71.8781C18.7198 71.1509 18.6107 70.4236 18.5235 69.6963L20.7053 69.4345C20.7925 70.1618 20.8944 70.8236 21.018 71.5218L18.8435 71.8781ZM109.491 69.4781L107.309 69.2236C107.389 68.4963 107.462 67.82 107.505 67.1218L109.687 67.2745C109.651 68.0018 109.578 68.7436 109.491 69.4781ZM18.298 67.4854C18.2471 66.7581 18.2107 66.0309 18.1889 65.3036L20.3707 65.2454C20.3707 65.9727 20.4216 66.6563 20.4725 67.3545L18.298 67.4854ZM109.818 65.0563L107.636 65.0127C107.636 64.6781 107.636 64.3436 107.636 64.0018C107.636 63.66 107.636 63.2745 107.636 62.8963L109.818 62.8454C109.818 63.2309 109.818 63.6163 109.818 64.0018C109.818 64.3872 109.818 64.729 109.818 65.0563ZM20.3635 63.1L18.1816 63.0563C18.1816 62.329 18.2325 61.6018 18.2762 60.8745L20.458 61.02C20.3635 61.689 20.3635 62.3945 20.3635 63.1ZM107.549 60.7872C107.498 60.06 107.433 59.3836 107.345 58.6854L109.527 58.4236C109.614 59.1509 109.687 59.8781 109.738 60.6054L107.549 60.7872ZM20.6326 58.9109L18.4507 58.6563C18.538 57.929 18.6471 57.2018 18.7635 56.4745L20.9016 56.8309C20.8144 57.4563 20.7126 58.1836 20.6326 58.9109ZM107.025 56.62C106.909 55.929 106.771 55.2309 106.625 54.5472L108.734 54.0818C108.894 54.809 109.04 55.5363 109.163 56.2636L107.025 56.62ZM21.3235 54.7218L19.2071 54.2636C19.3598 53.5363 19.5416 52.809 19.7307 52.0818L21.818 52.6418C21.6362 53.3472 21.4689 54.0381 21.3235 54.7218ZM106.116 52.4745C105.934 51.8054 105.731 51.1218 105.513 50.4527L107.571 49.7836C107.796 50.5109 108.014 51.2381 108.203 51.9072L106.116 52.4745ZM22.4144 50.649L20.3635 49.9872C20.5889 49.26 20.8289 48.5836 21.0907 47.8927L23.1198 48.6563C22.8653 49.3181 22.6325 49.9872 22.4144 50.649ZM104.807 48.4672C104.56 47.8127 104.291 47.1581 104 46.5109L105.985 45.6381C106.283 46.3218 106.567 47.0127 106.829 47.6963L104.807 48.4672ZM23.898 46.7L21.9125 45.82C22.2035 45.1436 22.5162 44.4672 22.8362 43.8127L24.778 44.7654C24.4725 45.4127 24.1816 46.0527 23.898 46.7ZM103.105 44.5836C102.793 43.9581 102.465 43.3254 102.123 42.7145L104 41.66C104.363 42.3 104.727 42.9618 105.04 43.6236L103.105 44.5836ZM25.7598 42.9109L23.8616 41.8636C24.218 41.2163 24.5889 40.5763 24.9816 39.9509L26.8216 41.0927C26.458 41.689 26.0944 42.3 25.7598 42.9109ZM101.047 40.889C100.669 40.2927 100.276 39.6963 99.8835 39.1218L101.658 37.8927C102.08 38.489 102.487 39.1145 102.88 39.74L101.047 40.889ZM27.9707 39.3327L26.1816 38.1036C26.5962 37.5 27.0325 36.8963 27.4762 36.3145L29.1998 37.6236C28.7853 38.1836 28.3635 38.7581 27.9707 39.3327ZM98.6325 37.4272C98.2107 36.8745 97.7598 36.3218 97.3089 35.7836L98.9598 34.38C99.4325 34.9472 99.9053 35.5218 100.349 36.1036L98.6325 37.4272ZM30.5453 35.9727L28.8871 34.5763C29.3598 34.0163 29.8544 33.4563 30.3416 32.9181L31.9344 34.3727C31.4471 34.9109 30.9744 35.4345 30.5453 35.9727ZM95.898 34.1836C95.418 33.6672 94.9235 33.1654 94.4435 32.6781L95.9489 31.1218C96.4798 31.6309 97.0035 32.169 97.5053 32.7072L95.898 34.1836ZM33.3525 32.8454L31.8398 31.3036C32.3635 30.7872 32.9089 30.2781 33.4544 29.7909L34.9089 31.4054C34.4071 31.8927 33.8907 32.38 33.3889 32.8672L33.3525 32.8454ZM92.8725 31.2745C92.3416 30.809 91.7962 30.3509 91.258 29.9145L92.6107 28.2272C93.178 28.6781 93.7453 29.1581 94.3053 29.6818L92.8725 31.2745ZM36.5453 30.0527L35.178 28.3654C35.738 27.9145 36.3344 27.4563 36.938 27.0127L38.218 28.7581C37.6435 29.1872 37.0907 29.6236 36.5453 30.0527ZM89.578 28.5981C89.0107 28.1836 88.4289 27.7836 87.8398 27.3981L89.0253 25.5872C89.6435 25.9945 90.2544 26.4163 90.8507 26.8454L89.578 28.5981ZM39.9489 27.5581L38.7562 25.7545C39.3744 25.3472 40.0071 24.9472 40.6325 24.5763L41.7453 26.4381C41.1416 26.7945 40.538 27.1727 39.9489 27.5581ZM86.0435 26.3145C85.4325 25.9581 84.8144 25.5872 84.2035 25.2963L85.2071 23.3763C85.8471 23.7109 86.5016 24.1036 87.1416 24.4527L86.0435 26.3145ZM43.5853 25.4054L42.5744 23.4927C43.2216 23.1436 43.8907 22.809 44.5598 22.4963L45.4762 24.46C44.8435 24.729 44.2035 25.0709 43.5853 25.4054ZM82.3125 24.3654C81.6725 24.0672 81.018 23.7836 80.378 23.529L81.1925 21.5218C81.8616 21.7909 82.5453 22.089 83.2216 22.4018L82.3125 24.3654ZM47.4035 23.6381L46.5889 21.6018C47.3162 21.3254 47.9707 21.0563 48.6689 20.809L49.3962 22.8527C48.7271 23.0854 48.0653 23.34 47.418 23.609L47.4035 23.6381ZM78.3853 22.809C77.7235 22.5763 77.0471 22.3581 76.378 22.1618L76.9889 20.089C77.7162 20.2927 78.4435 20.5181 79.1053 20.7654L78.3853 22.809ZM51.3889 22.22L50.7635 20.1472C51.4907 19.9363 52.218 19.74 52.9016 19.5581L53.4253 21.66C52.7562 21.82 52.0725 21.9872 51.4035 22.1909L51.3889 22.22ZM74.3416 21.6163C73.658 21.449 72.9598 21.2963 72.2762 21.1654L72.6835 19.0418C73.4107 19.18 74.138 19.3327 74.8653 19.5072L74.3416 21.6163ZM55.4835 21.2018L55.0689 19.0781C55.7962 18.94 56.5235 18.809 57.2507 18.7072L57.5635 20.8454C56.8871 20.9181 56.1889 21.0418 55.498 21.1727L55.4835 21.2018ZM70.1962 20.8163C69.4689 20.7145 68.7925 20.6345 68.1016 20.569L68.298 18.3872C69.0253 18.4527 69.7525 18.54 70.4798 18.6418L70.1962 20.8163ZM59.658 20.5909L59.4471 18.409C60.1744 18.3363 60.9016 18.2854 61.6289 18.249L61.738 20.4309C61.0907 20.4381 60.3635 20.489 59.6726 20.5618L59.658 20.5909ZM66.0071 20.3654C65.338 20.3654 64.6689 20.3654 63.9998 20.3654H63.898V18.1836H63.9998C64.7271 18.1836 65.4107 18.1836 66.1089 18.2345L66.0071 20.3654Z" fill="#365066"/>
<path d="M39.6722 56.8165C39.5556 56.819 39.4395 56.7993 39.3303 56.7583C26.9085 52.6274 23.3231 43.3256 23.1776 42.911C23.1046 42.6453 23.135 42.3617 23.2625 42.1174C23.39 41.8731 23.6052 41.6861 23.865 41.594C24.1247 41.5019 24.4097 41.5115 24.6627 41.6209C24.9156 41.7303 25.1178 41.9314 25.2285 42.1837C25.2285 42.271 28.6031 50.911 40.014 54.7001C40.2579 54.7831 40.4645 54.9497 40.5974 55.1705C40.7302 55.3912 40.7806 55.6519 40.7396 55.9062C40.6987 56.1606 40.5691 56.3923 40.3737 56.5602C40.1783 56.7281 39.9298 56.8215 39.6722 56.8237V56.8165Z" fill="#365066"/>
<path d="M56.887 102.4C56.6467 102.401 56.4129 102.321 56.2222 102.175C56.0314 102.029 55.8943 101.824 55.8321 101.592C55.7699 101.359 55.7861 101.113 55.8782 100.891C55.9704 100.669 56.1333 100.484 56.3416 100.364C56.3998 100.364 61.8907 97.0839 64.807 89.2439C64.8426 89.095 64.9091 88.9552 65.0023 88.8336C65.0954 88.712 65.2131 88.6115 65.3477 88.5384C65.4823 88.4653 65.6308 88.4214 65.7835 88.4095C65.9362 88.3977 66.0896 88.418 66.2339 88.4694C66.3782 88.5207 66.5101 88.6019 66.6209 88.7076C66.7318 88.8132 66.8191 88.9411 66.8773 89.0827C66.9355 89.2244 66.9632 89.3767 66.9586 89.5298C66.954 89.6829 66.9172 89.8333 66.8507 89.9712C63.6434 98.5967 57.6798 102.08 57.3961 102.226C57.2448 102.328 57.0692 102.388 56.887 102.4Z" fill="#365066"/>
<path d="M88.9318 58.9081C88.6796 58.9101 88.4345 58.8247 88.2382 58.6664C88.0418 58.5081 87.9064 58.2866 87.855 58.0397C87.8035 57.7928 87.8392 57.5357 87.956 57.3121C88.0728 57.0885 88.2634 56.9124 88.4955 56.8135C98.2846 52.5299 101.092 44.7844 101.092 44.7117C101.188 44.4378 101.39 44.2134 101.651 44.088C101.913 43.9625 102.214 43.9462 102.488 44.0426C102.762 44.1391 102.986 44.3404 103.112 44.6022C103.237 44.8641 103.254 45.1651 103.157 45.439C103.034 45.7953 100.045 54.1663 89.3391 58.799C89.2111 58.8597 89.0731 58.8967 88.9318 58.9081Z" fill="#365066"/>
<path d="M117.09 42.9666V26.8502C117.09 25.6773 116.139 24.7266 114.966 24.7266H91.5771C90.4043 24.7266 89.4535 25.6773 89.4535 26.8502V42.9666C89.4535 44.1394 90.4043 45.0902 91.5771 45.0902H114.966C116.139 45.0902 117.09 44.1394 117.09 42.9666Z" fill="#2079D4"/>
<path d="M21.8192 22.5469L10.9102 31.8196V47.2741H32.7283V31.8196L21.8192 22.5469Z" fill="#2079D4"/>
<path d="M56.3356 98.9102H36.7574C35.7372 98.9102 34.9102 99.7372 34.9102 100.757V111.608C34.9102 112.629 35.7372 113.456 36.7574 113.456H56.3356C57.3558 113.456 58.1829 112.629 58.1829 111.608V100.757C58.1829 99.7372 57.3558 98.9102 56.3356 98.9102Z" fill="#50A7EF"/>
<path d="M64.3647 40.3654C68.9676 40.3654 73.4672 41.7303 77.2943 44.2876C81.1215 46.8448 84.1045 50.4795 85.8659 54.732C87.6274 58.9846 88.0882 63.664 87.1903 68.1784C86.2923 72.6929 84.0758 76.8397 80.821 80.0944C77.5663 83.3492 73.4195 85.5657 68.905 86.4637C64.3905 87.3617 59.7112 86.9008 55.4586 85.1393C51.2061 83.3779 47.5714 80.395 45.0141 76.5678C42.4569 72.7406 41.092 68.2411 41.092 63.6381C41.092 57.4658 43.5439 51.5463 47.9084 47.1818C52.2729 42.8174 58.1924 40.3654 64.3647 40.3654ZM64.3647 38.1836C59.3303 38.1836 54.4089 39.6765 50.2229 42.4735C46.0369 45.2704 42.7744 49.2459 40.8478 53.8971C38.9212 58.5483 38.4171 63.6664 39.3993 68.6041C40.3814 73.5418 42.8057 78.0773 46.3656 81.6372C49.9255 85.1971 54.4611 87.6214 59.3988 88.6036C64.3365 89.5858 69.4545 89.0817 74.1057 87.1551C78.757 85.2285 82.7324 81.9659 85.5294 77.7799C88.3264 73.594 89.8193 68.6726 89.8193 63.6381C89.8193 56.8872 87.1375 50.4127 82.3638 45.6391C77.5901 40.8654 71.1157 38.1836 64.3647 38.1836Z" fill="#365066"/>
<path d="M63.9993 49.4553C65.0062 49.4553 65.9905 49.7538 66.8277 50.3132C67.6648 50.8726 68.3174 51.6677 68.7027 52.598C69.088 53.5282 69.1888 54.5518 68.9924 55.5394C68.7959 56.5269 68.3111 57.434 67.5991 58.146C66.8871 58.858 65.98 59.3428 64.9925 59.5393C64.0049 59.7357 62.9813 59.6349 62.0511 59.2495C61.1208 58.8642 60.3258 58.2117 59.7664 57.3745C59.207 56.5373 58.9084 55.5531 58.9084 54.5462C58.9084 53.196 59.4447 51.9011 60.3995 50.9463C61.3542 49.9916 62.6491 49.4553 63.9993 49.4553ZM63.9993 47.2734C62.5609 47.2734 61.1548 47.7 59.9588 48.4991C58.7628 49.2982 57.8306 50.4341 57.2802 51.763C56.7297 53.0919 56.5857 54.5542 56.8663 55.965C57.1469 57.3758 57.8396 58.6716 58.8567 59.6888C59.8738 60.7059 61.1697 61.3985 62.5805 61.6791C63.9912 61.9598 65.4535 61.8157 66.7824 61.2653C68.1114 60.7148 69.2472 59.7827 70.0463 58.5867C70.8455 57.3907 71.272 55.9846 71.272 54.5462C71.272 52.6173 70.5058 50.7675 69.1419 49.4036C67.778 48.0397 65.9281 47.2734 63.9993 47.2734Z" fill="#365066"/>
<path d="M65.8322 66.1818C67.2744 66.1837 68.6569 66.7575 69.6767 67.7773C70.6965 68.7971 71.2703 70.1796 71.2722 71.6218V78.5455H56.7267V71.6218C56.7287 70.1796 57.3024 68.7971 58.3222 67.7773C59.342 66.7575 60.7246 66.1837 62.1667 66.1818H65.8031M65.8031 64H62.1667C60.1453 64 58.2067 64.803 56.7773 66.2324C55.3479 67.6617 54.5449 69.6004 54.5449 71.6218V80.7273H73.454V71.6218C73.454 69.6004 72.651 67.6617 71.2216 66.2324C69.7923 64.803 67.8536 64 65.8322 64H65.8031Z" fill="#365066"/>
</svg>
