<svg width="132" height="35" viewBox="0 0 132 35" fill="none" xmlns="http://www.w3.org/2000/svg">
<path fill-rule="evenodd" clip-rule="evenodd" d="M42.2773 31.86L43.9207 28.0432C45.6966 29.3685 48.0557 30.0576 50.3882 30.0576C52.1111 30.0576 53.1978 29.395 53.1978 28.3878C53.1713 25.5781 42.887 27.7781 42.8075 20.7275C42.781 17.1492 45.9617 14.3926 50.4677 14.3926C53.1448 14.3926 55.8219 15.0552 57.7304 16.5661L56.193 20.4625C54.4436 19.3492 52.2701 18.554 50.2026 18.554C48.7978 18.554 47.8701 19.2167 47.8701 20.0649C47.8966 22.8215 58.2605 21.3107 58.3665 28.0432C58.3665 31.701 55.2653 34.2721 50.8123 34.2721C47.552 34.2721 44.5569 33.5034 42.2773 31.86Z" fill="#0066CC"/>
<path fill-rule="evenodd" clip-rule="evenodd" d="M105.334 26.6649C104.513 28.0962 102.975 29.0769 101.2 29.0769C98.5754 29.0769 96.4549 26.9564 96.4549 24.3323C96.4549 21.7082 98.5754 19.5878 101.2 19.5878C102.975 19.5878 104.513 20.5685 105.334 21.9998L109.867 19.4817C108.171 16.46 104.91 14.3926 101.2 14.3926C95.7128 14.3926 91.2598 18.8456 91.2598 24.3323C91.2598 29.8191 95.7128 34.2721 101.2 34.2721C104.937 34.2721 108.171 32.2311 109.867 29.1829L105.334 26.6649Z" fill="#0066CC"/>
<path d="M66.3188 6.14844H60.6465V33.9002H66.3188V6.14844Z" fill="#0066CC"/>
<path fill-rule="evenodd" clip-rule="evenodd" d="M112.094 6.14844V33.9002H117.766V25.5774L124.499 33.9002H131.761L123.2 24.0135L131.125 14.7894H124.18L117.766 22.4496V6.14844H112.094Z" fill="#0066CC"/>
<path fill-rule="evenodd" clip-rule="evenodd" d="M83.1768 26.7179C82.3551 28.0697 80.6587 29.0769 78.7503 29.0769C76.1262 29.0769 74.0057 26.9564 74.0057 24.3323C74.0057 21.7082 76.1262 19.5878 78.7503 19.5878C80.6587 19.5878 82.3551 20.648 83.1768 22.0263V26.7179ZM83.1768 14.7902V17.0432C82.2491 15.4793 79.9431 14.3926 77.531 14.3926C72.5479 14.3926 68.625 18.7926 68.625 24.3058C68.625 29.8191 72.5479 34.2721 77.531 34.2721C79.9431 34.2721 82.2491 33.1854 83.1768 31.6215V33.8745H88.8491V14.7902H83.1768Z" fill="#0066CC"/>
<path fill-rule="evenodd" clip-rule="evenodd" d="M7.21048 21.9187C7.21048 23.8537 5.64663 25.4175 3.71169 25.4175C1.77675 25.4175 0.212891 23.8537 0.212891 21.9187C0.212891 19.9838 1.77675 18.4199 3.71169 18.4199H7.21048V21.9187Z" fill="#0066CC"/>
<path fill-rule="evenodd" clip-rule="evenodd" d="M8.95898 21.9187C8.95898 19.9838 10.5228 18.4199 12.4578 18.4199C14.3927 18.4199 15.9566 19.9838 15.9566 21.9187V30.6657C15.9566 32.6006 14.3927 34.1645 12.4578 34.1645C10.5228 34.1645 8.95898 32.6006 8.95898 30.6657V21.9187Z" fill="#0066CC"/>
<path fill-rule="evenodd" clip-rule="evenodd" d="M12.4578 7.87064C10.5228 7.87064 8.95898 6.30678 8.95898 4.37184C8.95898 2.4369 10.5228 0.873047 12.4578 0.873047C14.3927 0.873047 15.9566 2.4369 15.9566 4.37184V7.87064H12.4578Z" fill="#0066CC"/>
<path fill-rule="evenodd" clip-rule="evenodd" d="M12.4578 9.64648C14.3928 9.64648 15.9566 11.2103 15.9566 13.1453C15.9566 15.0802 14.3928 16.6441 12.4578 16.6441H3.68434C1.7494 16.6441 0.185547 15.0802 0.185547 13.1453C0.185547 11.2103 1.7494 9.64648 3.68434 9.64648H12.4578Z" fill="#0066CC"/>
<path fill-rule="evenodd" clip-rule="evenodd" d="M26.4785 13.1453C26.4785 11.2103 28.0424 9.64648 29.9773 9.64648C31.9123 9.64648 33.4761 11.2103 33.4761 13.1453C33.4761 15.0802 31.9123 16.6441 29.9773 16.6441H26.4785V13.1453Z" fill="#0066CC"/>
<path fill-rule="evenodd" clip-rule="evenodd" d="M24.73 13.1453C24.73 15.0803 23.1662 16.6441 21.2312 16.6441C19.2963 16.6441 17.7324 15.0803 17.7324 13.1453V4.37184C17.7324 2.4369 19.2963 0.873047 21.2312 0.873047C23.1662 0.873047 24.73 2.4369 24.73 4.37184V13.1453Z" fill="#0066CC"/>
<path fill-rule="evenodd" clip-rule="evenodd" d="M21.2312 27.166C23.1662 27.166 24.73 28.7299 24.73 30.6648C24.73 32.5998 23.1662 34.1636 21.2312 34.1636C19.2963 34.1636 17.7324 32.5998 17.7324 30.6648V27.166H21.2312Z" fill="#0066CC"/>
<path fill-rule="evenodd" clip-rule="evenodd" d="M21.2312 25.4175C19.2963 25.4175 17.7324 23.8537 17.7324 21.9187C17.7324 19.9838 19.2963 18.4199 21.2312 18.4199H30.0047C31.9397 18.4199 33.5035 19.9838 33.5035 21.9187C33.5035 23.8537 31.9397 25.4175 30.0047 25.4175H21.2312Z" fill="#0066CC"/>
</svg>
