<svg width="800" height="188" viewBox="0 0 800 188" fill="none" xmlns="http://www.w3.org/2000/svg">
<g clip-path="url(#clip0_5820_14748)">
<g clip-path="url(#clip1_5820_14748)">
<g clip-path="url(#clip2_5820_14748)">
<g clip-path="url(#clip3_5820_14748)">
<g clip-path="url(#clip4_5820_14748)">
<path d="M2 9.94507L9.94507 2L17.8901 9.94507L9.94507 17.8901L2 9.94507Z" stroke="#6B6B6B"/>
<path d="M27.0114 15V3.36364H31.6705C32.5265 3.36364 33.2405 3.49053 33.8125 3.74432C34.3845 3.99811 34.8144 4.35038 35.1023 4.80114C35.3902 5.24811 35.5341 5.76326 35.5341 6.34659C35.5341 6.80114 35.4432 7.20076 35.2614 7.54545C35.0795 7.88636 34.8295 8.16667 34.5114 8.38636C34.197 8.60227 33.8371 8.75568 33.4318 8.84659V8.96023C33.875 8.97917 34.2898 9.10417 34.6761 9.33523C35.0663 9.56629 35.3826 9.89015 35.625 10.3068C35.8674 10.7197 35.9886 11.2121 35.9886 11.7841C35.9886 12.4015 35.8352 12.9527 35.5284 13.4375C35.2254 13.9186 34.7765 14.2992 34.1818 14.5795C33.5871 14.8598 32.8542 15 31.983 15H27.0114ZM29.4716 12.9886H31.4773C32.1629 12.9886 32.6629 12.858 32.9773 12.5966C33.2917 12.3314 33.4489 11.9792 33.4489 11.5398C33.4489 11.2178 33.3712 10.9337 33.2159 10.6875C33.0606 10.4413 32.839 10.2481 32.5511 10.108C32.267 9.9678 31.928 9.89773 31.5341 9.89773H29.4716V12.9886ZM29.4716 8.23295H31.2955C31.6326 8.23295 31.9318 8.17424 32.1932 8.05682C32.4583 7.93561 32.6667 7.76515 32.8182 7.54545C32.9735 7.32576 33.0511 7.0625 33.0511 6.75568C33.0511 6.33523 32.9015 5.99621 32.6023 5.73864C32.3068 5.48106 31.8864 5.35227 31.3409 5.35227H29.4716V8.23295ZM43.1406 11.2841V6.27273H45.5611V15H43.2372V13.4148H43.1463C42.9493 13.9261 42.6217 14.3371 42.1634 14.6477C41.7088 14.9583 41.1539 15.1136 40.4986 15.1136C39.9152 15.1136 39.402 14.9811 38.9588 14.7159C38.5156 14.4508 38.169 14.0739 37.919 13.5852C37.6728 13.0966 37.5478 12.5114 37.544 11.8295V6.27273H39.9645V11.3977C39.9683 11.9129 40.1065 12.3201 40.3793 12.6193C40.652 12.9186 41.0175 13.0682 41.4759 13.0682C41.7675 13.0682 42.0402 13.0019 42.294 12.8693C42.5478 12.733 42.7524 12.5322 42.9077 12.267C43.0668 12.0019 43.1444 11.6742 43.1406 11.2841ZM52.1392 6.27273V8.09091H46.8835V6.27273H52.1392ZM48.0767 4.18182H50.4972V12.3182C50.4972 12.5417 50.5313 12.7159 50.5994 12.8409C50.6676 12.9621 50.7623 13.0473 50.8835 13.0966C51.0085 13.1458 51.1525 13.1705 51.3153 13.1705C51.429 13.1705 51.5426 13.161 51.6562 13.142C51.7699 13.1193 51.857 13.1023 51.9176 13.0909L52.2983 14.892C52.1771 14.9299 52.0066 14.9735 51.7869 15.0227C51.5672 15.0758 51.3002 15.108 50.9858 15.1193C50.4025 15.142 49.8911 15.0644 49.4517 14.8864C49.0161 14.7083 48.6771 14.4318 48.4347 14.0568C48.1922 13.6818 48.0729 13.2083 48.0767 12.6364V4.18182ZM58.358 6.27273V8.09091H53.1023V6.27273H58.358ZM54.2955 4.18182H56.7159V12.3182C56.7159 12.5417 56.75 12.7159 56.8182 12.8409C56.8864 12.9621 56.9811 13.0473 57.1023 13.0966C57.2273 13.1458 57.3712 13.1705 57.5341 13.1705C57.6477 13.1705 57.7614 13.161 57.875 13.142C57.9886 13.1193 58.0758 13.1023 58.1364 13.0909L58.517 14.892C58.3958 14.9299 58.2254 14.9735 58.0057 15.0227C57.786 15.0758 57.5189 15.108 57.2045 15.1193C56.6212 15.142 56.1098 15.0644 55.6705 14.8864C55.2348 14.7083 54.8958 14.4318 54.6534 14.0568C54.411 13.6818 54.2917 13.2083 54.2955 12.6364V4.18182ZM63.7841 15.1705C62.9015 15.1705 62.1383 14.983 61.4943 14.608C60.8542 14.2292 60.3598 13.7027 60.0114 13.0284C59.6629 12.3504 59.4886 11.5644 59.4886 10.6705C59.4886 9.76894 59.6629 8.98106 60.0114 8.30682C60.3598 7.62879 60.8542 7.10227 61.4943 6.72727C62.1383 6.34848 62.9015 6.15909 63.7841 6.15909C64.6667 6.15909 65.428 6.34848 66.0682 6.72727C66.7121 7.10227 67.2083 7.62879 67.5568 8.30682C67.9053 8.98106 68.0795 9.76894 68.0795 10.6705C68.0795 11.5644 67.9053 12.3504 67.5568 13.0284C67.2083 13.7027 66.7121 14.2292 66.0682 14.608C65.428 14.983 64.6667 15.1705 63.7841 15.1705ZM63.7955 13.2955C64.197 13.2955 64.5322 13.1818 64.8011 12.9545C65.0701 12.7235 65.2727 12.4091 65.4091 12.0114C65.5492 11.6136 65.6193 11.161 65.6193 10.6534C65.6193 10.1458 65.5492 9.69318 65.4091 9.29545C65.2727 8.89773 65.0701 8.58333 64.8011 8.35227C64.5322 8.12121 64.197 8.00568 63.7955 8.00568C63.3902 8.00568 63.0492 8.12121 62.7727 8.35227C62.5 8.58333 62.2936 8.89773 62.1534 9.29545C62.017 9.69318 61.9489 10.1458 61.9489 10.6534C61.9489 11.161 62.017 11.6136 62.1534 12.0114C62.2936 12.4091 62.5 12.7235 62.7727 12.9545C63.0492 13.1818 63.3902 13.2955 63.7955 13.2955ZM72.0739 9.95455V15H69.6534V6.27273H71.9602V7.8125H72.0625C72.2557 7.30492 72.5795 6.90341 73.0341 6.60795C73.4886 6.30871 74.0398 6.15909 74.6875 6.15909C75.2936 6.15909 75.822 6.29167 76.2727 6.55682C76.7235 6.82197 77.0739 7.20076 77.3239 7.69318C77.5739 8.18182 77.6989 8.76515 77.6989 9.44318V15H75.2784V9.875C75.2822 9.34091 75.1458 8.92424 74.8693 8.625C74.5928 8.32197 74.2121 8.17045 73.7273 8.17045C73.4015 8.17045 73.1136 8.24053 72.8636 8.38068C72.6174 8.52083 72.4242 8.72538 72.2841 8.99432C72.1477 9.25947 72.0777 9.57955 72.0739 9.95455ZM83.3097 15V6.27273H85.6165V7.8125H85.7188C85.9006 7.30114 86.2036 6.89773 86.6278 6.60227C87.0521 6.30682 87.5597 6.15909 88.1506 6.15909C88.7491 6.15909 89.2585 6.30871 89.679 6.60795C90.0994 6.90341 90.3797 7.30492 90.5199 7.8125H90.6108C90.7888 7.3125 91.1108 6.91288 91.5767 6.61364C92.0464 6.31061 92.6013 6.15909 93.2415 6.15909C94.0559 6.15909 94.7169 6.41856 95.2244 6.9375C95.7358 7.45265 95.9915 8.18371 95.9915 9.13068V15H93.5767V9.60795C93.5767 9.12311 93.4479 8.75947 93.1903 8.51705C92.9328 8.27462 92.6108 8.15341 92.2244 8.15341C91.785 8.15341 91.4422 8.29356 91.196 8.57386C90.9498 8.85038 90.8267 9.21591 90.8267 9.67045V15H88.4801V9.55682C88.4801 9.12879 88.357 8.78788 88.1108 8.53409C87.8684 8.2803 87.5483 8.15341 87.1506 8.15341C86.8816 8.15341 86.6392 8.22159 86.4233 8.35795C86.2112 8.49053 86.0426 8.67803 85.9176 8.92045C85.7926 9.15909 85.7301 9.43939 85.7301 9.76136V15H83.3097ZM97.9034 15V6.27273H100.324V15H97.9034ZM99.1193 5.14773C98.7595 5.14773 98.4508 5.02841 98.1932 4.78977C97.9394 4.54735 97.8125 4.25758 97.8125 3.92045C97.8125 3.58712 97.9394 3.30114 98.1932 3.0625C98.4508 2.82008 98.7595 2.69886 99.1193 2.69886C99.4792 2.69886 99.786 2.82008 100.04 3.0625C100.297 3.30114 100.426 3.58712 100.426 3.92045C100.426 4.25758 100.297 4.54735 100.04 4.78977C99.786 5.02841 99.4792 5.14773 99.1193 5.14773ZM104.683 9.95455V15H102.263V6.27273H104.57V7.8125H104.672C104.865 7.30492 105.189 6.90341 105.643 6.60795C106.098 6.30871 106.649 6.15909 107.297 6.15909C107.903 6.15909 108.431 6.29167 108.882 6.55682C109.333 6.82197 109.683 7.20076 109.933 7.69318C110.183 8.18182 110.308 8.76515 110.308 9.44318V15H107.888V9.875C107.892 9.34091 107.755 8.92424 107.479 8.625C107.202 8.32197 106.821 8.17045 106.337 8.17045C106.011 8.17045 105.723 8.24053 105.473 8.38068C105.227 8.52083 105.034 8.72538 104.893 8.99432C104.757 9.25947 104.687 9.57955 104.683 9.95455ZM112.216 15V6.27273H114.636V15H112.216ZM113.432 5.14773C113.072 5.14773 112.763 5.02841 112.506 4.78977C112.252 4.54735 112.125 4.25758 112.125 3.92045C112.125 3.58712 112.252 3.30114 112.506 3.0625C112.763 2.82008 113.072 2.69886 113.432 2.69886C113.792 2.69886 114.098 2.82008 114.352 3.0625C114.61 3.30114 114.739 3.58712 114.739 3.92045C114.739 4.25758 114.61 4.54735 114.352 4.78977C114.098 5.02841 113.792 5.14773 113.432 5.14773Z" fill="black"/>
</g>
<g clip-path="url(#clip5_5820_14748)">
<g clip-path="url(#clip6_5820_14748)">
<path d="M2.11364 35.2727V44H1.05682V35.2727H2.11364ZM6.94283 37.4545V38.3068H3.55078V37.4545H6.94283ZM4.53942 35.8864H5.5451V42.125C5.5451 42.4091 5.58629 42.6222 5.66868 42.7642C5.75391 42.9034 5.86186 42.9972 5.99254 43.0455C6.12607 43.0909 6.26669 43.1136 6.41442 43.1136C6.52521 43.1136 6.61612 43.108 6.68715 43.0966C6.75817 43.0824 6.81499 43.071 6.8576 43.0625L7.06215 43.9659C6.99396 43.9915 6.89879 44.017 6.77663 44.0426C6.65447 44.071 6.49965 44.0852 6.31215 44.0852C6.02805 44.0852 5.74964 44.0241 5.47692 43.902C5.20703 43.7798 4.9826 43.5938 4.80362 43.3438C4.62749 43.0938 4.53942 42.7784 4.53942 42.3977V35.8864ZM11.1296 44.1364C10.4989 44.1364 9.9549 43.9972 9.49751 43.7188C9.04297 43.4375 8.69212 43.0455 8.44496 42.5426C8.20064 42.0369 8.07848 41.4489 8.07848 40.7784C8.07848 40.108 8.20064 39.517 8.44496 39.0057C8.69212 38.4915 9.03587 38.0909 9.47621 37.804C9.91939 37.5142 10.4364 37.3693 11.0273 37.3693C11.3683 37.3693 11.7049 37.4261 12.0373 37.5398C12.3697 37.6534 12.6722 37.8381 12.945 38.0938C13.2177 38.3466 13.435 38.6818 13.5969 39.0994C13.7589 39.517 13.8398 40.0312 13.8398 40.642V41.0682H8.79439V40.1989H12.8171C12.8171 39.8295 12.7433 39.5 12.5955 39.2102C12.4506 38.9205 12.2433 38.6918 11.9734 38.5241C11.7063 38.3565 11.391 38.2727 11.0273 38.2727C10.6268 38.2727 10.2802 38.3722 9.98757 38.571C9.6978 38.767 9.47479 39.0227 9.31854 39.3381C9.16229 39.6534 9.08416 39.9915 9.08416 40.3523V40.9318C9.08416 41.4261 9.16939 41.8452 9.33984 42.1889C9.51314 42.5298 9.7532 42.7898 10.06 42.9688C10.3668 43.1449 10.7234 43.233 11.1296 43.233C11.3938 43.233 11.6325 43.196 11.8455 43.1222C12.0614 43.0455 12.2475 42.9318 12.4038 42.7812C12.56 42.6278 12.6808 42.4375 12.766 42.2102L13.7376 42.483C13.6353 42.8125 13.4634 43.1023 13.2219 43.3523C12.9805 43.5994 12.6822 43.7926 12.3271 43.9318C11.9719 44.0682 11.5728 44.1364 11.1296 44.1364ZM15.3697 44V37.4545H16.3413V38.4773H16.4265C16.5629 38.1278 16.783 37.8565 17.087 37.6634C17.391 37.4673 17.756 37.3693 18.1822 37.3693C18.614 37.3693 18.9734 37.4673 19.2603 37.6634C19.5501 37.8565 19.7759 38.1278 19.9379 38.4773H20.006C20.1737 38.1392 20.4251 37.8707 20.7603 37.6719C21.0955 37.4702 21.4975 37.3693 21.9663 37.3693C22.5515 37.3693 23.0302 37.5526 23.4023 37.919C23.7745 38.2827 23.9606 38.8494 23.9606 39.6193V44H22.9549V39.6193C22.9549 39.1364 22.8228 38.7912 22.5586 38.5838C22.2944 38.3764 21.9833 38.2727 21.6254 38.2727C21.1651 38.2727 20.8086 38.4119 20.5558 38.6903C20.3029 38.9659 20.1765 39.3153 20.1765 39.7386V44H19.1538V39.517C19.1538 39.1449 19.033 38.8452 18.7915 38.6179C18.5501 38.3878 18.239 38.2727 17.8583 38.2727C17.5969 38.2727 17.3526 38.3423 17.1254 38.4815C16.9009 38.6207 16.7191 38.8139 16.5799 39.0611C16.4435 39.3054 16.3754 39.5881 16.3754 39.9091V44H15.3697ZM33.8107 38.9205L32.9073 39.1761C32.8505 39.0256 32.7667 38.8793 32.6559 38.7372C32.5479 38.5923 32.4002 38.473 32.2127 38.3793C32.0252 38.2855 31.7852 38.2386 31.4925 38.2386C31.092 38.2386 30.7582 38.331 30.4911 38.5156C30.2269 38.6974 30.0948 38.929 30.0948 39.2102C30.0948 39.4602 30.1857 39.6577 30.3675 39.8026C30.5494 39.9474 30.8335 40.0682 31.2198 40.1648L32.1914 40.4034C32.7766 40.5455 33.2127 40.7628 33.4996 41.0554C33.7866 41.3452 33.93 41.7187 33.93 42.1761C33.93 42.5511 33.8221 42.8864 33.6062 43.1818C33.3931 43.4773 33.0948 43.7102 32.7113 43.8807C32.3278 44.0511 31.8817 44.1364 31.3732 44.1364C30.7056 44.1364 30.1531 43.9915 29.7156 43.7017C29.2781 43.4119 29.0011 42.9886 28.8846 42.4318L29.8391 42.1932C29.93 42.5455 30.1019 42.8097 30.3548 42.9858C30.6104 43.1619 30.9442 43.25 31.3562 43.25C31.8249 43.25 32.1971 43.1506 32.4727 42.9517C32.7511 42.75 32.8903 42.5085 32.8903 42.2273C32.8903 42 32.8107 41.8097 32.6516 41.6562C32.4925 41.5 32.2482 41.3835 31.9187 41.3068L30.8278 41.0511C30.2283 40.9091 29.788 40.6889 29.5067 40.3906C29.2283 40.0895 29.0891 39.7131 29.0891 39.2614C29.0891 38.892 29.1928 38.5653 29.4002 38.2812C29.6104 37.9972 29.896 37.7741 30.2567 37.6122C30.6204 37.4503 31.0323 37.3693 31.4925 37.3693C32.1403 37.3693 32.6488 37.5114 33.0181 37.7955C33.3903 38.0795 33.6545 38.4545 33.8107 38.9205ZM35.4439 46.4545V37.4545H36.4155V38.4943H36.5348C36.6087 38.3807 36.7109 38.2358 36.8416 38.0597C36.9751 37.8807 37.1655 37.7216 37.4126 37.5824C37.6626 37.4403 38.0007 37.3693 38.4268 37.3693C38.978 37.3693 39.4638 37.5071 39.8842 37.7827C40.3047 38.0582 40.6328 38.4489 40.8686 38.9545C41.1044 39.4602 41.2223 40.0568 41.2223 40.7443C41.2223 41.4375 41.1044 42.0384 40.8686 42.5469C40.6328 43.0526 40.3061 43.4446 39.8885 43.723C39.4709 43.9986 38.9893 44.1364 38.4439 44.1364C38.0234 44.1364 37.6868 44.0668 37.4339 43.9276C37.1811 43.7855 36.9865 43.625 36.8501 43.446C36.7138 43.2642 36.6087 43.1136 36.5348 42.9943H36.4496V46.4545H35.4439ZM36.4325 40.7273C36.4325 41.2216 36.505 41.6577 36.6499 42.0355C36.7947 42.4105 37.0064 42.7045 37.2848 42.9176C37.5632 43.1278 37.9041 43.233 38.3075 43.233C38.728 43.233 39.0788 43.1222 39.3601 42.9006C39.6442 42.6761 39.8572 42.375 39.9993 41.9972C40.1442 41.6165 40.2166 41.1932 40.2166 40.7273C40.2166 40.267 40.1456 39.8523 40.0036 39.483C39.8643 39.1108 39.6527 38.8168 39.3686 38.6009C39.0874 38.3821 38.7337 38.2727 38.3075 38.2727C37.8984 38.2727 37.5547 38.3764 37.2763 38.5838C36.9979 38.7884 36.7876 39.0753 36.6456 39.4446C36.5036 39.8111 36.4325 40.2386 36.4325 40.7273ZM44.6825 44.1534C44.2678 44.1534 43.8913 44.0753 43.5533 43.919C43.2152 43.7599 42.9467 43.5312 42.7479 43.233C42.549 42.9318 42.4496 42.5682 42.4496 42.142C42.4496 41.767 42.5234 41.4631 42.6712 41.2301C42.8189 40.9943 43.0163 40.8097 43.2635 40.6761C43.5107 40.5426 43.7834 40.4432 44.0817 40.3778C44.3828 40.3097 44.6854 40.2557 44.9893 40.2159C45.3871 40.1648 45.7095 40.1264 45.9567 40.1009C46.2067 40.0724 46.3885 40.0256 46.5021 39.9602C46.6186 39.8949 46.6768 39.7812 46.6768 39.6193V39.5852C46.6768 39.1648 46.5618 38.8381 46.3317 38.6051C46.1044 38.3722 45.7592 38.2557 45.2962 38.2557C44.8161 38.2557 44.4396 38.3608 44.1669 38.571C43.8942 38.7812 43.7024 39.0057 43.5916 39.2443L42.6371 38.9034C42.8075 38.5057 43.0348 38.196 43.3189 37.9744C43.6058 37.75 43.9183 37.5937 44.2564 37.5057C44.5973 37.4148 44.9325 37.3693 45.2621 37.3693C45.4723 37.3693 45.7138 37.3949 45.9865 37.446C46.2621 37.4943 46.5277 37.5952 46.7834 37.7486C47.0419 37.902 47.2564 38.1335 47.4268 38.4432C47.5973 38.7528 47.6825 39.1676 47.6825 39.6875V44H46.6768V43.1136H46.6257C46.5575 43.2557 46.4439 43.4077 46.2848 43.5696C46.1257 43.7315 45.9141 43.8693 45.6499 43.983C45.3857 44.0966 45.0632 44.1534 44.6825 44.1534ZM44.8359 43.25C45.2337 43.25 45.5689 43.1719 45.8416 43.0156C46.1172 42.8594 46.3246 42.6577 46.4638 42.4105C46.6058 42.1634 46.6768 41.9034 46.6768 41.6307V40.7102C46.6342 40.7614 46.5405 40.8082 46.3956 40.8509C46.2536 40.8906 46.0888 40.9261 45.9013 40.9574C45.7166 40.9858 45.5362 41.0114 45.3601 41.0341C45.1868 41.054 45.0462 41.071 44.9382 41.0852C44.6768 41.1193 44.4325 41.1747 44.2053 41.2514C43.9808 41.3253 43.799 41.4375 43.6598 41.5881C43.5234 41.7358 43.4553 41.9375 43.4553 42.1932C43.4553 42.5426 43.5845 42.8068 43.843 42.9858C44.1044 43.1619 44.4354 43.25 44.8359 43.25ZM52.1772 44.1364C51.5636 44.1364 51.0352 43.9915 50.592 43.7017C50.1488 43.4119 49.8079 43.0128 49.5692 42.5043C49.3306 41.9957 49.2113 41.4148 49.2113 40.7614C49.2113 40.0966 49.3335 39.5099 49.5778 39.0014C49.8249 38.4901 50.1687 38.0909 50.609 37.804C51.0522 37.5142 51.5692 37.3693 52.1602 37.3693C52.6204 37.3693 53.0352 37.4545 53.4045 37.625C53.7738 37.7955 54.0763 38.0341 54.3121 38.3409C54.5479 38.6477 54.6942 39.0057 54.7511 39.4148H53.7454C53.6687 39.1165 53.4982 38.8523 53.234 38.6222C52.9727 38.3892 52.6204 38.2727 52.1772 38.2727C51.7852 38.2727 51.4414 38.375 51.146 38.5795C50.8533 38.7812 50.6246 39.0668 50.4599 39.4361C50.2979 39.8026 50.217 40.233 50.217 40.7273C50.217 41.233 50.2965 41.6733 50.4556 42.0483C50.6175 42.4233 50.8448 42.7145 51.1374 42.9219C51.4329 43.1293 51.7795 43.233 52.1772 43.233C52.4386 43.233 52.6758 43.1875 52.8888 43.0966C53.1019 43.0057 53.2823 42.875 53.43 42.7045C53.5778 42.5341 53.6829 42.3295 53.7454 42.0909H54.7511C54.6942 42.4773 54.5536 42.8253 54.3292 43.1349C54.1076 43.4418 53.8136 43.6861 53.4471 43.8679C53.0835 44.0469 52.6602 44.1364 52.1772 44.1364ZM56.2212 44V37.4545H57.2269V44H56.2212ZM56.7326 36.3636C56.5366 36.3636 56.3675 36.2969 56.2255 36.1634C56.0863 36.0298 56.0167 35.8693 56.0167 35.6818C56.0167 35.4943 56.0863 35.3338 56.2255 35.2003C56.3675 35.0668 56.5366 35 56.7326 35C56.9286 35 57.0962 35.0668 57.2354 35.2003C57.3775 35.3338 57.4485 35.4943 57.4485 35.6818C57.4485 35.8693 57.3775 36.0298 57.2354 36.1634C57.0962 36.2969 56.9286 36.3636 56.7326 36.3636ZM60.0746 40.0625V44H59.0689V37.4545H60.0405V38.4773H60.1257C60.2791 38.1449 60.5121 37.8778 60.8246 37.6761C61.1371 37.4716 61.5405 37.3693 62.0348 37.3693C62.478 37.3693 62.8658 37.4602 63.1982 37.642C63.5305 37.821 63.7891 38.0938 63.9737 38.4602C64.1584 38.8239 64.2507 39.2841 64.2507 39.8409V44H63.245V39.9091C63.245 39.3949 63.1115 38.9943 62.8445 38.7074C62.5774 38.4176 62.2109 38.2727 61.745 38.2727C61.424 38.2727 61.1371 38.3423 60.8842 38.4815C60.6342 38.6207 60.4368 38.8239 60.2919 39.0909C60.147 39.358 60.0746 39.6818 60.0746 40.0625ZM68.7305 46.5909C68.2447 46.5909 67.8271 46.5284 67.4776 46.4034C67.1282 46.2812 66.837 46.1193 66.604 45.9176C66.3739 45.7188 66.1907 45.5057 66.0543 45.2784L66.8555 44.7159C66.9464 44.8352 67.0614 44.9716 67.2006 45.125C67.3398 45.2812 67.5302 45.4162 67.7717 45.5298C68.016 45.6463 68.3356 45.7045 68.7305 45.7045C69.2589 45.7045 69.695 45.5767 70.0387 45.321C70.3825 45.0653 70.5543 44.6648 70.5543 44.1193V42.7898H70.4691C70.3952 42.9091 70.2901 43.0568 70.1538 43.233C70.0202 43.4062 69.8271 43.5611 69.5742 43.6974C69.3242 43.831 68.9862 43.8977 68.56 43.8977C68.0316 43.8977 67.5572 43.7727 67.1367 43.5227C66.7191 43.2727 66.3881 42.9091 66.1438 42.4318C65.9023 41.9545 65.7816 41.375 65.7816 40.6932C65.7816 40.0227 65.8995 39.4389 66.1353 38.9418C66.3711 38.4418 66.6992 38.0554 67.1197 37.7827C67.5401 37.5071 68.0259 37.3693 68.5771 37.3693C69.0032 37.3693 69.3413 37.4403 69.5913 37.5824C69.8441 37.7216 70.0373 37.8807 70.1708 38.0597C70.3072 38.2358 70.4123 38.3807 70.4862 38.4943H70.5884V37.4545H71.56V44.1875C71.56 44.75 71.4322 45.2074 71.1765 45.5597C70.9237 45.9148 70.5827 46.1747 70.1538 46.3395C69.7276 46.5071 69.2532 46.5909 68.7305 46.5909ZM68.6964 42.9943C69.0998 42.9943 69.4407 42.902 69.7191 42.7173C69.9975 42.5327 70.2092 42.267 70.354 41.9205C70.4989 41.5739 70.5714 41.1591 70.5714 40.6761C70.5714 40.2045 70.5004 39.7884 70.3583 39.4276C70.2163 39.0668 70.006 38.7841 69.7276 38.5795C69.4492 38.375 69.1055 38.2727 68.6964 38.2727C68.2702 38.2727 67.9151 38.3807 67.631 38.5966C67.3498 38.8125 67.1381 39.1023 66.9961 39.4659C66.8569 39.8295 66.7873 40.233 66.7873 40.6761C66.7873 41.1307 66.8583 41.5327 67.0004 41.8821C67.1452 42.2287 67.3583 42.5014 67.6396 42.7003C67.9237 42.8963 68.2759 42.9943 68.6964 42.9943ZM74.1339 44.0682C73.9237 44.0682 73.7433 43.9929 73.5927 43.8423C73.4421 43.6918 73.3668 43.5114 73.3668 43.3011C73.3668 43.0909 73.4421 42.9105 73.5927 42.7599C73.7433 42.6094 73.9237 42.5341 74.1339 42.5341C74.3441 42.5341 74.5245 42.6094 74.6751 42.7599C74.8256 42.9105 74.9009 43.0909 74.9009 43.3011C74.9009 43.4403 74.8654 43.5682 74.7944 43.6847C74.7262 43.8011 74.6339 43.8949 74.5174 43.9659C74.4038 44.0341 74.2759 44.0682 74.1339 44.0682ZM74.1339 39.2102C73.9237 39.2102 73.7433 39.1349 73.5927 38.9844C73.4421 38.8338 73.3668 38.6534 73.3668 38.4432C73.3668 38.233 73.4421 38.0526 73.5927 37.902C73.7433 37.7514 73.9237 37.6761 74.1339 37.6761C74.3441 37.6761 74.5245 37.7514 74.6751 37.902C74.8256 38.0526 74.9009 38.233 74.9009 38.4432C74.9009 38.5824 74.8654 38.7102 74.7944 38.8267C74.7262 38.9432 74.6339 39.0369 74.5174 39.108C74.4038 39.1761 74.2759 39.2102 74.1339 39.2102Z" fill="black"/>
<path d="M84.0016 44.1193C83.4164 44.1193 82.8993 44.0156 82.4505 43.8082C82.0044 43.598 81.6564 43.3097 81.4064 42.9432C81.1564 42.5739 81.0328 42.1534 81.0357 41.6818C81.0328 41.3125 81.1053 40.9716 81.253 40.6591C81.4007 40.3437 81.6025 40.081 81.8581 39.8707C82.1167 39.6577 82.405 39.5227 82.7232 39.4659V39.4148C82.3056 39.3068 81.9732 39.0724 81.726 38.7116C81.4789 38.348 81.3567 37.9347 81.3596 37.4716C81.3567 37.0284 81.4689 36.6321 81.6962 36.2827C81.9235 35.9332 82.236 35.6577 82.6337 35.456C83.0343 35.2543 83.4902 35.1534 84.0016 35.1534C84.5073 35.1534 84.959 35.2543 85.3567 35.456C85.7544 35.6577 86.0669 35.9332 86.2942 36.2827C86.5243 36.6321 86.6408 37.0284 86.6436 37.4716C86.6408 37.9347 86.5144 38.348 86.2644 38.7116C86.0172 39.0724 85.6891 39.3068 85.28 39.4148V39.4659C85.5953 39.5227 85.8794 39.6577 86.1323 39.8707C86.3851 40.081 86.5868 40.3437 86.7374 40.6591C86.888 40.9716 86.9647 41.3125 86.9675 41.6818C86.9647 42.1534 86.8368 42.5739 86.584 42.9432C86.334 43.3097 85.986 43.598 85.54 43.8082C85.0968 44.0156 84.584 44.1193 84.0016 44.1193ZM84.0016 43.1818C84.3965 43.1818 84.7374 43.1179 85.0243 42.9901C85.3113 42.8622 85.5328 42.6818 85.6891 42.4489C85.8453 42.2159 85.9249 41.9432 85.9277 41.6307C85.9249 41.3011 85.8397 41.0099 85.6721 40.7571C85.5044 40.5043 85.2757 40.3054 84.986 40.1605C84.699 40.0156 84.3709 39.9432 84.0016 39.9432C83.6294 39.9432 83.2971 40.0156 83.0044 40.1605C82.7147 40.3054 82.486 40.5043 82.3184 40.7571C82.1536 41.0099 82.0726 41.3011 82.0755 41.6307C82.0726 41.9432 82.1479 42.2159 82.3013 42.4489C82.4576 42.6818 82.6806 42.8622 82.9703 42.9901C83.2601 43.1179 83.6039 43.1818 84.0016 43.1818ZM84.0016 39.0398C84.3141 39.0398 84.5911 38.9773 84.8326 38.8523C85.0769 38.7273 85.2686 38.5526 85.4078 38.3281C85.5471 38.1037 85.6181 37.8409 85.6209 37.5398C85.6181 37.2443 85.5485 36.9872 85.4121 36.7685C85.2757 36.5469 85.0868 36.3764 84.8453 36.2571C84.6039 36.1349 84.3226 36.0739 84.0016 36.0739C83.6749 36.0739 83.3894 36.1349 83.1451 36.2571C82.9007 36.3764 82.7118 36.5469 82.5783 36.7685C82.4448 36.9872 82.3794 37.2443 82.3823 37.5398C82.3794 37.8409 82.4462 38.1037 82.5826 38.3281C82.7218 38.5526 82.9135 38.7273 83.1578 38.8523C83.4022 38.9773 83.6834 39.0398 84.0016 39.0398Z" fill="black"/>
</g>
<g clip-path="url(#clip7_5820_14748)">
<path d="M1.05682 71V62.2727H4.00568C4.69034 62.2727 5.25 62.3963 5.68466 62.6435C6.12216 62.8878 6.44602 63.2188 6.65625 63.6364C6.86648 64.054 6.97159 64.5199 6.97159 65.0341C6.97159 65.5483 6.86648 66.0156 6.65625 66.4361C6.44886 66.8565 6.12784 67.1918 5.69318 67.4418C5.25852 67.6889 4.7017 67.8125 4.02273 67.8125H1.90909V66.875H3.98864C4.45739 66.875 4.83381 66.794 5.1179 66.6321C5.40199 66.4702 5.60795 66.2514 5.7358 65.9759C5.86648 65.6974 5.93182 65.3835 5.93182 65.0341C5.93182 64.6847 5.86648 64.3722 5.7358 64.0966C5.60795 63.821 5.40057 63.6051 5.11364 63.4489C4.8267 63.2898 4.44602 63.2102 3.97159 63.2102H2.11364V71H1.05682ZM10.4638 71.1534C10.049 71.1534 9.67259 71.0753 9.33452 70.919C8.99645 70.7599 8.72798 70.5312 8.52912 70.233C8.33026 69.9318 8.23082 69.5682 8.23082 69.142C8.23082 68.767 8.30469 68.4631 8.45241 68.2301C8.60014 67.9943 8.79759 67.8097 9.04474 67.6761C9.2919 67.5426 9.56463 67.4432 9.86293 67.3778C10.1641 67.3097 10.4666 67.2557 10.7706 67.2159C11.1683 67.1648 11.4908 67.1264 11.7379 67.1009C11.9879 67.0724 12.1697 67.0256 12.2834 66.9602C12.3999 66.8949 12.4581 66.7812 12.4581 66.6193V66.5852C12.4581 66.1648 12.343 65.8381 12.1129 65.6051C11.8857 65.3722 11.5405 65.2557 11.0774 65.2557C10.5973 65.2557 10.2209 65.3608 9.94815 65.571C9.67543 65.7812 9.48366 66.0057 9.37287 66.2443L8.41832 65.9034C8.58878 65.5057 8.81605 65.196 9.10014 64.9744C9.38707 64.75 9.69957 64.5937 10.0376 64.5057C10.3786 64.4148 10.7138 64.3693 11.0433 64.3693C11.2536 64.3693 11.495 64.3949 11.7678 64.446C12.0433 64.4943 12.3089 64.5952 12.5646 64.7486C12.8232 64.902 13.0376 65.1335 13.2081 65.4432C13.3786 65.7528 13.4638 66.1676 13.4638 66.6875V71H12.4581V70.1136H12.407C12.3388 70.2557 12.2251 70.4077 12.0661 70.5696C11.907 70.7315 11.6953 70.8693 11.4311 70.983C11.1669 71.0966 10.8445 71.1534 10.4638 71.1534ZM10.6172 70.25C11.0149 70.25 11.3501 70.1719 11.6229 70.0156C11.8984 69.8594 12.1058 69.6577 12.245 69.4105C12.3871 69.1634 12.4581 68.9034 12.4581 68.6307V67.7102C12.4155 67.7614 12.3217 67.8082 12.1768 67.8509C12.0348 67.8906 11.87 67.9261 11.6825 67.9574C11.4979 67.9858 11.3175 68.0114 11.1413 68.0341C10.968 68.054 10.8274 68.071 10.7195 68.0852C10.4581 68.1193 10.2138 68.1747 9.98651 68.2514C9.76207 68.3253 9.58026 68.4375 9.44105 68.5881C9.30469 68.7358 9.23651 68.9375 9.23651 69.1932C9.23651 69.5426 9.36577 69.8068 9.62429 69.9858C9.88565 70.1619 10.2166 70.25 10.6172 70.25ZM17.771 71.1364C17.2255 71.1364 16.744 70.9986 16.3263 70.723C15.9087 70.4446 15.582 70.0526 15.3462 69.5469C15.1104 69.0384 14.9925 68.4375 14.9925 67.7443C14.9925 67.0568 15.1104 66.4602 15.3462 65.9545C15.582 65.4489 15.9102 65.0582 16.3306 64.7827C16.7511 64.5071 17.2369 64.3693 17.788 64.3693C18.2141 64.3693 18.5508 64.4403 18.7979 64.5824C19.0479 64.7216 19.2383 64.8807 19.369 65.0597C19.5025 65.2358 19.6062 65.3807 19.68 65.4943H19.7653V62.2727H20.771V71H19.7994V69.9943H19.68C19.6062 70.1136 19.5011 70.2642 19.3647 70.446C19.2283 70.625 19.0337 70.7855 18.7809 70.9276C18.5281 71.0668 18.1914 71.1364 17.771 71.1364ZM17.9073 70.233C18.3107 70.233 18.6516 70.1278 18.93 69.9176C19.2085 69.7045 19.4201 69.4105 19.565 69.0355C19.7099 68.6577 19.7823 68.2216 19.7823 67.7273C19.7823 67.2386 19.7113 66.8111 19.5692 66.4446C19.4272 66.0753 19.217 65.7884 18.9386 65.5838C18.6602 65.3764 18.3164 65.2727 17.9073 65.2727C17.4812 65.2727 17.1261 65.3821 16.842 65.6009C16.5607 65.8168 16.3491 66.1108 16.207 66.483C16.0678 66.8523 15.9982 67.267 15.9982 67.7273C15.9982 68.1932 16.0692 68.6165 16.2113 68.9972C16.3562 69.375 16.5692 69.6761 16.8505 69.9006C17.1346 70.1222 17.4869 70.233 17.9073 70.233ZM25.2241 71.1364C24.6786 71.1364 24.1971 70.9986 23.7795 70.723C23.3619 70.4446 23.0352 70.0526 22.7994 69.5469C22.5636 69.0384 22.4457 68.4375 22.4457 67.7443C22.4457 67.0568 22.5636 66.4602 22.7994 65.9545C23.0352 65.4489 23.3633 65.0582 23.7837 64.7827C24.2042 64.5071 24.69 64.3693 25.2411 64.3693C25.6673 64.3693 26.0039 64.4403 26.2511 64.5824C26.5011 64.7216 26.6914 64.8807 26.8221 65.0597C26.9556 65.2358 27.0593 65.3807 27.1332 65.4943H27.2184V62.2727H28.2241V71H27.2525V69.9943H27.1332C27.0593 70.1136 26.9542 70.2642 26.8178 70.446C26.6815 70.625 26.4869 70.7855 26.234 70.9276C25.9812 71.0668 25.6445 71.1364 25.2241 71.1364ZM25.3604 70.233C25.7638 70.233 26.1048 70.1278 26.3832 69.9176C26.6616 69.7045 26.8732 69.4105 27.0181 69.0355C27.163 68.6577 27.2354 68.2216 27.2354 67.7273C27.2354 67.2386 27.1644 66.8111 27.0224 66.4446C26.8803 66.0753 26.6701 65.7884 26.3917 65.5838C26.1133 65.3764 25.7695 65.2727 25.3604 65.2727C24.9343 65.2727 24.5792 65.3821 24.2951 65.6009C24.0138 65.8168 23.8022 66.1108 23.6602 66.483C23.521 66.8523 23.4513 67.267 23.4513 67.7273C23.4513 68.1932 23.5224 68.6165 23.6644 68.9972C23.8093 69.375 24.0224 69.6761 24.3036 69.9006C24.5877 70.1222 24.94 70.233 25.3604 70.233ZM30.2056 71V64.4545H31.2113V71H30.2056ZM30.717 63.3636C30.521 63.3636 30.3519 63.2969 30.2099 63.1634C30.0707 63.0298 30.0011 62.8693 30.0011 62.6818C30.0011 62.4943 30.0707 62.3338 30.2099 62.2003C30.3519 62.0668 30.521 62 30.717 62C30.913 62 31.0806 62.0668 31.2198 62.2003C31.3619 62.3338 31.4329 62.4943 31.4329 62.6818C31.4329 62.8693 31.3619 63.0298 31.2198 63.1634C31.0806 63.2969 30.913 63.3636 30.717 63.3636ZM34.0589 67.0625V71H33.0533V64.4545H34.0249V65.4773H34.1101C34.2635 65.1449 34.4964 64.8778 34.8089 64.6761C35.1214 64.4716 35.5249 64.3693 36.0192 64.3693C36.4624 64.3693 36.8501 64.4602 37.1825 64.642C37.5149 64.821 37.7734 65.0938 37.9581 65.4602C38.1428 65.8239 38.2351 66.2841 38.2351 66.8409V71H37.2294V66.9091C37.2294 66.3949 37.0959 65.9943 36.8288 65.7074C36.5618 65.4176 36.1953 65.2727 35.7294 65.2727C35.4084 65.2727 35.1214 65.3423 34.8686 65.4815C34.6186 65.6207 34.4212 65.8239 34.2763 66.0909C34.1314 66.358 34.0589 66.6818 34.0589 67.0625ZM42.7148 73.5909C42.229 73.5909 41.8114 73.5284 41.462 73.4034C41.1126 73.2812 40.8214 73.1193 40.5884 72.9176C40.3583 72.7188 40.1751 72.5057 40.0387 72.2784L40.8398 71.7159C40.9308 71.8352 41.0458 71.9716 41.185 72.125C41.3242 72.2812 41.5146 72.4162 41.756 72.5298C42.0004 72.6463 42.32 72.7045 42.7148 72.7045C43.2433 72.7045 43.6793 72.5767 44.0231 72.321C44.3668 72.0653 44.5387 71.6648 44.5387 71.1193V69.7898H44.4535C44.3796 69.9091 44.2745 70.0568 44.1381 70.233C44.0046 70.4062 43.8114 70.5611 43.5586 70.6974C43.3086 70.831 42.9705 70.8977 42.5444 70.8977C42.016 70.8977 41.5415 70.7727 41.1211 70.5227C40.7035 70.2727 40.3725 69.9091 40.1282 69.4318C39.8867 68.9545 39.766 68.375 39.766 67.6932C39.766 67.0227 39.8839 66.4389 40.1197 65.9418C40.3555 65.4418 40.6836 65.0554 41.104 64.7827C41.5245 64.5071 42.0103 64.3693 42.5614 64.3693C42.9876 64.3693 43.3256 64.4403 43.5756 64.5824C43.8285 64.7216 44.0217 64.8807 44.1552 65.0597C44.2915 65.2358 44.3967 65.3807 44.4705 65.4943H44.5728V64.4545H45.5444V71.1875C45.5444 71.75 45.4165 72.2074 45.1609 72.5597C44.908 72.9148 44.5671 73.1747 44.1381 73.3395C43.712 73.5071 43.2376 73.5909 42.7148 73.5909ZM42.6808 69.9943C43.0842 69.9943 43.4251 69.902 43.7035 69.7173C43.9819 69.5327 44.1935 69.267 44.3384 68.9205C44.4833 68.5739 44.5558 68.1591 44.5558 67.6761C44.5558 67.2045 44.4847 66.7884 44.3427 66.4276C44.2006 66.0668 43.9904 65.7841 43.712 65.5795C43.4336 65.375 43.0898 65.2727 42.6808 65.2727C42.2546 65.2727 41.8995 65.3807 41.6154 65.5966C41.3342 65.8125 41.1225 66.1023 40.9805 66.4659C40.8413 66.8295 40.7717 67.233 40.7717 67.6761C40.7717 68.1307 40.8427 68.5327 40.9847 68.8821C41.1296 69.2287 41.3427 69.5014 41.6239 69.7003C41.908 69.8963 42.2603 69.9943 42.6808 69.9943ZM53.6069 64.4545V65.3068H50.2148V64.4545H53.6069ZM51.2035 62.8864H52.2092V69.125C52.2092 69.4091 52.2504 69.6222 52.3327 69.7642C52.418 69.9034 52.5259 69.9972 52.6566 70.0455C52.7901 70.0909 52.9308 70.1136 53.0785 70.1136C53.1893 70.1136 53.2802 70.108 53.3512 70.0966C53.4222 70.0824 53.479 70.071 53.5217 70.0625L53.7262 70.9659C53.658 70.9915 53.5629 71.017 53.4407 71.0426C53.3185 71.071 53.1637 71.0852 52.9762 71.0852C52.6921 71.0852 52.4137 71.0241 52.141 70.902C51.8711 70.7798 51.6467 70.5938 51.4677 70.3438C51.2915 70.0938 51.2035 69.7784 51.2035 69.3977V62.8864ZM57.7085 71.1364C57.1175 71.1364 56.5991 70.9957 56.1531 70.7145C55.7099 70.4332 55.3633 70.0398 55.1133 69.5341C54.8661 69.0284 54.7425 68.4375 54.7425 67.7614C54.7425 67.0795 54.8661 66.4844 55.1133 65.9759C55.3633 65.4673 55.7099 65.0724 56.1531 64.7912C56.5991 64.5099 57.1175 64.3693 57.7085 64.3693C58.2994 64.3693 58.8164 64.5099 59.2596 64.7912C59.7056 65.0724 60.0522 65.4673 60.2994 65.9759C60.5494 66.4844 60.6744 67.0795 60.6744 67.7614C60.6744 68.4375 60.5494 69.0284 60.2994 69.5341C60.0522 70.0398 59.7056 70.4332 59.2596 70.7145C58.8164 70.9957 58.2994 71.1364 57.7085 71.1364ZM57.7085 70.233C58.1573 70.233 58.5266 70.1179 58.8164 69.8878C59.1062 69.6577 59.3207 69.3551 59.4599 68.9801C59.5991 68.6051 59.6687 68.1989 59.6687 67.7614C59.6687 67.3239 59.5991 66.9162 59.4599 66.5384C59.3207 66.1605 59.1062 65.8551 58.8164 65.6222C58.5266 65.3892 58.1573 65.2727 57.7085 65.2727C57.2596 65.2727 56.8903 65.3892 56.6005 65.6222C56.3107 65.8551 56.0962 66.1605 55.957 66.5384C55.8178 66.9162 55.7482 67.3239 55.7482 67.7614C55.7482 68.1989 55.8178 68.6051 55.957 68.9801C56.0962 69.3551 56.3107 69.6577 56.6005 69.8878C56.8903 70.1179 57.2596 70.233 57.7085 70.233ZM62.2095 73.4545V64.4545H63.1811V65.4943H63.3004C63.3743 65.3807 63.4766 65.2358 63.6072 65.0597C63.7408 64.8807 63.9311 64.7216 64.1783 64.5824C64.4283 64.4403 64.7663 64.3693 65.1925 64.3693C65.7436 64.3693 66.2294 64.5071 66.6499 64.7827C67.0703 65.0582 67.3984 65.4489 67.6342 65.9545C67.87 66.4602 67.9879 67.0568 67.9879 67.7443C67.9879 68.4375 67.87 69.0384 67.6342 69.5469C67.3984 70.0526 67.0717 70.4446 66.6541 70.723C66.2365 70.9986 65.755 71.1364 65.2095 71.1364C64.7891 71.1364 64.4524 71.0668 64.1996 70.9276C63.9467 70.7855 63.7521 70.625 63.6158 70.446C63.4794 70.2642 63.3743 70.1136 63.3004 69.9943H63.2152V73.4545H62.2095ZM63.1982 67.7273C63.1982 68.2216 63.2706 68.6577 63.4155 69.0355C63.5604 69.4105 63.772 69.7045 64.0504 69.9176C64.3288 70.1278 64.6697 70.233 65.0732 70.233C65.4936 70.233 65.8445 70.1222 66.1257 69.9006C66.4098 69.6761 66.6229 69.375 66.7649 68.9972C66.9098 68.6165 66.9822 68.1932 66.9822 67.7273C66.9822 67.267 66.9112 66.8523 66.7692 66.483C66.63 66.1108 66.4183 65.8168 66.1342 65.6009C65.853 65.3821 65.4993 65.2727 65.0732 65.2727C64.6641 65.2727 64.3203 65.3764 64.0419 65.5838C63.7635 65.7884 63.5533 66.0753 63.4112 66.4446C63.2692 66.8111 63.1982 67.2386 63.1982 67.7273ZM70.255 71.0682C70.0447 71.0682 69.8643 70.9929 69.7138 70.8423C69.5632 70.6918 69.4879 70.5114 69.4879 70.3011C69.4879 70.0909 69.5632 69.9105 69.7138 69.7599C69.8643 69.6094 70.0447 69.5341 70.255 69.5341C70.4652 69.5341 70.6456 69.6094 70.7962 69.7599C70.9467 69.9105 71.022 70.0909 71.022 70.3011C71.022 70.4403 70.9865 70.5682 70.9155 70.6847C70.8473 70.8011 70.755 70.8949 70.6385 70.9659C70.5249 71.0341 70.397 71.0682 70.255 71.0682ZM70.255 66.2102C70.0447 66.2102 69.8643 66.1349 69.7138 65.9844C69.5632 65.8338 69.4879 65.6534 69.4879 65.4432C69.4879 65.233 69.5632 65.0526 69.7138 64.902C69.8643 64.7514 70.0447 64.6761 70.255 64.6761C70.4652 64.6761 70.6456 64.7514 70.7962 64.902C70.9467 65.0526 71.022 65.233 71.022 65.4432C71.022 65.5824 70.9865 65.7102 70.9155 65.8267C70.8473 65.9432 70.755 66.0369 70.6385 66.108C70.5249 66.1761 70.397 66.2102 70.255 66.2102Z" fill="black"/>
<path d="M80.0497 62.2727V71H78.9929V63.3807H78.9418L76.8111 64.7955V63.7216L78.9929 62.2727H80.0497ZM82.5597 71V70.233L85.4403 67.0795C85.7784 66.7102 86.0568 66.3892 86.2756 66.1165C86.4943 65.8409 86.6563 65.5824 86.7614 65.3409C86.8693 65.0966 86.9233 64.8409 86.9233 64.5739C86.9233 64.267 86.8494 64.0014 86.7017 63.777C86.5568 63.5526 86.358 63.3793 86.1051 63.2571C85.8523 63.1349 85.5682 63.0739 85.2528 63.0739C84.9176 63.0739 84.625 63.1435 84.375 63.2827C84.1278 63.419 83.9361 63.6108 83.7997 63.858C83.6662 64.1051 83.5994 64.3949 83.5994 64.7273H82.5938C82.5938 64.2159 82.7116 63.767 82.9474 63.3807C83.1832 62.9943 83.5043 62.6932 83.9105 62.4773C84.3196 62.2614 84.7784 62.1534 85.2869 62.1534C85.7983 62.1534 86.2514 62.2614 86.6463 62.4773C87.0412 62.6932 87.3509 62.9844 87.5753 63.3509C87.7997 63.7173 87.9119 64.125 87.9119 64.5739C87.9119 64.8949 87.8537 65.2088 87.7372 65.5156C87.6236 65.8196 87.4247 66.1591 87.1406 66.5341C86.8594 66.9062 86.4688 67.3608 85.9688 67.8977L84.0085 69.9943V70.0625H88.0653V71H82.5597Z" fill="black"/>
</g>
<g clip-path="url(#clip8_5820_14748)">
<path d="M1.05682 98V89.2727H4.00568C4.69034 89.2727 5.25 89.3963 5.68466 89.6435C6.12216 89.8878 6.44602 90.2188 6.65625 90.6364C6.86648 91.054 6.97159 91.5199 6.97159 92.0341C6.97159 92.5483 6.86648 93.0156 6.65625 93.4361C6.44886 93.8565 6.12784 94.1918 5.69318 94.4418C5.25852 94.6889 4.7017 94.8125 4.02273 94.8125H1.90909V93.875H3.98864C4.45739 93.875 4.83381 93.794 5.1179 93.6321C5.40199 93.4702 5.60795 93.2514 5.7358 92.9759C5.86648 92.6974 5.93182 92.3835 5.93182 92.0341C5.93182 91.6847 5.86648 91.3722 5.7358 91.0966C5.60795 90.821 5.40057 90.6051 5.11364 90.4489C4.8267 90.2898 4.44602 90.2102 3.97159 90.2102H2.11364V98H1.05682ZM10.4638 98.1534C10.049 98.1534 9.67259 98.0753 9.33452 97.919C8.99645 97.7599 8.72798 97.5312 8.52912 97.233C8.33026 96.9318 8.23082 96.5682 8.23082 96.142C8.23082 95.767 8.30469 95.4631 8.45241 95.2301C8.60014 94.9943 8.79759 94.8097 9.04474 94.6761C9.2919 94.5426 9.56463 94.4432 9.86293 94.3778C10.1641 94.3097 10.4666 94.2557 10.7706 94.2159C11.1683 94.1648 11.4908 94.1264 11.7379 94.1009C11.9879 94.0724 12.1697 94.0256 12.2834 93.9602C12.3999 93.8949 12.4581 93.7812 12.4581 93.6193V93.5852C12.4581 93.1648 12.343 92.8381 12.1129 92.6051C11.8857 92.3722 11.5405 92.2557 11.0774 92.2557C10.5973 92.2557 10.2209 92.3608 9.94815 92.571C9.67543 92.7812 9.48366 93.0057 9.37287 93.2443L8.41832 92.9034C8.58878 92.5057 8.81605 92.196 9.10014 91.9744C9.38707 91.75 9.69957 91.5937 10.0376 91.5057C10.3786 91.4148 10.7138 91.3693 11.0433 91.3693C11.2536 91.3693 11.495 91.3949 11.7678 91.446C12.0433 91.4943 12.3089 91.5952 12.5646 91.7486C12.8232 91.902 13.0376 92.1335 13.2081 92.4432C13.3786 92.7528 13.4638 93.1676 13.4638 93.6875V98H12.4581V97.1136H12.407C12.3388 97.2557 12.2251 97.4077 12.0661 97.5696C11.907 97.7315 11.6953 97.8693 11.4311 97.983C11.1669 98.0966 10.8445 98.1534 10.4638 98.1534ZM10.6172 97.25C11.0149 97.25 11.3501 97.1719 11.6229 97.0156C11.8984 96.8594 12.1058 96.6577 12.245 96.4105C12.3871 96.1634 12.4581 95.9034 12.4581 95.6307V94.7102C12.4155 94.7614 12.3217 94.8082 12.1768 94.8509C12.0348 94.8906 11.87 94.9261 11.6825 94.9574C11.4979 94.9858 11.3175 95.0114 11.1413 95.0341C10.968 95.054 10.8274 95.071 10.7195 95.0852C10.4581 95.1193 10.2138 95.1747 9.98651 95.2514C9.76207 95.3253 9.58026 95.4375 9.44105 95.5881C9.30469 95.7358 9.23651 95.9375 9.23651 96.1932C9.23651 96.5426 9.36577 96.8068 9.62429 96.9858C9.88565 97.1619 10.2166 97.25 10.6172 97.25ZM17.771 98.1364C17.2255 98.1364 16.744 97.9986 16.3263 97.723C15.9087 97.4446 15.582 97.0526 15.3462 96.5469C15.1104 96.0384 14.9925 95.4375 14.9925 94.7443C14.9925 94.0568 15.1104 93.4602 15.3462 92.9545C15.582 92.4489 15.9102 92.0582 16.3306 91.7827C16.7511 91.5071 17.2369 91.3693 17.788 91.3693C18.2141 91.3693 18.5508 91.4403 18.7979 91.5824C19.0479 91.7216 19.2383 91.8807 19.369 92.0597C19.5025 92.2358 19.6062 92.3807 19.68 92.4943H19.7653V89.2727H20.771V98H19.7994V96.9943H19.68C19.6062 97.1136 19.5011 97.2642 19.3647 97.446C19.2283 97.625 19.0337 97.7855 18.7809 97.9276C18.5281 98.0668 18.1914 98.1364 17.771 98.1364ZM17.9073 97.233C18.3107 97.233 18.6516 97.1278 18.93 96.9176C19.2085 96.7045 19.4201 96.4105 19.565 96.0355C19.7099 95.6577 19.7823 95.2216 19.7823 94.7273C19.7823 94.2386 19.7113 93.8111 19.5692 93.4446C19.4272 93.0753 19.217 92.7884 18.9386 92.5838C18.6602 92.3764 18.3164 92.2727 17.9073 92.2727C17.4812 92.2727 17.1261 92.3821 16.842 92.6009C16.5607 92.8168 16.3491 93.1108 16.207 93.483C16.0678 93.8523 15.9982 94.267 15.9982 94.7273C15.9982 95.1932 16.0692 95.6165 16.2113 95.9972C16.3562 96.375 16.5692 96.6761 16.8505 96.9006C17.1346 97.1222 17.4869 97.233 17.9073 97.233ZM25.2241 98.1364C24.6786 98.1364 24.1971 97.9986 23.7795 97.723C23.3619 97.4446 23.0352 97.0526 22.7994 96.5469C22.5636 96.0384 22.4457 95.4375 22.4457 94.7443C22.4457 94.0568 22.5636 93.4602 22.7994 92.9545C23.0352 92.4489 23.3633 92.0582 23.7837 91.7827C24.2042 91.5071 24.69 91.3693 25.2411 91.3693C25.6673 91.3693 26.0039 91.4403 26.2511 91.5824C26.5011 91.7216 26.6914 91.8807 26.8221 92.0597C26.9556 92.2358 27.0593 92.3807 27.1332 92.4943H27.2184V89.2727H28.2241V98H27.2525V96.9943H27.1332C27.0593 97.1136 26.9542 97.2642 26.8178 97.446C26.6815 97.625 26.4869 97.7855 26.234 97.9276C25.9812 98.0668 25.6445 98.1364 25.2241 98.1364ZM25.3604 97.233C25.7638 97.233 26.1048 97.1278 26.3832 96.9176C26.6616 96.7045 26.8732 96.4105 27.0181 96.0355C27.163 95.6577 27.2354 95.2216 27.2354 94.7273C27.2354 94.2386 27.1644 93.8111 27.0224 93.4446C26.8803 93.0753 26.6701 92.7884 26.3917 92.5838C26.1133 92.3764 25.7695 92.2727 25.3604 92.2727C24.9343 92.2727 24.5792 92.3821 24.2951 92.6009C24.0138 92.8168 23.8022 93.1108 23.6602 93.483C23.521 93.8523 23.4513 94.267 23.4513 94.7273C23.4513 95.1932 23.5224 95.6165 23.6644 95.9972C23.8093 96.375 24.0224 96.6761 24.3036 96.9006C24.5877 97.1222 24.94 97.233 25.3604 97.233ZM30.2056 98V91.4545H31.2113V98H30.2056ZM30.717 90.3636C30.521 90.3636 30.3519 90.2969 30.2099 90.1634C30.0707 90.0298 30.0011 89.8693 30.0011 89.6818C30.0011 89.4943 30.0707 89.3338 30.2099 89.2003C30.3519 89.0668 30.521 89 30.717 89C30.913 89 31.0806 89.0668 31.2198 89.2003C31.3619 89.3338 31.4329 89.4943 31.4329 89.6818C31.4329 89.8693 31.3619 90.0298 31.2198 90.1634C31.0806 90.2969 30.913 90.3636 30.717 90.3636ZM34.0589 94.0625V98H33.0533V91.4545H34.0249V92.4773H34.1101C34.2635 92.1449 34.4964 91.8778 34.8089 91.6761C35.1214 91.4716 35.5249 91.3693 36.0192 91.3693C36.4624 91.3693 36.8501 91.4602 37.1825 91.642C37.5149 91.821 37.7734 92.0938 37.9581 92.4602C38.1428 92.8239 38.2351 93.2841 38.2351 93.8409V98H37.2294V93.9091C37.2294 93.3949 37.0959 92.9943 36.8288 92.7074C36.5618 92.4176 36.1953 92.2727 35.7294 92.2727C35.4084 92.2727 35.1214 92.3423 34.8686 92.4815C34.6186 92.6207 34.4212 92.8239 34.2763 93.0909C34.1314 93.358 34.0589 93.6818 34.0589 94.0625ZM42.7148 100.591C42.229 100.591 41.8114 100.528 41.462 100.403C41.1126 100.281 40.8214 100.119 40.5884 99.9176C40.3583 99.7188 40.1751 99.5057 40.0387 99.2784L40.8398 98.7159C40.9308 98.8352 41.0458 98.9716 41.185 99.125C41.3242 99.2812 41.5146 99.4162 41.756 99.5298C42.0004 99.6463 42.32 99.7045 42.7148 99.7045C43.2433 99.7045 43.6793 99.5767 44.0231 99.321C44.3668 99.0653 44.5387 98.6648 44.5387 98.1193V96.7898H44.4535C44.3796 96.9091 44.2745 97.0568 44.1381 97.233C44.0046 97.4062 43.8114 97.5611 43.5586 97.6974C43.3086 97.831 42.9705 97.8977 42.5444 97.8977C42.016 97.8977 41.5415 97.7727 41.1211 97.5227C40.7035 97.2727 40.3725 96.9091 40.1282 96.4318C39.8867 95.9545 39.766 95.375 39.766 94.6932C39.766 94.0227 39.8839 93.4389 40.1197 92.9418C40.3555 92.4418 40.6836 92.0554 41.104 91.7827C41.5245 91.5071 42.0103 91.3693 42.5614 91.3693C42.9876 91.3693 43.3256 91.4403 43.5756 91.5824C43.8285 91.7216 44.0217 91.8807 44.1552 92.0597C44.2915 92.2358 44.3967 92.3807 44.4705 92.4943H44.5728V91.4545H45.5444V98.1875C45.5444 98.75 45.4165 99.2074 45.1609 99.5597C44.908 99.9148 44.5671 100.175 44.1381 100.339C43.712 100.507 43.2376 100.591 42.7148 100.591ZM42.6808 96.9943C43.0842 96.9943 43.4251 96.902 43.7035 96.7173C43.9819 96.5327 44.1935 96.267 44.3384 95.9205C44.4833 95.5739 44.5558 95.1591 44.5558 94.6761C44.5558 94.2045 44.4847 93.7884 44.3427 93.4276C44.2006 93.0668 43.9904 92.7841 43.712 92.5795C43.4336 92.375 43.0898 92.2727 42.6808 92.2727C42.2546 92.2727 41.8995 92.3807 41.6154 92.5966C41.3342 92.8125 41.1225 93.1023 40.9805 93.4659C40.8413 93.8295 40.7717 94.233 40.7717 94.6761C40.7717 95.1307 40.8427 95.5327 40.9847 95.8821C41.1296 96.2287 41.3427 96.5014 41.6239 96.7003C41.908 96.8963 42.2603 96.9943 42.6808 96.9943ZM50.8967 98V89.2727H51.9023V92.4943H51.9876C52.0614 92.3807 52.1637 92.2358 52.2944 92.0597C52.4279 91.8807 52.6183 91.7216 52.8654 91.5824C53.1154 91.4403 53.4535 91.3693 53.8796 91.3693C54.4308 91.3693 54.9165 91.5071 55.337 91.7827C55.7575 92.0582 56.0856 92.4489 56.3214 92.9545C56.5572 93.4602 56.6751 94.0568 56.6751 94.7443C56.6751 95.4375 56.5572 96.0384 56.3214 96.5469C56.0856 97.0526 55.7589 97.4446 55.3413 97.723C54.9237 97.9986 54.4421 98.1364 53.8967 98.1364C53.4762 98.1364 53.1396 98.0668 52.8867 97.9276C52.6339 97.7855 52.4393 97.625 52.3029 97.446C52.1665 97.2642 52.0614 97.1136 51.9876 96.9943H51.8683V98H50.8967ZM51.8853 94.7273C51.8853 95.2216 51.9577 95.6577 52.1026 96.0355C52.2475 96.4105 52.4592 96.7045 52.7376 96.9176C53.016 97.1278 53.3569 97.233 53.7603 97.233C54.1808 97.233 54.5316 97.1222 54.8129 96.9006C55.0969 96.6761 55.31 96.375 55.4521 95.9972C55.5969 95.6165 55.6694 95.1932 55.6694 94.7273C55.6694 94.267 55.5984 93.8523 55.4563 93.483C55.3171 93.1108 55.1055 92.8168 54.8214 92.6009C54.5401 92.3821 54.1864 92.2727 53.7603 92.2727C53.3512 92.2727 53.0075 92.3764 52.729 92.5838C52.4506 92.7884 52.2404 93.0753 52.0984 93.4446C51.9563 93.8111 51.8853 94.2386 51.8853 94.7273ZM60.8725 98.1364C60.2816 98.1364 59.7631 97.9957 59.3171 97.7145C58.8739 97.4332 58.5273 97.0398 58.2773 96.5341C58.0302 96.0284 57.9066 95.4375 57.9066 94.7614C57.9066 94.0795 58.0302 93.4844 58.2773 92.9759C58.5273 92.4673 58.8739 92.0724 59.3171 91.7912C59.7631 91.5099 60.2816 91.3693 60.8725 91.3693C61.4634 91.3693 61.9805 91.5099 62.4237 91.7912C62.8697 92.0724 63.2163 92.4673 63.4634 92.9759C63.7134 93.4844 63.8384 94.0795 63.8384 94.7614C63.8384 95.4375 63.7134 96.0284 63.4634 96.5341C63.2163 97.0398 62.8697 97.4332 62.4237 97.7145C61.9805 97.9957 61.4634 98.1364 60.8725 98.1364ZM60.8725 97.233C61.3214 97.233 61.6907 97.1179 61.9805 96.8878C62.2702 96.6577 62.4847 96.3551 62.6239 95.9801C62.7631 95.6051 62.8327 95.1989 62.8327 94.7614C62.8327 94.3239 62.7631 93.9162 62.6239 93.5384C62.4847 93.1605 62.2702 92.8551 61.9805 92.6222C61.6907 92.3892 61.3214 92.2727 60.8725 92.2727C60.4237 92.2727 60.0543 92.3892 59.7646 92.6222C59.4748 92.8551 59.2603 93.1605 59.1211 93.5384C58.9819 93.9162 58.9123 94.3239 58.9123 94.7614C58.9123 95.1989 58.9819 95.6051 59.1211 95.9801C59.2603 96.3551 59.4748 96.6577 59.7646 96.8878C60.0543 97.1179 60.4237 97.233 60.8725 97.233ZM68.2202 91.4545V92.3068H64.8281V91.4545H68.2202ZM65.8168 89.8864H66.8224V96.125C66.8224 96.4091 66.8636 96.6222 66.946 96.7642C67.0313 96.9034 67.1392 96.9972 67.2699 97.0455C67.4034 97.0909 67.544 97.1136 67.6918 97.1136C67.8026 97.1136 67.8935 97.108 67.9645 97.0966C68.0355 97.0824 68.0923 97.071 68.1349 97.0625L68.3395 97.9659C68.2713 97.9915 68.1761 98.017 68.054 98.0426C67.9318 98.071 67.777 98.0852 67.5895 98.0852C67.3054 98.0852 67.027 98.0241 66.7543 97.902C66.4844 97.7798 66.2599 97.5938 66.081 97.3438C65.9048 97.0938 65.8168 96.7784 65.8168 96.3977V89.8864ZM72.5795 91.4545V92.3068H69.1875V91.4545H72.5795ZM70.1761 89.8864H71.1818V96.125C71.1818 96.4091 71.223 96.6222 71.3054 96.7642C71.3906 96.9034 71.4986 96.9972 71.6293 97.0455C71.7628 97.0909 71.9034 97.1136 72.0511 97.1136C72.1619 97.1136 72.2528 97.108 72.3239 97.0966C72.3949 97.0824 72.4517 97.071 72.4943 97.0625L72.6989 97.9659C72.6307 97.9915 72.5355 98.017 72.4134 98.0426C72.2912 98.071 72.1364 98.0852 71.9489 98.0852C71.6648 98.0852 71.3864 98.0241 71.1136 97.902C70.8438 97.7798 70.6193 97.5938 70.4403 97.3438C70.2642 97.0938 70.1761 96.7784 70.1761 96.3977V89.8864ZM76.6811 98.1364C76.0902 98.1364 75.5717 97.9957 75.1257 97.7145C74.6825 97.4332 74.3359 97.0398 74.0859 96.5341C73.8388 96.0284 73.7152 95.4375 73.7152 94.7614C73.7152 94.0795 73.8388 93.4844 74.0859 92.9759C74.3359 92.4673 74.6825 92.0724 75.1257 91.7912C75.5717 91.5099 76.0902 91.3693 76.6811 91.3693C77.272 91.3693 77.7891 91.5099 78.2322 91.7912C78.6783 92.0724 79.0249 92.4673 79.272 92.9759C79.522 93.4844 79.647 94.0795 79.647 94.7614C79.647 95.4375 79.522 96.0284 79.272 96.5341C79.0249 97.0398 78.6783 97.4332 78.2322 97.7145C77.7891 97.9957 77.272 98.1364 76.6811 98.1364ZM76.6811 97.233C77.13 97.233 77.4993 97.1179 77.7891 96.8878C78.0788 96.6577 78.2933 96.3551 78.4325 95.9801C78.5717 95.6051 78.6413 95.1989 78.6413 94.7614C78.6413 94.3239 78.5717 93.9162 78.4325 93.5384C78.2933 93.1605 78.0788 92.8551 77.7891 92.6222C77.4993 92.3892 77.13 92.2727 76.6811 92.2727C76.2322 92.2727 75.8629 92.3892 75.5732 92.6222C75.2834 92.8551 75.0689 93.1605 74.9297 93.5384C74.7905 93.9162 74.7209 94.3239 74.7209 94.7614C74.7209 95.1989 74.7905 95.6051 74.9297 95.9801C75.0689 96.3551 75.2834 96.6577 75.5732 96.8878C75.8629 97.1179 76.2322 97.233 76.6811 97.233ZM81.1822 98V91.4545H82.1538V92.4773H82.239C82.3754 92.1278 82.5955 91.8565 82.8995 91.6634C83.2035 91.4673 83.5685 91.3693 83.9947 91.3693C84.4265 91.3693 84.7859 91.4673 85.0728 91.6634C85.3626 91.8565 85.5884 92.1278 85.7504 92.4773H85.8185C85.9862 92.1392 86.2376 91.8707 86.5728 91.6719C86.908 91.4702 87.31 91.3693 87.7788 91.3693C88.364 91.3693 88.8427 91.5526 89.2148 91.919C89.587 92.2827 89.7731 92.8494 89.7731 93.6193V98H88.7674V93.6193C88.7674 93.1364 88.6353 92.7912 88.3711 92.5838C88.1069 92.3764 87.7958 92.2727 87.4379 92.2727C86.9776 92.2727 86.6211 92.4119 86.3683 92.6903C86.1154 92.9659 85.989 93.3153 85.989 93.7386V98H84.9663V93.517C84.9663 93.1449 84.8455 92.8452 84.604 92.6179C84.3626 92.3878 84.0515 92.2727 83.6708 92.2727C83.4094 92.2727 83.1651 92.3423 82.9379 92.4815C82.7134 92.6207 82.5316 92.8139 82.3924 93.0611C82.256 93.3054 82.1879 93.5881 82.1879 93.9091V98H81.1822ZM92.3448 98.0682C92.1346 98.0682 91.9542 97.9929 91.8036 97.8423C91.6531 97.6918 91.5778 97.5114 91.5778 97.3011C91.5778 97.0909 91.6531 96.9105 91.8036 96.7599C91.9542 96.6094 92.1346 96.5341 92.3448 96.5341C92.555 96.5341 92.7354 96.6094 92.886 96.7599C93.0366 96.9105 93.1119 97.0909 93.1119 97.3011C93.1119 97.4403 93.0763 97.5682 93.0053 97.6847C92.9371 97.8011 92.8448 97.8949 92.7283 97.9659C92.6147 98.0341 92.4869 98.0682 92.3448 98.0682ZM92.3448 93.2102C92.1346 93.2102 91.9542 93.1349 91.8036 92.9844C91.6531 92.8338 91.5778 92.6534 91.5778 92.4432C91.5778 92.233 91.6531 92.0526 91.8036 91.902C91.9542 91.7514 92.1346 91.6761 92.3448 91.6761C92.555 91.6761 92.7354 91.7514 92.886 91.902C93.0366 92.0526 93.1119 92.233 93.1119 92.4432C93.1119 92.5824 93.0763 92.7102 93.0053 92.8267C92.9371 92.9432 92.8448 93.0369 92.7283 93.108C92.6147 93.1761 92.4869 93.2102 92.3448 93.2102Z" fill="black"/>
<path d="M102.05 89.2727V98H100.993V90.3807H100.942L98.8111 91.7955V90.7216L100.993 89.2727H102.05ZM104.56 98V97.233L107.44 94.0795C107.778 93.7102 108.057 93.3892 108.276 93.1165C108.494 92.8409 108.656 92.5824 108.761 92.3409C108.869 92.0966 108.923 91.8409 108.923 91.5739C108.923 91.267 108.849 91.0014 108.702 90.777C108.557 90.5526 108.358 90.3793 108.105 90.2571C107.852 90.1349 107.568 90.0739 107.253 90.0739C106.918 90.0739 106.625 90.1435 106.375 90.2827C106.128 90.419 105.936 90.6108 105.8 90.858C105.666 91.1051 105.599 91.3949 105.599 91.7273H104.594C104.594 91.2159 104.712 90.767 104.947 90.3807C105.183 89.9943 105.504 89.6932 105.911 89.4773C106.32 89.2614 106.778 89.1534 107.287 89.1534C107.798 89.1534 108.251 89.2614 108.646 89.4773C109.041 89.6932 109.351 89.9844 109.575 90.3509C109.8 90.7173 109.912 91.125 109.912 91.5739C109.912 91.8949 109.854 92.2088 109.737 92.5156C109.624 92.8196 109.425 93.1591 109.141 93.5341C108.859 93.9062 108.469 94.3608 107.969 94.8977L106.009 96.9943V97.0625H110.065V98H104.56Z" fill="black"/>
</g>
<g clip-path="url(#clip9_5820_14748)">
<path d="M1.05682 125V116.273H4.00568C4.69034 116.273 5.25 116.396 5.68466 116.643C6.12216 116.888 6.44602 117.219 6.65625 117.636C6.86648 118.054 6.97159 118.52 6.97159 119.034C6.97159 119.548 6.86648 120.016 6.65625 120.436C6.44886 120.857 6.12784 121.192 5.69318 121.442C5.25852 121.689 4.7017 121.812 4.02273 121.812H1.90909V120.875H3.98864C4.45739 120.875 4.83381 120.794 5.1179 120.632C5.40199 120.47 5.60795 120.251 5.7358 119.976C5.86648 119.697 5.93182 119.384 5.93182 119.034C5.93182 118.685 5.86648 118.372 5.7358 118.097C5.60795 117.821 5.40057 117.605 5.11364 117.449C4.8267 117.29 4.44602 117.21 3.97159 117.21H2.11364V125H1.05682ZM10.4638 125.153C10.049 125.153 9.67259 125.075 9.33452 124.919C8.99645 124.76 8.72798 124.531 8.52912 124.233C8.33026 123.932 8.23082 123.568 8.23082 123.142C8.23082 122.767 8.30469 122.463 8.45241 122.23C8.60014 121.994 8.79759 121.81 9.04474 121.676C9.2919 121.543 9.56463 121.443 9.86293 121.378C10.1641 121.31 10.4666 121.256 10.7706 121.216C11.1683 121.165 11.4908 121.126 11.7379 121.101C11.9879 121.072 12.1697 121.026 12.2834 120.96C12.3999 120.895 12.4581 120.781 12.4581 120.619V120.585C12.4581 120.165 12.343 119.838 12.1129 119.605C11.8857 119.372 11.5405 119.256 11.0774 119.256C10.5973 119.256 10.2209 119.361 9.94815 119.571C9.67543 119.781 9.48366 120.006 9.37287 120.244L8.41832 119.903C8.58878 119.506 8.81605 119.196 9.10014 118.974C9.38707 118.75 9.69957 118.594 10.0376 118.506C10.3786 118.415 10.7138 118.369 11.0433 118.369C11.2536 118.369 11.495 118.395 11.7678 118.446C12.0433 118.494 12.3089 118.595 12.5646 118.749C12.8232 118.902 13.0376 119.134 13.2081 119.443C13.3786 119.753 13.4638 120.168 13.4638 120.688V125H12.4581V124.114H12.407C12.3388 124.256 12.2251 124.408 12.0661 124.57C11.907 124.732 11.6953 124.869 11.4311 124.983C11.1669 125.097 10.8445 125.153 10.4638 125.153ZM10.6172 124.25C11.0149 124.25 11.3501 124.172 11.6229 124.016C11.8984 123.859 12.1058 123.658 12.245 123.411C12.3871 123.163 12.4581 122.903 12.4581 122.631V121.71C12.4155 121.761 12.3217 121.808 12.1768 121.851C12.0348 121.891 11.87 121.926 11.6825 121.957C11.4979 121.986 11.3175 122.011 11.1413 122.034C10.968 122.054 10.8274 122.071 10.7195 122.085C10.4581 122.119 10.2138 122.175 9.98651 122.251C9.76207 122.325 9.58026 122.437 9.44105 122.588C9.30469 122.736 9.23651 122.937 9.23651 123.193C9.23651 123.543 9.36577 123.807 9.62429 123.986C9.88565 124.162 10.2166 124.25 10.6172 124.25ZM17.771 125.136C17.2255 125.136 16.744 124.999 16.3263 124.723C15.9087 124.445 15.582 124.053 15.3462 123.547C15.1104 123.038 14.9925 122.438 14.9925 121.744C14.9925 121.057 15.1104 120.46 15.3462 119.955C15.582 119.449 15.9102 119.058 16.3306 118.783C16.7511 118.507 17.2369 118.369 17.788 118.369C18.2141 118.369 18.5508 118.44 18.7979 118.582C19.0479 118.722 19.2383 118.881 19.369 119.06C19.5025 119.236 19.6062 119.381 19.68 119.494H19.7653V116.273H20.771V125H19.7994V123.994H19.68C19.6062 124.114 19.5011 124.264 19.3647 124.446C19.2283 124.625 19.0337 124.786 18.7809 124.928C18.5281 125.067 18.1914 125.136 17.771 125.136ZM17.9073 124.233C18.3107 124.233 18.6516 124.128 18.93 123.918C19.2085 123.705 19.4201 123.411 19.565 123.036C19.7099 122.658 19.7823 122.222 19.7823 121.727C19.7823 121.239 19.7113 120.811 19.5692 120.445C19.4272 120.075 19.217 119.788 18.9386 119.584C18.6602 119.376 18.3164 119.273 17.9073 119.273C17.4812 119.273 17.1261 119.382 16.842 119.601C16.5607 119.817 16.3491 120.111 16.207 120.483C16.0678 120.852 15.9982 121.267 15.9982 121.727C15.9982 122.193 16.0692 122.616 16.2113 122.997C16.3562 123.375 16.5692 123.676 16.8505 123.901C17.1346 124.122 17.4869 124.233 17.9073 124.233ZM25.2241 125.136C24.6786 125.136 24.1971 124.999 23.7795 124.723C23.3619 124.445 23.0352 124.053 22.7994 123.547C22.5636 123.038 22.4457 122.438 22.4457 121.744C22.4457 121.057 22.5636 120.46 22.7994 119.955C23.0352 119.449 23.3633 119.058 23.7837 118.783C24.2042 118.507 24.69 118.369 25.2411 118.369C25.6673 118.369 26.0039 118.44 26.2511 118.582C26.5011 118.722 26.6914 118.881 26.8221 119.06C26.9556 119.236 27.0593 119.381 27.1332 119.494H27.2184V116.273H28.2241V125H27.2525V123.994H27.1332C27.0593 124.114 26.9542 124.264 26.8178 124.446C26.6815 124.625 26.4869 124.786 26.234 124.928C25.9812 125.067 25.6445 125.136 25.2241 125.136ZM25.3604 124.233C25.7638 124.233 26.1048 124.128 26.3832 123.918C26.6616 123.705 26.8732 123.411 27.0181 123.036C27.163 122.658 27.2354 122.222 27.2354 121.727C27.2354 121.239 27.1644 120.811 27.0224 120.445C26.8803 120.075 26.6701 119.788 26.3917 119.584C26.1133 119.376 25.7695 119.273 25.3604 119.273C24.9343 119.273 24.5792 119.382 24.2951 119.601C24.0138 119.817 23.8022 120.111 23.6602 120.483C23.521 120.852 23.4513 121.267 23.4513 121.727C23.4513 122.193 23.5224 122.616 23.6644 122.997C23.8093 123.375 24.0224 123.676 24.3036 123.901C24.5877 124.122 24.94 124.233 25.3604 124.233ZM30.2056 125V118.455H31.2113V125H30.2056ZM30.717 117.364C30.521 117.364 30.3519 117.297 30.2099 117.163C30.0707 117.03 30.0011 116.869 30.0011 116.682C30.0011 116.494 30.0707 116.334 30.2099 116.2C30.3519 116.067 30.521 116 30.717 116C30.913 116 31.0806 116.067 31.2198 116.2C31.3619 116.334 31.4329 116.494 31.4329 116.682C31.4329 116.869 31.3619 117.03 31.2198 117.163C31.0806 117.297 30.913 117.364 30.717 117.364ZM34.0589 121.062V125H33.0533V118.455H34.0249V119.477H34.1101C34.2635 119.145 34.4964 118.878 34.8089 118.676C35.1214 118.472 35.5249 118.369 36.0192 118.369C36.4624 118.369 36.8501 118.46 37.1825 118.642C37.5149 118.821 37.7734 119.094 37.9581 119.46C38.1428 119.824 38.2351 120.284 38.2351 120.841V125H37.2294V120.909C37.2294 120.395 37.0959 119.994 36.8288 119.707C36.5618 119.418 36.1953 119.273 35.7294 119.273C35.4084 119.273 35.1214 119.342 34.8686 119.482C34.6186 119.621 34.4212 119.824 34.2763 120.091C34.1314 120.358 34.0589 120.682 34.0589 121.062ZM42.7148 127.591C42.229 127.591 41.8114 127.528 41.462 127.403C41.1126 127.281 40.8214 127.119 40.5884 126.918C40.3583 126.719 40.1751 126.506 40.0387 126.278L40.8398 125.716C40.9308 125.835 41.0458 125.972 41.185 126.125C41.3242 126.281 41.5146 126.416 41.756 126.53C42.0004 126.646 42.32 126.705 42.7148 126.705C43.2433 126.705 43.6793 126.577 44.0231 126.321C44.3668 126.065 44.5387 125.665 44.5387 125.119V123.79H44.4535C44.3796 123.909 44.2745 124.057 44.1381 124.233C44.0046 124.406 43.8114 124.561 43.5586 124.697C43.3086 124.831 42.9705 124.898 42.5444 124.898C42.016 124.898 41.5415 124.773 41.1211 124.523C40.7035 124.273 40.3725 123.909 40.1282 123.432C39.8867 122.955 39.766 122.375 39.766 121.693C39.766 121.023 39.8839 120.439 40.1197 119.942C40.3555 119.442 40.6836 119.055 41.104 118.783C41.5245 118.507 42.0103 118.369 42.5614 118.369C42.9876 118.369 43.3256 118.44 43.5756 118.582C43.8285 118.722 44.0217 118.881 44.1552 119.06C44.2915 119.236 44.3967 119.381 44.4705 119.494H44.5728V118.455H45.5444V125.188C45.5444 125.75 45.4165 126.207 45.1609 126.56C44.908 126.915 44.5671 127.175 44.1381 127.339C43.712 127.507 43.2376 127.591 42.7148 127.591ZM42.6808 123.994C43.0842 123.994 43.4251 123.902 43.7035 123.717C43.9819 123.533 44.1935 123.267 44.3384 122.92C44.4833 122.574 44.5558 122.159 44.5558 121.676C44.5558 121.205 44.4847 120.788 44.3427 120.428C44.2006 120.067 43.9904 119.784 43.712 119.58C43.4336 119.375 43.0898 119.273 42.6808 119.273C42.2546 119.273 41.8995 119.381 41.6154 119.597C41.3342 119.812 41.1225 120.102 40.9805 120.466C40.8413 120.83 40.7717 121.233 40.7717 121.676C40.7717 122.131 40.8427 122.533 40.9847 122.882C41.1296 123.229 41.3427 123.501 41.6239 123.7C41.908 123.896 42.2603 123.994 42.6808 123.994ZM51.766 116.273V125H50.7603V116.273H51.766ZM56.3523 125.136C55.7216 125.136 55.1776 124.997 54.7202 124.719C54.2656 124.438 53.9148 124.045 53.6676 123.543C53.4233 123.037 53.3011 122.449 53.3011 121.778C53.3011 121.108 53.4233 120.517 53.6676 120.006C53.9148 119.491 54.2585 119.091 54.6989 118.804C55.142 118.514 55.6591 118.369 56.25 118.369C56.5909 118.369 56.9276 118.426 57.2599 118.54C57.5923 118.653 57.8949 118.838 58.1676 119.094C58.4403 119.347 58.6577 119.682 58.8196 120.099C58.9815 120.517 59.0625 121.031 59.0625 121.642V122.068H54.017V121.199H58.0398C58.0398 120.83 57.9659 120.5 57.8182 120.21C57.6733 119.92 57.4659 119.692 57.196 119.524C56.929 119.357 56.6136 119.273 56.25 119.273C55.8494 119.273 55.5028 119.372 55.2102 119.571C54.9205 119.767 54.6974 120.023 54.5412 120.338C54.3849 120.653 54.3068 120.991 54.3068 121.352V121.932C54.3068 122.426 54.392 122.845 54.5625 123.189C54.7358 123.53 54.9759 123.79 55.2827 123.969C55.5895 124.145 55.946 124.233 56.3523 124.233C56.6165 124.233 56.8551 124.196 57.0682 124.122C57.2841 124.045 57.4702 123.932 57.6264 123.781C57.7827 123.628 57.9034 123.437 57.9886 123.21L58.9602 123.483C58.858 123.812 58.6861 124.102 58.4446 124.352C58.2031 124.599 57.9048 124.793 57.5497 124.932C57.1946 125.068 56.7955 125.136 56.3523 125.136ZM63.5071 118.455V119.307H59.9787V118.455H63.5071ZM61.0355 125V117.551C61.0355 117.176 61.1236 116.864 61.2997 116.614C61.4759 116.364 61.7045 116.176 61.9858 116.051C62.267 115.926 62.5639 115.864 62.8764 115.864C63.1236 115.864 63.3253 115.884 63.4815 115.923C63.6378 115.963 63.7543 116 63.831 116.034L63.5412 116.903C63.4901 116.886 63.419 116.865 63.3281 116.839C63.2401 116.814 63.1236 116.801 62.9787 116.801C62.6463 116.801 62.4063 116.885 62.2585 117.053C62.1136 117.22 62.0412 117.466 62.0412 117.79V125H61.0355ZM67.7631 118.455V119.307H64.3711V118.455H67.7631ZM65.3597 116.886H66.3654V123.125C66.3654 123.409 66.4066 123.622 66.489 123.764C66.5742 123.903 66.6822 123.997 66.8129 124.045C66.9464 124.091 67.087 124.114 67.2347 124.114C67.3455 124.114 67.4364 124.108 67.5075 124.097C67.5785 124.082 67.6353 124.071 67.6779 124.062L67.8825 124.966C67.8143 124.991 67.7191 125.017 67.5969 125.043C67.4748 125.071 67.32 125.085 67.1325 125.085C66.8484 125.085 66.57 125.024 66.2972 124.902C66.0273 124.78 65.8029 124.594 65.6239 124.344C65.4478 124.094 65.3597 123.778 65.3597 123.398V116.886ZM70.0089 125.068C69.7987 125.068 69.6183 124.993 69.4677 124.842C69.3171 124.692 69.2418 124.511 69.2418 124.301C69.2418 124.091 69.3171 123.911 69.4677 123.76C69.6183 123.609 69.7987 123.534 70.0089 123.534C70.2191 123.534 70.3995 123.609 70.5501 123.76C70.7006 123.911 70.7759 124.091 70.7759 124.301C70.7759 124.44 70.7404 124.568 70.6694 124.685C70.6012 124.801 70.5089 124.895 70.3924 124.966C70.2788 125.034 70.1509 125.068 70.0089 125.068ZM70.0089 120.21C69.7987 120.21 69.6183 120.135 69.4677 119.984C69.3171 119.834 69.2418 119.653 69.2418 119.443C69.2418 119.233 69.3171 119.053 69.4677 118.902C69.6183 118.751 69.7987 118.676 70.0089 118.676C70.2191 118.676 70.3995 118.751 70.5501 118.902C70.7006 119.053 70.7759 119.233 70.7759 119.443C70.7759 119.582 70.7404 119.71 70.6694 119.827C70.6012 119.943 70.5089 120.037 70.3924 120.108C70.2788 120.176 70.1509 120.21 70.0089 120.21Z" fill="black"/>
<path d="M80.4384 116.273V125H79.3816V117.381H79.3304L77.1998 118.795V117.722L79.3816 116.273H80.4384ZM85.8461 125.119C85.4881 125.114 85.1301 125.045 84.7722 124.915C84.4142 124.784 84.0875 124.564 83.7921 124.254C83.4966 123.942 83.2594 123.52 83.0804 122.989C82.9015 122.455 82.812 121.784 82.812 120.977C82.812 120.205 82.8844 119.52 83.0293 118.923C83.1742 118.324 83.3844 117.82 83.66 117.411C83.9355 116.999 84.2679 116.686 84.6571 116.473C85.0492 116.26 85.4909 116.153 85.9824 116.153C86.4711 116.153 86.9057 116.251 87.2864 116.447C87.6699 116.641 87.9824 116.911 88.2239 117.257C88.4654 117.604 88.6216 118.003 88.6926 118.455H87.6529C87.5563 118.062 87.3688 117.737 87.0904 117.479C86.812 117.22 86.4426 117.091 85.9824 117.091C85.3063 117.091 84.7736 117.385 84.3844 117.973C83.998 118.561 83.8034 119.386 83.8006 120.449H83.8688C84.0279 120.207 84.2168 120.001 84.4355 119.831C84.6571 119.658 84.9015 119.524 85.1685 119.43C85.4355 119.337 85.7182 119.29 86.0165 119.29C86.5165 119.29 86.9739 119.415 87.3887 119.665C87.8034 119.912 88.1358 120.254 88.3858 120.692C88.6358 121.126 88.7608 121.625 88.7608 122.188C88.7608 122.727 88.6401 123.222 88.3986 123.67C88.1571 124.116 87.8176 124.472 87.3801 124.736C86.9455 124.997 86.4341 125.125 85.8461 125.119ZM85.8461 124.182C86.204 124.182 86.525 124.092 86.8091 123.913C87.0961 123.734 87.3219 123.494 87.4867 123.193C87.6543 122.892 87.7381 122.557 87.7381 122.188C87.7381 121.827 87.6571 121.499 87.4952 121.203C87.3361 120.905 87.1159 120.668 86.8347 120.491C86.5563 120.315 86.2381 120.227 85.8801 120.227C85.6103 120.227 85.3588 120.281 85.1259 120.389C84.8929 120.494 84.6884 120.639 84.5123 120.824C84.339 121.009 84.2026 121.22 84.1032 121.459C84.0037 121.695 83.954 121.943 83.954 122.205C83.954 122.551 84.035 122.875 84.1969 123.176C84.3617 123.477 84.5861 123.72 84.8702 123.905C85.1571 124.089 85.4824 124.182 85.8461 124.182Z" fill="black"/>
</g>
<g clip-path="url(#clip10_5820_14748)">
<path d="M1.05682 152V143.273H4.00568C4.69034 143.273 5.25 143.396 5.68466 143.643C6.12216 143.888 6.44602 144.219 6.65625 144.636C6.86648 145.054 6.97159 145.52 6.97159 146.034C6.97159 146.548 6.86648 147.016 6.65625 147.436C6.44886 147.857 6.12784 148.192 5.69318 148.442C5.25852 148.689 4.7017 148.812 4.02273 148.812H1.90909V147.875H3.98864C4.45739 147.875 4.83381 147.794 5.1179 147.632C5.40199 147.47 5.60795 147.251 5.7358 146.976C5.86648 146.697 5.93182 146.384 5.93182 146.034C5.93182 145.685 5.86648 145.372 5.7358 145.097C5.60795 144.821 5.40057 144.605 5.11364 144.449C4.8267 144.29 4.44602 144.21 3.97159 144.21H2.11364V152H1.05682ZM10.4638 152.153C10.049 152.153 9.67259 152.075 9.33452 151.919C8.99645 151.76 8.72798 151.531 8.52912 151.233C8.33026 150.932 8.23082 150.568 8.23082 150.142C8.23082 149.767 8.30469 149.463 8.45241 149.23C8.60014 148.994 8.79759 148.81 9.04474 148.676C9.2919 148.543 9.56463 148.443 9.86293 148.378C10.1641 148.31 10.4666 148.256 10.7706 148.216C11.1683 148.165 11.4908 148.126 11.7379 148.101C11.9879 148.072 12.1697 148.026 12.2834 147.96C12.3999 147.895 12.4581 147.781 12.4581 147.619V147.585C12.4581 147.165 12.343 146.838 12.1129 146.605C11.8857 146.372 11.5405 146.256 11.0774 146.256C10.5973 146.256 10.2209 146.361 9.94815 146.571C9.67543 146.781 9.48366 147.006 9.37287 147.244L8.41832 146.903C8.58878 146.506 8.81605 146.196 9.10014 145.974C9.38707 145.75 9.69957 145.594 10.0376 145.506C10.3786 145.415 10.7138 145.369 11.0433 145.369C11.2536 145.369 11.495 145.395 11.7678 145.446C12.0433 145.494 12.3089 145.595 12.5646 145.749C12.8232 145.902 13.0376 146.134 13.2081 146.443C13.3786 146.753 13.4638 147.168 13.4638 147.688V152H12.4581V151.114H12.407C12.3388 151.256 12.2251 151.408 12.0661 151.57C11.907 151.732 11.6953 151.869 11.4311 151.983C11.1669 152.097 10.8445 152.153 10.4638 152.153ZM10.6172 151.25C11.0149 151.25 11.3501 151.172 11.6229 151.016C11.8984 150.859 12.1058 150.658 12.245 150.411C12.3871 150.163 12.4581 149.903 12.4581 149.631V148.71C12.4155 148.761 12.3217 148.808 12.1768 148.851C12.0348 148.891 11.87 148.926 11.6825 148.957C11.4979 148.986 11.3175 149.011 11.1413 149.034C10.968 149.054 10.8274 149.071 10.7195 149.085C10.4581 149.119 10.2138 149.175 9.98651 149.251C9.76207 149.325 9.58026 149.437 9.44105 149.588C9.30469 149.736 9.23651 149.937 9.23651 150.193C9.23651 150.543 9.36577 150.807 9.62429 150.986C9.88565 151.162 10.2166 151.25 10.6172 151.25ZM17.771 152.136C17.2255 152.136 16.744 151.999 16.3263 151.723C15.9087 151.445 15.582 151.053 15.3462 150.547C15.1104 150.038 14.9925 149.438 14.9925 148.744C14.9925 148.057 15.1104 147.46 15.3462 146.955C15.582 146.449 15.9102 146.058 16.3306 145.783C16.7511 145.507 17.2369 145.369 17.788 145.369C18.2141 145.369 18.5508 145.44 18.7979 145.582C19.0479 145.722 19.2383 145.881 19.369 146.06C19.5025 146.236 19.6062 146.381 19.68 146.494H19.7653V143.273H20.771V152H19.7994V150.994H19.68C19.6062 151.114 19.5011 151.264 19.3647 151.446C19.2283 151.625 19.0337 151.786 18.7809 151.928C18.5281 152.067 18.1914 152.136 17.771 152.136ZM17.9073 151.233C18.3107 151.233 18.6516 151.128 18.93 150.918C19.2085 150.705 19.4201 150.411 19.565 150.036C19.7099 149.658 19.7823 149.222 19.7823 148.727C19.7823 148.239 19.7113 147.811 19.5692 147.445C19.4272 147.075 19.217 146.788 18.9386 146.584C18.6602 146.376 18.3164 146.273 17.9073 146.273C17.4812 146.273 17.1261 146.382 16.842 146.601C16.5607 146.817 16.3491 147.111 16.207 147.483C16.0678 147.852 15.9982 148.267 15.9982 148.727C15.9982 149.193 16.0692 149.616 16.2113 149.997C16.3562 150.375 16.5692 150.676 16.8505 150.901C17.1346 151.122 17.4869 151.233 17.9073 151.233ZM25.2241 152.136C24.6786 152.136 24.1971 151.999 23.7795 151.723C23.3619 151.445 23.0352 151.053 22.7994 150.547C22.5636 150.038 22.4457 149.438 22.4457 148.744C22.4457 148.057 22.5636 147.46 22.7994 146.955C23.0352 146.449 23.3633 146.058 23.7837 145.783C24.2042 145.507 24.69 145.369 25.2411 145.369C25.6673 145.369 26.0039 145.44 26.2511 145.582C26.5011 145.722 26.6914 145.881 26.8221 146.06C26.9556 146.236 27.0593 146.381 27.1332 146.494H27.2184V143.273H28.2241V152H27.2525V150.994H27.1332C27.0593 151.114 26.9542 151.264 26.8178 151.446C26.6815 151.625 26.4869 151.786 26.234 151.928C25.9812 152.067 25.6445 152.136 25.2241 152.136ZM25.3604 151.233C25.7638 151.233 26.1048 151.128 26.3832 150.918C26.6616 150.705 26.8732 150.411 27.0181 150.036C27.163 149.658 27.2354 149.222 27.2354 148.727C27.2354 148.239 27.1644 147.811 27.0224 147.445C26.8803 147.075 26.6701 146.788 26.3917 146.584C26.1133 146.376 25.7695 146.273 25.3604 146.273C24.9343 146.273 24.5792 146.382 24.2951 146.601C24.0138 146.817 23.8022 147.111 23.6602 147.483C23.521 147.852 23.4513 148.267 23.4513 148.727C23.4513 149.193 23.5224 149.616 23.6644 149.997C23.8093 150.375 24.0224 150.676 24.3036 150.901C24.5877 151.122 24.94 151.233 25.3604 151.233ZM30.2056 152V145.455H31.2113V152H30.2056ZM30.717 144.364C30.521 144.364 30.3519 144.297 30.2099 144.163C30.0707 144.03 30.0011 143.869 30.0011 143.682C30.0011 143.494 30.0707 143.334 30.2099 143.2C30.3519 143.067 30.521 143 30.717 143C30.913 143 31.0806 143.067 31.2198 143.2C31.3619 143.334 31.4329 143.494 31.4329 143.682C31.4329 143.869 31.3619 144.03 31.2198 144.163C31.0806 144.297 30.913 144.364 30.717 144.364ZM34.0589 148.062V152H33.0533V145.455H34.0249V146.477H34.1101C34.2635 146.145 34.4964 145.878 34.8089 145.676C35.1214 145.472 35.5249 145.369 36.0192 145.369C36.4624 145.369 36.8501 145.46 37.1825 145.642C37.5149 145.821 37.7734 146.094 37.9581 146.46C38.1428 146.824 38.2351 147.284 38.2351 147.841V152H37.2294V147.909C37.2294 147.395 37.0959 146.994 36.8288 146.707C36.5618 146.418 36.1953 146.273 35.7294 146.273C35.4084 146.273 35.1214 146.342 34.8686 146.482C34.6186 146.621 34.4212 146.824 34.2763 147.091C34.1314 147.358 34.0589 147.682 34.0589 148.062ZM42.7148 154.591C42.229 154.591 41.8114 154.528 41.462 154.403C41.1126 154.281 40.8214 154.119 40.5884 153.918C40.3583 153.719 40.1751 153.506 40.0387 153.278L40.8398 152.716C40.9308 152.835 41.0458 152.972 41.185 153.125C41.3242 153.281 41.5146 153.416 41.756 153.53C42.0004 153.646 42.32 153.705 42.7148 153.705C43.2433 153.705 43.6793 153.577 44.0231 153.321C44.3668 153.065 44.5387 152.665 44.5387 152.119V150.79H44.4535C44.3796 150.909 44.2745 151.057 44.1381 151.233C44.0046 151.406 43.8114 151.561 43.5586 151.697C43.3086 151.831 42.9705 151.898 42.5444 151.898C42.016 151.898 41.5415 151.773 41.1211 151.523C40.7035 151.273 40.3725 150.909 40.1282 150.432C39.8867 149.955 39.766 149.375 39.766 148.693C39.766 148.023 39.8839 147.439 40.1197 146.942C40.3555 146.442 40.6836 146.055 41.104 145.783C41.5245 145.507 42.0103 145.369 42.5614 145.369C42.9876 145.369 43.3256 145.44 43.5756 145.582C43.8285 145.722 44.0217 145.881 44.1552 146.06C44.2915 146.236 44.3967 146.381 44.4705 146.494H44.5728V145.455H45.5444V152.188C45.5444 152.75 45.4165 153.207 45.1609 153.56C44.908 153.915 44.5671 154.175 44.1381 154.339C43.712 154.507 43.2376 154.591 42.7148 154.591ZM42.6808 150.994C43.0842 150.994 43.4251 150.902 43.7035 150.717C43.9819 150.533 44.1935 150.267 44.3384 149.92C44.4833 149.574 44.5558 149.159 44.5558 148.676C44.5558 148.205 44.4847 147.788 44.3427 147.428C44.2006 147.067 43.9904 146.784 43.712 146.58C43.4336 146.375 43.0898 146.273 42.6808 146.273C42.2546 146.273 41.8995 146.381 41.6154 146.597C41.3342 146.812 41.1225 147.102 40.9805 147.466C40.8413 147.83 40.7717 148.233 40.7717 148.676C40.7717 149.131 40.8427 149.533 40.9847 149.882C41.1296 150.229 41.3427 150.501 41.6239 150.7C41.908 150.896 42.2603 150.994 42.6808 150.994ZM50.7603 152V145.455H51.7319V146.443H51.8001C51.9194 146.119 52.1353 145.857 52.4478 145.655C52.7603 145.453 53.1126 145.352 53.5046 145.352C53.5785 145.352 53.6708 145.354 53.7816 145.357C53.8924 145.359 53.9762 145.364 54.033 145.369V146.392C53.9989 146.384 53.9208 146.371 53.7987 146.354C53.6793 146.334 53.5529 146.324 53.4194 146.324C53.1012 146.324 52.8171 146.391 52.5671 146.524C52.32 146.655 52.1239 146.837 51.979 147.07C51.837 147.3 51.766 147.562 51.766 147.858V152H50.7603ZM55.2251 152V145.455H56.2308V152H55.2251ZM55.7365 144.364C55.5405 144.364 55.3714 144.297 55.2294 144.163C55.0902 144.03 55.0206 143.869 55.0206 143.682C55.0206 143.494 55.0902 143.334 55.2294 143.2C55.3714 143.067 55.5405 143 55.7365 143C55.9325 143 56.1001 143.067 56.2393 143.2C56.3814 143.334 56.4524 143.494 56.4524 143.682C56.4524 143.869 56.3814 144.03 56.2393 144.163C56.1001 144.297 55.9325 144.364 55.7365 144.364ZM60.7148 154.591C60.229 154.591 59.8114 154.528 59.462 154.403C59.1126 154.281 58.8214 154.119 58.5884 153.918C58.3583 153.719 58.1751 153.506 58.0387 153.278L58.8398 152.716C58.9308 152.835 59.0458 152.972 59.185 153.125C59.3242 153.281 59.5146 153.416 59.756 153.53C60.0004 153.646 60.32 153.705 60.7148 153.705C61.2433 153.705 61.6793 153.577 62.0231 153.321C62.3668 153.065 62.5387 152.665 62.5387 152.119V150.79H62.4535C62.3796 150.909 62.2745 151.057 62.1381 151.233C62.0046 151.406 61.8114 151.561 61.5586 151.697C61.3086 151.831 60.9705 151.898 60.5444 151.898C60.016 151.898 59.5415 151.773 59.1211 151.523C58.7035 151.273 58.3725 150.909 58.1282 150.432C57.8867 149.955 57.766 149.375 57.766 148.693C57.766 148.023 57.8839 147.439 58.1197 146.942C58.3555 146.442 58.6836 146.055 59.104 145.783C59.5245 145.507 60.0103 145.369 60.5614 145.369C60.9876 145.369 61.3256 145.44 61.5756 145.582C61.8285 145.722 62.0217 145.881 62.1552 146.06C62.2915 146.236 62.3967 146.381 62.4705 146.494H62.5728V145.455H63.5444V152.188C63.5444 152.75 63.4165 153.207 63.1609 153.56C62.908 153.915 62.5671 154.175 62.1381 154.339C61.712 154.507 61.2376 154.591 60.7148 154.591ZM60.6808 150.994C61.0842 150.994 61.4251 150.902 61.7035 150.717C61.9819 150.533 62.1935 150.267 62.3384 149.92C62.4833 149.574 62.5558 149.159 62.5558 148.676C62.5558 148.205 62.4847 147.788 62.3427 147.428C62.2006 147.067 61.9904 146.784 61.712 146.58C61.4336 146.375 61.0898 146.273 60.6808 146.273C60.2546 146.273 59.8995 146.381 59.6154 146.597C59.3342 146.812 59.1225 147.102 58.9805 147.466C58.8413 147.83 58.7717 148.233 58.7717 148.676C58.7717 149.131 58.8427 149.533 58.9847 149.882C59.1296 150.229 59.3427 150.501 59.6239 150.7C59.908 150.896 60.2603 150.994 60.6808 150.994ZM66.391 148.062V152H65.3853V143.273H66.391V146.477H66.4762C66.6296 146.139 66.8597 145.871 67.1665 145.672C67.4762 145.47 67.8881 145.369 68.4023 145.369C68.8484 145.369 69.239 145.459 69.5742 145.638C69.9094 145.814 70.1694 146.085 70.354 146.452C70.5415 146.815 70.6353 147.278 70.6353 147.841V152H69.6296V147.909C69.6296 147.389 69.4947 146.987 69.2248 146.703C68.9577 146.416 68.587 146.273 68.1126 146.273C67.783 146.273 67.4876 146.342 67.2262 146.482C66.9677 146.621 66.7631 146.824 66.6126 147.091C66.4648 147.358 66.391 147.682 66.391 148.062ZM75.3217 145.455V146.307H71.9297V145.455H75.3217ZM72.9183 143.886H73.924V150.125C73.924 150.409 73.9652 150.622 74.0476 150.764C74.1328 150.903 74.2408 150.997 74.3714 151.045C74.505 151.091 74.6456 151.114 74.7933 151.114C74.9041 151.114 74.995 151.108 75.0661 151.097C75.1371 151.082 75.1939 151.071 75.2365 151.062L75.4411 151.966C75.3729 151.991 75.2777 152.017 75.1555 152.043C75.0334 152.071 74.8786 152.085 74.6911 152.085C74.407 152.085 74.1286 152.024 73.8558 151.902C73.5859 151.78 73.3615 151.594 73.1825 151.344C73.0064 151.094 72.9183 150.778 72.9183 150.398V143.886ZM77.5675 152.068C77.3572 152.068 77.1768 151.993 77.0263 151.842C76.8757 151.692 76.8004 151.511 76.8004 151.301C76.8004 151.091 76.8757 150.911 77.0263 150.76C77.1768 150.609 77.3572 150.534 77.5675 150.534C77.7777 150.534 77.9581 150.609 78.1087 150.76C78.2592 150.911 78.3345 151.091 78.3345 151.301C78.3345 151.44 78.299 151.568 78.228 151.685C78.1598 151.801 78.0675 151.895 77.951 151.966C77.8374 152.034 77.7095 152.068 77.5675 152.068ZM77.5675 147.21C77.3572 147.21 77.1768 147.135 77.0263 146.984C76.8757 146.834 76.8004 146.653 76.8004 146.443C76.8004 146.233 76.8757 146.053 77.0263 145.902C77.1768 145.751 77.3572 145.676 77.5675 145.676C77.7777 145.676 77.9581 145.751 78.1087 145.902C78.2592 146.053 78.3345 146.233 78.3345 146.443C78.3345 146.582 78.299 146.71 78.228 146.827C78.1598 146.943 78.0675 147.037 77.951 147.108C77.8374 147.176 77.7095 147.21 77.5675 147.21Z" fill="black"/>
<path d="M88.4384 143.273V152H87.3816V144.381H87.3304L85.1998 145.795V144.722L87.3816 143.273H88.4384ZM93.8461 152.119C93.4881 152.114 93.1301 152.045 92.7722 151.915C92.4142 151.784 92.0875 151.564 91.7921 151.254C91.4966 150.942 91.2594 150.52 91.0804 149.989C90.9015 149.455 90.812 148.784 90.812 147.977C90.812 147.205 90.8844 146.52 91.0293 145.923C91.1742 145.324 91.3844 144.82 91.66 144.411C91.9355 143.999 92.2679 143.686 92.6571 143.473C93.0492 143.26 93.4909 143.153 93.9824 143.153C94.4711 143.153 94.9057 143.251 95.2864 143.447C95.6699 143.641 95.9824 143.911 96.2239 144.257C96.4654 144.604 96.6216 145.003 96.6926 145.455H95.6529C95.5563 145.062 95.3688 144.737 95.0904 144.479C94.812 144.22 94.4426 144.091 93.9824 144.091C93.3063 144.091 92.7736 144.385 92.3844 144.973C91.998 145.561 91.8034 146.386 91.8006 147.449H91.8688C92.0279 147.207 92.2168 147.001 92.4355 146.831C92.6571 146.658 92.9015 146.524 93.1685 146.43C93.4355 146.337 93.7182 146.29 94.0165 146.29C94.5165 146.29 94.9739 146.415 95.3887 146.665C95.8034 146.912 96.1358 147.254 96.3858 147.692C96.6358 148.126 96.7608 148.625 96.7608 149.188C96.7608 149.727 96.6401 150.222 96.3986 150.67C96.1571 151.116 95.8176 151.472 95.3801 151.736C94.9455 151.997 94.4341 152.125 93.8461 152.119ZM93.8461 151.182C94.204 151.182 94.525 151.092 94.8091 150.913C95.0961 150.734 95.3219 150.494 95.4867 150.193C95.6543 149.892 95.7381 149.557 95.7381 149.188C95.7381 148.827 95.6571 148.499 95.4952 148.203C95.3361 147.905 95.1159 147.668 94.8347 147.491C94.5563 147.315 94.2381 147.227 93.8801 147.227C93.6103 147.227 93.3588 147.281 93.1259 147.389C92.8929 147.494 92.6884 147.639 92.5123 147.824C92.339 148.009 92.2026 148.22 92.1032 148.459C92.0037 148.695 91.954 148.943 91.954 149.205C91.954 149.551 92.035 149.875 92.1969 150.176C92.3617 150.477 92.5861 150.72 92.8702 150.905C93.1571 151.089 93.4824 151.182 93.8461 151.182Z" fill="black"/>
</g>
</g>
</g>
</g>
<rect width="420" height="188" transform="translate(380)" fill="#F2F2F2"/>
<g opacity="0.2">
<rect x="520" y="74" width="139" height="40" rx="4" fill="#0066CC"/>
<path fill-rule="evenodd" clip-rule="evenodd" d="M550.666 90L544 86L537.333 90V98L544 102L550.666 98V90ZM538.002 97.5984V90.4016L544 86.8033L549.997 90.4016V97.5984L544 101.197L538.002 97.5984Z" fill="white"/>
<path d="M566.676 99H561.3V89.41H562.854V97.614H566.676V99ZM572.943 94.156V97.348C572.952 97.5533 573.004 97.7073 573.097 97.81C573.2 97.9033 573.354 97.964 573.559 97.992L573.517 99.154C572.714 99.154 572.094 98.9813 571.655 98.636C570.908 98.9813 570.157 99.154 569.401 99.154C568.01 99.154 567.315 98.412 567.315 96.928C567.315 96.2187 567.502 95.7053 567.875 95.388C568.258 95.0707 568.841 94.8793 569.625 94.814L571.431 94.66V94.156C571.431 93.7827 571.347 93.5213 571.179 93.372C571.02 93.2227 570.782 93.148 570.465 93.148C569.868 93.148 569.121 93.1853 568.225 93.26L567.777 93.288L567.721 92.21C568.738 91.9673 569.672 91.846 570.521 91.846C571.38 91.846 571.996 92.0327 572.369 92.406C572.752 92.77 572.943 93.3533 572.943 94.156ZM569.807 95.892C569.163 95.948 568.841 96.298 568.841 96.942C568.841 97.586 569.126 97.908 569.695 97.908C570.162 97.908 570.656 97.8333 571.179 97.684L571.431 97.6V95.738L569.807 95.892ZM578.121 91.846C579.082 91.846 579.773 92.1167 580.193 92.658C580.622 93.19 580.837 94.1373 580.837 95.5C580.837 96.8627 580.585 97.8147 580.081 98.356C579.577 98.888 578.69 99.154 577.421 99.154C576.982 99.154 576.287 99.112 575.335 99.028L574.859 98.986V89.088H576.371V92.266C577.015 91.986 577.598 91.846 578.121 91.846ZM577.421 97.796C578.167 97.796 578.662 97.6233 578.905 97.278C579.157 96.9233 579.283 96.326 579.283 95.486C579.283 94.646 579.175 94.058 578.961 93.722C578.755 93.3767 578.415 93.204 577.939 93.204C577.491 93.204 577.043 93.274 576.595 93.414L576.371 93.484V97.74C576.884 97.7773 577.234 97.796 577.421 97.796ZM587.348 97.74L587.74 97.698L587.768 98.832C586.704 99.0467 585.762 99.154 584.94 99.154C583.904 99.154 583.158 98.8693 582.7 98.3C582.252 97.7307 582.028 96.8207 582.028 95.57C582.028 93.0873 583.041 91.846 585.066 91.846C587.026 91.846 588.006 92.9147 588.006 95.052L587.908 96.144H583.568C583.578 96.7227 583.704 97.1473 583.946 97.418C584.189 97.6887 584.642 97.824 585.304 97.824C585.967 97.824 586.648 97.796 587.348 97.74ZM586.508 94.968C586.508 94.2773 586.396 93.7967 586.172 93.526C585.958 93.246 585.589 93.106 585.066 93.106C584.544 93.106 584.161 93.2507 583.918 93.54C583.685 93.8293 583.564 94.3053 583.554 94.968H586.508ZM589.558 99V89.088H591.084V99H589.558ZM599.857 93.302H597.925V96.382C597.925 96.9513 597.967 97.3293 598.051 97.516C598.135 97.7027 598.35 97.796 598.695 97.796L599.843 97.754L599.913 98.972C599.288 99.0933 598.812 99.154 598.485 99.154C597.692 99.154 597.146 98.972 596.847 98.608C596.558 98.244 596.413 97.558 596.413 96.55V93.302H595.517V92H596.413V89.97H597.925V92H599.857V93.302ZM606.093 97.74L606.485 97.698L606.513 98.832C605.449 99.0467 604.506 99.154 603.685 99.154C602.649 99.154 601.902 98.8693 601.445 98.3C600.997 97.7307 600.773 96.8207 600.773 95.57C600.773 93.0873 601.785 91.846 603.811 91.846C605.771 91.846 606.751 92.9147 606.751 95.052L606.653 96.144H602.313C602.322 96.7227 602.448 97.1473 602.691 97.418C602.933 97.6887 603.386 97.824 604.049 97.824C604.711 97.824 605.393 97.796 606.093 97.74ZM605.253 94.968C605.253 94.2773 605.141 93.7967 604.917 93.526C604.702 93.246 604.333 93.106 603.811 93.106C603.288 93.106 602.905 93.2507 602.663 93.54C602.429 93.8293 602.308 94.3053 602.299 94.968H605.253ZM607.546 92H609.17L610.542 94.422L611.928 92H613.552L611.466 95.444L613.552 99H611.928L610.542 96.606L609.17 99H607.546L609.576 95.486L607.546 92ZM618.478 93.302H616.546V96.382C616.546 96.9513 616.588 97.3293 616.672 97.516C616.756 97.7027 616.971 97.796 617.316 97.796L618.464 97.754L618.534 98.972C617.909 99.0933 617.433 99.154 617.106 99.154C616.313 99.154 615.767 98.972 615.468 98.608C615.179 98.244 615.034 97.558 615.034 96.55V93.302H614.138V92H615.034V89.97H616.546V92H618.478V93.302Z" fill="white"/>
<path fill-rule="evenodd" clip-rule="evenodd" d="M641.666 90L635 86L628.333 90V98L635 102L641.666 98V90ZM629.002 97.5984V90.4016L635 86.8033L640.997 90.4016V97.5984L635 101.197L629.002 97.5984Z" fill="white"/>
</g>
<g opacity="0.2">
<rect x="520" y="74" width="139" height="40" rx="4" fill="#0066CC"/>
<path fill-rule="evenodd" clip-rule="evenodd" d="M550.666 90L544 86L537.333 90V98L544 102L550.666 98V90ZM538.002 97.5984V90.4016L544 86.8033L549.997 90.4016V97.5984L544 101.197L538.002 97.5984Z" fill="white"/>
<path d="M566.676 99H561.3V89.41H562.854V97.614H566.676V99ZM572.943 94.156V97.348C572.952 97.5533 573.004 97.7073 573.097 97.81C573.2 97.9033 573.354 97.964 573.559 97.992L573.517 99.154C572.714 99.154 572.094 98.9813 571.655 98.636C570.908 98.9813 570.157 99.154 569.401 99.154C568.01 99.154 567.315 98.412 567.315 96.928C567.315 96.2187 567.502 95.7053 567.875 95.388C568.258 95.0707 568.841 94.8793 569.625 94.814L571.431 94.66V94.156C571.431 93.7827 571.347 93.5213 571.179 93.372C571.02 93.2227 570.782 93.148 570.465 93.148C569.868 93.148 569.121 93.1853 568.225 93.26L567.777 93.288L567.721 92.21C568.738 91.9673 569.672 91.846 570.521 91.846C571.38 91.846 571.996 92.0327 572.369 92.406C572.752 92.77 572.943 93.3533 572.943 94.156ZM569.807 95.892C569.163 95.948 568.841 96.298 568.841 96.942C568.841 97.586 569.126 97.908 569.695 97.908C570.162 97.908 570.656 97.8333 571.179 97.684L571.431 97.6V95.738L569.807 95.892ZM578.121 91.846C579.082 91.846 579.773 92.1167 580.193 92.658C580.622 93.19 580.837 94.1373 580.837 95.5C580.837 96.8627 580.585 97.8147 580.081 98.356C579.577 98.888 578.69 99.154 577.421 99.154C576.982 99.154 576.287 99.112 575.335 99.028L574.859 98.986V89.088H576.371V92.266C577.015 91.986 577.598 91.846 578.121 91.846ZM577.421 97.796C578.167 97.796 578.662 97.6233 578.905 97.278C579.157 96.9233 579.283 96.326 579.283 95.486C579.283 94.646 579.175 94.058 578.961 93.722C578.755 93.3767 578.415 93.204 577.939 93.204C577.491 93.204 577.043 93.274 576.595 93.414L576.371 93.484V97.74C576.884 97.7773 577.234 97.796 577.421 97.796ZM587.348 97.74L587.74 97.698L587.768 98.832C586.704 99.0467 585.762 99.154 584.94 99.154C583.904 99.154 583.158 98.8693 582.7 98.3C582.252 97.7307 582.028 96.8207 582.028 95.57C582.028 93.0873 583.041 91.846 585.066 91.846C587.026 91.846 588.006 92.9147 588.006 95.052L587.908 96.144H583.568C583.578 96.7227 583.704 97.1473 583.946 97.418C584.189 97.6887 584.642 97.824 585.304 97.824C585.967 97.824 586.648 97.796 587.348 97.74ZM586.508 94.968C586.508 94.2773 586.396 93.7967 586.172 93.526C585.958 93.246 585.589 93.106 585.066 93.106C584.544 93.106 584.161 93.2507 583.918 93.54C583.685 93.8293 583.564 94.3053 583.554 94.968H586.508ZM589.558 99V89.088H591.084V99H589.558ZM599.857 93.302H597.925V96.382C597.925 96.9513 597.967 97.3293 598.051 97.516C598.135 97.7027 598.35 97.796 598.695 97.796L599.843 97.754L599.913 98.972C599.288 99.0933 598.812 99.154 598.485 99.154C597.692 99.154 597.146 98.972 596.847 98.608C596.558 98.244 596.413 97.558 596.413 96.55V93.302H595.517V92H596.413V89.97H597.925V92H599.857V93.302ZM606.093 97.74L606.485 97.698L606.513 98.832C605.449 99.0467 604.506 99.154 603.685 99.154C602.649 99.154 601.902 98.8693 601.445 98.3C600.997 97.7307 600.773 96.8207 600.773 95.57C600.773 93.0873 601.785 91.846 603.811 91.846C605.771 91.846 606.751 92.9147 606.751 95.052L606.653 96.144H602.313C602.322 96.7227 602.448 97.1473 602.691 97.418C602.933 97.6887 603.386 97.824 604.049 97.824C604.711 97.824 605.393 97.796 606.093 97.74ZM605.253 94.968C605.253 94.2773 605.141 93.7967 604.917 93.526C604.702 93.246 604.333 93.106 603.811 93.106C603.288 93.106 602.905 93.2507 602.663 93.54C602.429 93.8293 602.308 94.3053 602.299 94.968H605.253ZM607.546 92H609.17L610.542 94.422L611.928 92H613.552L611.466 95.444L613.552 99H611.928L610.542 96.606L609.17 99H607.546L609.576 95.486L607.546 92ZM618.478 93.302H616.546V96.382C616.546 96.9513 616.588 97.3293 616.672 97.516C616.756 97.7027 616.971 97.796 617.316 97.796L618.464 97.754L618.534 98.972C617.909 99.0933 617.433 99.154 617.106 99.154C616.313 99.154 615.767 98.972 615.468 98.608C615.179 98.244 615.034 97.558 615.034 96.55V93.302H614.138V92H615.034V89.97H616.546V92H618.478V93.302Z" fill="white"/>
<path fill-rule="evenodd" clip-rule="evenodd" d="M641.666 90L635 86L628.333 90V98L635 102L641.666 98V90ZM629.002 97.5984V90.4016L635 86.8033L640.997 90.4016V97.5984L635 101.197L629.002 97.5984Z" fill="white"/>
</g>
<rect x="519.5" y="73.5" width="140" height="41" stroke="#0D69D4"/>
<rect x="552" y="86" width="8" height="16" fill="#C54600" fill-opacity="0.3"/>
<line x1="552.5" y1="58" x2="552.5" y2="114" stroke="#C54600"/>
<line x1="559.5" y1="58" x2="559.5" y2="114" stroke="#C54600"/>
<path d="M555.963 54.1193C555.307 54.1193 554.723 54.0128 554.212 53.7997C553.703 53.5838 553.304 53.2898 553.014 52.9176C552.724 52.5455 552.58 52.1236 552.58 51.652C552.58 51.2884 552.662 50.9545 552.827 50.6506C552.994 50.3438 553.222 50.0895 553.509 49.8878C553.795 49.6832 554.116 49.5526 554.472 49.4957V49.4361C554.006 49.3423 553.628 49.1165 553.338 48.7585C553.048 48.3977 552.903 47.9787 552.903 47.5014C552.903 47.0497 553.036 46.6477 553.3 46.2955C553.564 45.9403 553.926 45.6619 554.386 45.4602C554.849 45.2557 555.375 45.1534 555.963 45.1534C556.551 45.1534 557.075 45.2557 557.536 45.4602C557.999 45.6648 558.362 45.9446 558.626 46.2997C558.891 46.652 559.024 47.0526 559.027 47.5014C559.024 47.9815 558.876 48.4006 558.584 48.7585C558.291 49.1165 557.916 49.3423 557.459 49.4361V49.4957C557.808 49.5526 558.125 49.6832 558.409 49.8878C558.696 50.0895 558.923 50.3438 559.091 50.6506C559.261 50.9545 559.348 51.2884 559.351 51.652C559.348 52.1236 559.202 52.5455 558.912 52.9176C558.622 53.2898 558.222 53.5838 557.71 53.7997C557.202 54.0128 556.619 54.1193 555.963 54.1193ZM555.963 52.7642C556.256 52.7642 556.511 52.7116 556.73 52.6065C556.949 52.4986 557.119 52.3509 557.241 52.1634C557.366 51.973 557.429 51.7543 557.429 51.5071C557.429 51.2543 557.365 51.0312 557.237 50.8381C557.109 50.642 556.936 50.4886 556.717 50.3778C556.499 50.2642 556.247 50.2074 555.963 50.2074C555.682 50.2074 555.43 50.2642 555.209 50.3778C554.987 50.4886 554.813 50.642 554.685 50.8381C554.56 51.0312 554.497 51.2543 554.497 51.5071C554.497 51.7543 554.558 51.973 554.68 52.1634C554.803 52.3509 554.974 52.4986 555.196 52.6065C555.418 52.7116 555.673 52.7642 555.963 52.7642ZM555.963 48.8651C556.207 48.8651 556.425 48.8153 556.615 48.7159C556.805 48.6165 556.955 48.4787 557.062 48.3026C557.17 48.1264 557.224 47.9233 557.224 47.6932C557.224 47.4659 557.17 47.267 557.062 47.0966C556.955 46.9233 556.807 46.7884 556.619 46.6918C556.432 46.5923 556.213 46.5426 555.963 46.5426C555.716 46.5426 555.497 46.5923 555.307 46.6918C555.116 46.7884 554.967 46.9233 554.859 47.0966C554.754 47.267 554.702 47.4659 554.702 47.6932C554.702 47.9233 554.756 48.1264 554.864 48.3026C554.972 48.4787 555.121 48.6165 555.311 48.7159C555.501 48.8153 555.719 48.8651 555.963 48.8651Z" fill="#C54600"/>
<rect x="536" y="86" width="16" height="16" fill="#0D69D4" fill-opacity="0.2"/>
<rect x="619" y="86" width="8" height="16" fill="#C54600" fill-opacity="0.3"/>
<line x1="619.5" y1="58" x2="619.5" y2="114" stroke="#C54600"/>
<line x1="626.5" y1="58" x2="626.5" y2="114" stroke="#C54600"/>
<path d="M622.963 54.1193C622.307 54.1193 621.723 54.0128 621.212 53.7997C620.703 53.5838 620.304 53.2898 620.014 52.9176C619.724 52.5455 619.58 52.1236 619.58 51.652C619.58 51.2884 619.662 50.9545 619.827 50.6506C619.994 50.3438 620.222 50.0895 620.509 49.8878C620.795 49.6832 621.116 49.5526 621.472 49.4957V49.4361C621.006 49.3423 620.628 49.1165 620.338 48.7585C620.048 48.3977 619.903 47.9787 619.903 47.5014C619.903 47.0497 620.036 46.6477 620.3 46.2955C620.564 45.9403 620.926 45.6619 621.386 45.4602C621.849 45.2557 622.375 45.1534 622.963 45.1534C623.551 45.1534 624.075 45.2557 624.536 45.4602C624.999 45.6648 625.362 45.9446 625.626 46.2997C625.891 46.652 626.024 47.0526 626.027 47.5014C626.024 47.9815 625.876 48.4006 625.584 48.7585C625.291 49.1165 624.916 49.3423 624.459 49.4361V49.4957C624.808 49.5526 625.125 49.6832 625.409 49.8878C625.696 50.0895 625.923 50.3438 626.091 50.6506C626.261 50.9545 626.348 51.2884 626.351 51.652C626.348 52.1236 626.202 52.5455 625.912 52.9176C625.622 53.2898 625.222 53.5838 624.71 53.7997C624.202 54.0128 623.619 54.1193 622.963 54.1193ZM622.963 52.7642C623.256 52.7642 623.511 52.7116 623.73 52.6065C623.949 52.4986 624.119 52.3509 624.241 52.1634C624.366 51.973 624.429 51.7543 624.429 51.5071C624.429 51.2543 624.365 51.0312 624.237 50.8381C624.109 50.642 623.936 50.4886 623.717 50.3778C623.499 50.2642 623.247 50.2074 622.963 50.2074C622.682 50.2074 622.43 50.2642 622.209 50.3778C621.987 50.4886 621.813 50.642 621.685 50.8381C621.56 51.0312 621.497 51.2543 621.497 51.5071C621.497 51.7543 621.558 51.973 621.68 52.1634C621.803 52.3509 621.974 52.4986 622.196 52.6065C622.418 52.7116 622.673 52.7642 622.963 52.7642ZM622.963 48.8651C623.207 48.8651 623.425 48.8153 623.615 48.7159C623.805 48.6165 623.955 48.4787 624.062 48.3026C624.17 48.1264 624.224 47.9233 624.224 47.6932C624.224 47.4659 624.17 47.267 624.062 47.0966C623.955 46.9233 623.807 46.7884 623.619 46.6918C623.432 46.5923 623.213 46.5426 622.963 46.5426C622.716 46.5426 622.497 46.5923 622.307 46.6918C622.116 46.7884 621.967 46.9233 621.859 47.0966C621.754 47.267 621.702 47.4659 621.702 47.6932C621.702 47.9233 621.756 48.1264 621.864 48.3026C621.972 48.4787 622.121 48.6165 622.311 48.7159C622.501 48.8153 622.719 48.8651 622.963 48.8651Z" fill="#C54600"/>
<rect x="560" y="86" width="59" height="16" fill="#0D69D4" fill-opacity="0.2"/>
<rect x="627" y="86" width="16" height="16" fill="#0D69D4" fill-opacity="0.2"/>
<rect x="520" y="74" width="139" height="12" fill="#007D00" fill-opacity="0.3"/>
<line x1="504" y1="74.5" x2="659" y2="74.5" stroke="#007D00"/>
<line x1="504" y1="85.5" x2="659" y2="85.5" stroke="#007D00"/>
<path d="M490.504 75.2727V84H488.659V77.0241H488.608L486.609 78.277V76.6406L488.77 75.2727H490.504ZM492.578 84V82.6705L495.685 79.794C495.949 79.5384 496.171 79.3082 496.35 79.1037C496.532 78.8991 496.669 78.6989 496.763 78.5028C496.857 78.304 496.904 78.0895 496.904 77.8594C496.904 77.6037 496.846 77.3835 496.729 77.1989C496.613 77.0114 496.453 76.8679 496.252 76.7685C496.05 76.6662 495.821 76.6151 495.566 76.6151C495.299 76.6151 495.066 76.669 494.867 76.777C494.668 76.8849 494.515 77.0398 494.407 77.2415C494.299 77.4432 494.245 77.6832 494.245 77.9616H492.493C492.493 77.3906 492.623 76.8949 492.881 76.4744C493.14 76.054 493.502 75.7287 493.968 75.4986C494.434 75.2685 494.971 75.1534 495.578 75.1534C496.203 75.1534 496.748 75.2642 497.211 75.4858C497.676 75.7045 498.039 76.0085 498.297 76.3977C498.556 76.7869 498.685 77.233 498.685 77.7358C498.685 78.0653 498.62 78.3906 498.489 78.7116C498.361 79.0327 498.132 79.3892 497.803 79.7812C497.473 80.1705 497.009 80.6378 496.409 81.1832L495.135 82.4318V82.4915H498.8V84H492.578Z" fill="#007D00"/>
<rect x="520" y="102" width="139" height="12" fill="#007D00" fill-opacity="0.3"/>
<line x1="504" y1="102.5" x2="659" y2="102.5" stroke="#007D00"/>
<line x1="504" y1="113.5" x2="659" y2="113.5" stroke="#007D00"/>
<path d="M490.504 103.273V112H488.659V105.024H488.608L486.609 106.277V104.641L488.77 103.273H490.504ZM492.578 112V110.67L495.685 107.794C495.949 107.538 496.171 107.308 496.35 107.104C496.532 106.899 496.669 106.699 496.763 106.503C496.857 106.304 496.904 106.089 496.904 105.859C496.904 105.604 496.846 105.384 496.729 105.199C496.613 105.011 496.453 104.868 496.252 104.768C496.05 104.666 495.821 104.615 495.566 104.615C495.299 104.615 495.066 104.669 494.867 104.777C494.668 104.885 494.515 105.04 494.407 105.241C494.299 105.443 494.245 105.683 494.245 105.962H492.493C492.493 105.391 492.623 104.895 492.881 104.474C493.14 104.054 493.502 103.729 493.968 103.499C494.434 103.268 494.971 103.153 495.578 103.153C496.203 103.153 496.748 103.264 497.211 103.486C497.676 103.705 498.039 104.009 498.297 104.398C498.556 104.787 498.685 105.233 498.685 105.736C498.685 106.065 498.62 106.391 498.489 106.712C498.361 107.033 498.132 107.389 497.803 107.781C497.473 108.17 497.009 108.638 496.409 109.183L495.135 110.432V110.491H498.8V112H492.578Z" fill="#007D00"/>
<rect x="520" y="86" width="16" height="16" fill="#007D00" fill-opacity="0.3"/>
<line x1="520.5" y1="58" x2="520.5" y2="114" stroke="#007D00"/>
<line x1="535.5" y1="58" x2="535.5" y2="114" stroke="#007D00"/>
<path d="M525.504 45.2727V54H523.659V47.0241H523.608L521.609 48.277V46.6406L523.77 45.2727H525.504ZM530.928 54.1193C530.479 54.1165 530.046 54.0412 529.628 53.8935C529.213 53.7457 528.841 53.5057 528.512 53.1733C528.182 52.8409 527.921 52.4006 527.728 51.8523C527.537 51.304 527.442 50.6307 527.442 49.8324C527.445 49.0994 527.529 48.4446 527.694 47.8679C527.861 47.2884 528.1 46.7969 528.409 46.3935C528.722 45.9901 529.096 45.6832 529.53 45.473C529.965 45.2599 530.452 45.1534 530.992 45.1534C531.574 45.1534 532.088 45.267 532.534 45.4943C532.98 45.7187 533.338 46.0241 533.608 46.4105C533.881 46.7969 534.046 47.2301 534.103 47.7102H532.283C532.212 47.4062 532.063 47.1676 531.836 46.9943C531.608 46.821 531.327 46.7344 530.992 46.7344C530.424 46.7344 529.992 46.9815 529.696 47.4759C529.404 47.9702 529.255 48.642 529.249 49.4915H529.309C529.439 49.233 529.615 49.0128 529.837 48.831C530.061 48.6463 530.316 48.5057 530.6 48.4091C530.887 48.3097 531.189 48.2599 531.507 48.2599C532.025 48.2599 532.485 48.3821 532.888 48.6264C533.292 48.8679 533.61 49.2003 533.843 49.6236C534.076 50.0469 534.192 50.5312 534.192 51.0767C534.192 51.6676 534.054 52.1932 533.779 52.6534C533.506 53.1136 533.124 53.4744 532.632 53.7358C532.144 53.9943 531.576 54.1222 530.928 54.1193ZM530.919 52.6705C531.203 52.6705 531.458 52.6023 531.682 52.4659C531.907 52.3295 532.083 52.1449 532.211 51.9119C532.338 51.679 532.402 51.4176 532.402 51.1278C532.402 50.8381 532.338 50.5781 532.211 50.348C532.086 50.1179 531.912 49.9347 531.691 49.7983C531.469 49.6619 531.216 49.5938 530.932 49.5938C530.719 49.5938 530.522 49.6335 530.34 49.7131C530.161 49.7926 530.003 49.9034 529.867 50.0455C529.733 50.1875 529.628 50.3523 529.551 50.5398C529.475 50.7244 529.436 50.9219 529.436 51.1321C529.436 51.4134 529.5 51.6705 529.628 51.9034C529.759 52.1364 529.935 52.3224 530.157 52.4616C530.381 52.6009 530.635 52.6705 530.919 52.6705Z" fill="#007D00"/>
<rect x="643" y="86" width="16" height="16" fill="#007D00" fill-opacity="0.3"/>
<line x1="643.5" y1="58" x2="643.5" y2="114" stroke="#007D00"/>
<line x1="658.5" y1="58" x2="658.5" y2="114" stroke="#007D00"/>
<path d="M648.504 45.2727V54H646.659V47.0241H646.608L644.609 48.277V46.6406L646.77 45.2727H648.504ZM653.928 54.1193C653.479 54.1165 653.046 54.0412 652.628 53.8935C652.213 53.7457 651.841 53.5057 651.512 53.1733C651.182 52.8409 650.921 52.4006 650.728 51.8523C650.537 51.304 650.442 50.6307 650.442 49.8324C650.445 49.0994 650.529 48.4446 650.694 47.8679C650.861 47.2884 651.1 46.7969 651.409 46.3935C651.722 45.9901 652.096 45.6832 652.53 45.473C652.965 45.2599 653.452 45.1534 653.992 45.1534C654.574 45.1534 655.088 45.267 655.534 45.4943C655.98 45.7187 656.338 46.0241 656.608 46.4105C656.881 46.7969 657.046 47.2301 657.103 47.7102H655.283C655.212 47.4062 655.063 47.1676 654.836 46.9943C654.608 46.821 654.327 46.7344 653.992 46.7344C653.424 46.7344 652.992 46.9815 652.696 47.4759C652.404 47.9702 652.255 48.642 652.249 49.4915H652.309C652.439 49.233 652.615 49.0128 652.837 48.831C653.061 48.6463 653.316 48.5057 653.6 48.4091C653.887 48.3097 654.189 48.2599 654.507 48.2599C655.025 48.2599 655.485 48.3821 655.888 48.6264C656.292 48.8679 656.61 49.2003 656.843 49.6236C657.076 50.0469 657.192 50.5312 657.192 51.0767C657.192 51.6676 657.054 52.1932 656.779 52.6534C656.506 53.1136 656.124 53.4744 655.632 53.7358C655.144 53.9943 654.576 54.1222 653.928 54.1193ZM653.919 52.6705C654.203 52.6705 654.458 52.6023 654.682 52.4659C654.907 52.3295 655.083 52.1449 655.211 51.9119C655.338 51.679 655.402 51.4176 655.402 51.1278C655.402 50.8381 655.338 50.5781 655.211 50.348C655.086 50.1179 654.912 49.9347 654.691 49.7983C654.469 49.6619 654.216 49.5938 653.932 49.5938C653.719 49.5938 653.522 49.6335 653.34 49.7131C653.161 49.7926 653.003 49.9034 652.867 50.0455C652.733 50.1875 652.628 50.3523 652.551 50.5398C652.475 50.7244 652.436 50.9219 652.436 51.1321C652.436 51.4134 652.5 51.6705 652.628 51.9034C652.759 52.1364 652.935 52.3224 653.157 52.4616C653.381 52.6009 653.635 52.6705 653.919 52.6705Z" fill="#007D00"/>
</g>
</g>
<defs>
<clipPath id="clip0_5820_14748">
<rect width="800" height="188" fill="white"/>
</clipPath>
<clipPath id="clip1_5820_14748">
<rect width="800" height="188" fill="white"/>
</clipPath>
<clipPath id="clip2_5820_14748">
<rect width="116" height="159" fill="white"/>
</clipPath>
<clipPath id="clip3_5820_14748">
<rect width="116" height="159" fill="white"/>
</clipPath>
<clipPath id="clip4_5820_14748">
<rect width="116" height="20" fill="white"/>
</clipPath>
<clipPath id="clip5_5820_14748">
<rect width="111" height="131" fill="white" transform="translate(0 28)"/>
</clipPath>
<clipPath id="clip6_5820_14748">
<rect width="88" height="23" fill="white" transform="translate(0 28)"/>
</clipPath>
<clipPath id="clip7_5820_14748">
<rect width="89" height="23" fill="white" transform="translate(0 55)"/>
</clipPath>
<clipPath id="clip8_5820_14748">
<rect width="111" height="23" fill="white" transform="translate(0 82)"/>
</clipPath>
<clipPath id="clip9_5820_14748">
<rect width="90" height="23" fill="white" transform="translate(0 109)"/>
</clipPath>
<clipPath id="clip10_5820_14748">
<rect width="98" height="23" fill="white" transform="translate(0 136)"/>
</clipPath>
</defs>
</svg>
