<svg xmlns="http://www.w3.org/2000/svg" viewBox="0 0 160 160"><defs><style>.cls-1{fill:#f0f6fc;}.cls-2{fill:#fff;}.cls-3{fill:#365066;}.cls-4{fill:#80b9f2;}.cls-5{fill:#2079d4;}.cls-6{fill:#50a7ef;}.cls-7{fill:none;}</style></defs><g id="privacy_"><path class="cls-1" d="M79,150A70,70,0,1,0,9,80,70,70,0,0,0,79,150Z"/><polygon class="cls-2" points="16.49 44.78 16.49 126.63 87.51 126.63 87.51 33.65 27.51 33.65 16.49 44.78"/><path class="cls-3" d="M89,128.14H15v-83l12.94-13H89Zm-71-3H86v-90H27.94l-10,10Z"/><path class="cls-4" d="M47.31,102.25H44.54v-4.8a7.55,7.55,0,0,0-15.08,0v4.07H26.69V97.45A10.09,10.09,0,0,1,37,87.62a10.09,10.09,0,0,1,10.31,9.83Z"/><rect class="cls-5" x="24" y="101.08" width="26" height="17.92" rx="0.45"/><circle class="cls-2" cx="37.06" cy="107.67" r="2.37"/><circle class="cls-2" cx="37.06" cy="110.99" r="2.37"/><path class="cls-2" d="M134.5,130.64a4,4,0,0,1-2.83-1.17l-24.88-24.89,5.65-5.66,24.89,24.89a4,4,0,0,1-2.83,6.83Z"/><path class="cls-3" d="M112.44,101.05l23.83,23.82a2.5,2.5,0,0,1-3.54,3.54l-23.82-23.83,3.53-3.53m0-4.25-7.78,7.78,26,26a5.5,5.5,0,1,0,7.78-7.78L112.44,96.8Z"/><path class="cls-2" d="M91.39,114.56A33.43,33.43,0,0,1,58,83c0-.64-.06-1.28-.06-1.91a33.5,33.5,0,1,1,33.5,33.5Z"/><path class="cls-3" d="M91.39,49.06A32,32,0,1,1,60.23,88.38a32.66,32.66,0,0,1-.79-5.51c0-.59,0-1.21,0-1.81a32,32,0,0,1,32-32Zm0-3a35,35,0,0,0-35,35c0,.66,0,1.33.06,2a35,35,0,1,0,34.94-37Z"/><circle class="cls-6" cx="91" cy="67.14" r="10"/><path class="cls-6" d="M104,104.14H78V90.85A10.7,10.7,0,0,1,88.71,80.14h4.58A10.7,10.7,0,0,1,104,90.85Z"/><rect class="cls-6" x="24" y="56" width="33" height="5"/><rect class="cls-6" x="24" y="64" width="26" height="5"/><polyline class="cls-3" points="28 32.14 28 45.14 15 45.14"/><rect class="cls-7" width="160" height="160"/></g></svg>