<svg xmlns="http://www.w3.org/2000/svg" viewBox="0 0 120 120"><defs><style>.cls-1{fill:#365066;}.cls-2{fill:none;}</style></defs><g id="introduz_design_servizi" data-name="introduz design servizi"><path class="cls-1" d="M81.64,35.72a1.7,1.7,0,0,0-1.86-1.86L65.65,35.71l-.05,0-2.13,2.12L40.85,60.51,39.76,61.6l-.27.27a.47.47,0,0,0-.06.09,8.45,8.45,0,0,0,.33,11.6l2.18,2.18a8.44,8.44,0,0,0,11.57.35l.1,0,.29-.3L55,74.65,77.62,52l2.12-2.13.05,0ZM44.06,73.62l-2.18-2.18A5.47,5.47,0,0,1,41,64.89l9.62,9.62A5.47,5.47,0,0,1,44.06,73.62Zm8.81-1.09L43,62.63,65.6,40l9.9,9.9ZM68.23,38.39l10.21-1.33L77.11,47.27ZM48.63,65.46,46.5,63.34,64.89,45,67,47.08ZM61.5,15V10.5a1.5,1.5,0,0,0-3,0V15H10V86.6A5.4,5.4,0,0,0,15.4,92H58.5v17h3V92h43.1a5.4,5.4,0,0,0,5.4-5.4V15ZM107,86.6a2.41,2.41,0,0,1-2.4,2.4H15.4A2.41,2.41,0,0,1,13,86.6V18h94ZM64.53,92H68l11,18-3.37,0ZM42,110,53,92h3.62L45.48,110Z"/><rect class="cls-2" width="120" height="120"/></g></svg>