<svg xmlns="http://www.w3.org/2000/svg" viewBox="0 0 120 120"><defs><style>.cls-1{fill:#365066;}.cls-2{fill:none;}</style></defs><g id="gestione_progetto-2" data-name="gestione progetto"><path class="cls-1" d="M100,81v.07A6.63,6.63,0,0,0,99,81Z"/><path class="cls-1" d="M99,97a8.26,8.26,0,0,0,1-.06V97Z"/><path class="cls-1" d="M103,8a10.61,10.61,0,0,0-3,.42V20H6v80h97a11,11,0,0,0,11-11V19A11,11,0,0,0,103,8Zm1,88.94a8.26,8.26,0,0,1-1,.06H9V23h91V81h3a6.63,6.63,0,0,1,1,.07,8,8,0,0,1,0,15.87Zm7-15.49A10.92,10.92,0,0,0,103,78V11a8,8,0,0,1,8,8Z"/><rect class="cls-1" x="42.5" y="20.5" width="3" height="40" transform="translate(3.5 84.5) rotate(-90)"/><rect class="cls-1" x="42.5" y="29.5" width="3" height="40" transform="translate(-5.5 93.5) rotate(-90)"/><rect class="cls-1" x="35.5" y="45.5" width="3" height="26" transform="translate(-21.5 95.5) rotate(-90)"/><path class="cls-1" d="M61,72v9H27V72H61m3-3H24V84H64V69Z"/><rect class="cls-2" width="120" height="120"/></g></svg>