<svg xmlns="http://www.w3.org/2000/svg" viewBox="0 0 120 120"><defs><style>.cls-1{fill:none;}.cls-2{fill:#ffffff;}</style></defs><g id="progettaz_serv_desig_research" data-name="progettaz serv/desig research"><rect class="cls-1" width="120" height="120"/></g><g id="progettazione_servizi" data-name="progettazione servizi"><path class="cls-2" d="M31.13,92a8.5,8.5,0,1,0-8.5-8.5A8.49,8.49,0,0,0,31.13,92Zm0-14a5.5,5.5,0,1,1-5.5,5.5A5.5,5.5,0,0,1,31.13,78Z"/><path class="cls-2" d="M31.92,95H30.35a10.23,10.23,0,0,0-10.22,10.22V114h22v-8.78A10.22,10.22,0,0,0,31.92,95Zm7.21,16h-16v-5.78A7.23,7.23,0,0,1,30.35,98h1.57a7.22,7.22,0,0,1,7.21,7.22Z"/><path class="cls-2" d="M60,92a8.5,8.5,0,1,0-8.5-8.5A8.5,8.5,0,0,0,60,92Zm0-14a5.5,5.5,0,1,1-5.5,5.5A5.51,5.51,0,0,1,60,78Z"/><path class="cls-2" d="M60.78,95H59.22A10.22,10.22,0,0,0,49,105.25V114H71v-8.78A10.22,10.22,0,0,0,60.78,95ZM68,111H52v-5.78A7.23,7.23,0,0,1,59.22,98h1.56A7.23,7.23,0,0,1,68,105.25Z"/><path class="cls-2" d="M89.13,92a8.5,8.5,0,1,0-8.5-8.5A8.49,8.49,0,0,0,89.13,92Zm0-14a5.5,5.5,0,1,1-5.5,5.5A5.5,5.5,0,0,1,89.13,78Z"/><path class="cls-2" d="M89.92,95H88.35a10.23,10.23,0,0,0-10.22,10.22V114h22v-8.78A10.22,10.22,0,0,0,89.92,95Zm7.21,16h-16v-5.78A7.23,7.23,0,0,1,88.35,98h1.57a7.22,7.22,0,0,1,7.21,7.22Z"/><rect class="cls-2" x="58.5" y="57" width="3" height="12"/><rect class="cls-2" x="38.53" y="52.05" width="3" height="18" transform="translate(54.89 -10.43) rotate(45)"/><rect class="cls-2" x="78.51" y="52.05" width="3" height="18" transform="translate(-19.73 74.46) rotate(-45)"/><path class="cls-2" d="M71.7,27.94a11.73,11.73,0,0,0-23.4,0c0,.27,0,.55,0,.83a11.68,11.68,0,0,0,.37,2.92c0,.17.08.33.13.49,0,0,2,4.43,2.46,6,.27.89.59,2.32.9,3.82V42h0c.61,2.89,1.16,6,1.16,6H66.7s1.29-7.29,2.08-9.92c.46-1.54,2.45-5.94,2.45-5.94.08-.27.09-.32.13-.49a11.68,11.68,0,0,0,.37-2.92C71.73,28.49,71.72,28.21,71.7,27.94ZM55.8,45c-.17-.9-.38-1.95-.59-3h9.58c-.21,1.06-.42,2.11-.59,3ZM68.45,31l0,.19c-.43,1-2,4.59-2.5,6.13-.14.47-.29,1.08-.45,1.76H54.56c-.16-.66-.31-1.26-.45-1.72-.47-1.56-2.09-5.22-2.52-6.18,0-.06,0-.12-.05-.2a8.58,8.58,0,0,1-.27-2.16c0-.23,0-.41,0-.56v-.07a8.72,8.72,0,0,1,17.4,0v.07c0,.16,0,.34,0,.56A8.41,8.41,0,0,1,68.45,31Zm-7,3.58V39h-3v-4.5a1.5,1.5,0,0,1,3,0ZM60,6a1.5,1.5,0,0,1,1.5,1.5v3a1.5,1.5,0,1,1-3,0v-3A1.5,1.5,0,0,1,60,6ZM49.63,8.3a1.49,1.49,0,0,1,1.3.75l2,3.46a1.49,1.49,0,0,1-.55,2.05,1.42,1.42,0,0,1-.74.2,1.49,1.49,0,0,1-1.3-.75l-2-3.46a1.5,1.5,0,0,1,.54-2.05,1.48,1.48,0,0,1,.75-.2Zm22.3,2.25h0M70.64,8.3a1.49,1.49,0,0,0-1.3.75l-2,3.46a1.5,1.5,0,0,0,.54,2.05A1.5,1.5,0,0,0,69.93,14l2-3.46a1.49,1.49,0,0,0-.55-2.05,1.42,1.42,0,0,0-.74-.2Z"/><rect class="cls-1" width="120" height="120"/></g></svg>
