<svg xmlns="http://www.w3.org/2000/svg" viewBox="0 0 120 120"><defs><style>.cls-1{fill:none;}.cls-2{fill:#ffffff;}</style></defs><g id="progettaz_serv_desig_research" data-name="progettaz serv/desig research"><rect class="cls-1" width="120" height="120"/></g><g id="prove_applicative" data-name="prove applicative"><path class="cls-2" d="M83.1,14l0,0v0Z"/><path class="cls-2" d="M83.1,13.06l0,0v0Z"/></g><g id="user_research" data-name="user research"><path class="cls-2" d="M93.23,55.52A31,31,0,0,0,47.37,15H32.24A6.21,6.21,0,0,0,26,21.19V75.62L9.65,92l2.09,2.09L26,79.8v28A6.21,6.21,0,0,0,32.24,114H83V99h21ZM48.47,18a27.35,27.35,0,0,1,4.07-3,28,28,0,0,1,29,0,22.59,22.59,0,0,1,2,1.36,27.21,27.21,0,0,1,3.28,2.81,28,28,0,0,1,5.36,32.1A25.91,25.91,0,0,1,90,55,28,28,0,1,1,47.23,19.17C47.63,18.77,48,18.38,48.47,18ZM29,21.19A3.22,3.22,0,0,1,32.24,18h12A31,31,0,0,0,43,58.6l-14,14ZM80,96v15H32.24A3.22,3.22,0,0,1,29,107.81v-31l16-16,.09.1a31,31,0,0,0,43.84,0c.71-.71,1.37-1.44,2-2.19L100.17,96Z"/><path class="cls-2" d="M67,32a7,7,0,1,0,7,7A7,7,0,0,0,67,32Zm0,11.08A4.08,4.08,0,1,1,71.1,39,4.08,4.08,0,0,1,67,43.05Z"/><path class="cls-2" d="M88.52,38.48c-.4-.52-9.38-12-20.64-12h-.16c-.48,0-12.2-1-22.2,12h0c9.14,11.87,20,13,22,13h.16c11.35,0,20.48-12.5,20.88-13Zm-21.29,10H67.1c-.38,0-9-.18-17.58-10,8.56-9.83,17.66-9,18.13-9h.13c7.45,0,13.7,5.78,16.74,9C81.47,41.69,74.75,48.48,67.23,48.48Z"/></g></svg>
