<svg xmlns="http://www.w3.org/2000/svg" viewBox="0 0 120 120"><defs><style>.cls-1{fill:none;}.cls-2{fill:#365066;}</style></defs><g id="progettaz_serv_desig_research" data-name="progettaz serv/desig research"><rect class="cls-1" width="120" height="120"/></g><g id="content_design" data-name="content design"><path class="cls-2" d="M5.9,100h51V64H5.9Zm6.17-3L22.9,83.22,33.73,97Zm28.65,0,5.36-8.41L51.43,97ZM8.9,67h45V95.32L46.08,83,37.34,96.76,22.9,78.36,8.9,96.21Z"/><path class="cls-2" d="M5.9,56h51V20H5.9Zm3-33h45V53H8.9Z"/><path class="cls-2" d="M64.9,20v80h49V20Zm46,77h-43V23h43Z"/><polygon class="cls-2" points="27.91 43.14 35.91 38.14 27.91 33.14 27.91 43.14"/><rect class="cls-2" x="76.9" y="37.03" width="19.5" height="3"/><rect class="cls-2" x="76.9" y="47.03" width="26" height="3"/><rect class="cls-2" x="76.9" y="57.03" width="15.6" height="3"/><circle class="cls-2" cx="36.15" cy="77.78" r="3.75"/></g></svg>