<svg xmlns="http://www.w3.org/2000/svg" viewBox="0 0 120 120"><defs><style>.cls-1,.cls-3,.cls-4,.cls-5{fill:none;}.cls-2{opacity:0.5;}.cls-3,.cls-4{stroke:#cd16f9;}.cls-3,.cls-4,.cls-5{stroke-width:0.13px;}.cls-4{stroke-linecap:square;}.cls-5{stroke:#1c64f4;}.cls-6{fill:#365066;}</style></defs><g id="ESPERIENZA_UTENTE-2" data-name="ESPERIENZA UTENTE"><rect class="cls-1" width="120" height="120"/><path class="cls-6" d="M72.59,16,92.17,95H72v16l-46.68,0A3.32,3.32,0,0,1,22,107.72V19.34A3.32,3.32,0,0,1,25.32,16H72.59m2.34-3H25.32A6.32,6.32,0,0,0,19,19.34v88.38A6.31,6.31,0,0,0,25.32,114L75,114V98H96L74.93,13Z"/><path class="cls-6" d="M62.44,31.56h0a5.55,5.55,0,0,1,5,3.42c1.26,2.81.49,6.14-2.13,9.14L54.07,55.38,42.87,44.19c-2.66-2.77-3.49-6-2.3-8.8a5.86,5.86,0,0,1,5.31-3.66c2,0,4.17,1.09,6.13,3.17l2.24,2.36,2.18-2.43c1.91-2.14,4-3.27,6-3.27m0-3c-2.64,0-5.56,1.26-8.25,4.27-2.75-2.9-5.67-4.1-8.31-4.1-7.49,0-12.68,9.73-5.15,17.56L54.07,59.63,67.53,46.17C74.8,38,69.67,28.56,62.44,28.56Z"/><polygon class="cls-6" points="102.39 21.2 92 27.2 93.5 29.8 103.89 23.8 102.39 21.2 102.39 21.2"/><polygon class="cls-6" points="106 41 94 41 94 44 106 44 106 41 106 41"/><polygon class="cls-6" points="93.5 54.2 92 56.8 102.39 62.8 103.89 60.2 93.5 54.2 93.5 54.2"/></g></svg>
