<svg width="615" height="572" viewBox="0 0 615 572" fill="none" xmlns="http://www.w3.org/2000/svg">
<g clip-path="url(#clip0_2107_452)">
<path d="M112.469 144.772C112.508 144.381 112.46 143.986 112.328 143.616C112.196 143.246 111.983 142.91 111.705 142.632C111.427 142.354 111.091 142.142 110.721 142.01C110.351 141.877 109.956 141.829 109.565 141.868L87.5032 144.756H87.4251L84.0994 148.066L48.7813 183.478L47.0795 185.18L46.6579 185.602C46.6214 185.645 46.5899 185.692 46.5642 185.742C44.3214 188.256 43.1253 191.533 43.2211 194.901C43.3169 198.268 44.6974 201.472 47.0795 203.854L50.4832 207.258C52.8575 209.634 56.0496 211.014 59.4073 211.116C62.765 211.217 66.0347 210.033 68.5482 207.804H68.7044L69.1571 207.336L70.8746 205.556L106.193 170.191L109.503 166.865H109.581L112.469 144.772ZM53.7933 203.948L50.3896 200.544C49.0765 199.222 48.2315 197.508 47.9835 195.661C47.7354 193.815 48.0979 191.938 49.0156 190.317L64.0359 205.337C62.4114 206.257 60.5303 206.619 58.6805 206.368C56.8307 206.117 55.1141 205.267 53.7933 203.948V203.948ZM67.5489 202.246L52.1383 186.788L87.4251 151.455L102.883 166.912L67.5489 202.246ZM91.5315 148.941L107.473 146.864L105.396 162.806L91.5315 148.941ZM60.9288 191.207L57.6031 187.897L86.3165 159.261L89.611 162.509L60.9288 191.207ZM81.0235 112.421V105.394C81.0235 104.773 80.7768 104.178 80.3375 103.738C79.8983 103.299 79.3026 103.052 78.6815 103.052C78.0603 103.052 77.4646 103.299 77.0254 103.738C76.5862 104.178 76.3394 104.773 76.3394 105.394V112.421H0.613281V224.214C0.613281 226.45 1.50158 228.595 3.08277 230.176C4.66396 231.757 6.80851 232.646 9.04464 232.646H76.3394V259.189H81.0235V232.646H148.318C150.554 232.646 152.699 231.757 154.28 230.176C155.861 228.595 156.75 226.45 156.75 224.214V112.421H81.0235ZM152.066 224.214C152.061 225.207 151.665 226.158 150.963 226.859C150.262 227.561 149.311 227.957 148.318 227.961H9.04464C8.05207 227.957 7.10132 227.561 6.39946 226.859C5.6976 226.158 5.30148 225.207 5.29737 224.214V117.105H152.066V224.214ZM85.7544 232.646H91.1724L108.347 260.75H103.086L85.7544 232.646ZM50.5769 260.75L67.7519 232.646H73.4041L56.0105 260.75H50.5769Z" fill="#365066"/>
<path d="M373.136 208.471V208.58C372.619 208.504 372.097 208.467 371.575 208.471H373.136Z" fill="#365066"/>
<path d="M371.575 233.452C372.097 233.453 372.618 233.421 373.136 233.359V233.452H371.575Z" fill="#365066"/>
<path d="M377.82 94.4909C376.236 94.4843 374.658 94.7051 373.136 95.1466V113.227H226.368V238.136H377.82C382.376 238.136 386.744 236.327 389.965 233.106C393.186 229.885 394.995 225.516 394.995 220.961V111.666C394.995 107.111 393.186 102.742 389.965 99.5213C386.744 96.3004 382.376 94.4909 377.82 94.4909ZM379.382 233.359C378.864 233.421 378.342 233.453 377.82 233.452H231.052V117.911H373.136V208.47H377.82C378.343 208.467 378.865 208.504 379.382 208.58C382.395 208.966 385.164 210.437 387.17 212.718C389.177 214.998 390.284 217.932 390.284 220.969C390.284 224.007 389.177 226.94 387.17 229.221C385.164 231.501 382.395 232.972 379.382 233.359ZM390.311 209.173C388.71 207.466 386.775 206.107 384.626 205.18C382.477 204.253 380.161 203.779 377.82 203.786V99.175C381.133 99.175 384.31 100.491 386.653 102.833C388.995 105.176 390.311 108.353 390.311 111.666V209.173Z" fill="#365066"/>
<path d="M254.473 142.893V147.577H316.927V142.893H254.473Z" fill="#365066"/>
<path d="M254.473 156.946V161.63H316.927V156.946H254.473Z" fill="#365066"/>
<path d="M254.473 170.998V175.682H295.068V170.998H254.473Z" fill="#365066"/>
<path d="M312.243 194.418V208.47H259.157V194.418H312.243ZM316.927 189.734H254.473V213.155H316.927V189.734Z" fill="#365066"/>
<path d="M497.605 225.645C500.23 225.645 502.796 224.867 504.978 223.409C507.161 221.951 508.862 219.878 509.866 217.453C510.871 215.028 511.134 212.359 510.622 209.785C510.11 207.21 508.846 204.846 506.99 202.989C505.133 201.133 502.769 199.869 500.194 199.357C497.62 198.845 494.951 199.108 492.526 200.113C490.101 201.117 488.028 202.818 486.57 205.001C485.112 207.183 484.334 209.749 484.334 212.374C484.331 214.117 484.673 215.844 485.34 217.455C486.006 219.066 486.983 220.53 488.216 221.763C489.449 222.996 490.913 223.973 492.524 224.639C494.135 225.306 495.862 225.648 497.605 225.645V225.645ZM497.605 203.786C499.304 203.786 500.964 204.29 502.376 205.234C503.788 206.177 504.889 207.518 505.539 209.088C506.189 210.657 506.359 212.383 506.028 214.049C505.696 215.715 504.878 217.245 503.677 218.446C502.476 219.647 500.946 220.465 499.28 220.796C497.615 221.128 495.888 220.958 494.319 220.308C492.75 219.658 491.408 218.557 490.465 217.145C489.521 215.733 489.018 214.072 489.018 212.374C489.018 210.096 489.922 207.912 491.533 206.302C493.143 204.691 495.328 203.786 497.605 203.786V203.786Z" fill="#365066"/>
<path d="M498.839 230.33H496.387C492.156 230.334 488.1 232.016 485.108 235.008C482.117 238 480.434 242.056 480.43 246.287V259.995H514.78V246.287C514.78 242.057 513.101 238.001 510.112 235.009C507.123 232.017 503.068 230.334 498.839 230.33V230.33ZM510.096 255.311H485.114V246.287C485.118 243.298 486.307 240.433 488.421 238.32C490.534 236.207 493.399 235.018 496.387 235.014H498.839C501.826 235.018 504.689 236.207 506.8 238.321C508.911 240.435 510.096 243.3 510.096 246.287V255.311Z" fill="#365066"/>
<path d="M542.682 225.645C545.307 225.645 547.873 224.867 550.055 223.409C552.238 221.951 553.939 219.878 554.943 217.453C555.948 215.028 556.21 212.359 555.698 209.785C555.186 207.21 553.922 204.846 552.066 202.989C550.21 201.133 547.845 199.869 545.271 199.357C542.696 198.845 540.028 199.108 537.603 200.113C535.178 201.117 533.105 202.818 531.647 205.001C530.189 207.183 529.41 209.749 529.41 212.374C529.41 215.894 530.808 219.269 533.297 221.758C535.786 224.247 539.162 225.645 542.682 225.645V225.645ZM542.682 203.786C544.38 203.786 546.041 204.29 547.453 205.234C548.865 206.177 549.966 207.518 550.616 209.088C551.266 210.657 551.436 212.383 551.104 214.049C550.773 215.715 549.955 217.245 548.754 218.446C547.553 219.647 546.023 220.465 544.357 220.796C542.691 221.128 540.965 220.958 539.395 220.308C537.826 219.658 536.485 218.557 535.542 217.145C534.598 215.733 534.094 214.072 534.094 212.374C534.098 210.098 535.004 207.916 536.614 206.306C538.224 204.697 540.405 203.791 542.682 203.786V203.786Z" fill="#365066"/>
<path d="M543.9 230.33H541.464C539.365 230.33 537.286 230.744 535.347 231.549C533.408 232.354 531.646 233.533 530.164 235.02C528.682 236.507 527.507 238.271 526.708 240.213C525.909 242.154 525.501 244.234 525.507 246.334V259.995H559.857V246.287C559.857 242.055 558.176 237.996 555.183 235.003C552.191 232.011 548.132 230.33 543.9 230.33ZM555.173 255.311H530.191V246.287C530.195 243.298 531.384 240.433 533.497 238.32C535.611 236.207 538.476 235.018 541.464 235.014H543.9C545.384 235.016 546.852 235.31 548.222 235.88C549.592 236.451 550.836 237.285 551.883 238.337C552.93 239.388 553.759 240.635 554.324 242.008C554.888 243.38 555.177 244.85 555.173 246.334V255.311Z" fill="#365066"/>
<path d="M588.164 225.645C590.789 225.645 593.355 224.867 595.537 223.409C597.72 221.951 599.421 219.878 600.426 217.453C601.43 215.028 601.693 212.359 601.181 209.785C600.669 207.21 599.405 204.846 597.549 202.989C595.693 201.133 593.328 199.869 590.753 199.357C588.179 198.845 585.51 199.108 583.085 200.113C580.66 201.117 578.588 202.818 577.129 205.001C575.671 207.183 574.893 209.749 574.893 212.374C574.891 214.117 575.232 215.844 575.899 217.455C576.565 219.066 577.542 220.53 578.775 221.763C580.008 222.996 581.472 223.973 583.083 224.639C584.694 225.306 586.421 225.648 588.164 225.645V225.645ZM588.164 203.786C589.863 203.786 591.523 204.29 592.935 205.234C594.347 206.177 595.448 207.518 596.098 209.088C596.748 210.657 596.918 212.383 596.587 214.049C596.255 215.715 595.437 217.245 594.236 218.446C593.035 219.647 591.505 220.465 589.84 220.796C588.174 221.128 586.447 220.958 584.878 220.308C583.309 219.658 581.968 218.557 581.024 217.145C580.08 215.733 579.577 214.072 579.577 212.374C579.577 210.096 580.481 207.912 582.092 206.302C583.702 204.691 585.887 203.786 588.164 203.786Z" fill="#365066"/>
<path d="M589.398 230.33H586.946C582.716 230.334 578.659 232.016 575.668 235.008C572.676 238 570.993 242.056 570.989 246.287V259.995H605.339V246.287C605.339 242.057 603.66 238.001 600.671 235.009C597.682 232.017 593.627 230.334 589.398 230.33V230.33ZM600.655 255.311H575.673V246.287C575.677 243.298 576.867 240.433 578.98 238.32C581.093 236.207 583.958 235.018 586.946 235.014H589.398C592.385 235.018 595.248 236.207 597.359 238.321C599.47 240.435 600.655 243.3 600.655 246.287V255.311Z" fill="#365066"/>
<path d="M545.024 170.998H540.34V189.734H545.024V170.998Z" fill="#365066"/>
<path d="M523.089 169.032L519.777 165.72L499.904 185.593L503.216 188.905L523.089 169.032Z" fill="#365066"/>
<path d="M565.652 165.734L562.339 169.046L582.212 188.919L585.524 185.607L565.652 165.734Z" fill="#365066"/>
<path d="M560.95 125.624C560.619 121.006 558.55 116.683 555.161 113.528C551.771 110.373 547.312 108.619 542.682 108.619C538.051 108.619 533.592 110.373 530.203 113.528C526.813 116.683 524.745 121.006 524.414 125.624C524.414 126.046 524.414 126.483 524.414 126.92C524.413 128.458 524.607 129.99 524.991 131.48C524.991 131.745 525.116 131.995 525.194 132.245C525.194 132.245 528.317 139.162 529.035 141.613C529.457 143.002 529.957 145.235 530.441 147.577C531.393 152.09 532.252 156.945 532.252 156.945H553.143C553.143 156.945 555.157 145.563 556.39 141.457C557.109 139.052 560.216 132.182 560.216 132.182C560.341 131.761 560.356 131.683 560.419 131.417C560.803 129.928 560.997 128.396 560.996 126.858C560.996 126.483 560.981 126.046 560.95 125.624ZM536.124 152.261C535.859 150.856 535.531 149.217 535.203 147.577H550.161C549.833 149.232 549.505 150.872 549.239 152.261H536.124ZM555.875 130.402V130.699C555.204 132.26 552.752 137.866 551.972 140.27C551.753 141.004 551.519 141.956 551.269 143.018H534.188C533.938 141.988 533.704 141.051 533.485 140.333C532.751 137.897 530.222 132.182 529.551 130.683C529.551 130.59 529.551 130.496 529.473 130.371C529.189 129.269 529.048 128.136 529.051 126.998C529.051 126.639 529.051 126.358 529.051 126.124V126.015C529.285 122.571 530.817 119.345 533.339 116.989C535.861 114.632 539.183 113.321 542.635 113.321C546.086 113.321 549.409 114.632 551.931 116.989C554.452 119.345 555.985 122.571 556.219 126.015V126.124C556.219 126.374 556.219 126.655 556.219 126.998C556.253 128.143 556.138 129.287 555.875 130.402ZM544.946 135.992V142.893H540.262V135.867C540.262 135.246 540.508 134.65 540.948 134.211C541.387 133.772 541.982 133.525 542.604 133.525C543.225 133.525 543.82 133.772 544.26 134.211C544.699 134.65 544.946 135.246 544.946 135.867V135.992ZM542.682 91.3682C543.303 91.3682 543.899 91.6149 544.338 92.0541C544.777 92.4934 545.024 93.0891 545.024 93.7102V98.3943C545.024 99.0154 544.777 99.6112 544.338 100.05C543.899 100.49 543.303 100.736 542.682 100.736C542.061 100.736 541.465 100.49 541.026 100.05C540.586 99.6112 540.34 99.0154 540.34 98.3943V93.7102C540.34 93.0891 540.586 92.4934 541.026 92.0541C541.465 91.6149 542.061 91.3682 542.682 91.3682V91.3682ZM526.49 94.9593C526.902 94.9574 527.307 95.0649 527.663 95.2706C528.02 95.4763 528.316 95.773 528.52 96.1303L531.643 101.533C531.799 101.799 531.901 102.093 531.942 102.399C531.983 102.704 531.963 103.015 531.883 103.313C531.803 103.611 531.665 103.89 531.476 104.133C531.288 104.377 531.052 104.581 530.784 104.733C530.435 104.941 530.035 105.05 529.629 105.046C529.217 105.048 528.812 104.94 528.456 104.734C528.099 104.529 527.803 104.232 527.599 103.875L524.476 98.4724C524.164 97.936 524.077 97.2977 524.235 96.6975C524.394 96.0974 524.783 95.5845 525.319 95.2716C525.675 95.0652 526.079 94.9574 526.49 94.9593V94.9593ZM559.295 94.9593C558.883 94.9574 558.478 95.0649 558.122 95.2706C557.765 95.4763 557.469 95.773 557.265 96.1303L554.142 101.533C553.83 102.069 553.743 102.707 553.901 103.307C554.059 103.908 554.449 104.421 554.985 104.733C555.253 104.887 555.548 104.986 555.854 105.025C556.159 105.064 556.47 105.042 556.767 104.961C557.065 104.88 557.343 104.74 557.586 104.551C557.83 104.362 558.034 104.127 558.186 103.859L561.309 98.4568C561.465 98.1908 561.566 97.8964 561.608 97.5908C561.649 97.2853 561.629 96.9745 561.549 96.6767C561.469 96.3788 561.331 96.0999 561.142 95.856C560.954 95.6121 560.718 95.4081 560.45 95.256C560.101 95.0479 559.701 94.9399 559.295 94.9437V94.9593Z" fill="#365066"/>
<path d="M130.567 388.687C136.695 378.967 139.165 367.383 137.535 356.009C135.905 344.634 130.282 334.211 121.671 326.602C113.06 318.994 102.023 314.697 90.5341 314.481C79.0455 314.264 67.8545 318.142 58.963 325.42H35.3396C34.0649 325.414 32.8016 325.66 31.6219 326.142C30.4421 326.625 29.3691 327.335 28.4642 328.233C27.5592 329.13 26.8402 330.198 26.3481 331.374C25.8561 332.549 25.6007 333.811 25.5967 335.085V420.07L0.0683594 445.645L3.33161 448.909L25.5967 426.597V470.315C25.5987 471.591 25.8526 472.854 26.3437 474.032C26.8348 475.209 27.5535 476.278 28.4586 477.178C29.3638 478.077 30.4375 478.789 31.6183 479.272C32.799 479.756 34.0636 480.002 35.3396 479.995H114.594V456.575H147.383L130.567 388.687ZM60.6805 330.105C62.6496 328.35 64.7769 326.782 67.0352 325.42C73.8635 321.287 81.6931 319.102 89.675 319.102C97.6569 319.102 105.487 321.287 112.315 325.42C113.393 326.072 114.435 326.781 115.438 327.544C117.258 328.868 118.971 330.336 120.559 331.931C127.002 338.372 131.272 346.665 132.773 355.651C134.273 364.636 132.929 373.867 128.928 382.051C127.957 384.084 126.819 386.032 125.524 387.875C122.046 392.833 117.576 397.015 112.397 400.154C107.218 403.294 101.443 405.323 95.4387 406.114C89.4341 406.904 83.3309 406.438 77.5159 404.746C71.7009 403.053 66.3009 400.171 61.6584 396.282C57.0159 392.393 53.2321 387.581 50.5469 382.153C47.8616 376.724 46.3336 370.797 46.0597 364.747C45.7857 358.697 46.7718 352.656 48.9553 347.007C51.1389 341.358 54.4724 336.224 58.7444 331.931C59.369 331.307 59.9467 330.698 60.6805 330.105ZM30.2807 335.085C30.2931 333.755 30.8326 332.483 31.7808 331.549C32.7291 330.616 34.0088 330.096 35.3396 330.105H54.0759C46.1784 338.669 41.6349 349.795 41.2792 361.439C40.9236 373.083 44.7797 384.466 52.1398 393.496L30.2807 415.355V335.085ZM109.91 451.891V475.311H35.3396C34.0088 475.32 32.7291 474.8 31.7808 473.866C30.8326 472.933 30.2931 471.661 30.2807 470.331V421.928L55.2626 396.947L55.4031 397.103C64.4802 406.18 76.7913 411.279 89.6282 411.279C102.465 411.279 114.776 406.18 123.853 397.103C124.962 395.994 125.992 394.854 126.976 393.683L141.403 451.891H109.91Z" fill="#365066"/>
<path d="M89.6122 351.964C87.4505 351.964 85.3374 352.605 83.54 353.806C81.7427 355.007 80.3418 356.714 79.5146 358.711C78.6874 360.708 78.4709 362.905 78.8926 365.026C79.3143 367.146 80.3553 369.093 81.8838 370.622C83.4123 372.15 85.3598 373.191 87.4799 373.613C89.6 374.035 91.7976 373.818 93.7947 372.991C95.7918 372.164 97.4988 370.763 98.6998 368.965C99.9007 367.168 100.542 365.055 100.542 362.893C100.542 359.995 99.3902 357.215 97.3405 355.165C95.2908 353.115 92.5109 351.964 89.6122 351.964ZM89.6122 369.264C88.3536 369.257 87.125 368.879 86.0815 368.175C85.038 367.471 84.2264 366.474 83.749 365.31C83.2717 364.145 83.15 362.865 83.3993 361.631C83.6486 360.398 84.2578 359.266 85.1499 358.378C86.042 357.49 87.1772 356.886 88.412 356.643C89.6469 356.4 90.9262 356.528 92.0884 357.011C93.2506 357.494 94.2437 358.31 94.9423 359.357C95.6409 360.404 96.0137 361.635 96.0138 362.893C96.0014 364.58 95.3205 366.193 94.1204 367.379C92.9203 368.564 91.299 369.225 89.6122 369.217V369.264Z" fill="#365066"/>
<path d="M123.213 362.081C122.588 361.269 108.567 343.345 90.9863 343.345H90.7365C89.987 343.345 71.6879 341.784 56.0742 362.081C70.3451 380.615 87.3015 382.379 90.4242 382.379H90.674C108.396 382.379 122.651 362.862 123.275 362.081H123.213ZM89.9714 377.695H89.7684C89.1751 377.695 75.7162 377.414 62.3197 362.081C75.6849 346.733 89.8934 348.029 90.6272 348.029H90.8302C102.462 348.029 112.221 357.054 116.967 362.081C112.205 367.093 101.713 377.695 89.9714 377.695V377.695Z" fill="#365066"/>
<path d="M226.212 464.136H305.841V407.927H226.212V464.136ZM235.846 459.452L252.755 437.937L269.665 459.452H235.846ZM280.579 459.452L288.948 446.321L297.301 459.452H280.579ZM230.896 412.611H301.157V456.829L288.948 437.593L275.301 459.078L252.755 430.348L230.896 458.219V412.611Z" fill="#365066"/>
<path d="M226.212 395.436H305.841V339.227H226.212V395.436ZM230.896 343.911H301.157V390.752H230.896V343.911Z" fill="#365066"/>
<path d="M318.333 339.227V464.136H394.839V339.227H318.333ZM390.155 459.452H323.017V343.911H390.155V459.452Z" fill="#365066"/>
<path d="M260.577 375.357L273.068 367.55L260.577 359.744V375.357Z" fill="#365066"/>
<path d="M367.515 365.817H337.069V370.501H367.515V365.817Z" fill="#365066"/>
<path d="M377.664 381.431H337.069V386.115H377.664V381.431Z" fill="#365066"/>
<path d="M361.426 397.045H337.069V401.729H361.426V397.045Z" fill="#365066"/>
<path d="M273.443 435.298C276.677 435.298 279.298 432.677 279.298 429.443C279.298 426.209 276.677 423.588 273.443 423.588C270.209 423.588 267.588 426.209 267.588 429.443C267.588 432.677 270.209 435.298 273.443 435.298Z" fill="#365066"/>
<path d="M562.34 326.982L592.911 450.33H561.418V475.311H488.534C487.17 475.311 485.861 474.774 484.89 473.815C483.92 472.857 483.367 471.554 483.35 470.19V332.197C483.346 331.513 483.477 330.836 483.736 330.203C483.994 329.571 484.376 328.996 484.857 328.511C485.339 328.026 485.912 327.642 486.543 327.379C487.174 327.117 487.851 326.982 488.534 326.982H562.34ZM565.993 322.298H488.534C487.235 322.298 485.95 322.554 484.75 323.052C483.551 323.55 482.462 324.279 481.545 325.199C480.628 326.119 479.902 327.21 479.408 328.411C478.914 329.612 478.662 330.898 478.666 332.197V470.19C478.678 472.798 479.724 475.294 481.574 477.132C483.423 478.97 485.926 480 488.534 479.995H566.102V455.014H598.891L565.993 322.298Z" fill="#365066"/>
<path d="M546.492 351.277C548.17 351.315 549.802 351.84 551.188 352.788C552.574 353.736 553.655 355.066 554.299 356.617C556.266 361.004 555.064 366.203 550.973 370.887L533.423 388.468L515.936 370.997C511.783 366.672 510.487 361.629 512.345 357.257C513.016 355.598 514.16 354.172 515.633 353.156C517.107 352.141 518.846 351.579 520.636 351.542C523.758 351.542 527.146 353.244 530.207 356.492L533.704 360.177L537.108 356.382C540.09 353.041 543.353 351.277 546.476 351.277M546.476 346.593C542.354 346.593 537.795 348.56 533.595 353.26C529.301 348.732 524.742 346.858 520.62 346.858C508.925 346.858 500.822 362.05 512.579 374.276L533.423 395.104L554.439 374.088C565.79 361.332 557.78 346.593 546.492 346.593H546.476Z" fill="#365066"/>
<path d="M608.868 335.101L592.646 344.469L594.988 348.529L611.21 339.16L608.868 335.101Z" fill="#365066"/>
<path d="M614.505 366.016H595.769V370.7H614.505V366.016Z" fill="#365066"/>
<path d="M594.988 386.626L592.646 390.685L608.868 400.054L611.21 395.994L594.988 386.626Z" fill="#365066"/>
</g>
<defs>
<clipPath id="clip0_2107_452">
<rect width="615" height="572" fill="white"/>
</clipPath>
</defs>
</svg>
