<svg width="615" height="407" viewBox="0 0 615 407" fill="none" xmlns="http://www.w3.org/2000/svg">
<g clip-path="url(#clip0_2107_459)">
<path d="M112.469 62.772C112.508 62.381 112.46 61.9862 112.328 61.6162C112.196 61.2462 111.983 60.9101 111.705 60.6322C111.427 60.3544 111.091 60.1417 110.721 60.0095C110.351 59.8773 109.956 59.829 109.565 59.8679L87.5032 62.7564H87.4251L84.0994 66.0665L48.7813 101.478L47.0795 103.18L46.6579 103.602C46.6214 103.645 46.5899 103.692 46.5642 103.742C44.3214 106.256 43.1253 109.533 43.2211 112.901C43.3169 116.268 44.6974 119.472 47.0795 121.854L50.4832 125.258C52.8575 127.634 56.0496 129.014 59.4073 129.116C62.765 129.217 66.0347 128.033 68.5482 125.804H68.7044L69.1571 125.336L70.8746 123.556L106.193 88.191L109.503 84.8653H109.581L112.469 62.772ZM53.7933 121.948L50.3896 118.544C49.0765 117.222 48.2315 115.508 47.9835 113.661C47.7354 111.815 48.0979 109.938 49.0156 108.317L64.0359 123.337C62.4114 124.257 60.5303 124.619 58.6805 124.368C56.8307 124.117 55.1141 123.267 53.7933 121.948V121.948ZM67.5489 120.246L52.1383 104.788L87.4251 69.4546L102.883 84.9121L67.5489 120.246ZM91.5315 66.9408L107.473 64.8642L105.396 80.8058L91.5315 66.9408ZM60.9288 109.207L57.6031 105.897L86.3165 77.2615L89.611 80.5091L60.9288 109.207ZM81.0235 30.4205V23.3944C81.0235 22.7733 80.7768 22.1776 80.3375 21.7383C79.8983 21.2991 79.3026 21.0524 78.6815 21.0524C78.0603 21.0524 77.4646 21.2991 77.0254 21.7383C76.5862 22.1776 76.3394 22.7733 76.3394 23.3944V30.4205H0.613281V142.214C0.613281 144.45 1.50158 146.595 3.08277 148.176C4.66396 149.757 6.80851 150.646 9.04464 150.646H76.3394V177.189H81.0235V150.646H148.318C150.554 150.646 152.699 149.757 154.28 148.176C155.861 146.595 156.75 144.45 156.75 142.214V30.4205H81.0235ZM152.066 142.214C152.061 143.207 151.665 144.158 150.963 144.859C150.262 145.561 149.311 145.957 148.318 145.961H9.04464C8.05207 145.957 7.10132 145.561 6.39946 144.859C5.6976 144.158 5.30148 143.207 5.29737 142.214V35.1046H152.066V142.214ZM85.7544 150.646H91.1724L108.347 178.75H103.086L85.7544 150.646ZM50.5769 178.75L67.7519 150.646H73.4041L56.0105 178.75H50.5769Z" fill="#365066"/>
<path d="M373.136 126.47V126.58C372.619 126.504 372.097 126.467 371.575 126.47H373.136Z" fill="#365066"/>
<path d="M371.575 151.452C372.097 151.452 372.618 151.421 373.136 151.358V151.452H371.575Z" fill="#365066"/>
<path d="M377.82 12.4909C376.236 12.4843 374.658 12.7051 373.136 13.1466V31.2272H226.368V156.136H377.82C382.376 156.136 386.744 154.327 389.965 151.106C393.186 147.885 394.995 143.516 394.995 138.961V29.6659C394.995 25.1108 393.186 20.7422 389.965 17.5213C386.744 14.3004 382.376 12.4909 377.82 12.4909ZM379.382 151.359C378.864 151.421 378.342 151.453 377.82 151.452H231.052V35.9113H373.136V126.47H377.82C378.343 126.467 378.865 126.504 379.382 126.58C382.395 126.966 385.164 128.437 387.17 130.718C389.177 132.998 390.284 135.932 390.284 138.969C390.284 142.007 389.177 144.94 387.17 147.221C385.164 149.501 382.395 150.972 379.382 151.359ZM390.311 127.173C388.71 125.466 386.775 124.107 384.626 123.18C382.477 122.253 380.161 121.779 377.82 121.786V17.175C381.133 17.175 384.31 18.491 386.653 20.8335C388.995 23.176 390.311 26.3531 390.311 29.6659V127.173Z" fill="#365066"/>
<path d="M254.473 60.8932V65.5773H316.927V60.8932H254.473Z" fill="#365066"/>
<path d="M254.473 74.9455V79.6296H316.927V74.9455H254.473Z" fill="#365066"/>
<path d="M254.473 88.9978V93.6819H295.068V88.9978H254.473Z" fill="#365066"/>
<path d="M312.243 112.418V126.47H259.157V112.418H312.243ZM316.927 107.734H254.473V131.155H316.927V107.734Z" fill="#365066"/>
<path d="M497.605 143.645C500.23 143.645 502.796 142.867 504.978 141.409C507.161 139.951 508.862 137.878 509.866 135.453C510.871 133.028 511.134 130.359 510.622 127.785C510.11 125.21 508.846 122.846 506.99 120.989C505.133 119.133 502.769 117.869 500.194 117.357C497.62 116.845 494.951 117.108 492.526 118.113C490.101 119.117 488.028 120.818 486.57 123.001C485.112 125.183 484.334 127.749 484.334 130.374C484.331 132.117 484.673 133.844 485.34 135.455C486.006 137.066 486.983 138.53 488.216 139.763C489.449 140.996 490.913 141.973 492.524 142.639C494.135 143.306 495.862 143.648 497.605 143.645V143.645ZM497.605 121.786C499.304 121.786 500.964 122.29 502.376 123.234C503.788 124.177 504.889 125.518 505.539 127.088C506.189 128.657 506.359 130.383 506.028 132.049C505.696 133.715 504.878 135.245 503.677 136.446C502.476 137.647 500.946 138.465 499.28 138.796C497.615 139.128 495.888 138.958 494.319 138.308C492.75 137.658 491.408 136.557 490.465 135.145C489.521 133.733 489.018 132.072 489.018 130.374C489.018 128.096 489.922 125.912 491.533 124.302C493.143 122.691 495.328 121.786 497.605 121.786V121.786Z" fill="#365066"/>
<path d="M498.839 148.33H496.387C492.156 148.334 488.1 150.016 485.108 153.008C482.117 156 480.434 160.056 480.43 164.287V177.995H514.78V164.287C514.78 160.057 513.101 156.001 510.112 153.009C507.123 150.017 503.068 148.334 498.839 148.33V148.33ZM510.096 173.311H485.114V164.287C485.118 161.298 486.307 158.433 488.421 156.32C490.534 154.207 493.399 153.018 496.387 153.014H498.839C501.826 153.018 504.689 154.207 506.8 156.321C508.911 158.435 510.096 161.3 510.096 164.287V173.311Z" fill="#365066"/>
<path d="M542.682 143.645C545.307 143.645 547.873 142.867 550.055 141.409C552.238 139.951 553.939 137.878 554.943 135.453C555.948 133.028 556.21 130.359 555.698 127.785C555.186 125.21 553.922 122.846 552.066 120.989C550.21 119.133 547.845 117.869 545.271 117.357C542.696 116.845 540.028 117.108 537.603 118.113C535.178 119.117 533.105 120.818 531.647 123.001C530.189 125.183 529.41 127.749 529.41 130.374C529.41 133.894 530.808 137.269 533.297 139.758C535.786 142.247 539.162 143.645 542.682 143.645V143.645ZM542.682 121.786C544.38 121.786 546.041 122.29 547.453 123.234C548.865 124.177 549.966 125.518 550.616 127.088C551.266 128.657 551.436 130.383 551.104 132.049C550.773 133.715 549.955 135.245 548.754 136.446C547.553 137.647 546.023 138.465 544.357 138.796C542.691 139.128 540.965 138.958 539.395 138.308C537.826 137.658 536.485 136.557 535.542 135.145C534.598 133.733 534.094 132.072 534.094 130.374C534.098 128.098 535.004 125.916 536.614 124.306C538.224 122.697 540.405 121.791 542.682 121.786V121.786Z" fill="#365066"/>
<path d="M543.9 148.33H541.464C539.365 148.33 537.286 148.744 535.347 149.549C533.408 150.354 531.646 151.533 530.164 153.02C528.682 154.507 527.507 156.271 526.708 158.213C525.909 160.154 525.501 162.234 525.507 164.334V177.995H559.857V164.287C559.857 160.055 558.176 155.996 555.183 153.003C552.191 150.011 548.132 148.33 543.9 148.33ZM555.173 173.311H530.191V164.287C530.195 161.298 531.384 158.433 533.497 156.32C535.611 154.207 538.476 153.018 541.464 153.014H543.9C545.384 153.016 546.852 153.31 548.222 153.88C549.592 154.451 550.836 155.285 551.883 156.337C552.93 157.388 553.759 158.635 554.324 160.008C554.888 161.38 555.177 162.85 555.173 164.334V173.311Z" fill="#365066"/>
<path d="M588.164 143.645C590.789 143.645 593.355 142.867 595.537 141.409C597.72 139.951 599.421 137.878 600.426 135.453C601.43 133.028 601.693 130.359 601.181 127.785C600.669 125.21 599.405 122.846 597.549 120.989C595.693 119.133 593.328 117.869 590.753 117.357C588.179 116.845 585.51 117.108 583.085 118.113C580.66 119.117 578.588 120.818 577.129 123.001C575.671 125.183 574.893 127.749 574.893 130.374C574.891 132.117 575.232 133.844 575.899 135.455C576.565 137.066 577.542 138.53 578.775 139.763C580.008 140.996 581.472 141.973 583.083 142.639C584.694 143.306 586.421 143.648 588.164 143.645V143.645ZM588.164 121.786C589.863 121.786 591.523 122.29 592.935 123.234C594.347 124.177 595.448 125.518 596.098 127.088C596.748 128.657 596.918 130.383 596.587 132.049C596.255 133.715 595.437 135.245 594.236 136.446C593.035 137.647 591.505 138.465 589.84 138.796C588.174 139.128 586.447 138.958 584.878 138.308C583.309 137.658 581.968 136.557 581.024 135.145C580.08 133.733 579.577 132.072 579.577 130.374C579.577 128.096 580.481 125.912 582.092 124.302C583.702 122.691 585.887 121.786 588.164 121.786Z" fill="#365066"/>
<path d="M589.398 148.33H586.946C582.716 148.334 578.659 150.016 575.668 153.008C572.676 156 570.993 160.056 570.989 164.287V177.995H605.339V164.287C605.339 160.057 603.66 156.001 600.671 153.009C597.682 150.017 593.627 148.334 589.398 148.33V148.33ZM600.655 173.311H575.673V164.287C575.677 161.298 576.867 158.433 578.98 156.32C581.093 154.207 583.958 153.018 586.946 153.014H589.398C592.385 153.018 595.248 154.207 597.359 156.321C599.47 158.435 600.655 161.3 600.655 164.287V173.311Z" fill="#365066"/>
<path d="M545.024 88.9977H540.34V107.734H545.024V88.9977Z" fill="#365066"/>
<path d="M523.089 87.0321L519.777 83.72L499.904 103.593L503.216 106.905L523.089 87.0321Z" fill="#365066"/>
<path d="M565.652 83.7339L562.339 87.046L582.212 106.919L585.524 103.607L565.652 83.7339Z" fill="#365066"/>
<path d="M560.95 43.6245C560.619 39.0055 558.55 34.6834 555.161 31.5282C551.771 28.3729 547.312 26.6187 542.682 26.6187C538.051 26.6187 533.592 28.3729 530.203 31.5282C526.813 34.6834 524.745 39.0055 524.414 43.6245C524.414 44.046 524.414 44.4832 524.414 44.9204C524.413 46.4584 524.607 47.9903 524.991 49.4796C524.991 49.745 525.116 49.9948 525.194 50.2447C525.194 50.2447 528.317 57.1615 529.035 59.6128C529.457 61.0025 529.957 63.2352 530.441 65.5773C531.393 70.0896 532.252 74.9454 532.252 74.9454H553.143C553.143 74.9454 555.157 63.5631 556.39 59.4567C557.109 57.0522 560.216 50.1822 560.216 50.1822C560.341 49.7606 560.356 49.6826 560.419 49.4171C560.803 47.9279 560.997 46.396 560.996 44.858C560.996 44.4832 560.981 44.046 560.95 43.6245ZM536.124 70.2613C535.859 68.8561 535.531 67.2167 535.203 65.5773H550.161C549.833 67.2323 549.505 68.8717 549.239 70.2613H536.124ZM555.875 48.4023V48.6989C555.204 50.2603 552.752 55.8656 551.972 58.2701C551.753 59.0039 551.519 59.9563 551.269 61.0181H534.188C533.938 59.9876 533.704 59.0508 533.485 58.3325C532.751 55.8968 530.222 50.1822 529.551 48.6833C529.551 48.5896 529.551 48.4959 529.473 48.371C529.189 47.2693 529.048 46.136 529.051 44.9985C529.051 44.6394 529.051 44.3583 529.051 44.1241V44.0148C529.285 40.5713 530.817 37.3451 533.339 34.9886C535.861 32.6321 539.183 31.3213 542.635 31.3213C546.086 31.3213 549.409 32.6321 551.931 34.9886C554.452 37.3451 555.985 40.5713 556.219 44.0148V44.1241C556.219 44.3739 556.219 44.655 556.219 44.9985C556.253 46.1432 556.138 47.2875 555.875 48.4023ZM544.946 53.9919V60.8932H540.262V53.867C540.262 53.2459 540.508 52.6502 540.948 52.2109C541.387 51.7717 541.982 51.525 542.604 51.525C543.225 51.525 543.82 51.7717 544.26 52.2109C544.699 52.6502 544.946 53.2459 544.946 53.867V53.9919ZM542.682 9.36816C543.303 9.36816 543.899 9.61491 544.338 10.0541C544.777 10.4934 545.024 11.0891 545.024 11.7102V16.3943C545.024 17.0154 544.777 17.6112 544.338 18.0504C543.899 18.4896 543.303 18.7363 542.682 18.7363C542.061 18.7363 541.465 18.4896 541.026 18.0504C540.586 17.6112 540.34 17.0154 540.34 16.3943V11.7102C540.34 11.0891 540.586 10.4934 541.026 10.0541C541.465 9.61491 542.061 9.36816 542.682 9.36816V9.36816ZM526.49 12.9593C526.902 12.9574 527.307 13.0649 527.663 13.2706C528.02 13.4763 528.316 13.773 528.52 14.1303L531.643 19.5326C531.799 19.7986 531.901 20.093 531.942 20.3985C531.983 20.7041 531.963 21.0149 531.883 21.3127C531.803 21.6106 531.665 21.8895 531.476 22.1334C531.288 22.3773 531.052 22.5813 530.784 22.7334C530.435 22.9415 530.035 23.0495 529.629 23.0457C529.217 23.0476 528.812 22.9402 528.456 22.7344C528.099 22.5287 527.803 22.232 527.599 21.8747L524.476 16.4724C524.164 15.936 524.077 15.2977 524.235 14.6975C524.394 14.0974 524.783 13.5845 525.319 13.2716C525.675 13.0652 526.079 12.9574 526.49 12.9593V12.9593ZM559.295 12.9593C558.883 12.9574 558.478 13.0649 558.122 13.2706C557.765 13.4763 557.469 13.773 557.265 14.1303L554.142 19.5326C553.83 20.069 553.743 20.7074 553.901 21.3075C554.059 21.9076 554.449 22.4205 554.985 22.7334C555.253 22.8867 555.548 22.9858 555.854 23.0248C556.159 23.0638 556.47 23.0421 556.767 22.9608C557.065 22.8796 557.343 22.7405 557.586 22.5514C557.83 22.3623 558.034 22.1271 558.186 21.8591L561.309 16.4568C561.465 16.1908 561.566 15.8964 561.608 15.5908C561.649 15.2853 561.629 14.9745 561.549 14.6767C561.469 14.3788 561.331 14.0999 561.142 13.856C560.954 13.6121 560.718 13.4081 560.45 13.256C560.101 13.0479 559.701 12.9399 559.295 12.9437V12.9593Z" fill="#365066"/>
<path d="M130.567 306.687C136.695 296.967 139.165 285.383 137.535 274.009C135.905 262.634 130.282 252.211 121.671 244.602C113.06 236.994 102.023 232.697 90.5341 232.481C79.0455 232.264 67.8545 236.142 58.963 243.42H35.3396C34.0649 243.414 32.8016 243.66 31.6219 244.142C30.4421 244.625 29.3691 245.335 28.4642 246.233C27.5592 247.13 26.8402 248.198 26.3481 249.374C25.8561 250.549 25.6007 251.811 25.5967 253.085V338.07L0.0683594 363.645L3.33161 366.909L25.5967 344.597V388.315C25.5987 389.591 25.8526 390.854 26.3437 392.032C26.8348 393.209 27.5535 394.278 28.4586 395.178C29.3638 396.077 30.4375 396.789 31.6183 397.272C32.799 397.756 34.0636 398.002 35.3396 397.995H114.594V374.575H147.383L130.567 306.687ZM60.6805 248.105C62.6496 246.35 64.7769 244.782 67.0352 243.42C73.8635 239.287 81.6931 237.102 89.675 237.102C97.6569 237.102 105.487 239.287 112.315 243.42C113.393 244.072 114.435 244.781 115.438 245.544C117.258 246.868 118.971 248.336 120.559 249.931C127.002 256.372 131.272 264.665 132.773 273.651C134.273 282.636 132.929 291.867 128.928 300.051C127.957 302.084 126.819 304.032 125.524 305.875C122.046 310.833 117.576 315.015 112.397 318.154C107.218 321.294 101.443 323.323 95.4387 324.114C89.4341 324.904 83.3309 324.438 77.5159 322.746C71.7009 321.053 66.3009 318.171 61.6584 314.282C57.0159 310.393 53.2321 305.581 50.5469 300.153C47.8616 294.724 46.3336 288.797 46.0597 282.747C45.7857 276.697 46.7718 270.656 48.9553 265.007C51.1389 259.358 54.4724 254.224 58.7444 249.931C59.369 249.307 59.9467 248.698 60.6805 248.105ZM30.2807 253.085C30.2931 251.755 30.8326 250.483 31.7808 249.549C32.7291 248.616 34.0088 248.096 35.3396 248.105H54.0759C46.1784 256.669 41.6349 267.795 41.2792 279.439C40.9236 291.083 44.7797 302.466 52.1398 311.496L30.2807 333.355V253.085ZM109.91 369.891V393.311H35.3396C34.0088 393.32 32.7291 392.8 31.7808 391.866C30.8326 390.933 30.2931 389.661 30.2807 388.331V339.928L55.2626 314.947L55.4031 315.103C64.4802 324.18 76.7913 329.279 89.6282 329.279C102.465 329.279 114.776 324.18 123.853 315.103C124.962 313.994 125.992 312.854 126.976 311.683L141.403 369.891H109.91Z" fill="#365066"/>
<path d="M89.6122 269.964C87.4505 269.964 85.3374 270.605 83.54 271.806C81.7427 273.007 80.3418 274.714 79.5146 276.711C78.6874 278.708 78.4709 280.906 78.8926 283.026C79.3143 285.146 80.3553 287.093 81.8838 288.622C83.4123 290.15 85.3598 291.191 87.4799 291.613C89.6 292.035 91.7976 291.818 93.7947 290.991C95.7918 290.164 97.4988 288.763 98.6998 286.966C99.9007 285.168 100.542 283.055 100.542 280.893C100.542 277.995 99.3902 275.215 97.3405 273.165C95.2908 271.115 92.5109 269.964 89.6122 269.964ZM89.6122 287.264C88.3536 287.258 87.125 286.879 86.0815 286.175C85.038 285.471 84.2264 284.474 83.749 283.31C83.2717 282.145 83.15 280.865 83.3993 279.632C83.6486 278.398 84.2578 277.266 85.1499 276.378C86.042 275.49 87.1772 274.887 88.412 274.643C89.6469 274.4 90.9262 274.528 92.0884 275.011C93.2506 275.494 94.2437 276.311 94.9423 277.357C95.6409 278.404 96.0137 279.635 96.0138 280.893C96.0014 282.58 95.3205 284.193 94.1204 285.379C92.9203 286.564 91.299 287.225 89.6122 287.217V287.264Z" fill="#365066"/>
<path d="M123.213 280.081C122.588 279.269 108.567 261.345 90.9863 261.345H90.7365C89.987 261.345 71.6879 259.784 56.0742 280.081C70.3451 298.615 87.3015 300.379 90.4242 300.379H90.674C108.396 300.379 122.651 280.862 123.275 280.081H123.213ZM89.9714 295.695H89.7684C89.1751 295.695 75.7162 295.414 62.3197 280.081C75.6849 264.733 89.8934 266.029 90.6272 266.029H90.8302C102.462 266.029 112.221 275.054 116.967 280.081C112.205 285.093 101.713 295.695 89.9714 295.695V295.695Z" fill="#365066"/>
<path d="M226.212 382.136H305.841V325.927H226.212V382.136ZM235.846 377.452L252.755 355.937L269.665 377.452H235.846ZM280.579 377.452L288.948 364.321L297.301 377.452H280.579ZM230.896 330.611H301.157V374.829L288.948 355.593L275.301 377.078L252.755 348.348L230.896 376.219V330.611Z" fill="#365066"/>
<path d="M226.212 313.436H305.841V257.227H226.212V313.436ZM230.896 261.911H301.157V308.752H230.896V261.911Z" fill="#365066"/>
<path d="M318.333 257.227V382.136H394.839V257.227H318.333ZM390.155 377.452H323.017V261.911H390.155V377.452Z" fill="#365066"/>
<path d="M260.577 293.357L273.068 285.55L260.577 277.744V293.357Z" fill="#365066"/>
<path d="M367.515 283.817H337.069V288.501H367.515V283.817Z" fill="#365066"/>
<path d="M377.664 299.431H337.069V304.115H377.664V299.431Z" fill="#365066"/>
<path d="M361.426 315.045H337.069V319.729H361.426V315.045Z" fill="#365066"/>
<path d="M273.443 353.298C276.677 353.298 279.298 350.677 279.298 347.443C279.298 344.209 276.677 341.588 273.443 341.588C270.209 341.588 267.588 344.209 267.588 347.443C267.588 350.677 270.209 353.298 273.443 353.298Z" fill="#365066"/>
<path d="M562.34 244.982L592.911 368.33H561.418V393.311H488.534C487.17 393.312 485.861 392.774 484.89 391.815C483.92 390.857 483.367 389.554 483.35 388.19V250.197C483.346 249.514 483.477 248.836 483.736 248.204C483.994 247.571 484.376 246.996 484.857 246.511C485.339 246.027 485.912 245.642 486.543 245.379C487.174 245.117 487.851 244.982 488.534 244.982H562.34ZM565.993 240.298H488.534C487.235 240.298 485.95 240.554 484.75 241.052C483.551 241.55 482.462 242.279 481.545 243.199C480.628 244.119 479.902 245.21 479.408 246.411C478.914 247.612 478.662 248.898 478.666 250.197V388.19C478.678 390.798 479.724 393.294 481.574 395.132C483.423 396.97 485.926 398 488.534 397.996H566.102V373.014H598.891L565.993 240.298Z" fill="#365066"/>
<path d="M546.492 269.277C548.17 269.315 549.802 269.84 551.188 270.788C552.574 271.736 553.655 273.066 554.299 274.617C556.266 279.004 555.064 284.203 550.973 288.888L533.423 306.469L515.936 288.997C511.783 284.672 510.487 279.629 512.345 275.257C513.016 273.598 514.16 272.172 515.633 271.156C517.107 270.141 518.846 269.58 520.636 269.542C523.758 269.542 527.146 271.244 530.207 274.492L533.704 278.177L537.108 274.383C540.09 271.041 543.353 269.277 546.476 269.277M546.476 264.593C542.354 264.593 537.795 266.56 533.595 271.26C529.301 266.732 524.742 264.858 520.62 264.858C508.925 264.858 500.822 280.05 512.579 292.276L533.423 313.104L554.439 292.088C565.79 279.332 557.78 264.593 546.492 264.593H546.476Z" fill="#365066"/>
<path d="M608.868 253.101L592.646 262.469L594.988 266.529L611.21 257.16L608.868 253.101Z" fill="#365066"/>
<path d="M614.505 284.016H595.769V288.7H614.505V284.016Z" fill="#365066"/>
<path d="M594.988 304.626L592.646 308.686L608.868 318.054L611.21 313.994L594.988 304.626Z" fill="#365066"/>
</g>
<defs>
<clipPath id="clip0_2107_459">
<rect width="615" height="407" fill="white"/>
</clipPath>
</defs>
</svg>
