<svg xmlns="http://www.w3.org/2000/svg" viewBox="0 0 160 160"><defs><style>.cls-1{fill:none;}.cls-2{fill:#f0f6fc;}.cls-3{fill:#fff;}.cls-4{fill:#365066;}.cls-5{fill:#2079d4;}</style></defs><g id="square"><rect class="cls-1" width="160" height="160"/></g><g id="linguagg_privacy"><path class="cls-2" d="M79,150A70,70,0,1,0,9,80,70,70,0,0,0,79,150Z"/><rect class="cls-3" x="26.52" y="33.52" width="94.97" height="88.97" rx="0.91"/><path class="cls-3" d="M54,67.45A9.45,9.45,0,1,1,63.45,58,9.46,9.46,0,0,1,54,67.45Z"/><path class="cls-4" d="M54,50.1A7.9,7.9,0,1,1,46.09,58,7.91,7.91,0,0,1,54,50.1M54,47A11,11,0,1,0,65,58,11,11,0,0,0,54,47Z"/><path class="cls-3" d="M41.5,94.53V83a9.64,9.64,0,0,1,9.72-9.53h5.56A9.64,9.64,0,0,1,66.5,83V94.53Z"/><path class="cls-4" d="M56.78,74.94A8.15,8.15,0,0,1,65,83V93.06H43V83a8.15,8.15,0,0,1,8.22-8.06h5.56m0-2.94H51.22A11.11,11.11,0,0,0,40,83V96H68V83A11.11,11.11,0,0,0,56.78,72Z"/><path class="cls-4" d="M120.57,32H27.43A2.43,2.43,0,0,0,25,34.43v87.14A2.43,2.43,0,0,0,27.43,124h93.14a2.43,2.43,0,0,0,2.43-2.43V34.43A2.43,2.43,0,0,0,120.57,32ZM120,35v67H28.5a1.64,1.64,0,0,0-.5.09V35ZM28,121V104.91a1.64,1.64,0,0,0,.5.09H120v16Z"/><path class="cls-4" d="M44.5,118H31v-9.5a1.5,1.5,0,0,1,3,0V115H44.5a1.5,1.5,0,0,1,0,3Z"/><path class="cls-5" d="M138,52h-5V44.5a22.47,22.47,0,1,0-44.94,0V52H82a1,1,0,0,0-1,1V91a1,1,0,0,0,1,1h56a1,1,0,0,0,1-1V53A1,1,0,0,0,138,52ZM94,44c0-9.1,7.44-16,16.53-16A16.51,16.51,0,0,1,127,44.5V52H94Z"/><path class="cls-3" d="M114.72,71a5.27,5.27,0,1,0-7.44,0,5.27,5.27,0,1,0,7.44,0Z"/></g></svg>