<svg xmlns="http://www.w3.org/2000/svg" viewBox="0 0 120 120"><defs><style>.cls-1{fill:#365066;}.cls-2{fill:none;}</style></defs><g id="comprendere"><path class="cls-1" d="M53.36,34.62a6,6,0,1,1-6,6,6,6,0,0,1,6-6m0-3a9,9,0,1,0,9,9,9,9,0,0,0-9-9Z"/><path class="cls-1" d="M53.17,54c-2.3,0-14-.63-24.79-12.55l-.92-1,.92-1C40.2,26.45,53,26.93,53.53,27h.19c11.66,0,22,9.56,24.84,12.5l1,1.06-1,1C75.66,44.5,65.33,54,53.57,53.94ZM31.55,40.39C42.14,51.32,53.4,51,53.51,51h.16c9.46,0,18-7,21.67-10.44C71.71,37.05,63.09,30,53.63,30h-.16C53.27,30,42.09,29.59,31.55,40.39Z"/><path class="cls-1" d="M76.08,22.45l17.58,74H73.37l0,3,.06,10H27.7a2.29,2.29,0,0,1-2.25-2.31V24.76a2.29,2.29,0,0,1,2.25-2.31H76.08m2.37-3H27.7a5.28,5.28,0,0,0-5.25,5.31v82.38a5.28,5.28,0,0,0,5.25,5.31H76.47l-.08-13H97.45l-19-80Z"/><polygon class="cls-1" points="30.25 5.56 27.65 7.06 33.65 17.45 36.25 15.95 30.25 5.56 30.25 5.56"/><polygon class="cls-1" points="52.45 4.45 49.45 4.45 49.45 16.45 52.45 16.45 52.45 4.45 52.45 4.45"/><polygon class="cls-1" points="70.65 5.56 64.65 15.95 67.25 17.45 73.25 7.06 70.65 5.56 70.65 5.56"/><rect class="cls-2" width="120" height="120"/></g></svg>