<svg xmlns="http://www.w3.org/2000/svg" viewBox="0 0 160 160"><defs><style>.cls-1{fill:none;}.cls-2{fill:#f0f6fc;}.cls-3{fill:#fff;}.cls-4{fill:#365066;}.cls-5{fill:#2079d4;}.cls-6{fill:#50a7ef;}</style></defs><g id="archi_costruisci"><rect class="cls-1" width="160" height="160"/><path class="cls-2" d="M79,150A70,70,0,1,0,9,80,70,70,0,0,0,79,150Z"/><rect class="cls-3" x="37.43" y="45.66" width="51.86" height="39.61"/><rect class="cls-3" x="37.61" y="85.56" width="51.78" height="40.6"/><rect class="cls-3" x="89.81" y="85.59" width="46.49" height="41.22"/><path class="cls-4" d="M128,83H92V47h36a1.5,1.5,0,0,0,0-3H92V16.5a1.5,1.5,0,0,0-3,0V44H58.91a1.5,1.5,0,0,0,0,3H89V83H39V16.5a1.5,1.5,0,0,0-3,0V83H18a1.5,1.5,0,0,0,0,3H36v56.5a1.5,1.5,0,0,0,3,0V86H89v56.5a1.5,1.5,0,0,0,3,0V86h36a1.5,1.5,0,0,0,0-3Z"/><rect class="cls-5" x="17" y="32" width="42" height="28" rx="1"/><path class="cls-6" d="M111,59a1,1,0,0,1-1,1H70.05a1,1,0,0,1-1-1V33.1a1,1,0,0,1,1-1h40a1,1,0,0,1,1,1Z"/><rect class="cls-5" x="69.05" y="72" width="41.95" height="27" rx="1"/></g></svg>