<svg xmlns="http://www.w3.org/2000/svg" viewBox="0 0 160 160"><defs><style>.cls-1{opacity:0.5;}.cls-2,.cls-3,.cls-4{fill:none;}.cls-2,.cls-3{stroke:#cd16f9;stroke-width:0.13px;}.cls-3{stroke-linecap:square;}.cls-5{fill:#f0f6fc;}.cls-6{fill:#fff;}.cls-7{fill:#365066;}.cls-8{fill:#50a7ef;}.cls-9{fill:#2079d4;}.cls-10{fill:#CC7A00;}</style></defs><g id="analytics_usa"><rect class="cls-4" width="160" height="160"/><path class="cls-5" d="M79,150A70,70,0,1,0,9,80,70,70,0,0,0,79,150Z"/><rect class="cls-6" x="25.5" y="33.5" width="119" height="77" rx="1.5"/><circle class="cls-7" cx="32" cy="41" r="2"/><circle class="cls-7" cx="39" cy="41" r="2"/><circle class="cls-7" cx="46" cy="41" r="2"/><path class="cls-7" d="M143,32H27a3,3,0,0,0-3,3v74a3,3,0,0,0,3,3H143a3,3,0,0,0,3-3V35A3,3,0,0,0,143,32Zm0,3V47H27V35ZM27,109V50H143v59Z"/><rect class="cls-8" x="109" y="58" width="12" height="45"/><rect class="cls-9" x="94" y="71" width="12" height="32" transform="translate(200 174) rotate(180)"/><rect class="cls-8" x="79" y="86" width="12" height="17"/><rect class="cls-10" x="124" y="76" width="12" height="27" transform="translate(260 179) rotate(180)"/><path class="cls-8" d="M52,64A18,18,0,1,0,70,82H52Z"/><path class="cls-9" d="M70,82A18,18,0,0,0,52,64V82Z"/><polygon class="cls-6" points="69.31 122.18 60.93 129.35 66.72 100.84 88.47 120.1 77.87 119.35 82.27 132.51 73.72 135.37 69.31 122.18"/><path class="cls-7" d="M68.37,100.29h0m-.69,3.4,16.48,14.6-4-.28-4.48-.32L77.16,122l3.21,9.61-5.7,1.91-3.23-9.65L70,119.59l-3.39,2.9-3.38,2.89,4.42-21.69m-1.27-4.8a1,1,0,0,0-1,.8l-6.26,30.79a1,1,0,0,0,1.63,1l7.79-6.67,3.89,11.63a.95.95,0,0,0,1.16.58l9.66-3.23a.92.92,0,0,0,.58-1.16L80,121l9.83.7h.08a1,1,0,0,0,.65-1.75L67.07,99.14a1,1,0,0,0-.66-.25Z"/></g></svg>