<svg xmlns="http://www.w3.org/2000/svg" viewBox="0 0 160 160"><defs><style>.cls-1{opacity:0.5;}.cls-2,.cls-3,.cls-4{fill:none;}.cls-2,.cls-3{stroke:#cd16f9;stroke-width:0.13px;}.cls-3{stroke-linecap:square;}.cls-5{fill:#f0f6fc;}.cls-6{fill:#fff;}.cls-7{fill:#365066;}.cls-8{fill:#2079d4;}.cls-9{fill:#50a7ef;}.cls-10{fill:#CC7A00;}.cls-11{fill:#80b9f2;}</style></defs><g id="analytics_dashboard"><rect class="cls-4" width="160" height="160"/><path class="cls-5" d="M79,150A70,70,0,1,0,9,80,70,70,0,0,0,79,150Z"/><rect class="cls-6" x="86.5" y="59.5" width="53" height="72" rx="1.5"/><path class="cls-7" d="M138,61v69H88V61h50m0-3H88a3,3,0,0,0-3,3v69a3,3,0,0,0,3,3h50a3,3,0,0,0,3-3V61a3,3,0,0,0-3-3Z"/><path class="cls-8" d="M114,67a17,17,0,1,0,17,17H114Z"/><path class="cls-9" d="M131,84a17,17,0,0,0-17-17V84Z"/><rect class="cls-10" x="94" y="108" width="38" height="6"/><rect class="cls-9" x="94" y="117" width="38" height="6"/><rect class="cls-6" x="21.5" y="23.5" width="55" height="108" rx="1.5"/><path class="cls-7" d="M75,25V130H23V25H75m0-3H23a3,3,0,0,0-3,3V130a3,3,0,0,0,3,3H75a3,3,0,0,0,3-3V25a3,3,0,0,0-3-3Z"/><rect class="cls-10" x="31" y="66" width="36" height="6"/><rect class="cls-9" x="31" y="79" width="36" height="6"/><rect class="cls-9" x="31" y="103" width="36" height="6"/><rect class="cls-9" x="31" y="116" width="36" height="6"/><path class="cls-11" d="M57,54.5h-.14a1.48,1.48,0,0,1-1.23-.88L48.68,38l-7,9.43a1.52,1.52,0,0,1-1.06.6,1.48,1.48,0,0,1-1.16-.38L28,37.11a1.5,1.5,0,1,1,2-2.22l10.27,9.38,7.51-10.16a1.5,1.5,0,0,1,2.58.28l6.91,15.55,9.48-13.79a1.5,1.5,0,1,1,2.48,1.7l-11,16A1.52,1.52,0,0,1,57,54.5Z"/><circle class="cls-8" cx="30" cy="37" r="3"/><circle class="cls-8" cx="40" cy="46" r="3"/><circle class="cls-8" cx="49" cy="36" r="3"/><circle class="cls-8" cx="57" cy="52" r="3"/><circle class="cls-8" cx="68" cy="37" r="3"/><rect class="cls-6" x="86.5" y="23.5" width="54" height="27" rx="1.5"/><path class="cls-7" d="M139,25V49H88V25h51m0-3H88a3,3,0,0,0-3,3V49a3,3,0,0,0,3,3h51a3,3,0,0,0,3-3V25a3,3,0,0,0-3-3Z"/><rect class="cls-9" x="94" y="31" width="39" height="12"/></g></svg>