<svg xmlns="http://www.w3.org/2000/svg" viewBox="0 0 160 160"><defs><style>.cls-1{fill:none;}.cls-2{fill:#f0f6fc;}.cls-3{fill:#2079d4;}.cls-4{fill:#CC7A00;}.cls-5{fill:#50a7ef;}.cls-6{fill:#fff;}.cls-7{fill:#365066;}</style></defs><g id="archi_organizza"><rect class="cls-1" width="160" height="160"/><path class="cls-2" d="M79,150A70,70,0,1,0,9,80,70,70,0,0,0,79,150Z"/><rect class="cls-3" x="32" y="40" width="42" height="28"/><polygon class="cls-4" points="146 104 110 104 110 94.33 110 84 146 84 146 104"/><polygon class="cls-5" points="145 48 103 48 103 34.47 103 20 145 20 145 48"/><polygon class="cls-3" points="146 128 110 128 110 118.33 110 108 146 108 146 128"/><path class="cls-6" d="M93.36,70.05a6.61,6.61,0,0,0-13.21-.49V63.22a6.62,6.62,0,1,0-13.23,0l0-4.23a6.62,6.62,0,0,0-13.23,0v3a6.61,6.61,0,0,0-13.21.49v37.63L37,94.16A6.36,6.36,0,0,0,25.38,95.7a6.32,6.32,0,0,0,.63,4.83l15.35,26.59a4.67,4.67,0,0,0,.41.58C45,134,53.66,138.52,63.89,138.52h9.6a19.87,19.87,0,0,0,19.87-19.87Z"/><circle class="cls-7" cx="60.21" cy="59.01" r="2.77"/><circle class="cls-7" cx="73.48" cy="63.74" r="2.77"/><path class="cls-7" d="M86.74,61.93a8,8,0,0,0-5.09,1.81v-.52a8.1,8.1,0,0,0-13.47-6.09,8.11,8.11,0,0,0-15.61-.64,8.11,8.11,0,0,0-13.61,6V94.32l-.66-1.14a7.87,7.87,0,0,0-13.63,7.87L40,127.64a3.42,3.42,0,0,0,.26.4c3.33,7,12.66,12,23.61,12h9.6a21.4,21.4,0,0,0,21.37-21.37V70.05A8.13,8.13,0,0,0,86.74,61.93ZM39,119.78,27.27,99.55a4.87,4.87,0,0,1,8.43-4.87L39,100.31Zm52.9-1.13A18.39,18.39,0,0,1,73.49,137h-9.6c-7.44,0-14-2.49-18-6.28l-.18-.18c-.2-.19-.39-.39-.57-.59s-.36-.41-.53-.61-.33-.42-.48-.63l0,0c-.14-.2-.28-.4-.4-.6l-.31-.5a12.29,12.29,0,0,1-.57-1.15,10.15,10.15,0,0,1-.85-4V62.46a5.11,5.11,0,0,1,10.21-.28V107h3v-.1h0V62.46c0-.19,0-.37,0-.56V59A5.12,5.12,0,0,1,65.4,59v48h0v.1h3V63.22a5.12,5.12,0,1,1,10.23,0v6.43c0,.13,0,.26,0,.4v37.1h3v-.1h0V69.85a5.11,5.11,0,0,1,10.21.2Z"/><circle class="cls-7" cx="86.8" cy="70.71" r="2.77"/><circle class="cls-7" cx="46.97" cy="62.91" r="2.77"/></g></svg>