<svg xmlns="http://www.w3.org/2000/svg" viewBox="0 0 160 160"><defs><style>.cls-1{opacity:0.5;}.cls-2,.cls-3,.cls-4{fill:none;}.cls-2,.cls-3{stroke:#cd16f9;stroke-width:0.13px;}.cls-3{stroke-linecap:square;}.cls-5{fill:#f0f6fc;}.cls-6{fill:#fff;}.cls-7{fill:#365066;}.cls-8{fill:#50a7ef;}.cls-9{fill:#CC7A00;}.cls-10{fill:#2079d4;}</style></defs><g id="usability_pianifica"><rect class="cls-4" width="160" height="160"/><path class="cls-5" d="M79,150A70,70,0,1,0,9,80,70,70,0,0,0,79,150Z"/><rect class="cls-6" x="33.5" y="22.5" width="93" height="120" rx="4.5"/><path class="cls-7" d="M122,24a3,3,0,0,1,3,3V138a3,3,0,0,1-3,3H38a3,3,0,0,1-3-3V27a3,3,0,0,1,3-3h84m0-3H38a6,6,0,0,0-6,6V138a6,6,0,0,0,6,6h84a6,6,0,0,0,6-6V27a6,6,0,0,0-6-6Z"/><path class="cls-7" d="M101,14H90V10a3,3,0,0,0-3-3H72a3,3,0,0,0-3,3v4H59a3,3,0,0,0-3,3V31h48V17A3,3,0,0,0,101,14Z"/><rect class="cls-8" x="76" y="68" width="42" height="12"/><rect class="cls-9" x="76" y="57" width="42" height="6"/><rect class="cls-9" x="76" y="105" width="42" height="6"/><rect class="cls-8" x="76" y="116" width="42" height="12"/><ellipse class="cls-10" cx="56.07" cy="59.52" rx="8.47" ry="8.57"/><path class="cls-10" d="M44,80a9.78,9.78,0,0,1,9.46-9.77h5.22C63.87,70.23,68,74.81,68,80Z"/><ellipse class="cls-10" cx="55.07" cy="107.52" rx="8.47" ry="8.57"/><path class="cls-10" d="M43.07,128c0-5.19,4.21-9.77,9.39-9.77h5.22A9.72,9.72,0,0,1,67.07,128Z"/></g></svg>