<?xml version="1.0" encoding="UTF-8" standalone="no"?>
<svg width="60px" height="73px" viewBox="0 0 60 73" version="1.1" xmlns="http://www.w3.org/2000/svg" xmlns:xlink="http://www.w3.org/1999/xlink">
    <defs></defs>
    <g id="-home" stroke="none" stroke-width="1" fill="none" fill-rule="evenodd">
        <g id="home---1280up" transform="translate(-241.000000, -1269.000000)" fill-rule="nonzero" fill="#FFFFFF">
            <g id="balloons" transform="translate(241.000000, 1269.000000)">
                <path d="M13.5102857,7.50875439 C9.01328571,9.97453216 6.10728571,15.3070897 6.10728571,21.0945809 C6.10728571,22.3856706 6.25071429,23.6739142 6.53357143,24.9235945 C6.69342857,25.6288343 7.322,26.1081014 8.01871429,26.1081014 C8.12985714,26.1081014 8.24257143,26.0960058 8.35528571,26.0703918 C9.17614286,25.8862554 9.69171429,25.0737212 9.50657143,24.2560643 C9.27357143,23.2252417 9.155,22.1618324 9.155,21.0948655 C9.155,16.3975361 11.4414286,12.1088928 14.98,10.1687719 C15.7172857,9.76435478 15.986,8.84153801 15.5802857,8.10684211 C15.1744286,7.3720039 14.2475714,7.10433723 13.5102857,7.50875439 Z" id="Shape"></path>
                <path d="M59.9877143,29.8695224 C59.9877143,19.6552144 52.4844286,11.3450253 43.2612857,11.3450253 C40.9467143,11.3450253 38.664,11.8775127 36.5631429,12.8928246 C33.6717143,5.32373489 26.9041429,0 19.0362857,0 C8.54642857,0 0.0124285714,9.46310526 0.0124285714,21.0945809 C0.0124285714,30.960538 6.15357143,39.2653197 14.4192857,41.5587719 C13.796,42.3270507 13.338,43.2026238 13.1052857,44.0683782 C12.5597143,46.0974366 13.263,47.9571579 14.9411429,48.9219532 C15.7795714,49.4043509 16.6024286,49.6489649 17.3865714,49.6489649 C17.4127143,49.6489649 17.4387143,49.647115 17.4648571,49.6465458 C17.344,50.6595809 17.142,51.8836472 16.9437143,53.0862261 C15.9862857,58.8944932 14.6745714,66.8493587 17.7165714,72.0981014 C17.9991429,72.5851949 18.511,72.8574152 19.0377143,72.8574152 C19.2962857,72.8574152 19.5582857,72.7918148 19.7981429,72.6536413 C20.527,72.2347096 20.7767143,71.3062008 20.3558571,70.5801852 C17.8584286,66.2709084 19.068,58.9347641 19.9511429,53.5780156 C20.2025714,52.0522729 20.4178571,50.7452456 20.533,49.6444113 C20.5838571,49.6465458 20.6344286,49.6488226 20.6857143,49.6488226 L20.686,49.6488226 C21.4697143,49.6488226 22.2925714,49.4042086 23.1314286,48.9218109 C24.8095714,47.9571579 25.5128571,46.0970097 24.967,44.0679513 C24.7342857,43.2026238 24.2762857,42.3267661 23.6532857,41.5586296 C25.4894286,41.0493372 27.2204286,40.2434912 28.803,39.189616 C30.998,43.3624269 34.5728571,46.3908596 38.7054286,47.6894912 C38.0512857,48.4751306 37.5715714,49.3794483 37.3308571,50.2730936 C36.785,52.3024366 37.4882857,54.1624425 39.1667143,55.1279493 C40.0051429,55.6100624 40.8274286,55.8542495 41.6114286,55.8542495 C41.6988571,55.8542495 41.7855714,55.8504074 41.8715714,55.8445731 C41.9165714,56.5217797 41.9792857,57.2819474 42.048,58.1128382 C42.3808571,62.1345263 42.8364286,67.6422554 41.884,70.9170097 C41.6497143,71.7222865 42.1152857,72.5642768 42.9235714,72.7976491 C43.0652857,72.8386316 43.2077143,72.8581267 43.3482857,72.8581267 C44.0092857,72.8581267 44.618,72.4261033 44.8111429,71.7619883 C45.9201429,67.9503353 45.4375714,62.1202963 45.0855714,57.8635283 C45.0271429,57.1599961 44.9704286,56.4728285 44.927,55.8538226 C45.7061429,55.8508343 46.5235714,55.6067895 47.3565714,55.1280916 C49.0347143,54.1630117 49.7382857,52.3030058 49.1924286,50.2736628 C48.9525714,49.3818674 48.4738571,48.479115 47.8215714,47.6947563 C54.8351429,45.490384 59.9877143,38.3338226 59.9877143,29.8695224 Z M21.6077143,46.2926725 C21.1471429,46.5573509 20.8522857,46.6131326 20.6858571,46.6131326 C20.5481429,46.6131326 20.3924286,46.5805458 20.1881429,46.3456082 C20.1794286,46.3357895 20.1697143,46.3272515 20.1607143,46.3177173 C20.1388571,46.2940955 20.117,46.2707583 20.094,46.2487018 C20.078,46.233191 20.0612857,46.2182495 20.0445714,46.2035926 C20.0227143,46.1843821 20.0008571,46.165883 19.9778571,46.1482378 C19.9594286,46.1337232 19.9407143,46.1192086 19.9212857,46.1055478 C19.8984286,46.0891832 19.8748571,46.0740994 19.8512857,46.0590156 C19.8312857,46.0466355 19.8117143,46.0338285 19.7911429,46.0223021 C19.7655714,46.0077875 19.739,45.9946959 19.7125714,45.9813197 C19.6932857,45.9717856 19.6741429,45.9616823 19.6545714,45.9532865 C19.6224286,45.9387719 19.5892857,45.9265341 19.5561429,45.9144386 C19.5411429,45.9091735 19.527,45.9029123 19.5118571,45.8979318 C19.4121429,45.8649181 19.3088571,45.842577 19.2027143,45.8310507 C19.1971429,45.8304815 19.1914286,45.8304815 19.1858571,45.8299123 C19.1394286,45.825501 19.0924286,45.8225127 19.0454286,45.8222281 C19.0424286,45.8222281 19.0394286,45.8219435 19.0364286,45.8219435 L19.0361429,45.8219435 C19.0227143,45.8219435 19.0095714,45.8237934 18.9958571,45.824078 C18.9601429,45.8249318 18.9241429,45.8264971 18.8881429,45.8300546 C18.8655714,45.8321891 18.8434286,45.8360312 18.8214286,45.8390195 C18.7991429,45.8422924 18.7767143,45.844 18.7545714,45.848269 C18.7468571,45.8498343 18.7392857,45.8521111 18.7314286,45.8538187 C18.7085714,45.85823 18.6861429,45.8642066 18.6635714,45.8700409 C18.6338571,45.8774405 18.604,45.8852671 18.5751429,45.8940897 C18.5554286,45.9003509 18.5361429,45.9074659 18.5167143,45.9145809 C18.4854286,45.9258226 18.4545714,45.9376335 18.4241429,45.9507251 C18.4075714,45.9581248 18.3911429,45.9662359 18.3744286,45.9740624 C18.3428571,45.9892885 18.312,46.0052261 18.2815714,46.0223021 C18.2665714,46.0309825 18.2518571,46.0395205 18.2368571,46.04877 C18.2068571,46.0671267 18.1772857,46.0867641 18.1487143,46.1072554 C18.1344286,46.1176433 18.1204286,46.1277466 18.1065714,46.1384191 C18.0788571,46.1597641 18.0521429,46.1822476 18.0257143,46.2057271 C18.0125714,46.2172534 17.9991429,46.2287797 17.9864286,46.2408752 C17.9598571,46.2657778 17.9352857,46.2922456 17.9108571,46.3188558 C17.9021429,46.3283899 17.8927143,46.3363587 17.8842857,46.3461774 C17.6801429,46.5809727 17.5241429,46.6137018 17.3862857,46.6137018 C17.2198571,46.6137018 16.925,46.5579201 16.4644286,46.2932417 C16.2745714,46.1840975 15.7694286,45.8938051 16.0488571,44.854729 C16.3872857,43.5965107 17.7364286,42.1894464 19.036,42.1894464 C20.3351429,42.1894464 21.6842857,43.5965107 22.0228571,44.8544444 C22.3025714,45.8933782 21.7975714,46.1835283 21.6077143,46.2926725 Z M19.0362857,39.1524756 C10.2271429,39.1524756 3.06028571,31.0516101 3.06028571,21.0945809 C3.06028571,11.1368402 10.2272857,3.03583236 19.0362857,3.03583236 C27.8457143,3.03583236 35.0122857,11.1369825 35.0122857,21.0945809 C35.0122857,31.0517524 27.8455714,39.1524756 19.0362857,39.1524756 Z M45.8328571,52.498384 C45.373,52.7627778 45.0781429,52.8182749 44.9117143,52.8182749 C44.8304286,52.8182749 44.743,52.8057524 44.6435714,52.7492593 C44.4012857,52.3579337 43.9855714,52.0798791 43.4907143,52.0332047 C43.4245714,52.0269435 43.3595714,52.0263743 43.2948571,52.0285088 C43.2835714,52.0282242 43.2725714,52.0266589 43.2611429,52.0266589 C42.8192857,52.0266589 42.3985714,52.2179103 42.1092857,52.5507505 C41.9047143,52.7858304 41.7491429,52.8182749 41.611,52.8182749 C41.4442857,52.8182749 41.1494286,52.7629201 40.6898571,52.4988109 C40.4997143,52.3893821 39.9945714,52.0988051 40.2742857,51.0591598 C40.613,49.8012261 41.9621429,48.3941618 43.2611429,48.3941618 C44.561,48.3941618 45.9101429,49.8013684 46.2485714,51.0591598 C46.5278571,52.0988051 46.0228571,52.3893821 45.8328571,52.498384 Z M43.2614286,45.3581871 C38.2415714,45.3581871 33.6225714,42.2129259 31.2412857,37.2614483 C34.9641429,33.8001384 37.4785714,28.7914561 37.9704286,23.1363041 C39.3835714,21.4254288 41.2914286,20.4519532 43.2614286,20.4519532 C43.3088571,20.4519532 43.3564286,20.4522378 43.4034286,20.4535185 C44.2434286,20.4707368 44.9412857,19.8053411 44.9585714,18.9673353 C44.9761429,18.1290448 44.3078571,17.4354737 43.4665714,17.4182554 C43.3984286,17.4166901 43.3297143,17.4161209 43.2614286,17.4161209 C41.384,17.4161209 39.5635714,17.9959942 37.9712857,19.0633879 C37.876,17.9631228 37.7052857,16.8869064 37.4628571,15.8418538 C39.2677143,14.8841735 41.2517143,14.3808577 43.2614286,14.3808577 C50.804,14.3808577 56.94,21.3290916 56.94,29.8693801 C56.94,38.4100955 50.8041429,45.3581871 43.2614286,45.3581871 Z" id="Shape"></path>
                <path d="M19.0362857,6.07180702 C18.9738571,6.07180702 18.9112857,6.07209162 18.8495714,6.07365692 C18.0082857,6.09386355 17.3425714,6.7894269 17.3628571,7.62743275 C17.3828571,8.45305848 18.0608571,9.10892008 18.8855714,9.10892008 C18.8977143,9.10892008 18.9102857,9.10892008 18.9227143,9.10863548 C18.9601429,9.10735478 18.9985714,9.10778168 19.0361429,9.10778168 C19.878,9.10778168 20.5601429,8.42815595 20.5601429,7.5898655 C20.5601429,6.75157505 19.8778571,6.07180702 19.0362857,6.07180702 Z" id="Shape"></path>
                <path d="M48.7007143,19.1637096 L48.6285714,19.1139045 C47.9392857,18.6327875 46.9888571,18.7994211 46.5061429,19.4860195 C46.0234286,20.1726179 46.1904286,21.1193411 46.8797143,21.6001735 L46.9291429,21.6343255 C47.1977143,21.8252924 47.5071429,21.917076 47.8137143,21.917076 C48.289,21.917076 48.7574286,21.6962261 49.055,21.2814211 C49.5441429,20.5992339 49.3855714,19.6510877 48.7007143,19.1637096 Z" id="Shape"></path>
            </g>
        </g>
    </g>
</svg>