<?xml version="1.0" encoding="UTF-8" standalone="no"?>
<svg width="80px" height="80px" viewBox="0 0 80 80" version="1.1" xmlns="http://www.w3.org/2000/svg" xmlns:xlink="http://www.w3.org/1999/xlink">
    <defs></defs>
    <g id="-home" stroke="none" stroke-width="1" fill="none" fill-rule="evenodd">
        <g id="home---1280up" transform="translate(-1077.000000, -1258.000000)" fill-rule="nonzero" fill="#FFFFFF">
            <g id="kite-(1)" transform="translate(1117.000000, 1298.000000) scale(-1, 1) translate(-1117.000000, -1298.000000) translate(1077.000000, 1258.000000)">
                <path d="M79.6083227,44.573617 C79.6190234,44.5577872 79.6290446,44.541617 79.6390658,44.5254468 C79.6495966,44.5084255 79.6597877,44.491234 79.6696391,44.4737021 C79.6793206,44.4563404 79.6884926,44.4389787 79.697155,44.4212766 C79.7058174,44.4035745 79.7139703,44.3858723 79.7219533,44.3678298 C79.7297665,44.3501277 79.7374098,44.3324255 79.7443737,44.3145532 C79.7518471,44.2951489 79.7584713,44.2754043 79.7649257,44.2554894 C79.7705308,44.2384681 79.7764756,44.2214468 79.7814013,44.2042553 C79.7876858,44.1821277 79.7926115,44.1594894 79.797707,44.1370213 C79.8012739,44.1213617 79.8053503,44.1060426 79.8082378,44.090383 C79.8129936,44.0648511 79.8162208,44.0388085 79.819448,44.0125957 C79.8211465,43.9994894 79.8235244,43.986383 79.8247134,43.9732766 C79.8279406,43.9387234 79.8292994,43.9038298 79.8296391,43.8685957 C79.8296391,43.8636596 79.8303185,43.8587234 79.8303185,43.8539574 L79.8303185,1.27744681 C79.8303185,1.23489362 79.8281104,1.19251064 79.824034,1.15012766 C79.8223355,1.13293617 79.8191083,1.11625532 79.8167304,1.09940426 C79.8133333,1.07506383 79.8104459,1.0507234 79.80569,1.0267234 C79.8017834,1.0066383 79.7961783,0.98706383 79.7912527,0.967319149 C79.7861571,0.946723404 79.7815711,0.925957447 79.7754565,0.905702128 C79.7695117,0.88612766 79.7622081,0.86706383 79.7552442,0.848 C79.7481104,0.827914894 79.7414862,0.807659574 79.7333333,0.787914894 C79.7258599,0.76987234 79.7170276,0.752510638 79.7088747,0.734978723 C79.6993631,0.714893617 79.6905308,0.694468085 79.68,0.674723404 C79.6709979,0.658042553 79.6608068,0.642042553 79.6511253,0.62587234 C79.6395754,0.606297872 79.628535,0.586553191 79.6157962,0.567659574 C79.6039066,0.549957447 79.5906582,0.533276596 79.5780892,0.516255319 C79.5660297,0.500085106 79.5548195,0.483404255 79.541741,0.467574468 C79.5169427,0.437446809 79.4906157,0.408510638 79.4632696,0.380595745 C79.4612314,0.378553191 79.4595329,0.376170213 79.4574947,0.37412766 C79.424034,0.341446809 79.3948195,0.314723404 79.3640764,0.289531915 C79.3494692,0.277617021 79.3341826,0.26706383 79.3190658,0.255829787 C79.3007219,0.242042553 79.2828875,0.227914894 79.2638641,0.215148936 C79.2460297,0.203234043 79.2275159,0.192851064 79.2093418,0.181957447 C79.1918471,0.171574468 79.174862,0.160510638 79.1570276,0.150978723 C79.1385138,0.141106383 79.1194904,0.132595745 79.1004671,0.123744681 C79.0817834,0.114893617 79.0632696,0.105531915 79.0439066,0.0975319149 C79.0255626,0.0900425532 79.006879,0.0839148936 78.9883652,0.077106383 C78.9676433,0.0696170213 78.9472611,0.0616170213 78.9260297,0.0553191489 C78.9078556,0.0498723404 78.8893418,0.045787234 78.870828,0.0411914894 C78.8489172,0.0355744681 78.8273461,0.0294468085 78.8050955,0.0250212766 C78.7845435,0.0209361702 78.7636518,0.0185531915 78.7429299,0.0154893617 C78.7225478,0.0124255319 78.7025053,0.00868085106 78.6819533,0.00663829787 C78.6447558,0.00289361702 78.6073885,0.00136170213 78.5700212,0.0010212766 C78.5656051,0.0010212766 78.561189,0.000340425532 78.556603,0.000340425532 L36.0687898,0.000340425532 C36.028535,0.000340425532 35.9887898,0.00238297872 35.9495541,0.00612765957 C35.9403822,0.0069787234 35.9312102,0.00885106383 35.9218684,0.00987234043 C35.8918047,0.0134468085 35.8620807,0.0171914894 35.8326964,0.0228085106 C35.8192781,0.0253617021 35.8061996,0.0289361702 35.7929512,0.0318297872 C35.7681529,0.0372765957 35.7433546,0.042893617 35.7190658,0.0498723404 C35.7034395,0.0542978723 35.6881529,0.0597446809 35.6726964,0.0648510638 C35.6511253,0.072 35.629724,0.0791489362 35.6088323,0.0873191489 C35.5921868,0.093787234 35.5758811,0.10093617 35.5594055,0.108085106 C35.5400425,0.116595745 35.5208493,0.125446809 35.5018259,0.134808511 C35.4853503,0.142978723 35.4690446,0.151659574 35.4527389,0.160680851 C35.4340552,0.17106383 35.4157113,0.181957447 35.397707,0.193361702 C35.3824204,0.202893617 35.3673036,0.212255319 35.3523567,0.222468085 C35.3321444,0.236255319 35.3127813,0.250893617 35.2934183,0.26587234 C35.2815287,0.27506383 35.2694692,0.283574468 35.2579193,0.293276596 C35.2270064,0.318808511 35.1972824,0.345531915 35.1689172,0.373787234 C35.1660297,0.376510638 35.1643312,0.37906383 35.1621231,0.381106383 C35.1363057,0.407319149 35.1116773,0.434723404 35.0880679,0.463148936 C35.0783864,0.474723404 35.069724,0.486808511 35.0607219,0.498553191 C35.0457749,0.517957447 35.0309979,0.537531915 35.0170701,0.557957447 C35.0070488,0.572765957 34.9975372,0.587744681 34.9881953,0.602893617 C34.9769851,0.621106383 34.9659448,0.639489362 34.9555839,0.658212766 C34.9464119,0.674893617 34.9374098,0.691744681 34.929087,0.708765957 C34.9202548,0.726638298 34.9119321,0.745021277 34.9037792,0.763404255 C34.8957962,0.781446809 34.887983,0.799659574 34.8808493,0.818042553 C34.8738854,0.835914894 34.8679406,0.854297872 34.8618259,0.872680851 C34.8553715,0.892085106 34.8487473,0.911319149 34.8433121,0.930893617 C34.8382166,0.948765957 34.83431,0.967148936 34.8300637,0.985361702 C34.8253079,1.00578723 34.8202123,1.02604255 34.8164756,1.04646809 C34.815966,1.04953191 34.8149469,1.05242553 34.8144374,1.05531915 L25.7802123,52.3603404 L20.070828,58.0818723 L17.1526115,52.2966809 C16.9683227,51.9314043 16.6202972,51.6765957 16.2170701,51.6120851 C15.8129936,51.5470638 15.4038217,51.6805106 15.1149045,51.9700426 L9.54717622,57.5489362 C9.25842887,57.8384681 9.1256051,58.2491915 9.18997877,58.6532766 C9.25469214,59.0575319 9.50861996,59.4061277 9.87312102,59.5908085 L15.6461996,62.515234 L10.8968153,67.2747234 L7.97859873,61.4895319 C7.79430998,61.1242553 7.4462845,60.8694468 7.04305732,60.8049362 C6.63949045,60.7402553 6.22980892,60.8733617 5.94089172,61.1628936 L0.373163482,66.7424681 C0.0844161359,67.032 -0.0484076433,67.4427234 0.0159660297,67.8468085 C0.0806794055,68.2510638 0.334607219,68.5996596 0.69910828,68.7843404 L6.47218684,71.708766 L0.478980892,77.7148936 C-0.0185138004,78.2134468 -0.0185138004,79.0217872 0.478980892,79.5201702 C0.727813163,79.7693617 1.05375796,79.8941277 1.37987261,79.8941277 C1.70581741,79.8941277 2.03193206,79.7695319 2.28076433,79.5201702 L8.27397028,73.5142128 L11.1921868,79.2994043 C11.3764756,79.6646809 11.7245011,79.9194894 12.1277282,79.984 C12.1949894,79.9947234 12.2622505,80 12.329172,80 C12.6644586,80 12.9892144,79.8674043 13.2300637,79.6260426 L18.7977919,74.0462979 C19.0865393,73.756766 19.2193631,73.3460426 19.1549894,72.9419574 C19.090276,72.5377021 18.8363482,72.1891064 18.4718471,72.0044255 L12.6989384,69.08 L17.4483227,64.3205106 L20.3665393,70.1057021 C20.550828,70.4709787 20.8988535,70.7257872 21.3020807,70.7902979 C21.3693418,70.8010213 21.436603,70.8062979 21.5035244,70.8062979 C21.838811,70.8062979 22.1635669,70.6737021 22.4044161,70.4323404 L27.9721444,64.8525957 C28.2608917,64.5630638 28.3937155,64.1523404 28.329172,63.7482553 C28.2646285,63.344 28.0107006,62.9954043 27.6461996,62.8107234 L21.873121,59.8862979 L27.5826752,54.1645957 L78.7785987,45.1111489 C78.7819958,45.1106383 78.7850531,45.109617 78.7882803,45.1089362 C78.8073036,45.1053617 78.8259873,45.1005957 78.8448408,45.0963404 C78.8645435,45.0917447 78.8842463,45.0874894 78.9036093,45.0820426 C78.9221231,45.076766 78.9402972,45.0706383 78.9586412,45.0645106 C78.9780042,45.0580426 78.9971975,45.0515745 79.0162208,45.0442553 C79.0337155,45.0374468 79.0510403,45.0299574 79.0681953,45.0224681 C79.0875584,45.0139574 79.1065817,45.0052766 79.1252654,44.9959149 C79.1415711,44.9877447 79.1575372,44.979234 79.1735032,44.970383 C79.1930361,44.9594894 79.2120594,44.9482553 79.230913,44.9363404 C79.2453503,44.9273191 79.2597877,44.9182979 79.2738854,44.9085957 C79.2947771,44.8942979 79.3149894,44.8791489 79.3350318,44.8634894 C79.3464119,44.8546383 79.3579618,44.8462979 79.3690021,44.8371064 C79.3975372,44.8134468 79.4250531,44.7885957 79.45138,44.7625532 C79.4534183,44.7605106 79.4557962,44.7588085 79.4578344,44.756766 C79.4865393,44.7278298 79.5132059,44.6980426 79.5385138,44.6674043 C79.5487049,44.6549787 79.5578769,44.6422128 79.5675584,44.6294468 C79.5811465,44.6114043 79.5950743,44.5928511 79.6083227,44.573617 L79.6083227,44.573617 Z M57.3126115,20.7601702 L39.1442887,2.55319149 L75.4809342,2.55319149 L57.3126115,20.7601702 Z M36.8980042,3.91302128 L55.5109979,22.5654468 L28.9216136,49.2115745 L36.8980042,3.91302128 L36.8980042,3.91302128 Z M12.5926115,58.1075745 L15.6725265,55.0212766 L18.1746072,59.981617 L17.5424204,60.6151489 L12.5926115,58.1075745 Z M3.41876858,67.3011064 L6.49868365,64.2148085 L9.00076433,69.1751489 L8.36857749,69.8086809 L3.41876858,67.3011064 L3.41876858,67.3011064 Z M15.752017,73.4878298 L12.6721019,76.5742979 L10.1700212,71.6141277 L10.8022081,70.9805957 L15.752017,73.4878298 Z M24.9260297,64.2942979 L21.8461146,67.3805957 L19.344034,62.4202553 L19.9762208,61.7867234 L24.9260297,64.2942979 Z M58.2131635,23.4685957 C58.2138429,23.4679149 77.2825478,4.3586383 77.2825478,4.3586383 L77.2825478,40.7725957 L61.8165605,25.2737021 C61.318896,24.7751489 60.5124416,24.7751489 60.0149469,25.2737021 C59.5174522,25.7722553 59.5174522,26.5805957 60.0149469,27.0789787 L75.9256051,43.0234894 L30.723397,51.0170213 L58.2131635,23.4685957 L58.2131635,23.4685957 Z" id="Shape"></path>
            </g>
        </g>
    </g>
</svg>