<?xml version="1.0" encoding="UTF-8" standalone="no"?>
<svg width="74px" height="80px" viewBox="0 0 74 80" version="1.1" xmlns="http://www.w3.org/2000/svg" xmlns:xlink="http://www.w3.org/1999/xlink">
    <defs></defs>
    <g id="-home" stroke="none" stroke-width="1" fill="none" fill-rule="evenodd">
        <g id="home---1280up" transform="translate(-360.000000, -1472.000000)" fill-rule="nonzero" fill="#FFFFFF">
            <g id="plane" transform="translate(397.000000, 1512.000000) rotate(90.000000) translate(-397.000000, -1512.000000) translate(357.000000, 1475.000000)">
                <path d="M66.7605458,22.3660336 L49.965692,22.3660336 L49.965692,10.4209412 C49.965692,7.87291597 47.8863158,5.80013866 45.3303704,5.80013866 L41.2517739,5.80013866 L41.2517739,4.03253361 L51.0930214,4.03253361 C51.8276803,4.03253361 52.422924,3.43897899 52.422924,2.7067521 C52.422924,1.97452521 51.8276803,1.38097059 51.0930214,1.38097059 L41.2474074,1.38097059 C41.2015595,0.690096639 40.6265887,0.143647059 39.9218713,0.143647059 C39.217154,0.143647059 38.6423392,0.690252101 38.5963353,1.38097059 L28.7507212,1.38097059 C28.0160624,1.38097059 27.4208187,1.97452521 27.4208187,2.7067521 C27.4208187,3.43897899 28.0160624,4.03253361 28.7507212,4.03253361 L38.5919688,4.03253361 L38.5919688,5.80029412 L34.5138402,5.80029412 C31.9582066,5.80029412 29.8786745,7.87322689 29.8786745,10.4210966 L29.8786745,22.3661891 L13.0833528,22.3661891 C5.86931774,22.3660336 0,28.2170084 0,35.4091555 C0,42.6011471 5.86931774,48.4522773 13.0835088,48.4522773 L30.3592982,48.4522773 L30.7934503,52.6676345 C27.6422612,53.4244244 25.2935673,56.2567899 25.2935673,59.6282983 C25.2935673,63.5748613 28.5144639,66.7856218 32.4731384,66.7856218 L36.1097856,66.7856218 L36.1097856,70.0559244 C36.1097856,72.1515546 37.820039,73.8565084 39.9221832,73.8565084 C42.0243275,73.8565084 43.7345809,72.1515546 43.7345809,70.0559244 L43.7345809,66.7856218 L47.3698246,66.7856218 C51.3297466,66.7856218 54.5512671,63.574084 54.5512671,59.6264328 C54.5512671,56.2563235 52.2022612,53.4242689 49.051384,52.6673235 L49.4855361,48.4519664 L66.7608577,48.4519664 C73.9752047,48.4519664 79.8443665,42.6008361 79.8443665,35.4088445 C79.8443665,28.2168529 73.9750487,22.3660336 66.7605458,22.3660336 Z M32.5389474,10.4209412 C32.5387914,9.33503782 33.4248733,8.45170168 34.514152,8.45170168 L45.3305263,8.45170168 C46.4198051,8.45170168 47.3060429,9.33519328 47.3060429,10.4209412 L47.3060429,10.5095546 L32.5389474,10.5095546 L32.5389474,10.4209412 Z M32.5387914,13.1611176 L47.3058869,13.1611176 L47.3058869,22.3660336 L32.5387914,22.3660336 L32.5387914,13.1611176 L32.5387914,13.1611176 Z M36.1097856,56.2678277 L36.1097856,64.1340588 L32.4731384,64.1340588 C29.9808187,64.1340588 27.9532164,62.1127395 27.9532164,59.6264328 C27.9532164,57.1409034 29.9815984,55.1188067 32.4748538,55.1188067 L36.2888109,55.1188067 C36.1732554,55.4816555 36.1097856,55.8673571 36.1097856,56.2678277 Z M41.0746199,70.0559244 C41.0746199,70.6894328 40.5575049,71.2049454 39.9220273,71.2049454 C39.2865497,71.2049454 38.7694347,70.6894328 38.7694347,70.0559244 L38.7694347,56.2679832 C38.7694347,55.6344748 39.2865497,55.1189622 39.9220273,55.1189622 C40.5575049,55.1189622 41.0746199,55.6344748 41.0746199,56.2679832 L41.0746199,70.0559244 Z M33.4463938,52.4673992 L33.0331384,48.4522773 L46.811384,48.4522773 L46.3979727,52.4673992 L33.4463938,52.4673992 Z M51.891306,59.6264328 C51.891306,62.1119622 49.862924,64.1340588 47.3696686,64.1340588 L43.734425,64.1340588 L43.734425,56.2678277 C43.734425,55.8672017 43.6711111,55.4815 43.5553996,55.1188067 L47.3696686,55.1188067 C49.862768,55.1188067 51.891306,57.1409034 51.891306,59.6264328 Z M66.7605458,45.8004034 L13.0835088,45.8004034 C7.33582846,45.8004034 2.65980507,41.1388697 2.65980507,35.409 C2.65980507,29.6791303 7.33582846,25.0174412 13.0835088,25.0174412 L66.7605458,25.0174412 C72.5082261,25.0174412 77.1842495,29.6789748 77.1842495,35.409 C77.1842495,41.1390252 72.5082261,45.8004034 66.7605458,45.8004034 Z" id="Shape"></path>
                <path d="M12.7923587,28.7802479 C12.0576998,28.7802479 11.4624561,29.3738025 11.4624561,30.1060294 L11.4624561,40.7121261 C11.4624561,41.4443529 12.0576998,42.0379076 12.7923587,42.0379076 C13.5270175,42.0379076 14.1222612,41.4443529 14.1222612,40.7121261 L14.1222612,30.1060294 C14.1222612,29.3736471 13.5267057,28.7802479 12.7923587,28.7802479 Z" id="Shape"></path>
                <path d="M20.2396881,28.7802479 C19.5050292,28.7802479 18.9097856,29.3738025 18.9097856,30.1060294 L18.9097856,40.7121261 C18.9097856,41.4443529 19.5050292,42.0379076 20.2396881,42.0379076 C20.974347,42.0379076 21.5695906,41.4443529 21.5695906,40.7121261 L21.5695906,30.1060294 C21.5695906,29.3736471 20.974191,28.7802479 20.2396881,28.7802479 Z" id="Shape"></path>
                <path d="M59.6045224,28.7802479 C58.8698635,28.7802479 58.2746199,29.3738025 58.2746199,30.1060294 L58.2746199,40.7121261 C58.2746199,41.4443529 58.8698635,42.0379076 59.6045224,42.0379076 C60.3391813,42.0379076 60.934425,41.4443529 60.934425,40.7121261 L60.934425,30.1060294 C60.934425,29.3736471 60.3390253,28.7802479 59.6045224,28.7802479 Z" id="Shape"></path>
                <path d="M67.0518519,28.7802479 C66.317193,28.7802479 65.7219493,29.3738025 65.7219493,30.1060294 L65.7219493,40.7121261 C65.7219493,41.4443529 66.317193,42.0379076 67.0518519,42.0379076 C67.7865107,42.0379076 68.3817544,41.4443529 68.3817544,40.7121261 L68.3817544,30.1060294 C68.3817544,29.3736471 67.7863548,28.7802479 67.0518519,28.7802479 Z" id="Shape"></path>
            </g>
        </g>
    </g>
</svg>