<?xml version="1.0" encoding="UTF-8" standalone="no"?>
<svg width="56px" height="80px" viewBox="0 0 56 80" version="1.1" xmlns="http://www.w3.org/2000/svg" xmlns:xlink="http://www.w3.org/1999/xlink">
    <defs></defs>
    <g id="-home" stroke="none" stroke-width="1" fill="none" fill-rule="evenodd">
        <g id="home---1280up" transform="translate(-692.000000, -1769.000000)" fill-rule="nonzero" fill="#FFFFFF">
            <g id="Group-12" transform="translate(441.000000, 1769.000000)">
                <g id="robot" transform="translate(251.000000, 0.000000)">
                    <path d="M39.1160259,6.9962851 C39.1654428,6.62600432 39.0526134,6.2524406 38.8065659,5.97131749 C38.5605184,5.69036717 38.2050972,5.52898488 37.8315335,5.52898488 L17.287257,5.52898488 C16.9136933,5.52898488 16.5582721,5.69019438 16.3122246,5.97131749 C16.0661771,6.25226782 15.9533477,6.62600432 16.0027646,6.9962851 L17.292959,16.672311 C17.3788337,17.3161123 17.9279482,17.7969762 18.5774514,17.7969762 L36.5415119,17.7969762 C37.1910151,17.7969762 37.7403024,17.3161123 37.8260043,16.672311 L39.1160259,6.9962851 Z M35.4068251,15.2051836 L19.7119654,15.2051836 L18.7673434,8.12095032 L36.3514471,8.12095032 L35.4068251,15.2051836 Z" id="Shape"></path>
                    <path d="M23.412527,13.650108 C24.1282073,13.650108 24.7084233,13.069892 24.7084233,12.3542117 L24.7084233,10.9719222 C24.7084233,10.2562419 24.1282073,9.67602592 23.412527,9.67602592 C22.6968467,9.67602592 22.1166307,10.2562419 22.1166307,10.9719222 L22.1166307,12.3542117 C22.1166307,13.069892 22.6968467,13.650108 23.412527,13.650108 Z" id="Shape"></path>
                    <path d="M31.7062635,13.650108 C32.4219438,13.650108 33.0021598,13.069892 33.0021598,12.3542117 L33.0021598,10.9719222 C33.0021598,10.2562419 32.4219438,9.67602592 31.7062635,9.67602592 C30.9905832,9.67602592 30.4103672,10.2562419 30.4103672,10.9719222 L30.4103672,12.3542117 C30.4103672,13.069892 30.9905832,13.650108 31.7062635,13.650108 Z" id="Shape"></path>
                    <path d="M54.1297624,27.6687689 C53.3579266,26.7758099 52.2380994,26.2634989 51.057797,26.2634989 L48.9838445,26.2634989 L49.112743,25.3828078 C49.2836285,24.2147732 48.9390929,23.032743 48.1670842,22.1396112 C47.3952484,21.2464795 46.275594,20.7343413 45.0951188,20.7343413 L42.3832397,20.7343413 C42.7754644,20.1005616 43.0429374,19.3795248 43.1464363,18.6026782 L44.8051836,6.16207343 C45.012527,4.60699784 44.5387473,3.03792657 43.5053132,1.8574514 C42.471879,0.676976242 40.9793521,0 39.4102808,0 L15.7085097,0 C14.1394384,0 12.6469114,0.676976242 11.6134773,1.8574514 C10.5800432,3.03792657 10.1060907,4.60682505 10.3136069,6.16207343 L11.9723542,18.6026782 C12.0758531,19.3795248 12.3433261,20.1005616 12.7357235,20.7343413 L10.0238445,20.7343413 C8.84336933,20.7343413 7.7237149,21.2464795 6.95187905,22.1396112 C6.1800432,23.032743 5.83533477,24.2147732 6.0062203,25.3828078 L6.13511879,26.2634989 L4.06099352,26.2634989 C2.88051836,26.2634989 1.76086393,26.7756371 0.989028078,27.6687689 C0.217192225,28.5619006 -0.127516199,29.7439309 0.0433693305,30.9119654 L2.93390929,50.6641901 C3.42082073,53.991879 6.32397408,56.5010799 9.68691145,56.5010799 L10.5598272,56.5010799 L12.035594,66.5857451 C12.5807343,70.3115335 14.4499352,73.7193952 17.2988337,76.1817711 C20.1477322,78.6439741 23.7904104,80 27.5630238,80 C31.3283801,80 34.9712311,78.6439741 37.8199568,76.1815983 C40.6688553,73.7193952 42.5380562,70.3113607 43.0831965,66.5855724 L44.5587905,56.5010799 L45.4317063,56.5010799 C48.7946436,56.5010799 51.6979698,53.991879 52.1847084,50.6641901 L55.0752484,30.9117927 C55.2463067,29.7439309 54.9017711,28.5619006 54.1297624,27.6687689 Z M51.057797,28.8552916 C51.4909719,28.8552916 51.8856156,29.0358531 52.1689849,29.3634557 C52.4523542,29.6912311 52.5736501,30.1078186 52.5109287,30.5365011 L52.3270842,31.7926566 L48.1746868,31.7926566 L48.6045788,28.8552916 L51.057797,28.8552916 Z M50.3042765,45.6155508 L46.151879,45.6155508 L47.7954212,34.3844492 L51.9478186,34.3844492 L50.3042765,45.6155508 Z M3.17097192,34.3844492 L7.32336933,34.3844492 L8.96691145,45.6155508 L4.81451404,45.6155508 L3.17097192,34.3844492 Z M13.7860907,60.6479482 L41.332527,60.6479482 L40.902635,63.5853132 L14.2158099,63.5853132 L13.7860907,60.6479482 Z M14.5411663,18.260216 L12.882419,5.81961123 C12.7739093,5.00492441 13.0220302,4.18315335 13.5633693,3.56475162 C14.1047084,2.94634989 14.8865659,2.59179266 15.7085097,2.59179266 L39.4104536,2.59179266 C40.2322246,2.59179266 41.0140821,2.94634989 41.555594,3.56475162 C42.0971058,4.18315335 42.345054,5.00492441 42.2365443,5.81961123 L40.577797,18.260216 C40.3898056,19.6706695 39.174946,20.7343413 37.751879,20.7343413 L17.3670842,20.7343413 C15.9440173,20.7343413 14.7293305,19.6706695 14.5411663,18.260216 Z M8.9124838,23.8342981 C9.19585313,23.5065227 9.59032397,23.3261339 10.0236717,23.3261339 L45.0952916,23.3261339 C45.5284665,23.3261339 45.9231102,23.5065227 46.2064795,23.8342981 C46.4898488,24.1620734 46.6111447,24.5786609 46.5484233,25.0075162 L41.7119654,58.0561555 L13.4068251,58.0561555 L8.57036717,25.0075162 C8.50781857,24.5788337 8.62911447,24.1620734 8.9124838,23.8342981 Z M2.94980562,29.3634557 C3.23317495,29.0358531 3.62764579,28.8552916 4.06099352,28.8552916 L6.51421166,28.8552916 L6.94410367,31.7926566 L2.79170626,31.7926566 L2.60786177,30.5365011 C2.54514039,30.1079914 2.66660907,29.6912311 2.94980562,29.3634557 Z M9.68691145,53.9092873 C7.60103672,53.9092873 5.80025918,52.3528294 5.49822894,50.2888985 L5.1937797,48.2073434 L9.34617711,48.2073434 L10.1805616,53.9092873 L9.68691145,53.9092873 Z M36.1250972,74.2208207 C33.747041,76.2762851 30.7061771,77.4082073 27.5557667,77.4082073 C24.4124406,77.4082073 21.3717495,76.2762851 18.9936933,74.2208207 C16.6156371,72.1653564 15.055378,69.3206048 14.6000864,66.2104536 L14.5952484,66.1771058 L40.5235421,66.1771058 L40.5187041,66.2104536 C40.0634125,69.3206048 38.5031533,72.1653564 36.1250972,74.2208207 Z M45.431879,53.9092873 L44.9382289,53.9092873 L45.7726134,48.2073434 L49.9250108,48.2073434 L49.6203888,50.2888985 C49.3183585,52.3528294 47.5177538,53.9092873 45.431879,53.9092873 Z" id="Shape"></path>
                    <path d="M17.8833693,37.1490281 L22.0774082,37.1490281 C23.0762851,38.4941685 24.5577538,39.4593521 26.2634989,39.7886825 L26.2634989,44.1468683 C26.2634989,44.8625486 26.8437149,45.4427646 27.5593952,45.4427646 C28.2750756,45.4427646 28.8552916,44.8625486 28.8552916,44.1468683 L28.8552916,39.7886825 C30.5608639,39.4593521 32.0425054,38.4941685 33.0413823,37.1490281 L37.2354212,37.1490281 C39.4743844,37.1490281 41.2958963,35.3275162 41.2958963,33.0885529 C41.2958963,30.8495896 39.4743844,29.0280778 37.2354212,29.0280778 L33.0413823,29.0280778 C31.7966307,27.351879 29.802851,26.2634989 27.5593952,26.2634989 C25.3159395,26.2634989 23.3221598,27.351879 22.0774082,29.0280778 L17.8833693,29.0280778 C15.644406,29.0280778 13.8228942,30.8495896 13.8228942,33.0885529 C13.8228942,35.3275162 15.644406,37.1490281 17.8833693,37.1490281 Z M37.2354212,31.6198704 C38.04527,31.6198704 38.7041037,32.2787041 38.7041037,33.0885529 C38.7041037,33.8984017 38.04527,34.5572354 37.2354212,34.5572354 L34.2235853,34.5572354 C34.3277754,34.0838013 34.3844492,33.592743 34.3844492,33.0885529 C34.3844492,32.5843629 34.3277754,32.0933045 34.2235853,31.6198704 L37.2354212,31.6198704 Z M27.5593952,28.8552916 C29.8935637,28.8552916 31.7926566,30.7543844 31.7926566,33.0885529 C31.7926566,35.4227214 29.8935637,37.3218143 27.5593952,37.3218143 C25.2252268,37.3218143 23.3261339,35.4227214 23.3261339,33.0885529 C23.3261339,30.7543844 25.2252268,28.8552916 27.5593952,28.8552916 Z M17.8833693,31.6198704 L20.8952052,31.6198704 C20.7910151,32.0933045 20.7343413,32.5843629 20.7343413,33.0885529 C20.7343413,33.592743 20.7910151,34.0838013 20.8952052,34.5572354 L17.8833693,34.5572354 C17.0735205,34.5572354 16.4146868,33.8984017 16.4146868,33.0885529 C16.4146868,32.2787041 17.0735205,31.6198704 17.8833693,31.6198704 Z" id="Shape"></path>
                </g>
            </g>
        </g>
    </g>
</svg>