<?xml version="1.0" encoding="UTF-8" standalone="no"?>
<svg width="80px" height="80px" viewBox="0 0 80 80" version="1.1" xmlns="http://www.w3.org/2000/svg" xmlns:xlink="http://www.w3.org/1999/xlink">
    <defs></defs>
    <g id="-home" stroke="none" stroke-width="1" fill="none" fill-rule="evenodd">
        <g id="home---1280up" transform="translate(-441.000000, -1769.000000)" fill-rule="nonzero" fill="#FFFFFF">
            <g id="Group-12" transform="translate(441.000000, 1769.000000)">
                <g id="robot-(5)">
                    <circle id="Oval" cx="35.2542373" cy="6.77966102" r="1.3559322"></circle>
                    <circle id="Oval" cx="44.7457627" cy="6.77966102" r="1.3559322"></circle>
                    <path d="M32.5423729,32.5423729 C28.8040678,32.5423729 25.7627119,35.5837288 25.7627119,39.3220339 C25.7627119,43.060339 28.8040678,46.1016949 32.5423729,46.1016949 C36.280678,46.1016949 39.3220339,43.060339 39.3220339,39.3220339 C39.3220339,35.5837288 36.280678,32.5423729 32.5423729,32.5423729 Z M32.5423729,43.3898305 C30.299661,43.3898305 28.4745763,41.5647458 28.4745763,39.3220339 C28.4745763,37.079322 30.299661,35.2542373 32.5423729,35.2542373 C34.7850847,35.2542373 36.6101695,37.079322 36.6101695,39.3220339 C36.6101695,41.5647458 34.7850847,43.3898305 32.5423729,43.3898305 Z" id="Shape"></path>
                    <path d="M52.8813559,43.3898305 L43.3898305,43.3898305 C42.6413559,43.3898305 42.0338983,43.9972881 42.0338983,44.7457627 C42.0338983,45.4942373 42.6413559,46.1016949 43.3898305,46.1016949 L52.8813559,46.1016949 C53.6298305,46.1016949 54.2372881,45.4942373 54.2372881,44.7457627 C54.2372881,43.9972881 53.6298305,43.3898305 52.8813559,43.3898305 Z" id="Shape"></path>
                    <path d="M52.8813559,37.9661017 L44.7457627,37.9661017 C43.9972881,37.9661017 43.3898305,38.5735593 43.3898305,39.3220339 C43.3898305,40.0705085 43.9972881,40.6779661 44.7457627,40.6779661 L52.8813559,40.6779661 C53.6298305,40.6779661 54.2372881,40.0705085 54.2372881,39.3220339 C54.2372881,38.5735593 53.6298305,37.9661017 52.8813559,37.9661017 Z" id="Shape"></path>
                    <path d="M52.8813559,32.5423729 L44.7457627,32.5423729 C43.9972881,32.5423729 43.3898305,33.1498305 43.3898305,33.8983051 C43.3898305,34.6467797 43.9972881,35.2542373 44.7457627,35.2542373 L52.8813559,35.2542373 C53.6298305,35.2542373 54.2372881,34.6467797 54.2372881,33.8983051 C54.2372881,33.1498305 53.6298305,32.5423729 52.8813559,32.5423729 Z" id="Shape"></path>
                    <path d="M75.9240678,55.3328814 C75.8372881,41.8305085 69.1389831,33.2691525 58.3050847,32.6074576 L58.3050847,29.1932203 C58.3050847,27.3016949 56.7661017,25.7627119 54.8745763,25.7627119 L48.8135593,25.7627119 L48.8135593,21.6949153 L52.8813559,21.6949153 L52.8813559,18.6047458 L56.9491525,17.2488136 L56.9491525,13.559322 L61.2094915,13.559322 C61.8155932,15.8915254 63.9213559,17.6271186 66.440678,17.6271186 C69.4318644,17.6271186 71.8644068,15.1945763 71.8644068,12.2033898 C71.8644068,9.21220339 69.4318644,6.77966102 66.440678,6.77966102 C63.9213559,6.77966102 61.8155932,8.51525424 61.2094915,10.8474576 L56.9491525,10.8474576 L56.9491525,7.1579661 L52.8813559,5.8020339 L52.8813559,4.90711864 C52.8813559,2.2020339 50.679322,0 47.9742373,0 L32.0257627,0 C29.320678,0 27.1186441,2.2020339 27.1186441,4.90711864 L27.1186441,5.8020339 L23.0508475,7.1579661 L23.0508475,10.8474576 L18.7905085,10.8474576 C18.1844068,8.51525424 16.0786441,6.77966102 13.559322,6.77966102 C10.5681356,6.77966102 8.13559322,9.21220339 8.13559322,12.2033898 C8.13559322,15.1945763 10.5681356,17.6271186 13.559322,17.6271186 C16.0786441,17.6271186 18.1844068,15.8915254 18.7905085,13.559322 L23.0508475,13.559322 L23.0508475,17.2488136 L27.1186441,18.6047458 L27.1186441,21.6949153 L31.1864407,21.6949153 L31.1864407,25.7627119 L25.1254237,25.7627119 C23.2338983,25.7627119 21.6949153,27.3016949 21.6949153,29.1932203 L21.6949153,32.6074576 C10.8610169,33.2691525 4.16271186,41.8305085 4.0759322,55.3328814 C1.64338983,56.740339 0,59.3654237 0,62.3728814 C0,64.9572881 1.18644068,67.3315254 3.25694915,68.8840678 C3.50101695,69.0671186 3.78711864,69.1552542 4.06915254,69.1552542 C4.48135593,69.1552542 4.88813559,68.9681356 5.15525424,68.6128814 C5.60542373,68.0135593 5.48338983,67.1647458 4.8840678,66.7145763 C3.50372881,65.6786441 2.71186441,64.0962712 2.71186441,62.3728814 C2.71186441,59.3816949 5.14440678,56.9491525 8.13559322,56.9491525 C11.1267797,56.9491525 13.559322,59.3816949 13.559322,62.3728814 C13.559322,64.0949153 12.7688136,65.6772881 11.3884746,66.7118644 C10.7905085,67.1620339 10.6684746,68.0122034 11.1186441,68.6101695 C11.5688136,69.2081356 12.4176271,69.3288136 13.0169492,68.88 C15.0847458,67.3274576 16.2711864,64.9559322 16.2711864,62.3728814 C16.2711864,59.3708475 14.6332203,56.7511864 12.2074576,55.3410169 C12.2522034,48.9518644 14.0013559,41.5349153 21.6949153,40.7566102 L21.6949153,50.8067797 C21.6949153,52.4515254 22.859661,53.8264407 24.4067797,54.1586441 L24.4067797,56.9491525 L21.6949153,56.9491525 C20.9464407,56.9491525 20.3389831,57.5566102 20.3389831,58.3050847 L20.3389831,65.0847458 C20.3389831,65.8332203 20.9464407,66.440678 21.6949153,66.440678 L24.4067797,66.440678 L24.4067797,70.5084746 L22.8515254,70.5084746 C20.7186441,70.5084746 18.9830508,72.2440678 18.9830508,74.3769492 L18.9830508,76.1328814 C18.9830508,78.2644068 20.7186441,80 22.8515254,80 L36.6101695,80 L36.6101695,73.220339 L36.6101695,70.5084746 L36.6101695,54.2372881 L43.3898305,54.2372881 L43.3898305,70.5084746 L43.3898305,73.220339 L43.3898305,80 L57.1484746,80 C59.2813559,80 61.0169492,78.2644068 61.0169492,76.1315254 L61.0169492,74.3755932 C61.0169492,72.2440678 59.2813559,70.5084746 57.1484746,70.5084746 L55.5932203,70.5084746 L55.5932203,66.440678 L58.3050847,66.440678 C59.0535593,66.440678 59.6610169,65.8332203 59.6610169,65.0847458 L59.6610169,58.3050847 C59.6610169,57.5566102 59.0535593,56.9491525 58.3050847,56.9491525 L55.5932203,56.9491525 L55.5932203,54.1586441 C57.140339,53.8264407 58.3050847,52.4515254 58.3050847,50.8067797 L58.3050847,40.7566102 C65.9986441,41.5349153 67.7477966,48.9518644 67.7925424,55.3410169 C65.3667797,56.7511864 63.7288136,59.3708475 63.7288136,62.3728814 C63.7288136,64.9559322 64.9152542,67.3274576 66.9816949,68.8813559 C67.5823729,69.3301695 68.4298305,69.2094915 68.88,68.6115254 C69.3301695,68.0135593 69.2081356,67.1633898 68.6101695,66.7132203 C67.2311864,65.6772881 66.440678,64.0949153 66.440678,62.3728814 C66.440678,59.3816949 68.8732203,56.9491525 71.8644068,56.9491525 C74.8555932,56.9491525 77.2881356,59.3816949 77.2881356,62.3728814 C77.2881356,64.0962712 76.4962712,65.6786441 75.1145763,66.7145763 C74.5152542,67.1647458 74.3945763,68.0135593 74.8433898,68.6128814 C75.1091525,68.9681356 75.5172881,69.1552542 75.9294915,69.1552542 C76.2115254,69.1552542 76.4976271,69.0671186 76.7416949,68.8840678 C78.8135593,67.3315254 80,64.9572881 80,62.3728814 C80,59.3654237 78.3566102,56.740339 75.9240678,55.3328814 Z M66.440678,9.49152542 C67.9362712,9.49152542 69.1525424,10.7077966 69.1525424,12.2033898 C69.1525424,13.6989831 67.9362712,14.9152542 66.440678,14.9152542 C64.9450847,14.9152542 63.7288136,13.6989831 63.7288136,12.2033898 C63.7288136,10.7077966 64.9450847,9.49152542 66.440678,9.49152542 Z M13.559322,14.9152542 C12.0637288,14.9152542 10.8474576,13.6989831 10.8474576,12.2033898 C10.8474576,10.7077966 12.0637288,9.49152542 13.559322,9.49152542 C15.0549153,9.49152542 16.2711864,10.7077966 16.2711864,12.2033898 C16.2711864,13.6989831 15.0549153,14.9152542 13.559322,14.9152542 Z M54.2372881,9.11322034 L54.2372881,15.2949153 L52.8813559,15.7464407 L52.8813559,8.66033898 L54.2372881,9.11322034 Z M25.7627119,15.2935593 L25.7627119,9.11322034 L27.1186441,8.66169492 L27.1186441,15.7477966 L25.7627119,15.2935593 Z M29.8305085,18.9830508 L29.8305085,4.90711864 C29.8305085,3.69762712 30.8162712,2.71186441 32.0257627,2.71186441 L47.9742373,2.71186441 C49.1837288,2.71186441 50.1694915,3.69762712 50.1694915,4.90711864 L50.1694915,18.9830508 L48.8135593,18.9830508 L31.1864407,18.9830508 L29.8305085,18.9830508 Z M33.8983051,21.6949153 L46.1016949,21.6949153 L46.1016949,25.7627119 L33.8983051,25.7627119 L33.8983051,21.6949153 Z M9.51728814,54.2372881 L6.80677966,54.2372881 C7.17288136,45.2 11.2528814,36.0284746 21.6949153,35.300339 L21.6949153,38.0216949 C14.2549153,38.6427119 9.8820339,44.4542373 9.51728814,54.2372881 Z M23.0508475,63.7288136 L23.0508475,59.6610169 L24.4067797,59.6610169 L28.4745763,59.6610169 L28.4745763,63.7288136 L24.4067797,63.7288136 L23.0508475,63.7288136 Z M33.8983051,77.2881356 L22.8515254,77.2881356 C22.2128814,77.2881356 21.6949153,76.7701695 21.6949153,76.1315254 L21.6949153,74.3755932 C21.6949153,73.7383051 22.2128814,73.220339 22.8515254,73.220339 L24.4067797,73.220339 L33.8983051,73.220339 L33.8983051,77.2881356 Z M33.8983051,70.5084746 L27.1186441,70.5084746 L27.1186441,66.440678 L29.8305085,66.440678 L31.1864407,66.440678 L31.1864407,65.0847458 L31.1864407,58.3050847 L31.1864407,56.9491525 L29.8305085,56.9491525 L27.1186441,56.9491525 L27.1186441,54.2372881 L33.8983051,54.2372881 L33.8983051,70.5084746 Z M57.1484746,73.220339 C57.7871186,73.220339 58.3050847,73.7383051 58.3050847,74.3769492 L58.3050847,76.1328814 C58.3050847,76.7701695 57.7871186,77.2881356 57.1484746,77.2881356 L46.1016949,77.2881356 L46.1016949,73.220339 L55.5932203,73.220339 L57.1484746,73.220339 Z M56.9491525,59.6610169 L56.9491525,63.7288136 L55.5932203,63.7288136 L51.5254237,63.7288136 L51.5254237,59.6610169 L55.5932203,59.6610169 L56.9491525,59.6610169 Z M50.1694915,56.9491525 L48.8135593,56.9491525 L48.8135593,58.3050847 L48.8135593,65.0847458 L48.8135593,66.440678 L50.1694915,66.440678 L52.8813559,66.440678 L52.8813559,70.5084746 L46.1016949,70.5084746 L46.1016949,54.2372881 L52.8813559,54.2372881 L52.8813559,56.9491525 L50.1694915,56.9491525 Z M55.5932203,50.8067797 C55.5932203,51.2027119 55.2705085,51.5254237 54.8745763,51.5254237 L43.3898305,51.5254237 L36.6101695,51.5254237 L25.1254237,51.5254237 C24.7294915,51.5254237 24.4067797,51.2027119 24.4067797,50.8067797 L24.4067797,40.6779661 L24.4067797,32.5423729 L24.4067797,29.1932203 C24.4067797,28.7972881 24.7294915,28.4745763 25.1254237,28.4745763 L31.1864407,28.4745763 L48.8135593,28.4745763 L54.8745763,28.4745763 C55.2705085,28.4745763 55.5932203,28.7972881 55.5932203,29.1932203 L55.5932203,32.5423729 L55.5932203,40.6779661 L55.5932203,50.8067797 Z M70.4827119,54.2372881 C70.1166102,44.4542373 65.7437288,38.6427119 58.3050847,38.0216949 L58.3050847,35.300339 C68.7471186,36.0284746 72.8271186,45.2 73.1932203,54.2372881 L70.4827119,54.2372881 Z" id="Shape"></path>
                    <path d="M44.7457627,10.8474576 C43.9972881,10.8474576 43.3898305,11.4549153 43.3898305,12.2033898 C43.3898305,14.2033898 41.6379661,14.9152542 40,14.9152542 C38.3620339,14.9152542 36.6101695,14.2033898 36.6101695,12.2033898 C36.6101695,11.4549153 36.0027119,10.8474576 35.2542373,10.8474576 C34.5057627,10.8474576 33.8983051,11.4549153 33.8983051,12.2033898 C33.8983051,15.3966102 36.4081356,17.6271186 40,17.6271186 C43.5918644,17.6271186 46.1016949,15.3966102 46.1016949,12.2033898 C46.1016949,11.4549153 45.4942373,10.8474576 44.7457627,10.8474576 Z" id="Shape"></path>
                </g>
            </g>
        </g>
    </g>
</svg>