<?xml version="1.0" encoding="UTF-8" standalone="no"?>
<svg width="80px" height="80px" viewBox="0 0 80 80" version="1.1" xmlns="http://www.w3.org/2000/svg" xmlns:xlink="http://www.w3.org/1999/xlink">
    <defs></defs>
    <g id="-home" stroke="none" stroke-width="1" fill="none" fill-rule="evenodd">
        <g id="home---1280up" transform="translate(-920.000000, -1769.000000)" fill-rule="nonzero" fill="#FFFFFF">
            <g id="Group-12" transform="translate(441.000000, 1769.000000)">
                <g id="robot-(7)" transform="translate(479.000000, 0.000000)">
                    <path d="M33.0885529,23.3261339 C33.8042333,23.3261339 34.3844492,22.7459179 34.3844492,22.0302376 L34.3844492,17.8833693 C34.3844492,17.167689 33.8042333,16.587473 33.0885529,16.587473 C32.3728726,16.587473 31.7926566,17.167689 31.7926566,17.8833693 L31.7926566,22.0302376 C31.7926566,22.7459179 32.3728726,23.3261339 33.0885529,23.3261339 Z" id="Shape"></path>
                    <path d="M46.9114471,23.3261339 C47.6271274,23.3261339 48.2073434,22.7459179 48.2073434,22.0302376 L48.2073434,17.8833693 C48.2073434,17.167689 47.6271274,16.587473 46.9114471,16.587473 C46.1957667,16.587473 45.6155508,17.167689 45.6155508,17.8833693 L45.6155508,22.0302376 C45.6155508,22.7459179 46.1957667,23.3261339 46.9114471,23.3261339 Z" id="Shape"></path>
                    <path d="M79.8631533,72.5954212 L78.6177106,70.1045356 L78.6177106,69.0280778 C78.6177106,67.2421598 77.4583153,65.7230238 75.8531317,65.1808207 L75.8531317,60.4345572 C77.4583153,59.8923542 78.6177106,58.3732181 78.6177106,56.5873002 C78.6177106,54.8013823 77.4583153,53.2822462 75.8531317,52.7400432 L75.8531317,51.0583153 C75.8531317,47.6742981 73.3771058,44.8590929 70.1418575,44.3257019 C69.6278186,42.6724838 68.0836285,41.4686825 66.2634989,41.4686825 L63.4989201,41.4686825 C63.4878618,41.4686825 63.4773218,41.4700648 63.4664363,41.4704104 C62.3215551,40.6025054 60.8962419,40.0863931 59.3520518,40.0863931 L48.2073434,40.0863931 L48.2073434,34.3844492 L60.7343413,34.3844492 C62.9733045,34.3844492 64.7948164,32.5629374 64.7948164,30.3239741 C64.7948164,28.5280346 63.6224622,27.0016415 62.0031102,26.4675594 C61.6979698,20.2465659 58.8003456,14.6956371 54.3702808,10.8748164 L57.5483369,7.69676026 C58.092095,7.96768898 58.7044492,8.12095032 59.3520518,8.12095032 C61.5910151,8.12095032 63.412527,6.29943844 63.412527,4.06047516 C63.412527,1.82151188 61.5910151,0 59.3520518,0 C57.1130886,0 55.2915767,1.82151188 55.2915767,4.06047516 C55.2915767,4.70807775 55.444838,5.32043197 55.715594,5.86419006 L52.2932181,9.28656587 C48.779784,6.91507559 44.5487689,5.52915767 40,5.52915767 C35.4512311,5.52915767 31.220216,6.91507559 27.7066091,9.28656587 L24.2842333,5.86419006 C24.555162,5.32043197 24.7084233,4.70825054 24.7084233,4.06047516 C24.7084233,1.82151188 22.8869114,0 20.6479482,0 C18.4089849,0 16.587473,1.82151188 16.587473,4.06047516 C16.587473,6.29943844 18.4089849,8.12095032 20.6479482,8.12095032 C21.2955508,8.12095032 21.907905,7.96768898 22.4516631,7.69693305 L25.6297192,10.8749892 C21.1996544,14.6958099 18.3020302,20.2465659 17.9968898,26.4677322 C16.3777106,27.0016415 15.2051836,28.5280346 15.2051836,30.3239741 C15.2051836,32.5629374 17.0266955,34.3844492 19.2656587,34.3844492 L31.7926566,34.3844492 L31.7926566,40.0863931 L20.6479482,40.0863931 C19.1039309,40.0863931 17.6784449,40.6025054 16.5335637,41.4704104 C16.5226782,41.4700648 16.5119654,41.4686825 16.5010799,41.4686825 L13.7365011,41.4686825 C11.9163715,41.4686825 10.3721814,42.6724838 9.85814255,44.3257019 C6.62289417,44.8590929 4.14686825,47.6742981 4.14686825,51.0583153 L4.14686825,52.740216 C2.54168467,53.282419 1.38228942,54.8015551 1.38228942,56.587473 C1.38228942,58.3733909 2.54168467,59.892527 4.14686825,60.43473 L4.14686825,65.1809935 C2.54168467,65.7231965 1.38228942,67.2423326 1.38228942,69.0282505 L1.38228942,70.1047084 L0.136846652,72.595594 C-0.0456155508,72.9603456 -0.0456155508,73.389892 0.136846652,73.7546436 L1.51913607,76.5192225 C1.83913607,77.1593952 2.61736501,77.4190929 3.25771058,77.0987473 C3.89788337,76.7787473 4.15740821,76.0003456 3.83723542,75.3601728 L2.74470842,73.174946 L3.47904968,71.7062635 L7.4063067,71.7062635 L8.14064795,73.174946 L7.04812095,75.36 C6.72794816,76.0001728 6.987473,76.7785745 7.62764579,77.0985745 C7.8137365,77.1917063 8.01140389,77.235594 8.20613391,77.235594 C8.68146868,77.235594 9.13917927,76.972959 9.3662203,76.5190497 L10.7485097,73.7544708 C10.9309719,73.3897192 10.9309719,72.9601728 10.7485097,72.5954212 L9.50323974,70.1045356 L9.50323974,69.0280778 C9.50323974,67.2421598 8.34384449,65.7230238 6.73866091,65.1808207 L6.73866091,60.4345572 C8.34384449,59.8923542 9.50323974,58.3732181 9.50323974,56.5873002 C9.50323974,54.8013823 8.34384449,53.2822462 6.73866091,52.7400432 L6.73866091,51.0583153 C6.73866091,49.0818143 8.10038877,47.4178834 9.93468683,46.9541253 C10.5131749,48.492095 11.9987905,49.5896328 13.7365011,49.5896328 L13.8228942,49.5896328 L13.8228942,56.3039309 C12.9764147,57.0486393 12.4406048,58.1387473 12.4406048,59.3520518 C12.4406048,60.647257 13.0508855,61.8018143 13.9980994,62.5458315 C14.8675594,67.0652268 18.7915335,70.3239741 23.412527,70.3239741 L27.6457883,70.3239741 L27.6457883,73.3187041 C26.0760259,73.604838 24.8812095,74.9795248 24.8812095,76.6306695 C24.8812095,78.4884665 26.392743,80 28.25054,80 L51.74946,80 C53.607257,80 55.1187905,78.4884665 55.1187905,76.6306695 C55.1187905,74.9795248 53.9239741,73.604838 52.3542117,73.3187041 L52.3542117,70.3239741 L56.587473,70.3239741 C61.2086393,70.3239741 65.1324406,67.0653996 66.0019006,62.5456587 C66.9491145,61.8016415 67.5593952,60.6470842 67.5593952,59.3520518 C67.5593952,58.1385745 67.0235853,57.0484665 66.1771058,56.3039309 L66.1771058,49.5896328 L66.2634989,49.5896328 C68.0012095,49.5896328 69.4868251,48.492095 70.0653132,46.9541253 C71.8996112,47.4178834 73.2613391,49.0818143 73.2613391,51.0583153 L73.2613391,52.740216 C71.6561555,53.282419 70.4967603,54.8015551 70.4967603,56.587473 C70.4967603,58.3733909 71.6561555,59.892527 73.2613391,60.43473 L73.2613391,65.1809935 C71.6561555,65.7231965 70.4967603,67.2423326 70.4967603,69.0282505 L70.4967603,70.1047084 L69.2513175,72.595594 C69.0688553,72.9603456 69.0688553,73.389892 69.2513175,73.7546436 L70.6336069,76.5192225 C70.9537797,77.1593952 71.7318359,77.4190929 72.3721814,77.0987473 C73.0123542,76.7787473 73.271879,76.0003456 72.9517063,75.3601728 L71.8591793,73.1751188 L72.5935205,71.7064363 L76.5207775,71.7064363 L77.2551188,73.1751188 L76.1625918,75.3601728 C75.842419,76.0003456 76.1019438,76.7787473 76.7421166,77.0987473 C76.9282073,77.191879 77.1258747,77.2357667 77.3206048,77.2357667 C77.7959395,77.2357667 78.2536501,76.9731317 78.4806911,76.5192225 L79.8629806,73.7546436 C80.0456156,73.3897192 80.0456156,72.9601728 79.8631533,72.5954212 Z M59.3520518,2.59179266 C60.1619006,2.59179266 60.8207343,3.25062635 60.8207343,4.06047516 C60.8207343,4.87032397 60.1619006,5.52915767 59.3520518,5.52915767 C58.542203,5.52915767 57.8833693,4.87032397 57.8833693,4.06047516 C57.8833693,3.25062635 58.542203,2.59179266 59.3520518,2.59179266 Z M19.1792657,4.06047516 C19.1792657,3.25062635 19.8380994,2.59179266 20.6479482,2.59179266 C21.457797,2.59179266 22.1166307,3.25062635 22.1166307,4.06047516 C22.1166307,4.87032397 21.457797,5.52915767 20.6479482,5.52915767 C19.8380994,5.52915767 19.1792657,4.87032397 19.1792657,4.06047516 Z M6.91144708,69.1144708 L3.97408207,69.1144708 L3.97408207,69.0280778 C3.97408207,68.2182289 4.63291577,67.5593952 5.44276458,67.5593952 C6.25261339,67.5593952 6.91144708,68.2182289 6.91144708,69.0280778 L6.91144708,69.1144708 Z M5.44276458,58.0561555 C4.63291577,58.0561555 3.97408207,57.3973218 3.97408207,56.587473 C3.97408207,55.7776242 4.63291577,55.1187905 5.44276458,55.1187905 C6.25261339,55.1187905 6.91144708,55.7776242 6.91144708,56.587473 C6.91144708,57.3973218 6.25261339,58.0561555 5.44276458,58.0561555 Z M40,8.12095032 C50.282851,8.12095032 58.7250108,16.147041 59.3942117,26.2634989 L20.6057883,26.2634989 C21.2749892,16.1472138 29.717149,8.12095032 40,8.12095032 Z M17.7969762,30.3239741 C17.7969762,29.5141253 18.4558099,28.8552916 19.2656587,28.8552916 L60.7343413,28.8552916 C61.5441901,28.8552916 62.2030238,29.5141253 62.2030238,30.3239741 C62.2030238,31.1338229 61.5441901,31.7926566 60.7343413,31.7926566 L19.2656587,31.7926566 C18.4558099,31.7926566 17.7969762,31.1338229 17.7969762,30.3239741 Z M45.6155508,34.3844492 L45.6155508,35.9395248 L34.3844492,35.9395248 L34.3844492,34.3844492 L45.6155508,34.3844492 Z M34.3844492,38.5313175 L45.6155508,38.5313175 L45.6155508,40.0863931 L34.3844492,40.0863931 L34.3844492,38.5313175 Z M13.7365011,46.9978402 C12.9266523,46.9978402 12.2678186,46.3390065 12.2678186,45.5291577 C12.2678186,44.7193089 12.9266523,44.0604752 13.7365011,44.0604752 L14.4492441,44.0604752 C14.0483801,44.9287257 13.8228942,45.8940821 13.8228942,46.9114471 L13.8228942,46.9978402 L13.7365011,46.9978402 Z M64.9676026,59.3520518 C64.9676026,60.1619006 64.3087689,60.8207343 63.4989201,60.8207343 L16.5010799,60.8207343 C15.6912311,60.8207343 15.0323974,60.1619006 15.0323974,59.3520518 C15.0323974,58.542203 15.6912311,57.8833693 16.5010799,57.8833693 L63.4989201,57.8833693 C64.3087689,57.8833693 64.9676026,58.542203 64.9676026,59.3520518 Z M51.74946,77.4082073 L28.25054,77.4082073 C27.8291145,77.4082073 27.4730022,77.052095 27.4730022,76.6306695 C27.4730022,76.2092441 27.8291145,75.8531317 28.25054,75.8531317 L51.74946,75.8531317 C52.1708855,75.8531317 52.5269978,76.2092441 52.5269978,76.6306695 C52.5269978,77.052095 52.1710583,77.4082073 51.74946,77.4082073 Z M49.762419,73.2613391 L30.237581,73.2613391 L30.237581,70.3239741 L49.762419,70.3239741 L49.762419,73.2613391 Z M56.587473,67.7321814 L23.412527,67.7321814 C20.5771058,67.7321814 18.0273002,65.9564579 16.9541253,63.412527 L63.0458747,63.412527 C61.9726998,65.9566307 59.4232397,67.7321814 56.587473,67.7321814 Z M63.4989201,55.2915767 L16.5010799,55.2915767 C16.4720518,55.2915767 16.4435421,55.2931317 16.4146868,55.2938229 L16.4146868,46.9114471 C16.4146868,44.5772786 18.3137797,42.6781857 20.6479482,42.6781857 L59.3520518,42.6781857 C61.6862203,42.6781857 63.5853132,44.5772786 63.5853132,46.9114471 L63.5853132,55.2938229 C63.5564579,55.2931317 63.5279482,55.2915767 63.4989201,55.2915767 Z M66.2634989,46.9978402 L66.1771058,46.9978402 L66.1771058,46.9114471 C66.1771058,45.8940821 65.9516199,44.9287257 65.5507559,44.0604752 L66.2634989,44.0604752 C67.0733477,44.0604752 67.7321814,44.7193089 67.7321814,45.5291577 C67.7321814,46.3390065 67.0733477,46.9978402 66.2634989,46.9978402 Z M74.5572354,55.1187905 C75.3670842,55.1187905 76.0259179,55.7776242 76.0259179,56.587473 C76.0259179,57.3973218 75.3670842,58.0561555 74.5572354,58.0561555 C73.7473866,58.0561555 73.0885529,57.3973218 73.0885529,56.587473 C73.0885529,55.7776242 73.7473866,55.1187905 74.5572354,55.1187905 Z M74.5572354,67.5593952 C75.3670842,67.5593952 76.0259179,68.2182289 76.0259179,69.0280778 L76.0259179,69.1144708 L73.0885529,69.1144708 L73.0885529,69.0280778 C73.0885529,68.2182289 73.7473866,67.5593952 74.5572354,67.5593952 Z" id="Shape"></path>
                    <path d="M46.2203024,44.2332613 L33.7796976,44.2332613 C31.159568,44.2332613 29.0280778,46.3647516 29.0280778,48.9848812 C29.0280778,51.6050108 31.159568,53.7365011 33.7796976,53.7365011 L46.2203024,53.7365011 C48.840432,53.7365011 50.9719222,51.6050108 50.9719222,48.9848812 C50.9719222,46.3647516 48.840432,44.2332613 46.2203024,44.2332613 Z M31.6198704,48.9848812 C31.6198704,47.7938661 32.5886825,46.825054 33.7796976,46.825054 C34.9707127,46.825054 35.9395248,47.7938661 35.9395248,48.9848812 C35.9395248,50.1758963 34.9707127,51.1447084 33.7796976,51.1447084 C32.5886825,51.1447084 31.6198704,50.1758963 31.6198704,48.9848812 Z M46.2203024,51.1447084 L38.0098488,51.1447084 C38.3422894,50.4962419 38.5313175,49.762419 38.5313175,48.9848812 C38.5313175,48.2073434 38.3424622,47.4735205 38.0098488,46.825054 L46.2203024,46.825054 C47.4113175,46.825054 48.3801296,47.7938661 48.3801296,48.9848812 C48.3801296,50.1758963 47.4113175,51.1447084 46.2203024,51.1447084 Z" id="Shape"></path>
                    <path d="M24.7948164,46.9978402 C24.0791361,46.9978402 23.4989201,47.5780562 23.4989201,48.2937365 L23.4989201,49.6760259 C23.4989201,50.3917063 24.0791361,50.9719222 24.7948164,50.9719222 C25.5104968,50.9719222 26.0907127,50.3917063 26.0907127,49.6760259 L26.0907127,48.2937365 C26.0907127,47.5780562 25.5104968,46.9978402 24.7948164,46.9978402 Z" id="Shape"></path>
                    <path d="M55.2051836,46.9978402 C54.4895032,46.9978402 53.9092873,47.5780562 53.9092873,48.2937365 L53.9092873,49.6760259 C53.9092873,50.3917063 54.4895032,50.9719222 55.2051836,50.9719222 C55.9208639,50.9719222 56.5010799,50.3917063 56.5010799,49.6760259 L56.5010799,48.2937365 C56.5010799,47.5780562 55.9208639,46.9978402 55.2051836,46.9978402 Z" id="Shape"></path>
                </g>
            </g>
        </g>
    </g>
</svg>