<?xml version="1.0" encoding="UTF-8" standalone="no"?>
<svg width="100px" height="57px" viewBox="0 0 100 57" version="1.1" xmlns="http://www.w3.org/2000/svg" xmlns:xlink="http://www.w3.org/1999/xlink">
    <defs></defs>
    <g id="-home" stroke="none" stroke-width="1" fill="none" fill-rule="evenodd">
        <g id="home---1280up" transform="translate(-1136.000000, -1555.000000)" fill-rule="nonzero" fill="#FFFFFF">
            <g id="robot-(8)" transform="translate(1136.000000, 1555.000000)">
                <path d="M98.3801296,3.45454545 L80.9935205,3.45454545 L80.9935205,1.61931818 C80.9935205,0.725022727 80.2684665,0 79.3736501,0 C78.4788337,0 77.7537797,0.725022727 77.7537797,1.61931818 L77.7537797,3.45454545 L60.3671706,3.45454545 C59.4723542,3.45454545 58.7473002,4.17956818 58.7473002,5.07386364 C58.7473002,5.96815909 59.4723542,6.69318182 60.3671706,6.69318182 L74.2980562,6.69318182 L74.2980562,10.3690341 C74.262203,10.3666591 74.2265659,10.3636364 74.1900648,10.3636364 L25.8099352,10.3636364 C25.7734341,10.3636364 25.737797,10.3666591 25.7019438,10.3690341 L25.7019438,6.69318182 L39.6328294,6.69318182 C40.5276458,6.69318182 41.2526998,5.96815909 41.2526998,5.07386364 C41.2526998,4.17956818 40.5276458,3.45454545 39.6328294,3.45454545 L22.2462203,3.45454545 L22.2462203,1.61931818 C22.2462203,0.725022727 21.5211663,0 20.6263499,0 C19.7315335,0 19.0064795,0.725022727 19.0064795,1.61931818 L19.0064795,3.45454545 L1.61987041,3.45454545 C0.725053996,3.45454545 0,4.17956818 0,5.07386364 C0,5.96815909 0.725053996,6.69318182 1.61987041,6.69318182 L15.5507559,6.69318182 L15.5507559,11.9829545 C15.5507559,14.2145909 17,16.1128636 19.0064795,16.7903864 L19.0064795,18.8920455 C19.0064795,19.7863409 19.7315335,20.5113636 20.6263499,20.5113636 C21.5211663,20.5113636 22.2462203,19.7863409 22.2462203,18.8920455 L22.2462203,16.7903864 C23.7574514,16.2799773 24.9518359,15.0773636 25.44946,13.5608182 C25.5654428,13.5871591 25.6857451,13.6024886 25.8099352,13.6024886 L34.8777538,13.6024886 L35.3259179,15.6184318 C33.42527,15.9407841 31.8809935,17.3217386 31.324622,19.1319205 C27.4192225,19.8426932 23.3051836,23.3859773 22.5784017,27.8639318 C20.5114471,28.5058295 19.0064795,30.435625 19.0064795,32.7102273 C19.0064795,34.9418636 20.4557235,36.8401364 22.462203,37.5176591 L22.462203,41.7211932 C20.4557235,42.3987159 19.0064795,44.2969886 19.0064795,46.528625 L19.0064795,47.8737386 L17.449676,50.9862841 C17.337149,51.2110455 17.2786177,51.4586932 17.2786177,51.7102273 L17.2786177,55.1647727 C17.2786177,56.0590682 18.0036717,56.7840909 18.8984881,56.7840909 C19.7933045,56.7840909 20.5183585,56.0590682 20.5183585,55.1647727 L20.5183585,52.0926023 L21.6274298,49.875 L26.5367171,49.875 L27.6457883,52.0926023 L27.6457883,55.1647727 C27.6457883,56.0590682 28.3708423,56.7840909 29.2656587,56.7840909 C30.1604752,56.7840909 30.8855292,56.0590682 30.8855292,55.1647727 L30.8855292,51.7102273 C30.8855292,51.4586932 30.8269978,51.2108295 30.7144708,50.9860682 L29.1576674,47.8735227 L29.1576674,46.5284091 C29.1576674,44.2967727 27.7084233,42.3985 25.7019438,41.7209773 L25.7019438,37.5174432 C27.7084233,36.8399205 29.1576674,34.9416477 29.1576674,32.7100114 C29.1576674,30.53775 27.7846652,28.6807159 25.8609071,27.9585 C26.5049676,25.2902955 29.0192225,23.0424659 31.4308855,22.4146023 C32.1578834,24.3288523 34.0105832,25.6931818 36.1771058,25.6931818 L37.5971922,25.6931818 C37.8604752,26.4816818 38.3017279,27.1732386 38.8721382,27.7259659 L36.0436285,30.5535114 C35.0850972,31.5117159 34.5570194,32.7860114 34.5570194,34.1412727 L34.5570194,36.2727273 L32.7211663,36.2727273 C31.8263499,36.2727273 31.1012959,36.99775 31.1012959,37.8920455 C31.1012959,38.7863409 31.8263499,39.5113636 32.7211663,39.5113636 L39.6326134,39.5113636 C40.5274298,39.5113636 41.2524838,38.7863409 41.2524838,37.8920455 C41.2524838,36.99775 40.5274298,36.2727273 39.6326134,36.2727273 L37.7969762,36.2727273 L37.7969762,34.1410568 C37.7969762,33.6507273 37.987905,33.1899773 38.3347732,32.8432273 L42.0468683,29.1323977 C42.1654428,29.1406023 42.2842333,29.1475114 42.4047516,29.1475114 L57.5948164,29.1475114 C57.7153348,29.1475114 57.8343413,29.1403864 57.9526998,29.1323977 L61.6647948,32.8432273 C62.0116631,33.1897614 62.2025918,33.6507273 62.2025918,34.1410568 L62.2025918,36.2727273 L60.3667387,36.2727273 C59.4719222,36.2727273 58.7468683,36.99775 58.7468683,37.8920455 C58.7468683,38.7863409 59.4719222,39.5113636 60.3667387,39.5113636 L67.2781857,39.5113636 C68.1730022,39.5113636 68.8980562,38.7863409 68.8980562,37.8920455 C68.8980562,36.99775 68.1730022,36.2727273 67.2781857,36.2727273 L65.4427646,36.2727273 L65.4427646,34.1410568 C65.4427646,32.7857955 64.9149028,31.5115 63.9561555,30.5532955 L61.1276458,27.72575 C61.6980562,27.1730227 62.1393089,26.4816818 62.4025918,25.6929659 L63.8226782,25.6929659 C65.9892009,25.6929659 67.8419006,24.3286364 68.5688985,22.4148182 C70.9805616,23.0426818 73.4948164,25.2905114 74.1388769,27.9587159 C72.2153348,28.6809318 70.8423326,30.5379659 70.8423326,32.7102273 C70.8423326,34.9418636 72.2915767,36.8401364 74.2980562,37.5176591 L74.2980562,41.7211932 C72.2915767,42.3987159 70.8423326,44.2969886 70.8423326,46.528625 L70.8423326,47.8737386 L69.2855292,50.9862841 C69.1730022,51.2112614 69.1144708,51.4589091 69.1144708,51.7104432 L69.1144708,55.1649886 C69.1144708,56.0592841 69.8395248,56.7843068 70.7343413,56.7843068 C71.6291577,56.7843068 72.3542117,56.0592841 72.3542117,55.1649886 L72.3542117,52.0928182 L73.4632829,49.875 L78.3725702,49.875 L79.4816415,52.0926023 L79.4816415,55.1647727 C79.4816415,56.0590682 80.2066955,56.7840909 81.1015119,56.7840909 C81.9963283,56.7840909 82.7213823,56.0590682 82.7213823,55.1647727 L82.7213823,51.7102273 C82.7213823,51.4586932 82.662851,51.2108295 82.550324,50.9860682 L80.9935205,47.8735227 L80.9935205,46.5284091 C80.9935205,44.2967727 79.5442765,42.3985 77.537797,41.7209773 L77.537797,37.5174432 C79.5442765,36.8399205 80.9935205,34.9416477 80.9935205,32.7100114 C80.9935205,30.4354091 79.4885529,28.5056136 77.4218143,27.8635 C76.6950324,23.3855455 72.5809935,19.8422614 68.675594,19.1314886 C68.1192225,17.3213068 66.57473,15.9401364 64.6742981,15.618 L65.1224622,13.6020568 L74.1900648,13.6020568 C74.3140389,13.6020568 74.4345572,13.5867273 74.55054,13.5603864 C75.0481641,15.0769318 76.2425486,16.2797614 77.7537797,16.7899545 L77.7537797,18.8916136 C77.7537797,19.7859091 78.4788337,20.5109318 79.3736501,20.5109318 C80.2684665,20.5109318 80.9935205,19.7859091 80.9935205,18.8916136 L80.9935205,16.7899545 C83,16.1124318 84.4492441,14.2141591 84.4492441,11.9825227 L84.4492441,6.69318182 L98.3801296,6.69318182 C99.274946,6.69318182 100,5.96815909 100,5.07386364 C100,4.17956818 99.274946,3.45454545 98.3801296,3.45454545 Z M20.6263499,13.8181818 C19.6140389,13.8181818 18.7904968,12.9949205 18.7904968,11.9829545 L18.7904968,6.69318182 L22.462203,6.69318182 L22.462203,11.9829545 C22.462203,12.9949205 21.6386609,13.8181818 20.6263499,13.8181818 Z M25.9179266,46.6363636 L22.2462203,46.6363636 L22.2462203,46.5284091 C22.2462203,45.5164432 23.0697624,44.6931818 24.0820734,44.6931818 C25.0943844,44.6931818 25.9179266,45.5164432 25.9179266,46.5284091 L25.9179266,46.6363636 Z M24.0820734,34.5454545 C23.0697624,34.5454545 22.2462203,33.7221932 22.2462203,32.7102273 C22.2462203,31.6982614 23.0697624,30.875 24.0820734,30.875 C25.0943844,30.875 25.9179266,31.6982614 25.9179266,32.7102273 C25.9179266,33.7221932 25.0943844,34.5454545 24.0820734,34.5454545 Z M77.7537797,46.6363636 L74.0820734,46.6363636 L74.0820734,46.5284091 C74.0820734,45.5164432 74.9056156,44.6931818 75.9179266,44.6931818 C76.9302376,44.6931818 77.7537797,45.5164432 77.7537797,46.5284091 L77.7537797,46.6363636 Z M75.9179266,34.5454545 C74.9056156,34.5454545 74.0820734,33.7221932 74.0820734,32.7102273 C74.0820734,31.6982614 74.9056156,30.875 75.9179266,30.875 C76.9302376,30.875 77.7537797,31.6982614 77.7537797,32.7102273 C77.7537797,33.7221932 76.9302376,34.5454545 75.9179266,34.5454545 Z M34.3412527,20.6193182 C34.3412527,19.6565795 35.087257,18.8661364 36.0313175,18.7914318 L36.8455724,22.4545455 L36.1771058,22.4545455 C35.1647948,22.4545455 34.3412527,21.6312841 34.3412527,20.6193182 Z M65.6587473,20.6193182 C65.6587473,21.6312841 64.8352052,22.4545455 63.8228942,22.4545455 L63.1544276,22.4545455 L63.9686825,18.7914318 C64.912743,18.8661364 65.6587473,19.6565795 65.6587473,20.6193182 Z M59.387257,24.472 C59.1991361,25.3181477 58.462203,25.9090909 57.5950324,25.9090909 L42.4049676,25.9090909 C41.537797,25.9090909 40.8008639,25.3181477 40.612743,24.472 L38.1963283,13.6022727 L61.8034557,13.6022727 L59.387257,24.472 Z M81.2095032,11.9829545 C81.2095032,12.9949205 80.3859611,13.8181818 79.3736501,13.8181818 C78.3613391,13.8181818 77.537797,12.9949205 77.537797,11.9829545 L77.537797,6.69318182 L81.2095032,6.69318182 L81.2095032,11.9829545 Z" id="Shape"></path>
                <path d="M44.8164147,22.2386364 C45.7112311,22.2386364 46.4362851,21.5136136 46.4362851,20.6193182 L46.4362851,18.8920455 C46.4362851,17.99775 45.7112311,17.2727273 44.8164147,17.2727273 C43.9215983,17.2727273 43.1965443,17.99775 43.1965443,18.8920455 L43.1965443,20.6193182 C43.1965443,21.5136136 43.9215983,22.2386364 44.8164147,22.2386364 Z" id="Shape"></path>
                <path d="M55.1835853,22.2386364 C56.0784017,22.2386364 56.8034557,21.5136136 56.8034557,20.6193182 L56.8034557,18.8920455 C56.8034557,17.99775 56.0784017,17.2727273 55.1835853,17.2727273 C54.2887689,17.2727273 53.5637149,17.99775 53.5637149,18.8920455 L53.5637149,20.6193182 C53.5637149,21.5136136 54.2887689,22.2386364 55.1835853,22.2386364 Z" id="Shape"></path>
            </g>
        </g>
    </g>
</svg>