<?xml version="1.0" encoding="UTF-8" standalone="no"?>
<svg width="67px" height="80px" viewBox="0 0 67 80" version="1.1" xmlns="http://www.w3.org/2000/svg" xmlns:xlink="http://www.w3.org/1999/xlink">
    <defs></defs>
    <g id="-home" stroke="none" stroke-width="1" fill="none" fill-rule="evenodd">
        <g id="home---1280up" transform="translate(-845.000000, -1769.000000)" fill-rule="nonzero" fill="#FFFFFF">
            <g id="Group-12" transform="translate(441.000000, 1769.000000)">
                <g id="robot-(1)" transform="translate(404.000000, 0.000000)">
                    <path d="M27.5593952,15.2051836 C26.8435421,15.2051836 26.2634989,15.7853996 26.2634989,16.5010799 L26.2634989,28.9416847 C26.2634989,29.657365 26.8435421,30.237581 27.5593952,30.237581 C28.2752484,30.237581 28.8552916,29.657365 28.8552916,28.9416847 L28.8552916,16.5010799 C28.8552916,15.7853996 28.2752484,15.2051836 27.5593952,15.2051836 Z" id="Shape"></path>
                    <path d="M38.6177106,15.2051836 C37.9018575,15.2051836 37.3218143,15.7853996 37.3218143,16.5010799 L37.3218143,28.9416847 C37.3218143,29.657365 37.9018575,30.237581 38.6177106,30.237581 C39.3335637,30.237581 39.9136069,29.657365 39.9136069,28.9416847 L39.9136069,16.5010799 C39.9136069,15.7853996 39.3335637,15.2051836 38.6177106,15.2051836 Z" id="Shape"></path>
                    <path d="M49.6760259,41.2958963 C51.4619438,41.2958963 52.9810799,40.1365011 53.5232829,38.5313175 L58.2695464,38.5313175 C58.8117495,40.1365011 60.3308855,41.2958963 62.1168035,41.2958963 C64.3557667,41.2958963 66.1772786,39.4743844 66.1772786,37.2354212 C66.1772786,34.9964579 64.355594,33.174946 62.1166307,33.174946 C60.3307127,33.174946 58.8115767,34.3343413 58.2693737,35.9395248 L53.5231102,35.9395248 C52.9809071,34.3343413 51.4617711,33.174946 49.6758531,33.174946 L48.2073434,33.174946 L48.2073434,15.1187905 C48.2073434,6.78220302 41.4251404,0 33.0885529,0 C24.7519654,0 17.9697624,6.78220302 17.9697624,15.1187905 L17.9697624,33.174946 L16.5010799,33.174946 C14.715162,33.174946 13.1960259,34.3343413 12.6538229,35.9395248 L7.90773218,35.9395248 C7.36552916,34.3343413 5.84639309,33.174946 4.06047516,33.174946 C1.82151188,33.174946 0,34.9964579 0,37.2354212 C0,39.4743844 1.82151188,41.2958963 4.06047516,41.2958963 C5.84639309,41.2958963 7.36552916,40.1365011 7.90773218,38.5313175 L12.6539957,38.5313175 C13.1961987,40.1365011 14.7153348,41.2958963 16.5012527,41.2958963 L17.9699352,41.2958963 L17.9699352,44.2332613 L17.8835421,44.2332613 C15.6445788,44.2332613 13.823067,46.0547732 13.823067,48.2937365 C13.823067,48.3398704 13.8249676,48.3853132 13.8265227,48.4311015 L9.97114471,49.8768035 C9.22574514,48.9641469 8.0924406,48.3801296 6.825054,48.3801296 C4.58609071,48.3801296 2.76457883,50.2016415 2.76457883,52.4406048 C2.76457883,54.2265227 3.92397408,55.7456587 5.52915767,56.2878618 L5.52915767,59.6504536 C3.92362851,60.1924838 2.76457883,61.7128294 2.76457883,63.4989201 L2.76457883,64.8812095 C2.76457883,67.1201728 4.58609071,68.9416847 6.825054,68.9416847 C9.06401728,68.9416847 10.8855292,67.1201728 10.8855292,64.8812095 C10.8855292,64.1655292 10.305486,63.5853132 9.58963283,63.5853132 C8.8737797,63.5853132 8.2937365,64.1655292 8.2937365,64.8812095 C8.2937365,65.6910583 7.63490281,66.349892 6.825054,66.349892 C6.01520518,66.349892 5.35637149,65.6910583 5.35637149,64.8812095 L5.35637149,63.4989201 C5.35637149,62.6890713 6.01520518,62.0302376 6.825054,62.0302376 C7.54090713,62.0302376 8.12095032,61.4500216 8.12095032,60.7343413 L8.12095032,56.2878618 C9.72613391,55.7456587 10.8855292,54.2265227 10.8855292,52.4406048 C10.8855292,52.3944708 10.8836285,52.3490281 10.8820734,52.3032397 L14.7374514,50.8575378 C15.2532181,51.4892441 15.9552484,51.9626782 16.7588769,52.1945572 L17.602419,57.2551188 C17.9300216,59.2210799 19.614514,60.6479482 21.6076026,60.6479482 L24.8812095,60.6479482 L24.8812095,62.4162419 C23.2760259,62.9584449 22.1166307,64.477581 22.1166307,66.2634989 C22.1166307,68.0494168 23.2760259,69.5685529 24.8812095,70.1107559 L24.8812095,71.8790497 L20.9743413,71.8790497 C19.4263499,71.8790497 18.03473,72.7391793 17.3425486,74.1237149 L15.3420302,78.1245788 C15.1410799,78.5263067 15.1626782,79.0033693 15.3987041,79.3853996 C15.63473,79.7674298 16.0518359,80 16.5010799,80 L27.5593952,80 C28.2752484,80 28.8552916,79.419784 28.8552916,78.7041037 L28.8552916,73.174946 C28.8552916,72.4592657 28.2752484,71.8790497 27.5593952,71.8790497 L27.4730022,71.8790497 L27.4730022,70.1107559 C29.0781857,69.5685529 30.237581,68.0494168 30.237581,66.2634989 C30.237581,64.477581 29.0781857,62.9584449 27.4730022,62.4162419 L27.4730022,60.6479482 L38.7041037,60.6479482 L38.7041037,62.4162419 C37.0989201,62.9584449 35.9395248,64.477581 35.9395248,66.2634989 C35.9395248,68.0494168 37.0989201,69.5685529 38.7041037,70.1107559 L38.7041037,71.8790497 L38.6177106,71.8790497 C37.9018575,71.8790497 37.3218143,72.4592657 37.3218143,73.174946 L37.3218143,78.7041037 C37.3218143,79.419784 37.9018575,80 38.6177106,80 L49.6760259,80 C50.12527,80 50.5423758,79.7674298 50.7784017,79.3853996 C51.0144276,79.0033693 51.0360259,78.5263067 50.8350756,78.1245788 L48.8345572,74.1237149 C48.1423758,72.7391793 46.7507559,71.8790497 45.2027646,71.8790497 L41.2958963,71.8790497 L41.2958963,70.1107559 C42.9010799,69.5685529 44.0604752,68.0494168 44.0604752,66.2634989 C44.0604752,64.477581 42.9010799,62.9584449 41.2958963,62.4162419 L41.2958963,60.6479482 L44.5695032,60.6479482 C46.5625918,60.6479482 48.2469114,59.2210799 48.5746868,57.254946 L49.4182289,52.1945572 C50.2218575,51.9625054 50.9238877,51.4892441 51.4396544,50.8575378 L55.2950324,52.3032397 C55.2934773,52.3488553 55.2915767,52.3944708 55.2915767,52.4406048 C55.2915767,54.2265227 56.4509719,55.7456587 58.0561555,56.2878618 L58.0561555,60.7343413 C58.0561555,61.4500216 58.6361987,62.0302376 59.3520518,62.0302376 C60.1619006,62.0302376 60.8207343,62.6890713 60.8207343,63.4989201 L60.8207343,64.8812095 C60.8207343,65.6910583 60.1619006,66.349892 59.3520518,66.349892 C58.542203,66.349892 57.8833693,65.6910583 57.8833693,64.8812095 C57.8833693,64.1655292 57.3033261,63.5853132 56.587473,63.5853132 C55.8716199,63.5853132 55.2915767,64.1655292 55.2915767,64.8812095 C55.2915767,67.1201728 57.1130886,68.9416847 59.3520518,68.9416847 C61.5910151,68.9416847 63.412527,67.1201728 63.412527,64.8812095 L63.412527,63.4989201 C63.412527,61.7128294 62.2534773,60.1924838 60.6479482,59.6504536 L60.6479482,56.2878618 C62.2531317,55.7456587 63.412527,54.2265227 63.412527,52.4406048 C63.412527,50.2016415 61.5910151,48.3801296 59.3520518,48.3801296 C58.0846652,48.3801296 56.9513607,48.9641469 56.2061339,49.8768035 L52.3507559,48.4311015 C52.352311,48.385486 52.3542117,48.3398704 52.3542117,48.2937365 C52.3542117,46.0547732 50.5326998,44.2332613 48.2937365,44.2332613 L48.2073434,44.2332613 L48.2073434,41.2958963 L49.6760259,41.2958963 L49.6760259,41.2958963 Z M6.825054,53.9092873 C6.01520518,53.9092873 5.35637149,53.2504536 5.35637149,52.4406048 C5.35637149,51.6307559 6.01520518,50.9719222 6.825054,50.9719222 C7.63490281,50.9719222 8.2937365,51.6307559 8.2937365,52.4406048 C8.2937365,53.2504536 7.63490281,53.9092873 6.825054,53.9092873 Z M26.2634989,77.4082073 L18.598013,77.4082073 L19.6606479,75.2825918 C19.9110151,74.7818575 20.4143413,74.4708423 20.9743413,74.4708423 L26.2634989,74.4708423 L26.2634989,77.4082073 Z M26.1771058,67.7321814 C25.367257,67.7321814 24.7084233,67.0733477 24.7084233,66.2634989 C24.7084233,65.4536501 25.367257,64.7948164 26.1771058,64.7948164 C26.9869546,64.7948164 27.6457883,65.4536501 27.6457883,66.2634989 C27.6457883,67.0733477 26.9869546,67.7321814 26.1771058,67.7321814 Z M46.5164579,75.2827646 L47.5790929,77.4082073 L39.9136069,77.4082073 L39.9136069,74.4708423 L45.2027646,74.4708423 C45.7627646,74.4708423 46.2660907,74.7818575 46.5164579,75.2827646 Z M40,67.7321814 C39.1901512,67.7321814 38.5313175,67.0733477 38.5313175,66.2634989 C38.5313175,65.4536501 39.1901512,64.7948164 40,64.7948164 C40.8098488,64.7948164 41.4686825,65.4536501 41.4686825,66.2634989 C41.4686825,67.0733477 40.8098488,67.7321814 40,67.7321814 Z M59.3520518,50.9719222 C60.1619006,50.9719222 60.8207343,51.6307559 60.8207343,52.4406048 C60.8207343,53.2504536 60.1619006,53.9092873 59.3520518,53.9092873 C58.542203,53.9092873 57.8833693,53.2504536 57.8833693,52.4406048 C57.8833693,51.6307559 58.542203,50.9719222 59.3520518,50.9719222 Z M62.1166307,35.7667387 C62.9264795,35.7667387 63.5853132,36.4255724 63.5853132,37.2354212 C63.5853132,38.04527 62.9264795,38.7041037 62.1166307,38.7041037 C61.3067819,38.7041037 60.6479482,38.04527 60.6479482,37.2354212 C60.6479482,36.4255724 61.3067819,35.7667387 62.1166307,35.7667387 Z M49.6760259,35.7667387 C50.4858747,35.7667387 51.1447084,36.4255724 51.1447084,37.2354212 C51.1447084,38.04527 50.4858747,38.7041037 49.6760259,38.7041037 L48.2073434,38.7041037 L48.2073434,35.7667387 L49.6760259,35.7667387 Z M4.06047516,38.7041037 C3.25062635,38.7041037 2.59179266,38.04527 2.59179266,37.2354212 C2.59179266,36.4255724 3.25062635,35.7667387 4.06047516,35.7667387 C4.87032397,35.7667387 5.52915767,36.4255724 5.52915767,37.2354212 C5.52915767,38.04527 4.87032397,38.7041037 4.06047516,38.7041037 Z M16.5010799,38.7041037 C15.6912311,38.7041037 15.0323974,38.04527 15.0323974,37.2354212 C15.0323974,36.4255724 15.6912311,35.7667387 16.5010799,35.7667387 L17.9697624,35.7667387 L17.9697624,38.7041037 L16.5010799,38.7041037 Z M23.6409503,58.0561555 C24.1138661,57.134514 25.0719654,56.5010799 26.1771058,56.5010799 C27.2822462,56.5010799 28.2403456,57.134514 28.7132613,58.0561555 L23.6409503,58.0561555 Z M37.4638445,58.0561555 C37.9367603,57.134514 38.8948596,56.5010799 40,56.5010799 C41.1051404,56.5010799 42.0632397,57.134514 42.5361555,58.0561555 L37.4638445,58.0561555 Z M45.2425054,57.8928726 C44.6030238,55.5982721 42.4957235,53.9092873 40,53.9092873 C37.4453564,53.9092873 35.2974514,55.6787905 34.7142981,58.0561555 L31.462635,58.0561555 C30.8796544,55.6787905 28.7315767,53.9092873 26.176933,53.9092873 C23.6812095,53.9092873 21.5739093,55.5982721 20.9344276,57.8928726 C20.5335637,57.6867387 20.2374082,57.3014255 20.1587905,56.8290281 L19.4132181,52.3542117 L46.7638877,52.3542117 L46.0183153,56.8288553 C45.9395248,57.3014255 45.6433693,57.6867387 45.2425054,57.8928726 Z M49.762419,48.2937365 C49.762419,49.1035853 49.1035853,49.762419 48.2937365,49.762419 L17.8833693,49.762419 C17.0735205,49.762419 16.4146868,49.1035853 16.4146868,48.2937365 C16.4146868,47.4838877 17.0735205,46.825054 17.8833693,46.825054 L48.2937365,46.825054 C49.1035853,46.825054 49.762419,47.4838877 49.762419,48.2937365 Z M20.5615551,44.2332613 L20.5615551,15.1187905 C20.5615551,8.21131749 26.1810799,2.59179266 33.0885529,2.59179266 C39.9960259,2.59179266 45.6155508,8.21131749 45.6155508,15.1187905 L45.6155508,44.2332613 L20.5615551,44.2332613 Z" id="Shape"></path>
                </g>
            </g>
        </g>
    </g>
</svg>