<?xml version="1.0" encoding="UTF-8" standalone="no"?>
<svg width="75px" height="75px" viewBox="0 0 75 75" version="1.1" xmlns="http://www.w3.org/2000/svg" xmlns:xlink="http://www.w3.org/1999/xlink">
    <defs></defs>
    <g id="-home" stroke="none" stroke-width="1" fill="none" fill-rule="evenodd">
        <g id="home---1280up" transform="translate(-167.000000, -1650.000000)" fill-rule="nonzero" fill="#FFFFFF">
            <g id="robot-flying" transform="translate(212.000000, 1680.000000) rotate(45.000000) translate(-212.000000, -1680.000000) translate(183.000000, 1640.000000)">
                <path d="M29.453125,23.6363636 C24.2061579,23.6363636 19.9375,27.9184029 19.9375,33.1818182 C19.9375,38.4452334 24.2061579,42.7272727 29.453125,42.7272727 C34.7000921,42.7272727 38.96875,38.4452334 38.96875,33.1818182 C38.96875,27.9184029 34.7000921,23.6363636 29.453125,23.6363636 Z M29.453125,40.1474201 C25.6242432,40.1474201 22.5092905,37.0227027 22.5092905,33.1818182 C22.5092905,29.3409337 25.6242432,26.2162162 29.453125,26.2162162 C33.2820068,26.2162162 36.3969595,29.3409337 36.3969595,33.1818182 C36.3969595,37.0227027 33.2820068,40.1474201 29.453125,40.1474201 Z" id="Shape"></path>
                <path d="M26.734375,30 C25.9834562,30 25.375,30.5908504 25.375,31.3196481 L25.375,34.1348974 C25.375,34.863695 25.9834562,35.4545455 26.734375,35.4545455 C27.4852937,35.4545455 28.09375,34.863695 28.09375,34.1348974 L28.09375,31.3196481 C28.09375,30.5908504 27.4852937,30 26.734375,30 Z" id="Shape"></path>
                <path d="M32.171875,30 C31.4209562,30 30.8125,30.5908504 30.8125,31.3196481 L30.8125,34.1348974 C30.8125,34.863695 31.4209562,35.4545455 32.171875,35.4545455 C32.9227937,35.4545455 33.53125,34.863695 33.53125,34.1348974 L33.53125,31.3196481 C33.53125,30.5908504 32.9227937,30 32.171875,30 Z" id="Shape"></path>
                <path d="M35.8684211,45.4545455 L22.1315789,45.4545455 C21.4201822,45.4545455 20.84375,46.0650909 20.84375,46.8181818 C20.84375,47.5712727 21.4201822,48.1818182 22.1315789,48.1818182 L35.8684211,48.1818182 C36.5798178,48.1818182 37.15625,47.5712727 37.15625,46.8181818 C37.15625,46.0650909 36.5798178,45.4545455 35.8684211,45.4545455 Z" id="Shape"></path>
                <path d="M53.8447694,66.5068548 L53.8447694,60.6464907 L56.7014894,60.6464907 C57.1312094,60.6464907 57.5332278,60.4341186 57.7750967,60.0795315 C58.0167926,59.7247716 58.0671747,59.2737617 57.909276,58.8747648 L45.8691535,28.4234741 L46.6648798,20.4812068 C46.8591368,18.5406546 46.2105748,16.605632 44.8852299,15.1724227 L32.109978,1.35907776 C31.3113084,0.495419701 30.1776234,0 28.9999622,0 C27.822301,0 26.688616,0.495419701 25.8901195,1.35907776 L13.1143483,15.1724227 C11.7891764,16.605632 11.1406144,18.5406546 11.3348714,20.4812068 L12.1305978,28.4234741 L0.0906483511,58.8747648 C-0.0670772196,59.2737617 -0.0168682015,59.7247716 0.224827624,60.0795315 C0.466696583,60.4341186 0.868714998,60.6464907 1.29843494,60.6464907 L4.15515494,60.6464907 L4.15515494,66.5068548 C3.21711197,66.734779 2.32841235,67.2136098 1.59726516,67.9431745 C-0.529000186,70.0655131 -0.529000186,73.5187629 1.59726516,75.6411015 C2.10454938,76.1472349 2.92676534,76.1472349 3.43353015,75.6411015 C3.94081437,75.1349682 3.94081437,74.3145103 3.43370329,73.8083769 C2.31975562,72.696577 2.31975562,70.8878718 3.43353015,69.7760719 C4.54782409,68.6644447 6.36002337,68.6644447 7.47362477,69.7760719 C8.58757243,70.8878718 8.58757243,72.696577 7.47362477,73.8083769 C6.96651368,74.3145103 6.96651368,75.135141 7.4737979,75.6411015 C7.72726687,75.8942546 8.0596852,76.0207447 8.39193039,76.0207447 C8.72417559,76.0207447 9.05659391,75.8942546 9.31023602,75.6411015 C11.4365014,73.5187629 11.4365014,70.0655131 9.31006289,67.9431745 C8.5789157,67.213437 7.69021608,66.734779 6.75234625,66.5068548 L6.75234625,59.7615782 L14.2128869,49.2036262 L15.1931747,58.9882949 C15.2544644,59.6015647 15.5288826,60.1795832 15.9658742,60.6157322 L18.1084142,62.7541413 L19.1936215,68.1700618 C19.4436278,69.4176831 20.550477,70.323159 21.8250935,70.323159 L23.718666,70.323159 L24.7746136,77.7005407 C24.9624646,79.011407 26.1046332,80 27.4313632,80 L30.5690806,80 C31.8958106,80 33.0379792,79.011407 33.2258302,77.7003678 L34.2817778,70.323159 L36.1753503,70.323159 C37.4499668,70.323159 38.556816,69.4176831 38.8068222,68.1700618 L39.8920296,62.7541413 L42.0347427,60.6155594 C42.471388,60.1794104 42.7458063,59.6015647 42.807269,58.9882949 L43.7875568,49.2034534 L51.2479244,59.7614054 L51.2479244,66.506682 C50.3098814,66.7346062 49.4211818,67.213437 48.6900346,67.9430017 C46.5637693,70.0653403 46.5637693,73.5185901 48.6900346,75.6409287 C49.1971457,76.1470621 50.0193617,76.1470621 50.5262996,75.6409287 C51.0335838,75.1347954 51.0335838,74.3143375 50.5264727,73.8082041 C49.4125251,72.6964042 49.4125251,70.887699 50.5262996,69.775899 C51.6405935,68.6642719 53.4527928,68.6642719 54.5663942,69.775899 C55.6803419,70.887699 55.6803419,72.6964042 54.5663942,73.8082041 C54.0592831,74.3143375 54.0592831,75.1349682 54.5665674,75.6409287 C54.8200363,75.8940818 55.1524547,76.0205719 55.4846998,76.0205719 C55.816945,76.0205719 56.1493634,75.8940818 56.4030055,75.6409287 C58.5292708,73.5185901 58.5292708,70.0653403 56.4028323,67.9430017 C55.671512,67.2136098 54.7828124,66.734779 53.8447694,66.5068548 Z M27.7985816,3.11715242 C28.1116088,2.77863578 28.5382124,2.59201099 28.9999622,2.59201099 C29.461712,2.59201099 29.8884887,2.77846298 30.2015159,3.11715242 L42.9769409,16.9304974 C43.2643442,17.2413659 43.4992878,17.5909418 43.679694,17.9647098 L14.3200572,17.9647098 C14.5004634,17.590769 14.7352339,17.2413659 15.0226372,16.9304974 L27.7985816,3.11715242 Z M4.78069005,58.0544798 L3.20689703,58.0544798 L12.6951895,34.0571236 L13.8181402,45.2648063 L4.78069005,58.0544798 Z M21.7402576,67.6620277 L20.8884356,63.4114753 L23.6528749,63.4114753 L24.0239022,67.7314936 L21.8250935,67.7314936 C21.7838875,67.7313208 21.7482218,67.7021175 21.7402576,67.6620277 Z M26.6304428,67.7313208 L26.2594155,63.4113025 L31.740682,63.4113025 L31.3696547,67.7313208 L26.6304428,67.7313208 Z M30.5689074,77.4081618 L27.4311901,77.4081618 C27.3884258,77.4081618 27.3515482,77.3761937 27.3454885,77.3340303 L26.3420006,70.3233318 L31.6580969,70.3233318 L30.654609,77.3338575 C30.6485493,77.3761937 30.6116717,77.4081618 30.5689074,77.4081618 Z M36.2598399,67.6618549 C36.2517026,67.7021175 36.2160369,67.7313208 36.175004,67.7313208 L33.9761953,67.7313208 L34.3472226,63.4113025 L37.1116619,63.4113025 L36.2598399,67.6618549 Z M40.1977852,58.7831804 L38.1575677,60.8194643 L19.8423567,60.8194643 L17.8023123,58.7833532 C17.7879422,58.7690108 17.7791123,58.7505211 17.7770347,58.730649 L13.9523195,20.5567208 L44.0474318,20.5567208 L40.2227165,58.730649 C40.2208121,58.7503483 40.2119822,58.7690108 40.1977852,58.7831804 Z M45.304908,34.0572964 L54.7932005,58.0546526 L53.2194075,58.0546526 L44.1819573,45.2649791 L45.304908,34.0572964 Z" id="Shape"></path>
            </g>
        </g>
    </g>
</svg>