<?xml version="1.0" encoding="UTF-8" standalone="no"?>
<svg width="80px" height="80px" viewBox="0 0 80 80" version="1.1" xmlns="http://www.w3.org/2000/svg" xmlns:xlink="http://www.w3.org/1999/xlink">
    <defs></defs>
    <g id="-home" stroke="none" stroke-width="1" fill="none" fill-rule="evenodd">
        <g id="home---1280up" transform="translate(-523.000000, -1769.000000)" fill-rule="nonzero" fill="#FFFFFF">
            <g id="Group-12" transform="translate(441.000000, 1769.000000)">
                <g id="robot-(3)" transform="translate(82.000000, 0.000000)">
                    <path d="M75.7758621,15.1724138 C73.9937931,15.1724138 72.477931,16.3293103 71.9368966,17.9310345 L70.122069,17.9310345 C69.7889655,13.5439655 67.7724138,9.67948276 64.6551724,7.4912069 L64.6551724,6.81034483 C64.6551724,3.05517241 61.6,0 57.8448276,0 L21.9827586,0 C18.2275862,0 15.1724138,3.05517241 15.1724138,6.81034483 L15.1724138,7.4912069 C12.0551724,9.67948276 10.0386207,13.5439655 9.70551724,17.9310345 L7.89068966,17.9310345 C7.34965517,16.3293103 5.8337931,15.1724138 4.05172414,15.1724138 C1.81758621,15.1724138 0,16.99 0,19.2241379 C0,21.4582759 1.81758621,23.2758621 4.05172414,23.2758621 C5.8337931,23.2758621 7.34965517,22.1189655 7.89068966,20.5172414 L9.70551724,20.5172414 C10.0386207,24.9043103 12.0551724,28.7687931 15.1724138,30.957069 L15.1724138,31.637931 C15.1724138,35.3931034 18.2275862,38.4482759 21.9827586,38.4482759 L35.862069,38.4482759 L35.862069,41.3793103 L28.8793103,41.3793103 C26.9172414,41.3793103 25.2767241,42.7813793 24.9063793,44.6362069 C21.3191379,46.767931 18.7463793,50.1351724 17.447931,54.4201724 C16.7537931,56.7110345 16.5872414,58.7148276 16.5537931,59.8032759 L14.5081034,60.8260345 C14.0698276,61.0451724 13.7931034,61.492931 13.7931034,61.9827586 L13.7931034,66.1206897 C13.7931034,66.6105172 14.0698276,67.0582759 14.507931,67.2772414 L17.2665517,68.6565517 C17.4522414,68.7494828 17.6494828,68.7932759 17.8437931,68.7932759 C18.3181034,68.7932759 18.7748276,68.5312069 19.0013793,68.0782759 C19.3208621,67.4394828 19.0618966,66.6627586 18.4231034,66.3434483 L16.3793103,65.3215517 L16.3793103,62.782069 L17.8448276,62.0493103 L19.3103448,62.782069 L19.3103448,64.7413793 C19.3103448,65.4555172 19.8893103,66.0344828 20.6034483,66.0344828 C21.3175862,66.0344828 21.8965517,65.4555172 21.8965517,64.7413793 L21.8965517,61.9827586 C21.8965517,61.492931 21.6198276,61.0451724 21.1817241,60.8262069 L19.1418966,59.8063793 C19.2222414,57.647069 19.9306897,51.2225862 25.3524138,47.4217241 C26.0489655,48.6510345 27.3684483,49.482931 28.8793103,49.482931 L31.7241379,49.482931 L31.7241379,56.4656897 C31.7241379,59.3934483 33.2694828,61.9656897 35.5862069,63.4139655 C34.7989655,64.7568966 33.4008621,67.6682759 33.1455172,71.7243103 L30.2586207,71.7243103 C27.2639655,71.7243103 24.8275862,74.1606897 24.8275862,77.1553448 L24.8275862,78.5346552 C24.8275862,79.2487931 25.4065517,79.8277586 26.1206897,79.8277586 L35.7758621,79.8277586 C36.49,79.8277586 37.0689655,79.2487931 37.0689655,78.5346552 L37.0689655,73.0174138 C37.0689655,72.3032759 36.49,71.7243103 35.7758621,71.7243103 L35.7382759,71.7243103 C36.0191379,67.8922414 37.4717241,65.2648276 37.9982759,64.4268966 C38.6131034,64.5748276 39.2539655,64.6553448 39.9136207,64.6553448 C40.5731034,64.6553448 41.2139655,64.5748276 41.8287931,64.4268966 C42.357931,65.2691379 43.8084483,67.8955172 44.0891379,71.7243103 L44.0517241,71.7243103 C43.3375862,71.7243103 42.7586207,72.3032759 42.7586207,73.0174138 L42.7586207,78.5346552 C42.7586207,79.2487931 43.3375862,79.8277586 44.0517241,79.8277586 L53.7068966,79.8277586 C54.4210345,79.8277586 55,79.2487931 55,78.5346552 L55,77.1553448 C55,74.1606897 52.5636207,71.7243103 49.5689655,71.7243103 L46.6822414,71.7243103 C46.4267241,67.6682759 45.0286207,64.7568966 44.2415517,63.4139655 C46.5582759,61.9656897 48.1036207,59.3934483 48.1036207,56.4656897 L48.1036207,49.4827586 L50.9484483,49.4827586 C52.4589655,49.4827586 53.7781034,48.6513793 54.4746552,47.4227586 C57.0448276,49.2155172 58.8615517,51.7855172 59.8798276,55.0886207 C60.4955172,57.0858621 60.6501724,58.8572414 60.6853448,59.8065517 L58.6458621,60.8262069 C58.2077586,61.0451724 57.9310345,61.492931 57.9310345,61.9827586 L57.9310345,64.7413793 C57.9310345,65.4555172 58.51,66.0344828 59.2241379,66.0344828 C59.9382759,66.0344828 60.5172414,65.4555172 60.5172414,64.7413793 L60.5172414,62.7818966 L61.9827586,62.0491379 L63.4482759,62.7818966 L63.4482759,65.3213793 L61.4044828,66.3432759 C60.7656897,66.6625862 60.5067241,67.4393103 60.8262069,68.0781034 C61.0527586,68.5312069 61.5093103,68.7932759 61.9837931,68.7931034 C62.1781034,68.7931034 62.3753448,68.7491379 62.5610345,68.6563793 L65.3196552,67.277069 C65.7577586,67.0581034 66.0344828,66.6103448 66.0344828,66.1205172 L66.0344828,61.9825862 C66.0344828,61.4927586 65.7577586,61.045 65.3196552,60.8260345 L63.2739655,59.8032759 C63.2403448,58.7148276 63.0739655,56.7110345 62.3798276,54.4201724 C61.0813793,50.1351724 58.5084483,46.767931 54.9213793,44.6362069 C54.5508621,42.7813793 52.9103448,41.3793103 50.9482759,41.3793103 L43.9655172,41.3793103 L43.9655172,38.4482759 L57.8448276,38.4482759 C61.6,38.4482759 64.6551724,35.3931034 64.6551724,31.637931 L64.6551724,30.957069 C67.7724138,28.7687931 69.7889655,24.9043103 70.122069,20.5172414 L71.9368966,20.5172414 C72.477931,22.1189655 73.9937931,23.2758621 75.7758621,23.2758621 C78.01,23.2758621 79.8275862,21.4582759 79.8275862,19.2241379 C79.8275862,16.99 78.01,15.1724138 75.7758621,15.1724138 Z M34.4827586,77.2413793 L27.4137931,77.2413793 L27.4137931,77.1551724 C27.4137931,75.5865517 28.69,74.3103448 30.2586207,74.3103448 L34.4827586,74.3103448 L34.4827586,77.2413793 Z M52.4137931,77.1551724 L52.4137931,77.2413793 L45.3448276,77.2413793 L45.3448276,74.3103448 L49.5689655,74.3103448 C51.1375862,74.3103448 52.4137931,75.5865517 52.4137931,77.1551724 Z M4.05172414,20.6896552 C3.24362069,20.6896552 2.5862069,20.0322414 2.5862069,19.2241379 C2.5862069,18.4160345 3.24362069,17.7586207 4.05172414,17.7586207 C4.85982759,17.7586207 5.51724138,18.4160345 5.51724138,19.2241379 C5.51724138,20.0322414 4.85982759,20.6896552 4.05172414,20.6896552 Z M12.2413793,19.2241379 C12.2413793,16.0108621 13.3448276,12.9958621 15.1724138,10.9441379 L15.1724138,27.5039655 C13.3448276,25.4524138 12.2413793,22.4374138 12.2413793,19.2241379 Z M27.4139655,45.435 C27.4139655,45.4332759 27.4137931,45.4315517 27.4137931,45.4298276 C27.4144828,44.6222414 28.0715517,43.9655172 28.8793103,43.9655172 L38.6206897,43.9655172 L38.6206897,46.8965517 L28.8793103,46.8965517 C28.0725862,46.8965517 27.4162069,46.2412069 27.4139655,45.435 Z M45.5172414,56.4655172 C45.5172414,59.5551724 43.0034483,62.0689655 39.9137931,62.0689655 C36.8241379,62.0689655 34.3103448,59.5551724 34.3103448,56.4655172 L34.3103448,49.4827586 L45.5172414,49.4827586 L45.5172414,56.4655172 Z M52.4137931,45.4298276 C52.4137931,45.4315517 52.4136207,45.4332759 52.4136207,45.435 C52.4113793,46.2412069 51.755,46.8965517 50.9482759,46.8965517 L41.2068966,46.8965517 L41.2068966,43.9655172 L50.9482759,43.9655172 C51.7560345,43.9655172 52.4131034,44.6222414 52.4137931,45.4298276 Z M41.3793103,41.3793103 L38.4482759,41.3793103 L38.4482759,38.4482759 L41.3793103,38.4482759 L41.3793103,41.3793103 Z M62.0689655,31.637931 C62.0689655,33.967069 60.1739655,35.862069 57.8448276,35.862069 L21.9827586,35.862069 C19.6536207,35.862069 17.7586207,33.967069 17.7586207,31.637931 L17.7586207,6.81034483 C17.7586207,4.4812069 19.6536207,2.5862069 21.9827586,2.5862069 L57.8448276,2.5862069 C60.1739655,2.5862069 62.0689655,4.4812069 62.0689655,6.81034483 L62.0689655,31.637931 Z M64.6551724,27.5041379 L64.6551724,10.9441379 C66.4827586,12.9956897 67.5862069,16.0108621 67.5862069,19.2241379 C67.5862069,22.4374138 66.4827586,25.4524138 64.6551724,27.5041379 Z M75.7758621,20.6896552 C74.9677586,20.6896552 74.3103448,20.0322414 74.3103448,19.2241379 C74.3103448,18.4160345 74.9677586,17.7586207 75.7758621,17.7586207 C76.5839655,17.7586207 77.2413793,18.4160345 77.2413793,19.2241379 C77.2413793,20.0322414 76.5839655,20.6896552 75.7758621,20.6896552 Z" id="Shape"></path>
                    <path d="M57.8448276,5.51724138 L21.9827586,5.51724138 C21.2686207,5.51724138 20.6896552,6.0962069 20.6896552,6.81034483 L20.6896552,31.637931 C20.6896552,32.352069 21.2686207,32.9310345 21.9827586,32.9310345 L57.8448276,32.9310345 C58.5589655,32.9310345 59.137931,32.352069 59.137931,31.637931 L59.137931,6.81034483 C59.137931,6.0962069 58.5589655,5.51724138 57.8448276,5.51724138 Z M56.5517241,30.3448276 L23.2758621,30.3448276 L23.2758621,8.10344828 L56.5517241,8.10344828 L56.5517241,30.3448276 Z" id="Shape"></path>
                    <path d="M33.0172414,27.4137931 C35.2513793,27.4137931 37.0689655,25.5962069 37.0689655,23.362069 L37.0689655,15.0862069 C37.0689655,12.852069 35.2513793,11.0344828 33.0172414,11.0344828 C30.7831034,11.0344828 28.9655172,12.852069 28.9655172,15.0862069 L28.9655172,23.362069 C28.9655172,25.5962069 30.7831034,27.4137931 33.0172414,27.4137931 Z M31.5517241,15.0862069 C31.5517241,14.2781034 32.2091379,13.6206897 33.0172414,13.6206897 C33.8253448,13.6206897 34.4827586,14.2781034 34.4827586,15.0862069 L34.4827586,23.362069 C34.4827586,24.1701724 33.8253448,24.8275862 33.0172414,24.8275862 C32.2091379,24.8275862 31.5517241,24.1701724 31.5517241,23.362069 L31.5517241,15.0862069 Z" id="Shape"></path>
                    <path d="M46.8103448,27.4137931 C49.0444828,27.4137931 50.862069,25.5962069 50.862069,23.362069 L50.862069,15.0862069 C50.862069,12.852069 49.0444828,11.0344828 46.8103448,11.0344828 C44.5762069,11.0344828 42.7586207,12.852069 42.7586207,15.0862069 L42.7586207,23.362069 C42.7586207,25.5962069 44.5762069,27.4137931 46.8103448,27.4137931 Z M45.3448276,15.0862069 C45.3448276,14.2781034 46.0022414,13.6206897 46.8103448,13.6206897 C47.6184483,13.6206897 48.2758621,14.2781034 48.2758621,15.0862069 L48.2758621,23.362069 C48.2758621,24.1701724 47.6184483,24.8275862 46.8103448,24.8275862 C46.0022414,24.8275862 45.3448276,24.1701724 45.3448276,23.362069 L45.3448276,15.0862069 Z" id="Shape"></path>
                </g>
            </g>
        </g>
    </g>
</svg>