<?xml version="1.0" encoding="UTF-8" standalone="no"?>
<svg width="56px" height="80px" viewBox="0 0 56 80" version="1.1" xmlns="http://www.w3.org/2000/svg" xmlns:xlink="http://www.w3.org/1999/xlink">
    <defs></defs>
    <g id="-home" stroke="none" stroke-width="1" fill="none" fill-rule="evenodd">
        <g id="home---1280up" transform="translate(-613.000000, -1769.000000)" fill-rule="nonzero" fill="#FFFFFF">
            <g id="Group-12" transform="translate(441.000000, 1769.000000)">
                <g id="robot-(4)" transform="translate(172.000000, 0.000000)">
                    <path d="M23.412527,21.9438445 C24.1283801,21.9438445 24.7084233,21.3636285 24.7084233,20.6479482 L24.7084233,19.2656587 C24.7084233,18.5499784 24.1283801,17.9697624 23.412527,17.9697624 C22.6966739,17.9697624 22.1166307,18.5499784 22.1166307,19.2656587 L22.1166307,20.6479482 C22.1166307,21.3636285 22.6966739,21.9438445 23.412527,21.9438445 Z" id="Shape"></path>
                    <path d="M31.7062635,21.9438445 C32.4221166,21.9438445 33.0021598,21.3636285 33.0021598,20.6479482 L33.0021598,19.2656587 C33.0021598,18.5499784 32.4221166,17.9697624 31.7062635,17.9697624 C30.9904104,17.9697624 30.4103672,18.5499784 30.4103672,19.2656587 L30.4103672,20.6479482 C30.4103672,21.3636285 30.9904104,21.9438445 31.7062635,21.9438445 Z" id="Shape"></path>
                    <path d="M54.402419,54.0461339 L52.3542117,53.0220302 L52.3542117,41.0826782 C53.9593952,40.5404752 55.1187905,39.0213391 55.1187905,37.2354212 C55.1187905,34.9964579 53.2972786,33.174946 51.0583153,33.174946 L45.4427646,33.174946 L45.4427646,31.7062635 C45.4427646,30.9905832 44.8627214,30.4103672 44.1468683,30.4103672 L41.2958963,30.4103672 L41.2958963,23.412527 C41.2958963,18.9114471 39.1196544,14.9092009 35.7643197,12.402419 C35.764838,12.3863499 35.7667387,12.3704536 35.7667387,12.3542117 L35.7667387,7.90773218 C37.3719222,7.36552916 38.5313175,5.84639309 38.5313175,4.06047516 C38.5313175,1.82151188 36.7098056,0 34.4708423,0 C32.231879,0 30.4103672,1.82151188 30.4103672,4.06047516 C30.4103672,5.84639309 31.5697624,7.36552916 33.174946,7.90773218 L33.174946,10.8812095 C31.4591793,10.1092009 29.559568,9.67602592 27.5593952,9.67602592 C25.5592225,9.67602592 23.6596112,10.1092009 21.9438445,10.8812095 L21.9438445,7.90773218 C23.5490281,7.36552916 24.7084233,5.84639309 24.7084233,4.06047516 C24.7084233,1.82151188 22.8869114,0 20.6479482,0 C18.4089849,0 16.587473,1.82151188 16.587473,4.06047516 C16.587473,5.84639309 17.7468683,7.36552916 19.3520518,7.90773218 L19.3520518,12.3542117 C19.3520518,12.3704536 19.3539525,12.3863499 19.3544708,12.402419 C15.9991361,14.9092009 13.8228942,18.9114471 13.8228942,23.412527 L13.8228942,30.4103672 L10.9719222,30.4103672 C10.2560691,30.4103672 9.67602592,30.9905832 9.67602592,31.7062635 L9.67602592,33.174946 L4.06047516,33.174946 C1.82151188,33.174946 0,34.9964579 0,37.2354212 C0,39.0213391 1.15939525,40.5404752 2.76457883,41.0826782 L2.76457883,53.0220302 L0.71637149,54.0461339 C0.2774946,54.2655724 0,54.7142981 0,55.2051836 L0,59.3520518 C0,59.8429374 0.277321814,60.2916631 0.71637149,60.5111015 L3.48095032,61.8933909 C3.66704104,61.9865227 3.86488121,62.0304104 4.05961123,62.0304104 C4.534946,62.0304104 4.99265659,61.7677754 5.21969762,61.3138661 C5.53987041,60.6736933 5.28034557,59.8952916 4.64017279,59.5752916 L2.59179266,58.5511879 L2.59179266,56.0062203 L4.06047516,55.271879 L5.52915767,56.0062203 L5.52915767,57.9697624 C5.52915767,58.6854428 6.10920086,59.2656587 6.825054,59.2656587 C7.54090713,59.2656587 8.12095032,58.6854428 8.12095032,57.9697624 L8.12095032,55.2051836 C8.12095032,54.7142981 7.84362851,54.2655724 7.40457883,54.0461339 L5.35637149,53.0220302 L5.35637149,41.2958963 L9.67602592,41.2958963 L9.67602592,46.9114471 C9.67602592,51.412527 11.8522678,55.4147732 15.2076026,57.9215551 C15.2070842,57.9376242 15.2051836,57.9535205 15.2051836,57.9697624 L15.2051836,66.2634989 C15.2051836,68.0494168 16.3645788,69.5685529 17.9697624,70.1107559 L17.9697624,71.8790497 L15.1187905,71.8790497 C14.6337797,71.8790497 14.1895464,72.1496328 13.9671706,72.5805616 L11.475594,77.4082073 L10.9719222,77.4082073 C10.2560691,77.4082073 9.67602592,77.9884233 9.67602592,78.7041037 C9.67602592,79.419784 10.2560691,80 10.9719222,80 L23.412527,80 C24.1283801,80 24.7084233,79.419784 24.7084233,78.7041037 L24.7084233,73.174946 C24.7084233,72.4592657 24.1283801,71.8790497 23.412527,71.8790497 L20.5615551,71.8790497 L20.5615551,70.1107559 C22.1667387,69.5685529 23.3261339,68.0494168 23.3261339,66.2634989 L23.3261339,60.6457019 C23.3549892,60.6458747 23.3834989,60.6479482 23.412527,60.6479482 L31.7062635,60.6479482 C31.7352916,60.6479482 31.7638013,60.6458747 31.7926566,60.6457019 L31.7926566,66.2634989 C31.7926566,68.0494168 32.9520518,69.5685529 34.5572354,70.1107559 L34.5572354,71.8790497 L31.7062635,71.8790497 C30.9904104,71.8790497 30.4103672,72.4592657 30.4103672,73.174946 L30.4103672,78.7041037 C30.4103672,79.419784 30.9904104,80 31.7062635,80 L44.1468683,80 C44.8627214,80 45.4427646,79.419784 45.4427646,78.7041037 C45.4427646,77.9884233 44.8627214,77.4082073 44.1468683,77.4082073 L43.6431965,77.4082073 L41.1516199,72.5805616 C40.9292441,72.1496328 40.4850108,71.8790497 40,71.8790497 L37.1490281,71.8790497 L37.1490281,70.1107559 C38.7542117,69.5685529 39.9136069,68.0494168 39.9136069,66.2634989 L39.9136069,57.9697624 C39.9136069,57.9535205 39.9117063,57.9376242 39.9111879,57.9215551 C43.2665227,55.4147732 45.4427646,51.412527 45.4427646,46.9114471 L45.4427646,41.2958963 L49.762419,41.2958963 L49.762419,53.0220302 L47.7142117,54.0461339 C47.2753348,54.2655724 46.9978402,54.7142981 46.9978402,55.2051836 L46.9978402,57.9697624 C46.9978402,58.6854428 47.5778834,59.2656587 48.2937365,59.2656587 C49.0095896,59.2656587 49.5896328,58.6854428 49.5896328,57.9697624 L49.5896328,56.0060475 L51.0583153,55.2717063 L52.5269978,56.0060475 L52.5269978,58.5510151 L50.4787905,59.5751188 C49.8387905,59.8951188 49.5792657,60.6735205 49.8992657,61.3136933 C50.1261339,61.7677754 50.5840173,62.0304104 51.0593521,62.0302376 C51.2540821,62.0302376 51.4517495,61.9861771 51.638013,61.8932181 L54.4025918,60.5109287 C54.8414687,60.2914903 55.1189633,59.8427646 55.1189633,59.351879 L55.1189633,55.2050108 C55.1187905,54.7142981 54.8414687,54.2655724 54.402419,54.0461339 Z M34.4708423,2.59179266 C35.2806911,2.59179266 35.9395248,3.25062635 35.9395248,4.06047516 C35.9395248,4.87032397 35.2806911,5.52915767 34.4708423,5.52915767 C33.6609935,5.52915767 33.0021598,4.87032397 33.0021598,4.06047516 C33.0021598,3.25062635 33.6609935,2.59179266 34.4708423,2.59179266 Z M20.6479482,2.59179266 C21.457797,2.59179266 22.1166307,3.25062635 22.1166307,4.06047516 C22.1166307,4.87032397 21.457797,5.52915767 20.6479482,5.52915767 C19.8380994,5.52915767 19.1792657,4.87032397 19.1792657,4.06047516 C19.1792657,3.25062635 19.8380994,2.59179266 20.6479482,2.59179266 Z M22.1166307,77.4082073 L14.3922246,77.4082073 L15.9082505,74.4708423 L22.1166307,74.4708423 L22.1166307,77.4082073 Z M40.7265659,77.4082073 L33.0021598,77.4082073 L33.0021598,74.4708423 L39.21054,74.4708423 L40.7265659,77.4082073 Z M51.0583153,38.7041037 C50.2484665,38.7041037 49.5896328,38.04527 49.5896328,37.2354212 C49.5896328,36.4255724 50.2484665,35.7667387 51.0583153,35.7667387 C51.8681641,35.7667387 52.5269978,36.4255724 52.5269978,37.2354212 C52.5269978,38.04527 51.8681641,38.7041037 51.0583153,38.7041037 Z M27.5593952,12.2678186 C33.7045356,12.2678186 38.7041037,17.2673866 38.7041037,23.412527 L38.7041037,24.8812095 L16.4146868,24.8812095 L16.4146868,23.412527 C16.4146868,17.2673866 21.4142549,12.2678186 27.5593952,12.2678186 Z M16.4146868,27.4730022 L38.7041037,27.4730022 L38.7041037,30.4103672 L16.4146868,30.4103672 L16.4146868,27.4730022 Z M4.06047516,35.7667387 C4.87032397,35.7667387 5.52915767,36.4255724 5.52915767,37.2354212 C5.52915767,38.04527 4.87032397,38.7041037 4.06047516,38.7041037 C3.25062635,38.7041037 2.59179266,38.04527 2.59179266,37.2354212 C2.59179266,36.4255724 3.25062635,35.7667387 4.06047516,35.7667387 Z M7.8450108,38.7041037 C8.0224622,38.2482937 8.12095032,37.7532613 8.12095032,37.2354212 C8.12095032,36.717581 8.0224622,36.2225486 7.8450108,35.7667387 L9.67602592,35.7667387 L9.67602592,38.7041037 L7.8450108,38.7041037 Z M19.2656587,67.7321814 C18.4558099,67.7321814 17.7969762,67.0733477 17.7969762,66.2634989 C17.7969762,65.4536501 18.4558099,64.7948164 19.2656587,64.7948164 C20.0755076,64.7948164 20.7343413,65.4536501 20.7343413,66.2634989 C20.7343413,67.0733477 20.0755076,67.7321814 19.2656587,67.7321814 Z M20.7343413,62.4789633 C20.2785313,62.3015119 19.7834989,62.2030238 19.2656587,62.2030238 C18.7478186,62.2030238 18.2527862,62.3015119 17.7969762,62.4789633 L17.7969762,59.4427646 C18.7265659,59.8610799 19.7095464,60.1805616 20.7343413,60.3839309 L20.7343413,62.4789633 Z M12.2678186,46.9114471 L12.2678186,33.0021598 L26.2634989,33.0021598 L26.2634989,37.3218143 L22.0302376,37.3218143 C19.0291145,37.3218143 16.587473,39.7634557 16.587473,42.7645788 C16.587473,45.7657019 19.0291145,48.2073434 22.0302376,48.2073434 L26.2634989,48.2073434 L26.2634989,58.0561555 L23.412527,58.0561555 C17.2673866,58.0561555 12.2678186,53.0565875 12.2678186,46.9114471 Z M22.0302376,45.6155508 C20.4582289,45.6155508 19.1792657,44.3365875 19.1792657,42.7645788 C19.1792657,41.1925702 20.4582289,39.9136069 22.0302376,39.9136069 L33.0885529,39.9136069 C34.6605616,39.9136069 35.9395248,41.1925702 35.9395248,42.7645788 C35.9395248,44.3365875 34.6605616,45.6155508 33.0885529,45.6155508 L22.0302376,45.6155508 Z M35.8531317,67.7321814 C35.0432829,67.7321814 34.3844492,67.0733477 34.3844492,66.2634989 C34.3844492,65.4536501 35.0432829,64.7948164 35.8531317,64.7948164 C36.6629806,64.7948164 37.3218143,65.4536501 37.3218143,66.2634989 C37.3218143,67.0733477 36.6629806,67.7321814 35.8531317,67.7321814 Z M37.3218143,62.4789633 C36.8660043,62.3015119 36.3709719,62.2030238 35.8531317,62.2030238 C35.3352916,62.2030238 34.8402592,62.3015119 34.3844492,62.4789633 L34.3844492,60.3839309 C35.4092441,60.1805616 36.3922246,59.8610799 37.3218143,59.4427646 L37.3218143,62.4789633 Z M42.8509719,46.9114471 C42.8509719,53.0565875 37.8514039,58.0561555 31.7062635,58.0561555 L28.8552916,58.0561555 L28.8552916,48.2073434 L33.0885529,48.2073434 C36.089676,48.2073434 38.5313175,45.7657019 38.5313175,42.7645788 C38.5313175,39.7634557 36.089676,37.3218143 33.0885529,37.3218143 L28.8552916,37.3218143 L28.8552916,33.0021598 L42.8509719,33.0021598 L42.8509719,46.9114471 Z M45.4427646,35.7667387 L47.2737797,35.7667387 C47.0963283,36.2225486 46.9978402,36.717581 46.9978402,37.2354212 C46.9978402,37.7532613 47.0963283,38.2482937 47.2737797,38.7041037 L45.4427646,38.7041037 L45.4427646,35.7667387 Z" id="Shape"></path>
                </g>
            </g>
        </g>
    </g>
</svg>