<?xml version="1.0" encoding="UTF-8" standalone="no"?>
<svg width="63px" height="80px" viewBox="0 0 63 80" version="1.1" xmlns="http://www.w3.org/2000/svg" xmlns:xlink="http://www.w3.org/1999/xlink">
    <defs></defs>
    <g id="-home" stroke="none" stroke-width="1" fill="none" fill-rule="evenodd">
        <g id="home---1280up" transform="translate(-767.000000, -1769.000000)" fill-rule="nonzero" fill="#FFFFFF">
            <g id="Group-12" transform="translate(441.000000, 1769.000000)">
                <g id="robot-(6)" transform="translate(326.000000, 0.000000)">
                    <path d="M61.8933909,49.0965011 L60.6479482,46.6056156 L60.6479482,45.5291577 C60.6479482,43.7432397 59.4885529,42.2241037 57.8833693,41.6819006 L57.8833693,38.3179266 C59.4885529,37.7757235 60.6479482,36.2565875 60.6479482,34.4706695 C60.6479482,32.6633261 59.4607343,31.1286393 57.8253132,30.6038877 C57.4109719,26.5401296 54.7338229,22.9755508 50.8860475,21.4788769 C50.9420302,21.21054 50.9719222,20.932527 50.9719222,20.6477754 C50.9719222,18.8490713 49.7959395,17.3207775 48.172959,16.7889417 C47.6053564,7.43585313 39.817365,0 30.3239741,0 C20.8305832,0 13.0425918,7.43585313 12.4749892,16.7891145 C10.8520086,17.3209503 9.67602592,18.8492441 9.67602592,20.6479482 C9.67602592,21.1379698 9.76328294,21.6079482 9.92311015,22.0431965 C6.73693305,23.7627646 4.57382289,26.9855724 4.20492441,30.6040605 C2.56950324,31.1288121 1.38228942,32.6634989 1.38228942,34.4708423 C1.38228942,36.2567603 2.54168467,37.7758963 4.14686825,38.3180994 L4.14686825,41.6820734 C2.54168467,42.2242765 1.38228942,43.7434125 1.38228942,45.5293305 L1.38228942,46.6057883 L0.136846652,49.0966739 C0.046825054,49.2765443 0,49.47473 0,49.6760259 L0,51.0583153 C0,51.7739957 0.580215983,52.3542117 1.29589633,52.3542117 C2.01157667,52.3542117 2.59179266,51.7739957 2.59179266,51.0583153 L2.59179266,49.9820302 L3.47904968,48.2073434 L7.4063067,48.2073434 L8.2937365,49.9820302 L8.2937365,51.0583153 C8.2937365,51.7739957 8.87395248,52.3542117 9.58963283,52.3542117 C10.3053132,52.3542117 10.8855292,51.7739957 10.8855292,51.0583153 L10.8855292,49.6760259 C10.8855292,49.47473 10.8387041,49.2763715 10.7486825,49.0965011 L9.50323974,46.6056156 L9.50323974,45.5291577 C9.50323974,43.7432397 8.34384449,42.2241037 6.73866091,41.6819006 L6.73866091,38.3179266 C8.34384449,37.7757235 9.50323974,36.2565875 9.50323974,34.4706695 C9.50323974,32.7104968 8.37719222,31.2088121 6.80777538,30.6469114 C7.17321814,27.80527 8.987473,25.3100648 11.5996544,24.0984881 C12.2208207,24.4844924 12.9529158,24.7082505 13.7365011,24.7082505 L13.8228942,24.7082505 L13.8228942,55.2914039 L9.58963283,55.2914039 C8.11282937,55.2914039 6.91144708,56.4927862 6.91144708,57.9695896 L6.91144708,62.1164579 C6.91144708,62.8321382 7.49166307,63.4123542 8.20734341,63.4123542 L8.2937365,63.4123542 L8.2937365,77.3216415 C8.2937365,78.7984449 9.49511879,79.9998272 10.9719222,79.9998272 L16.5010799,79.9998272 C17.9778834,79.9998272 19.1792657,78.7984449 19.1792657,77.3216415 L19.1792657,71.7062635 L41.4686825,71.7062635 L41.4686825,77.3218143 C41.4686825,78.7986177 42.6700648,80 44.1468683,80 L49.6760259,80 C51.1528294,80 52.3542117,78.7986177 52.3542117,77.3218143 L52.3542117,63.412527 L52.4406048,63.412527 C53.1562851,63.412527 53.7365011,62.832311 53.7365011,62.1166307 L53.7365011,57.9697624 C53.7365011,56.492959 52.5351188,55.2915767 51.0583153,55.2915767 L46.825054,55.2915767 L46.825054,24.7084233 L46.9114471,24.7084233 C47.9255292,24.7084233 48.8532181,24.3339957 49.5654428,23.717149 C49.6430238,23.7669114 49.7266523,23.8097624 49.8168467,23.8431102 C52.7564579,24.9297624 54.8290281,27.587905 55.2224622,30.6470842 C53.6530454,31.2089849 52.5269978,32.7106695 52.5269978,34.4708423 C52.5269978,36.2567603 53.6863931,37.7758963 55.2915767,38.3180994 L55.2915767,41.6820734 C53.6863931,42.2242765 52.5269978,43.7434125 52.5269978,45.5293305 L52.5269978,46.6057883 L51.2815551,49.0966739 C51.1915335,49.2767171 51.1447084,49.4749028 51.1447084,49.6761987 L51.1447084,51.0584881 C51.1447084,51.7741685 51.7249244,52.3543844 52.4406048,52.3543844 C53.1562851,52.3543844 53.7365011,51.7741685 53.7365011,51.0584881 L53.7365011,49.982203 L54.6237581,48.2073434 L58.5510151,48.2073434 L59.4384449,49.9820302 L59.4384449,51.0583153 C59.4384449,51.7739957 60.0186609,52.3542117 60.7343413,52.3542117 C61.4500216,52.3542117 62.0302376,51.7739957 62.0302376,51.0583153 L62.0302376,49.6760259 C62.0302376,49.47473 61.9834125,49.2765443 61.8933909,49.0965011 Z M6.91144708,45.6155508 L3.97408207,45.6155508 L3.97408207,45.5291577 C3.97408207,44.7193089 4.63291577,44.0604752 5.44276458,44.0604752 C6.25261339,44.0604752 6.91144708,44.7193089 6.91144708,45.5291577 L6.91144708,45.6155508 Z M5.44276458,35.9395248 C4.63291577,35.9395248 3.97408207,35.2806911 3.97408207,34.4708423 C3.97408207,33.6609935 4.63291577,33.0021598 5.44276458,33.0021598 C6.25261339,33.0021598 6.91144708,33.6609935 6.91144708,34.4708423 C6.91144708,35.2806911 6.25261339,35.9395248 5.44276458,35.9395248 Z M30.3239741,2.59179266 C38.3193089,2.59179266 44.9000432,8.75991361 45.5600864,16.587473 L15.0878618,16.587473 C15.747905,8.75991361 22.3286393,2.59179266 30.3239741,2.59179266 Z M9.50323974,57.9697624 C9.50323974,57.9220734 9.54194384,57.8833693 9.58963283,57.8833693 L17.8833693,57.8833693 C17.9310583,57.8833693 17.9697624,57.9220734 17.9697624,57.9697624 L17.9697624,59.350324 L17.9697624,59.3520518 L17.9697624,59.3537797 L17.9697624,60.8207343 L9.50323974,60.8207343 L9.50323974,57.9697624 Z M10.8855292,70.0095032 L16.587473,68.0262635 L16.587473,70.8114039 L10.8855292,72.7946436 L10.8855292,70.0095032 Z M16.587473,63.412527 L16.587473,65.2820734 L10.8855292,67.2653132 L10.8855292,63.412527 L16.587473,63.412527 Z M16.5010799,77.4082073 L10.9719222,77.4082073 C10.9242333,77.4082073 10.8855292,77.3695032 10.8855292,77.3218143 L10.8855292,75.5386609 L16.587473,73.5554212 L16.587473,77.3218143 C16.587473,77.3695032 16.5487689,77.4082073 16.5010799,77.4082073 Z M19.1792657,69.1144708 L19.1792657,63.412527 L19.2656587,63.412527 C19.9813391,63.412527 20.5615551,62.832311 20.5615551,62.1166307 L20.5615551,60.6479482 L21.2293737,60.6479482 L22.8717063,63.9324406 C23.5638877,65.3169762 24.9555076,66.1771058 26.5034989,66.1771058 L34.144622,66.1771058 C35.6924406,66.1771058 37.0842333,65.3169762 37.7764147,63.9324406 L39.4185745,60.6479482 L40.0863931,60.6479482 L40.0863931,62.1166307 C40.0863931,62.832311 40.6666091,63.412527 41.3822894,63.412527 L41.4686825,63.412527 L41.4686825,69.1144708 L19.1792657,69.1144708 Z M24.1269978,60.6479482 L36.5209503,60.6479482 L35.4581425,62.7733909 C35.2077754,63.2741253 34.7042765,63.5853132 34.1444492,63.5853132 L26.5033261,63.5853132 C25.9434989,63.5853132 25.44,63.2742981 25.1896328,62.7733909 L24.1269978,60.6479482 Z M49.762419,72.7946436 L44.0604752,70.8114039 L44.0604752,68.0262635 L49.762419,70.0095032 L49.762419,72.7946436 Z M49.6760259,77.4082073 L44.1468683,77.4082073 C44.0991793,77.4082073 44.0604752,77.3695032 44.0604752,77.3218143 L44.0604752,73.5552484 L49.762419,75.5384881 L49.762419,77.3216415 C49.762419,77.3695032 49.7237149,77.4082073 49.6760259,77.4082073 Z M49.762419,67.265486 L44.0604752,65.2822462 L44.0604752,63.412527 L49.762419,63.412527 L49.762419,67.265486 Z M51.1447084,57.9697624 L51.1447084,60.8207343 L42.6781857,60.8207343 L42.6781857,57.9697624 C42.6781857,57.9220734 42.7168898,57.8833693 42.7645788,57.8833693 L51.0583153,57.8833693 C51.1060043,57.8833693 51.1447084,57.9220734 51.1447084,57.9697624 Z M44.2332613,55.2915767 L42.7645788,55.2915767 C41.2877754,55.2915767 40.0863931,56.492959 40.0863931,57.9697624 L40.0863931,58.0561555 L20.5615551,58.0561555 L20.5615551,57.9697624 C20.5615551,56.492959 19.3601728,55.2915767 17.8833693,55.2915767 L16.4146868,55.2915767 L16.4146868,24.7084233 L22.1166307,24.7084233 L22.1166307,41.3822894 C22.1166307,45.9077322 25.7985313,49.5896328 30.3239741,49.5896328 C34.8494168,49.5896328 38.5313175,45.9077322 38.5313175,41.3822894 L38.5313175,24.7084233 L44.2332613,24.7084233 L44.2332613,55.2915767 Z M35.9395248,24.7084233 L35.9395248,27.6457883 L24.7084233,27.6457883 L24.7084233,24.7084233 L35.9395248,24.7084233 Z M24.7084233,30.237581 L35.9395248,30.237581 L35.9395248,41.3822894 C35.9395248,44.4786177 33.4203024,46.9978402 30.3239741,46.9978402 C27.2276458,46.9978402 24.7084233,44.4786177 24.7084233,41.3822894 L24.7084233,30.237581 Z M46.9114471,22.1166307 L13.7365011,22.1166307 C12.9266523,22.1166307 12.2678186,21.457797 12.2678186,20.6479482 C12.2678186,19.8380994 12.9266523,19.1792657 13.7365011,19.1792657 L46.9114471,19.1792657 C47.7212959,19.1792657 48.3801296,19.8380994 48.3801296,20.6479482 C48.3801296,21.457797 47.7212959,22.1166307 46.9114471,22.1166307 Z M56.587473,33.0021598 C57.3973218,33.0021598 58.0561555,33.6609935 58.0561555,34.4708423 C58.0561555,35.2806911 57.3973218,35.9395248 56.587473,35.9395248 C55.7776242,35.9395248 55.1187905,35.2806911 55.1187905,34.4708423 C55.1187905,33.6609935 55.7776242,33.0021598 56.587473,33.0021598 Z M56.587473,44.0604752 C57.3973218,44.0604752 58.0561555,44.7193089 58.0561555,45.5291577 L58.0561555,45.6155508 L55.1187905,45.6155508 L55.1187905,45.5291577 C55.1187905,44.7193089 55.7776242,44.0604752 56.587473,44.0604752 Z" id="Shape"></path>
                    <path d="M30.3239741,43.887689 C31.7053996,43.887689 32.8293737,42.7637149 32.8293737,41.3822894 C32.8293737,40.0008639 31.7053996,38.8768898 30.3239741,38.8768898 C28.9425486,38.8768898 27.8185745,40.0008639 27.8185745,41.3822894 C27.8185745,42.7637149 28.9425486,43.887689 30.3239741,43.887689 Z" id="Shape"></path>
                    <path d="M25.4859611,13.650108 C27.3437581,13.650108 28.8552916,12.1385745 28.8552916,10.2807775 C28.8552916,8.42298056 27.3437581,6.91144708 25.4859611,6.91144708 C23.6281641,6.91144708 22.1166307,8.42298056 22.1166307,10.2807775 C22.1166307,12.1385745 23.6281641,13.650108 25.4859611,13.650108 Z M25.4859611,9.50323974 C25.9146436,9.50323974 26.2634989,9.85209503 26.2634989,10.2807775 C26.2634989,10.70946 25.9146436,11.0583153 25.4859611,11.0583153 C25.0572786,11.0583153 24.7084233,10.70946 24.7084233,10.2807775 C24.7084233,9.85209503 25.0572786,9.50323974 25.4859611,9.50323974 Z" id="Shape"></path>
                    <path d="M35.161987,13.650108 C37.019784,13.650108 38.5313175,12.1385745 38.5313175,10.2807775 C38.5313175,8.42298056 37.019784,6.91144708 35.161987,6.91144708 C33.3041901,6.91144708 31.7926566,8.42298056 31.7926566,10.2807775 C31.7926566,12.1385745 33.3041901,13.650108 35.161987,13.650108 Z M35.161987,9.50323974 C35.5906695,9.50323974 35.9395248,9.85209503 35.9395248,10.2807775 C35.9395248,10.70946 35.5906695,11.0583153 35.161987,11.0583153 C34.7333045,11.0583153 34.3844492,10.70946 34.3844492,10.2807775 C34.3844492,9.85209503 34.7333045,9.50323974 35.161987,9.50323974 Z" id="Shape"></path>
                </g>
            </g>
        </g>
    </g>
</svg>