<?xml version="1.0" encoding="UTF-8" standalone="no"?>
<svg width="48px" height="39px" viewBox="0 0 48 39" version="1.1" xmlns="http://www.w3.org/2000/svg" xmlns:xlink="http://www.w3.org/1999/xlink">
    <defs></defs>
    <g id="-home" stroke="none" stroke-width="1" fill="none" fill-rule="evenodd">
        <g id="home---1280up" transform="translate(-281.000000, -2673.000000)" fill-rule="nonzero" fill="#5A6772">
            <g id="abacus" transform="translate(281.000000, 2673.000000)">
                <path d="M41.7602807,0.04425 L6.14624561,0.04425 C2.75723977,0.04425 0,2.806875 0,6.20259375 L0,32.7975937 C0,36.1932187 2.75723977,38.9558437 6.14633918,38.9558437 L41.7603743,38.9558437 C45.1493801,38.9558437 47.9066199,36.1932187 47.9066199,32.7975937 L47.9066199,6.20259375 C47.9064327,2.806875 45.1492865,0.04425 41.7602807,0.04425 Z M46.4429474,32.7975937 L46.4428538,32.7975937 C46.4428538,35.3847187 44.342269,37.4893125 41.7602807,37.4893125 L6.14624561,37.4893125 C3.56425731,37.4893125 1.46367251,35.384625 1.46367251,32.7975937 L1.46367251,6.20259375 C1.46367251,3.61546875 3.56435088,1.510875 6.14633918,1.510875 L41.7603743,1.510875 C44.3424561,1.510875 46.4429474,3.6155625 46.4429474,6.20259375 L46.4429474,32.7975937 Z" id="Shape"></path>
                <path d="M44.9100351,6.376125 L44.9100351,6.376125 C44.9100351,4.4949375 43.3825497,2.96446875 41.5050292,2.96446875 L6.40130994,2.96446875 C4.52369591,2.96446875 2.99630409,4.4949375 2.99630409,6.376125 L2.99630409,32.5419375 C2.99630409,34.423125 4.52378947,35.9535937 6.40130994,35.9535937 L41.5050292,35.9535937 C43.3825497,35.9535937 44.9100351,34.423125 44.9100351,32.5419375 L44.9100351,29.9492812 L44.9274386,29.9492812 L44.9274386,28.4828437 L44.9100351,28.4828437 L44.9100351,20.19225 L44.9274386,20.19225 L44.9274386,18.7258125 L44.9100351,18.7258125 L44.9100351,10.4352187 L44.9274386,10.4352187 L44.9274386,8.96878125 L44.9100351,8.96878125 L44.9100351,6.376125 Z M4.45988304,6.376125 C4.45988304,5.3034375 5.33080702,4.43090625 6.40130994,4.43090625 L41.5050292,4.43090625 C42.5756257,4.43090625 43.4464561,5.30353125 43.4464561,6.376125 L43.4464561,8.96878125 L38.8262924,8.96878125 C38.4990877,7.67625 37.328655,6.7171875 35.9384327,6.7171875 C34.5482105,6.7171875 33.3777778,7.67634375 33.0505731,8.96878125 L27.5899883,8.96878125 C27.2629708,7.67625 26.0923509,6.7171875 24.7021287,6.7171875 C23.3119064,6.7171875 22.1413801,7.67634375 21.814269,8.96878125 L18.6012632,8.96878125 C18.274152,7.67625 17.1036257,6.7171875 15.7134035,6.7171875 C14.8172164,6.7171875 14.0127251,7.116375 13.4661988,7.7458125 C12.9195789,7.11628125 12.1151813,6.7171875 11.2189942,6.7171875 C9.82877193,6.7171875 8.65815205,7.67634375 8.3311345,8.96878125 L4.45988304,8.96878125 L4.45988304,6.376125 Z M37.453848,9.702 C37.453848,10.5391875 36.7739883,11.220375 35.9384327,11.220375 C35.1028772,11.220375 34.4230175,10.5391875 34.4230175,9.702 C34.4230175,8.8648125 35.1028772,8.183625 35.9384327,8.183625 C36.7739883,8.183625 37.453848,8.86490625 37.453848,9.702 Z M26.2176374,9.702 C26.2176374,10.5391875 25.5377778,11.220375 24.7022222,11.220375 C23.8665731,11.220375 23.186807,10.5391875 23.186807,9.702 C23.186807,8.8648125 23.8665731,8.183625 24.7022222,8.183625 C25.5377778,8.183625 26.2176374,8.86490625 26.2176374,9.702 Z M17.2288187,9.702 C17.2288187,10.5391875 16.5490526,11.220375 15.7133099,11.220375 C14.8777544,11.220375 14.1978947,10.5391875 14.1978947,9.702 C14.1978947,8.8648125 14.8776608,8.183625 15.7133099,8.183625 C16.5489591,8.183625 17.2288187,8.86490625 17.2288187,9.702 Z M12.7343158,9.702 C12.7343158,10.5391875 12.0545497,11.220375 11.2189006,11.220375 C10.3832515,11.220375 9.70348538,10.5391875 9.70348538,9.702 C9.70348538,8.8648125 10.3832515,8.183625 11.2189006,8.183625 C12.0545497,8.183625 12.7343158,8.86490625 12.7343158,9.702 Z M4.45988304,10.435125 L8.33104094,10.435125 C8.65805848,11.7276562 9.82867836,12.6867187 11.2189006,12.6867187 C12.1150877,12.6867187 12.9194854,12.2875312 13.4661053,11.6580937 C14.0127251,12.287625 14.8171228,12.6867187 15.7133099,12.6867187 C17.1035322,12.6867187 18.2740585,11.7275625 18.6011696,10.435125 L21.8144561,10.435125 C22.1414737,11.7276562 23.3120936,12.6867187 24.7023158,12.6867187 C26.092538,12.6867187 27.2630643,11.7275625 27.5901754,10.435125 L33.0507602,10.435125 C33.3779649,11.7276562 34.5483977,12.6867187 35.9386199,12.6867187 C37.3288421,12.6867187 38.4992749,11.7275625 38.8264795,10.435125 L43.4467368,10.435125 L43.4467368,18.7257187 L43.4465497,18.7257187 L38.8262924,18.7257187 C38.4990877,17.4331875 37.328655,16.474125 35.9384327,16.474125 C35.042152,16.474125 34.2377544,16.8733125 33.6912281,17.50275 C33.1446082,16.8732187 32.340117,16.474125 31.4440234,16.474125 C30.0538012,16.474125 28.8833684,17.4332812 28.5561637,18.7257187 L23.0955789,18.7257187 C22.7685614,17.4331875 21.5979415,16.474125 20.2077193,16.474125 C19.3115322,16.474125 18.5071345,16.8733125 17.9605146,17.50275 C17.4138947,16.8732187 16.6094971,16.474125 15.7132164,16.474125 C14.3229942,16.474125 13.1524678,17.4332812 12.8253567,18.7257187 L4.45988304,18.7257187 L4.45988304,10.435125 Z M37.453848,19.4590312 C37.453848,20.2962187 36.7739883,20.9774062 35.9384327,20.9774062 C35.1028772,20.9774062 34.4230175,20.2963125 34.4230175,19.4590312 C34.4230175,18.6218437 35.1028772,17.9406562 35.9384327,17.9406562 C36.7739883,17.9406562 37.453848,18.6218437 37.453848,19.4590312 Z M32.959345,19.4590312 C32.959345,20.2962187 32.2794854,20.9774062 31.4439298,20.9774062 C30.6083743,20.9774062 29.9285146,20.2963125 29.9285146,19.4590312 C29.9285146,18.6218437 30.6083743,17.9406562 31.4439298,17.9406562 C32.2794854,17.9406562 32.959345,18.6218437 32.959345,19.4590312 Z M21.7232281,19.4590312 C21.7232281,20.2962187 21.043462,20.9774062 20.2078129,20.9774062 C19.3721637,20.9774062 18.6923977,20.2963125 18.6923977,19.4590312 C18.6923977,18.6218437 19.3721637,17.9406562 20.2078129,17.9406562 C21.0433684,17.9406562 21.7232281,18.6218437 21.7232281,19.4590312 Z M17.2288187,19.4590312 C17.2288187,20.2962187 16.5490526,20.9774062 15.7133099,20.9774062 C14.8777544,20.9775 14.1978947,20.2963125 14.1978947,19.4590312 C14.1978947,18.6218437 14.8776608,17.9406562 15.7133099,17.9406562 C16.5489591,17.9406562 17.2288187,18.6218437 17.2288187,19.4590312 Z M4.45988304,20.19225 L12.8254503,20.19225 C13.1525614,21.4847812 14.3230877,22.4438437 15.7133099,22.4438437 C16.6095906,22.4438437 17.4139883,22.0446563 17.9606082,21.4152188 C18.5072281,22.04475 19.3116257,22.4438437 20.2078129,22.4438437 C21.5980351,22.4438437 22.768655,21.4846875 23.0956725,20.19225 L28.5562573,20.19225 C28.883462,21.4847812 30.0538947,22.4438437 31.444117,22.4438437 C32.3403041,22.4438437 33.1447953,22.0446563 33.6913216,21.4152188 C34.2379415,22.04475 35.0423392,22.4438437 35.9385263,22.4438437 C37.3287485,22.4438437 38.4991813,21.4846875 38.826386,20.19225 L43.4466433,20.19225 L43.4466433,28.4828438 L43.4465497,28.4828438 L41.8226901,28.4828438 C41.4954854,27.1903125 40.3250526,26.23125 38.9348304,26.23125 C37.5446082,26.23125 36.3740819,27.1904062 36.0469708,28.4828438 L27.5900819,28.4828438 C27.2630643,27.1903125 26.0924444,26.23125 24.7022222,26.23125 C23.8060351,26.23125 23.0015439,26.6304375 22.4550175,27.259875 C21.9083977,26.6303438 21.104,26.23125 20.2078129,26.23125 C18.8175906,26.23125 17.6470643,27.1904062 17.3199532,28.4828438 L14.1065731,28.4828438 C13.7793684,27.1903125 12.6088421,26.23125 11.2187135,26.23125 C9.8285848,26.23125 8.65787135,27.1904062 8.3308538,28.4828438 L4.45988304,28.4828438 L4.45988304,20.19225 Z M40.4502456,29.2160625 C40.4502456,30.05325 39.770386,30.7344375 38.9348304,30.7344375 C38.0992749,30.7344375 37.4194152,30.0533437 37.4194152,29.2160625 C37.4194152,28.378875 38.0992749,27.6976875 38.9348304,27.6976875 C39.7702924,27.6976875 40.4502456,28.378875 40.4502456,29.2160625 Z M26.2176374,29.2160625 C26.2176374,30.05325 25.5377778,30.7344375 24.7022222,30.7344375 C23.8665731,30.7344375 23.186807,30.0533437 23.186807,29.2160625 C23.186807,28.378875 23.8665731,27.6976875 24.7022222,27.6976875 C25.5377778,27.6976875 26.2176374,28.378875 26.2176374,29.2160625 Z M21.7232281,29.2160625 C21.7232281,30.05325 21.043462,30.7344375 20.2078129,30.7344375 C19.3721637,30.7344375 18.6923977,30.0533437 18.6923977,29.2160625 C18.6923977,28.378875 19.3721637,27.6976875 20.2078129,27.6976875 C21.0433684,27.6976875 21.7232281,28.378875 21.7232281,29.2160625 Z M12.7343158,29.2160625 C12.7343158,30.05325 12.0545497,30.7344375 11.2189006,30.7344375 C10.3832515,30.7344375 9.70348538,30.0533437 9.70348538,29.2160625 C9.70348538,28.378875 10.3832515,27.6976875 11.2189006,27.6976875 C12.0545497,27.6976875 12.7343158,28.378875 12.7343158,29.2160625 Z M43.4467368,32.5419375 L43.4464561,32.5419375 C43.4464561,33.614625 42.5755322,34.4871562 41.5050292,34.4871562 L6.40130994,34.4871562 C5.33071345,34.4871562 4.45988304,33.6145312 4.45988304,32.5419375 L4.45988304,29.9492812 L8.33104094,29.9492812 C8.65805848,31.2418125 9.82867836,32.200875 11.2189006,32.200875 C12.6091228,32.200875 13.7796491,31.2417187 14.1066667,29.9492812 L17.3200468,29.9492812 C17.6470643,31.2418125 18.8176842,32.200875 20.2079064,32.200875 C21.1040936,32.200875 21.9085848,31.8016875 22.4551111,31.17225 C23.001731,31.8017812 23.8061287,32.200875 24.7023158,32.200875 C26.092538,32.200875 27.2630643,31.2417187 27.5901754,29.9492812 L36.0470643,29.9492812 C36.3740819,31.2418125 37.5447018,32.200875 38.934924,32.200875 C40.3251462,32.200875 41.4955789,31.2417187 41.8227836,29.9492812 L43.4466433,29.9492812 L43.4466433,32.5419375 L43.4467368,32.5419375 Z" id="Shape"></path>
            </g>
        </g>
    </g>
</svg>