<?xml version="1.0" encoding="UTF-8" standalone="no"?>
<svg width="27px" height="33px" viewBox="0 0 27 33" version="1.1" xmlns="http://www.w3.org/2000/svg" xmlns:xlink="http://www.w3.org/1999/xlink">
    <defs></defs>
    <g id="-home" stroke="none" stroke-width="1" fill="none" fill-rule="evenodd">
        <g id="Mobile" transform="translate(-34.000000, -3104.000000)" fill-rule="nonzero" fill="#00C5CA">
            <g id="Group-17" transform="translate(24.000000, 3089.000000)">
                <g id="crayons" transform="translate(10.000000, 15.000000)">
                    <path d="M6.84920299,6.40863653 L6.75581865,6.40863653 L5.04324018,0.380178687 C4.97929447,0.155162131 4.77502926,0 4.54257516,0 L2.82735832,0 C2.59490423,0 2.39063901,0.155162131 2.32676274,0.380178687 L0.614114837,6.40863653 L0.5207305,6.40863653 C0.233148403,6.40863653 0,6.6434425 0,6.93306915 L0,31.2911463 C0,32.1586977 0.700764392,32.8644441 1.5621915,32.8644441 L5.80774199,32.8644441 C6.66916909,32.8644441 7.36993349,32.1586977 7.36993349,31.2911463 L7.36993349,6.93306915 C7.36993349,6.6434425 7.13678508,6.40863653 6.84920299,6.40863653 L6.84920299,6.40863653 Z M1.041461,11.9572036 L1.041461,10.9083383 L6.32847249,10.9083383 L6.32847249,11.9572036 L1.041461,11.9572036 Z M6.32847249,13.0060688 L6.32847249,26.2669419 L1.041461,26.2669419 L1.041461,13.0060688 L6.32847249,13.0060688 L6.32847249,13.0060688 Z M1.041461,27.3158771 L6.32847249,27.3158771 L6.32847249,28.3647423 L1.041461,28.3647423 L1.041461,27.3158771 Z M3.21998912,1.04886524 L4.14994436,1.04886524 L5.67256035,6.40863653 L3.78397497,6.40863653 C3.49639287,6.40863653 3.26324447,6.6434425 3.26324447,6.93306915 C3.26324447,7.22269581 3.49639287,7.45750177 3.78397497,7.45750177 L6.32847249,7.45750177 L6.32847249,9.85947309 L1.041461,9.85947309 L1.041461,7.45750177 L1.70105297,7.45750177 C1.98863507,7.45750177 2.22178347,7.22269581 2.22178347,6.93306915 C2.22178347,6.6434425 1.98863507,6.40863653 1.70105297,6.40863653 L1.69737314,6.40863653 L3.21998912,1.04886524 L3.21998912,1.04886524 Z M5.80774199,31.8155789 L1.5621915,31.8155789 C1.27502599,31.8155789 1.041461,31.5802835 1.041461,31.2911463 L1.041461,29.4136076 L6.32847249,29.4136076 L6.32847249,31.2911463 C6.32847249,31.5802835 6.0949075,31.8155789 5.80774199,31.8155789 Z" id="Shape"></path>
                    <path d="M16.675781,6.40863653 L16.5823966,6.40863653 L14.8697487,0.380178687 C14.8058725,0.155162131 14.6016072,0 14.3691531,0 L12.6539363,0 C12.4214822,0 12.217217,0.155162131 12.1533407,0.380178687 L10.4406928,6.40863653 L10.3473085,6.40863653 C10.0597264,6.40863653 9.82657798,6.6434425 9.82657798,6.93306915 L9.82657798,31.2911463 C9.82657798,32.1586977 10.5273424,32.8644441 11.3887695,32.8644441 L15.63432,32.8644441 C16.4957471,32.8644441 17.1965115,32.1586977 17.1965115,31.2911463 L17.1965115,6.93306915 C17.1965115,6.6434425 16.9633631,6.40863653 16.675781,6.40863653 L16.675781,6.40863653 Z M10.868039,11.9572036 L10.868039,10.9083383 L16.1550505,10.9083383 L16.1550505,11.9572036 L10.868039,11.9572036 Z M16.1550505,13.0060688 L16.1550505,26.2669419 L10.868039,26.2669419 L10.868039,13.0060688 L16.1550505,13.0060688 L16.1550505,13.0060688 Z M10.868039,27.3158771 L16.1550505,27.3158771 L16.1550505,28.3647423 L10.868039,28.3647423 L10.868039,27.3158771 Z M13.0465671,1.04886524 L13.9765223,1.04886524 L15.4992078,6.40863653 L13.610553,6.40863653 C13.3229709,6.40863653 13.0898225,6.6434425 13.0898225,6.93306915 C13.0898225,7.22269581 13.3229709,7.45750177 13.610553,7.45750177 L16.1550505,7.45750177 L16.1550505,9.85947309 L10.868039,9.85947309 L10.868039,7.45750177 L11.5276309,7.45750177 C11.815213,7.45750177 12.0483614,7.22269581 12.0483614,6.93306915 C12.0483614,6.6434425 11.815213,6.40863653 11.5276309,6.40863653 L11.5239511,6.40863653 L13.0465671,1.04886524 L13.0465671,1.04886524 Z M15.63432,31.8155789 L11.3887695,31.8155789 C11.101604,31.8155789 10.868039,31.5802835 10.868039,31.2911463 L10.868039,29.4136076 L16.1550505,29.4136076 L16.1550505,31.2911463 C16.1550505,31.5802835 15.9214855,31.8155789 15.63432,31.8155789 Z" id="Shape"></path>
                    <path d="M25.8881978,6.40863653 L25.7948135,6.40863653 L24.0821656,0.380178687 C24.0182893,0.155162131 23.8140241,0 23.58157,0 L21.8663532,0 C21.6338991,0 21.4296339,0.155162131 21.3656881,0.380178687 L19.6531097,6.40863653 L19.5597253,6.40863653 C19.2721432,6.40863653 19.0389948,6.6434425 19.0389948,6.93306915 L19.0389948,31.2911463 C19.0389948,32.1586977 19.7397592,32.8644441 20.6011863,32.8644441 L24.8467368,32.8644441 C25.7081639,32.8644441 26.4089283,32.1586977 26.4089283,31.2911463 L26.4089283,6.93306915 C26.4089283,6.6434425 26.1757799,6.40863653 25.8881978,6.40863653 L25.8881978,6.40863653 Z M20.0804558,11.9572036 L20.0804558,10.9083383 L25.3674673,10.9083383 L25.3674673,11.9572036 L20.0804558,11.9572036 Z M25.3674673,13.0060688 L25.3674673,26.2669419 L20.0804558,26.2669419 L20.0804558,13.0060688 L25.3674673,13.0060688 L25.3674673,13.0060688 Z M20.0804558,27.3158771 L25.3674673,27.3158771 L25.3674673,28.3647423 L20.0804558,28.3647423 L20.0804558,27.3158771 Z M22.258984,1.04886524 L23.1889392,1.04886524 L24.7116246,6.40863653 L24.7079448,6.40863653 C24.4203627,6.40863653 24.1872143,6.6434425 24.1872143,6.93306915 C24.1872143,7.22269581 24.4203627,7.45750177 24.7079448,7.45750177 L25.3675368,7.45750177 L25.3675368,9.85947309 L20.0805253,9.85947309 L20.0805253,7.45750177 L22.6250228,7.45750177 C22.9126049,7.45750177 23.1457533,7.22269581 23.1457533,6.93306915 C23.1457533,6.6434425 22.9126049,6.40863653 22.6250228,6.40863653 L20.7364374,6.40863653 L22.258984,1.04886524 L22.258984,1.04886524 Z M24.8467368,31.8155789 L20.6011863,31.8155789 C20.3140208,31.8155789 20.0804558,31.5802835 20.0804558,31.2911463 L20.0804558,29.4136076 L25.3674673,29.4136076 L25.3674673,31.2911463 C25.3674673,31.5802835 25.1339023,31.8155789 24.8467368,31.8155789 Z" id="Shape"></path>
                </g>
            </g>
        </g>
    </g>
</svg>