<?xml version="1.0" encoding="UTF-8" standalone="no"?>
<svg width="45px" height="56px" viewBox="0 0 45 56" version="1.1" xmlns="http://www.w3.org/2000/svg" xmlns:xlink="http://www.w3.org/1999/xlink">
    <defs></defs>
    <g id="-home" stroke="none" stroke-width="1" fill="none" fill-rule="evenodd">
        <g id="home---1280up" transform="translate(-910.000000, -2232.000000)" fill-rule="nonzero" fill="#5A6772">
            <g id="crayons" transform="translate(910.000000, 2232.000000)">
                <path d="M11.6708308,10.9201191 L11.5117068,10.9201191 L8.59352585,0.647812766 C8.48456433,0.264391489 8.1365027,0 7.74040808,0 L4.81773145,0 C4.42163684,0 4.0735752,0.264391489 3.964732,0.647812766 L1.04643276,10.9201191 L0.887308725,10.9201191 C0.397277693,10.9201191 0,11.3202213 0,11.8137362 L0,53.3191489 C0,54.7974298 1.19408093,56 2.66192617,56 L9.89621336,56 C11.3640586,56 12.5581395,54.7974298 12.5581395,53.3191489 L12.5581395,11.8137362 C12.5581395,11.3202213 12.1608618,10.9201191 11.6708308,10.9201191 L11.6708308,10.9201191 Z M1.77461745,20.3747064 L1.77461745,18.5874723 L10.7835221,18.5874723 L10.7835221,20.3747064 L1.77461745,20.3747064 Z M10.7835221,22.1619404 L10.7835221,44.7580596 L1.77461745,44.7580596 L1.77461745,22.1619404 L10.7835221,22.1619404 L10.7835221,22.1619404 Z M1.77461745,46.5454128 L10.7835221,46.5454128 L10.7835221,48.3326468 L1.77461745,48.3326468 L1.77461745,46.5454128 Z M5.48676223,1.78723404 L7.0713773,1.78723404 L9.66586802,10.9201191 L6.44777673,10.9201191 C5.9577457,10.9201191 5.56046801,11.3202213 5.56046801,11.8137362 C5.56046801,12.3072511 5.9577457,12.7073532 6.44777673,12.7073532 L10.7835221,12.7073532 L10.7835221,16.8002383 L1.77461745,16.8002383 L1.77461745,12.7073532 L2.89854183,12.7073532 C3.38857287,12.7073532 3.78585056,12.3072511 3.78585056,11.8137362 C3.78585056,11.3202213 3.38857287,10.9201191 2.89854183,10.9201191 L2.89227152,10.9201191 L5.48676223,1.78723404 L5.48676223,1.78723404 Z M9.89621336,54.212766 L2.66192617,54.212766 C2.17260499,54.212766 1.77461745,53.8118298 1.77461745,53.3191489 L1.77461745,50.1198809 L10.7835221,50.1198809 L10.7835221,53.3191489 C10.7835221,53.8118298 10.3855345,54.212766 9.89621336,54.212766 Z" id="Shape"></path>
                <path d="M28.4150169,10.9201191 L28.2558928,10.9201191 L25.3375936,0.647812766 C25.2287504,0.264391489 24.8806887,0 24.4845941,0 L21.5619175,0 C21.1658229,0 20.8177612,0.264391489 20.708918,0.647812766 L17.7906188,10.9201191 L17.6314948,10.9201191 C17.1414637,10.9201191 16.744186,11.3202213 16.744186,11.8137362 L16.744186,53.3191489 C16.744186,54.7974298 17.938267,56 19.4061122,56 L26.6403994,56 C28.1082447,56 29.3023256,54.7974298 29.3023256,53.3191489 L29.3023256,11.8137362 C29.3023256,11.3202213 28.9050479,10.9201191 28.4150169,10.9201191 L28.4150169,10.9201191 Z M18.5188035,20.3747064 L18.5188035,18.5874723 L27.5277081,18.5874723 L27.5277081,20.3747064 L18.5188035,20.3747064 Z M27.5277081,22.1619404 L27.5277081,44.7580596 L18.5188035,44.7580596 L18.5188035,22.1619404 L27.5277081,22.1619404 L27.5277081,22.1619404 Z M18.5188035,46.5454128 L27.5277081,46.5454128 L27.5277081,48.3326468 L18.5188035,48.3326468 L18.5188035,46.5454128 Z M22.2309483,1.78723404 L23.8155634,1.78723404 L26.4101724,10.9201191 L23.1919628,10.9201191 C22.7019317,10.9201191 22.3046541,11.3202213 22.3046541,11.8137362 C22.3046541,12.3072511 22.7019317,12.7073532 23.1919628,12.7073532 L27.5277081,12.7073532 L27.5277081,16.8002383 L18.5188035,16.8002383 L18.5188035,12.7073532 L19.6427279,12.7073532 C20.1327589,12.7073532 20.5300366,12.3072511 20.5300366,11.8137362 C20.5300366,11.3202213 20.1327589,10.9201191 19.6427279,10.9201191 L19.6364576,10.9201191 L22.2309483,1.78723404 L22.2309483,1.78723404 Z M26.6403994,54.212766 L19.4061122,54.212766 C18.916791,54.212766 18.5188035,53.8118298 18.5188035,53.3191489 L18.5188035,50.1198809 L27.5277081,50.1198809 L27.5277081,53.3191489 C27.5277081,53.8118298 27.1297206,54.212766 26.6403994,54.212766 Z" id="Shape"></path>
                <path d="M44.1126913,10.9201191 L43.9535672,10.9201191 L41.035268,0.647812766 C40.9264248,0.264391489 40.5783632,0 40.1822685,0 L37.2595919,0 C36.8634973,0 36.5154357,0.264391489 36.4064742,0.647812766 L33.4882932,10.9201191 L33.3291692,10.9201191 C32.8391382,10.9201191 32.4418605,11.3202213 32.4418605,11.8137362 L32.4418605,53.3191489 C32.4418605,54.7974298 33.6359414,56 35.1037866,56 L42.3380738,56 C43.8059191,56 45,54.7974298 45,53.3191489 L45,11.8137362 C45,11.3202213 44.6027223,10.9201191 44.1126913,10.9201191 L44.1126913,10.9201191 Z M34.2164779,20.3747064 L34.2164779,18.5874723 L43.2253826,18.5874723 L43.2253826,20.3747064 L34.2164779,20.3747064 Z M43.2253826,22.1619404 L43.2253826,44.7580596 L34.2164779,44.7580596 L34.2164779,22.1619404 L43.2253826,22.1619404 L43.2253826,22.1619404 Z M34.2164779,46.5454128 L43.2253826,46.5454128 L43.2253826,48.3326468 L34.2164779,48.3326468 L34.2164779,46.5454128 Z M37.9286227,1.78723404 L39.5132378,1.78723404 L42.1078468,10.9201191 L42.1015765,10.9201191 C41.6115454,10.9201191 41.2142677,11.3202213 41.2142677,11.8137362 C41.2142677,12.3072511 41.6115454,12.7073532 42.1015765,12.7073532 L43.2255009,12.7073532 L43.2255009,16.8002383 L34.2165962,16.8002383 L34.2165962,12.7073532 L38.5523416,12.7073532 C39.0423726,12.7073532 39.4396503,12.3072511 39.4396503,11.8137362 C39.4396503,11.3202213 39.0423726,10.9201191 38.5523416,10.9201191 L35.3342503,10.9201191 L37.9286227,1.78723404 L37.9286227,1.78723404 Z M42.3380738,54.212766 L35.1037866,54.212766 C34.6144655,54.212766 34.2164779,53.8118298 34.2164779,53.3191489 L34.2164779,50.1198809 L43.2253826,50.1198809 L43.2253826,53.3191489 C43.2253826,53.8118298 42.827395,54.212766 42.3380738,54.212766 Z" id="Shape"></path>
            </g>
        </g>
    </g>
</svg>