<?xml version="1.0" encoding="UTF-8" standalone="no"?>
<svg width="40px" height="40px" viewBox="0 0 40 40" version="1.1" xmlns="http://www.w3.org/2000/svg" xmlns:xlink="http://www.w3.org/1999/xlink">
    <defs></defs>
    <g id="-home" stroke="none" stroke-width="1" fill="none" fill-rule="evenodd">
        <g id="Mobile" transform="translate(-27.000000, -3164.000000)" fill-rule="nonzero" fill="#00C5CA">
            <g id="Group-16" transform="translate(24.000000, 3153.000000)">
                <g id="cube" transform="translate(3.000000, 11.000000)">
                    <path d="M30.6628047,37.8181818 C32.5789666,37.8181818 34.3960603,37.0621295 35.779467,35.6894011 C36.1455884,35.3261679 36.3529305,34.8372605 36.3632342,34.3129199 C36.373538,33.7885794 36.1855366,33.291381 35.8340263,32.9130494 C35.4826004,32.5347178 35.0095564,32.3204608 34.5020539,32.3098134 C33.9965784,32.3003878 33.5133151,32.4934373 33.1471937,32.8566706 C32.4749155,33.5236164 31.5925926,33.8909515 30.6627203,33.8909515 C28.683469,33.8909515 27.0732951,32.2270779 27.0732951,30.1818182 C27.0732951,28.1365584 28.683469,26.4726849 30.6627203,26.4726849 C31.5925926,26.4726849 32.4749155,26.84002 33.1471937,27.5068785 C33.5133151,27.8701118 33.9953115,28.0642085 34.5018006,28.053823 C35.0093875,28.0431756 35.4824315,27.8290058 35.8338573,27.450587 C36.1854521,27.0722554 36.3734535,26.5751442 36.3631498,26.0507164 C36.352846,25.5262886 36.1455039,25.0374685 35.7793825,24.6743225 C34.3959759,23.3015941 32.5787977,22.5454545 30.6627203,22.5454545 C29.175178,22.5454545 27.7394924,23.0027689 26.5108111,23.8680006 C26.2217145,24.0715229 26.1470545,24.4787421 26.3440928,24.7774801 C26.5410467,25.0763053 26.9352078,25.1534553 27.2242199,24.9497584 C28.2416741,24.2333284 29.4306607,23.8545604 30.6627203,23.8545604 C32.2501752,23.8545604 33.7556224,24.4810112 34.9019581,25.6185369 C35.0239986,25.7396729 35.0931689,25.9025256 35.0965472,26.0773349 C35.1000099,26.2521442 35.0373428,26.4177897 34.9201164,26.5439875 C34.80289,26.6701853 34.6452931,26.7415752 34.4761256,26.7450662 C34.3103364,26.7476844 34.1465741,26.6838873 34.0245337,26.5627514 C33.1151,25.6606029 31.921215,25.1637536 30.6626358,25.1637536 C27.9848402,25.1637536 25.8063547,27.414892 25.8063547,30.1819927 C25.8063547,32.9490934 27.9848402,35.2002319 30.6626358,35.2002319 C31.9211305,35.2002319 33.1151,34.7033826 34.0245337,33.8011468 C34.1466586,33.6801854 34.3040021,33.6153411 34.4762101,33.6189193 C34.6452931,33.6224975 34.8029744,33.6938001 34.9202008,33.8199979 C35.0373428,33.9461085 35.1000099,34.1118413 35.0965472,34.2866505 C35.0931689,34.4614598 35.024083,34.6243126 34.9019581,34.7455358 C33.7556224,35.8829742 32.2501752,36.509425 30.6627203,36.509425 C27.2863803,36.509425 24.5395832,33.6710217 24.5395832,30.18208 C24.5395832,28.9089309 24.9061269,27.6802914 25.5994349,26.6289921 C25.7964732,26.3302542 25.7218132,25.923035 25.4327167,25.7195126 C25.1436201,25.5159903 24.7495435,25.593053 24.5525896,25.891791 C23.7152823,27.1613618 23.2727273,28.6449279 23.2727273,30.18208 C23.2728117,34.3925136 26.5879204,37.8181818 30.6628047,37.8181818 L30.6628047,37.8181818 Z" id="Shape"></path>
                    <path d="M22.4730014,16.92221 C22.6569063,17.4116892 23.0161047,17.7986299 23.4845207,18.0115608 C23.7338196,18.1250075 23.9980389,18.1818182 24.2628551,18.1818182 C24.4955284,18.1818182 24.7285427,18.137923 24.9520933,18.0498709 C25.9393135,17.6612721 26.4335631,16.5229647 26.0539024,15.5124158 L21.7909251,4.16782641 C21.5081191,3.41488895 20.7885286,2.90909091 20.0004746,2.90909091 C19.2125058,2.90909091 18.4929153,3.41488895 18.2100241,4.16773915 L17.6113316,5.76122988 C17.4845506,6.09860311 17.648931,6.47734077 17.9786297,6.60701916 C18.3084989,6.73687207 18.6781843,6.56844725 18.8049652,6.23107403 L19.4036577,4.63758329 C19.4979548,4.38669141 19.7377899,4.21800479 20.0004746,4.21800479 C20.2631592,4.21800479 20.5030796,4.38660414 20.5972914,4.63758329 L24.8602687,15.9822599 C24.9867939,16.3190223 24.8220725,16.6985453 24.4928853,16.8280492 C24.3336205,16.8908812 24.1597763,16.8861688 24.0038366,16.8153082 C23.8476411,16.7443604 23.7279367,16.6152929 23.6666351,16.4521913 L21.8522267,11.6236352 C21.7573328,11.3709107 21.5201407,11.2042312 21.2557509,11.2040567 L18.7463919,11.2027477 C18.4814905,11.2027477 18.2442132,11.3695144 18.149234,11.6223262 L16.3343141,16.4521913 C16.2399318,16.703345 16.0000114,16.8721189 15.7372415,16.8721189 C15.6591437,16.8721189 15.5820691,16.8573708 15.5079785,16.8281365 C15.3485432,16.7653044 15.2225296,16.6428692 15.1532136,16.4830838 C15.0838976,16.3233856 15.0793788,16.145536 15.1407657,15.9823472 L17.8868052,8.6746301 C18.0135861,8.33725687 17.8492057,7.95860647 17.519507,7.82884083 C17.1895526,7.69890065 16.8198672,7.86741273 16.6931715,8.20478596 L13.947132,15.512503 C13.7631419,16.0019822 13.7764424,16.5356183 13.9844757,17.0148873 C14.1925943,17.494069 14.5706351,17.8617238 15.0486854,18.0498709 C15.2697634,18.1370503 15.5014988,18.1812073 15.7372415,18.1812073 C16.5252955,18.1812073 17.2449713,17.6752347 17.5279477,16.92221 L19.1852228,12.5121851 L20.8161527,12.5129705 L22.4730014,16.92221 L22.4730014,16.92221 Z" id="Shape"></path>
                    <path d="M19.4200182,9.45454545 C19.4202906,9.45454545 19.8530722,9.45435788 19.8530722,9.45435788 C20.0213081,9.45429536 20.1787142,9.3781418 20.2740024,9.25078154 C20.3691544,9.12348381 20.3899966,8.96123546 20.3295815,8.8170564 L20.1131907,8.30061273 C20.0373143,8.11954483 19.8478276,8 19.636409,8 C19.4249903,8 19.2355036,8.11948231 19.1596272,8.30061273 L18.9431683,8.81724397 C18.8826851,8.96148556 18.9035954,9.12379642 18.9988836,9.25109416 C19.0941719,9.3783919 19.2517823,9.45454545 19.4200182,9.45454545 L19.4200182,9.45454545 Z" id="Shape"></path>
                    <path d="M16,27.3448436 C16,24.6984727 14.0654545,22.5454545 11.687596,22.5454545 L6.90909091,22.5454545 C5.90658586,22.5454545 5.09090909,23.4263855 5.09090909,24.5090909 C5.09090909,24.8706618 5.36218182,25.1636364 5.6969697,25.1636364 C6.03175758,25.1636364 6.3030303,24.8706618 6.3030303,24.5090909 C6.3030303,24.1481309 6.57486869,23.8545455 6.90909091,23.8545455 L11.687596,23.8545455 C13.3970909,23.8545455 14.7878788,25.4202182 14.7878788,27.3448436 C14.7878788,28.2392145 14.4862222,29.0904727 13.9382626,29.7417018 C13.7282424,29.9913018 13.7282424,30.3724218 13.9381818,30.6220218 C14.4860606,31.2734255 14.7878788,32.1249455 14.7878788,33.0194909 C14.7878788,34.94368 13.3970909,36.5090909 11.687596,36.5090909 L6.90909091,36.5090909 C6.57486869,36.5090909 6.3030303,36.2155055 6.3030303,35.8545455 L6.3030303,27.1272727 C6.3030303,26.7657018 6.03175758,26.4727273 5.6969697,26.4727273 C5.36218182,26.4727273 5.09090909,26.7657018 5.09090909,27.1272727 L5.09090909,35.8545455 C5.09090909,36.9372509 5.90658586,37.8181818 6.90909091,37.8181818 L11.687596,37.8181818 C14.0654545,37.8181818 16,35.6655127 16,33.0194909 C16,31.9905455 15.7061818,31.00192 15.1641212,30.1819055 C15.706101,29.3621527 16,28.3736145 16,27.3448436 Z" id="Shape"></path>
                    <path d="M7.92727273,29.0909091 L11.6768582,29.0909091 C11.6938764,29.0909091 11.7109818,29.0902112 11.7279127,29.0889899 C11.7447564,29.0875941 11.7618618,29.0870707 11.7789673,29.0870707 C12.9033891,29.0870707 13.8181818,28.1093286 13.8181818,26.9075643 C13.8181818,25.7053637 12.9033891,24.7272727 11.7789673,24.7272727 L7.92727273,24.7272727 C7.56570182,24.7272727 7.27272727,25.0201243 7.27272727,25.3815434 L7.27272727,28.4367257 C7.27272727,28.7980575 7.56570182,29.0909091 7.92727273,29.0909091 L7.92727273,29.0909091 Z M8.58181818,26.0357268 L11.7789673,26.0357268 C12.1815564,26.0357268 12.5090909,26.4268062 12.5090909,26.907477 C12.5090909,27.3877989 12.1815564,27.7784421 11.7789673,27.7784421 C11.7371636,27.7784421 11.6951855,27.7797507 11.6539927,27.7823678 L8.58181818,27.7823678 L8.58181818,26.0357268 L8.58181818,26.0357268 Z" id="Shape"></path>
                    <path d="M7.27272727,34.2542442 C7.27272727,34.6159815 7.56570182,34.9090909 7.92727273,34.9090909 L11.7789673,34.9090909 C12.9033891,34.9090909 13.8181818,33.930488 13.8181818,32.7275783 C13.8181818,31.5244067 12.9033891,30.5454545 11.7789673,30.5454545 L7.92727273,30.5454545 C7.56570182,30.5454545 7.27272727,30.8385639 7.27272727,31.2003012 L7.27272727,34.2542442 L7.27272727,34.2542442 Z M8.58181818,31.8550606 L11.7789673,31.8550606 C12.1815564,31.8550606 12.5090909,32.246397 12.5090909,32.727491 C12.5090909,33.2082358 12.1815564,33.5993102 11.7789673,33.5993102 L8.58181818,33.5993102 L8.58181818,31.8550606 L8.58181818,31.8550606 Z" id="Shape"></path>
                    <path d="M39.3617021,19.3910808 L30.3191489,19.3910808 L30.3191489,0.637389254 C30.3191489,0.28529543 30.0334468,0 29.6808511,0 L10.3191489,0 C9.96655319,0 9.68085106,0.28529543 9.68085106,0.637389254 L9.68085106,19.3910808 L0.638297872,19.3910808 C0.285702128,19.3910808 0,19.6763762 0,20.0284701 L0,39.3626107 C0,39.7147046 0.285702128,40 0.638297872,40 L39.3617021,40 C39.7142979,40 40,39.7147046 40,39.3626107 L40,20.0284701 C40,19.6763762 39.7142979,19.3910808 39.3617021,19.3910808 L39.3617021,19.3910808 Z M10.9574468,1.27477851 L29.0425532,1.27477851 L29.0425532,19.3910808 L10.9574468,19.3910808 L10.9574468,1.27477851 Z M1.27659574,20.6658593 L19.3617021,20.6658593 L19.3617021,38.7252215 L1.27659574,38.7252215 L1.27659574,20.6658593 L1.27659574,20.6658593 Z M38.7234043,38.7252215 L20.6382979,38.7252215 L20.6382979,20.6658593 L38.7234043,20.6658593 L38.7234043,38.7252215 Z" id="Shape"></path>
                </g>
            </g>
        </g>
    </g>
</svg>