<?xml version="1.0" encoding="UTF-8" standalone="no"?>
<svg width="56px" height="56px" viewBox="0 0 56 56" version="1.1" xmlns="http://www.w3.org/2000/svg" xmlns:xlink="http://www.w3.org/1999/xlink">
    <defs></defs>
    <g id="-home" stroke="none" stroke-width="1" fill="none" fill-rule="evenodd">
        <g id="home---1280up" transform="translate(-1110.000000, -2232.000000)" fill-rule="nonzero" fill="#5A6772">
            <g id="cube" transform="translate(1110.000000, 2232.000000)">
                <path d="M42.9279266,52.9454545 C45.6105532,52.9454545 48.1544844,51.8869814 50.0912538,49.9651616 C50.6038237,49.456635 50.8941026,48.7721647 50.9085279,48.0380879 C50.9229532,47.3040112 50.6597512,46.6079334 50.1676368,46.0782692 C49.6756406,45.5486049 49.013379,45.2486451 48.3028755,45.2337388 C47.5952098,45.220543 46.9186411,45.4908123 46.4060712,45.9993388 C45.4648817,46.9330629 44.2296296,47.4473321 42.9278084,47.4473321 C40.1568566,47.4473321 37.9026132,45.1179091 37.9026132,42.2545455 C37.9026132,39.3911818 40.1568566,37.0617588 42.9278084,37.0617588 C44.2296296,37.0617588 45.4648817,37.576028 46.4060712,38.5096299 C46.9186411,39.0181565 47.5934362,39.2898919 48.3025208,39.2753521 C49.0131425,39.2604458 49.6754041,38.9606082 50.1674003,38.4308218 C50.6596329,37.9011575 50.9228349,37.2052019 50.9084097,36.471003 C50.8939844,35.7368041 50.6037055,35.0524559 50.0911356,34.5440515 C48.1543662,32.6222317 45.6103168,31.5636364 42.9278084,31.5636364 C40.8452493,31.5636364 38.8352894,32.2038764 37.1151355,33.4152008 C36.7104004,33.7001321 36.6058763,34.2702389 36.88173,34.6884721 C37.1574654,35.1068274 37.7092909,35.2148374 38.1139078,34.9296617 C39.5383438,33.9266597 41.2029249,33.3963846 42.9278084,33.3963846 C45.1502453,33.3963846 47.2578714,34.2734157 48.8627414,35.8659517 C49.033598,36.035542 49.1304365,36.2635359 49.1351661,36.5082689 C49.1400139,36.7530019 49.0522799,36.9849056 48.8881629,37.1615825 C48.724046,37.3382595 48.5034103,37.4382053 48.2665758,37.4430926 C48.0344709,37.4467581 47.8052038,37.3574422 47.6343472,37.1878519 C46.36114,35.924844 44.689701,35.229255 42.9276902,35.229255 C39.1787763,35.229255 36.1288966,38.3808488 36.1288966,42.2547898 C36.1288966,46.1287308 39.1787763,49.2803247 42.9276902,49.2803247 C44.6895827,49.2803247 46.36114,48.5847356 47.6343472,47.3216055 C47.805322,47.1522596 48.025603,47.0614775 48.2666941,47.066487 C48.5034103,47.0714965 48.7241642,47.1713202 48.8882812,47.3479971 C49.0522799,47.5245519 49.1400139,47.7565778 49.1351661,48.0013108 C49.1304365,48.2460437 49.0337162,48.4740376 48.8627414,48.6437501 C47.2578714,50.2361639 45.1502453,51.1131951 42.9278084,51.1131951 C38.2009324,51.1131951 34.3554165,47.1394304 34.3554165,42.254912 C34.3554165,40.4725033 34.8685776,38.752408 35.8392089,37.280589 C36.1150625,36.8623558 36.0105385,36.292249 35.6058033,36.0073177 C35.2010682,35.7223864 34.6493609,35.8302742 34.3736254,36.2485074 C33.2013952,38.0259066 32.5818182,40.102899 32.5818182,42.254912 C32.5819364,48.149519 37.2230885,52.9454545 42.9279266,52.9454545 L42.9279266,52.9454545 Z" id="Shape"></path>
                <path d="M31.462202,23.691094 C31.7196688,24.3763648 32.2225466,24.9180819 32.878329,25.2161851 C33.2273474,25.3750105 33.5972545,25.4545455 33.9679971,25.4545455 C34.2937397,25.4545455 34.6199598,25.3930922 34.9329306,25.2698192 C36.315039,24.7257809 37.0069884,23.1321505 36.4754633,21.7173821 L30.5072951,5.83495698 C30.1113668,4.78084453 29.10394,4.07272727 28.0006644,4.07272727 C26.8975082,4.07272727 25.8900814,4.78084453 25.4940337,5.83483481 L24.6558642,8.06572183 C24.4783709,8.53804435 24.7085034,9.06827708 25.1700816,9.24982682 C25.6318984,9.4316209 26.149458,9.19582616 26.3269513,8.72350364 L27.1651208,6.49261661 C27.2971367,6.14136797 27.6329059,5.90520671 28.0006644,5.90520671 C28.3684229,5.90520671 28.7043114,6.1412458 28.836208,6.49261661 L34.8043762,22.3751639 C34.9815115,22.8466312 34.7509014,23.3779635 34.2900395,23.5592689 C34.0670687,23.6472337 33.8236868,23.6406364 33.6053712,23.5414315 C33.3866975,23.4421045 33.2191114,23.26141 33.1332891,23.0330679 L30.5931173,16.2730892 C30.4602659,15.9192749 30.128197,15.6859237 29.7580512,15.6856793 L26.2449487,15.6838467 C25.8740867,15.6838467 25.5418984,15.9173202 25.4089277,16.2712566 L22.8680397,23.0330679 C22.7359045,23.384683 22.4000159,23.6209665 22.0321381,23.6209665 C21.9228012,23.6209665 21.8148967,23.6003191 21.71117,23.559391 C21.4879605,23.4714262 21.3115414,23.3000168 21.214499,23.0763173 C21.1174566,22.8527399 21.1111303,22.6037504 21.197072,22.3752861 L25.0415272,12.1444821 C25.2190205,11.6721596 24.988888,11.1420491 24.5273098,10.9603772 C24.0653736,10.7784609 23.5478141,11.0143778 23.3704401,11.4867003 L19.5259848,21.7175043 C19.2683987,22.4027751 19.2870194,23.1498657 19.578266,23.8208422 C19.869632,24.4916966 20.3988891,25.0064133 21.0681595,25.2698192 C21.3776687,25.3918705 21.7020984,25.4536902 22.0321381,25.4536902 C23.1354136,25.4536902 24.1429598,24.7453286 24.5391268,23.691094 L26.8593119,17.5170592 L29.1426137,17.5181588 L31.462202,23.691094 L31.462202,23.691094 Z" id="Shape"></path>
                <path d="M27.1880254,13.2363636 C27.1884068,13.2363636 27.7943011,13.236101 27.7943011,13.236101 C28.0298313,13.2360135 28.2501998,13.1293985 28.3836034,12.9510942 C28.5168162,12.7728773 28.5459952,12.5457296 28.4614141,12.343879 L28.158467,11.6208578 C28.05224,11.3673628 27.7869587,11.2 27.4909725,11.2 C27.1949864,11.2 26.9297051,11.3672752 26.8234781,11.6208578 L26.5204356,12.3441416 C26.4357592,12.5460798 26.4650336,12.773315 26.5984371,12.9515318 C26.7318406,13.1297487 26.9524952,13.2363636 27.1880254,13.2363636 L27.1880254,13.2363636 Z" id="Shape"></path>
                <path d="M22.4,38.2827811 C22.4,34.5778618 19.6916364,31.5636364 16.3626343,31.5636364 L9.67272727,31.5636364 C8.2692202,31.5636364 7.12727273,32.7969396 7.12727273,34.3127273 C7.12727273,34.8189265 7.50705455,35.2290909 7.97575758,35.2290909 C8.44446061,35.2290909 8.82424242,34.8189265 8.82424242,34.3127273 C8.82424242,33.8073833 9.20481616,33.3963636 9.67272727,33.3963636 L16.3626343,33.3963636 C18.7559273,33.3963636 20.7030303,35.5883055 20.7030303,38.2827811 C20.7030303,39.5349004 20.2807111,40.7266618 19.5135677,41.6383825 C19.2195394,41.9878225 19.2195394,42.5213905 19.5134545,42.8708305 C20.2804848,43.7827956 20.7030303,44.9749236 20.7030303,46.2272873 C20.7030303,48.921152 18.7559273,51.1127273 16.3626343,51.1127273 L9.67272727,51.1127273 C9.20481616,51.1127273 8.82424242,50.7017076 8.82424242,50.1963636 L8.82424242,37.9781818 C8.82424242,37.4719825 8.44446061,37.0618182 7.97575758,37.0618182 C7.50705455,37.0618182 7.12727273,37.4719825 7.12727273,37.9781818 L7.12727273,50.1963636 C7.12727273,51.7121513 8.2692202,52.9454545 9.67272727,52.9454545 L16.3626343,52.9454545 C19.6916364,52.9454545 22.4,49.9317178 22.4,46.2272873 C22.4,44.7867636 21.9886545,43.402688 21.2297697,42.2546676 C21.9885414,41.1070138 22.4,39.7230604 22.4,38.2827811 Z" id="Shape"></path>
                <path d="M11.0981818,40.7272727 L16.3476015,40.7272727 C16.3714269,40.7272727 16.3953745,40.7262957 16.4190778,40.7245859 C16.4426589,40.7226318 16.4666065,40.721899 16.4905542,40.721899 C18.0647447,40.721899 19.3454545,39.3530601 19.3454545,37.67059 C19.3454545,35.9875092 18.0647447,34.6181818 16.4905542,34.6181818 L11.0981818,34.6181818 C10.5919825,34.6181818 10.1818182,35.028174 10.1818182,35.5341607 L10.1818182,39.8114159 C10.1818182,40.3172806 10.5919825,40.7272727 11.0981818,40.7272727 L11.0981818,40.7272727 Z M12.0145455,36.4500175 L16.4905542,36.4500175 C17.0541789,36.4500175 17.5127273,36.9975287 17.5127273,37.6704679 C17.5127273,38.3429185 17.0541789,38.889819 16.4905542,38.889819 C16.4320291,38.889819 16.3732596,38.891651 16.3155898,38.8953149 L12.0145455,38.8953149 L12.0145455,36.4500175 L12.0145455,36.4500175 Z" id="Shape"></path>
                <path d="M10.1818182,47.9559419 C10.1818182,48.4623741 10.5919825,48.8727273 11.0981818,48.8727273 L16.4905542,48.8727273 C18.0647447,48.8727273 19.3454545,47.5026832 19.3454545,45.8186097 C19.3454545,44.1341694 18.0647447,42.7636364 16.4905542,42.7636364 L11.0981818,42.7636364 C10.5919825,42.7636364 10.1818182,43.1739895 10.1818182,43.6804217 L10.1818182,47.9559419 L10.1818182,47.9559419 Z M12.0145455,44.5970848 L16.4905542,44.5970848 C17.0541789,44.5970848 17.5127273,45.1449558 17.5127273,45.8184874 C17.5127273,46.4915301 17.0541789,47.0390343 16.4905542,47.0390343 L12.0145455,47.0390343 L12.0145455,44.5970848 L12.0145455,44.5970848 Z" id="Shape"></path>
                <path d="M55.106383,27.1475131 L42.4468085,27.1475131 L42.4468085,0.892344955 C42.4468085,0.399413602 42.0468255,0 41.5531915,0 L14.4468085,0 C13.9531745,0 13.5531915,0.399413602 13.5531915,0.892344955 L13.5531915,27.1475131 L0.893617021,27.1475131 C0.399982979,27.1475131 0,27.5469267 0,28.0398581 L0,55.107655 C0,55.6005864 0.399982979,56 0.893617021,56 L55.106383,56 C55.600017,56 56,55.6005864 56,55.107655 L56,28.0398581 C56,27.5469267 55.600017,27.1475131 55.106383,27.1475131 L55.106383,27.1475131 Z M15.3404255,1.78468991 L40.6595745,1.78468991 L40.6595745,27.1475131 L15.3404255,27.1475131 L15.3404255,1.78468991 Z M1.78723404,28.932203 L27.106383,28.932203 L27.106383,54.2153101 L1.78723404,54.2153101 L1.78723404,28.932203 L1.78723404,28.932203 Z M54.212766,54.2153101 L28.893617,54.2153101 L28.893617,28.932203 L54.212766,28.932203 L54.212766,54.2153101 Z" id="Shape"></path>
            </g>
        </g>
    </g>
</svg>