<svg width="192" height="200" viewBox="0 0 192 200" fill="none" xmlns="http://www.w3.org/2000/svg">
<path d="M0 4C0 1.79086 1.79086 0 4 0H192V200H4C1.79086 200 0 198.209 0 196V4Z" fill="white"/>
<circle cx="45" cy="50.72" r="5.72" fill="#0066CC"/>
<path d="M32 66C32 61.5817 35.5817 58 40 58H50C54.4183 58 58 61.5817 58 66V74H32V66Z" fill="#0066CC"/>
<rect x="75" y="50" width="42" height="24" rx="2" fill="#00DEDB"/>
<rect x="126" y="90" width="42" height="24" rx="2" fill="#0066CC" fill-opacity="0.75"/>
<rect x="117" y="154" width="42" height="24" rx="2" transform="rotate(-180 117 154)" fill="#00DEDB"/>
<rect x="127" y="50" width="41" height="24" rx="2" fill="#00DEDB"/>
<rect x="75" y="90" width="42" height="24" rx="2" fill="#0066CC"/>
<rect x="65" y="154" width="41" height="24" rx="2" transform="rotate(-180 65 154)" fill="#0066CC"/>
<rect x="24" y="90" width="41" height="24" rx="2" fill="#0066CC" fill-opacity="0.5"/>
<line x1="65" y1="101.5" x2="75" y2="101.5" stroke="black"/>
<line x1="117" y1="61.5" x2="127" y2="61.5" stroke="black"/>
<line x1="117" y1="101.5" x2="127" y2="101.5" stroke="black"/>
<line x1="75" y1="142.5" x2="65" y2="142.5" stroke="black"/>
<line x1="147.5" y1="73" x2="147.5" y2="90" stroke="black"/>
<line x1="45.5" y1="114" x2="45.5" y2="131" stroke="black"/>
</svg>
