<svg width="192" height="200" viewBox="0 0 192 200" fill="none" xmlns="http://www.w3.org/2000/svg">
<path d="M0 4C0 1.79086 1.79086 0 4 0H192V200H4C1.79086 200 0 198.209 0 196V4Z" fill="white"/>
<rect x="126" y="87.9999" width="42" height="24" rx="2" fill="#0066CC"/>
<rect x="66" y="112" width="42" height="24" rx="2" transform="rotate(-180 66 112)" fill="#00DEDB"/>
<rect x="168" y="152" width="42" height="24" rx="2" transform="rotate(-180 168 152)" fill="#0066CC" fill-opacity="0.75"/>
<rect x="75" y="48" width="42" height="24" rx="2" fill="#0066CC"/>
<rect x="65" y="152" width="41" height="24" rx="2" transform="rotate(-180 65 152)" fill="#00DEDB"/>
<rect x="76" y="87.9999" width="41" height="24" rx="2" fill="#0066CC" fill-opacity="0.5"/>
<line x1="65" y1="99.4999" x2="75" y2="99.4999" stroke="black"/>
<line x1="117" y1="99.4999" x2="127" y2="99.4999" stroke="black"/>
<line x1="95.5" y1="70.9999" x2="95.5" y2="87.9999" stroke="black"/>
<line x1="45.5" y1="112" x2="45.5" y2="129" stroke="black"/>
<line x1="147.5" y1="112" x2="147.5" y2="129" stroke="black"/>
</svg>
