<svg width="192" height="200" viewBox="0 0 192 200" fill="none" xmlns="http://www.w3.org/2000/svg">
<path d="M0 4C0 1.79086 1.79086 0 4 0H192V200H4C1.79086 200 0 198.209 0 196V4Z" fill="white"/>
<rect x="75" y="41" width="42" height="24" rx="2" fill="#0066CC" fill-opacity="0.75"/>
<rect x="75" y="67" width="42" height="24" rx="2" fill="#0066CC"/>
<rect x="127" y="41" width="41" height="24" rx="2" fill="#0066CC"/>
<rect x="84.4053" y="129.459" width="41.027" height="24.0811" rx="2" transform="rotate(-30 84.4053 129.459)" fill="#0066CC"/>
<rect x="127" y="67" width="41" height="24" rx="2" fill="#00DEDB"/>
<rect x="127" y="93" width="41" height="24" rx="2" fill="#0066CC" fill-opacity="0.8"/>
<rect x="127" y="134" width="41" height="24" rx="2" fill="#0066CC" fill-opacity="0.75"/>
<rect x="24" y="41" width="41" height="24" rx="2" fill="#0066CC" fill-opacity="0.5"/>
<rect x="24" y="67" width="41" height="24" rx="2" fill="#0066CC"/>
<rect x="24" y="93" width="41" height="24" rx="2" fill="#00DEDB"/>
</svg>
