<?xml version="1.0" encoding="utf-8"?>
<!-- Generator: Adobe Illustrator 20.1.0, SVG Export Plug-In . SVG Version: 6.00 Build 0)  -->
<svg version="1.1" id="Livello_1" xmlns="http://www.w3.org/2000/svg" xmlns:xlink="http://www.w3.org/1999/xlink" x="0px" y="0px"
	 viewBox="0 0 48 27" style="enable-background:new 0 0 48 27;" xml:space="preserve">
<style type="text/css">
	.st0{fill:none;stroke:#00C5CA;}
</style>
<path class="st0" d="M12,8.9l4.8,4.8l-0.4,0.4l-0.4-0.4l0.4-0.4l0.4,0.4l-0.4,0.4l-0.4-0.4l5.2-5.2v6.3l0,0.2l-3.7,10.1l2.2,0.8
	l4-11l4,11l2.2-0.8l-3.4-9.4l0-0.2V8.9l4.8,4.8l-0.4,0.4l-0.4-0.4l0.4-0.4l0.4,0.4l-0.4,0.4l-0.4-0.4L36,8.6v6.3l0,0.2l-3.7,10.1
	l2.2,0.8l4-11l4,11l2.2-0.8l-3.4-9.4l0-0.2V8.9l4.5,4.5l1.2-1.2l-5.4-5.7H39l1.1-0.9c0.7-0.5,1.1-1.3,1.1-2.2c0-1.6-1.3-2.8-2.8-2.8
	s-2.8,1.3-2.8,2.8c0,0.9,0.4,1.7,1.1,2.2l1.1,0.9h-2.2l-4.5,4.5l-4.3-4.5h-2.5l1.1-0.9c0.7-0.5,1.1-1.3,1.1-2.2
	c0-1.6-1.3-2.8-2.8-2.8S21,1.8,21,3.3c0,0.9,0.4,1.7,1.1,2.2l1.1,0.9h-2.2l-4.5,4.5l-4.3-4.5H9.8L11,5.5C11.6,5,12,4.2,12,3.3
	c0-1.6-1.3-2.8-2.8-2.8S6.4,1.8,6.4,3.3c0,0.9,0.4,1.7,1.1,2.2l1.1,0.9H6.5l-5.8,5.7l1.2,1.2l4.8-4.8v6.3l0,0.2L3.1,25.1l2.2,0.8
	l4-11l4,11l2.2-0.8l-3.4-9.4l0-0.2V8.9z"/>
</svg>
