<?xml version="1.0" encoding="UTF-8" standalone="no"?>
<svg
   xmlns:dc="http://purl.org/dc/elements/1.1/"
   xmlns:cc="http://creativecommons.org/ns#"
   xmlns:rdf="http://www.w3.org/1999/02/22-rdf-syntax-ns#"
   xmlns:svg="http://www.w3.org/2000/svg"
   xmlns="http://www.w3.org/2000/svg"
   height="47.686069"
   width="85.510712"
   xml:space="preserve"
   viewBox="0 0 85.510712 47.686069"
   y="0px"
   x="0px"
   id="Livello_1"
   version="1.1"><metadata
     id="metadata11"><rdf:RDF><cc:Work
         rdf:about=""><dc:format>image/svg+xml</dc:format><dc:type
           rdf:resource="http://purl.org/dc/dcmitype/StillImage" /><dc:title></dc:title></cc:Work></rdf:RDF></metadata><defs
     id="defs9" /><style
     id="style3"
     type="text/css">
	.st0{fill:none;stroke:#5A6772;stroke-width:2;}
</style><path
     style="fill:none;stroke:#5a6772;stroke-width:2"
     id="path5"
     d="m 21.514214,15.7 8.8,8.8 -0.7,0.7 -0.7,-0.7 0.8,-0.8 0.8,0.8 -0.7,0.7 -0.8,-0.7 9.5,-9.5 0,11.8 -6.6,18.1 3.8,1.4 7.2,-19.9 7.2,19.9 3.8,-1.4 -6.2,-16.9 0,-12.3 8.8,8.8 -0.7,0.7 -0.7,-0.7 0.8,-0.8 0.8,0.8 -0.7,0.7 -0.7,-0.7 9.5,-9.5 0,11.8 -6.6,18.1 3.8,1.4 7,-19.8 7.2,19.9 3.8,-1.4 -6.1,-17 0,-12.3 8.1,8.1 2.1,-2.1 -9.6,-10.1 -4.8,0 2.3,-1.8 c 1.2,-0.9 1.9,-2.3 1.9,-3.9 0,-2.7 -2.2,-4.9 -4.9,-4.9 -2.8,0 -5,2.2 -5,4.9 0,1.5 0.7,3 1.9,3.9 l 2.3,1.8 -4.2,0 -8.1,8.1 -7.7,-8.1 -4.8,0 2.3,-1.8 c 1.2,-0.9 1.9,-2.3 1.9,-3.9 0,-2.7 -2.2,-4.9 -4.9,-4.9 -2.7,0 -4.9,2.2 -4.9,4.9 0,1.5 0.7,3 1.9,3.9 l 2.3,1.8 -4.2,0 -8.1,8.1 -7.7,-8.1 -4.8,0 2.3,-1.8 c 1.2,-0.9 1.9,-2.3 1.9,-3.9 0,-2.7 -2.2,-4.9 -4.9,-4.9 -2.7,0 -4.9,2.2 -4.9,4.9 0,1.5 0.7,3 1.9,3.9 l 2.3,1.8 -4.2,0 -10.2000004,10.2 2.1,2.1 8.8000004,-8.8 0,11.8 -6.7000004,18 3.8,1.4 7.2000004,-19.9 7.2,19.9 3.8,-1.4 -6.1,-16.9 0,-12.3 z"
     class="st0" /></svg>