<?xml version="1.0" encoding="UTF-8" standalone="no"?>
<svg width="86px" height="48px" viewBox="0 0 86 48" version="1.1" xmlns="http://www.w3.org/2000/svg" xmlns:xlink="http://www.w3.org/1999/xlink">
    <defs></defs>
    <g id="-home" stroke="none" stroke-width="1" fill="none" fill-rule="evenodd">
        <g id="home---1280up" transform="translate(-679.000000, -2236.000000)" stroke="#5A6772" stroke-width="2">
            <g id="Group-9" transform="translate(679.000000, 2236.000000)">
                <path d="M21.4585219,15.7243984 L30.2657011,24.5315776 L29.5585943,25.2386844 L28.8514875,24.5315776 L29.6191956,23.7638696 L30.3869036,24.5315776 L29.6797968,25.2386844 L28.97269,24.5315776 L38.4308698,15.0733979 L38.4308698,26.8692814 L31.8502564,44.9493681 L35.6090021,46.3174396 L42.8347442,26.4648765 L50.0604862,46.3174396 L53.8192319,44.9493681 L47.6601307,28.0273766 L47.6601307,15.7243984 L56.46731,24.5315776 L55.7602032,25.2386844 L55.0530964,24.5315776 L55.8208044,23.7638696 L56.5885125,24.5315776 L55.8814057,25.2386844 L55.1742989,24.5315776 L64.6324786,15.0733979 L64.6324786,26.8692814 L58.0518653,44.9493681 L61.810611,46.3174396 L69.036353,26.4648765 L76.2620951,46.3174396 L80.0208408,44.9493681 L73.8617396,28.0273766 L73.8617396,15.7243984 L81.961812,23.8244709 L84.0443047,21.7419782 L74.4318955,11.6054131 L69.6613591,11.6054131 L71.9588743,9.81640285 C73.1515984,8.88766227 73.8617396,7.46673868 73.8617396,5.92655438 C73.8617396,3.20569353 71.6560461,1 68.9351852,1 C66.2143243,1 64.0086308,3.20569353 64.0086308,5.92655438 C64.0086308,7.46673868 64.718772,8.88766227 65.9114961,9.81640285 L68.2090113,11.6054131 L64.0447524,11.6054131 L55.9014719,19.6949011 L48.2302867,11.6054131 L43.4597503,11.6054131 L45.7572654,9.81640285 C46.9499895,8.88766227 47.6601307,7.46673868 47.6601307,5.92655438 C47.6601307,3.20569353 45.4544372,1 42.7335763,1 C40.0127155,1 37.807022,3.20569353 37.807022,5.92655438 C37.807022,7.46673868 38.5171632,8.88766227 39.7098872,9.81640285 L42.0074024,11.6054131 L37.8431435,11.6054131 L29.6998631,19.6949011 L22.0286778,11.6054131 L17.2581414,11.6054131 L19.5556566,9.81640285 C20.7483807,8.88766227 21.4585219,7.46673868 21.4585219,5.92655438 C21.4585219,3.20569353 19.2528283,1 16.5319675,1 C13.8111066,1 11.6054131,3.20569353 11.6054131,5.92655438 C11.6054131,7.46673868 12.3155543,8.88766227 13.5082784,9.81640285 L15.8057936,11.6054131 L11.6415346,11.6054131 L1.41656067,21.7628436 L3.47818796,23.8244709 L12.2292609,15.0733979 L12.2292609,26.8692814 L5.64864757,44.9493681 L9.40739328,46.3174396 L16.6331353,26.4648765 L23.8588774,46.3174396 L27.6176231,44.9493681 L21.4585219,28.0273766 L21.4585219,15.7243984 Z M29.7339397,44.9162916 L36.4308698,26.5166275 L36.4308698,19.901825 L29.6797968,26.652898 L29.6191956,26.5922967 L29.5585943,26.652898 L23.4585219,20.5528255 L23.4585219,27.6747227 L29.7339397,44.9162916 Z M48.6579342,9.51760953 C48.6400913,9.54701003 48.6220282,9.57627869 48.6037463,9.60541311 L48.6601307,9.60541311 L48.8227605,9.60541311 L48.6579342,9.51760953 Z M55.9355486,44.9162916 L62.6324786,26.5166275 L62.6324786,19.901825 L55.8814057,26.652898 L55.8208044,26.5922967 L55.7602032,26.652898 L49.6601307,20.5528255 L49.6601307,27.6747227 L55.9355486,44.9162916 Z" id="Combined-Shape"></path>
            </g>
        </g>
    </g>
</svg>