<?xml version="1.0" encoding="UTF-8" standalone="no"?>
<svg width="48px" height="27px" viewBox="0 0 48 27" version="1.1" xmlns="http://www.w3.org/2000/svg" xmlns:xlink="http://www.w3.org/1999/xlink">
    <defs></defs>
    <g id="-home" stroke="none" stroke-width="1" fill="none" fill-rule="evenodd">
        <g id="Mobile" transform="translate(-23.000000, -3044.000000)" stroke="#00C5CA">
            <g id="Group-18" transform="translate(23.000000, 3025.000000)">
                <g id="Group-8" transform="translate(0.000000, 14.000000)">
                    <g id="Group-9" transform="translate(0.000000, 5.000000)">
                        <path d="M12.034663,8.91650637 L16.8509444,13.7327878 L16.497391,14.0863412 L16.1438376,13.7327878 L16.5312141,13.3454114 L16.9185906,13.7327878 L16.5650372,14.0863412 L16.2114838,13.7327878 L21.3911049,8.55316669 L21.3911049,14.8980057 L21.3609512,15.0690158 L17.7019254,25.1221066 L19.9090147,25.9254214 L23.9071424,14.9406559 L27.9052701,25.9254214 L30.1123594,25.1221066 L26.6885901,15.7153777 L26.6584364,15.5443676 L26.6584364,8.91650637 L31.4747179,13.7327878 L31.1211645,14.0863412 L30.7676111,13.7327878 L31.1549875,13.3454114 L31.542364,13.7327878 L31.1888106,14.0863412 L30.8352572,13.7327878 L36.0148784,8.55316669 L36.0148784,14.8980057 L35.9847247,15.0690158 L32.3256988,25.1221066 L34.5327882,25.9254214 L38.5309158,14.9406559 L42.5290435,25.9254214 L44.7361329,25.1221066 L41.3123635,15.7153777 L41.2822098,15.5443676 L41.2822098,8.91650637 L45.7449379,13.3792344 L46.988354,12.1358184 L41.5672878,6.41914639 L39.0490013,6.41914639 L40.1977589,5.52464127 C40.8774442,4.99538955 41.2822098,4.18549278 41.2822098,3.30775828 C41.2822098,1.7570762 40.0251336,0.5 38.4744516,0.5 C36.9237695,0.5 35.6666933,1.7570762 35.6666933,3.30775828 C35.6666933,4.18549278 36.0714589,4.99538955 36.7511442,5.52464127 L37.8999018,6.41914639 L35.7210152,6.41914639 L31.2012513,10.9090539 L26.9435144,6.41914639 L24.4252279,6.41914639 L25.5739855,5.52464127 C26.2536707,4.99538955 26.6584364,4.18549278 26.6584364,3.30775828 C26.6584364,1.7570762 25.4013602,0.5 23.8506781,0.5 C22.299996,0.5 21.0429198,1.7570762 21.0429198,3.30775828 C21.0429198,4.18549278 21.4476855,4.99538955 22.1273707,5.52464127 L23.2761283,6.41914639 L21.0972418,6.41914639 L16.5774779,10.9090539 L12.3197409,6.41914639 L9.80145446,6.41914639 L10.9502121,5.52464127 C11.6298973,4.99538955 12.034663,4.18549278 12.034663,3.30775828 C12.034663,1.7570762 10.7775868,0.5 9.22690467,0.5 C7.67622259,0.5 6.41914639,1.7570762 6.41914639,3.30775828 C6.41914639,4.18549278 6.82391206,4.99538955 7.50359729,5.52464127 L8.65235488,6.41914639 L6.47346833,6.41914639 L0.708280333,12.146251 L1.94126372,13.3792344 L6.76733148,8.55316669 L6.76733148,14.8980057 L6.73717779,15.0690158 L3.07815196,25.1221066 L5.28524128,25.9254214 L9.28336897,14.9406559 L13.2814967,25.9254214 L15.488586,25.1221066 L12.0648166,15.7153777 L12.034663,15.5443676 L12.034663,8.91650637 Z M16.5952557,25.2388523 L20.3911049,14.8098422 L20.3911049,10.9673803 L16.5650372,14.793448 L16.5312141,14.7596249 L16.497391,14.793448 L13.034663,11.3307199 L13.034663,15.4562041 L16.5952557,25.2388523 Z M31.2190291,25.2388523 L35.0148784,14.8098422 L35.0148784,10.9673803 L31.1888106,14.793448 L31.1549875,14.7596249 L31.1211645,14.793448 L27.6584364,11.3307199 L27.6584364,15.4562041 L31.2190291,25.2388523 Z" id="Combined-Shape"></path>
                    </g>
                </g>
            </g>
        </g>
    </g>
</svg>