<svg width="56px" height="34px" viewBox="0 0 56 34" style="margin-bottom: -5px; margin-left: 5px" version="1.1" xmlns="http://www.w3.org/2000/svg" xmlns:xlink="http://www.w3.org/1999/xlink" class="HomeBlk1-Mouse">
  <g id="x-home" stroke="none" stroke-width="1" fill="none" fill-rule="evenodd" stroke-linecap="round" stroke-linejoin="round">
    <g id="y-home---1280up" transform="translate(-217.000000, -416.000000)" stroke="#0063CB">
      <g id="mechanic-mouse-group" transform="translate(218.000000, 417.000000)">
        <path d="M2.84217094e-14,17 C2.84217094e-14,17 0,22.8783169 0,27 C0,31.1216831 1.83336043,32 6,32 L54,32 C54,32 49.2679418,26.7597227 43,22" id="pancia"></path>
        <path d="M36,17 C31.850617,14.4608818 27.1153674,13 24,13 C14,13 6,22 6,32" id="schiena"></path>
        <path d="M43,22 C43,19.2385763 40.7614237,17 38,17 C35.2385763,17 33,19.2385763 33,22 C33,24.7614237 35.2385763,27 38,27" id="orecchio"></path>
        <rect id="carica" x="15" y="0" width="15" height="6.25" rx="3.125"></rect>
        <path d="M22.5,6.5 L22.5,12.5415946" id="albero"></path>
      </g>
    </g>
  </g>
</svg>
