<svg xmlns="http://www.w3.org/2000/svg" viewBox="0 0 34 34" height="34" width="34">
  <g>
    <path style="fill:#FFFFFF;" d="M17,14.3c1.5,0,2.7,1.2,2.7,2.7c0,0.7-0.3,1.4-0.8,1.9s-1.2,0.8-1.9,0.8c-0.8,0-1.4-0.3-1.9-0.8s-0.8-1.2-0.8-1.9c0-0.7,0.3-1.4,0.8-1.9S16.3,14.3,17,14.3z"/>
    <path style="fill:#FFFFFF;" d="M32.8,2.2v14.9h-0.1c-4.5,2.7-8.9,2.2-11.9,1.1c0.1-0.4,0.2-0.8,0.2-1.2c0-0.9-0.3-1.7-0.7-2.3L32.8,2.2z"/>
    <path style="fill:#FFFFFF;" d="M24.5,8.6l-5.2,5.2c0.6-1.5,1-3.4,1-5.5c0-1.4-0.2-3-0.7-4.6L24.5,8.6z"/>
    <path style="fill:#FFFFFF;" d="M20.2,19.4c1.6,0.6,3.4,1,5.5,1c1.4,0,2.9-0.2,4.5-0.7l-4.8,4.8L20.2,19.4z"/>
    <path style="fill:#FFFFFF;" d="M17.1,1.3c2.7,4.5,2.2,8.9,1.1,11.9C17.8,13.1,17.4,13,17,13c-0.8,0-1.7,0.3-2.3,0.8L2.2,1.3H17.1z"/>
    <path style="fill:#FFFFFF;" d="M17,21c0.8,0,1.7-0.3,2.3-0.8l12.5,12.5H16.9c-2.7-4.5-2.2-8.9-1.1-11.9C16.2,20.9,16.6,21,17,21z"/>
    <path style="fill:#FFFFFF;" d="M14.7,20.2c-0.6,1.5-1,3.4-1,5.5c0,1.4,0.2,3,0.7,4.6l-4.9-4.9L14.7,20.2z"/>
    <path style="fill:#FFFFFF;" d="M13,17c0,0.9,0.3,1.7,0.7,2.3L1.3,31.8V16.9c4.5-2.7,8.9-2.2,11.9-1.1C13.1,16.2,13,16.6,13,17z"/>
    <path style="fill:#FFFFFF;" d="M8.6,9.5l5.1,5.1c-2.6-0.9-6.1-1.5-10-0.2L8.6,9.5z"/>
    <path style="fill:#0066CC;" d="M19.6,3.7c0.5,1.6,0.7,3.1,0.7,4.6c0,2.1-0.5,4-1,5.5l5.2-5.2L19.6,3.7z M21,17
      c0,0.4-0.1,0.8-0.2,1.2c3,1.1,7.4,1.6,11.9-1.1h0.1V2.2L20.3,14.7C20.7,15.3,21,16.1,21,17z M25.7,20.4c-2.1,0-3.9-0.4-5.5-1
      l5.2,5.1l4.8-4.8C28.6,20.2,27.1,20.4,25.7,20.4z M17,21c-0.4,0-0.8-0.1-1.2-0.2c-1.1,3-1.6,7.4,1.1,11.9h14.9L19.3,20.2
      C18.7,20.7,17.8,21,17,21z M17,14.3c-0.7,0-1.4,0.3-1.9,0.8s-0.8,1.2-0.8,1.9c0,0.8,0.3,1.4,0.8,1.9s1.2,0.8,1.9,0.8
      c0.7,0,1.4-0.3,1.9-0.8s0.8-1.2,0.8-1.9C19.7,15.5,18.5,14.3,17,14.3z M14.4,30.3c-0.5-1.6-0.7-3.1-0.7-4.6c0-2.1,0.4-4,1-5.5
      l-5.2,5.2L14.4,30.3z M17.1,1.3H2.2l12.5,12.5c0.6-0.5,1.5-0.8,2.3-0.8c0.4,0,0.8,0.1,1.2,0.2C19.3,10.2,19.8,5.8,17.1,1.3z
       M0.2,16.1l7.5-7.5L0.2,1.1C0,0.9-0.1,0.7,0,0.4C0.1,0.2,0.4,0,0.6,0h16.9c0.1,0,0.3,0.1,0.4,0.2l7.5,7.5l7.5-7.5
      C33.1,0,33.4,0,33.6,0.1C33.9,0.2,34,0.4,34,0.7v16.8l0.1-0.1c0,0.2-0.1,0.4-0.2,0.5l-7.5,7.5l7.5,7.5c0.1,0.2,0.2,0.5,0.1,0.7
      c-0.1,0.2-0.3,0.4-0.6,0.4H17.7h-1.3c-0.1-0.1-0.2-0.1-0.3-0.2l-7.5-7.5l-7.5,7.5C1,33.9,0.7,34,0.4,33.9C0.2,33.8,0,33.6,0,33.3
      V16.5C0,16.4,0.1,16.2,0.2,16.1z M3.7,14.4c3.9-1.3,7.4-0.7,10,0.2L8.6,9.5L3.7,14.4z M1.3,31.8l12.4-12.5
      C13.3,18.7,13,17.9,13,17c0-0.4,0.1-0.8,0.2-1.2c-3-1.1-7.4-1.6-11.9,1.1V31.8z"/>
   </g>
</svg>
