<?xml version="1.0" encoding="UTF-8" standalone="no"?>
<svg width="48px" height="48px" viewBox="0 0 48 48" version="1.1" xmlns="http://www.w3.org/2000/svg" xmlns:xlink="http://www.w3.org/1999/xlink">
    <defs></defs>
    <g id="-home" stroke="none" stroke-width="1" fill="none" fill-rule="evenodd">
        <g id="Mobile" transform="translate(-23.000000, -2407.000000)" fill-rule="nonzero" fill="#00C5CA">
            <path d="M66.9802891,2419.26341 C65.7193541,2419.26341 64.5271376,2419.86622 63.7725454,2420.86175 L63.193734,2420.86175 L63.193734,2415.56676 C63.193734,2415.14658 62.8533284,2414.80617 62.4331417,2414.80617 L59.887928,2414.80617 C59.4677413,2414.80617 59.1273357,2415.14658 59.1273357,2415.56676 C59.1273357,2415.98695 59.4677413,2416.32736 59.887928,2416.32736 L61.6725495,2416.32736 L61.6725495,2421.62235 C61.6725495,2422.04253 62.0129551,2422.38294 62.4331417,2422.38294 L64.1759508,2422.38294 C64.4443566,2422.38294 64.6928873,2422.24147 64.8298558,2422.01075 C65.2791049,2421.25447 66.1030721,2420.7846 66.9801954,2420.7846 C68.3578489,2420.7846 69.4787217,2421.90547 69.4787217,2423.28322 C69.4787217,2424.66097 68.3578489,2425.78184 66.9801954,2425.78184 C66.1028846,2425.78184 65.2789174,2425.31215 64.8299496,2424.55587 C64.6928873,2424.32515 64.4442628,2424.18359 64.1759508,2424.18359 L62.4331417,2424.18359 C62.0129551,2424.18359 61.6725495,2424.524 61.6725495,2424.94418 L61.6725495,2430.23927 L56.3774661,2430.23927 C55.9573731,2430.23927 55.6168738,2430.57967 55.6168738,2430.99986 L55.6168738,2432.74304 C55.6168738,2433.01154 55.758436,2433.26017 55.9892481,2433.39704 C56.7453403,2433.84592 57.2151207,2434.66988 57.2151207,2435.54729 C57.2151207,2436.92485 56.0943416,2438.04563 54.7166881,2438.04563 C53.3389407,2438.04563 52.2180679,2436.92485 52.2180679,2435.54729 C52.2180679,2434.66988 52.6878483,2433.84601 53.4439405,2433.39704 C53.6747526,2433.25998 53.8163148,2433.01145 53.8163148,2432.74304 L53.8163148,2430.99986 C53.8163148,2430.57967 53.4758155,2430.23927 53.0557225,2430.23927 L47.7606391,2430.23927 L47.7606391,2425.70478 L48.3394505,2425.70478 C49.0937615,2426.70012 50.285978,2427.30302 51.5471942,2427.30302 C53.7635337,2427.30302 55.5668114,2425.49975 55.5668114,2423.28322 C55.5668114,2421.06679 53.7636274,2419.26341 51.5471942,2419.26341 C50.2861655,2419.26341 49.0940428,2419.86622 48.3395443,2420.86175 L47.7605454,2420.86175 L47.7605454,2416.32736 L57.3522767,2416.32736 C57.7724633,2416.32736 58.1128689,2415.98695 58.1128689,2415.56676 C58.1128689,2415.14658 57.7724633,2414.80617 57.3522767,2414.80617 L47.0000469,2414.80617 L41.7049635,2414.80617 L41.7049635,2414.22736 C42.7003053,2413.47305 43.3031166,2412.28083 43.3031166,2411.01971 C43.3031166,2408.80328 41.4999326,2407 39.2833119,2407 C37.0668788,2407 35.2635073,2408.80318 35.2635073,2411.01971 C35.2635073,2412.28065 35.8662249,2413.47267 36.8617542,2414.22727 L36.8617542,2414.80627 L31.566952,2414.80627 C31.566952,2414.80627 31.566952,2414.80627 31.5668583,2414.80627 C31.1466716,2414.80627 30.806266,2415.14667 30.806266,2415.56686 L30.806266,2430.99995 L30.806266,2436.29513 L30.2272671,2436.29513 C29.4729561,2435.29979 28.2810209,2434.69688 27.0197109,2434.69688 C24.8032777,2434.69679 23,2436.50016 23,2438.71659 C23,2440.93303 24.8032777,2442.7364 27.0198046,2442.7364 C28.2807397,2442.7364 29.4727686,2442.13359 30.2273609,2441.13796 L30.8063598,2441.13796 L30.8063598,2446.43305 L30.8063598,2446.43314 C30.8063598,2446.85333 31.1467653,2447.19373 31.566952,2447.19373 L34.2640405,2447.19373 C34.6842272,2447.19373 35.0246328,2446.85333 35.0246328,2446.43314 C35.0246328,2446.01296 34.6842272,2445.67255 34.2640405,2445.67255 L32.3274505,2445.67255 L32.3274505,2440.37737 C32.3274505,2439.95719 31.9870449,2439.61678 31.5668583,2439.61678 L29.8237679,2439.61678 C29.5554559,2439.61678 29.3067377,2439.75825 29.1698629,2439.98906 C28.7207076,2440.74543 27.8968342,2441.21521 27.0198046,2441.21521 C25.6420573,2441.21521 24.5211845,2440.09434 24.5211845,2438.71659 C24.5211845,2437.33885 25.6420573,2436.21797 27.0198046,2436.21797 C27.8971154,2436.21797 28.7209888,2436.68766 29.1696754,2437.44385 C29.3066439,2437.67466 29.5552684,2437.81622 29.8236742,2437.81622 L31.5667645,2437.81622 C31.9869512,2437.81622 32.3273568,2437.47582 32.3273568,2437.05563 L32.3273568,2431.76055 L37.6225339,2431.76055 C38.0427206,2431.76055 38.3831262,2431.42014 38.3831262,2430.99995 L38.3831262,2429.25686 C38.3831262,2428.98855 38.2416577,2428.73983 38.0108457,2428.60296 C37.2545659,2428.15371 36.7846918,2427.32984 36.7846918,2426.45281 C36.7846918,2425.07506 37.9055646,2423.95419 39.2832182,2423.95419 C40.6609655,2423.95419 41.7818383,2425.07506 41.7818383,2426.45281 C41.7818383,2427.32993 41.3121517,2428.1538 40.555872,2428.60296 C40.3250599,2428.73993 40.1835914,2428.98855 40.1835914,2429.25686 L40.1835914,2430.99995 C40.1835914,2431.42014 40.523997,2431.76055 40.9441837,2431.76055 L46.2393609,2431.76055 L46.2393609,2436.29504 L45.6601745,2436.29504 C44.9057697,2435.2996 43.713647,2434.6967 42.452712,2434.6967 C40.2362788,2434.6967 38.4329074,2436.49997 38.4329074,2438.71659 C38.4329074,2440.93312 40.2361851,2442.73649 42.452712,2442.73649 C43.7137408,2442.73649 44.9057697,2442.13359 45.6602682,2441.13796 L46.2393609,2441.13796 L46.2393609,2445.67264 L36.6308484,2445.67264 C36.2106617,2445.67264 35.8702561,2446.01305 35.8702561,2446.43324 C35.8702561,2446.85342 36.2106617,2447.19383 36.6308484,2447.19383 L47.0000469,2447.19383 L52.2951303,2447.19383 L52.2951303,2447.77264 C51.2997885,2448.52704 50.6970709,2449.71917 50.6970709,2450.98029 C50.6970709,2453.19672 52.5002549,2455 54.7166881,2455 C56.9331212,2455 58.7364927,2453.19682 58.7364927,2450.98029 C58.7364927,2449.71935 58.1337751,2448.52723 57.1382458,2447.77273 L57.1382458,2447.19373 L62.4331417,2447.19373 C62.8533284,2447.19373 63.193734,2446.85333 63.193734,2446.43314 L63.193734,2441.27278 L63.193734,2440.31006 L63.193734,2430.99986 L63.193734,2425.70478 L63.7724516,2425.70478 C64.5269501,2426.70012 65.7191666,2427.30302 66.9802891,2427.30302 C69.1967223,2427.30302 71,2425.49975 71,2423.28322 C70.9999063,2421.06669 69.1967223,2419.26341 66.9802891,2419.26341 Z M41.7048697,2430.23936 L41.7048697,2429.66036 C42.7002115,2428.90596 43.3031166,2427.71374 43.3031166,2426.45281 C43.3031166,2424.23637 41.4998389,2422.433 39.2833119,2422.433 C37.0668788,2422.433 35.263601,2424.23628 35.263601,2426.45281 C35.263601,2427.71374 35.8664124,2428.90586 36.8620354,2429.66046 L36.8620354,2430.23927 L32.3274505,2430.23927 L32.3274505,2416.32736 L37.6224402,2416.32736 C38.0426269,2416.32736 38.3830325,2415.98695 38.3830325,2415.56676 L38.3830325,2413.82386 C38.3830325,2413.55555 38.241564,2413.30702 38.0108457,2413.16996 C37.2546597,2412.72071 36.7847856,2411.89683 36.7847856,2411.0198 C36.7847856,2409.64206 37.9055646,2408.52118 39.2833119,2408.52118 C40.6609655,2408.52118 41.7818383,2409.64206 41.7818383,2411.01971 C41.7818383,2411.89702 41.3121517,2412.7208 40.5559657,2413.16977 C40.3252474,2413.30683 40.1836852,2413.55546 40.1836852,2413.82377 L40.1836852,2415.56686 C40.1836852,2415.98704 40.5240908,2416.32745 40.9442775,2416.32745 L46.2393609,2416.32745 L46.2393609,2421.62244 C46.2393609,2422.04263 46.5797664,2422.38303 46.9999531,2422.38303 L48.7430435,2422.38303 C49.0113554,2422.38303 49.2600737,2422.24156 49.3969484,2422.01085 C49.8461038,2421.25457 50.670071,2420.78469 51.5471942,2420.78469 C52.9248478,2420.78469 54.0456269,2421.90556 54.0456269,2423.28331 C54.0456269,2424.66106 52.9248478,2425.78193 51.5471942,2425.78193 C50.6698835,2425.78193 49.8460101,2425.31225 49.3970422,2424.55606 C49.25998,2424.32525 49.0114492,2424.18369 48.7430435,2424.18369 L46.9999531,2424.18369 C46.5797664,2424.18369 46.2393609,2424.52409 46.2393609,2424.94428 L46.2393609,2430.23936 L41.7048697,2430.23936 L41.7048697,2430.23936 Z M61.6725495,2440.31025 L61.6725495,2441.27296 L61.6725495,2445.67264 L56.3776536,2445.67264 L56.3776536,2445.67255 C55.9574669,2445.67255 55.6170613,2446.01296 55.6170613,2446.43314 L55.6170613,2448.17623 C55.6170613,2448.44454 55.7585298,2448.69317 55.9892481,2448.83014 C56.7454341,2449.27939 57.2153082,2450.10326 57.2153082,2450.98029 C57.2153082,2452.35794 56.0944354,2453.47882 54.7166881,2453.47882 C53.3390345,2453.47882 52.2182554,2452.35794 52.2182554,2450.98029 C52.2182554,2450.10298 52.6878483,2449.2791 53.4440343,2448.83032 C53.6747526,2448.69326 53.8163148,2448.44464 53.8163148,2448.17633 L53.8163148,2446.43324 C53.8163148,2446.01305 53.4758155,2445.67264 53.0557225,2445.67264 L47.7606391,2445.67264 L47.7606391,2440.37737 C47.7606391,2439.95719 47.4202336,2439.61678 47.0000469,2439.61678 L45.2568628,2439.61678 C44.9885508,2439.61678 44.7398325,2439.75834 44.6028641,2439.98906 C44.1538024,2440.74553 43.3300228,2441.21531 42.4529933,2441.21531 C41.0752459,2441.21531 39.9543731,2440.09434 39.9543731,2438.7165 C39.9543731,2437.33866 41.0752459,2436.21769 42.4529933,2436.21769 C43.3300228,2436.21769 44.1538962,2436.68757 44.6029578,2437.44375 C44.7399263,2437.67457 44.9885508,2437.81603 45.2568628,2437.81603 L47.0000469,2437.81603 C47.4202336,2437.81603 47.7606391,2437.47563 47.7606391,2437.05544 L47.7606391,2431.76045 L52.2951303,2431.76045 L52.2951303,2432.33954 C51.2997885,2433.09395 50.6968834,2434.28617 50.6968834,2435.54738 C50.6968834,2437.76372 52.5001611,2439.56691 54.7166881,2439.56691 C56.9330275,2439.56691 58.7363052,2437.76381 58.7363052,2435.54738 C58.7363052,2434.28607 58.1334939,2433.09386 57.1380583,2432.33954 L57.1380583,2431.76045 L61.6725495,2431.76045 L61.6725495,2440.31025 Z" id="Shape"></path>
        </g>
    </g>
</svg>