<?xml version="1.0" encoding="UTF-8" standalone="no"?>
<svg width="64px" height="64px" viewBox="0 0 64 64" version="1.1" xmlns="http://www.w3.org/2000/svg" xmlns:xlink="http://www.w3.org/1999/xlink">
    <defs></defs>
    <g id="-home" stroke="none" stroke-width="1" fill="none" fill-rule="evenodd">
        <g id="home---1280up" transform="translate(-480.000000, -2228.000000)" fill-rule="nonzero" fill="#5A6772">
            <g id="puzzle" transform="translate(480.000000, 2228.000000)">
                <path d="M58.6403855,16.3512181 C56.9591388,16.3512181 55.3695169,17.1549665 54.3633938,18.4823389 L53.5916453,18.4823389 L53.5916453,11.4223527 C53.5916453,10.8621038 53.1377712,10.4082297 52.5775223,10.4082297 L49.1839039,10.4082297 C48.623655,10.4082297 48.1697809,10.8621038 48.1697809,11.4223527 C48.1697809,11.9826016 48.623655,12.4364757 49.1839039,12.4364757 L51.5633993,12.4364757 L51.5633993,19.4964619 C51.5633993,20.0567108 52.0172734,20.5105849 52.5775223,20.5105849 L54.9012678,20.5105849 C55.2591421,20.5105849 55.5905164,20.3219603 55.7731411,20.0143359 C56.3721399,19.0059629 57.4707628,18.3794641 58.6402605,18.3794641 C60.4771319,18.3794641 61.971629,19.8739612 61.971629,21.7109576 C61.971629,23.547954 60.4771319,25.0424511 58.6402605,25.0424511 C57.4705128,25.0424511 56.3718899,24.4162023 55.7732661,23.4078293 C55.5905164,23.1002049 55.2590171,22.9114553 54.9012678,22.9114553 L52.5775223,22.9114553 C52.0172734,22.9114553 51.5633993,23.3653294 51.5633993,23.9255783 L51.5633993,30.9856895 L44.5032881,30.9856895 C43.9431642,30.9856895 43.4891651,31.4395636 43.4891651,31.9998125 L43.4891651,34.324058 C43.4891651,34.6820573 43.6779147,35.0135566 43.9856641,35.1960563 C44.9937871,35.7945551 45.6201609,36.8931779 45.6201609,38.0630507 C45.6201609,39.8997971 44.1257888,41.3941692 42.2889174,41.3941692 C40.451921,41.3941692 38.9574239,39.8997971 38.9574239,38.0630507 C38.9574239,36.8931779 39.5837977,35.7946801 40.5919207,35.1960563 C40.8996701,35.0133066 41.0884197,34.6819323 41.0884197,34.324058 L41.0884197,31.9998125 C41.0884197,31.4395636 40.6344206,30.9856895 40.0742967,30.9856895 L33.0141855,30.9856895 L33.0141855,24.9397013 L33.785934,24.9397013 C34.791682,26.2668237 36.3813039,27.0706971 38.0629257,27.0706971 C41.0180449,27.0706971 43.4224152,24.6663268 43.4224152,21.7109576 C43.4224152,18.7557134 41.0181699,16.3512181 38.0629257,16.3512181 C36.3815539,16.3512181 34.792057,17.1549665 33.786059,18.4823389 L33.0140605,18.4823389 L33.0140605,12.4364757 L45.8030355,12.4364757 C46.3632844,12.4364757 46.8171586,11.9826016 46.8171586,11.4223527 C46.8171586,10.8621038 46.3632844,10.4082297 45.8030355,10.4082297 L32.0000625,10.4082297 L24.9399513,10.4082297 L24.9399513,9.63648118 C26.2670737,8.63073314 27.0708221,7.04111125 27.0708221,5.35961453 C27.0708221,2.4043703 24.6665768,0 21.7110826,0 C18.7558384,0 16.3513431,2.4042453 16.3513431,5.35961453 C16.3513431,7.04086125 17.1549665,8.63023314 18.4823389,9.63635618 L18.4823389,10.4083547 L11.4226027,10.4083547 C11.4226027,10.4083547 11.4226027,10.4083547 11.4224777,10.4083547 C10.8622288,10.4083547 10.4083547,10.8622288 10.4083547,11.4224777 L10.4083547,31.9999375 L10.4083547,39.0601737 L9.63635618,39.0601737 C8.63060814,37.7330513 7.04136125,36.9291779 5.35961453,36.9291779 C2.4043703,36.9290529 0,39.3335482 0,42.2887924 C0,45.2440366 2.4043703,47.6485319 5.35973953,47.6485319 C7.04098625,47.6485319 8.63035814,46.8447835 9.63648118,45.5172861 L10.4084797,45.5172861 L10.4084797,52.5773973 L10.4084797,52.5775223 C10.4084797,53.1377712 10.8623538,53.5916453 11.4226027,53.5916453 L15.0187207,53.5916453 C15.5789696,53.5916453 16.0328437,53.1377712 16.0328437,52.5775223 C16.0328437,52.0172734 15.5789696,51.5633993 15.0187207,51.5633993 L12.4366007,51.5633993 L12.4366007,44.5031631 C12.4366007,43.9429142 11.9827266,43.4890401 11.4224777,43.4890401 L9.09835723,43.4890401 C8.74060793,43.4890401 8.40898358,43.6776647 8.22648393,43.9854141 C7.6276101,44.9939121 6.52911225,45.6202859 5.35973953,45.6202859 C3.52274312,45.6202859 2.02824604,44.1257888 2.02824604,42.2887924 C2.02824604,40.451796 3.52274312,38.9572989 5.35973953,38.9572989 C6.52948725,38.9572989 7.6279851,39.5835477 8.22623393,40.5917957 C8.40885858,40.8995451 8.74035793,41.0882947 9.09823223,41.0882947 L11.4223527,41.0882947 C11.9826016,41.0882947 12.4364757,40.6344206 12.4364757,40.0741717 L12.4364757,33.0140605 L19.4967119,33.0140605 C20.0569608,33.0140605 20.5108349,32.5601864 20.5108349,31.9999375 L20.5108349,29.675817 C20.5108349,29.3180677 20.3222103,28.9864434 20.0144609,28.8039437 C19.0060879,28.2049449 18.3795891,27.1064471 18.3795891,25.9370743 C18.3795891,24.1000779 19.8740862,22.6055808 21.7109576,22.6055808 C23.547954,22.6055808 25.0424511,24.1000779 25.0424511,25.9370743 C25.0424511,27.1065721 24.4162023,28.2050699 23.4078293,28.8039437 C23.1000799,28.9865684 22.9114553,29.3180677 22.9114553,29.675817 L22.9114553,31.9999375 C22.9114553,32.5601864 23.3653294,33.0140605 23.9255783,33.0140605 L30.9858145,33.0140605 L30.9858145,39.0600487 L30.213566,39.0600487 C29.207693,37.7328013 27.6181961,36.9289279 25.9369493,36.9289279 C22.9817051,36.9289279 20.5772098,39.3332982 20.5772098,42.2887924 C20.5772098,45.2441616 22.9815801,47.6486569 25.9369493,47.6486569 C27.6183211,47.6486569 29.207693,46.8447835 30.213691,45.5172861 L30.9858145,45.5172861 L30.9858145,51.5635243 L18.1744645,51.5635243 C17.6142156,51.5635243 17.1603415,52.0173984 17.1603415,52.5776473 C17.1603415,53.1378962 17.6142156,53.5917703 18.1744645,53.5917703 L32.0000625,53.5917703 L39.0601737,53.5917703 L39.0601737,54.3635188 C37.7330513,55.3693919 36.9294279,56.9588888 36.9294279,58.6403855 C36.9294279,61.5956297 39.3336732,64 42.2889174,64 C45.2441616,64 47.6486569,61.5957547 47.6486569,58.6403855 C47.6486569,56.9591388 46.8450335,55.3696419 45.5176611,54.3636438 L45.5176611,53.5916453 L52.5775223,53.5916453 C53.1377712,53.5916453 53.5916453,53.1377712 53.5916453,52.5775223 L53.5916453,45.6970357 L53.5916453,44.4134133 L53.5916453,31.9998125 L53.5916453,24.9397013 L54.3632688,24.9397013 C55.3692669,26.2668237 56.9588888,27.0706971 58.6403855,27.0706971 C61.5956297,27.0706971 64,24.6663268 64,21.7109576 C63.999875,18.7555884 61.5956297,16.3512181 58.6403855,16.3512181 Z M24.9398263,30.9858145 L24.9398263,30.213816 C26.2669487,29.207943 27.0708221,27.6183211 27.0708221,25.9370743 C27.0708221,22.9818301 24.6664518,20.5773348 21.7110826,20.5773348 C18.7558384,20.5773348 16.3514681,22.9817051 16.3514681,25.9370743 C16.3514681,27.6183211 17.1552165,29.207818 18.4827139,30.213941 L18.4827139,30.9856895 L12.4366007,30.9856895 L12.4366007,12.4364757 L19.4965869,12.4364757 C20.0568358,12.4364757 20.5107099,11.9826016 20.5107099,11.4223527 L20.5107099,9.09848223 C20.5107099,8.74073293 20.3220853,8.40935858 20.0144609,8.22660893 C19.0062129,7.6276101 18.3797141,6.52911225 18.3797141,5.35973953 C18.3797141,3.52274312 19.8740862,2.02824604 21.7110826,2.02824604 C23.547954,2.02824604 25.0424511,3.52274312 25.0424511,5.35961453 C25.0424511,6.52936225 24.4162023,7.6277351 23.4079543,8.22635893 C23.1003299,8.40910858 22.9115803,8.74060793 22.9115803,9.09835723 L22.9115803,11.4224777 C22.9115803,11.9827266 23.3654544,12.4366007 23.9257033,12.4366007 L30.9858145,12.4366007 L30.9858145,19.4965869 C30.9858145,20.0568358 31.4396886,20.5107099 31.9999375,20.5107099 L34.324058,20.5107099 C34.6818073,20.5107099 35.0134316,20.3220853 35.1959313,20.0144609 C35.7948051,19.0060879 36.8934279,18.3795891 38.0629257,18.3795891 C39.8997971,18.3795891 41.3941692,19.8740862 41.3941692,21.7110826 C41.3941692,23.548079 39.8997971,25.0425761 38.0629257,25.0425761 C36.8931779,25.0425761 35.7946801,24.4163273 35.1960563,23.4080793 C35.0133066,23.1003299 34.6819323,22.9115803 34.324058,22.9115803 L31.9999375,22.9115803 C31.4396886,22.9115803 30.9858145,23.3654544 30.9858145,23.9257033 L30.9858145,30.9858145 L24.9398263,30.9858145 L24.9398263,30.9858145 Z M51.5633993,44.4136633 L51.5633993,45.6972857 L51.5633993,51.5635243 L44.5035381,51.5635243 L44.5035381,51.5633993 C43.9432892,51.5633993 43.4894151,52.0172734 43.4894151,52.5775223 L43.4894151,54.9016428 C43.4894151,55.2593921 43.6780397,55.5908914 43.9856641,55.7735161 C44.9939121,56.3725149 45.6204109,57.4710128 45.6204109,58.6403855 C45.6204109,60.4772569 44.1259138,61.971754 42.2889174,61.971754 C40.452046,61.971754 38.9576739,60.4772569 38.9576739,58.6403855 C38.9576739,57.4706378 39.5837977,56.3721399 40.5920457,55.7737661 C40.8996701,55.5910164 41.0884197,55.2595171 41.0884197,54.9017678 L41.0884197,52.5776473 C41.0884197,52.0173984 40.6344206,51.5635243 40.0742967,51.5635243 L33.0141855,51.5635243 L33.0141855,44.5031631 C33.0141855,43.9429142 32.5603114,43.4890401 32.0000625,43.4890401 L29.675817,43.4890401 C29.3180677,43.4890401 28.9864434,43.6777897 28.8038187,43.9854141 C28.2050699,44.9940371 27.1066971,45.6204109 25.9373243,45.6204109 C24.1003279,45.6204109 22.6058308,44.1257888 22.6058308,42.2886674 C22.6058308,40.451546 24.1003279,38.9569239 25.9373243,38.9569239 C27.1066971,38.9569239 28.2051949,39.5834227 28.8039437,40.5916707 C28.9865684,40.8994201 29.3180677,41.0880447 29.675817,41.0880447 L32.0000625,41.0880447 C32.5603114,41.0880447 33.0141855,40.6341706 33.0141855,40.0739217 L33.0141855,33.0139355 L39.0601737,33.0139355 L39.0601737,33.786059 C37.7330513,34.791932 36.9291779,36.3815539 36.9291779,38.0631757 C36.9291779,41.0182949 39.3335482,43.4225402 42.2889174,43.4225402 C45.2440366,43.4225402 47.6484069,41.0184199 47.6484069,38.0631757 C47.6484069,36.3814289 46.8446585,34.791807 45.5174111,33.786059 L45.5174111,33.0139355 L51.5633993,33.0139355 L51.5633993,44.4136633 Z" id="Shape"></path>
            </g>
        </g>
    </g>
</svg>