<?xml version="1.0" encoding="UTF-8" standalone="no"?>
<svg width="44px" height="40px" viewBox="0 0 44 40" version="1.1" xmlns="http://www.w3.org/2000/svg" xmlns:xlink="http://www.w3.org/1999/xlink">
    <defs></defs>
    <g id="-home" stroke="none" stroke-width="1" fill="none" fill-rule="evenodd">
        <g id="service-design-example---detail---1024up" transform="translate(-414.000000, -1336.000000)" fill-rule="nonzero" fill="#5A6772">
            <path d="M447.802926,1347.33315 C450.066411,1347.33315 451.907724,1345.50558 451.907724,1343.25922 C451.907724,1341.01285 450.066311,1339.18528 447.802926,1339.18528 C445.53954,1339.18528 443.698226,1341.01285 443.698226,1343.25922 C443.698226,1345.50558 445.53964,1347.33315 447.802926,1347.33315 Z M447.802926,1340.96278 C449.078791,1340.96278 450.116757,1341.99294 450.116757,1343.25922 C450.116757,1344.52549 449.078791,1345.55565 447.802926,1345.55565 C446.52716,1345.55565 445.489194,1344.52549 445.489194,1343.25922 C445.489194,1341.99294 446.52716,1340.96278 447.802926,1340.96278 Z M424.363435,1364.66685 C422.10005,1364.66685 420.258736,1366.49442 420.258736,1368.74078 C420.258736,1370.98715 422.100149,1372.81472 424.363435,1372.81472 C426.62692,1372.81472 428.468234,1370.98715 428.468234,1368.74078 C428.468234,1366.49442 426.626821,1364.66685 424.363435,1364.66685 Z M424.363435,1371.03722 C423.087669,1371.03722 422.049704,1370.00706 422.049704,1368.74078 C422.049704,1367.47451 423.087669,1366.44435 424.363435,1366.44435 C425.639301,1366.44435 426.677266,1367.47451 426.677266,1368.74078 C426.677266,1370.00706 425.639301,1371.03722 424.363435,1371.03722 Z M455.623784,1359.67138 C454.518558,1356.95625 451.817579,1355.1112 448.837309,1355.1112 L438.593968,1355.1112 C438.221944,1354.0446 437.1996,1353.27662 436.00005,1353.27662 C434.800499,1353.27662 433.778155,1354.0446 433.406131,1355.1112 L423.162691,1355.1112 C421.020992,1355.1112 419.070031,1353.84838 418.166786,1351.95752 C418.958394,1351.47917 419.488023,1350.61462 419.488023,1349.62958 C419.488023,1348.64455 418.958394,1347.7799 418.166786,1347.30155 C419.070031,1345.41078 421.021091,1344.14787 423.162691,1344.14787 L440.543437,1344.14787 C440.986204,1347.73309 444.073036,1350.51833 447.802926,1350.51833 C451.835986,1350.51833 455.117039,1347.26185 455.117039,1343.25912 C455.117039,1339.25648 451.835887,1336 447.802926,1336 C444.072937,1336 440.986204,1338.78525 440.543437,1342.37037 L423.162691,1342.37037 C420.18252,1342.37037 417.481442,1344.21541 416.376117,1346.93055 C415.036473,1347.10958 414,1348.25172 414,1349.62968 C414,1351.00764 415.036473,1352.14969 416.376117,1352.32862 C417.481343,1355.04375 420.182421,1356.8888 423.162691,1356.8888 L433.406131,1356.8888 C433.778155,1357.9554 434.800499,1358.72338 436.00005,1358.72338 C437.1996,1358.72338 438.221944,1357.9554 438.593968,1356.8888 L448.837309,1356.8888 C450.979008,1356.8888 452.929969,1358.15162 453.833114,1360.04248 C453.041507,1360.52083 452.511878,1361.38538 452.511878,1362.37042 C452.511878,1363.35545 453.041507,1364.2201 453.833114,1364.69845 C452.929969,1366.58922 450.978909,1367.85213 448.837309,1367.85213 L431.623123,1367.85213 C431.180257,1364.26691 428.093424,1361.48167 424.363435,1361.48167 C420.330474,1361.48167 417.049421,1364.73815 417.049421,1368.74088 C417.049421,1372.74352 420.330474,1376 424.363435,1376 C428.093524,1376 431.180356,1373.21475 431.623123,1369.62963 L448.837309,1369.62963 C451.817579,1369.62963 454.518558,1367.78459 455.623784,1365.06945 C456.963527,1364.89042 458,1363.74828 458,1362.37042 C458,1360.99256 456.963527,1359.85041 455.623784,1359.67138 Z M447.802926,1337.7776 C450.848367,1337.7776 453.326071,1340.23658 453.326071,1343.25922 C453.326071,1346.28186 450.848367,1348.74093 447.802926,1348.74093 C444.757484,1348.74093 442.279879,1346.28186 442.279879,1343.25922 C442.279879,1340.23658 444.757484,1337.7776 447.802926,1337.7776 Z M416.893906,1350.56386 C416.886543,1350.56485 416.879279,1350.56593 416.871817,1350.56702 C416.830028,1350.57265 416.787343,1350.57551 416.743962,1350.57551 C416.218412,1350.57551 415.790868,1350.15118 415.790868,1349.62968 C415.790868,1349.10808 416.218412,1348.68376 416.743962,1348.68376 C416.787144,1348.68376 416.82963,1348.68662 416.871319,1348.69215 C416.878981,1348.69343 416.886543,1348.69442 416.894204,1348.69551 C417.348513,1348.7673 417.696856,1349.15884 417.696856,1349.62968 C417.696956,1350.10052 417.348413,1350.49226 416.893906,1350.56386 Z M436.00005,1356.94588 C435.4746,1356.94588 435.047056,1356.52155 435.047056,1356.00005 C435.047056,1355.47855 435.4745,1355.05422 436.00005,1355.05422 C436.525599,1355.05422 436.953044,1355.47855 436.953044,1356.00005 C436.953044,1356.52155 436.5255,1356.94588 436.00005,1356.94588 Z M424.363435,1374.2224 C421.317994,1374.2224 418.840389,1371.76342 418.840389,1368.74078 C418.840389,1365.71814 421.317994,1363.25907 424.363435,1363.25907 C427.408976,1363.25907 429.886681,1365.71814 429.886681,1368.74078 C429.886681,1371.76342 427.408976,1374.2224 424.363435,1374.2224 Z M455.255839,1363.31624 C455.212757,1363.31624 455.170271,1363.31338 455.128681,1363.30785 C455.12092,1363.30657 455.113159,1363.30548 455.105398,1363.30449 C454.651189,1363.2326 454.302945,1362.84106 454.302945,1362.37032 C454.302945,1361.89938 454.651388,1361.50783 455.105895,1361.43614 C455.113358,1361.43515 455.120721,1361.43407 455.128183,1361.43298 C455.169972,1361.42735 455.212657,1361.42449 455.255939,1361.42449 C455.781488,1361.42449 456.209132,1361.84882 456.209132,1362.37032 C456.209032,1362.89192 455.781389,1363.31624 455.255839,1363.31624 Z" id="icon-roadmap"></path>
        </g>
    </g>
</svg>
