<?xml version="1.0" encoding="UTF-8" standalone="no"?>
<svg width="48px" height="48px" viewBox="0 0 48 48" version="1.1" xmlns="http://www.w3.org/2000/svg" xmlns:xlink="http://www.w3.org/1999/xlink">
    <defs></defs>
    <g id="-home" stroke="none" stroke-width="1" fill="none" fill-rule="evenodd">
        <g id="home---1280up" transform="translate(-281.000000, -2446.000000)" fill-rule="nonzero" fill="#5A6772">
            <g id="story" transform="translate(281.000000, 2446.000000)">
                <path d="M32.7273153,36 C33.1287436,36 33.4545739,35.6741634 33.4545739,35.2727273 L33.4545739,34.5454545 L34.1818324,34.5454545 C34.5832607,34.5454545 34.9090909,34.219618 34.9090909,33.8181818 C34.9090909,33.4167457 34.5832607,33.0909091 34.1818324,33.0909091 L33.4545739,33.0909091 L33.4545739,32.3636364 C33.4545739,31.9622002 33.1287436,31.6363636 32.7273153,31.6363636 C32.325887,31.6363636 32.0000568,31.9622002 32.0000568,32.3636364 L32.0000568,33.0909091 L31.2727131,33.0909091 C30.8712848,33.0909091 30.5454545,33.4167457 30.5454545,33.8181818 C30.5454545,34.219618 30.8712848,34.5454545 31.2727131,34.5454545 L31.9999716,34.5454545 L31.9999716,35.2727273 C31.9999716,35.6741634 32.3258018,36 32.7273153,36 Z" id="Shape"></path>
                <path d="M44.4545455,5.72727273 C44.4545455,6.17888838 44.8211116,6.54545455 45.2727273,6.54545455 C45.7243429,6.54545455 46.0909091,6.17888838 46.0909091,5.72727273 C46.5425247,5.72727273 46.9090909,5.36070656 46.9090909,4.90909091 C46.9090909,4.45747526 46.5425247,4.09090909 46.0909091,4.09090909 C46.0909091,3.63929344 45.7243429,3.27272727 45.2727273,3.27272727 C44.8211116,3.27272727 44.4545455,3.63929344 44.4545455,4.09090909 C44.0029298,4.09090909 43.6363636,4.45747526 43.6363636,4.90909091 C43.6363636,5.36070656 44.0029298,5.72727273 44.4545455,5.72727273 Z" id="Shape"></path>
                <path d="M24.0000913,9.81818182 C17.9845038,9.81818182 13.0909091,14.8421506 13.0909091,21.0182131 C13.0909091,21.4597756 13.440008,21.8181818 13.8701038,21.8181818 C14.3001995,21.8181818 14.6492985,21.4597756 14.6492985,21.0182131 C14.6492985,15.7246193 18.8438734,11.4182131 24,11.4182131 C29.1561266,11.4182131 33.3507015,15.7246193 33.3507015,21.0182131 C33.3507015,21.4597756 33.6998005,21.8181818 34.1298962,21.8181818 C34.559992,21.8181818 34.9090909,21.4597756 34.9090909,21.0182131 C34.9092735,14.8421506 30.0156789,9.81818182 24.0000913,9.81818182 Z" id="Shape"></path>
                <path d="M31.3636364,2.45454545 C31.3636364,2.90616111 31.7302025,3.27272727 32.1818182,3.27272727 C32.6334338,3.27272727 33,2.90616111 33,2.45454545 C33.4516157,2.45454545 33.8181818,2.08797929 33.8181818,1.63636364 C33.8181818,1.18474798 33.4516157,0.818181818 33,0.818181818 C33,0.366566166 32.6334338,0 32.1818182,0 C31.7302025,0 31.3636364,0.366470281 31.3636364,0.818085934 C30.9120207,0.818085934 30.5454545,1.1846521 30.5454545,1.63626775 C30.5454545,2.0878834 30.9120207,2.45454545 31.3636364,2.45454545 Z" id="Shape"></path>
                <path d="M7.33881339,21.8181818 C7.77672739,21.8181818 8.13217224,21.4569411 8.13217224,21.0118865 C8.13217224,12.1196762 15.2504597,4.88531798 24,4.88531798 C32.7495403,4.88531798 39.8678278,12.1196762 39.8678278,21.0118865 C39.8678278,21.4569411 40.2232726,21.8181818 40.6611866,21.8181818 C41.0991006,21.8181818 41.4545455,21.4569411 41.4545455,21.0118865 C41.4545455,11.2303229 33.6246245,3.27272727 24,3.27272727 C14.3753755,3.27272727 6.54545455,11.2303229 6.54545455,21.0118865 C6.54545455,21.4569411 6.90089939,21.8181818 7.33881339,21.8181818 Z" id="Shape"></path>
                <path d="M17.4039119,28.4142699 L16.6582059,24.6891553 C16.5784524,24.2879767 16.2270947,24 15.8181818,24 C15.4093694,24 15.0579113,24.2879767 14.9781577,24.6891553 L14.2324517,28.4142699 L10.5073371,29.1599759 C10.1061585,29.2397295 9.81818182,29.5910872 9.81818182,30 C9.81818182,30.4088124 10.1061585,30.7602705 10.5073371,30.8400241 L14.2324517,31.5857301 L14.9781577,35.3108447 C15.0579113,35.7120233 15.409269,36 15.8181818,36 C16.2269942,36 16.5784524,35.7120233 16.6582059,35.3108447 L17.4039119,31.5857301 L21.1290266,30.8400241 C21.5302051,30.7602705 21.8181818,30.4089128 21.8181818,30 C21.8181818,29.5911876 21.5302051,29.2397295 21.1290266,29.1599759 L17.4039119,28.4142699 Z M16.5073371,30.0170757 C16.1679324,30.0847758 15.9030581,30.3496501 15.835358,30.6890548 L15.8181818,30.7722235 L15.8010057,30.6890548 C15.7333055,30.3496501 15.4684313,30.0847758 15.1290266,30.0170757 L15.0458578,29.9998996 L15.1290266,29.9827234 C15.4684313,29.9150233 15.7333055,29.650149 15.8010057,29.3107443 L15.8181818,29.2275756 L15.835358,29.3107443 C15.9030581,29.650149 16.1679324,29.9150233 16.5073371,29.9827234 L16.5905058,29.9998996 L16.5073371,30.0170757 Z" id="Shape"></path>
                <path d="M47.2000312,11.5763289 C46.7584687,11.5763289 46.4000625,11.9389532 46.4000625,12.3857122 L46.4000625,43.9528938 C46.4000625,45.2916534 45.32325,46.3811386 44.0000625,46.3811386 L24.8000625,46.3811386 L24.8000625,44.5186938 C25.9665,44.1058922 29.0040937,43.1435105 32.0000625,43.1435105 C38.9680312,43.1435105 43.7000625,44.7048909 43.7480625,44.7210159 C43.9905,44.8027795 44.2592812,44.7606646 44.4680625,44.6092787 C44.6760937,44.457134 44.8000312,44.212697 44.8000312,43.952799 L44.8000312,8.33870092 C44.8000312,8.01496657 44.609625,7.7219647 44.31525,7.59486126 C44.2440937,7.56412879 42.5424375,6.83963921 39.2200312,6.55963223 C38.7744375,6.51837105 38.393625,6.85348779 38.356875,7.29863437 C38.3200312,7.74463464 38.6473125,8.13552513 39.0872812,8.17280248 C41.1480937,8.34600462 42.5249062,8.70132512 43.2000937,8.91341712 L43.2000937,42.8772573 C41.38725,42.3964459 37.3617187,41.5247439 32.0000625,41.5247439 C28.5144375,41.5247439 25.0905,42.6829977 24.0312187,43.0755956 C23.0895937,42.6547314 20.24325,41.5247439 16.8,41.5247439 C11.2895625,41.5247439 6.749625,42.4442519 4.8,42.9113096 L4.8,8.96435335 C5.54878125,8.77739748 6.98315625,8.44873076 8.86959375,8.15497006 C9.306375,8.08696023 9.606375,7.67415863 9.53915625,7.23223706 C9.4711875,6.79031548 9.05915625,6.48517239 8.62715625,6.55555354 C5.69521875,7.01122884 3.85678125,7.53813898 3.78,7.56080892 C3.43678125,7.65955122 3.19996875,7.97768922 3.19996875,8.33870092 L3.19996875,43.9529887 C3.19996875,44.2063419 3.31753125,44.4459413 3.51759375,44.5989397 C3.65840625,44.7065982 3.828,44.7624668 4.00003125,44.7624668 C4.073625,44.7624668 4.14721875,44.7519381 4.21921875,44.7308807 C4.2744375,44.7155144 9.8064375,43.1436054 16.8,43.1436054 C19.7248125,43.1436054 22.224,44.0647259 23.2000312,44.4782863 L23.2000312,46.3812334 L4.00003125,46.3812334 C2.67684375,46.3812334 1.60003125,45.2917483 1.60003125,43.9529887 L1.60003125,12.3858071 C1.60003125,11.939048 1.241625,11.5764238 0.8000625,11.5764238 C0.3585,11.5764238 0,11.9389532 0,12.3857122 L0,43.9528938 C0,46.1845076 1.794375,48 4.00003125,48 L44.0000625,48 C46.205625,48 48,46.1845076 48,43.9528938 L48,12.3857122 C48,11.9389532 47.6415937,11.5763289 47.2000312,11.5763289 Z" id="Shape"></path>
                <path d="M7.27272727,2.90911932 L8,2.90911932 L8,3.63637784 C8,4.03780614 8.32583659,4.36363636 8.72727273,4.36363636 C9.12870886,4.36363636 9.45454545,4.03780614 9.45454545,3.63637784 L9.45454545,2.90911932 L10.1818182,2.90911932 C10.5832543,2.90911932 10.9090909,2.58328909 10.9090909,2.1818608 C10.9090909,1.7804325 10.5832543,1.45460227 10.1818182,1.45460227 L9.45463069,1.45460227 L9.45463069,0.727258522 C9.45463069,0.325830228 9.12879409,0 8.72735796,0 C8.32592182,0 8.00008523,0.325830228 8.00008523,0.727258522 L8.00008523,1.45451704 L7.27272727,1.45451704 C6.87129114,1.45451704 6.54545455,1.78034727 6.54545455,2.18177557 C6.54545455,2.58328909 6.87129114,2.90911932 7.27272727,2.90911932 Z" id="Shape"></path>
                <path d="M22.9090909,13.8787597 L22.9090909,40.6666949 C22.9090909,41.1015685 23.1534684,41.4545455 23.4545455,41.4545455 C23.7556226,41.4545455 24,41.1015685 24,40.6666949 L24,13.8787597 C24,13.4438861 23.7556226,13.0909091 23.4545455,13.0909091 C23.1534684,13.0909091 22.9090909,13.4437938 22.9090909,13.8787597 Z" id="Shape"></path>
                <path d="M37.7880327,21.803798 C38.2229048,21.803798 38.5758807,21.4436762 38.5758807,21 C38.5758807,13.0220246 31.8196662,6.54545455 24,6.54545455 C16.1803338,6.54545455 9.81818182,13.0364084 9.81818182,21.0143838 C9.81818182,21.45806 10.1711577,21.8181818 10.6060298,21.8181818 C11.040902,21.8181818 11.3938778,21.45806 11.3938778,21.0143838 C11.3938778,13.9230071 17.0492472,8.15314475 23.9999077,8.15314475 C30.9505682,8.15314475 37,13.9086233 37,21 C37.0000923,21.4436762 37.3530682,21.803798 37.7880327,21.803798 Z" id="Shape"></path>
            </g>
        </g>
    </g>
</svg>