<?xml version="1.0" encoding="UTF-8" standalone="no"?>
<svg width="146px" height="119px" viewBox="0 0 146 119" version="1.1" xmlns="http://www.w3.org/2000/svg" xmlns:xlink="http://www.w3.org/1999/xlink">
    <defs></defs>
    <g id="-home" stroke="none" stroke-width="1" fill="none" fill-rule="evenodd">
        <g id="home---1280up" transform="translate(-233.000000, -2210.000000)">
            <g id="toolbox-(1)" transform="translate(233.000000, 2210.000000)">
                <path d="M106.571794,32 L43.4284901,32 C41.9713391,32 41,31.04009 41,29.6000844 L41,10.3999156 C41,8.95991 41.9713391,8 43.4284901,8 L53.1427352,8 C54.5998861,8 55.5712253,8.95991 55.5712253,10.3999156 L55.5712253,12.7998312 L94.4287747,12.7998312 L94.4287747,10.3999156 C94.4287747,8.95991 95.4001138,8 96.8572648,8 L106.57151,8 C108.028661,8 109,8.95991 109,10.3999156 L109,29.6000844 C109.000285,31.0398087 108.028945,32 106.571794,32 Z M45.8569802,27.1998875 L104.14302,27.1998875 L104.14302,12.7998312 L99.2857549,12.7998312 L99.2857549,15.1997469 C99.2857549,16.6397525 98.3144158,17.5996625 96.8572648,17.5996625 L53.1427352,17.5996625 C51.6855842,17.5996625 50.714245,16.6397525 50.714245,15.1997469 L50.714245,12.7998312 L45.8569802,12.7998312 L45.8569802,27.1998875 L45.8569802,27.1998875 Z" id="Shape" fill="#65DDE0" fill-rule="nonzero"></path>
                <polygon id="Shape" fill="#00C5CA" fill-rule="nonzero" points="51 12 95 12 95 3 51 3"></polygon>
                <path d="M111.314494,61 L111.314494,68.3043354 C111.314494,70.9826869 109.131165,73.1739875 106.462558,73.1739875 L101.610906,73.1739875 C98.9422983,73.1739875 96.7589697,70.9826869 96.7589697,68.3043354 L96.7589697,61 L48.240746,61 L48.240746,68.3043354 C48.240746,70.9826869 46.0574174,73.1739875 43.3888099,73.1739875 L38.5368738,73.1739875 C35.8682663,73.1739875 33.6849377,70.9826869 33.6849377,68.3043354 L33.6849377,61 L7,61 L7,112.130348 C7,114.808699 9.1833286,117 11.8519361,117 L133.148064,117 C135.816671,117 138,114.808699 138,112.130348 L138,61 L111.314494,61 Z" id="Shape" fill="#65DDE0" fill-rule="nonzero"></path>
                <path d="M22,115 L12.0000977,115 C9.25,115 7,112.97498 7,110.499868 L7,106 L16.9999023,106 C19.75,106 22,108.02502 22,110.500132 L22,115 L22,115 Z" id="Shape" fill="#00C5CA" fill-rule="nonzero"></path>
                <path d="M36.7914554,27 C20.2603817,27 5.91723156,39.1430198 3.48630022,55.6572079 L3,58.5715099 C3,60.0286609 3.97231556,61 5.43093133,61 L34.6032469,61 L34.6032469,53.7142451 C34.6032469,51.0427067 36.7911706,48.8569802 39.4653944,48.8569802 L44.327542,48.8569802 C47.0017659,48.8569802 49.1896896,51.0427067 49.1896896,53.7142451 L49.1896896,61 L97.8103104,61 L97.8103104,53.7142451 C97.8103104,51.0427067 99.9982341,48.8569802 102.672458,48.8569802 L107.534606,48.8569802 C110.208829,48.8569802 112.396753,51.0427067 112.396753,53.7142451 L112.396753,61 L141.569069,61 C143.027684,61 144,60.0286609 144,58.5715099 L143.5137,55.6572079 C141.082484,39.1430198 126.982341,27 110.20826,27 L36.7914554,27 Z" id="Shape" fill="#65DDE0" fill-rule="nonzero"></path>
                <text id="TOOLS" font-family="TitilliumWeb-Black, Titillium Web" font-size="11" font-weight="700" letter-spacing="5" fill="#FFFFFF">
                    <tspan x="47" y="46">TOOL</tspan>
                    <tspan x="92.696" y="46">S</tspan>
                </text>
                <text id="TOOLS" font-family="TitilliumWeb-Black, Titillium Web" font-size="11" font-weight="700" letter-spacing="5" fill="#5A6773">
                    <tspan x="49" y="44">TOOL</tspan>
                    <tspan x="94.696" y="44">S</tspan>
                </text>
                <path d="M142.757208,55.6572079 C140.088487,39.1430198 126.01764,27 109.278073,27 L102,27 C118.739568,27 132.810414,39.1430198 135.236628,55.6572079 L135.721927,58.5715099 C135.721927,60.0286609 134.751612,61 133.295998,61 L140.57407,61 C142.029685,61 143,60.0286609 143,58.5715099 L142.757208,55.6572079 Z" id="Shape" fill="#00C5CA" fill-rule="nonzero"></path>
                <path d="M3.48529962,55.6572079 C5.91151345,39.1430198 20.2248672,27 36.7219271,27 L44,27 C27.2604324,27 13.1895863,39.1430198 10.7633725,55.6572079 L10.2780729,58.5715099 C10.2780729,60.0286609 11.2483878,61 12.7040024,61 L5.42592952,61 C3.97031495,61 3,60.0286609 3,58.5715099 L3.48529962,55.6572079 Z" id="Shape" fill="#FFFFFF" fill-rule="nonzero"></path>
                <path d="M130.800056,61 L130.800056,112.130348 C130.800056,114.808699 128.640073,117 126,117 L133.199944,117 C135.840017,117 138,114.808699 138,112.130348 L138,61 L130.800056,61 Z" id="Shape" fill="#00C5CA" fill-rule="nonzero"></path>
                <path d="M14.1999438,61 L14.1999438,112.130348 C14.1999438,114.808699 16.3599269,117 19,117 L11.8000562,117 C9.15998313,117 7,114.808699 7,112.130348 L7,61 L14.1999438,61 Z" id="Shape" fill="#FFFFFF" fill-rule="nonzero"></path>
                <path d="M124,117 L133.999902,117 C136.75,117 139,114.749978 139,111.999854 L139,107 L129.000098,107 C126.25,107 124,109.250022 124,112.000146 L124,117 Z" id="Shape" fill="#00C5CA" fill-rule="nonzero"></path>
                <path d="M44,73 L39,73 C36.2499561,73 34,70.8400169 34,68.1999438 L34,53.8000562 C34,51.1599831 36.2499561,49 39,49 L44,49 C46.7500439,49 49,51.1599831 49,53.8000562 L49,68.1999438 C49,70.8400169 46.7500439,73 44,73" id="Shape" fill="#00C5CA" fill-rule="nonzero"></path>
                <path d="M102,73 C99.2499561,73 97,70.8400169 97,68.1999438 L97,53.8000562 C97,51.1599831 99.2499561,49 102,49 L107,49 C109.750044,49 112,51.1599831 112,53.8000562 L112,68.1999438 C111.999707,70.8400169 109.749751,73 107,73 L102,73 Z" id="Shape" fill="#00C5CA" fill-rule="nonzero"></path>
                <path d="M95.5500861,15 L51.4499139,15 C49.9799081,15 49,14.0000781 49,12.5000488 L49,2.49995117 C49,0.999921873 49.9799081,0 51.4499139,0 L95.5500861,0 C97.0200919,0 98,0.999921873 98,2.49995117 L98,12.5000488 C98,14.0000781 97.0200919,15 95.5500861,15 Z M53.8998277,10.0000977 L93.0998852,10.0000977 L93.0998852,4.99990234 L53.8998277,4.99990234 L53.8998277,10.0000977 Z" id="Shape" fill="#5A6772" fill-rule="nonzero"></path>
                <path d="M104.571784,29 L41.4285003,29 C39.9713432,29 39,28.04009 39,26.6000844 L39,7.39991562 C39,5.95991 39.9713432,5 41.4285003,5 L51.1427859,5 C52.599943,5 53.5712862,5.95991 53.5712862,7.39991562 L53.5712862,9.79983125 L92.4287135,9.79983125 L92.4287135,7.39991562 C92.4287135,5.95991 93.4000567,5 94.8572138,5 L104.571499,5 C106.028657,5 107,5.95991 107,7.39991562 L107,26.6000844 C107.000569,28.04009 106.028941,29 104.571784,29 Z M43.8570005,24.2001688 L102.143284,24.2001688 L102.143284,9.8001125 L97.2859987,9.8001125 L97.2859987,12.2000281 C97.2859987,13.6400338 96.3146555,14.5999437 94.8574984,14.5999437 L51.1427859,14.5999437 C49.6856289,14.5999437 48.7142857,13.6400338 48.7142857,12.2000281 L48.7142857,9.8001125 L43.8570005,9.8001125 L43.8570005,24.2001688 Z" id="Shape" fill="#5A6772" fill-rule="nonzero"></path>
                <path d="M141.132963,64 L111.93302,64 C110.473023,64 109.499786,63.0251 109.499786,61.5626071 L109.499786,54.2501428 C109.499786,52.78765 108.52655,51.8127499 107.066553,51.8127499 L102.1998,51.8127499 C100.739803,51.8127499 99.7665669,52.78765 99.7665669,54.2501428 L99.7665669,61.5626071 C99.7665669,63.0251 98.7933305,64 97.3333333,64 L48.6666667,64 C47.2066695,64 46.2334331,63.0251 46.2334331,61.5626071 L46.2334331,54.2501428 C46.2334331,52.78765 45.2601968,51.8127499 43.8001996,51.8127499 L38.9334474,51.8127499 C37.4734502,51.8127499 36.5002139,52.78765 36.5002139,54.2501428 L36.5002139,61.5626071 C36.5002139,63.0251 35.5269775,64 34.0669803,64 L4.86703737,64 C2.18999572,64 0,61.8062607 0,59.1249286 L0,58.6373358 L0.486760768,55.71235 C3.16351726,37.9187821 18.2499644,25 36.2566909,25 L109.743309,25 C127.750036,25 142.836483,37.9187821 145.513239,55.71235 L146,58.6373358 L146,59.1249286 C145.999715,61.8062607 143.809719,64 141.132963,64 Z M114.366538,59.1249286 L141.133248,59.1249286 L140.646487,56.4435965 C138.213253,41.0874214 125.316517,29.8750714 109.743309,29.8750714 L36.2566909,29.8750714 C20.683483,29.8750714 7.78674651,41.0874214 5.35351298,56.4435965 L4.86675221,59.1249286 L31.6334617,59.1249286 L31.6334617,54.2498572 C31.6334617,50.1060322 34.7966938,46.9373929 38.9334474,46.9373929 L43.7999145,46.9373929 C47.9366681,46.9373929 51.0999002,50.1060322 51.0999002,54.2498572 L51.0999002,59.1249286 L94.8998146,59.1249286 L94.8998146,54.2498572 C94.8998146,50.1060322 98.0630468,46.9373929 102.1998,46.9373929 L107.066553,46.9373929 C111.203306,46.9373929 114.366538,50.1060322 114.366538,54.2498572 L114.366538,59.1249286 Z" id="Shape" fill="#5A6772" fill-rule="nonzero"></path>
                <path d="M133.471782,118 L12.2857397,118 C8.157059,118 5,114.639901 5,110.799989 L5,60.39991 C5,58.9599077 5.97133709,58 7.42848503,58 L34.1429588,58 C35.6001067,58 36.5714438,58.9599077 36.5714438,60.39991 L36.5714438,67.5999212 C36.5714438,69.0399235 37.5427809,69.9998312 38.9999289,69.9998312 L43.8571835,69.9998312 C45.3143315,69.9998312 46.2856685,69.0399235 46.2856685,67.5999212 L46.2856685,60.39991 C46.2856685,58.9599077 47.2570056,58 48.7141536,58 L97.2858464,58 C98.7429944,58 99.7143315,58.9599077 99.7143315,60.39991 L99.7143315,67.5999212 C99.7143315,69.0399235 100.685669,69.9998312 102.142816,69.9998312 L107.000071,69.9998312 C108.457219,69.9998312 109.428556,69.0399235 109.428556,67.5999212 L109.428556,60.39991 C109.428556,58.9599077 110.399893,58 111.857041,58 L138.571515,58 C140.028663,58 141,58.9599077 141,60.39991 L141,110.799989 C140.757521,114.639901 137.600462,118 133.471782,118 Z M9.61420694,62.79982 L9.61420694,110.799989 C9.61420694,112.239991 10.8285918,113.199899 12.042692,113.199899 L133.471782,113.199899 C134.92893,113.199899 135.900267,111.999803 135.900267,110.799989 L135.900267,62.79982 L114.043048,62.79982 L114.043048,67.5999212 C114.043048,71.6800214 110.885989,74.7999325 106.757308,74.7999325 L101.900338,74.7999325 C97.7716573,74.7999325 94.6145983,71.6800214 94.6145983,67.5999212 L94.6145983,62.79982 L50.9001601,62.79982 L50.9001601,67.5999212 C50.9001601,71.6800214 47.7431011,74.7999325 43.6144204,74.7999325 L38.7571657,74.7999325 C34.628485,74.7999325 31.471426,71.6800214 31.471426,67.5999212 L31.471426,62.79982 L9.61420694,62.79982 Z" id="Shape" fill="#5A6772" fill-rule="nonzero"></path>
                <path d="M22.5000732,119 L12.5000732,119 C8.24993408,119 5,115.499902 5,111.5 L5,106.499902 C5,104.999902 5.99991211,104 7.49992676,104 L17.4999268,104 C21.7500659,104 25,107.500098 25,111.5 L25,116.500098 C25,117.999805 24.0000879,119 22.5000732,119 Z M9.99985351,108.999805 L9.99985351,111.499707 C9.99985351,112.999707 11.2499634,113.999609 12.4997803,113.999609 L19.9998535,113.999609 L19.9998535,111.499707 C19.9998535,109.999707 18.7497436,108.999805 17.4999268,108.999805 L9.99985351,108.999805 Z" id="Shape" fill="#5A6772" fill-rule="nonzero"></path>
                <path d="M133.499927,119 L123.499927,119 C121.999912,119 121,118.000098 121,116.500098 L121,111.5 C121,107.249902 124.500132,104 128.500073,104 L138.500073,104 C140.000088,104 141,104.999902 141,106.499902 L141,111.5 C141,115.499902 137.750066,119 133.499927,119 Z M125.999854,113.999902 L133.499927,113.999902 C134.999941,113.999902 135.999854,112.749805 135.999854,111.5 L135.999854,109.000098 L128.49978,109.000098 C126.999766,109.000098 125.999854,110.250195 125.999854,111.5 L125.999854,113.999902 Z" id="Shape" fill="#5A6772" fill-rule="nonzero"></path>
                <path d="M114.55593,109 L31.4443569,109 C29.9776855,109 29,108.000059 29,106.5 C29,104.999941 29.9776855,104 31.4443569,104 L114.555643,104 C116.022315,104 117,104.999941 117,106.5 C117,108.000059 116.022601,109 114.55593,109 Z" id="Shape" fill="#5A6772" fill-rule="nonzero"></path>
                <path d="M114.55593,99 L31.4443569,99 C29.9776855,99 29,98.0000586 29,96.5 C29,94.9999414 29.9776855,94 31.4443569,94 L114.555643,94 C116.022315,94 117,94.9999414 117,96.5 C117,98.0000586 116.022601,99 114.55593,99 Z" id="Shape" fill="#5A6772" fill-rule="nonzero"></path>
            </g>
        </g>
    </g>
</svg>