<svg width="67" height="50" viewBox="0 0 67 50" fill="none" xmlns="http://www.w3.org/2000/svg">
<path fill-rule="evenodd" clip-rule="evenodd" d="M0 24.7945C0 24.4245 0.299969 24.1245 0.67 24.1245H18.051C18.421 24.1245 18.721 24.4245 18.721 24.7945C18.721 25.1645 18.421 25.4645 18.051 25.4645H1.34V48.5495H65.168V25.4645H47.995C47.625 25.4645 47.325 25.1645 47.325 24.7945C47.325 24.4245 47.625 24.1245 47.995 24.1245H65.838C66.208 24.1245 66.508 24.4245 66.508 24.7945V49.2195C66.508 49.5895 66.208 49.8895 65.838 49.8895H0.67C0.299969 49.8895 0 49.5895 0 49.2195V24.7945Z" fill="#365066"/>
<path fill-rule="evenodd" clip-rule="evenodd" d="M18.1963 17.274C18.1963 16.904 18.4963 16.604 18.8663 16.604H47.6413C48.0113 16.604 48.3113 16.904 48.3113 17.274V48.622C48.3113 48.992 48.0113 49.292 47.6413 49.292C47.2713 49.292 46.9713 48.992 46.9713 48.622V17.944H19.5363V48.622C19.5363 48.992 19.2363 49.292 18.8663 49.292C18.4963 49.292 18.1963 48.992 18.1963 48.622V17.274Z" fill="#365066"/>
<path fill-rule="evenodd" clip-rule="evenodd" d="M32.584 0.67C32.584 0.299969 32.884 0 33.254 0H41.394C41.764 0 42.064 0.299969 42.064 0.67V7.352C42.064 7.72203 41.764 8.022 41.394 8.022H33.924V10.247C33.924 10.617 33.624 10.917 33.254 10.917C32.884 10.917 32.584 10.617 32.584 10.247V0.67ZM33.924 6.682H40.724V1.34H33.924V6.682Z" fill="#365066"/>
<path fill-rule="evenodd" clip-rule="evenodd" d="M25.6366 41.237C24.9426 41.237 24.3366 41.8317 24.3366 42.598V49.164C24.3366 49.534 24.0366 49.834 23.6666 49.834C23.2966 49.834 22.9966 49.534 22.9966 49.164V42.598C22.9966 41.1302 24.1645 39.897 25.6366 39.897C27.1094 39.897 28.2776 41.13 28.2776 42.598V49.164C28.2776 49.534 27.9776 49.834 27.6076 49.834C27.2376 49.834 26.9376 49.534 26.9376 49.164V42.598C26.9376 41.8319 26.3318 41.237 25.6366 41.237Z" fill="#365066"/>
<path fill-rule="evenodd" clip-rule="evenodd" d="M33.4383 41.237C32.7444 41.237 32.1383 41.8317 32.1383 42.598V49.164C32.1383 49.534 31.8384 49.834 31.4683 49.834C31.0983 49.834 30.7983 49.534 30.7983 49.164V42.598C30.7983 41.1302 31.9663 39.897 33.4383 39.897C34.9112 39.897 36.0793 41.13 36.0793 42.598V49.164C36.0793 49.534 35.7794 49.834 35.4093 49.834C35.0393 49.834 34.7393 49.534 34.7393 49.164V42.598C34.7393 41.8319 34.1335 41.237 33.4383 41.237Z" fill="#365066"/>
<path fill-rule="evenodd" clip-rule="evenodd" d="M41.2401 41.237C40.5461 41.237 39.9401 41.8317 39.9401 42.598V49.164C39.9401 49.534 39.6401 49.834 39.2701 49.834C38.9001 49.834 38.6001 49.534 38.6001 49.164V42.598C38.6001 41.1302 39.7681 39.897 41.2401 39.897C42.7129 39.897 43.8811 41.13 43.8811 42.598V49.164C43.8811 49.534 43.5811 49.834 43.2111 49.834C42.8411 49.834 42.5411 49.534 42.5411 49.164V42.598C42.5411 41.8319 41.9353 41.237 41.2401 41.237Z" fill="#365066"/>
<path fill-rule="evenodd" clip-rule="evenodd" d="M25.6366 27.1171C24.9426 27.1171 24.3366 27.7118 24.3366 28.4781V35.0441C24.3366 35.4141 24.0366 35.7141 23.6666 35.7141C23.2966 35.7141 22.9966 35.4141 22.9966 35.0441V28.4781C22.9966 27.0104 24.1645 25.7771 25.6366 25.7771C27.1094 25.7771 28.2776 27.0101 28.2776 28.4781V35.0441C28.2776 35.4141 27.9776 35.7141 27.6076 35.7141C27.2376 35.7141 26.9376 35.4141 26.9376 35.0441V28.4781C26.9376 27.712 26.3318 27.1171 25.6366 27.1171Z" fill="#365066"/>
<path fill-rule="evenodd" clip-rule="evenodd" d="M33.4383 27.1171C32.7444 27.1171 32.1383 27.7118 32.1383 28.4781V35.0441C32.1383 35.4141 31.8384 35.7141 31.4683 35.7141C31.0983 35.7141 30.7983 35.4141 30.7983 35.0441V28.4781C30.7983 27.0104 31.9663 25.7771 33.4383 25.7771C34.9112 25.7771 36.0793 27.0101 36.0793 28.4781V35.0441C36.0793 35.4141 35.7794 35.7141 35.4093 35.7141C35.0393 35.7141 34.7393 35.4141 34.7393 35.0441V28.4781C34.7393 27.712 34.1335 27.1171 33.4383 27.1171Z" fill="#365066"/>
<path fill-rule="evenodd" clip-rule="evenodd" d="M41.2401 27.1171C40.5461 27.1171 39.9401 27.7118 39.9401 28.4781V35.0441C39.9401 35.4141 39.6401 35.7141 39.2701 35.7141C38.9001 35.7141 38.6001 35.4141 38.6001 35.0441V28.4781C38.6001 27.0104 39.7681 25.7771 41.2401 25.7771C42.7129 25.7771 43.8811 27.0101 43.8811 28.4781V35.0441C43.8811 35.4141 43.5811 35.7141 43.2111 35.7141C42.8411 35.7141 42.5411 35.4141 42.5411 35.0441V28.4781C42.5411 27.712 41.9353 27.1171 41.2401 27.1171Z" fill="#365066"/>
<path fill-rule="evenodd" clip-rule="evenodd" d="M18.4824 35.0369C18.4824 34.6669 18.7824 34.3669 19.1524 34.3669H47.6414C48.0115 34.3669 48.3114 34.6669 48.3114 35.0369C48.3114 35.407 48.0115 35.7069 47.6414 35.7069H19.1524C18.7824 35.7069 18.4824 35.407 18.4824 35.0369Z" fill="#365066"/>
<path fill-rule="evenodd" clip-rule="evenodd" d="M18.1963 21.8751C18.1963 21.505 18.4963 21.2051 18.8663 21.2051H47.0213C47.3913 21.2051 47.6913 21.505 47.6913 21.8751C47.6913 22.2451 47.3913 22.5451 47.0213 22.5451H18.8663C18.4963 22.5451 18.1963 22.2451 18.1963 21.8751Z" fill="#365066"/>
<path fill-rule="evenodd" clip-rule="evenodd" d="M10.3457 30.5997C10.3457 30.2297 10.6457 29.9297 11.0157 29.9297H14.7897C15.1597 29.9297 15.4597 30.2297 15.4597 30.5997V34.3737C15.4597 34.7437 15.1597 35.0437 14.7897 35.0437H11.0157C10.6457 35.0437 10.3457 34.7437 10.3457 34.3737V30.5997ZM11.6857 31.2697V33.7037H14.1197V31.2697H11.6857Z" fill="#365066"/>
<path fill-rule="evenodd" clip-rule="evenodd" d="M10.3457 37.9669C10.3457 37.5968 10.6457 37.2969 11.0157 37.2969H14.7897C15.1597 37.2969 15.4597 37.5968 15.4597 37.9669V41.7409C15.4597 42.1109 15.1597 42.4109 14.7897 42.4109H11.0157C10.6457 42.4109 10.3457 42.1109 10.3457 41.7409V37.9669ZM11.6857 38.6369V41.0709H14.1197V38.6369H11.6857Z" fill="#365066"/>
<path fill-rule="evenodd" clip-rule="evenodd" d="M3.34277 30.5997C3.34277 30.2297 3.64274 29.9297 4.01277 29.9297H7.78677C8.1568 29.9297 8.45677 30.2297 8.45677 30.5997V34.3737C8.45677 34.7437 8.1568 35.0437 7.78677 35.0437H4.01277C3.64274 35.0437 3.34277 34.7437 3.34277 34.3737V30.5997ZM4.68277 31.2697V33.7037H7.11677V31.2697H4.68277Z" fill="#365066"/>
<path fill-rule="evenodd" clip-rule="evenodd" d="M3.34277 37.9669C3.34277 37.5968 3.64274 37.2969 4.01277 37.2969H7.78677C8.1568 37.2969 8.45677 37.5968 8.45677 37.9669V41.7409C8.45677 42.1109 8.1568 42.4109 7.78677 42.4109H4.01277C3.64274 42.4109 3.34277 42.1109 3.34277 41.7409V37.9669ZM4.68277 38.6369V41.0709H7.11677V38.6369H4.68277Z" fill="#365066"/>
<path fill-rule="evenodd" clip-rule="evenodd" d="M57.7852 30.5997C57.7852 30.2297 58.0851 29.9297 58.4552 29.9297H62.2292C62.5992 29.9297 62.8992 30.2297 62.8992 30.5997V34.3737C62.8992 34.7437 62.5992 35.0437 62.2292 35.0437H58.4552C58.0851 35.0437 57.7852 34.7437 57.7852 34.3737V30.5997ZM59.1252 31.2697V33.7037H61.5592V31.2697H59.1252Z" fill="#365066"/>
<path fill-rule="evenodd" clip-rule="evenodd" d="M57.7852 37.9669C57.7852 37.5968 58.0851 37.2969 58.4552 37.2969H62.2292C62.5992 37.2969 62.8992 37.5968 62.8992 37.9669V41.7409C62.8992 42.1109 62.5992 42.4109 62.2292 42.4109H58.4552C58.0851 42.4109 57.7852 42.1109 57.7852 41.7409V37.9669ZM59.1252 38.6369V41.0709H61.5592V38.6369H59.1252Z" fill="#365066"/>
<path fill-rule="evenodd" clip-rule="evenodd" d="M50.7817 30.5997C50.7817 30.2297 51.0817 29.9297 51.4517 29.9297H55.2257C55.5958 29.9297 55.8957 30.2297 55.8957 30.5997V34.3737C55.8957 34.7437 55.5958 35.0437 55.2257 35.0437H51.4517C51.0817 35.0437 50.7817 34.7437 50.7817 34.3737V30.5997ZM52.1217 31.2697V33.7037H54.5557V31.2697H52.1217Z" fill="#365066"/>
<path fill-rule="evenodd" clip-rule="evenodd" d="M50.7817 37.9669C50.7817 37.5968 51.0817 37.2969 51.4517 37.2969H55.2257C55.5958 37.2969 55.8957 37.5968 55.8957 37.9669V41.7409C55.8957 42.1109 55.5958 42.4109 55.2257 42.4109H51.4517C51.0817 42.4109 50.7817 42.1109 50.7817 41.7409V37.9669ZM52.1217 38.6369V41.0709H54.5557V38.6369H52.1217Z" fill="#365066"/>
<path fill-rule="evenodd" clip-rule="evenodd" d="M33.2541 11.7726C29.3585 11.7726 26.0163 14.1468 24.598 17.5306C24.455 17.8719 24.0624 18.0326 23.7211 17.8895C23.3798 17.7465 23.2192 17.3539 23.3622 17.0126C24.9819 13.1484 28.7998 10.4326 33.2541 10.4326C37.7074 10.4326 41.5253 13.1484 43.145 17.0105C43.2881 17.3517 43.1275 17.7444 42.7862 17.8875C42.445 18.0306 42.0524 17.87 41.9092 17.5287C40.4909 14.1469 37.1488 11.7726 33.2541 11.7726Z" fill="#365066"/>
</svg>
