<?xml version="1.0" encoding="utf-8"?>
<svg width="366" height="261" viewBox="0 0 366 261" fill="none" xmlns="http://www.w3.org/2000/svg">
  <g opacity="0.4" filter="url(#filter0_f)">
    <path fill-rule="evenodd" clip-rule="evenodd"
          d="M264.506 218.678L328.147 37.5989L37.2843 122.331L116.123 137.918L116.152 137.904V138.114L136.092 223.726L193.09 168.487L264.506 218.678Z"
          fill="#BBBBBB"/>
  </g>
  <path d="M116.26 102.29L136.553 189.414L332 0L116.26 101.658V102.29Z" fill="url(#paint0_radial)"/>
  <path d="M332 0L116.231 102.091L36 86.2288L332 0Z" fill="url(#paint1_linear)"/>
  <path d="M136.165 189.414L332 0L178.124 121.908L136.165 189.414Z" fill="url(#paint2_radial)"/>
  <path d="M332 0L267.234 184.277L177.9 121.996L332 0Z" fill="url(#paint3_radial)"/>
  <path
    d="M115.323 103.075L36 86.9641L116.26 102.091L136.234 187.299L177.9 121.995L266.507 184.027L178.354 123.327L136.108 189.414L115.323 103.075Z"
    fill="white"/>
  <defs>
    <filter id="filter0_f" x="0.229584" y="0.544174" width="364.972" height="260.236" filterUnits="userSpaceOnUse"
            color-interpolation-filters="sRGB">
      <feFlood flood-opacity="0" result="BackgroundImageFix"/>
      <feBlend mode="normal" in="SourceGraphic" in2="BackgroundImageFix" result="shape"/>
      <feGaussianBlur stdDeviation="18.5274" result="effect1_foregroundBlur"/>
    </filter>
    <radialGradient id="paint0_radial" cx="0" cy="0" r="1" gradientUnits="userSpaceOnUse"
                    gradientTransform="translate(332.601 -0.777909) scale(305.903 268.575)">
      <stop stop-color="#E0E0E0"/>
      <stop offset="1" stop-color="#EEEEEE"/>
    </radialGradient>
    <linearGradient id="paint1_linear" x1="208.463" y1="-49.4846" x2="139.372" y2="122.998"
                    gradientUnits="userSpaceOnUse">
      <stop stop-color="#EEEEEE"/>
      <stop offset="0.00221579" stop-color="#EEEEEE"/>
      <stop offset="1" stop-color="#F8F8F8"/>
    </linearGradient>
    <radialGradient id="paint2_radial" cx="0" cy="0" r="1" gradientUnits="userSpaceOnUse"
                    gradientTransform="translate(234.085 94.7071) scale(96.4556 93.2932)">
      <stop stop-color="#C4C4C4"/>
      <stop offset="0.44" stop-color="#C7C7C7"/>
      <stop offset="0.79" stop-color="#D1D0D0"/>
      <stop offset="1" stop-color="#DBDADA"/>
    </radialGradient>
    <radialGradient id="paint3_radial" cx="0" cy="0" r="1" gradientUnits="userSpaceOnUse"
                    gradientTransform="translate(182.295 132.497) scale(154.068 184.24)">
      <stop stop-color="#F7F7F7"/>
      <stop offset="0.48" stop-color="#F4F4F4"/>
      <stop offset="1" stop-color="#E7E7E7"/>
    </radialGradient>
  </defs>
</svg>
