<svg xmlns="http://www.w3.org/2000/svg" viewBox="0 0 160 160"><defs><style>.cls-1{fill:none;}.cls-2{fill:#f0f6fc;}.cls-3{fill:#fff;}.cls-4{fill:#365066;}.cls-5{fill:#50a7ef;}.cls-6{fill:#2079d4;}</style></defs><g id="questionario_pianifica"><rect class="cls-1" width="160" height="160"/><path class="cls-2" d="M79,150A70,70,0,1,0,9,80,70,70,0,0,0,79,150Z"/><rect class="cls-3" x="33.5" y="21.5" width="93" height="121" rx="4.48"/><path class="cls-4" d="M122,23a3,3,0,0,1,3,3V138a3,3,0,0,1-3,3H38a3,3,0,0,1-3-3V26a3,3,0,0,1,3-3h84m0-3H38a6,6,0,0,0-6,6V138a6,6,0,0,0,6,6h84a6,6,0,0,0,6-6V26a6,6,0,0,0-6-6Z"/><rect class="cls-3" x="98.5" y="55.5" width="17" height="17"/><path class="cls-4" d="M114,57V71H100V57h14m3-3H97V74h20V54Z"/><rect class="cls-3" x="72.5" y="55.5" width="17" height="17"/><path class="cls-4" d="M88,57V71H74V57H88m3-3H71V74H91V54Z"/><rect class="cls-3" x="46.5" y="55.5" width="17" height="17"/><path class="cls-4" d="M62,57V71H48V57H62m3-3H45V74H65V54Z"/><rect class="cls-3" x="98.5" y="85.5" width="17" height="17"/><path class="cls-4" d="M114,87v14H100V87h14m3-3H97v20h20V84Z"/><rect class="cls-3" x="72.5" y="85.5" width="17" height="17"/><path class="cls-4" d="M88,87v14H74V87H88m3-3H71v20H91V84Z"/><rect class="cls-3" x="46.5" y="85.5" width="17" height="17"/><path class="cls-4" d="M62,87v14H48V87H62m3-3H45v20H65V84Z"/><rect class="cls-5" x="45" y="122" width="33" height="6"/><rect class="cls-6" x="46.95" y="53.95" width="33" height="6" transform="translate(-21.69 61.55) rotate(-45)"/><rect class="cls-6" x="38.95" y="58.55" width="20" height="6" transform="translate(40.05 139.68) rotate(-135)"/><path class="cls-4" d="M101,14H90V10a3,3,0,0,0-3-3H72a3,3,0,0,0-3,3v4H59a3,3,0,0,0-3,3V31h48V17A3,3,0,0,0,101,14Z"/></g></svg>