<svg width="213" height="213" viewBox="0 0 213 213" fill="none" xmlns="http://www.w3.org/2000/svg">
<path d="M144.807 63.3578C144.851 62.9136 144.796 62.4651 144.646 62.0448C144.496 61.6244 144.254 61.2426 143.939 60.927C143.623 60.6114 143.241 60.3698 142.821 60.2196C142.4 60.0694 141.952 60.0145 141.508 60.0587L116.445 63.3401H116.356L112.578 67.1004L72.4567 107.328L70.5233 109.262L70.0444 109.741C70.0029 109.79 69.9672 109.843 69.938 109.9C67.3902 112.756 66.0314 116.479 66.1402 120.304C66.249 124.13 67.8173 127.769 70.5233 130.476L74.3901 134.342C77.0872 137.042 80.7135 138.61 84.5279 138.725C88.3422 138.84 92.0567 137.495 94.9121 134.963H95.0894L95.6038 134.431L97.5549 132.409L137.677 92.234L141.437 88.456H141.526L144.807 63.3578ZM78.1504 130.582L74.2836 126.715C72.792 125.214 71.8321 123.266 71.5503 121.169C71.2685 119.071 71.6802 116.939 72.7228 115.097L89.786 132.161C87.9405 133.205 85.8036 133.616 83.7023 133.331C81.6009 133.046 79.6508 132.081 78.1504 130.582V130.582ZM93.7769 128.649L76.2702 111.089L116.356 70.9493L133.916 88.5092L93.7769 128.649ZM121.021 68.0936L139.131 65.7346L136.772 83.8443L121.021 68.0936ZM86.2563 116.108L82.4783 112.348L115.097 79.818L118.84 83.5073L86.2563 116.108ZM109.084 26.6062V18.6245C109.084 17.9188 108.804 17.2421 108.305 16.7431C107.806 16.2442 107.129 15.9639 106.424 15.9639C105.718 15.9639 105.041 16.2442 104.542 16.7431C104.043 17.2421 103.763 17.9188 103.763 18.6245V26.6062H17.7373V153.605C17.7373 156.145 18.7464 158.581 20.5427 160.378C22.3389 162.174 24.7751 163.183 27.3154 163.183H103.763V193.336H109.084V163.183H185.532C188.072 163.183 190.508 162.174 192.304 160.378C194.101 158.581 195.11 156.145 195.11 153.605V26.6062H109.084ZM189.789 153.605C189.784 154.732 189.334 155.813 188.537 156.61C187.739 157.407 186.659 157.857 185.532 157.862H27.3154C26.1878 157.857 25.1078 157.407 24.3105 156.61C23.5131 155.813 23.0631 154.732 23.0585 153.605V31.9274H189.789V153.605ZM114.459 163.183H120.613L140.124 195.11H134.147L114.459 163.183ZM74.4965 195.11L94.0075 163.183H100.428L80.6691 195.11H74.4965Z" fill="white"/>
</svg>
