<svg width="376" height="88" viewBox="0 0 376 88" fill="none" xmlns="http://www.w3.org/2000/svg">
<path fill-rule="evenodd" clip-rule="evenodd" d="M33.7041 69.3147V28.4234H44.4851V69.3874H33.7041V69.3147ZM76.0424 37.7367H66.1897V54.5443C66.1897 56.2178 66.261 57.3092 66.3324 58.0368C66.4038 58.6917 66.6894 59.2738 67.1892 59.7831C67.689 60.2924 68.4743 60.5107 69.5453 60.5107L75.6854 60.3652L76.1852 69.0964C72.6154 69.8968 69.8309 70.3333 67.9746 70.3333C63.1196 70.3333 59.8353 69.2419 58.1218 66.9864C56.3369 64.8035 55.4801 60.729 55.4801 54.7626V17H66.261V28.3506H76.1138V37.7367H76.0424ZM17.4971 40.8654C15.6408 40.8654 14.0701 40.2106 12.8563 38.9009C11.6426 37.5912 11 35.9904 11 34.0987C11 32.2069 11.6426 30.6062 12.7849 29.2965C13.9987 27.9868 15.5694 27.4047 17.4257 27.4047C19.282 27.4047 20.8527 28.0596 22.0665 29.3693C23.2802 30.6789 23.8514 32.2797 23.8514 34.2442C23.8514 36.2087 23.2802 37.7367 22.0665 39.0464C20.9241 40.2106 19.4248 40.8654 17.4971 40.8654Z" fill="#0066CC"/>
<path d="M118.12 59H108.96V31.8H118.12C120.467 31.8 122.4 32.0533 123.92 32.56C125.44 33.04 126.613 33.8533 127.44 35C128.293 36.12 128.88 37.4533 129.2 39C129.52 40.52 129.68 42.5067 129.68 44.96C129.68 47.4133 129.533 49.4533 129.24 51.08C128.947 52.68 128.387 54.12 127.56 55.4C126.76 56.6533 125.587 57.5733 124.04 58.16C122.493 58.72 120.52 59 118.12 59ZM123.92 48.2C123.973 47.3467 124 46.1733 124 44.68C124 43.16 123.947 41.9467 123.84 41.04C123.733 40.1333 123.48 39.3067 123.08 38.56C122.68 37.8133 122.08 37.3067 121.28 37.04C120.507 36.7467 119.453 36.6 118.12 36.6H114.48V54.2H118.12C120.12 54.2 121.573 53.6933 122.48 52.68C123.253 51.8533 123.733 50.36 123.92 48.2ZM138.388 51.28C138.414 52.5067 138.734 53.4 139.348 53.96C139.988 54.4933 140.894 54.76 142.068 54.76C144.548 54.76 146.761 54.68 148.708 54.52L149.828 54.4L149.908 58.36C146.841 59.1067 144.068 59.48 141.588 59.48C138.574 59.48 136.388 58.68 135.028 57.08C133.668 55.48 132.988 52.88 132.988 49.28C132.988 42.1067 135.934 38.52 141.828 38.52C147.641 38.52 150.548 41.5333 150.548 47.56L150.148 51.28H138.388ZM145.268 47.2C145.268 45.6 145.014 44.4933 144.508 43.88C144.001 43.24 143.108 42.92 141.828 42.92C140.574 42.92 139.681 43.2533 139.148 43.92C138.641 44.56 138.374 45.6533 138.348 47.2H145.268ZM168.738 44C165.432 43.5733 163.112 43.36 161.778 43.36C160.472 43.36 159.618 43.48 159.218 43.72C158.845 43.96 158.658 44.3467 158.658 44.88C158.658 45.3867 158.912 45.7467 159.418 45.96C159.952 46.1467 161.285 46.44 163.418 46.84C165.578 47.2133 167.112 47.84 168.018 48.72C168.925 49.6 169.378 51.0267 169.378 53C169.378 57.32 166.698 59.48 161.338 59.48C159.578 59.48 157.445 59.24 154.938 58.76L153.658 58.52L153.818 54.04C157.125 54.4667 159.418 54.68 160.698 54.68C162.005 54.68 162.885 54.56 163.338 54.32C163.818 54.0533 164.058 53.6667 164.058 53.16C164.058 52.6533 163.805 52.28 163.298 52.04C162.818 51.8 161.538 51.5067 159.458 51.16C157.405 50.8133 155.872 50.2267 154.858 49.4C153.845 48.5733 153.338 47.1067 153.338 45C153.338 42.8667 154.058 41.2667 155.498 40.2C156.938 39.1067 158.792 38.56 161.058 38.56C162.632 38.56 164.778 38.8133 167.498 39.32L168.818 39.56L168.738 44ZM173.246 59V39H178.606V59H173.246ZM173.246 36.44V31H178.606V36.44H173.246ZM201.678 61.48C201.678 63.7733 200.798 65.4667 199.038 66.56C197.278 67.6533 194.891 68.2 191.878 68.2C188.891 68.2 186.585 67.8 184.958 67C183.358 66.2 182.558 64.7467 182.558 62.64C182.558 60.96 183.518 59.3733 185.438 57.88C184.451 57.2133 183.958 56.2 183.958 54.84C183.958 54.3067 184.358 53.4267 185.158 52.2L185.518 51.64C183.705 50.3333 182.798 48.4133 182.798 45.88C182.798 43.32 183.558 41.4667 185.078 40.32C186.625 39.1733 188.665 38.6 191.198 38.6C192.345 38.6 193.478 38.7333 194.598 39L195.238 39.12L201.678 38.92V43.2L198.678 42.96C199.265 43.8667 199.558 44.7733 199.558 45.68C199.558 48.3467 198.878 50.1867 197.518 51.2C196.158 52.2133 194.025 52.72 191.118 52.72C190.505 52.72 189.958 52.6667 189.478 52.56C189.211 53.2533 189.078 53.8267 189.078 54.28C189.078 54.7067 189.305 55 189.758 55.16C190.211 55.32 191.278 55.4133 192.958 55.44C196.318 55.4667 198.611 55.92 199.838 56.8C201.065 57.6533 201.678 59.2133 201.678 61.48ZM187.838 62.08C187.838 63.2267 189.238 63.8 192.038 63.8C194.865 63.8 196.278 63.1333 196.278 61.8C196.278 61.08 196.038 60.6133 195.558 60.4C195.078 60.2133 194.065 60.1067 192.518 60.08L188.918 59.8C188.198 60.52 187.838 61.28 187.838 62.08ZM188.158 45.72C188.158 47.6667 189.171 48.64 191.198 48.64C193.251 48.64 194.278 47.6667 194.278 45.72C194.278 43.7467 193.251 42.76 191.198 42.76C189.171 42.76 188.158 43.7467 188.158 45.72ZM210.285 59H204.925V39H210.245V40.12C212.059 39.0533 213.725 38.52 215.245 38.52C217.912 38.52 219.752 39.3067 220.765 40.88C221.779 42.4533 222.285 44.88 222.285 48.16V59H216.925V48.32C216.925 46.6133 216.725 45.36 216.325 44.56C215.925 43.7333 215.125 43.32 213.925 43.32C212.832 43.32 211.779 43.5067 210.765 43.88L210.285 44.04V59ZM231.435 51.28C231.461 52.5067 231.781 53.4 232.395 53.96C233.035 54.4933 233.941 54.76 235.115 54.76C237.595 54.76 239.808 54.68 241.755 54.52L242.875 54.4L242.955 58.36C239.888 59.1067 237.115 59.48 234.635 59.48C231.621 59.48 229.435 58.68 228.075 57.08C226.715 55.48 226.035 52.88 226.035 49.28C226.035 42.1067 228.981 38.52 234.875 38.52C240.688 38.52 243.595 41.5333 243.595 47.56L243.195 51.28H231.435ZM238.315 47.2C238.315 45.6 238.061 44.4933 237.555 43.88C237.048 43.24 236.155 42.92 234.875 42.92C233.621 42.92 232.728 43.2533 232.195 43.92C231.688 44.56 231.421 45.6533 231.395 47.2H238.315ZM247.425 59V39H252.745V41.12C254.985 39.7867 257.119 38.92 259.145 38.52V43.92C256.985 44.3733 255.132 44.84 253.585 45.32L252.785 45.6V59H247.425ZM276.668 44C273.361 43.5733 271.041 43.36 269.708 43.36C268.401 43.36 267.548 43.48 267.148 43.72C266.775 43.96 266.588 44.3467 266.588 44.88C266.588 45.3867 266.841 45.7467 267.348 45.96C267.881 46.1467 269.215 46.44 271.348 46.84C273.508 47.2133 275.041 47.84 275.948 48.72C276.855 49.6 277.308 51.0267 277.308 53C277.308 57.32 274.628 59.48 269.268 59.48C267.508 59.48 265.375 59.24 262.868 58.76L261.588 58.52L261.748 54.04C265.055 54.4667 267.348 54.68 268.628 54.68C269.935 54.68 270.815 54.56 271.268 54.32C271.748 54.0533 271.988 53.6667 271.988 53.16C271.988 52.6533 271.735 52.28 271.228 52.04C270.748 51.8 269.468 51.5067 267.388 51.16C265.335 50.8133 263.801 50.2267 262.788 49.4C261.775 48.5733 261.268 47.1067 261.268 45C261.268 42.8667 261.988 41.2667 263.428 40.2C264.868 39.1067 266.721 38.56 268.988 38.56C270.561 38.56 272.708 38.8133 275.428 39.32L276.748 39.56L276.668 44ZM290.444 59V31.8H295.964V59H290.444ZM312.49 43.56H307.57V51.76C307.57 52.56 307.583 53.1333 307.61 53.48C307.663 53.8 307.81 54.08 308.05 54.32C308.316 54.56 308.716 54.68 309.25 54.68L312.29 54.6L312.53 58.88C310.743 59.28 309.383 59.48 308.45 59.48C306.05 59.48 304.41 58.9467 303.53 57.88C302.65 56.7867 302.21 54.7867 302.21 51.88V43.56H299.85V39H302.21V33.44H307.57V39H312.49V43.56ZM331.3 45.24V53.56C331.353 54.2 331.46 54.6533 331.62 54.92C331.78 55.16 332.113 55.3333 332.62 55.44L332.46 59.48C331.1 59.48 330.007 59.3867 329.18 59.2C328.38 59.0133 327.567 58.64 326.74 58.08C324.82 59.0133 322.86 59.48 320.86 59.48C316.727 59.48 314.66 57.2933 314.66 52.92C314.66 50.7867 315.233 49.28 316.38 48.4C317.527 47.4933 319.287 46.96 321.66 46.8L325.94 46.48V45.24C325.94 44.4133 325.753 43.8533 325.38 43.56C325.007 43.24 324.407 43.08 323.58 43.08L316.06 43.4L315.9 39.68C318.753 38.9067 321.46 38.52 324.02 38.52C326.607 38.52 328.46 39.0533 329.58 40.12C330.727 41.1867 331.3 42.8933 331.3 45.24ZM322.3 50.52C320.807 50.6533 320.06 51.4533 320.06 52.92C320.06 54.3867 320.713 55.12 322.02 55.12C323.033 55.12 324.14 54.96 325.34 54.64L325.94 54.48V50.2L322.3 50.52ZM336.65 59V31H342.01V59H336.65ZM347.191 59V39H352.551V59H347.191ZM347.191 36.44V31H352.551V36.44H347.191ZM372.823 45.24V53.56C372.877 54.2 372.983 54.6533 373.143 54.92C373.303 55.16 373.637 55.3333 374.143 55.44L373.983 59.48C372.623 59.48 371.53 59.3867 370.703 59.2C369.903 59.0133 369.09 58.64 368.263 58.08C366.343 59.0133 364.383 59.48 362.383 59.48C358.25 59.48 356.183 57.2933 356.183 52.92C356.183 50.7867 356.757 49.28 357.903 48.4C359.05 47.4933 360.81 46.96 363.183 46.8L367.463 46.48V45.24C367.463 44.4133 367.277 43.8533 366.903 43.56C366.53 43.24 365.93 43.08 365.103 43.08L357.583 43.4L357.423 39.68C360.277 38.9067 362.983 38.52 365.543 38.52C368.13 38.52 369.983 39.0533 371.103 40.12C372.25 41.1867 372.823 42.8933 372.823 45.24ZM363.823 50.52C362.33 50.6533 361.583 51.4533 361.583 52.92C361.583 54.3867 362.237 55.12 363.543 55.12C364.557 55.12 365.663 54.96 366.863 54.64L367.463 54.48V50.2L363.823 50.52Z" fill="#0066CC"/>
</svg>
