<svg width="376" height="282" viewBox="0 0 376 282" fill="none" xmlns="http://www.w3.org/2000/svg">
<g clip-path="url(#clip0_17_254)">
<path fill-rule="evenodd" clip-rule="evenodd" d="M104 25H272V33H264V93H324V101H320V249H332V257H44V249H56V101H52V93H112V33H104V25ZM120 33V249H148V189H140V181H236V189H228V249H256V33H120ZM264 249H312V101H264V129H300V137H264V173H300V181H264V213H300V221H264V249ZM220 249V189H156V249H220ZM112 249V221H76V213H112V181H76V173H112V137H76V129H112V101H64V249H112ZM172 61H204V85H228V117H204V141H172V117H148V85H172V61ZM180 69V93H156V109H180V133H196V109H220V93H196V69H180Z" fill="#5C6F82"/>
</g>
<defs>
<clipPath id="clip0_17_254">
<rect width="376" height="282" fill="white"/>
</clipPath>
</defs>
</svg>
