<svg width="376" height="282" viewBox="0 0 376 282" fill="none" xmlns="http://www.w3.org/2000/svg">
<g clip-path="url(#clip0_95_391)">
<path fill-rule="evenodd" clip-rule="evenodd" d="M192 16.3203L308 86.7489V113H284V217H300V237H316V245H68V237H84V217H100V113H76V86.7489L192 16.3203ZM108 113V217H120V113H108ZM128 113V217H152V113H128ZM160 113V217H172V113H160ZM180 113V217H204V113H180ZM212 113V217H224V113H212ZM232 113V217H256V113H232ZM264 113V217H276V113H264ZM92 237H292V225H92V237ZM84 92.9998V105H300V92.9998H84ZM289.704 84.9998H94.2957L192 25.6794L289.704 84.9998ZM316 257V265H68V257H316Z" fill="#5C6F82"/>
</g>
<defs>
<clipPath id="clip0_95_391">
<rect width="376" height="282" fill="white"/>
</clipPath>
</defs>
</svg>
