<svg width="132" height="132" viewBox="0 0 132 132" fill="none" xmlns="http://www.w3.org/2000/svg">
<g clip-path="url(#clip0_794_56766)">
<path d="M129.325 110.799H0" stroke="#5A5A5A" stroke-miterlimit="10"/>
<path d="M16.877 104.796C29.0878 63.9756 88.4354 20.8029 99.8557 52.3102C101.703 57.406 95.6086 60.6065 94.2518 53.9463C93.2856 49.2026 96.8826 41.4539 105.451 37.6992" stroke="#5A5A5A" stroke-miterlimit="10" stroke-dasharray="5 5"/>
<path d="M93.0176 34.9357L132 20.7207L101.545 36.1134L93.0176 34.9357Z" fill="#EAF4FE"/>
<path d="M104.036 43.5868L132.001 20.7207L101.545 36.1134L104.036 43.5868Z" fill="#9AC7F7"/>
<path d="M93.1152 34.9165L110.468 31.6074L101.983 35.9095L93.1152 34.9165Z" fill="#003C77"/>
<path d="M93.0176 34.9357L110.029 31.8105L101.545 36.1134L93.0176 34.9357Z" fill="#0058B0"/>
<path d="M104.036 43.5861L110.705 37.8446L110.468 31.6074L101.545 36.1128L104.036 43.5861Z" fill="#003C77"/>
<path d="M104.035 43.5868L132 20.7207L107.717 37.8636L104.035 43.5868Z" fill="#0561FC"/>
<path d="M119.491 47.1853L131.999 20.7207L107.717 37.8636L119.491 47.1853Z" fill="#C5E1F9"/>
<path d="M119.492 47.1853L113.643 33.7246L107.939 37.6904L119.492 47.1853Z" fill="#003C77"/>
<path d="M119.491 47.1841L113.42 33.8965L107.717 37.8624L119.491 47.1841Z" fill="#0058B0"/>
<path d="M91.8074 64.0405L58.1756 31.9201C57.8556 31.5655 57.5094 31.2355 57.14 30.9328L56.8097 30.6173C56.8097 30.6173 56.7968 30.6218 56.7735 30.6303C55.1457 29.3891 53.1553 28.7168 51.1082 28.7168C49.0611 28.7168 47.0707 29.3891 45.4428 30.6303C45.4195 30.6218 45.4066 30.6173 45.4066 30.6173L45.0763 30.9328C44.7068 31.2356 44.3606 31.5656 44.0405 31.9201L10.4086 64.0405C10.0551 64.3939 9.77492 64.8136 9.58414 65.2756C9.39335 65.7377 9.29573 66.2328 9.29689 66.7326V104.738C9.29696 106.251 9.89772 107.7 10.9669 108.77C12.0361 109.839 13.4863 110.439 14.9984 110.439H87.2181C88.73 110.439 90.1804 109.839 91.2495 108.77C92.3185 107.7 92.9194 106.251 92.9194 104.738V66.7326C92.921 66.2328 92.8227 65.7377 92.6324 65.2757C92.4413 64.8136 92.1612 64.3939 91.8074 64.0405Z" fill="#D98F00"/>
<path d="M64.5454 87.7696C71.9673 80.3477 71.9673 68.3146 64.5454 60.8927C57.1234 53.4707 45.09 53.4707 37.6681 60.8927C30.2461 68.3146 30.2461 80.3477 37.6681 87.7696C45.09 95.1923 57.1234 95.1923 64.5454 87.7696Z" stroke="#2094F1" stroke-width="0.07778" stroke-miterlimit="10"/>
<path d="M87.2174 99.0373V55.3256L66.3119 34.4199H20.6995C19.1874 34.42 17.7373 35.0208 16.6681 36.09C15.5989 37.1592 14.9981 38.6094 14.998 40.1215V99.0373H87.2174Z" fill="#EAF4FE"/>
<path d="M87.2181 110.44H14.9984C13.4863 110.44 12.0361 109.839 10.9669 108.77C9.89771 107.701 9.29695 106.251 9.29688 104.739V66.7285L87.2181 110.44Z" fill="#FFBF0D"/>
<path d="M14.998 110.44H87.2174C88.7293 110.44 90.1797 109.839 91.2488 108.77C92.3186 107.701 92.9187 106.251 92.9187 104.739V66.7285L14.998 110.44Z" fill="#FECE40"/>
<path d="M66.3125 34.4199V49.624C66.3124 50.3728 66.4598 51.1142 66.7464 51.8059C67.0329 52.4977 67.4529 53.1262 67.9823 53.6557C68.5118 54.1852 69.1403 54.6051 69.8321 54.8917C70.5238 55.1782 71.2653 55.3256 72.014 55.3256H87.2182L66.3125 34.4199Z" fill="#2A66C4"/>
<path d="M75.9766 59.0918H42.9766V62.929H75.9766V59.0918Z" fill="#C5E1F9"/>
<path d="M75.8136 66.7285H28.3008V70.5296H75.8136V66.7285Z" fill="#C5E1F9"/>
<path d="M62.9301 51.4199H42.9766V55.2571H62.9301V51.4199Z" fill="#C5E1F9"/>
<path fill-rule="evenodd" clip-rule="evenodd" d="M39.9062 51.4199H28.3945V62.9315H39.9062V51.4199Z" fill="#2A66C4"/>
<path fill-rule="evenodd" clip-rule="evenodd" d="M31.0813 56.0063C30.984 56.003 30.887 56.0203 30.7969 56.0573C30.7067 56.0942 30.6255 56.1499 30.5585 56.2206C30.4246 56.368 30.354 56.5621 30.3619 56.7611C30.3565 56.9626 30.4305 57.1582 30.5683 57.3055C30.6349 57.377 30.7161 57.4334 30.8063 57.471C30.8965 57.5087 30.9935 57.5266 31.0912 57.5237C31.1873 57.5271 31.2832 57.5098 31.3721 57.4728C31.461 57.4359 31.5407 57.3801 31.6061 57.3094C31.7386 57.162 31.809 56.9691 31.8026 56.7709C31.8087 56.5711 31.7385 56.3764 31.6061 56.2265C31.5414 56.154 31.4617 56.0967 31.3723 56.0587C31.2829 56.0207 31.1862 56.0028 31.0892 56.0063" fill="white"/>
<path d="M35.1605 58.5H34.1484V60.2886H32.9023V54.1426H35.1605C36.6189 54.1426 37.3481 54.8535 37.3481 56.2751C37.3481 56.9932 37.1614 57.5448 36.788 57.93C36.4145 58.3152 35.872 58.5052 35.1605 58.5ZM34.1484 57.4328H35.1526C35.7737 57.4328 36.0824 57.0397 36.0824 56.2751C36.1101 55.9853 36.0295 55.6954 35.8563 55.4614C35.7643 55.3709 35.6538 55.3013 35.5323 55.2575C35.4109 55.2138 35.2813 55.1968 35.1526 55.2079H34.1484V57.4328Z" fill="white"/>
<path d="M81.9002 110.441C81.5341 110.44 81.1711 110.368 80.8327 110.227C80.4943 110.088 80.1865 109.882 79.9279 109.623C79.6685 109.363 79.4636 109.056 79.3231 108.717C79.1835 108.379 79.1113 108.016 79.1113 107.65V83.4713C79.1113 83.1052 79.1835 82.7422 79.3231 82.4038C79.4636 82.0653 79.6685 81.7576 79.9279 81.4982C80.1865 81.2396 80.4943 81.0339 80.8327 80.8935C81.1711 80.7538 81.5341 80.6816 81.9002 80.6816H117.238C117.978 80.6816 118.688 80.9756 119.211 81.4982C119.734 82.0216 120.029 82.7315 120.03 83.4713V107.65C120.029 108.389 119.734 109.099 119.211 109.623C118.688 110.146 117.978 110.44 117.238 110.441H81.9002Z" fill="#C5E1F9"/>
<path d="M81.9002 110.441C81.5341 110.44 81.1711 110.368 80.8327 110.227C80.4943 110.088 80.1865 109.882 79.9279 109.623C79.6685 109.363 79.4636 109.056 79.3231 108.717C79.1835 108.379 79.1113 108.016 79.1113 107.65V83.4713C79.1113 83.1052 79.1835 82.7422 79.3231 82.4038C79.4636 82.0653 79.6685 81.7576 79.9279 81.4982C80.1865 81.2396 80.4943 81.0339 80.8327 80.8935C81.1711 80.7538 81.5341 80.6816 81.9002 80.6816H117.238C117.978 80.6816 118.688 80.9756 119.211 81.4982C119.734 82.0216 120.029 82.7315 120.03 83.4713V107.65C120.029 108.389 119.734 109.099 119.211 109.623C118.688 110.146 117.978 110.44 117.238 110.441H81.9002Z" fill="#9AC7F7"/>
<path d="M117.238 80.6816H81.9002C81.5341 80.6816 81.1711 80.7538 80.8327 80.8935C80.4943 81.0339 80.1865 81.2396 79.9279 81.4982C79.6685 81.7576 79.4636 82.0653 79.3231 82.4038C79.1835 82.7422 79.1113 83.1052 79.1113 83.4713V84.9325L111.574 110.441H117.238C117.978 110.44 118.688 110.146 119.211 109.623C119.734 109.099 120.029 108.389 120.03 107.65V83.4713C120.029 82.7315 119.734 82.0216 119.211 81.4982C118.688 80.9756 117.978 80.6816 117.238 80.6816Z" fill="#67ACF5"/>
<path d="M99.569 99.2806L120.03 85.0492V83.4713C120.029 82.7315 119.734 82.0216 119.211 81.4982C118.688 80.9756 117.978 80.6816 117.238 80.6816H81.9002C81.5341 80.6816 81.1711 80.7538 80.8327 80.8935C80.4943 81.0339 80.1865 81.2396 79.9279 81.4982C79.6685 81.7576 79.4636 82.0653 79.3231 82.4038C79.1835 82.7422 79.1113 83.1052 79.1113 83.4713V85.0492L99.569 99.2806Z" fill="#C5E1F9"/>
</g>
<defs>
<clipPath id="clip0_794_56766">
<rect width="132" height="132" fill="white"/>
</clipPath>
</defs>
</svg>
