<svg width="589" height="572" viewBox="0 0 589 572" fill="none" xmlns="http://www.w3.org/2000/svg">
<g clip-path="url(#clip0_271_22662)">
<mask id="mask0_271_22662" style="mask-type:luminance" maskUnits="userSpaceOnUse" x="0" y="0" width="589" height="572">
<path d="M589 0H0V572H589V0Z" fill="white"/>
</mask>
<g mask="url(#mask0_271_22662)">
<circle cx="445.689" cy="290.385" r="143.31" fill="#0066CC"/>
<circle cx="130.635" cy="290.385" r="143.31" fill="#0066CC"/>
<path d="M370.671 180.446C371.772 180.527 372.731 179.7 372.813 178.599L374.141 160.648C374.222 159.546 373.395 158.587 372.294 158.506C371.192 158.424 370.233 159.251 370.152 160.353L368.971 176.309L353.015 175.129C351.913 175.047 350.954 175.874 350.873 176.976C350.791 178.077 351.618 179.036 352.72 179.118L370.671 180.446ZM235.951 174.535C269.786 137.88 334.054 138.877 369.304 179.757L372.333 177.145C335.601 134.545 268.546 133.326 233.011 171.821L235.951 174.535Z" fill="white"/>
<path d="M206.201 393.654C205.099 393.58 204.145 394.412 204.07 395.514L202.851 413.473C202.776 414.575 203.609 415.529 204.711 415.604C205.813 415.679 206.767 414.846 206.842 413.744L207.925 397.781L223.889 398.864C224.991 398.939 225.945 398.106 226.02 397.004C226.094 395.902 225.262 394.948 224.16 394.873L206.201 393.654ZM340.954 398.748C307.342 435.607 243.069 435 207.572 394.335L204.559 396.965C241.549 439.342 308.61 440.154 343.91 401.443L340.954 398.748Z" fill="white"/>
<path d="M395.678 339.284C398.61 339.284 401.475 338.415 403.912 336.786C406.35 335.158 408.249 332.843 409.371 330.135C410.493 327.427 410.786 324.447 410.214 321.572C409.643 318.697 408.231 316.056 406.158 313.983C404.086 311.91 401.445 310.499 398.57 309.927C395.695 309.355 392.715 309.649 390.007 310.77C387.298 311.892 384.984 313.792 383.355 316.229C381.727 318.666 380.857 321.532 380.857 324.463C380.855 326.41 381.237 328.338 381.981 330.138C382.725 331.937 383.817 333.572 385.193 334.948C386.57 336.325 388.205 337.417 390.004 338.161C391.803 338.905 393.731 339.286 395.678 339.284V339.284ZM395.678 314.873C397.575 314.873 399.429 315.436 401.006 316.489C402.583 317.543 403.812 319.041 404.538 320.793C405.264 322.546 405.454 324.474 405.084 326.334C404.714 328.194 403.801 329.903 402.459 331.244C401.118 332.586 399.41 333.499 397.549 333.869C395.689 334.239 393.761 334.049 392.008 333.323C390.256 332.597 388.758 331.368 387.705 329.791C386.651 328.214 386.088 326.36 386.088 324.463C386.088 321.92 387.099 319.481 388.897 317.682C390.696 315.884 393.135 314.873 395.678 314.873V314.873Z" fill="white"/>
<path d="M397.055 344.515H394.317C389.592 344.52 385.062 346.399 381.722 349.739C378.381 353.08 376.502 357.61 376.497 362.335V377.644H414.857V362.335C414.857 357.612 412.982 353.082 409.644 349.741C406.306 346.399 401.778 344.52 397.055 344.515V344.515ZM409.626 372.413H381.728V362.335C381.733 358.998 383.06 355.798 385.42 353.438C387.78 351.078 390.98 349.751 394.317 349.746H397.055C400.39 349.751 403.588 351.079 405.945 353.439C408.302 355.8 409.626 358.999 409.626 362.335V372.413Z" fill="white"/>
<path d="M446.016 339.284C448.948 339.284 451.813 338.415 454.25 336.786C456.688 335.158 458.587 332.843 459.709 330.135C460.831 327.427 461.124 324.447 460.552 321.572C459.98 318.697 458.569 316.056 456.496 313.983C454.423 311.91 451.783 310.499 448.908 309.927C446.033 309.355 443.053 309.649 440.345 310.77C437.636 311.892 435.322 313.792 433.693 316.229C432.065 318.666 431.195 321.532 431.195 324.463C431.195 328.394 432.757 332.164 435.536 334.943C438.316 337.723 442.085 339.284 446.016 339.284V339.284ZM446.016 314.873C447.913 314.873 449.767 315.436 451.344 316.489C452.921 317.543 454.15 319.041 454.876 320.793C455.602 322.546 455.792 324.474 455.422 326.334C455.052 328.194 454.139 329.903 452.797 331.244C451.456 332.586 449.747 333.499 447.887 333.869C446.027 334.239 444.099 334.049 442.346 333.323C440.594 332.597 439.096 331.368 438.042 329.791C436.989 328.214 436.426 326.36 436.426 324.463C436.431 321.921 437.443 319.485 439.24 317.687C441.038 315.89 443.474 314.878 446.016 314.873V314.873Z" fill="white"/>
<path d="M447.376 344.515H444.656C442.311 344.515 439.99 344.978 437.824 345.876C435.659 346.775 433.692 348.093 432.037 349.753C430.381 351.413 429.07 353.384 428.177 355.552C427.285 357.72 426.829 360.043 426.836 362.387V377.644H465.196V362.335C465.196 357.609 463.319 353.076 459.977 349.734C456.635 346.392 452.102 344.515 447.376 344.515ZM459.965 372.413H432.067V362.335C432.072 358.998 433.399 355.798 435.759 353.438C438.119 351.078 441.319 349.751 444.656 349.746H447.376C449.033 349.748 450.673 350.077 452.203 350.714C453.733 351.351 455.122 352.283 456.291 353.457C457.46 354.631 458.387 356.024 459.017 357.556C459.648 359.089 459.97 360.73 459.965 362.387V372.413Z" fill="white"/>
<path d="M496.809 339.284C499.74 339.284 502.606 338.415 505.043 336.786C507.481 335.158 509.38 332.843 510.502 330.135C511.624 327.427 511.917 324.447 511.345 321.572C510.773 318.697 509.362 316.056 507.289 313.983C505.216 311.91 502.576 310.499 499.701 309.927C496.826 309.355 493.846 309.649 491.137 310.77C488.429 311.892 486.115 313.792 484.486 316.229C482.858 318.666 481.988 321.532 481.988 324.463C481.986 326.41 482.368 328.338 483.112 330.138C483.856 331.937 484.947 333.572 486.324 334.948C487.701 336.325 489.336 337.417 491.135 338.161C492.934 338.905 494.862 339.286 496.809 339.284V339.284ZM496.809 314.873C498.706 314.873 500.56 315.436 502.137 316.489C503.714 317.543 504.943 319.041 505.669 320.793C506.395 322.546 506.585 324.474 506.215 326.334C505.845 328.194 504.932 329.903 503.59 331.244C502.249 332.586 500.54 333.499 498.68 333.869C496.82 334.239 494.892 334.049 493.139 333.323C491.387 332.597 489.889 331.368 488.835 329.791C487.782 328.214 487.219 326.36 487.219 324.463C487.219 321.92 488.23 319.481 490.028 317.682C491.827 315.884 494.266 314.873 496.809 314.873Z" fill="white"/>
<path d="M498.186 344.515H495.449C490.724 344.52 486.194 346.399 482.853 349.739C479.512 353.08 477.634 357.61 477.629 362.335V377.644H515.989V362.335C515.989 357.612 514.114 353.082 510.776 349.741C507.438 346.399 502.909 344.52 498.186 344.515V344.515ZM510.758 372.413H482.86V362.335C482.864 358.998 484.192 355.798 486.552 353.438C488.912 351.078 492.111 349.751 495.449 349.746H498.186C501.522 349.751 504.72 351.079 507.077 353.439C509.434 355.8 510.758 358.999 510.758 362.335V372.413Z" fill="white"/>
<path d="M448.631 278.257H443.4V299.18H448.631V278.257Z" fill="white"/>
<path d="M424.137 276.062L420.438 272.363L398.246 294.556L401.944 298.255L424.137 276.062Z" fill="white"/>
<path d="M471.669 272.378L467.97 276.077L490.163 298.27L493.861 294.571L471.669 272.378Z" fill="white"/>
<path d="M466.417 227.587C466.047 222.429 463.737 217.602 459.952 214.078C456.167 210.555 451.187 208.596 446.016 208.596C440.845 208.596 435.865 210.555 432.08 214.078C428.295 217.602 425.985 222.429 425.615 227.587C425.615 228.058 425.615 228.546 425.615 229.034C425.615 230.752 425.832 232.462 426.261 234.125C426.261 234.422 426.4 234.701 426.487 234.98C426.487 234.98 429.975 242.704 430.777 245.442C431.247 246.993 431.805 249.487 432.346 252.102C433.409 257.141 434.368 262.564 434.368 262.564H457.698C457.698 262.564 459.948 249.853 461.325 245.267C462.127 242.582 465.597 234.91 465.597 234.91C465.736 234.439 465.754 234.352 465.824 234.056C466.253 232.393 466.469 230.682 466.469 228.964C466.469 228.546 466.451 228.058 466.417 227.587ZM438.693 257.333C438.396 255.764 438.03 253.933 437.664 252.102H454.368C454.002 253.951 453.636 255.781 453.339 257.333H438.693ZM460.75 232.922V233.254C460 234.997 457.262 241.257 456.391 243.942C456.146 244.762 455.885 245.825 455.606 247.011H436.531C436.252 245.86 435.99 244.814 435.746 244.012C434.926 241.292 432.102 234.91 431.352 233.236C431.352 233.132 431.352 233.027 431.265 232.887C430.949 231.657 430.79 230.391 430.794 229.121C430.794 228.72 430.794 228.406 430.794 228.145V228.023C431.055 224.177 432.767 220.574 435.583 217.943C438.399 215.311 442.109 213.847 445.964 213.847C449.818 213.847 453.528 215.311 456.345 217.943C459.161 220.574 460.872 224.177 461.133 228.023V228.145C461.133 228.424 461.133 228.738 461.133 229.121C461.172 230.4 461.043 231.677 460.75 232.922ZM448.544 239.165V246.871H443.313V239.025C443.313 238.331 443.589 237.666 444.079 237.176C444.57 236.685 445.235 236.41 445.929 236.41C446.622 236.41 447.288 236.685 447.778 237.176C448.269 237.666 448.544 238.331 448.544 239.025V239.165ZM446.016 189.331C446.71 189.331 447.375 189.607 447.865 190.097C448.356 190.588 448.631 191.253 448.631 191.947V197.178C448.631 197.871 448.356 198.537 447.865 199.027C447.375 199.518 446.71 199.793 446.016 199.793C445.322 199.793 444.657 199.518 444.167 199.027C443.676 198.537 443.401 197.871 443.401 197.178V191.947C443.401 191.253 443.676 190.588 444.167 190.097C444.657 189.607 445.322 189.331 446.016 189.331V189.331ZM427.934 193.342C428.394 193.34 428.846 193.46 429.245 193.689C429.643 193.919 429.973 194.25 430.201 194.65L433.688 200.682C433.863 200.98 433.976 201.308 434.022 201.649C434.068 201.991 434.046 202.338 433.957 202.67C433.868 203.003 433.713 203.315 433.502 203.587C433.292 203.859 433.029 204.087 432.729 204.257C432.339 204.489 431.893 204.61 431.439 204.606C430.979 204.608 430.527 204.488 430.129 204.258C429.731 204.028 429.401 203.697 429.172 203.298L425.685 197.265C425.337 196.666 425.24 195.953 425.416 195.283C425.593 194.613 426.028 194.04 426.627 193.691C427.024 193.46 427.475 193.34 427.934 193.342V193.342ZM464.568 193.342C464.109 193.34 463.656 193.46 463.258 193.689C462.86 193.919 462.53 194.25 462.302 194.65L458.814 200.682C458.466 201.281 458.369 201.994 458.545 202.665C458.722 203.335 459.157 203.907 459.756 204.257C460.054 204.428 460.384 204.539 460.725 204.582C461.067 204.626 461.414 204.602 461.746 204.511C462.078 204.42 462.389 204.265 462.661 204.054C462.933 203.843 463.16 203.58 463.33 203.281L466.818 197.248C466.992 196.951 467.105 196.622 467.151 196.281C467.197 195.939 467.175 195.592 467.086 195.26C466.997 194.927 466.842 194.615 466.632 194.343C466.421 194.071 466.158 193.843 465.859 193.673C465.469 193.441 465.022 193.32 464.568 193.324V193.342Z" fill="white"/>
<path d="M168.696 248.378C168.74 247.942 168.686 247.501 168.538 247.088C168.39 246.674 168.153 246.299 167.843 245.989C167.532 245.678 167.157 245.441 166.744 245.293C166.331 245.146 165.89 245.092 165.453 245.135L140.816 248.361H140.728L137.014 252.057L97.5734 291.603L95.6728 293.504L95.202 293.974C95.1612 294.022 95.1261 294.075 95.0974 294.131C92.5928 296.939 91.257 300.598 91.364 304.359C91.471 308.12 93.0126 311.697 95.6728 314.357L99.4739 318.159C102.125 320.812 105.69 322.354 109.44 322.467C113.189 322.58 116.841 321.258 119.648 318.769H119.822L120.328 318.246L122.246 316.258L161.687 276.765L165.383 273.051H165.471L168.696 248.378ZM103.17 314.462L99.3693 310.661C97.903 309.185 96.9594 307.27 96.6823 305.208C96.4053 303.147 96.8101 301.051 97.8349 299.24L114.609 316.014C112.795 317.041 110.694 317.445 108.628 317.165C106.562 316.885 104.645 315.935 103.17 314.462V314.462ZM118.532 312.562L101.322 295.3L140.728 255.841L157.99 273.103L118.532 312.562ZM145.314 253.034L163.117 250.715L160.798 268.517L145.314 253.034ZM111.139 300.234L107.425 296.538L139.49 264.559L143.169 268.186L111.139 300.234ZM133.579 212.25V204.404C133.579 203.71 133.304 203.045 132.813 202.554C132.323 202.064 131.658 201.788 130.964 201.788C130.27 201.788 129.605 202.064 129.115 202.554C128.624 203.045 128.349 203.71 128.349 204.404V212.25H43.7822V337.094C43.7822 339.592 44.7742 341.987 46.54 343.752C48.3058 345.518 50.7007 346.51 53.1979 346.51H128.349V376.152H133.579V346.51H208.73C211.227 346.51 213.622 345.518 215.388 343.752C217.154 341.987 218.146 339.592 218.146 337.094V212.25H133.579ZM212.915 337.094C212.91 338.203 212.468 339.265 211.684 340.048C210.9 340.832 209.839 341.275 208.73 341.279H53.1979C52.0894 341.275 51.0277 340.832 50.2439 340.048C49.4601 339.265 49.0177 338.203 49.0131 337.094V217.481H212.915V337.094ZM138.863 346.51H144.913L164.093 377.896H158.217L138.863 346.51ZM99.5786 377.896L118.759 346.51H125.071L105.646 377.896H99.5786Z" fill="white"/>
</g>
</g>
<defs>
<clipPath id="clip0_271_22662">
<rect width="589" height="572" fill="white"/>
</clipPath>
</defs>
</svg>
