<svg width="120" height="120" viewBox="0 0 120 120" fill="none" xmlns="http://www.w3.org/2000/svg">
<g clip-path="url(#clip0_270_22623)">
<path d="M81.64 35.72C81.6649 35.4696 81.6339 35.2167 81.5493 34.9798C81.4646 34.7428 81.3284 34.5275 81.1504 34.3496C80.9725 34.1716 80.7573 34.0354 80.5203 33.9507C80.2833 33.8661 80.0304 33.8351 79.78 33.86L65.65 35.71H65.6L63.47 37.83L40.85 60.51L39.76 61.6L39.49 61.87C39.4666 61.8976 39.4465 61.9278 39.43 61.96C37.9936 63.5701 37.2275 65.6687 37.2888 67.8256C37.3502 69.9825 38.2343 72.0342 39.76 73.56L41.94 75.74C43.4606 77.262 45.5051 78.1459 47.6556 78.2109C49.806 78.276 51.9002 77.5173 53.51 76.09H53.61L53.9 75.79L55 74.65L77.62 52L79.74 49.87H79.79L81.64 35.72ZM44.06 73.62L41.88 71.44C41.039 70.5936 40.4979 69.4955 40.339 68.3129C40.1801 67.1304 40.4122 65.9284 41 64.89L50.62 74.51C49.5796 75.099 48.3748 75.3308 47.1901 75.1701C46.0054 75.0093 44.9059 74.4649 44.06 73.62V73.62ZM52.87 72.53L43 62.63L65.6 40L75.5 49.9L52.87 72.53ZM68.23 38.39L78.44 37.06L77.11 47.27L68.23 38.39ZM48.63 65.46L46.5 63.34L64.89 45L67 47.08L48.63 65.46ZM61.5 15V10.5C61.5 10.1022 61.342 9.72064 61.0607 9.43934C60.7794 9.15804 60.3978 9 60 9C59.6022 9 59.2206 9.15804 58.9393 9.43934C58.658 9.72064 58.5 10.1022 58.5 10.5V15H10V86.6C10 88.0322 10.5689 89.4057 11.5816 90.4184C12.5943 91.4311 13.9678 92 15.4 92H58.5V109H61.5V92H104.6C106.032 92 107.406 91.4311 108.418 90.4184C109.431 89.4057 110 88.0322 110 86.6V15H61.5ZM107 86.6C106.997 87.2357 106.744 87.8446 106.294 88.2942C105.845 88.7437 105.236 88.9974 104.6 89H15.4C14.7643 88.9974 14.1554 88.7437 13.7059 88.2942C13.2563 87.8446 13.0026 87.2357 13 86.6V18H107V86.6ZM64.53 92H68L79 110H75.63L64.53 92ZM42 110L53 92H56.62L45.48 110H42Z" fill="#365066"/>
</g>
<defs>
<clipPath id="clip0_270_22623">
<rect width="120" height="120" fill="white"/>
</clipPath>
</defs>
</svg>
