<svg width="160" height="160" viewBox="0 0 160 160" fill="none" xmlns="http://www.w3.org/2000/svg">
<path d="M80.7949 20.5642C81.8598 20.5642 82.9009 20.2483 83.7864 19.6567C84.6719 19.065 85.3621 18.2241 85.7696 17.2401C86.1772 16.2562 86.2838 15.1736 86.076 14.1291C85.8683 13.0845 85.3554 12.1251 84.6024 11.372C83.8493 10.619 82.8899 10.1062 81.8454 9.89839C80.8008 9.69062 79.7182 9.79725 78.7343 10.2048C77.7504 10.6124 76.9094 11.3025 76.3177 12.188C75.7261 13.0735 75.4103 14.1146 75.4103 15.1795C75.4103 16.6076 75.9776 17.9772 76.9874 18.987C77.9972 19.9968 79.3668 20.5642 80.7949 20.5642Z" fill="#BFDFFF"/>
<path d="M39.5128 31.3333C40.5778 31.3333 41.6189 31.0175 42.5043 30.4258C43.3898 29.8342 44.08 28.9932 44.4876 28.0093C44.8951 27.0254 45.0017 25.9427 44.794 24.8982C44.5862 23.8537 44.0734 22.8943 43.3203 22.1412C42.5673 21.3882 41.6078 20.8753 40.5633 20.6676C39.5188 20.4598 38.4361 20.5664 37.4522 20.974C36.4683 21.3815 35.6273 22.0717 35.0357 22.9572C34.444 23.8427 34.1282 24.8837 34.1282 25.9487C34.1282 27.3768 34.6955 28.7464 35.7053 29.7562C36.7151 30.766 38.0847 31.3333 39.5128 31.3333Z" fill="#BFDFFF"/>
<path d="M58.359 24.1538C59.4239 24.1538 60.465 23.838 61.3505 23.2463C62.236 22.6547 62.9262 21.8137 63.3337 20.8298C63.7413 19.8459 63.8479 18.7632 63.6401 17.7187C63.4324 16.6742 62.9195 15.7147 62.1665 14.9617C61.4134 14.2086 60.454 13.6958 59.4095 13.488C58.3649 13.2803 57.2823 13.3869 56.2984 13.7945C55.3145 14.202 54.4735 14.8922 53.8818 15.7777C53.2902 16.6632 52.9744 17.7042 52.9744 18.7692C52.9744 20.1973 53.5417 21.5669 54.5515 22.5767C55.5613 23.5865 56.9309 24.1538 58.359 24.1538Z" fill="#BFDFFF"/>
<path d="M26.0513 45.6923C27.1163 45.6923 28.1573 45.3765 29.0428 44.7849C29.9283 44.1932 30.6185 43.3522 31.026 42.3683C31.4336 41.3844 31.5402 40.3017 31.3324 39.2572C31.1247 38.2127 30.6118 37.2533 29.8588 36.5002C29.1057 35.7472 28.1463 35.2343 27.1018 35.0266C26.0573 34.8188 24.9746 34.9254 23.9907 35.333C23.0068 35.7405 22.1658 36.4307 21.5741 37.3162C20.9825 38.2017 20.6667 39.2427 20.6667 40.3077C20.6667 41.7358 21.234 43.1054 22.2438 44.1152C23.2536 45.125 24.6232 45.6923 26.0513 45.6923Z" fill="#BFDFFF"/>
<path d="M18.8718 63.6411C19.9368 63.6411 20.9778 63.3253 21.8633 62.7336C22.7488 62.1419 23.439 61.301 23.8465 60.317C24.2541 59.3331 24.3607 58.2505 24.1529 57.206C23.9452 56.1614 23.4323 55.202 22.6793 54.4489C21.9262 53.6959 20.9668 53.1831 19.9223 52.9753C18.8778 52.7675 17.7951 52.8742 16.8112 53.2817C15.8273 53.6893 14.9863 54.3794 14.3947 55.2649C13.803 56.1504 13.4872 57.1915 13.4872 58.2564C13.4872 59.6845 14.0545 61.0541 15.0643 62.0639C16.0741 63.0738 17.4437 63.6411 18.8718 63.6411Z" fill="#BFDFFF"/>
<path d="M14.3846 83.3846C15.4496 83.3846 16.4906 83.0688 17.3761 82.4771C18.2616 81.8854 18.9518 81.0445 19.3593 80.0606C19.7669 79.0767 19.8735 77.994 19.6658 76.9495C19.458 75.905 18.9452 74.9455 18.1921 74.1925C17.4391 73.4394 16.4796 72.9266 15.4351 72.7188C14.3906 72.5111 13.3079 72.6177 12.324 73.0252C11.3401 73.4328 10.4991 74.1229 9.90747 75.0084C9.3158 75.8939 9 76.935 9 78C9 79.4281 9.56731 80.7977 10.5771 81.8075C11.5869 82.8173 12.9565 83.3846 14.3846 83.3846Z" fill="#BFDFFF"/>
<path d="M17.9744 103.128C19.0393 103.128 20.0804 102.812 20.9659 102.221C21.8514 101.629 22.5415 100.788 22.9491 99.8042C23.3566 98.8203 23.4633 97.7377 23.2555 96.6931C23.0477 95.6486 22.5349 94.6892 21.7819 93.9361C21.0288 93.1831 20.0694 92.6702 19.0248 92.4625C17.9803 92.2547 16.8977 92.3613 15.9138 92.7689C14.9298 93.1764 14.0889 93.8666 13.4972 94.7521C12.9055 95.6376 12.5897 96.6786 12.5897 97.7436C12.5897 99.1717 13.1571 100.541 14.1669 101.551C15.1767 102.561 16.5463 103.128 17.9744 103.128Z" fill="#BFDFFF"/>
<path d="M26.0513 121.077C27.1163 121.077 28.1573 120.761 29.0428 120.169C29.9283 119.578 30.6185 118.737 31.026 117.753C31.4336 116.769 31.5402 115.686 31.3324 114.642C31.1247 113.597 30.6118 112.638 29.8588 111.885C29.1057 111.132 28.1463 110.619 27.1018 110.411C26.0573 110.203 24.9746 110.31 23.9907 110.718C23.0068 111.125 22.1658 111.815 21.5741 112.701C20.9825 113.586 20.6667 114.627 20.6667 115.692C20.6667 117.12 21.234 118.49 22.2438 119.5C23.2536 120.51 24.6232 121.077 26.0513 121.077Z" fill="#BFDFFF"/>
<path d="M40.4103 135.436C41.4752 135.436 42.5163 135.12 43.4018 134.528C44.2873 133.937 44.9774 133.096 45.385 132.112C45.7925 131.128 45.8992 130.045 45.6914 129.001C45.4836 127.956 44.9708 126.997 44.2178 126.244C43.4647 125.491 42.5053 124.978 41.4607 124.77C40.4162 124.562 39.3336 124.669 38.3497 125.077C37.3657 125.484 36.5248 126.174 35.9331 127.06C35.3414 127.945 35.0256 128.986 35.0256 130.051C35.0256 131.479 35.5929 132.849 36.6028 133.859C37.6126 134.869 38.9822 135.436 40.4103 135.436Z" fill="#BFDFFF"/>
<path d="M60.1538 142.615C61.2188 142.615 62.2599 142.3 63.1454 141.708C64.0309 141.116 64.721 140.275 65.1286 139.291C65.5361 138.308 65.6428 137.225 65.435 136.18C65.2272 135.136 64.7144 134.176 63.9613 133.423C63.2083 132.67 62.2488 132.157 61.2043 131.95C60.1598 131.742 59.0772 131.849 58.0932 132.256C57.1093 132.664 56.2684 133.354 55.6767 134.239C55.085 135.125 54.7692 136.166 54.7692 137.231C54.7692 138.659 55.3365 140.028 56.3463 141.038C57.3562 142.048 58.7258 142.615 60.1538 142.615Z" fill="#BFDFFF"/>
<path d="M100.538 23.2564C99.4735 23.2564 98.4324 22.9406 97.5469 22.3489C96.6614 21.7573 95.9713 20.9163 95.5637 19.9324C95.1562 18.9485 95.0495 17.8658 95.2573 16.8213C95.4651 15.7768 95.9779 14.8174 96.731 14.0643C97.484 13.3113 98.4435 12.7984 99.488 12.5906C100.532 12.3829 101.615 12.4895 102.599 12.8971C103.583 13.3046 104.424 13.9948 105.016 14.8803C105.607 15.7658 105.923 16.8068 105.923 17.8718C105.923 19.2999 105.356 20.6695 104.346 21.6793C103.336 22.6891 101.967 23.2564 100.538 23.2564Z" fill="#BFDFFF"/>
<path d="M118.487 31.3333C119.552 31.3333 120.593 31.0175 121.479 30.4258C122.364 29.8342 123.054 28.9932 123.462 28.0093C123.869 27.0254 123.976 25.9427 123.768 24.8982C123.561 23.8537 123.048 22.8943 122.295 22.1412C121.542 21.3882 120.582 20.8753 119.538 20.6676C118.493 20.4598 117.41 20.5664 116.427 20.974C115.443 21.3815 114.602 22.0717 114.01 22.9572C113.418 23.8427 113.103 24.8837 113.103 25.9487C113.103 27.3768 113.67 28.7464 114.68 29.7562C115.689 30.766 117.059 31.3333 118.487 31.3333Z" fill="#BFDFFF"/>
<path d="M131.949 45.6923C130.884 45.6923 129.843 45.3765 128.957 44.7849C128.072 44.1932 127.382 43.3522 126.974 42.3683C126.566 41.3844 126.46 40.3017 126.668 39.2572C126.875 38.2127 127.388 37.2533 128.141 36.5002C128.894 35.7472 129.854 35.2343 130.898 35.0266C131.943 34.8188 133.025 34.9254 134.009 35.333C134.993 35.7405 135.834 36.4307 136.426 37.3162C137.018 38.2017 137.333 39.2427 137.333 40.3077C137.333 41.7358 136.766 43.1054 135.756 44.1152C134.746 45.125 133.377 45.6923 131.949 45.6923Z" fill="#BFDFFF"/>
<path d="M139.128 63.6411C138.063 63.6411 137.022 63.3253 136.137 62.7336C135.251 62.1419 134.561 61.301 134.153 60.317C133.746 59.3331 133.639 58.2505 133.847 57.206C134.055 56.1614 134.568 55.202 135.321 54.4489C136.074 53.6959 137.033 53.1831 138.078 52.9753C139.122 52.7675 140.205 52.8742 141.189 53.2817C142.173 53.6893 143.014 54.3794 143.605 55.2649C144.197 56.1504 144.513 57.1915 144.513 58.2564C144.513 59.6845 143.946 61.0541 142.936 62.0639C141.926 63.0738 140.556 63.6411 139.128 63.6411Z" fill="#BFDFFF"/>
<path d="M143.615 83.3846C142.55 83.3846 141.509 83.0688 140.624 82.4771C139.738 81.8854 139.048 81.0445 138.641 80.0606C138.233 79.0767 138.126 77.994 138.334 76.9495C138.542 75.905 139.055 74.9455 139.808 74.1925C140.561 73.4394 141.52 72.9266 142.565 72.7188C143.609 72.5111 144.692 72.6177 145.676 73.0252C146.66 73.4328 147.501 74.1229 148.093 75.0084C148.684 75.8939 149 76.935 149 78C149 79.4281 148.433 80.7977 147.423 81.8075C146.413 82.8173 145.043 83.3846 143.615 83.3846Z" fill="#BFDFFF"/>
<path d="M140.026 103.128C138.961 103.128 137.92 102.812 137.034 102.221C136.149 101.629 135.458 100.788 135.051 99.8042C134.643 98.8203 134.537 97.7377 134.744 96.6931C134.952 95.6486 135.465 94.6892 136.218 93.9361C136.971 93.1831 137.931 92.6702 138.975 92.4625C140.02 92.2547 141.102 92.3613 142.086 92.7689C143.07 93.1764 143.911 93.8666 144.503 94.7521C145.094 95.6376 145.41 96.6786 145.41 97.7436C145.41 99.1717 144.843 100.541 143.833 101.551C142.823 102.561 141.454 103.128 140.026 103.128Z" fill="#BFDFFF"/>
<path d="M131.949 121.077C130.884 121.077 129.843 120.761 128.957 120.169C128.072 119.578 127.382 118.737 126.974 117.753C126.566 116.769 126.46 115.686 126.668 114.642C126.875 113.597 127.388 112.638 128.141 111.885C128.894 111.132 129.854 110.619 130.898 110.411C131.943 110.203 133.025 110.31 134.009 110.718C134.993 111.125 135.834 111.815 136.426 112.701C137.018 113.586 137.333 114.627 137.333 115.692C137.333 117.12 136.766 118.49 135.756 119.5C134.746 120.51 133.377 121.077 131.949 121.077Z" fill="#BFDFFF"/>
<path d="M117.59 135.436C116.525 135.436 115.484 135.12 114.598 134.528C113.713 133.937 113.023 133.096 112.615 132.112C112.207 131.128 112.101 130.045 112.309 129.001C112.516 127.956 113.029 126.997 113.782 126.244C114.535 125.491 115.495 124.978 116.539 124.77C117.584 124.562 118.666 124.669 119.65 125.077C120.634 125.484 121.475 126.174 122.067 127.06C122.659 127.945 122.974 128.986 122.974 130.051C122.974 131.479 122.407 132.849 121.397 133.859C120.387 134.869 119.018 135.436 117.59 135.436Z" fill="#BFDFFF"/>
<path d="M100.538 142.615C99.4735 142.615 98.4324 142.3 97.5469 141.708C96.6614 141.116 95.9713 140.275 95.5637 139.291C95.1562 138.308 95.0495 137.225 95.2573 136.18C95.4651 135.136 95.9779 134.176 96.731 133.423C97.484 132.67 98.4435 132.157 99.488 131.95C100.532 131.742 101.615 131.849 102.599 132.256C103.583 132.664 104.424 133.354 105.016 134.239C105.607 135.125 105.923 136.166 105.923 137.231C105.923 138.659 105.356 140.028 104.346 141.038C103.336 142.048 101.967 142.615 100.538 142.615Z" fill="#BFDFFF"/>
<path d="M80.7949 146.205C81.8598 146.205 82.9009 145.889 83.7864 145.298C84.6719 144.706 85.3621 143.865 85.7696 142.881C86.1772 141.897 86.2838 140.815 86.076 139.77C85.8683 138.726 85.3554 137.766 84.6024 137.013C83.8493 136.26 82.8899 135.747 81.8454 135.539C80.8008 135.332 79.7182 135.438 78.7343 135.846C77.7504 136.253 76.9094 136.944 76.3177 137.829C75.7261 138.714 75.4103 139.756 75.4103 140.821C75.4103 142.249 75.9776 143.618 76.9874 144.628C77.9972 145.638 79.3668 146.205 80.7949 146.205Z" fill="#BFDFFF"/>
<g opacity="0.6">
<path d="M80.2426 37.0915C80.9895 37.0915 81.7197 36.87 82.3407 36.4551C82.9618 36.0401 83.4458 35.4503 83.7317 34.7602C84.0175 34.0701 84.0923 33.3108 83.9466 32.5782C83.8008 31.8457 83.4412 31.1727 82.913 30.6446C82.3848 30.1164 81.7119 29.7567 80.9793 29.611C80.2468 29.4653 79.4874 29.5401 78.7974 29.8259C78.1073 30.1118 77.5175 30.5958 77.1025 31.2169C76.6875 31.8379 76.466 32.5681 76.466 33.315C76.466 34.3166 76.8639 35.2772 77.5722 35.9854C78.2804 36.6937 79.241 37.0915 80.2426 37.0915Z" fill="#BFDFFF"/>
<path d="M51.6627 44.7928C52.4097 44.7928 53.1398 44.5713 53.7609 44.1564C54.3819 43.7414 54.866 43.1516 55.1518 42.4615C55.4376 41.7714 55.5124 41.0121 55.3667 40.2795C55.221 39.5469 54.8613 38.874 54.3331 38.3459C53.805 37.8177 53.1321 37.458 52.3995 37.3123C51.6669 37.1666 50.9076 37.2414 50.2175 37.5272C49.5274 37.8131 48.9376 38.2971 48.5226 38.9182C48.1077 39.5392 47.8862 40.2694 47.8862 41.0163C47.8862 42.0179 48.2841 42.9785 48.9923 43.6867C49.7005 44.3949 50.6611 44.7928 51.6627 44.7928Z" fill="#BFDFFF"/>
<path d="M64.7101 39.6916C65.457 39.6916 66.1871 39.4701 66.8082 39.0551C67.4292 38.6402 67.9133 38.0503 68.1991 37.3603C68.485 36.6702 68.5598 35.9109 68.414 35.1783C68.2683 34.4457 67.9086 33.7728 67.3805 33.2446C66.8523 32.7165 66.1794 32.3568 65.4468 32.2111C64.7142 32.0654 63.9549 32.1401 63.2648 32.426C62.5748 32.7118 61.985 33.1959 61.57 33.8169C61.155 34.438 60.9335 35.1681 60.9335 35.915C60.9335 36.9166 61.3314 37.8772 62.0396 38.5855C62.7479 39.2937 63.7085 39.6916 64.7101 39.6916Z" fill="#BFDFFF"/>
<path d="M42.3432 54.995C43.0901 54.995 43.8203 54.7735 44.4413 54.3585C45.0624 53.9435 45.5464 53.3537 45.8323 52.6637C46.1181 51.9736 46.1929 51.2142 46.0472 50.4817C45.9015 49.7491 45.5418 49.0762 45.0136 48.548C44.4855 48.0199 43.8126 47.6602 43.08 47.5145C42.3474 47.3687 41.5881 47.4435 40.898 47.7294C40.2079 48.0152 39.6181 48.4993 39.2031 49.1203C38.7882 49.7414 38.5667 50.4715 38.5667 51.2184C38.5667 52.22 38.9646 53.1806 39.6728 53.8889C40.381 54.5971 41.3416 54.995 42.3432 54.995Z" fill="#BFDFFF"/>
<path d="M37.3728 67.7483C38.1197 67.7483 38.8499 67.5268 39.4709 67.1118C40.092 66.6968 40.576 66.107 40.8619 65.417C41.1477 64.7269 41.2225 63.9675 41.0768 63.235C40.9311 62.5024 40.5714 61.8295 40.0432 61.3013C39.5151 60.7732 38.8421 60.4135 38.1096 60.2678C37.377 60.122 36.6176 60.1968 35.9276 60.4827C35.2375 60.7685 34.6477 61.2526 34.2327 61.8736C33.8177 62.4946 33.5963 63.2248 33.5963 63.9717C33.5963 64.9733 33.9941 65.9339 34.7024 66.6422C35.4106 67.3504 36.3712 67.7483 37.3728 67.7483Z" fill="#BFDFFF"/>
<path d="M34.315 81.7765C35.0619 81.7765 35.7921 81.555 36.4131 81.14C37.0342 80.725 37.5182 80.1352 37.8041 79.4452C38.0899 78.7551 38.1647 77.9957 38.019 77.2632C37.8733 76.5306 37.5136 75.8577 36.9854 75.3295C36.4573 74.8014 35.7843 74.4417 35.0518 74.296C34.3192 74.1502 33.5599 74.225 32.8698 74.5109C32.1797 74.7967 31.5899 75.2807 31.1749 75.9018C30.76 76.5228 30.5385 77.253 30.5385 77.9999C30.5385 79.0015 30.9363 79.9621 31.6446 80.6703C32.3528 81.3786 33.3134 81.7765 34.315 81.7765Z" fill="#BFDFFF"/>
<path d="M36.7515 95.805C37.4984 95.805 38.2286 95.5835 38.8496 95.1686C39.4707 94.7536 39.9547 94.1638 40.2406 93.4737C40.5264 92.7836 40.6012 92.0243 40.4555 91.2917C40.3098 90.5592 39.9501 89.8862 39.4219 89.3581C38.8938 88.8299 38.2208 88.4702 37.4883 88.3245C36.7557 88.1788 35.9964 88.2536 35.3063 88.5394C34.6162 88.8253 34.0264 89.3093 33.6114 89.9304C33.1965 90.5514 32.975 91.2816 32.975 92.0285C32.975 93.0301 33.3728 93.9907 34.0811 94.6989C34.7893 95.4072 35.7499 95.805 36.7515 95.805Z" fill="#BFDFFF"/>
<path d="M42.3432 108.558C43.0901 108.558 43.8203 108.336 44.4413 107.922C45.0624 107.507 45.5464 106.917 45.8323 106.227C46.1181 105.537 46.1929 104.777 46.0472 104.045C45.9015 103.312 45.5418 102.639 45.0136 102.111C44.4855 101.583 43.8126 101.223 43.08 101.077C42.3474 100.932 41.5881 101.007 40.898 101.292C40.2079 101.578 39.6181 102.062 39.2031 102.683C38.7882 103.304 38.5667 104.034 38.5667 104.781C38.5667 105.783 38.9646 106.744 39.6728 107.452C40.381 108.16 41.3416 108.558 42.3432 108.558Z" fill="#BFDFFF"/>
<path d="M52.284 118.76C53.031 118.76 53.7611 118.539 54.3822 118.124C55.0032 117.709 55.4873 117.119 55.7731 116.429C56.0589 115.739 56.1337 114.98 55.988 114.247C55.8423 113.515 55.4826 112.842 54.9545 112.314C54.4263 111.785 53.7534 111.426 53.0208 111.28C52.2882 111.134 51.5289 111.209 50.8388 111.495C50.1487 111.781 49.5589 112.265 49.144 112.886C48.729 113.507 48.5075 114.237 48.5075 114.984C48.5075 115.986 48.9054 116.946 49.6136 117.654C50.3219 118.363 51.2824 118.76 52.284 118.76Z" fill="#BFDFFF"/>
<path d="M65.9527 123.862C66.6996 123.862 67.4298 123.64 68.0508 123.225C68.6719 122.81 69.1559 122.22 69.4418 121.53C69.7276 120.84 69.8024 120.081 69.6567 119.348C69.5109 118.616 69.1513 117.943 68.6231 117.415C68.095 116.886 67.422 116.527 66.6895 116.381C65.9569 116.235 65.1975 116.31 64.5075 116.596C63.8174 116.882 63.2276 117.366 62.8126 117.987C62.3976 118.608 62.1762 119.338 62.1762 120.085C62.1762 121.087 62.574 122.047 63.2823 122.755C63.9905 123.464 64.9511 123.862 65.9527 123.862Z" fill="#BFDFFF"/>
<path d="M93.9113 39.0538C93.1643 39.0538 92.4342 38.8323 91.8131 38.4174C91.1921 38.0024 90.708 37.4126 90.4222 36.7225C90.1364 36.0324 90.0616 35.2731 90.2073 34.5405C90.353 33.8079 90.7127 33.135 91.2409 32.6069C91.769 32.0787 92.4419 31.719 93.1745 31.5733C93.9071 31.4276 94.6664 31.5024 95.3565 31.7882C96.0466 32.074 96.6364 32.5581 97.0514 33.1791C97.4663 33.8002 97.6878 34.5303 97.6878 35.2773C97.6878 36.2789 97.2899 37.2395 96.5817 37.9477C95.8735 38.6559 94.9129 39.0538 93.9113 39.0538Z" fill="#BFDFFF"/>
<path d="M106.337 44.7928C107.084 44.7928 107.814 44.5713 108.435 44.1564C109.056 43.7414 109.541 43.1516 109.826 42.4615C110.112 41.7714 110.187 41.0121 110.041 40.2795C109.896 39.5469 109.536 38.874 109.008 38.3459C108.48 37.8177 107.807 37.458 107.074 37.3123C106.341 37.1666 105.582 37.2414 104.892 37.5272C104.202 37.8131 103.612 38.2971 103.197 38.9182C102.782 39.5392 102.561 40.2694 102.561 41.0163C102.561 42.0179 102.959 42.9785 103.667 43.6867C104.375 44.3949 105.336 44.7928 106.337 44.7928Z" fill="#BFDFFF"/>
<path d="M115.657 54.995C114.91 54.995 114.18 54.7735 113.559 54.3585C112.938 53.9435 112.454 53.3537 112.168 52.6637C111.882 51.9736 111.807 51.2142 111.953 50.4817C112.099 49.7491 112.458 49.0762 112.986 48.548C113.515 48.0199 114.187 47.6602 114.92 47.5145C115.653 47.3687 116.412 47.4435 117.102 47.7294C117.792 48.0152 118.382 48.4993 118.797 49.1203C119.212 49.7414 119.433 50.4715 119.433 51.2184C119.433 52.22 119.035 53.1806 118.327 53.8889C117.619 54.5971 116.658 54.995 115.657 54.995Z" fill="#BFDFFF"/>
<path d="M120.627 67.7483C119.88 67.7483 119.15 67.5268 118.529 67.1118C117.908 66.6968 117.424 66.107 117.138 65.417C116.852 64.7269 116.777 63.9675 116.923 63.235C117.069 62.5024 117.429 61.8295 117.957 61.3013C118.485 60.7732 119.158 60.4135 119.89 60.2678C120.623 60.122 121.382 60.1968 122.072 60.4827C122.762 60.7685 123.352 61.2526 123.767 61.8736C124.182 62.4946 124.404 63.2248 124.404 63.9717C124.404 64.9733 124.006 65.9339 123.298 66.6422C122.589 67.3504 121.629 67.7483 120.627 67.7483Z" fill="#BFDFFF"/>
<path d="M123.685 81.7765C122.938 81.7765 122.208 81.555 121.587 81.14C120.966 80.725 120.482 80.1352 120.196 79.4452C119.91 78.7551 119.835 77.9957 119.981 77.2632C120.127 76.5306 120.486 75.8577 121.015 75.3295C121.543 74.8014 122.216 74.4417 122.948 74.296C123.681 74.1502 124.44 74.225 125.13 74.5109C125.82 74.7967 126.41 75.2807 126.825 75.9018C127.24 76.5228 127.462 77.253 127.462 77.9999C127.462 79.0015 127.064 79.9621 126.355 80.6703C125.647 81.3786 124.687 81.7765 123.685 81.7765Z" fill="#BFDFFF"/>
<path d="M121.248 95.805C120.502 95.805 119.771 95.5835 119.15 95.1686C118.529 94.7536 118.045 94.1638 117.759 93.4737C117.474 92.7836 117.399 92.0243 117.545 91.2917C117.69 90.5592 118.05 89.8862 118.578 89.3581C119.106 88.8299 119.779 88.4702 120.512 88.3245C121.244 88.1788 122.004 88.2536 122.694 88.5394C123.384 88.8253 123.974 89.3093 124.389 89.9304C124.804 90.5514 125.025 91.2816 125.025 92.0285C125.025 93.0301 124.627 93.9907 123.919 94.6989C123.211 95.4072 122.25 95.805 121.248 95.805Z" fill="#BFDFFF"/>
<path d="M115.657 108.558C114.91 108.558 114.18 108.336 113.559 107.922C112.938 107.507 112.454 106.917 112.168 106.227C111.882 105.537 111.807 104.777 111.953 104.045C112.099 103.312 112.458 102.639 112.986 102.111C113.515 101.583 114.187 101.223 114.92 101.077C115.653 100.932 116.412 101.007 117.102 101.292C117.792 101.578 118.382 102.062 118.797 102.683C119.212 103.304 119.433 104.034 119.433 104.781C119.433 105.783 119.035 106.744 118.327 107.452C117.619 108.16 116.658 108.558 115.657 108.558Z" fill="#BFDFFF"/>
<path d="M105.716 118.76C104.969 118.76 104.239 118.539 103.618 118.124C102.997 117.709 102.513 117.119 102.227 116.429C101.941 115.739 101.866 114.98 102.012 114.247C102.158 113.515 102.517 112.842 103.046 112.314C103.574 111.785 104.247 111.426 104.979 111.28C105.712 111.134 106.471 111.209 107.161 111.495C107.851 111.781 108.441 112.265 108.856 112.886C109.271 113.507 109.493 114.237 109.493 114.984C109.493 115.986 109.095 116.946 108.386 117.654C107.678 118.363 106.718 118.76 105.716 118.76Z" fill="#BFDFFF"/>
<path d="M93.9113 123.862C93.1643 123.862 92.4342 123.64 91.8131 123.225C91.1921 122.81 90.708 122.22 90.4222 121.53C90.1364 120.84 90.0616 120.081 90.2073 119.348C90.353 118.616 90.7127 117.943 91.2409 117.415C91.769 116.886 92.4419 116.527 93.1745 116.381C93.9071 116.235 94.6664 116.31 95.3565 116.596C96.0466 116.882 96.6364 117.366 97.0514 117.987C97.4663 118.608 97.6878 119.338 97.6878 120.085C97.6878 121.087 97.2899 122.047 96.5817 122.755C95.8735 123.464 94.9129 123.862 93.9113 123.862Z" fill="#BFDFFF"/>
<path d="M80.2426 126.462C80.9895 126.462 81.7197 126.24 82.3407 125.825C82.9618 125.41 83.4458 124.82 83.7317 124.13C84.0175 123.44 84.0923 122.681 83.9466 121.948C83.8008 121.216 83.4412 120.543 82.913 120.015C82.3848 119.486 81.7119 119.127 80.9793 118.981C80.2468 118.835 79.4874 118.91 78.7974 119.196C78.1073 119.482 77.5175 119.966 77.1025 120.587C76.6875 121.208 76.466 121.938 76.466 122.685C76.466 123.687 76.8639 124.647 77.5722 125.355C78.2804 126.064 79.241 126.462 80.2426 126.462Z" fill="#BFDFFF"/>
</g>
<path d="M53.2052 49.8788V111.857H106.982V41.451H61.5496L53.2052 49.8788Z" fill="white"/>
<path d="M64.2175 40.3077V52.4484H52.0769" fill="#365066"/>
<path d="M108.111 113H52.0769V50.1515L61.8752 40.3077H108.111V113ZM54.3486 110.728H105.839V42.5794H61.8752L54.3031 50.1515L54.3486 110.728Z" fill="#365066"/>
<path d="M93.1683 64.6349H63.2837V66.5027H93.1683V64.6349Z" fill="#50A7EF"/>
<path d="M96.9038 59.0315H63.2837V62.7671H96.9038V59.0315Z" fill="#50A7EF"/>
<path d="M77.2921 92.3838H63.2837V94.2516H77.2921V92.3838Z" fill="#50A7EF"/>
<path d="M79.1599 87.7142H63.2837V90.5159H79.1599V87.7142Z" fill="#50A7EF"/>
<path d="M86.631 78.4213H63.2837V80.2891H86.631V78.4213Z" fill="#50A7EF"/>
<path d="M89.4327 73.7517H63.2837V76.5534H89.4327V73.7517Z" fill="#50A7EF"/>
<path d="M80.0976 99.2116C80.0861 99.3276 80.1004 99.4447 80.1396 99.5545C80.1788 99.6642 80.2419 99.7639 80.3244 99.8463C80.4068 99.9287 80.5064 99.9918 80.6162 100.031C80.726 100.07 80.8431 100.085 80.959 100.073L87.503 99.2163H87.5262L88.5126 98.2344L98.9886 87.7308L99.4934 87.226L99.6184 87.1009C99.6293 87.0881 99.6386 87.0741 99.6462 87.0592C100.311 86.3135 100.666 85.3416 100.638 84.3427C100.609 83.3438 100.2 82.3936 99.4934 81.687L98.4838 80.6774C97.7795 79.9725 96.8327 79.5632 95.8367 79.533C94.8408 79.5029 93.8709 79.8542 93.1254 80.5153H93.0791L92.9448 80.6542L92.4353 81.1822L81.9594 91.6719L80.9776 92.6584H80.9544L80.0976 99.2116ZM97.5019 81.6592L98.5115 82.6688C98.901 83.0608 99.1517 83.5694 99.2252 84.117C99.2988 84.6647 99.1913 85.2214 98.9191 85.7023L94.4638 81.247C94.9457 80.9743 95.5036 80.8669 96.0523 80.9413C96.601 81.0158 97.1102 81.2679 97.5019 81.6592ZM93.4218 82.164L97.9928 86.7489L87.5262 97.2294L82.9412 92.6445L93.4218 82.164ZM86.3082 97.9751L81.5796 98.591L82.1956 93.8625L86.3082 97.9751ZM95.3854 85.4383L96.3719 86.4201L87.855 94.9138L86.8778 93.9505L95.3854 85.4383Z" fill="#365066"/>
</svg>
