<svg width="160" height="160" viewBox="0 0 160 160" fill="none" xmlns="http://www.w3.org/2000/svg">
<path d="M81 14C82.1867 14 83.3467 13.6481 84.3334 12.9888C85.3201 12.3295 86.0891 11.3925 86.5433 10.2961C86.9974 9.19974 87.1162 7.99335 86.8847 6.82946C86.6532 5.66557 86.0818 4.59648 85.2426 3.75736C84.4035 2.91825 83.3344 2.3468 82.1705 2.11529C81.0067 1.88378 79.8003 2.0026 78.7039 2.45673C77.6075 2.91085 76.6705 3.67989 76.0112 4.66658C75.3519 5.65328 75 6.81331 75 8C75 9.5913 75.6321 11.1174 76.7574 12.2426C77.8826 13.3679 79.4087 14 81 14Z" fill="#BFDFFF"/>
<path d="M35 26C36.1867 26 37.3467 25.6481 38.3334 24.9888C39.3201 24.3295 40.0891 23.3925 40.5433 22.2961C40.9974 21.1997 41.1162 19.9933 40.8847 18.8295C40.6532 17.6656 40.0818 16.5965 39.2426 15.7574C38.4035 14.9182 37.3344 14.3468 36.1705 14.1153C35.0067 13.8838 33.8003 14.0026 32.7039 14.4567C31.6075 14.9109 30.6705 15.6799 30.0112 16.6666C29.3519 17.6533 29 18.8133 29 20C29 21.5913 29.6321 23.1174 30.7574 24.2426C31.8826 25.3679 33.4087 26 35 26Z" fill="#BFDFFF"/>
<path d="M56 17.9999C57.1867 17.9999 58.3467 17.648 59.3334 16.9887C60.3201 16.3295 61.0891 15.3924 61.5433 14.296C61.9974 13.1997 62.1162 11.9933 61.8847 10.8294C61.6532 9.6655 61.0818 8.5964 60.2426 7.75729C59.4035 6.91817 58.3344 6.34673 57.1705 6.11522C56.0067 5.88371 54.8003 6.00253 53.7039 6.45665C52.6075 6.91078 51.6705 7.67981 51.0112 8.66651C50.3519 9.6532 50 10.8132 50 11.9999C50 13.5912 50.6321 15.1173 51.7574 16.2426C52.8826 17.3678 54.4087 17.9999 56 17.9999Z" fill="#BFDFFF"/>
<path d="M20 42C21.1867 42 22.3467 41.6481 23.3334 40.9888C24.3201 40.3295 25.0891 39.3925 25.5433 38.2961C25.9974 37.1997 26.1162 35.9933 25.8847 34.8295C25.6532 33.6656 25.0818 32.5965 24.2426 31.7574C23.4035 30.9182 22.3344 30.3468 21.1705 30.1153C20.0067 29.8838 18.8003 30.0026 17.7039 30.4567C16.6075 30.9109 15.6705 31.6799 15.0112 32.6666C14.3519 33.6533 14 34.8133 14 36C14 37.5913 14.6321 39.1174 15.7574 40.2426C16.8826 41.3679 18.4087 42 20 42Z" fill="#BFDFFF"/>
<path d="M12 62C13.1867 62 14.3467 61.6481 15.3334 60.9888C16.3201 60.3295 17.0891 59.3925 17.5433 58.2961C17.9974 57.1997 18.1162 55.9933 17.8847 54.8295C17.6532 53.6656 17.0818 52.5965 16.2426 51.7574C15.4035 50.9182 14.3344 50.3468 13.1705 50.1153C12.0067 49.8838 10.8003 50.0026 9.7039 50.4567C8.60754 50.9109 7.67047 51.6799 7.01118 52.6666C6.35189 53.6533 6 54.8133 6 56C6 57.5913 6.63214 59.1174 7.75736 60.2426C8.88258 61.3679 10.4087 62 12 62Z" fill="#BFDFFF"/>
<path d="M7 84C8.18669 84 9.34672 83.6481 10.3334 82.9888C11.3201 82.3295 12.0891 81.3925 12.5433 80.2961C12.9974 79.1997 13.1162 77.9933 12.8847 76.8295C12.6532 75.6656 12.0818 74.5965 11.2426 73.7574C10.4035 72.9182 9.33443 72.3468 8.17054 72.1153C7.00665 71.8838 5.80025 72.0026 4.7039 72.4567C3.60754 72.9109 2.67047 73.6799 2.01118 74.6666C1.35189 75.6533 1 76.8133 1 78C1 79.5913 1.63214 81.1174 2.75736 82.2426C3.88258 83.3679 5.4087 84 7 84Z" fill="#BFDFFF"/>
<path d="M11 106C12.1867 106 13.3467 105.648 14.3334 104.989C15.3201 104.33 16.0891 103.392 16.5433 102.296C16.9974 101.2 17.1162 99.9933 16.8847 98.8295C16.6532 97.6656 16.0818 96.5965 15.2426 95.7574C14.4035 94.9182 13.3344 94.3468 12.1705 94.1153C11.0067 93.8838 9.80025 94.0026 8.7039 94.4567C7.60754 94.9109 6.67047 95.6799 6.01118 96.6666C5.35189 97.6533 5 98.8133 5 100C5 101.591 5.63214 103.117 6.75736 104.243C7.88258 105.368 9.4087 106 11 106Z" fill="#BFDFFF"/>
<path d="M20 126C21.1867 126 22.3467 125.648 23.3334 124.989C24.3201 124.33 25.0891 123.392 25.5433 122.296C25.9974 121.2 26.1162 119.993 25.8847 118.829C25.6532 117.666 25.0818 116.596 24.2426 115.757C23.4035 114.918 22.3344 114.347 21.1705 114.115C20.0067 113.884 18.8003 114.003 17.7039 114.457C16.6075 114.911 15.6705 115.68 15.0112 116.667C14.3519 117.653 14 118.813 14 120C14 121.591 14.6321 123.117 15.7574 124.243C16.8826 125.368 18.4087 126 20 126Z" fill="#BFDFFF"/>
<path d="M36 142C37.1867 142 38.3467 141.648 39.3334 140.989C40.3201 140.33 41.0891 139.392 41.5433 138.296C41.9974 137.2 42.1162 135.993 41.8847 134.829C41.6532 133.666 41.0818 132.596 40.2426 131.757C39.4035 130.918 38.3344 130.347 37.1705 130.115C36.0067 129.884 34.8003 130.003 33.7039 130.457C32.6075 130.911 31.6705 131.68 31.0112 132.667C30.3519 133.653 30 134.813 30 136C30 137.591 30.6321 139.117 31.7574 140.243C32.8826 141.368 34.4087 142 36 142Z" fill="#BFDFFF"/>
<path d="M58 150C59.1867 150 60.3467 149.648 61.3334 148.989C62.3201 148.33 63.0891 147.392 63.5433 146.296C63.9974 145.2 64.1162 143.993 63.8847 142.829C63.6532 141.666 63.0818 140.596 62.2426 139.757C61.4035 138.918 60.3344 138.347 59.1705 138.115C58.0067 137.884 56.8003 138.003 55.7039 138.457C54.6075 138.911 53.6705 139.68 53.0112 140.667C52.3519 141.653 52 142.813 52 144C52 145.591 52.6321 147.117 53.7574 148.243C54.8826 149.368 56.4087 150 58 150Z" fill="#BFDFFF"/>
<path d="M103 17C101.813 17 100.653 16.6481 99.6666 15.9888C98.6799 15.3295 97.9109 14.3925 97.4567 13.2961C97.0026 12.1997 96.8838 10.9933 97.1153 9.82946C97.3468 8.66557 97.9182 7.59648 98.7574 6.75736C99.5965 5.91825 100.666 5.3468 101.829 5.11529C102.993 4.88378 104.2 5.0026 105.296 5.45673C106.392 5.91085 107.33 6.67989 107.989 7.66658C108.648 8.65328 109 9.81331 109 11C109 12.5913 108.368 14.1174 107.243 15.2426C106.117 16.3679 104.591 17 103 17Z" fill="#BFDFFF"/>
<path d="M123 26C124.187 26 125.347 25.6481 126.333 24.9888C127.32 24.3295 128.089 23.3925 128.543 22.2961C128.997 21.1997 129.116 19.9933 128.885 18.8295C128.653 17.6656 128.082 16.5965 127.243 15.7574C126.404 14.9182 125.334 14.3468 124.171 14.1153C123.007 13.8838 121.8 14.0026 120.704 14.4567C119.608 14.9109 118.67 15.6799 118.011 16.6666C117.352 17.6533 117 18.8133 117 20C117 21.5913 117.632 23.1174 118.757 24.2426C119.883 25.3679 121.409 26 123 26Z" fill="#BFDFFF"/>
<path d="M138 42C136.813 42 135.653 41.6481 134.667 40.9888C133.68 40.3295 132.911 39.3925 132.457 38.2961C132.003 37.1997 131.884 35.9933 132.115 34.8295C132.347 33.6656 132.918 32.5965 133.757 31.7574C134.596 30.9182 135.666 30.3468 136.829 30.1153C137.993 29.8838 139.2 30.0026 140.296 30.4567C141.392 30.9109 142.33 31.6799 142.989 32.6666C143.648 33.6533 144 34.8133 144 36C144 37.5913 143.368 39.1174 142.243 40.2426C141.117 41.3679 139.591 42 138 42Z" fill="#BFDFFF"/>
<path d="M146 62C144.813 62 143.653 61.6481 142.667 60.9888C141.68 60.3295 140.911 59.3925 140.457 58.2961C140.003 57.1997 139.884 55.9933 140.115 54.8295C140.347 53.6656 140.918 52.5965 141.757 51.7574C142.596 50.9182 143.666 50.3468 144.829 50.1153C145.993 49.8838 147.2 50.0026 148.296 50.4567C149.392 50.9109 150.33 51.6799 150.989 52.6666C151.648 53.6533 152 54.8133 152 56C152 57.5913 151.368 59.1174 150.243 60.2426C149.117 61.3679 147.591 62 146 62Z" fill="#BFDFFF"/>
<path d="M151 84C149.813 84 148.653 83.6481 147.667 82.9888C146.68 82.3295 145.911 81.3925 145.457 80.2961C145.003 79.1997 144.884 77.9933 145.115 76.8295C145.347 75.6656 145.918 74.5965 146.757 73.7574C147.596 72.9182 148.666 72.3468 149.829 72.1153C150.993 71.8838 152.2 72.0026 153.296 72.4567C154.392 72.9109 155.33 73.6799 155.989 74.6666C156.648 75.6533 157 76.8133 157 78C157 79.5913 156.368 81.1174 155.243 82.2426C154.117 83.3679 152.591 84 151 84Z" fill="#BFDFFF"/>
<path d="M147 106C145.813 106 144.653 105.648 143.667 104.989C142.68 104.33 141.911 103.392 141.457 102.296C141.003 101.2 140.884 99.9933 141.115 98.8295C141.347 97.6656 141.918 96.5965 142.757 95.7574C143.596 94.9182 144.666 94.3468 145.829 94.1153C146.993 93.8838 148.2 94.0026 149.296 94.4567C150.392 94.9109 151.33 95.6799 151.989 96.6666C152.648 97.6533 153 98.8133 153 100C153 101.591 152.368 103.117 151.243 104.243C150.117 105.368 148.591 106 147 106Z" fill="#BFDFFF"/>
<path d="M138 126C136.813 126 135.653 125.648 134.667 124.989C133.68 124.33 132.911 123.392 132.457 122.296C132.003 121.2 131.884 119.993 132.115 118.829C132.347 117.666 132.918 116.596 133.757 115.757C134.596 114.918 135.666 114.347 136.829 114.115C137.993 113.884 139.2 114.003 140.296 114.457C141.392 114.911 142.33 115.68 142.989 116.667C143.648 117.653 144 118.813 144 120C144 121.591 143.368 123.117 142.243 124.243C141.117 125.368 139.591 126 138 126Z" fill="#BFDFFF"/>
<path d="M122 142C120.813 142 119.653 141.648 118.667 140.989C117.68 140.33 116.911 139.392 116.457 138.296C116.003 137.2 115.884 135.993 116.115 134.829C116.347 133.666 116.918 132.596 117.757 131.757C118.596 130.918 119.666 130.347 120.829 130.115C121.993 129.884 123.2 130.003 124.296 130.457C125.392 130.911 126.33 131.68 126.989 132.667C127.648 133.653 128 134.813 128 136C128 137.591 127.368 139.117 126.243 140.243C125.117 141.368 123.591 142 122 142Z" fill="#BFDFFF"/>
<path d="M103 150C101.813 150 100.653 149.648 99.6666 148.989C98.6799 148.33 97.9109 147.392 97.4567 146.296C97.0026 145.2 96.8838 143.993 97.1153 142.829C97.3468 141.666 97.9182 140.596 98.7574 139.757C99.5965 138.918 100.666 138.347 101.829 138.115C102.993 137.884 104.2 138.003 105.296 138.457C106.392 138.911 107.33 139.68 107.989 140.667C108.648 141.653 109 142.813 109 144C109 145.591 108.368 147.117 107.243 148.243C106.117 149.368 104.591 150 103 150Z" fill="#BFDFFF"/>
<path d="M81 154C82.1867 154 83.3467 153.648 84.3334 152.989C85.3201 152.33 86.0891 151.392 86.5433 150.296C86.9974 149.2 87.1162 147.993 86.8847 146.829C86.6532 145.666 86.0818 144.596 85.2426 143.757C84.4035 142.918 83.3344 142.347 82.1705 142.115C81.0067 141.884 79.8003 142.003 78.7039 142.457C77.6075 142.911 76.6705 143.68 76.0112 144.667C75.3519 145.653 75 146.813 75 148C75 149.591 75.6321 151.117 76.7574 152.243C77.8826 153.368 79.4087 154 81 154Z" fill="#BFDFFF"/>
<g opacity="0.6">
<path d="M80.3846 32.4163C81.2169 32.4163 82.0305 32.1695 82.7225 31.7071C83.4145 31.2447 83.9539 30.5875 84.2724 29.8185C84.5909 29.0496 84.6743 28.2035 84.5119 27.3872C84.3495 26.5709 83.9487 25.8211 83.3602 25.2325C82.7717 24.644 82.0219 24.2432 81.2056 24.0809C80.3893 23.9185 79.5431 24.0018 78.7742 24.3203C78.0053 24.6388 77.348 25.1782 76.8856 25.8702C76.4232 26.5623 76.1764 27.3759 76.1764 28.2081C76.1764 29.3242 76.6198 30.3946 77.409 31.1838C78.1982 31.9729 79.2685 32.4163 80.3846 32.4163Z" fill="#BFDFFF"/>
<path d="M48.5385 40.9977C49.3708 40.9977 50.1844 40.7509 50.8764 40.2885C51.5684 39.8261 52.1078 39.1689 52.4263 38.4C52.7448 37.631 52.8281 36.7849 52.6658 35.9686C52.5034 35.1523 52.1026 34.4025 51.5141 33.814C50.9256 33.2254 50.1757 32.8247 49.3594 32.6623C48.5431 32.4999 47.697 32.5832 46.9281 32.9017C46.1591 33.2203 45.5019 33.7596 45.0395 34.4516C44.5771 35.1437 44.3303 35.9573 44.3303 36.7896C44.3303 37.9056 44.7737 38.976 45.5629 39.7652C46.352 40.5544 47.4224 40.9977 48.5385 40.9977Z" fill="#BFDFFF"/>
<path d="M63.0769 35.3135C63.9092 35.3135 64.7228 35.0667 65.4148 34.6043C66.1069 34.1419 66.6462 33.4846 66.9647 32.7157C67.2832 31.9468 67.3666 31.1006 67.2042 30.2843C67.0418 29.468 66.641 28.7182 66.0525 28.1297C65.464 27.5412 64.7142 27.1404 63.8979 26.978C63.0816 26.8157 62.2355 26.899 61.4665 27.2175C60.6976 27.536 60.0404 28.0754 59.578 28.7674C59.1156 29.4594 58.8688 30.273 58.8688 31.1053C58.8688 32.2214 59.3121 33.2917 60.1013 34.0809C60.8905 34.8701 61.9608 35.3135 63.0769 35.3135Z" fill="#BFDFFF"/>
<path d="M38.1539 52.3659C38.9862 52.3659 39.7998 52.1191 40.4918 51.6567C41.1838 51.1943 41.7232 50.5371 42.0417 49.7681C42.3602 48.9992 42.4435 48.1531 42.2812 47.3368C42.1188 46.5205 41.718 45.7706 41.1295 45.1821C40.541 44.5936 39.7911 44.1928 38.9748 44.0304C38.1585 43.8681 37.3124 43.9514 36.5435 44.2699C35.7745 44.5884 35.1173 45.1278 34.6549 45.8198C34.1925 46.5118 33.9457 47.3254 33.9457 48.1577C33.9457 49.2738 34.3891 50.3442 35.1783 51.1333C35.9674 51.9225 37.0378 52.3659 38.1539 52.3659Z" fill="#BFDFFF"/>
<path d="M32.6154 66.5767C33.4477 66.5767 34.2613 66.3299 34.9533 65.8675C35.6453 65.4051 36.1847 64.7479 36.5032 63.9789C36.8217 63.21 36.9051 62.3639 36.7427 61.5476C36.5803 60.7313 36.1795 59.9815 35.591 59.3929C35.0025 58.8044 34.2527 58.4036 33.4364 58.2413C32.6201 58.0789 31.774 58.1622 31.005 58.4807C30.2361 58.7992 29.5789 59.3386 29.1165 60.0306C28.6541 60.7227 28.4073 61.5363 28.4073 62.3685C28.4073 63.4846 28.8506 64.555 29.6398 65.3442C30.429 66.1333 31.4993 66.5767 32.6154 66.5767Z" fill="#BFDFFF"/>
<path d="M29.2081 82.208C30.0404 82.208 30.854 81.9612 31.5461 81.4988C32.2381 81.0364 32.7775 80.3792 33.096 79.6103C33.4145 78.8413 33.4978 77.9952 33.3354 77.1789C33.1731 76.3626 32.7723 75.6128 32.1838 75.0243C31.5952 74.4358 30.8454 74.035 30.0291 73.8726C29.2128 73.7102 28.3667 73.7936 27.5978 74.1121C26.8288 74.4306 26.1716 74.9699 25.7092 75.662C25.2468 76.354 25 77.1676 25 77.9999C25 79.116 25.4434 80.1863 26.2325 80.9755C27.0217 81.7647 28.0921 82.208 29.2081 82.208Z" fill="#BFDFFF"/>
<path d="M31.9231 97.8399C32.7554 97.8399 33.569 97.5931 34.261 97.1307C34.9531 96.6683 35.4924 96.0111 35.8109 95.2421C36.1294 94.4732 36.2128 93.6271 36.0504 92.8108C35.888 91.9945 35.4872 91.2446 34.8987 90.6561C34.3102 90.0676 33.5604 89.6668 32.7441 89.5044C31.9278 89.3421 31.0817 89.4254 30.3127 89.7439C29.5438 90.0624 28.8866 90.6018 28.4242 91.2938C27.9618 91.9858 27.715 92.7994 27.715 93.6317C27.715 94.7478 28.1583 95.8182 28.9475 96.6073C29.7367 97.3965 30.807 97.8399 31.9231 97.8399Z" fill="#BFDFFF"/>
<path d="M38.1539 112.05C38.9862 112.05 39.7998 111.804 40.4918 111.341C41.1838 110.879 41.7232 110.222 42.0417 109.453C42.3602 108.684 42.4435 107.838 42.2812 107.021C42.1188 106.205 41.718 105.455 41.1295 104.867C40.541 104.278 39.7911 103.877 38.9748 103.715C38.1585 103.553 37.3124 103.636 36.5435 103.954C35.7745 104.273 35.1173 104.812 34.6549 105.504C34.1925 106.196 33.9457 107.01 33.9457 107.842C33.9457 108.958 34.3891 110.029 35.1783 110.818C35.9674 111.607 37.0378 112.05 38.1539 112.05Z" fill="#BFDFFF"/>
<path d="M49.2308 123.419C50.0631 123.419 50.8767 123.172 51.5687 122.71C52.2607 122.247 52.8001 121.59 53.1186 120.821C53.4371 120.052 53.5204 119.206 53.3581 118.39C53.1957 117.573 52.7949 116.824 52.2064 116.235C51.6179 115.647 50.868 115.246 50.0517 115.083C49.2354 114.921 48.3893 115.004 47.6204 115.323C46.8514 115.641 46.1942 116.181 45.7318 116.873C45.2694 117.565 45.0226 118.378 45.0226 119.211C45.0226 120.327 45.466 121.397 46.2552 122.186C47.0443 122.976 48.1147 123.419 49.2308 123.419Z" fill="#BFDFFF"/>
<path d="M64.4616 129.103C65.2939 129.103 66.1075 128.856 66.7995 128.394C67.4915 127.931 68.0309 127.274 68.3494 126.505C68.6679 125.736 68.7512 124.89 68.5889 124.074C68.4265 123.257 68.0257 122.508 67.4372 121.919C66.8487 121.331 66.0988 120.93 65.2825 120.767C64.4662 120.605 63.6201 120.688 62.8512 121.007C62.0822 121.325 61.425 121.865 60.9626 122.557C60.5002 123.249 60.2534 124.062 60.2534 124.895C60.2534 126.011 60.6968 127.081 61.486 127.87C62.2751 128.659 63.3455 129.103 64.4616 129.103Z" fill="#BFDFFF"/>
<path d="M95.6154 34.6028C94.7831 34.6028 93.9695 34.356 93.2775 33.8936C92.5855 33.4312 92.0461 32.774 91.7276 32.0051C91.4091 31.2361 91.3258 30.39 91.4881 29.5737C91.6505 28.7574 92.0513 28.0076 92.6398 27.4191C93.2283 26.8305 93.9782 26.4298 94.7945 26.2674C95.6108 26.105 96.4569 26.1883 97.2258 26.5069C97.9948 26.8254 98.652 27.3647 99.1144 28.0568C99.5768 28.7488 99.8236 29.5624 99.8236 30.3947C99.8236 31.5107 99.3802 32.5811 98.591 33.3703C97.8019 34.1595 96.7315 34.6028 95.6154 34.6028Z" fill="#BFDFFF"/>
<path d="M109.462 40.9977C110.294 40.9977 111.107 40.7509 111.799 40.2885C112.491 39.8261 113.031 39.1689 113.349 38.4C113.668 37.631 113.751 36.7849 113.589 35.9686C113.426 35.1523 113.026 34.4025 112.437 33.814C111.849 33.2254 111.099 32.8247 110.283 32.6623C109.466 32.4999 108.62 32.5832 107.851 32.9017C107.082 33.2203 106.425 33.7596 105.963 34.4516C105.5 35.1437 105.253 35.9573 105.253 36.7896C105.253 37.9056 105.697 38.976 106.486 39.7652C107.275 40.5544 108.345 40.9977 109.462 40.9977Z" fill="#BFDFFF"/>
<path d="M119.846 52.3659C119.014 52.3659 118.2 52.1191 117.508 51.6567C116.816 51.1943 116.277 50.5371 115.958 49.7681C115.64 48.9992 115.557 48.1531 115.719 47.3368C115.881 46.5205 116.282 45.7706 116.871 45.1821C117.459 44.5936 118.209 44.1928 119.025 44.0304C119.841 43.8681 120.688 43.9514 121.457 44.2699C122.225 44.5884 122.883 45.1278 123.345 45.8198C123.808 46.5118 124.054 47.3254 124.054 48.1577C124.054 49.2738 123.611 50.3442 122.822 51.1333C122.033 51.9225 120.962 52.3659 119.846 52.3659Z" fill="#BFDFFF"/>
<path d="M125.385 66.5767C124.552 66.5767 123.739 66.3299 123.047 65.8675C122.355 65.4051 121.815 64.7479 121.497 63.9789C121.178 63.21 121.095 62.3639 121.257 61.5476C121.42 60.7313 121.82 59.9815 122.409 59.3929C122.997 58.8044 123.747 58.4036 124.564 58.2413C125.38 58.0789 126.226 58.1622 126.995 58.4807C127.764 58.7992 128.421 59.3386 128.883 60.0306C129.346 60.7227 129.593 61.5363 129.593 62.3685C129.593 63.4846 129.149 64.555 128.36 65.3442C127.571 66.1333 126.501 66.5767 125.385 66.5767Z" fill="#BFDFFF"/>
<path d="M128.792 82.208C127.96 82.208 127.146 81.9612 126.454 81.4988C125.762 81.0364 125.223 80.3792 124.904 79.6103C124.586 78.8413 124.502 77.9952 124.665 77.1789C124.827 76.3626 125.228 75.6128 125.816 75.0243C126.405 74.4358 127.155 74.035 127.971 73.8726C128.787 73.7102 129.633 73.7936 130.402 74.1121C131.171 74.4306 131.828 74.9699 132.291 75.662C132.753 76.354 133 77.1676 133 77.9999C133 79.116 132.557 80.1863 131.767 80.9755C130.978 81.7647 129.908 82.208 128.792 82.208Z" fill="#BFDFFF"/>
<path d="M126.077 97.8399C125.245 97.8399 124.431 97.5931 123.739 97.1307C123.047 96.6683 122.508 96.0111 122.189 95.2421C121.871 94.4732 121.787 93.6271 121.95 92.8108C122.112 91.9945 122.513 91.2446 123.101 90.6561C123.69 90.0676 124.44 89.6668 125.256 89.5044C126.072 89.3421 126.918 89.4254 127.687 89.7439C128.456 90.0624 129.113 90.6018 129.576 91.2938C130.038 91.9858 130.285 92.7994 130.285 93.6317C130.285 94.7478 129.842 95.8182 129.053 96.6073C128.263 97.3965 127.193 97.8399 126.077 97.8399Z" fill="#BFDFFF"/>
<path d="M119.846 112.05C119.014 112.05 118.2 111.804 117.508 111.341C116.816 110.879 116.277 110.222 115.958 109.453C115.64 108.684 115.557 107.838 115.719 107.021C115.881 106.205 116.282 105.455 116.871 104.867C117.459 104.278 118.209 103.877 119.025 103.715C119.841 103.553 120.688 103.636 121.457 103.954C122.225 104.273 122.883 104.812 123.345 105.504C123.808 106.196 124.054 107.01 124.054 107.842C124.054 108.958 123.611 110.029 122.822 110.818C122.033 111.607 120.962 112.05 119.846 112.05Z" fill="#BFDFFF"/>
<path d="M108.769 123.419C107.937 123.419 107.123 123.172 106.431 122.71C105.739 122.247 105.2 121.59 104.881 120.821C104.563 120.052 104.48 119.206 104.642 118.39C104.804 117.573 105.205 116.824 105.794 116.235C106.382 115.647 107.132 115.246 107.948 115.083C108.765 114.921 109.611 115.004 110.38 115.323C111.149 115.641 111.806 116.181 112.268 116.873C112.731 117.565 112.977 118.378 112.977 119.211C112.977 120.327 112.534 121.397 111.745 122.186C110.956 122.976 109.885 123.419 108.769 123.419Z" fill="#BFDFFF"/>
<path d="M95.6154 129.103C94.7831 129.103 93.9695 128.856 93.2775 128.394C92.5855 127.931 92.0461 127.274 91.7276 126.505C91.4091 125.736 91.3258 124.89 91.4881 124.074C91.6505 123.257 92.0513 122.508 92.6398 121.919C93.2283 121.331 93.9782 120.93 94.7945 120.767C95.6108 120.605 96.4569 120.688 97.2258 121.007C97.9948 121.325 98.652 121.865 99.1144 122.557C99.5768 123.249 99.8236 124.062 99.8236 124.895C99.8236 126.011 99.3802 127.081 98.591 127.87C97.8019 128.659 96.7315 129.103 95.6154 129.103Z" fill="#BFDFFF"/>
<path d="M80.3846 132C81.2169 132 82.0305 131.753 82.7225 131.291C83.4145 130.828 83.9539 130.171 84.2724 129.402C84.5909 128.633 84.6743 127.787 84.5119 126.971C84.3495 126.155 83.9487 125.405 83.3602 124.816C82.7717 124.228 82.0219 123.827 81.2056 123.665C80.3893 123.502 79.5431 123.586 78.7742 123.904C78.0053 124.223 77.348 124.762 76.8856 125.454C76.4232 126.146 76.1764 126.96 76.1764 127.792C76.1764 128.908 76.6198 129.978 77.409 130.767C78.1982 131.557 79.2685 132 80.3846 132Z" fill="#BFDFFF"/>
</g>
<path d="M50.2572 46.665V115.726H110.18V37.274H59.5553L50.2572 46.665Z" fill="white"/>
<path d="M62.5281 36V49.5281H49" fill="#365066"/>
<path d="M111.438 117H49V46.9688L59.9181 36H111.438V117ZM51.5312 114.469H108.906V38.5312H59.9181L51.4806 46.9688L51.5312 114.469Z" fill="#365066"/>
<path d="M94.7875 63.1074H61.4875V65.1887H94.7875V63.1074Z" fill="#50A7EF"/>
<path d="M98.95 56.8636H61.4875V61.0261H98.95V56.8636Z" fill="#50A7EF"/>
<path d="M77.0969 94.0276H61.4875V96.1088H77.0969V94.0276Z" fill="#50A7EF"/>
<path d="M79.1781 88.8245H61.4875V91.9463H79.1781V88.8245Z" fill="#50A7EF"/>
<path d="M87.5031 78.4694H61.4875V80.5506H87.5031V78.4694Z" fill="#50A7EF"/>
<path d="M90.625 73.2662H61.4875V76.3881H90.625V73.2662Z" fill="#50A7EF"/>
<path d="M80.2231 101.636C80.2102 101.765 80.2262 101.896 80.2699 102.018C80.3136 102.14 80.3839 102.251 80.4757 102.343C80.5675 102.435 80.6786 102.505 80.8009 102.549C80.9232 102.593 81.0537 102.609 81.1829 102.596L88.4748 101.641H88.5006L89.5998 100.547L101.273 88.8428L101.835 88.2803L101.975 88.141C101.987 88.1268 101.997 88.1112 102.006 88.0946C102.747 87.2637 103.142 86.1807 103.111 85.0676C103.079 83.9545 102.623 82.8958 101.835 82.1083L100.71 80.9833C99.9258 80.1979 98.8707 79.7418 97.7609 79.7082C96.6512 79.6746 95.5705 80.0662 94.7397 80.8027H94.6881L94.5384 80.9575L93.9708 81.5458L82.2976 93.2345L81.2036 94.3336H81.1778L80.2231 101.636ZM99.6164 82.0774L100.741 83.2024C101.175 83.6392 101.455 84.2059 101.537 84.8161C101.619 85.4264 101.499 86.0467 101.196 86.5825L96.2311 81.6181C96.768 81.3142 97.3898 81.1945 98.0011 81.2775C98.6125 81.3604 99.1799 81.6414 99.6164 82.0774ZM95.07 82.6399L100.163 87.7488L88.5006 99.4271L83.3916 94.3182L95.07 82.6399ZM87.1434 100.258L81.8744 100.944L82.5608 95.6754L87.1434 100.258ZM97.2581 86.2884L98.3573 87.3824L88.867 96.8468L87.7781 95.7734L97.2581 86.2884Z" fill="#365066"/>
</svg>
