<svg width="120" height="120" viewBox="0 0 120 120" fill="none" xmlns="http://www.w3.org/2000/svg">
<g clip-path="url(#clip0_365_21206)">
<path d="M46.3534 104.012C45.6716 103.787 45.0443 103.542 44.4034 103.282L45.1602 101.401C45.7738 101.646 46.3943 101.878 47.0148 102.082L46.3534 104.012ZM76.6466 103.207L75.8829 101.326C76.4829 101.08 77.0966 100.814 77.6966 100.535L78.5557 102.369C77.9148 102.662 77.2738 102.962 76.6398 103.207H76.6466ZM42.4943 102.464C41.8602 102.171 41.2329 101.864 40.6329 101.551L41.567 99.7506C42.1398 100.051 42.7397 100.344 43.3397 100.617L42.4943 102.464ZM80.4102 101.448L79.4693 99.6483C80.042 99.3483 80.6284 99.0211 81.2011 98.687L82.2307 100.432C81.6307 100.787 81.017 101.128 80.4102 101.448ZM38.8193 100.548C38.2193 100.201 37.6261 99.8324 37.0534 99.4642L38.1579 97.7597C38.7034 98.1142 39.2693 98.4415 39.842 98.7961L38.8193 100.548ZM84.0034 99.3347L82.8852 97.637C83.4307 97.2824 83.9761 96.9006 84.5148 96.512L85.7079 98.1483C85.142 98.5574 84.5625 98.9597 83.9966 99.3347H84.0034ZM35.3352 98.2847C34.7693 97.8824 34.2102 97.4597 33.6784 97.037L34.9398 95.462C35.4511 95.8643 35.9829 96.2665 36.5216 96.6552L35.3352 98.2847ZM87.3511 96.8802L86.0829 95.3052C86.5943 94.8893 87.0988 94.4597 87.5898 94.0233L88.9534 95.5438C88.4216 96.0006 87.8898 96.4506 87.3511 96.8802ZM32.0829 95.7006C31.5648 95.2438 31.0534 94.7733 30.5557 94.2961L31.967 92.837C32.4375 93.2938 32.9284 93.7438 33.4261 94.2006L32.0829 95.7006ZM90.4602 94.0983L89.0625 92.6733C89.5398 92.2029 90.0034 91.7256 90.4261 91.2552L91.9193 92.6188C91.4489 93.1302 90.9648 93.6347 90.4602 94.0983ZM29.0966 92.7893C28.6261 92.2847 28.1557 91.7597 27.7329 91.2415L29.2807 89.9256C29.7034 90.4233 30.1466 90.9142 30.5966 91.3983L29.0966 92.7893ZM93.2829 91.0506L91.7352 89.7484C92.1648 89.237 92.5807 88.7188 92.9693 88.2006L94.5852 89.4347C94.1693 90.0074 93.7329 90.5461 93.2829 91.0779V91.0506ZM26.4034 89.6529C25.9807 89.1074 25.5648 88.5415 25.1693 87.9756L26.8398 86.8165C27.2148 87.3552 27.6102 87.887 28.0125 88.412L26.4034 89.6529ZM95.8057 87.7779L94.1352 86.6324C94.5034 86.0961 94.8648 85.5438 95.2193 84.9756L96.9443 86.0461C96.5625 86.6393 96.1943 87.2256 95.8057 87.7779ZM24.0238 86.2438C23.6557 85.6574 23.3011 85.0574 22.9602 84.4574L24.7261 83.462C25.0534 84.0347 25.4079 84.6074 25.742 85.1665L24.0238 86.2438ZM92.8943 38.5029C92.4988 37.9847 92.0761 37.4665 91.6534 36.962L93.2011 35.6461C93.6443 36.1779 94.0875 36.7165 94.5034 37.262L92.8943 38.5029ZM29.0625 37.1393L27.5079 35.8302C27.9511 35.3052 28.4148 34.7802 28.8716 34.2756L30.3648 35.6393C29.9079 36.1438 29.4648 36.6347 29.0625 37.1393ZM90.3307 35.462C89.8807 34.9779 89.417 34.5074 88.967 34.0506L90.3784 32.5915C90.8761 33.0688 91.367 33.5734 91.8375 34.0779L90.3307 35.462ZM31.6943 34.2074L30.2761 32.762C30.767 32.2779 31.2784 31.8006 31.7898 31.3438L33.1534 32.8574C32.6829 33.3143 32.1988 33.7711 31.7284 34.2279L31.6943 34.2074ZM87.4943 32.7347C86.9966 32.2984 86.4852 31.8688 85.9807 31.4597L87.2488 29.8779C87.7807 30.3006 88.3125 30.7506 88.8375 31.2415L87.4943 32.7347ZM34.6875 31.5893L33.4057 30.0074C33.9307 29.5847 34.4898 29.1552 35.0557 28.7393L36.2557 30.3756C35.717 30.7779 35.1988 31.187 34.6875 31.5893ZM84.4057 30.2256C83.8738 29.837 83.3284 29.462 82.7761 29.1006L83.8875 27.4029C84.467 27.7847 85.0398 28.1802 85.5988 28.5824L84.4057 30.2256ZM37.8784 29.2506L36.7602 27.5597C37.3398 27.1779 37.9329 26.8029 38.5193 26.4552L39.5625 28.2006C38.9966 28.5347 38.4307 28.8893 37.8784 29.2506ZM81.092 28.0847C80.5193 27.7506 79.9398 27.4029 79.367 27.1302L80.3079 25.3302C80.9079 25.6438 81.5216 26.012 82.1216 26.3393L81.092 28.0847ZM41.2875 27.2324L40.3398 25.4393C40.9466 25.112 41.5738 24.7984 42.2011 24.5052L43.0602 26.3461C42.467 26.5984 41.867 26.9188 41.2875 27.2324ZM77.5943 26.2574C76.9943 25.9779 76.3807 25.712 75.7807 25.4734L76.5443 23.5915C77.1716 23.8438 77.8125 24.1234 78.4466 24.4165L77.5943 26.2574ZM44.867 25.5756L44.1034 23.6665C44.7852 23.4074 45.3988 23.1552 46.0534 22.9234L46.7352 24.8393C46.1079 25.0574 45.4875 25.2961 44.8807 25.5484L44.867 25.5756ZM73.9125 24.7984C73.292 24.5802 72.6579 24.3756 72.0307 24.1915L72.6034 22.2484C73.2852 22.4393 73.967 22.6506 74.5875 22.8824L73.9125 24.7984Z" fill="#365066"/>
<path d="M99.9206 40.2273C101.451 40.2273 102.947 40.6811 104.22 41.5315C105.493 42.3818 106.484 43.5904 107.07 45.0045C107.656 46.4185 107.809 47.9745 107.511 49.4756C107.212 50.9768 106.475 52.3557 105.393 53.438C104.31 54.5202 102.931 55.2573 101.43 55.5559C99.9292 55.8545 98.3732 55.7012 96.9591 55.1155C95.5451 54.5298 94.3365 53.5379 93.4861 52.2653C92.6358 50.9927 92.1819 49.4965 92.1819 47.9659C92.1837 45.9141 92.9996 43.9468 94.4505 42.4959C95.9014 41.045 97.8687 40.2291 99.9206 40.2273M99.9206 38.1818C97.9855 38.1818 96.0938 38.7557 94.4848 39.8307C92.8758 40.9058 91.6218 42.4339 90.8812 44.2217C90.1407 46.0095 89.947 47.9768 90.3245 49.8747C90.702 51.7726 91.6338 53.516 93.0022 54.8843C94.3705 56.2526 96.1139 57.1845 98.0118 57.562C99.9097 57.9395 101.877 57.7458 103.665 57.0052C105.453 56.2647 106.981 55.0107 108.056 53.4017C109.131 51.7927 109.705 49.901 109.705 47.9659C109.705 45.371 108.674 42.8824 106.839 41.0475C105.004 39.2126 102.515 38.1818 99.9206 38.1818V38.1818Z" fill="#365066"/>
<path d="M102.655 62.1672C104.844 62.169 106.943 63.0395 108.491 64.5876C110.039 66.1356 110.91 68.2347 110.911 70.424V80.5763H89.3182V70.4309C89.3182 68.2404 90.1879 66.1395 91.7361 64.59C93.2844 63.0405 95.3845 62.169 97.575 62.1672H102.655ZM102.655 60.1218H97.575C96.2215 60.1218 94.8813 60.3885 93.6309 60.9066C92.3805 61.4248 91.2445 62.1843 90.2878 63.1416C89.331 64.099 88.5723 65.2355 88.055 66.4863C87.5376 67.737 87.2718 69.0774 87.2727 70.4309V82.6218H112.957V70.4309C112.959 69.0771 112.693 67.7363 112.176 66.4852C111.659 65.2341 110.901 64.0972 109.944 63.1396C108.987 62.1821 107.85 61.4226 106.6 60.9048C105.349 60.387 104.008 60.1209 102.655 60.1218V60.1218Z" fill="#365066"/>
<path d="M20.8229 39.5455C22.3535 39.5455 23.8497 39.9993 25.1223 40.8496C26.3949 41.7 27.3868 42.9086 27.9725 44.3226C28.5582 45.7367 28.7115 47.2927 28.4129 48.7938C28.1143 50.295 27.3772 51.6739 26.295 52.7561C25.2127 53.8384 23.8338 54.5754 22.3327 54.874C20.8315 55.1726 19.2755 55.0194 17.8615 54.4337C16.4474 53.8479 15.2388 52.8561 14.3885 51.5834C13.5382 50.3108 13.0843 48.8146 13.0843 47.2841C13.0879 45.2328 13.9044 43.2665 15.3549 41.816C16.8054 40.3655 18.7716 39.5491 20.8229 39.5455ZM20.8229 37.5C18.8881 37.5013 16.9971 38.0763 15.389 39.1522C13.781 40.2281 12.528 41.7567 11.7885 43.5446C11.049 45.3325 10.8562 47.2996 11.2345 49.197C11.6128 51.0945 12.5452 52.8372 13.9138 54.2049C15.2824 55.5725 17.0257 56.5037 18.9235 56.8807C20.8212 57.2576 22.7881 57.0635 24.5755 56.3228C26.3629 55.582 27.8906 54.328 28.9654 52.7191C30.0402 51.1103 30.6138 49.2189 30.6138 47.2841C30.612 44.6886 29.5797 42.2 27.7437 40.3653C25.9078 38.5306 23.4185 37.5 20.8229 37.5V37.5Z" fill="#365066"/>
<path d="M23.5637 61.4854C25.7536 61.489 27.8527 62.361 29.4006 63.9102C30.9484 65.4593 31.8187 67.5591 31.8205 69.749V79.8945H10.2273V69.749C10.2291 67.5591 11.0994 65.4593 12.6473 63.9102C14.1952 62.361 16.2942 61.489 18.4842 61.4854H23.5637ZM23.5637 59.4399H18.4842C17.1307 59.4399 15.7904 59.7066 14.5401 60.2248C13.2897 60.743 12.1537 61.5024 11.1969 62.4598C10.2402 63.4172 9.48148 64.5537 8.96414 65.8044C8.44681 67.0551 8.18099 68.3955 8.18189 69.749V81.9399H33.866V69.749C33.866 67.0161 32.7808 64.3949 30.8489 62.4618C28.9171 60.5287 26.2967 59.4417 23.5637 59.4399V59.4399Z" fill="#365066"/>
<path d="M62.4138 77.0455C63.9443 77.0455 65.4405 77.4993 66.7131 78.3496C67.9857 79.2 68.9776 80.4086 69.5633 81.8226C70.149 83.2367 70.3023 84.7927 70.0037 86.2938C69.7051 87.795 68.9681 89.1739 67.8858 90.2561C66.8035 91.3384 65.4246 92.0754 63.9235 92.374C62.4223 92.6726 60.8664 92.5194 59.4523 91.9337C58.0383 91.3479 56.8296 90.3561 55.9793 89.0834C55.129 87.8108 54.6751 86.3146 54.6751 84.7841C54.6787 82.7328 55.4952 80.7665 56.9457 79.316C58.3962 77.8655 60.3624 77.0491 62.4138 77.0455ZM62.4138 75C60.4789 75.0013 58.5879 75.5763 56.9799 76.6522C55.3718 77.7281 54.1188 79.2567 53.3793 81.0446C52.6398 82.8325 52.447 84.7996 52.8253 86.697C53.2036 88.5945 54.136 90.3372 55.5046 91.7049C56.8732 93.0725 58.6166 94.0037 60.5143 94.3807C62.412 94.7576 64.3789 94.5635 66.1664 93.8228C67.9538 93.082 69.4814 91.828 70.5562 90.2191C71.631 88.6103 72.2047 86.7189 72.2047 84.7841C72.2029 82.1886 71.1705 79.7 69.3346 77.8653C67.4986 76.0306 65.0093 75 62.4138 75V75Z" fill="#365066"/>
<path d="M65.1545 98.9854C67.3444 98.989 69.4435 99.861 70.9914 101.41C72.5393 102.959 73.4095 105.059 73.4113 107.249V117.394H51.8182V107.249C51.82 105.059 52.6902 102.959 54.2381 101.41C55.786 99.861 57.8851 98.989 60.075 98.9854H65.1545ZM65.1545 96.9399H60.075C58.7215 96.9399 57.3813 97.2066 56.1309 97.7248C54.8805 98.243 53.7445 99.0024 52.7878 99.9598C51.831 100.917 51.0723 102.054 50.555 103.304C50.0376 104.555 49.7718 105.896 49.7727 107.249V119.44H75.4568V107.249C75.4568 104.516 74.3716 101.895 72.4397 99.9618C70.5079 98.0287 67.8875 96.9417 65.1545 96.9399V96.9399Z" fill="#365066"/>
<path d="M59.6865 2.04545C61.217 2.04545 62.7132 2.49932 63.9858 3.34965C65.2584 4.19998 66.2503 5.40859 66.836 6.82264C67.4217 8.23669 67.575 9.79268 67.2764 11.2938C66.9778 12.795 66.2408 14.1739 65.1585 15.2561C64.0762 16.3384 62.6973 17.0754 61.1962 17.374C59.695 17.6726 58.1391 17.5194 56.725 16.9337C55.311 16.3479 54.1023 15.3561 53.252 14.0834C52.4017 12.8108 51.9478 11.3146 51.9478 9.78409C51.9514 7.73278 52.7679 5.76653 54.2184 4.31603C55.6689 2.86553 57.6351 2.04906 59.6865 2.04545ZM59.6865 0C57.7516 0.00134831 55.8607 0.576321 54.2526 1.65223C52.6445 2.72814 51.3915 4.25668 50.652 6.0446C49.9125 7.83253 49.7197 9.79957 50.098 11.697C50.4763 13.5945 51.4087 15.3372 52.7773 16.7049C54.1459 18.0725 55.8893 19.0037 57.787 19.3807C59.6847 19.7576 61.6516 19.5635 63.4391 18.8228C65.2265 18.082 66.7541 16.828 67.8289 15.2191C68.9037 13.6103 69.4774 11.7189 69.4774 9.78409C69.4756 7.18856 68.4432 4.69996 66.6073 2.86528C64.7713 1.0306 62.282 -6.29342e-07 59.6865 0V0Z" fill="#365066"/>
<path d="M62.4272 23.9854C64.6171 23.989 66.7162 24.861 68.2641 26.4102C69.812 27.9593 70.6822 30.0591 70.684 32.249V42.3945H49.0909V32.249C49.0927 30.0591 49.9629 27.9593 51.5108 26.4102C53.0587 24.861 55.1578 23.989 57.3477 23.9854H62.4272ZM62.4272 21.9399H57.3477C55.9942 21.9399 54.654 22.2066 53.4036 22.7248C52.1532 23.243 51.0172 24.0024 50.0605 24.9598C49.1037 25.9172 48.345 27.0537 47.8277 28.3044C47.3103 29.5551 47.0445 30.8955 47.0454 32.249V44.4399H72.7295V32.249C72.7295 29.5161 71.6443 26.8949 69.7124 24.9618C67.7806 23.0287 65.1602 21.9417 62.4272 21.9399V21.9399Z" fill="#365066"/>
</g>
<defs>
<clipPath id="clip0_365_21206">
<rect width="120" height="120" fill="white"/>
</clipPath>
</defs>
</svg>
