<svg width="72" height="72" viewBox="0 0 72 72" fill="none" xmlns="http://www.w3.org/2000/svg">
<path fill-rule="evenodd" clip-rule="evenodd" d="M62.0269 30.7668H54.1244V44.3567C54.1244 45.7098 54.1817 46.5922 54.2389 47.1805C54.2962 47.71 54.5252 48.1807 54.9261 48.5925C55.3269 49.0043 55.9569 49.1808 56.8158 49.1808L61.7406 49.0631L62.1414 56.1228C59.2782 56.77 57.0449 57.123 55.556 57.123C51.662 57.123 49.0279 56.2405 47.6535 54.4167C46.2219 52.6518 45.5347 49.3573 45.5347 44.5332V14H54.1817V23.1776H62.0841V30.7668H62.0269ZM27.6233 56.1179V23.7148H36.5197V56.1755H27.6233V56.1179ZM10.5763 31.0097C11.607 32.0701 12.9408 32.6004 14.5171 32.6004C16.1541 32.6004 17.4272 32.0701 18.3973 31.1275C19.4279 30.0671 19.913 28.8298 19.913 27.2391C19.913 25.6485 19.4279 24.3523 18.3973 23.2919C17.3666 22.2314 16.0328 21.7012 14.4565 21.7012C12.8802 21.7012 11.5464 22.1725 10.5157 23.233C9.54565 24.2934 9 25.5895 9 27.1213C9 28.6531 9.54565 29.9492 10.5763 31.0097Z" fill="white"/>
</svg>
