<svg width="132" height="30" viewBox="0 0 132 30" fill="none" xmlns="http://www.w3.org/2000/svg">
<path fill-rule="evenodd" clip-rule="evenodd" d="M12.9388 28.5467V6.79219H19.0827V28.5855H12.9388V28.5467ZM37.0668 11.747H31.4519V20.6888C31.4519 21.5791 31.4926 22.1597 31.5333 22.5468C31.5739 22.8952 31.7367 23.2049 32.0215 23.4758C32.3063 23.7468 32.7539 23.8629 33.3642 23.8629L36.8634 23.7855L37.1482 28.4306C35.1138 28.8564 33.527 29.0887 32.4691 29.0887C29.7023 29.0887 27.8306 28.508 26.8541 27.3081C25.8369 26.1468 25.3487 23.9791 25.3487 20.8049V0.714844H31.4926V6.75348H37.1075V11.747H37.0668ZM3.70262 13.4115C2.64473 13.4115 1.74959 13.0631 1.05789 12.3663C0.366193 11.6695 0 10.8179 0 9.8115C0 8.80506 0.366193 7.95346 1.0172 7.2567C1.7089 6.55993 2.60404 6.25026 3.66193 6.25026C4.71982 6.25026 5.61495 6.59864 6.30665 7.29541C6.99835 7.99217 7.32385 8.84377 7.32385 9.88892C7.32385 10.9341 6.99835 11.747 6.30665 12.4437C5.65564 13.0631 4.80119 13.4115 3.70262 13.4115Z" fill="#0066CC"/>
<path fill-rule="evenodd" clip-rule="evenodd" d="M46.9238 28.5944V7.11914H60.6815V10.9089H51.2984V17.2252H58.9698V21.0149H51.2984V28.5944H46.9238ZM63.693 14.6039C64.8131 13.1512 66.6834 12.4248 69.3039 12.4248C71.9244 12.4248 73.7947 13.1459 74.9148 14.5881C76.0348 16.0303 76.5949 18.0568 76.5949 20.6675C76.5949 26.2048 74.1646 28.9734 69.3039 28.9734C64.4432 28.9734 62.0129 26.2048 62.0129 20.6675C62.0129 18.0568 62.573 16.0356 63.693 14.6039ZM66.9581 24.2362C67.4019 24.9942 68.1838 25.3731 69.3039 25.3731C70.424 25.3731 71.2006 24.9942 71.6338 24.2362C72.0671 23.4783 72.2837 22.2887 72.2837 20.6675C72.2837 19.0463 72.0671 17.8673 71.6338 17.1304C71.2006 16.3935 70.424 16.0251 69.3039 16.0251C68.1838 16.0251 67.4072 16.3935 66.974 17.1304C66.5407 17.8673 66.3241 19.0463 66.3241 20.6675C66.3241 22.2887 66.5354 23.4783 66.9581 24.2362ZM79.7014 28.5944V12.8038H83.9175V14.4776C85.6927 13.4249 87.3834 12.7406 88.9895 12.4248V16.6883C87.2777 17.0462 85.8089 17.4146 84.5832 17.7936L83.9492 18.0147V28.5944H79.7014ZM100.845 12.8038H105.093V28.5944H100.877V27.7102C99.3553 28.5523 98.0345 28.9734 96.9144 28.9734C94.7166 28.9734 93.2373 28.3681 92.4765 27.1575C91.7157 25.9469 91.3353 23.9204 91.3353 21.0781V12.8038H95.583V21.1412C95.583 22.6993 95.7098 23.7625 95.9634 24.331C96.217 24.8994 96.8299 25.1836 97.802 25.1836C98.7319 25.1836 99.6089 25.0363 100.433 24.7415L100.845 24.6152V12.8038ZM113.272 28.5944H109.024V12.8038H113.24V13.6881C114.698 12.8459 115.945 12.4248 116.98 12.4248C118.692 12.4248 120.013 12.9196 120.943 13.9091C122.887 12.9196 124.662 12.4248 126.268 12.4248C128.361 12.4248 129.814 13.0301 130.627 14.2407C131.441 15.4513 131.848 17.3831 131.848 20.0359V28.5944H127.6V20.1622C127.6 18.8147 127.452 17.8199 127.156 17.1778C126.86 16.5356 126.268 16.2146 125.381 16.2146C124.705 16.2146 123.88 16.3619 122.908 16.6567L122.433 16.8146C122.517 18.3937 122.56 19.5938 122.56 20.4149V28.5944H118.312V20.478C118.312 18.92 118.174 17.8199 117.9 17.1778C117.625 16.5356 117.023 16.2146 116.093 16.2146C115.269 16.2146 114.455 16.3619 113.652 16.6567L113.272 16.783V28.5944Z" fill="#0066CC"/>
</svg>
