<svg width="132" height="133" viewBox="0 0 132 133" fill="none" xmlns="http://www.w3.org/2000/svg">
<g clip-path="url(#clip0_589_59563)">
<path d="M129.325 111.514H0" stroke="#5A5A5A" stroke-miterlimit="10"/>
<path d="M16.877 105.511C29.0878 64.6904 88.4354 21.5178 99.8557 53.025C101.703 58.1208 95.6086 61.3214 94.2518 54.6611C93.2856 49.9174 96.8826 42.1688 105.451 38.4141" stroke="#5A5A5A" stroke-miterlimit="10" stroke-dasharray="5 5"/>
<path d="M93.0176 35.6506L132 21.4355L101.545 36.8283L93.0176 35.6506Z" fill="#EAF4FE"/>
<path d="M104.036 44.3016L132.001 21.4355L101.545 36.8283L104.036 44.3016Z" fill="#9AC7F7"/>
<path d="M93.1152 35.6313L110.468 32.3223L101.983 36.6243L93.1152 35.6313Z" fill="#003C77"/>
<path d="M93.0176 35.6506L110.029 32.5254L101.545 36.8283L93.0176 35.6506Z" fill="#0058B0"/>
<path d="M104.036 44.301L110.705 38.5594L110.468 32.3223L101.545 36.8276L104.036 44.301Z" fill="#003C77"/>
<path d="M104.035 44.3016L132 21.4355L107.717 38.5784L104.035 44.3016Z" fill="#0561FC"/>
<path d="M119.491 47.9002L131.999 21.4355L107.717 38.5784L119.491 47.9002Z" fill="#C5E1F9"/>
<path d="M119.492 47.9002L113.643 34.4395L107.939 38.4053L119.492 47.9002Z" fill="#003C77"/>
<path d="M119.491 47.8989L113.42 34.6113L107.717 38.5772L119.491 47.8989Z" fill="#0058B0"/>
<path d="M91.8074 64.7553L58.1756 32.6349C57.8556 32.2804 57.5094 31.9504 57.14 31.6476L56.8097 31.3321C56.8097 31.3321 56.7968 31.3367 56.7735 31.3451C55.1457 30.1039 53.1553 29.4316 51.1082 29.4316C49.0611 29.4316 47.0707 30.1039 45.4428 31.3451C45.4195 31.3367 45.4066 31.3321 45.4066 31.3321L45.0763 31.6476C44.7068 31.9505 44.3606 32.2805 44.0405 32.6349L10.4086 64.7553C10.0551 65.1087 9.77492 65.5284 9.58414 65.9904C9.39335 66.4525 9.29573 66.9477 9.29689 67.4475V105.453C9.29696 106.966 9.89772 108.415 10.9669 109.484C12.0361 110.554 13.4863 111.154 14.9984 111.154H87.2181C88.73 111.154 90.1804 110.554 91.2495 109.484C92.3185 108.415 92.9194 106.966 92.9194 105.453V67.4475C92.921 66.9477 92.8227 66.4525 92.6324 65.9905C92.4413 65.5284 92.1612 65.1087 91.8074 64.7553Z" fill="#D98F00"/>
<path d="M64.5454 88.4845C71.9673 81.0626 71.9673 69.0295 64.5454 61.6075C57.1234 54.1855 45.09 54.1855 37.6681 61.6075C30.2461 69.0295 30.2461 81.0626 37.6681 88.4845C45.09 95.9072 57.1234 95.9072 64.5454 88.4845Z" stroke="#2094F1" stroke-width="0.07778" stroke-miterlimit="10"/>
<path d="M87.2174 99.7521V56.0404L66.3119 35.1348H20.6995C19.1874 35.1348 17.7373 35.7356 16.6681 36.8048C15.5989 37.8741 14.9981 39.3242 14.998 40.8363V99.7521H87.2174Z" fill="#EAF4FE"/>
<path d="M87.2181 111.155H14.9984C13.4863 111.155 12.0361 110.554 10.9669 109.485C9.89771 108.416 9.29695 106.966 9.29688 105.454V67.4434L87.2181 111.155Z" fill="#FFBF0D"/>
<path d="M14.998 111.155H87.2174C88.7293 111.155 90.1797 110.554 91.2488 109.485C92.3186 108.416 92.9187 106.966 92.9187 105.454V67.4434L14.998 111.155Z" fill="#FECE40"/>
<path d="M66.3125 35.1348V50.3389C66.3124 51.0877 66.4598 51.829 66.7464 52.5208C67.0329 53.2125 67.4529 53.8411 67.9823 54.3705C68.5118 54.9 69.1403 55.3199 69.8321 55.6065C70.5238 55.893 71.2653 56.0404 72.014 56.0404H87.2182L66.3125 35.1348Z" fill="#2A66C4"/>
<path d="M75.9766 59.8066H42.9766V63.6438H75.9766V59.8066Z" fill="#C5E1F9"/>
<path d="M75.8136 67.4434H28.3008V71.2444H75.8136V67.4434Z" fill="#C5E1F9"/>
<path d="M62.9301 52.1348H42.9766V55.972H62.9301V52.1348Z" fill="#C5E1F9"/>
<path fill-rule="evenodd" clip-rule="evenodd" d="M39.9062 52.1348H28.3945V63.6463H39.9062V52.1348Z" fill="#2A66C4"/>
<path fill-rule="evenodd" clip-rule="evenodd" d="M31.0813 56.7211C30.984 56.7178 30.887 56.7352 30.7969 56.7722C30.7067 56.8091 30.6255 56.8647 30.5585 56.9354C30.4246 57.0828 30.354 57.2769 30.3619 57.4759C30.3565 57.6775 30.4305 57.8731 30.5683 58.0203C30.6349 58.0919 30.7161 58.1483 30.8063 58.1859C30.8965 58.2236 30.9935 58.2414 31.0912 58.2385C31.1873 58.242 31.2832 58.2246 31.3721 58.1876C31.461 58.1507 31.5407 58.0949 31.6061 58.0243C31.7386 57.8768 31.809 57.6839 31.8026 57.4857C31.8087 57.2859 31.7385 57.0912 31.6061 56.9413C31.5414 56.8689 31.4617 56.8115 31.3723 56.7736C31.2829 56.7355 31.1862 56.7176 31.0892 56.7211" fill="white"/>
<path d="M35.1605 59.2148H34.1484V61.0034H32.9023V54.8574H35.1605C36.6189 54.8574 37.3481 55.5683 37.3481 56.9899C37.3481 57.708 37.1614 58.2596 36.788 58.6448C36.4145 59.0301 35.872 59.22 35.1605 59.2148ZM34.1484 58.1476H35.1526C35.7737 58.1476 36.0824 57.7545 36.0824 56.9899C36.1101 56.7001 36.0295 56.4103 35.8563 56.1763C35.7643 56.0857 35.6538 56.0162 35.5323 55.9724C35.4109 55.9286 35.2813 55.9117 35.1526 55.9227H34.1484V58.1476Z" fill="white"/>
<path d="M81.9002 111.156C81.5341 111.155 81.1711 111.083 80.8327 110.942C80.4943 110.803 80.1865 110.597 79.9279 110.337C79.6685 110.078 79.4636 109.77 79.3231 109.432C79.1835 109.093 79.1113 108.73 79.1113 108.364V84.1861C79.1113 83.8201 79.1835 83.4571 79.3231 83.1186C79.4636 82.7802 79.6685 82.4724 79.9279 82.213C80.1865 81.9544 80.4943 81.7487 80.8327 81.6083C81.1711 81.4686 81.5341 81.3965 81.9002 81.3965H117.238C117.978 81.3965 118.688 81.6904 119.211 82.213C119.734 82.7364 120.029 83.4463 120.03 84.1861V108.364C120.029 109.104 119.734 109.814 119.211 110.337C118.688 110.861 117.978 111.155 117.238 111.156H81.9002Z" fill="#C5E1F9"/>
<path d="M81.9002 111.156C81.5341 111.155 81.1711 111.083 80.8327 110.942C80.4943 110.803 80.1865 110.597 79.9279 110.337C79.6685 110.078 79.4636 109.77 79.3231 109.432C79.1835 109.093 79.1113 108.73 79.1113 108.364V84.1861C79.1113 83.8201 79.1835 83.4571 79.3231 83.1186C79.4636 82.7802 79.6685 82.4724 79.9279 82.213C80.1865 81.9544 80.4943 81.7487 80.8327 81.6083C81.1711 81.4686 81.5341 81.3965 81.9002 81.3965H117.238C117.978 81.3965 118.688 81.6904 119.211 82.213C119.734 82.7364 120.029 83.4463 120.03 84.1861V108.364C120.029 109.104 119.734 109.814 119.211 110.337C118.688 110.861 117.978 111.155 117.238 111.156H81.9002Z" fill="#9AC7F7"/>
<path d="M117.238 81.3965H81.9002C81.5341 81.3965 81.1711 81.4686 80.8327 81.6083C80.4943 81.7487 80.1865 81.9544 79.9279 82.213C79.6685 82.4724 79.4636 82.7802 79.3231 83.1186C79.1835 83.4571 79.1113 83.8201 79.1113 84.1861V85.6473L111.574 111.156H117.238C117.978 111.155 118.688 110.861 119.211 110.337C119.734 109.814 120.029 109.104 120.03 108.364V84.1861C120.029 83.4463 119.734 82.7364 119.211 82.213C118.688 81.6904 117.978 81.3965 117.238 81.3965Z" fill="#67ACF5"/>
<path d="M99.569 99.9954L120.03 85.764V84.1861C120.029 83.4463 119.734 82.7364 119.211 82.213C118.688 81.6904 117.978 81.3965 117.238 81.3965H81.9002C81.5341 81.3965 81.1711 81.4686 80.8327 81.6083C80.4943 81.7487 80.1865 81.9544 79.9279 82.213C79.6685 82.4724 79.4636 82.7802 79.3231 83.1186C79.1835 83.4571 79.1113 83.8201 79.1113 84.1861V85.764L99.569 99.9954Z" fill="#C5E1F9"/>
</g>
<defs>
<clipPath id="clip0_589_59563">
<rect width="132" height="132" fill="white" transform="translate(0 0.714844)"/>
</clipPath>
</defs>
</svg>
