<svg width="833" height="643" viewBox="0 0 833 643" fill="none" xmlns="http://www.w3.org/2000/svg">
<g clip-path="url(#clip0)">
<ellipse cx="547.639" cy="102.491" rx="99.8661" ry="99.1628" fill="#0066CC"/>
<ellipse cx="638.361" cy="374.661" rx="99.1628" ry="99.8661" fill="#0066CC"/>
<circle cx="404.872" cy="546.965" r="99.1628" fill="#0066CC"/>
<circle cx="262.809" cy="102.491" r="99.1628" fill="#0066CC"/>
<ellipse cx="167.163" cy="374.661" rx="99.1628" ry="99.8661" fill="#0066CC"/>
<path d="M542.748 75.54C546.368 75.54 549.385 78.5564 549.385 82.1761C549.385 85.7958 546.368 88.8122 542.748 88.8122C539.129 88.8122 536.112 85.7958 536.112 82.1761C536.112 78.5564 539.008 75.54 542.748 75.54ZM542.748 70.7137C536.354 70.7137 531.286 75.902 531.286 82.1761C531.286 88.4502 536.474 93.6384 542.748 93.6384C549.143 93.6384 554.211 88.4502 554.211 82.1761C554.211 75.902 549.023 70.7137 542.748 70.7137Z" fill="white"/>
<path d="M576.167 82.176C575.563 81.452 560.602 63.4743 542.986 63.4743C542.866 63.4743 542.866 63.4743 542.866 63.4743C541.297 63.3536 524.526 63.233 509.323 82.176C523.44 100.033 539.125 100.998 542.383 100.998C542.624 100.998 542.745 100.998 542.866 100.998H542.986C560.602 100.998 575.563 83.0206 576.167 82.176ZM542.986 96.1721H542.745H542.624C542.504 96.1721 528.87 96.7754 515.718 82.176C522.233 75.0573 528.628 71.6789 533.213 70.1104C538.763 68.0592 542.624 68.3005 542.745 68.3005H542.866H542.986C543.107 68.3005 543.107 68.3005 543.228 68.3005C554.449 68.3005 565.066 77.3497 569.772 82.2966C564.704 87.1229 554.207 96.1721 542.986 96.1721Z" fill="white"/>
<path d="M574.842 54.184H511.619C507.878 54.184 504.741 57.3211 504.741 61.0614V160.723C504.741 164.464 507.878 167.601 511.619 167.601H574.722V150.709H596.44L574.842 54.184ZM569.895 145.883V162.774H511.619C510.533 162.774 509.567 161.809 509.567 160.723V61.0614C509.567 59.9755 510.533 59.0103 511.619 59.0103H570.378L589.804 145.883H569.895Z" fill="white"/>
<path d="M515.385 36.7079L511.205 39.121L518.444 51.6596L522.624 49.2464L515.385 36.7079Z" fill="white"/>
<path d="M543.471 34.8788H538.645V49.3575H543.471V34.8788Z" fill="white"/>
<path d="M570.904 39.1258L566.725 36.7127L559.485 49.2513L563.665 51.6644L570.904 39.1258Z" fill="white"/>
<path d="M579.196 390.764L594.52 406.087L579.196 390.764ZM650.021 348.896L636.267 335.262L636.146 335.141L650.021 349.017V348.896Z" fill="white"/>
<path d="M632.04 337.796L647.363 353.119L632.04 337.796Z" fill="white"/>
<path d="M582.573 387.265L597.897 402.588L582.573 387.265Z" fill="white"/>
<path d="M631.802 344.432L589.09 387.024L592.589 390.402L635.18 347.81L631.802 344.432Z" fill="white"/>
<path d="M680.55 317.405H618.653C614.913 317.405 611.776 320.542 611.776 324.282V351.309L576.183 386.903C572.201 390.885 572.201 397.4 576.183 401.382L583.905 409.104C585.956 411.155 588.489 412.12 591.144 412.12C593.798 412.12 596.332 411.155 598.383 409.104L611.776 395.59V431.184C611.776 435.045 614.913 438.061 618.653 438.061H681.757V421.169H703.475L680.55 317.405ZM594.522 406.087C593.557 406.811 592.35 407.294 591.144 407.294C589.696 407.294 588.369 406.691 587.283 405.725L579.561 398.003C578.596 397.038 577.992 395.59 577.992 394.142C577.992 392.936 578.354 391.729 579.199 390.764L594.522 406.087ZM612.862 387.024C612.862 387.265 612.741 387.506 612.741 387.748L597.901 402.709L582.577 387.265L632.046 337.796L647.37 353.119L631.322 369.287C624.324 370.011 618.412 374.234 615.154 380.267C615.034 380.387 613.224 384.852 612.862 387.024ZM636.269 335.141H636.511L652.437 332.849L650.145 348.776V349.017L636.269 335.141ZM676.93 416.343V433.235H618.653C617.568 433.235 616.602 432.27 616.602 431.184V402.709C616.723 402.95 617.568 403.915 617.688 404.157C621.549 408.621 627.099 411.517 633.374 411.517V406.691C625.531 406.691 619.015 400.899 617.688 393.177C617.568 392.212 617.447 391.367 617.447 390.402C617.447 390.281 617.447 390.161 617.447 390.04L617.688 387.627C618.291 384.248 619.86 381.232 622.032 378.94C624.928 375.923 628.909 374.113 633.374 374.113L654.126 353.361L657.625 330.557C657.867 328.988 656.66 327.661 654.971 327.661C654.85 327.661 632.046 331.039 632.046 331.039L616.602 346.362V324.282C616.602 323.197 617.568 322.231 618.653 322.231H676.086L696.718 416.343H676.93Z" fill="white"/>
<path d="M626.614 390.281C626.614 393.901 629.631 396.917 633.371 396.917V401.744C626.976 401.744 621.788 396.555 621.788 390.281C621.788 387.265 622.874 384.61 624.804 382.559C624.925 382.439 625.046 382.318 625.166 382.197C627.218 380.146 630.113 378.819 633.371 378.819V383.645C629.631 383.645 626.614 386.661 626.614 390.281Z" fill="white"/>
<path d="M388.055 532.442H387.935V533.648H388.297C388.176 533.286 388.176 532.804 388.055 532.442Z" fill="white"/>
<path d="M408.929 575.999C400 575.999 392.761 568.76 392.761 559.831V539.44C390.589 538.113 389.02 536.062 388.297 533.649H387.935V559.831C387.935 571.293 397.104 580.584 408.446 580.825V607.249H455.502V575.999H408.929ZM450.676 602.423H413.272V580.825H450.676V602.423Z" fill="white"/>
<path d="M445.248 527.616C445.248 527.616 445.127 527.616 445.248 527.616C443.438 527.737 442.111 529.064 442.231 530.753C442.352 532.321 443.679 533.649 445.248 533.649H445.368C447.057 533.528 448.385 532.201 448.264 530.512C448.143 528.943 446.816 527.616 445.248 527.616Z" fill="white"/>
<path d="M429.562 527.616C429.562 527.616 429.441 527.616 429.562 527.616C427.752 527.737 426.425 529.064 426.546 530.753C426.666 532.321 427.994 533.649 429.562 533.649H429.683C431.372 533.528 432.699 532.201 432.579 530.512C432.458 528.943 431.131 527.616 429.562 527.616Z" fill="white"/>
<path d="M398.19 527.616C398.19 527.616 398.069 527.616 398.19 527.616C396.38 527.737 395.053 529.064 395.174 530.753C395.294 532.321 396.622 533.649 398.19 533.649H398.311C400 533.528 401.327 532.201 401.206 530.512C401.086 528.943 399.759 527.616 398.19 527.616Z" fill="white"/>
<path d="M413.876 527.616C413.876 527.616 413.755 527.616 413.876 527.616C412.066 527.737 410.739 529.064 410.859 530.753C410.98 532.321 412.307 533.649 413.876 533.649H413.996C415.685 533.528 417.013 532.201 416.892 530.512C416.771 528.943 415.444 527.616 413.876 527.616Z" fill="white"/>
<path d="M408.449 514.344L419.308 514.464V514.344H408.449Z" fill="white"/>
<path d="M424.132 514.344L434.991 514.464V514.344H424.132Z" fill="white"/>
<path d="M455.504 514.344V509.638H387.936V514.344H375.75C372.372 508.552 366.218 504.691 358.979 504.691C349.93 504.691 342.449 510.845 340.277 519.17H355.359V528.822H340.277C342.449 537.148 349.93 543.301 358.979 543.301C366.098 543.301 372.372 539.44 375.75 533.649H387.936V532.442H388.057C388.057 532.804 388.178 533.287 388.298 533.649C389.022 536.062 390.591 538.113 392.763 539.44C394.331 540.405 396.141 541.009 398.192 541.009C401.329 541.009 404.104 539.561 406.035 537.389C407.965 539.682 410.74 541.009 413.878 541.009C417.015 541.009 419.79 539.561 421.72 537.389C423.651 539.682 426.426 541.009 429.563 541.009C432.7 541.009 435.475 539.561 437.405 537.389C439.336 539.682 442.111 541.009 445.248 541.009C447.299 541.009 449.109 540.405 450.678 539.44V575.999H455.504V533.649H472.396V514.344H455.504ZM387.936 528.822H372.854L371.527 531.236C368.993 535.7 364.167 538.475 358.979 538.475C354.756 538.475 350.895 536.665 348.12 533.649H360.186V514.344H348.12C350.774 511.327 354.635 509.518 358.979 509.518C364.167 509.518 368.993 512.293 371.527 516.757L372.854 519.17H387.936V528.822ZM403.622 530.753C403.622 533.769 401.209 536.183 398.192 536.183C395.779 536.183 393.728 534.614 393.004 532.322C392.883 531.839 392.763 531.236 392.763 530.753V514.464H403.622V530.753ZM419.307 530.753C419.307 533.769 416.894 536.183 413.878 536.183C410.861 536.183 408.448 533.769 408.448 530.874V514.344H419.307V530.753ZM429.563 536.183C426.546 536.183 424.133 533.769 424.133 530.874V514.344H434.992V530.753C434.992 533.769 432.579 536.183 429.563 536.183ZM450.678 530.753C450.678 531.356 450.557 531.839 450.436 532.322C449.712 534.493 447.661 536.183 445.248 536.183C442.232 536.183 439.819 533.769 439.819 530.874V514.464H450.678V530.753ZM467.569 528.822H455.504V519.17H467.569V528.822Z" fill="white"/>
<path d="M299.084 63.957H285.45L286.536 68.7833H295.102L312.235 146.003H294.137V160.482H246.96C246.478 160.482 245.995 159.999 245.995 159.517V155.656H241.169V159.517C241.169 162.654 243.823 165.308 246.96 165.308H299.084V150.829H318.389L299.084 63.957Z" fill="white"/>
<path d="M303.907 141.177H284.602V155.656H232.479C229.342 155.656 226.688 153.001 226.688 149.864V146.003H231.514V149.864C231.514 150.347 231.996 150.829 232.479 150.829H279.776V136.351H297.875L280.741 59.1309H273.381L272.296 54.3046H284.602L303.907 141.177Z" fill="white"/>
<path d="M273.263 59.1307L272.177 54.3045L270.005 44.652H218.002C214.865 44.652 212.211 47.1858 212.211 50.4435V140.212C212.211 143.349 214.865 146.003 218.002 146.003H270.126V131.524H289.431L273.263 59.1307ZM265.3 126.698V141.177H218.002C217.52 141.177 217.037 140.694 217.037 140.212V50.4435C217.037 49.9608 217.52 49.4782 218.002 49.4782H266.265L283.398 126.698H265.3Z" fill="white"/>
<path d="M256.854 77.229C259.519 77.229 261.68 75.0682 261.68 72.4027C261.68 69.7373 259.519 67.5765 256.854 67.5765C254.188 67.5765 252.027 69.7373 252.027 72.4027C252.027 75.0682 254.188 77.229 256.854 77.229Z" fill="white"/>
<path d="M196.495 327.054L186.239 337.31L189.738 340.689L199.994 330.433L196.495 327.054Z" fill="white"/>
<path d="M189.738 320.297L186.239 323.676L196.495 333.932L199.994 330.433L189.738 320.297Z" fill="white"/>
<path d="M213.268 359.511C213.268 353.598 208.442 348.772 202.53 348.772H202.409C199.152 348.772 196.135 350.22 194.205 352.633C192.153 350.22 189.016 348.41 185.517 348.41C182.139 348.41 179.243 350.22 177.192 352.633C175.141 350.22 172.004 348.41 168.626 348.41C166.333 348.41 164.282 349.255 162.593 350.461V327.537C162.593 326.089 162.351 324.641 161.869 323.314C160.18 318.488 155.595 314.989 150.165 314.989C144.736 314.989 140.03 318.488 138.1 323.314C137.496 324.762 137.255 326.21 137.255 327.778V332.846V379.298L133.153 372.421C131.222 369.163 127.844 367.353 124.224 367.353C122.414 367.353 120.604 367.836 118.915 368.801C115.657 370.732 113.848 374.231 113.848 377.73C113.848 379.54 114.33 381.349 115.296 383.039L138.823 422.252L140.03 424.303C140.151 424.544 140.271 424.786 140.513 425.027C140.513 425.027 140.513 425.148 140.633 425.148C141.961 426.957 143.65 428.405 145.58 429.491C147.993 430.939 150.768 431.663 153.785 431.663H213.268V359.511ZM137.255 410.186L119.518 380.625C117.95 377.971 118.795 374.593 121.449 373.024C122.294 372.541 123.259 372.3 124.224 372.3C126.155 372.3 127.964 373.265 128.93 374.955L137.255 388.709V410.186ZM153.905 426.957C151.734 426.957 149.803 426.354 148.114 425.509C146.666 424.786 145.339 423.7 144.494 422.372C144.012 421.769 143.529 421.045 143.288 420.321C142.564 418.873 142.202 417.184 142.202 415.374V327.778C142.202 326.089 142.805 324.52 143.65 323.314C145.098 321.263 147.511 319.815 150.165 319.815C152.94 319.815 155.233 321.142 156.56 323.314C157.284 324.52 157.766 325.968 157.766 327.537V358.545C157.766 358.787 157.766 386.055 157.766 386.055H162.593V358.787C162.955 355.891 165.609 353.357 168.746 353.357C171.883 353.357 174.417 356.374 174.658 359.39C174.658 359.511 174.658 385.934 174.658 385.934H179.485V359.39C179.605 356.494 182.38 353.357 185.517 353.357C188.775 353.357 191.55 356.374 191.55 359.39V385.934H196.376V359.39C196.376 356.132 199.152 353.719 202.409 353.719H202.651C205.908 353.719 208.563 356.374 208.563 359.631V426.957H153.905Z" fill="white"/>
<path d="M154.144 327.296C154.144 327.537 154.144 327.778 154.144 328.02C153.903 330.071 152.214 331.639 150.163 331.639C147.991 331.76 146.06 330.071 145.819 328.02C145.819 327.899 145.819 327.778 145.819 327.658C145.699 325.365 147.508 323.314 149.921 323.314H150.042C152.093 323.314 154.024 325.003 154.144 327.296Z" fill="white"/>
<path d="M114.329 328.02V332.846H137.254H142.08V328.02H137.254H114.329Z" fill="white"/>
<path d="M193.72 328.02H160.178V332.846H193.72V328.02Z" fill="white"/>
<path d="M651.995 280.827C652.826 281.555 654.089 281.472 654.817 280.641L666.677 267.101C667.405 266.27 667.321 265.006 666.49 264.278C665.659 263.55 664.396 263.634 663.668 264.465L653.126 276.501L641.09 265.958C640.259 265.231 638.996 265.314 638.268 266.145C637.54 266.976 637.624 268.24 638.454 268.967L651.995 280.827ZM618.542 171.378C637.753 204.629 648.82 241.703 651.317 279.455L655.308 279.191C652.771 240.837 641.528 203.167 622.006 169.377L618.542 171.378Z" fill="white"/>
<path d="M497.19 526.339C496.768 527.359 497.252 528.529 498.273 528.952L514.902 535.842C515.922 536.264 517.092 535.78 517.515 534.76C517.938 533.739 517.453 532.569 516.433 532.146L501.651 526.022L507.775 511.241C508.198 510.22 507.714 509.05 506.693 508.627C505.673 508.205 504.503 508.689 504.08 509.71L497.19 526.339ZM590.124 459.543C564.792 488.406 533.228 510.781 498.273 525.257L499.803 528.952C535.317 514.245 567.388 491.512 593.13 462.182L590.124 459.543Z" fill="white"/>
<path d="M217.232 458.466C216.13 458.391 215.176 459.224 215.101 460.326L213.882 478.285C213.808 479.387 214.64 480.341 215.742 480.416C216.844 480.49 217.798 479.658 217.873 478.556L218.957 462.592L234.92 463.676C236.022 463.75 236.976 462.918 237.051 461.816C237.126 460.714 236.293 459.76 235.191 459.685L217.232 458.466ZM310.206 525.205C274.766 510.416 243.483 487.649 218.603 459.146L215.59 461.777C240.867 490.735 272.651 513.868 308.666 528.897L310.206 525.205Z" fill="white"/>
<path d="M191.954 169.246C191.686 168.175 190.599 167.524 189.528 167.793L172.069 172.175C170.998 172.444 170.347 173.53 170.616 174.602C170.885 175.673 171.972 176.324 173.043 176.055L188.562 172.16L192.457 187.678C192.726 188.749 193.812 189.4 194.884 189.131C195.955 188.862 196.605 187.776 196.337 186.704L191.954 169.246ZM157.16 278.276C160.292 240.002 172.296 203.221 191.731 170.76L188.299 168.705C168.553 201.684 156.356 239.056 153.173 277.95L157.16 278.276Z" fill="white"/>
<path d="M462.82 52.9815C463.752 52.3877 464.025 51.1512 463.431 50.2199L453.754 35.0428C453.16 34.1114 451.924 33.8378 450.992 34.4317C450.061 35.0256 449.787 36.262 450.381 37.1933L458.983 50.6841L445.493 59.2864C444.561 59.8802 444.288 61.1166 444.882 62.048C445.476 62.9793 446.712 63.2529 447.643 62.6591L462.82 52.9815ZM348.382 54.4477C385.683 45.3167 424.372 45.0741 461.313 53.2479L462.177 49.3424C424.647 41.038 385.336 41.2835 347.431 50.5624L348.382 54.4477Z" fill="white"/>
<rect x="310.929" y="38.0855" width="40" height="38" rx="19" fill="#0066CC"/>
<path d="M334.435 47.6055V66.0855H331.327V51.1335L326.987 53.9335L325.559 51.6095L331.579 47.6055H334.435Z" fill="white"/>
<rect x="310.929" y="38.0855" width="40" height="38" rx="19" stroke="white" stroke-width="2"/>
<rect x="599.274" y="46.5247" width="40" height="38" rx="19" fill="#0066CC"/>
<path d="M625.216 74.5247H613.316V71.8647L617.88 67.1607C619.262 65.7421 620.232 64.6314 620.792 63.8287C621.352 63.0261 621.632 62.1487 621.632 61.1967C621.632 60.2261 621.362 59.5354 620.82 59.1247C620.279 58.7141 619.392 58.5087 618.16 58.5087C617.003 58.5087 615.724 58.6394 614.324 58.9007L613.624 59.0127L613.428 56.5487C615.239 56.0074 617.115 55.7367 619.056 55.7367C622.92 55.7367 624.852 57.4541 624.852 60.8887C624.852 62.2327 624.554 63.3994 623.956 64.3887C623.378 65.3781 622.332 66.5727 620.82 67.9727L616.872 71.8087H625.216V74.5247Z" fill="white"/>
<rect x="599.274" y="46.5247" width="40" height="38" rx="19" stroke="white" stroke-width="2"/>
<rect x="692.107" y="281.421" width="40" height="38" rx="19" fill="#0066CC"/>
<path d="M706.121 291.529C707.857 290.932 709.761 290.633 711.833 290.633C713.905 290.633 715.408 291.034 716.341 291.837C717.293 292.621 717.769 293.872 717.769 295.589C717.769 296.336 717.62 297.008 717.321 297.605C717.041 298.202 716.752 298.641 716.453 298.921C716.155 299.182 715.781 299.462 715.333 299.761C716.323 300.228 717.032 300.741 717.461 301.301C717.909 301.842 718.133 302.729 718.133 303.961C718.133 305.921 717.639 307.377 716.649 308.329C715.679 309.262 714.12 309.729 711.973 309.729C711.133 309.729 710.209 309.654 709.201 309.505C708.193 309.374 707.391 309.234 706.793 309.085L705.925 308.861L706.121 306.453C708.175 306.826 709.985 307.013 711.553 307.013C713.793 306.994 714.913 306.005 714.913 304.045C714.913 303.149 714.624 302.468 714.045 302.001C713.467 301.534 712.701 301.292 711.749 301.273H708.025V298.669H711.749C712.44 298.669 713.075 298.389 713.653 297.829C714.251 297.25 714.549 296.56 714.549 295.757C714.549 294.936 714.288 294.329 713.765 293.937C713.261 293.545 712.561 293.349 711.665 293.349C710.191 293.349 708.669 293.48 707.101 293.741L706.373 293.881L706.121 291.529Z" fill="white"/>
<rect x="692.107" y="281.421" width="40" height="38" rx="19" stroke="white" stroke-width="2"/>
<rect x="465.651" y="453.022" width="40" height="38" rx="19" fill="#0066CC"/>
<path d="M487.253 481.022V477.718H478.937V475.338L483.809 462.542H487.253L482.101 475.002H487.253V469.57H490.389V475.002H492.405V477.718H490.389V481.022H487.253Z" fill="white"/>
<rect x="465.651" y="453.022" width="40" height="38" rx="19" stroke="white" stroke-width="2"/>
<rect x="230.755" y="301.113" width="40" height="38" rx="19" fill="#0066CC"/>
<path d="M256.473 310.633V313.377H247.905L247.429 318.249C248.698 317.67 249.949 317.381 251.181 317.381C255.138 317.381 257.117 319.229 257.117 322.925C257.117 325.016 256.566 326.621 255.465 327.741C254.382 328.861 252.842 329.421 250.845 329.421C250.005 329.421 249.053 329.337 247.989 329.169C246.925 329.02 246.076 328.87 245.441 328.721L244.489 328.469L244.825 326.117C247.028 326.49 248.913 326.677 250.481 326.677C251.564 326.677 252.404 326.378 253.001 325.781C253.598 325.184 253.897 324.334 253.897 323.233C253.897 322.132 253.636 321.338 253.113 320.853C252.59 320.368 251.909 320.125 251.069 320.125C249.557 320.125 248.325 320.312 247.373 320.685L246.869 320.881L244.909 320.461L245.413 310.633H256.473Z" fill="white"/>
<rect x="230.755" y="301.113" width="40" height="38" rx="19" stroke="white" stroke-width="2"/>
<rect x="241" y="181" width="142" height="37" rx="4" fill="white"/>
<path d="M269.244 203.12C269.604 203.744 270.27 204.056 271.242 204.056C272.214 204.056 272.874 203.744 273.222 203.12C273.582 202.484 273.762 201.428 273.762 199.952C273.762 198.464 273.582 197.384 273.222 196.712C272.862 196.04 272.202 195.704 271.242 195.704C270.282 195.704 269.622 196.04 269.262 196.712C268.902 197.384 268.722 198.464 268.722 199.952C268.722 201.428 268.896 202.484 269.244 203.12ZM275.166 204.704C274.41 205.712 273.102 206.216 271.242 206.216C269.382 206.216 268.068 205.712 267.3 204.704C266.544 203.684 266.166 202.094 266.166 199.934C266.166 197.774 266.544 196.172 267.3 195.128C268.068 194.072 269.382 193.544 271.242 193.544C273.102 193.544 274.41 194.072 275.166 195.128C275.934 196.172 276.318 197.774 276.318 199.934C276.318 202.094 275.934 203.684 275.166 204.704ZM278.232 206V197H280.626V197.954C281.634 197.354 282.594 196.964 283.506 196.784V199.214C282.534 199.418 281.7 199.628 281.004 199.844L280.644 199.97V206H278.232ZM293.083 207.116C293.083 208.148 292.687 208.91 291.895 209.402C291.103 209.894 290.029 210.14 288.673 210.14C287.329 210.14 286.291 209.96 285.559 209.6C284.839 209.24 284.479 208.586 284.479 207.638C284.479 206.882 284.911 206.168 285.775 205.496C285.331 205.196 285.109 204.74 285.109 204.128C285.109 203.888 285.289 203.492 285.649 202.94L285.811 202.688C284.995 202.1 284.587 201.236 284.587 200.096C284.587 198.944 284.929 198.11 285.613 197.594C286.309 197.078 287.227 196.82 288.367 196.82C288.883 196.82 289.393 196.88 289.897 197L290.185 197.054L293.083 196.964V198.89L291.733 198.782C291.997 199.19 292.129 199.598 292.129 200.006C292.129 201.206 291.823 202.034 291.211 202.49C290.599 202.946 289.639 203.174 288.331 203.174C288.055 203.174 287.809 203.15 287.593 203.102C287.473 203.414 287.413 203.672 287.413 203.876C287.413 204.068 287.515 204.2 287.719 204.272C287.923 204.344 288.403 204.386 289.159 204.398C290.671 204.41 291.703 204.614 292.255 205.01C292.807 205.394 293.083 206.096 293.083 207.116ZM286.855 207.386C286.855 207.902 287.485 208.16 288.745 208.16C290.017 208.16 290.653 207.86 290.653 207.26C290.653 206.936 290.545 206.726 290.329 206.63C290.113 206.546 289.657 206.498 288.961 206.486L287.341 206.36C287.017 206.684 286.855 207.026 286.855 207.386ZM286.999 200.024C286.999 200.9 287.455 201.338 288.367 201.338C289.291 201.338 289.753 200.9 289.753 200.024C289.753 199.136 289.291 198.692 288.367 198.692C287.455 198.692 286.999 199.136 286.999 200.024ZM301.439 199.808V203.552C301.463 203.84 301.511 204.044 301.583 204.164C301.655 204.272 301.805 204.35 302.033 204.398L301.961 206.216C301.349 206.216 300.857 206.174 300.485 206.09C300.125 206.006 299.759 205.838 299.387 205.586C298.523 206.006 297.641 206.216 296.741 206.216C294.881 206.216 293.951 205.232 293.951 203.264C293.951 202.304 294.209 201.626 294.725 201.23C295.241 200.822 296.033 200.582 297.101 200.51L299.027 200.366V199.808C299.027 199.436 298.943 199.184 298.775 199.052C298.607 198.908 298.337 198.836 297.965 198.836L294.581 198.98L294.509 197.306C295.793 196.958 297.011 196.784 298.163 196.784C299.327 196.784 300.161 197.024 300.665 197.504C301.181 197.984 301.439 198.752 301.439 199.808ZM297.389 202.184C296.717 202.244 296.381 202.604 296.381 203.264C296.381 203.924 296.675 204.254 297.263 204.254C297.719 204.254 298.217 204.182 298.757 204.038L299.027 203.966V202.04L297.389 202.184ZM306.15 206H303.738V197H306.132V197.504C306.948 197.024 307.698 196.784 308.382 196.784C309.582 196.784 310.41 197.138 310.866 197.846C311.322 198.554 311.55 199.646 311.55 201.122V206H309.138V201.194C309.138 200.426 309.048 199.862 308.868 199.502C308.688 199.13 308.328 198.944 307.788 198.944C307.296 198.944 306.822 199.028 306.366 199.196L306.15 199.268V206ZM313.687 206V197H316.099V206H313.687ZM313.687 195.848V193.4H316.099V195.848H313.687ZM317.95 199.16V197H324.628V199.16L320.848 203.84H324.628V206H317.95V203.84L321.73 199.16H317.95ZM326.124 199.16V197H332.802V199.16L329.022 203.84H332.802V206H326.124V203.84L329.904 199.16H326.124ZM341.57 199.808V203.552C341.594 203.84 341.642 204.044 341.714 204.164C341.786 204.272 341.936 204.35 342.164 204.398L342.092 206.216C341.48 206.216 340.988 206.174 340.616 206.09C340.256 206.006 339.89 205.838 339.518 205.586C338.654 206.006 337.772 206.216 336.872 206.216C335.012 206.216 334.082 205.232 334.082 203.264C334.082 202.304 334.34 201.626 334.856 201.23C335.372 200.822 336.164 200.582 337.232 200.51L339.158 200.366V199.808C339.158 199.436 339.074 199.184 338.906 199.052C338.738 198.908 338.468 198.836 338.096 198.836L334.712 198.98L334.64 197.306C335.924 196.958 337.142 196.784 338.294 196.784C339.458 196.784 340.292 197.024 340.796 197.504C341.312 197.984 341.57 198.752 341.57 199.808ZM337.52 202.184C336.848 202.244 336.512 202.604 336.512 203.264C336.512 203.924 336.806 204.254 337.394 204.254C337.85 204.254 338.348 204.182 338.888 204.038L339.158 203.966V202.04L337.52 202.184ZM343.869 206V197H346.263V197.954C347.271 197.354 348.231 196.964 349.143 196.784V199.214C348.171 199.418 347.337 199.628 346.641 199.844L346.281 199.97V206H343.869ZM352.546 202.526C352.558 203.078 352.702 203.48 352.978 203.732C353.266 203.972 353.674 204.092 354.202 204.092C355.318 204.092 356.314 204.056 357.19 203.984L357.694 203.93L357.73 205.712C356.35 206.048 355.102 206.216 353.986 206.216C352.63 206.216 351.646 205.856 351.034 205.136C350.422 204.416 350.116 203.246 350.116 201.626C350.116 198.398 351.442 196.784 354.094 196.784C356.71 196.784 358.018 198.14 358.018 200.852L357.838 202.526H352.546ZM355.642 200.69C355.642 199.97 355.528 199.472 355.3 199.196C355.072 198.908 354.67 198.764 354.094 198.764C353.53 198.764 353.128 198.914 352.888 199.214C352.66 199.502 352.54 199.994 352.528 200.69H355.642Z" fill="#0066CC"/>
<rect x="611" y="114" width="153" height="37" rx="4" fill="white"/>
<path d="M644.163 138.802C642.891 139.078 641.745 139.216 640.725 139.216C639.705 139.216 638.889 139.09 638.277 138.838C637.665 138.586 637.185 138.184 636.837 137.632C636.489 137.08 636.249 136.432 636.117 135.688C635.985 134.944 635.919 134.008 635.919 132.88C635.919 130.516 636.249 128.872 636.909 127.948C637.581 127.012 638.811 126.544 640.599 126.544C641.631 126.544 642.825 126.706 644.181 127.03L644.109 129.01C642.921 128.83 641.931 128.74 641.139 128.74C640.359 128.74 639.801 128.848 639.465 129.064C639.129 129.268 638.877 129.664 638.709 130.252C638.553 130.84 638.475 131.842 638.475 133.258C638.475 134.674 638.637 135.658 638.961 136.21C639.297 136.75 639.957 137.02 640.941 137.02C641.937 137.02 642.993 136.936 644.109 136.768L644.163 138.802ZM646.308 131.026C646.944 130.198 648.006 129.784 649.494 129.784C650.982 129.784 652.044 130.198 652.68 131.026C653.316 131.842 653.634 132.994 653.634 134.482C653.634 137.638 652.254 139.216 649.494 139.216C646.734 139.216 645.354 137.638 645.354 134.482C645.354 132.994 645.672 131.842 646.308 131.026ZM648.162 136.516C648.414 136.948 648.858 137.164 649.494 137.164C650.13 137.164 650.568 136.948 650.808 136.516C651.06 136.084 651.186 135.406 651.186 134.482C651.186 133.558 651.06 132.886 650.808 132.466C650.568 132.046 650.13 131.836 649.494 131.836C648.858 131.836 648.414 132.046 648.162 132.466C647.922 132.886 647.802 133.558 647.802 134.482C647.802 135.406 647.922 136.084 648.162 136.516ZM657.814 139H655.402V130H657.796V130.504C658.624 130.024 659.332 129.784 659.92 129.784C660.892 129.784 661.642 130.066 662.17 130.63C663.274 130.066 664.282 129.784 665.194 129.784C666.382 129.784 667.204 130.132 667.66 130.828C668.128 131.512 668.362 132.61 668.362 134.122V139H665.95V134.194C665.95 133.426 665.866 132.862 665.698 132.502C665.53 132.13 665.194 131.944 664.69 131.944C664.306 131.944 663.838 132.028 663.286 132.196L663.016 132.286C663.064 133.186 663.088 133.87 663.088 134.338V139H660.676V134.374C660.676 133.486 660.598 132.862 660.442 132.502C660.286 132.13 659.944 131.944 659.416 131.944C658.948 131.944 658.486 132.028 658.03 132.196L657.814 132.268V139ZM670.502 142.78V130H672.896V130.486C673.676 130.018 674.36 129.784 674.948 129.784C676.16 129.784 677.054 130.15 677.63 130.882C678.206 131.602 678.494 132.832 678.494 134.572C678.494 136.312 678.176 137.524 677.54 138.208C676.904 138.88 675.86 139.216 674.408 139.216C674.012 139.216 673.586 139.18 673.13 139.108L672.914 139.072V142.78H670.502ZM674.48 131.944C674.036 131.944 673.586 132.034 673.13 132.214L672.914 132.304V137.02C673.454 137.092 673.892 137.128 674.228 137.128C674.924 137.128 675.398 136.924 675.65 136.516C675.914 136.108 676.046 135.412 676.046 134.428C676.046 132.772 675.524 131.944 674.48 131.944ZM680.293 139V130H682.687V130.954C683.695 130.354 684.655 129.964 685.567 129.784V132.214C684.595 132.418 683.761 132.628 683.065 132.844L682.705 132.97V139H680.293ZM688.97 135.526C688.982 136.078 689.126 136.48 689.402 136.732C689.69 136.972 690.098 137.092 690.626 137.092C691.742 137.092 692.738 137.056 693.614 136.984L694.118 136.93L694.154 138.712C692.774 139.048 691.526 139.216 690.41 139.216C689.054 139.216 688.07 138.856 687.458 138.136C686.846 137.416 686.54 136.246 686.54 134.626C686.54 131.398 687.866 129.784 690.518 129.784C693.134 129.784 694.442 131.14 694.442 133.852L694.262 135.526H688.97ZM692.066 133.69C692.066 132.97 691.952 132.472 691.724 132.196C691.496 131.908 691.094 131.764 690.518 131.764C689.954 131.764 689.552 131.914 689.312 132.214C689.084 132.502 688.964 132.994 688.952 133.69H692.066ZM698.578 139H696.166V130H698.56V130.504C699.376 130.024 700.126 129.784 700.81 129.784C702.01 129.784 702.838 130.138 703.294 130.846C703.75 131.554 703.978 132.646 703.978 134.122V139H701.566V134.194C701.566 133.426 701.476 132.862 701.296 132.502C701.116 132.13 700.756 131.944 700.216 131.944C699.724 131.944 699.25 132.028 698.794 132.196L698.578 132.268V139ZM713.765 126.4V139H711.371V138.622C710.531 139.018 709.805 139.216 709.193 139.216C707.885 139.216 706.973 138.838 706.457 138.082C705.941 137.326 705.683 136.132 705.683 134.5C705.683 132.856 705.989 131.662 706.601 130.918C707.225 130.162 708.161 129.784 709.409 129.784C709.793 129.784 710.327 129.844 711.011 129.964L711.353 130.036V126.4H713.765ZM711.101 136.84L711.353 136.786V132.052C710.693 131.932 710.105 131.872 709.589 131.872C708.617 131.872 708.131 132.736 708.131 134.464C708.131 135.4 708.239 136.066 708.455 136.462C708.671 136.858 709.025 137.056 709.517 137.056C710.021 137.056 710.549 136.984 711.101 136.84ZM717.974 135.526C717.986 136.078 718.13 136.48 718.406 136.732C718.694 136.972 719.102 137.092 719.63 137.092C720.746 137.092 721.742 137.056 722.618 136.984L723.122 136.93L723.158 138.712C721.778 139.048 720.53 139.216 719.414 139.216C718.058 139.216 717.074 138.856 716.462 138.136C715.85 137.416 715.544 136.246 715.544 134.626C715.544 131.398 716.87 129.784 719.522 129.784C722.138 129.784 723.446 131.14 723.446 133.852L723.266 135.526H717.974ZM721.07 133.69C721.07 132.97 720.956 132.472 720.728 132.196C720.5 131.908 720.098 131.764 719.522 131.764C718.958 131.764 718.556 131.914 718.316 132.214C718.088 132.502 717.968 132.994 717.956 133.69H721.07ZM725.17 139V130H727.564V130.954C728.572 130.354 729.532 129.964 730.444 129.784V132.214C729.472 132.418 728.638 132.628 727.942 132.844L727.582 132.97V139H725.17ZM733.847 135.526C733.859 136.078 734.003 136.48 734.279 136.732C734.567 136.972 734.975 137.092 735.503 137.092C736.619 137.092 737.615 137.056 738.491 136.984L738.995 136.93L739.031 138.712C737.651 139.048 736.403 139.216 735.287 139.216C733.931 139.216 732.947 138.856 732.335 138.136C731.723 137.416 731.417 136.246 731.417 134.626C731.417 131.398 732.743 129.784 735.395 129.784C738.011 129.784 739.319 131.14 739.319 133.852L739.139 135.526H733.847ZM736.943 133.69C736.943 132.97 736.829 132.472 736.601 132.196C736.373 131.908 735.971 131.764 735.395 131.764C734.831 131.764 734.429 131.914 734.189 132.214C733.961 132.502 733.841 132.994 733.829 133.69H736.943Z" fill="#0066CC"/>
<rect x="612" y="453" width="132" height="37" rx="4" fill="white"/>
<path d="M641.908 474.436H639.892V478H637.408V465.76H641.908C644.812 465.76 646.264 467.176 646.264 470.008C646.264 471.436 645.892 472.534 645.148 473.302C644.416 474.058 643.336 474.436 641.908 474.436ZM639.892 472.312H641.89C643.126 472.312 643.744 471.544 643.744 470.008C643.744 469.252 643.594 468.712 643.294 468.388C642.994 468.052 642.526 467.884 641.89 467.884H639.892V472.312ZM647.792 478V469H650.186V469.954C651.194 469.354 652.154 468.964 653.066 468.784V471.214C652.094 471.418 651.26 471.628 650.564 471.844L650.204 471.97V478H647.792ZM654.975 470.026C655.611 469.198 656.673 468.784 658.161 468.784C659.649 468.784 660.711 469.198 661.347 470.026C661.983 470.842 662.301 471.994 662.301 473.482C662.301 476.638 660.921 478.216 658.161 478.216C655.401 478.216 654.021 476.638 654.021 473.482C654.021 471.994 654.339 470.842 654.975 470.026ZM656.829 475.516C657.081 475.948 657.525 476.164 658.161 476.164C658.797 476.164 659.235 475.948 659.475 475.516C659.727 475.084 659.853 474.406 659.853 473.482C659.853 472.558 659.727 471.886 659.475 471.466C659.235 471.046 658.797 470.836 658.161 470.836C657.525 470.836 657.081 471.046 656.829 471.466C656.589 471.886 656.469 472.558 656.469 473.482C656.469 474.406 656.589 475.084 656.829 475.516ZM672.223 479.116C672.223 480.148 671.827 480.91 671.035 481.402C670.243 481.894 669.169 482.14 667.813 482.14C666.469 482.14 665.431 481.96 664.699 481.6C663.979 481.24 663.619 480.586 663.619 479.638C663.619 478.882 664.051 478.168 664.915 477.496C664.471 477.196 664.249 476.74 664.249 476.128C664.249 475.888 664.429 475.492 664.789 474.94L664.951 474.688C664.135 474.1 663.727 473.236 663.727 472.096C663.727 470.944 664.069 470.11 664.753 469.594C665.449 469.078 666.367 468.82 667.507 468.82C668.023 468.82 668.533 468.88 669.037 469L669.325 469.054L672.223 468.964V470.89L670.873 470.782C671.137 471.19 671.269 471.598 671.269 472.006C671.269 473.206 670.963 474.034 670.351 474.49C669.739 474.946 668.779 475.174 667.471 475.174C667.195 475.174 666.949 475.15 666.733 475.102C666.613 475.414 666.553 475.672 666.553 475.876C666.553 476.068 666.655 476.2 666.859 476.272C667.063 476.344 667.543 476.386 668.299 476.398C669.811 476.41 670.843 476.614 671.395 477.01C671.947 477.394 672.223 478.096 672.223 479.116ZM665.995 479.386C665.995 479.902 666.625 480.16 667.885 480.16C669.157 480.16 669.793 479.86 669.793 479.26C669.793 478.936 669.685 478.726 669.469 478.63C669.253 478.546 668.797 478.498 668.101 478.486L666.481 478.36C666.157 478.684 665.995 479.026 665.995 479.386ZM666.139 472.024C666.139 472.9 666.595 473.338 667.507 473.338C668.431 473.338 668.893 472.9 668.893 472.024C668.893 471.136 668.431 470.692 667.507 470.692C666.595 470.692 666.139 471.136 666.139 472.024ZM675.664 474.526C675.676 475.078 675.82 475.48 676.096 475.732C676.384 475.972 676.792 476.092 677.32 476.092C678.436 476.092 679.432 476.056 680.308 475.984L680.812 475.93L680.848 477.712C679.468 478.048 678.22 478.216 677.104 478.216C675.748 478.216 674.764 477.856 674.152 477.136C673.54 476.416 673.234 475.246 673.234 473.626C673.234 470.398 674.56 468.784 677.212 468.784C679.828 468.784 681.136 470.14 681.136 472.852L680.956 474.526H675.664ZM678.76 472.69C678.76 471.97 678.646 471.472 678.418 471.196C678.19 470.908 677.788 470.764 677.212 470.764C676.648 470.764 676.246 470.914 676.006 471.214C675.778 471.502 675.658 471.994 675.646 472.69H678.76ZM687.846 471.052H685.632V474.742C685.632 475.102 685.638 475.36 685.65 475.516C685.674 475.66 685.74 475.786 685.848 475.894C685.968 476.002 686.148 476.056 686.388 476.056L687.756 476.02L687.864 477.946C687.06 478.126 686.448 478.216 686.028 478.216C684.948 478.216 684.21 477.976 683.814 477.496C683.418 477.004 683.22 476.104 683.22 474.796V471.052H682.158V469H683.22V466.498H685.632V469H687.846V471.052ZM694.403 471.052H692.189V474.742C692.189 475.102 692.195 475.36 692.207 475.516C692.231 475.66 692.297 475.786 692.405 475.894C692.525 476.002 692.705 476.056 692.945 476.056L694.313 476.02L694.421 477.946C693.617 478.126 693.005 478.216 692.585 478.216C691.505 478.216 690.767 477.976 690.371 477.496C689.975 477.004 689.777 476.104 689.777 474.796V471.052H688.715V469H689.777V466.498H692.189V469H694.403V471.052ZM702.867 471.808V475.552C702.891 475.84 702.939 476.044 703.011 476.164C703.083 476.272 703.233 476.35 703.461 476.398L703.389 478.216C702.777 478.216 702.285 478.174 701.913 478.09C701.553 478.006 701.187 477.838 700.815 477.586C699.951 478.006 699.069 478.216 698.169 478.216C696.309 478.216 695.379 477.232 695.379 475.264C695.379 474.304 695.637 473.626 696.153 473.23C696.669 472.822 697.461 472.582 698.529 472.51L700.455 472.366V471.808C700.455 471.436 700.371 471.184 700.203 471.052C700.035 470.908 699.765 470.836 699.393 470.836L696.009 470.98L695.937 469.306C697.221 468.958 698.439 468.784 699.591 468.784C700.755 468.784 701.589 469.024 702.093 469.504C702.609 469.984 702.867 470.752 702.867 471.808ZM698.817 474.184C698.145 474.244 697.809 474.604 697.809 475.264C697.809 475.924 698.103 476.254 698.691 476.254C699.147 476.254 699.645 476.182 700.185 476.038L700.455 475.966V474.04L698.817 474.184ZM705.167 478V469H707.561V469.954C708.569 469.354 709.529 468.964 710.441 468.784V471.214C709.469 471.418 708.635 471.628 707.939 471.844L707.579 471.97V478H705.167ZM713.844 474.526C713.856 475.078 714 475.48 714.276 475.732C714.564 475.972 714.972 476.092 715.5 476.092C716.616 476.092 717.612 476.056 718.488 475.984L718.992 475.93L719.028 477.712C717.648 478.048 716.4 478.216 715.284 478.216C713.928 478.216 712.944 477.856 712.332 477.136C711.72 476.416 711.414 475.246 711.414 473.626C711.414 470.398 712.74 468.784 715.392 468.784C718.008 468.784 719.316 470.14 719.316 472.852L719.136 474.526H713.844ZM716.94 472.69C716.94 471.97 716.826 471.472 716.598 471.196C716.37 470.908 715.968 470.764 715.392 470.764C714.828 470.764 714.426 470.914 714.186 471.214C713.958 471.502 713.838 471.994 713.826 472.69H716.94Z" fill="#0066CC"/>
<rect x="472" y="570" width="129" height="37" rx="4" fill="white"/>
<path d="M500.168 590.896V595H497.684V582.76H502.436C505.316 582.76 506.756 584.104 506.756 586.792C506.756 588.388 506.156 589.564 504.956 590.32L506.702 595H503.984L502.562 590.896H500.168ZM502.472 588.772C503.06 588.772 503.498 588.592 503.786 588.232C504.074 587.872 504.218 587.398 504.218 586.81C504.218 586.222 504.062 585.754 503.75 585.406C503.45 585.058 503.012 584.884 502.436 584.884H500.168V588.772H502.472ZM510.469 591.526C510.481 592.078 510.625 592.48 510.901 592.732C511.189 592.972 511.597 593.092 512.125 593.092C513.241 593.092 514.237 593.056 515.113 592.984L515.617 592.93L515.653 594.712C514.273 595.048 513.025 595.216 511.909 595.216C510.553 595.216 509.569 594.856 508.957 594.136C508.345 593.416 508.039 592.246 508.039 590.626C508.039 587.398 509.365 585.784 512.017 585.784C514.633 585.784 515.941 587.14 515.941 589.852L515.761 591.526H510.469ZM513.565 589.69C513.565 588.97 513.451 588.472 513.223 588.196C512.995 587.908 512.593 587.764 512.017 587.764C511.453 587.764 511.051 587.914 510.811 588.214C510.583 588.502 510.463 588.994 510.451 589.69H513.565ZM524.559 588.808V592.552C524.583 592.84 524.631 593.044 524.703 593.164C524.775 593.272 524.925 593.35 525.153 593.398L525.081 595.216C524.469 595.216 523.977 595.174 523.605 595.09C523.245 595.006 522.879 594.838 522.507 594.586C521.643 595.006 520.761 595.216 519.861 595.216C518.001 595.216 517.071 594.232 517.071 592.264C517.071 591.304 517.329 590.626 517.845 590.23C518.361 589.822 519.153 589.582 520.221 589.51L522.147 589.366V588.808C522.147 588.436 522.063 588.184 521.895 588.052C521.727 587.908 521.457 587.836 521.085 587.836L517.701 587.98L517.629 586.306C518.913 585.958 520.131 585.784 521.283 585.784C522.447 585.784 523.281 586.024 523.785 586.504C524.301 586.984 524.559 587.752 524.559 588.808ZM520.509 591.184C519.837 591.244 519.501 591.604 519.501 592.264C519.501 592.924 519.795 593.254 520.383 593.254C520.839 593.254 521.337 593.182 521.877 593.038L522.147 592.966V591.04L520.509 591.184ZM526.966 595V582.4H529.378V595H526.966ZM531.71 595V586H534.122V595H531.71ZM531.71 584.848V582.4H534.122V584.848H531.71ZM535.972 588.16V586H542.65V588.16L538.87 592.84H542.65V595H535.972V592.84L539.752 588.16H535.972ZM544.146 588.16V586H550.824V588.16L547.044 592.84H550.824V595H544.146V592.84L547.926 588.16H544.146ZM559.592 588.808V592.552C559.616 592.84 559.664 593.044 559.736 593.164C559.808 593.272 559.958 593.35 560.186 593.398L560.114 595.216C559.502 595.216 559.01 595.174 558.638 595.09C558.278 595.006 557.912 594.838 557.54 594.586C556.676 595.006 555.794 595.216 554.894 595.216C553.034 595.216 552.104 594.232 552.104 592.264C552.104 591.304 552.362 590.626 552.878 590.23C553.394 589.822 554.186 589.582 555.254 589.51L557.18 589.366V588.808C557.18 588.436 557.096 588.184 556.928 588.052C556.76 587.908 556.49 587.836 556.118 587.836L552.734 587.98L552.662 586.306C553.946 585.958 555.164 585.784 556.316 585.784C557.48 585.784 558.314 586.024 558.818 586.504C559.334 586.984 559.592 587.752 559.592 588.808ZM555.542 591.184C554.87 591.244 554.534 591.604 554.534 592.264C554.534 592.924 554.828 593.254 555.416 593.254C555.872 593.254 556.37 593.182 556.91 593.038L557.18 592.966V591.04L555.542 591.184ZM561.891 595V586H564.285V586.954C565.293 586.354 566.253 585.964 567.165 585.784V588.214C566.193 588.418 565.359 588.628 564.663 588.844L564.303 588.97V595H561.891ZM570.569 591.526C570.581 592.078 570.725 592.48 571.001 592.732C571.289 592.972 571.697 593.092 572.225 593.092C573.341 593.092 574.337 593.056 575.213 592.984L575.717 592.93L575.753 594.712C574.373 595.048 573.125 595.216 572.009 595.216C570.653 595.216 569.669 594.856 569.057 594.136C568.445 593.416 568.139 592.246 568.139 590.626C568.139 587.398 569.465 585.784 572.117 585.784C574.733 585.784 576.041 587.14 576.041 589.852L575.861 591.526H570.569ZM573.665 589.69C573.665 588.97 573.551 588.472 573.323 588.196C573.095 587.908 572.693 587.764 572.117 587.764C571.553 587.764 571.151 587.914 570.911 588.214C570.683 588.502 570.563 588.994 570.551 589.69H573.665Z" fill="#0066CC"/>
<rect x="229" y="395" width="113" height="37" rx="4" fill="white"/>
<path d="M261.429 407.76H264.039L261.195 420H256.605L253.761 407.76H256.371L258.495 417.84H259.305L261.429 407.76ZM271.906 413.808V417.552C271.93 417.84 271.978 418.044 272.05 418.164C272.122 418.272 272.272 418.35 272.5 418.398L272.428 420.216C271.816 420.216 271.324 420.174 270.952 420.09C270.592 420.006 270.226 419.838 269.854 419.586C268.99 420.006 268.108 420.216 267.208 420.216C265.348 420.216 264.418 419.232 264.418 417.264C264.418 416.304 264.676 415.626 265.192 415.23C265.708 414.822 266.5 414.582 267.568 414.51L269.494 414.366V413.808C269.494 413.436 269.41 413.184 269.242 413.052C269.074 412.908 268.804 412.836 268.432 412.836L265.048 412.98L264.976 411.306C266.26 410.958 267.478 410.784 268.63 410.784C269.794 410.784 270.628 411.024 271.132 411.504C271.648 411.984 271.906 412.752 271.906 413.808ZM267.856 416.184C267.184 416.244 266.848 416.604 266.848 417.264C266.848 417.924 267.142 418.254 267.73 418.254C268.186 418.254 268.684 418.182 269.224 418.038L269.494 417.966V416.04L267.856 416.184ZM274.314 420V407.4H276.726V420H274.314ZM279.057 420V411H281.469V420H279.057ZM279.057 409.848V407.4H281.469V409.848H279.057ZM291.348 407.4V420H288.954V419.622C288.114 420.018 287.388 420.216 286.776 420.216C285.468 420.216 284.556 419.838 284.04 419.082C283.524 418.326 283.266 417.132 283.266 415.5C283.266 413.856 283.572 412.662 284.184 411.918C284.808 411.162 285.744 410.784 286.992 410.784C287.376 410.784 287.91 410.844 288.594 410.964L288.936 411.036V407.4H291.348ZM288.684 417.84L288.936 417.786V413.052C288.276 412.932 287.688 412.872 287.172 412.872C286.2 412.872 285.714 413.736 285.714 415.464C285.714 416.4 285.822 417.066 286.038 417.462C286.254 417.858 286.608 418.056 287.1 418.056C287.604 418.056 288.132 417.984 288.684 417.84ZM300.471 413.808V417.552C300.495 417.84 300.543 418.044 300.615 418.164C300.687 418.272 300.837 418.35 301.065 418.398L300.993 420.216C300.381 420.216 299.889 420.174 299.517 420.09C299.157 420.006 298.791 419.838 298.419 419.586C297.555 420.006 296.673 420.216 295.773 420.216C293.913 420.216 292.983 419.232 292.983 417.264C292.983 416.304 293.241 415.626 293.757 415.23C294.273 414.822 295.065 414.582 296.133 414.51L298.059 414.366V413.808C298.059 413.436 297.975 413.184 297.807 413.052C297.639 412.908 297.369 412.836 296.997 412.836L293.613 412.98L293.541 411.306C294.825 410.958 296.043 410.784 297.195 410.784C298.359 410.784 299.193 411.024 299.697 411.504C300.213 411.984 300.471 412.752 300.471 413.808ZM296.421 416.184C295.749 416.244 295.413 416.604 295.413 417.264C295.413 417.924 295.707 418.254 296.295 418.254C296.751 418.254 297.249 418.182 297.789 418.038L298.059 417.966V416.04L296.421 416.184ZM302.77 420V411H305.164V411.954C306.172 411.354 307.132 410.964 308.044 410.784V413.214C307.072 413.418 306.238 413.628 305.542 413.844L305.182 413.97V420H302.77ZM311.448 416.526C311.46 417.078 311.604 417.48 311.88 417.732C312.168 417.972 312.576 418.092 313.104 418.092C314.22 418.092 315.216 418.056 316.092 417.984L316.596 417.93L316.632 419.712C315.252 420.048 314.004 420.216 312.888 420.216C311.532 420.216 310.548 419.856 309.936 419.136C309.324 418.416 309.018 417.246 309.018 415.626C309.018 412.398 310.344 410.784 312.996 410.784C315.612 410.784 316.92 412.14 316.92 414.852L316.74 416.526H311.448ZM314.544 414.69C314.544 413.97 314.43 413.472 314.202 413.196C313.974 412.908 313.572 412.764 312.996 412.764C312.432 412.764 312.03 412.914 311.79 413.214C311.562 413.502 311.442 413.994 311.43 414.69H314.544Z" fill="#0066CC"/>
</g>
<defs>
<clipPath id="clip0">
<rect width="833" height="643" fill="white"/>
</clipPath>
</defs>
</svg>
