<svg xmlns="http://www.w3.org/2000/svg" viewBox="0 0 120 120"><defs><style>.cls-1{fill:#ffffff;}.cls-2{fill:none;}</style></defs><g id="organizzare"><path class="cls-1" d="M63.42,12H21a5.07,5.07,0,0,0-5,4.76V89.32a5.06,5.06,0,0,0,5,4.76H61v-11H80ZM58,80.07v11H21a2.09,2.09,0,0,1-2-1.76V16.76A2.09,2.09,0,0,1,21,15H61l1.42,6.08,2.1,9,11.69,50Z"/><path class="cls-1" d="M93,92H74v11H34a5.06,5.06,0,0,1-5-4.76V94h3v4.24A2.09,2.09,0,0,0,34,100H71V89H89.21L74,23.92l-.09.08H66.1l-.7-3H76.28l2.12,9,.7,3Z"/><path class="cls-1" d="M89.28,30H78.4l.7,3h7.81l.09-.08L102.21,98H84v11H47a2.09,2.09,0,0,1-2-1.76V103H42v4.24A5.06,5.06,0,0,0,47,112H87V101h19Z"/><circle class="cls-1" cx="53" cy="34" r="4"/><rect class="cls-2" width="120" height="120"/></g></svg>
