<svg width="120" height="120" viewBox="0 0 120 120" fill="none" xmlns="http://www.w3.org/2000/svg">
<path d="M64.8 39.1L54 27.6L51.5 25L49 27.3L37.6 38.1L34.6 40.9L11.8 62.4L10.3 63.9L10.1 64C10.1 64 10.1 64 10.1 64.1C9.60005 64.6 9.70005 65.4 10.3 66L11.5 67.2L22.8 79.2L24 80.5C24.3 80.8 24.7 81 25.1 81C25.3 81 25.5 81 25.7 80.8C25.8 80.8 25.8 80.7 25.9 80.7L26.1 80.5L27.6 79L34.7 72.4L37.6 69.6L37.7 69.5V69C37.9 67.1 38.5 65.4 39.5 63.9L37.7 65.6L34.8 68.4L34.7 68.5L25.6 77.1L25 77.3L13.4 65L13.9 64.5L34.6 45L37.6 42.2L51.2 29.4L51.5 29.1L63 41.5L62.7 41.8L49.2 54.5L44.5 58.9C46.3 58 48.3 57.5 50.4 57.4L50.5 57.3L64.8 44L67.3 41.7L64.8 39.1Z" fill="#365066"/>
<path d="M68.5 22.8999H68.3L51.7 24.7999L51.5 24.9999L49 27.2999L51 29.4999L62.6 41.7999L64.7 43.9999L67.2 41.6999L67.4 41.4999L70.3 25.0999C70.5 23.8999 69.6 22.8999 68.5 22.8999ZM64.8 39.5999L53.6 27.5999H54.1L67.3 26.0999L65 39.0999L64.8 39.5999Z" fill="#365066"/>
<path d="M25.5 76.8999L13.9 64.5999L11.8 62.3999L10.3 63.8999C10.2 63.9999 10.1 63.9999 10.1 64.0999C6.90003 67.2999 6.90003 72.4999 10 75.7999L14.1 80.1999C15.8 81.9999 18 82.8999 20.3 82.8999C22.2 82.8999 24.1 82.2999 25.7 80.8999C25.8 80.8999 25.8 80.7999 25.9 80.7999C26 80.6999 26 80.6999 26.1 80.5999L27.6 79.0999L25.5 76.8999ZM20.2 79.7999C18.7 79.7999 17.3 79.1999 16.2 78.0999L12.1 73.6999C10.4 71.8999 10.2 69.1999 11.4 67.1999C11.5 66.9999 11.6 66.7999 11.8 66.5999L23.3 78.7999C23.1 78.8999 22.9 78.9999 22.7 79.1999C21.9 79.5999 21 79.7999 20.2 79.7999Z" fill="#365066"/>
<path d="M54.6 38.5001L37.6 54.5001L34.6 57.3001L22.5 68.7001L20.7 66.8001L34.6 53.7001L37.6 50.9001L52.8 36.6001L54.6 38.5001Z" fill="#365066"/>
<path d="M107.5 97.1999L89.3 14.3999H40C37 14.3999 34.5 16.8999 34.5 19.8999V44.9999L37.5 42.1999V19.8999C37.5 18.4999 38.6 17.3999 40 17.3999H86.8L103.6 94.1999H87.8V97.1999L87.9 107.4H40C38.6 107.4 37.5 106.3 37.5 104.9V61.0999C36 63.1999 35 65.5999 34.6 68.2999L34.5 68.3999V105C34.5 108 37 110.5 40 110.5H91L90.9 97.2999H107.5V97.1999ZM37.6 50.8999L34.6 53.6999V57.2999L37.6 54.4999V50.8999ZM37.5 69.6999C37.5 69.9999 37.5 70.2999 37.5 70.5999C37.5 71.0999 37.5 71.6999 37.6 72.1999V68.9999C37.5 69.1999 37.5 69.3999 37.5 69.6999ZM37.5 69.6999C37.5 69.9999 37.5 70.2999 37.5 70.5999C37.5 71.0999 37.5 71.6999 37.6 72.1999V68.9999C37.5 69.1999 37.5 69.3999 37.5 69.6999Z" fill="#365066"/>
<path d="M50.6 54.3999V57.3999H50.5C48.4 57.3999 46.4 57.8999 44.6 58.8999C42.4 59.9999 40.6 61.6999 39.4 63.7999C38.5 65.2999 37.9 67.0999 37.6 68.8999C37.6 69.0999 37.5 69.3999 37.5 69.5999C37.5 69.8999 37.5 70.1999 37.5 70.4999C37.5 70.9999 37.5 71.5999 37.6 72.0999C38.4 78.5999 43.9 83.5999 50.6 83.5999V86.5999C45.3 86.5999 40.5 83.9999 37.6 79.9999C36 77.7999 34.9 75.1999 34.6 72.3999V72.2999C34.5 71.6999 34.5 71.0999 34.5 70.4999C34.5 69.8999 34.5 69.2999 34.6 68.6999C34.6 68.4999 34.6 68.3999 34.7 68.1999C35.1 65.4999 36.1 63.0999 37.6 60.9999C40.3 57.2999 44.5 54.7999 49.3 54.4999C49.7 54.4999 50.1 54.3999 50.6 54.3999Z" fill="#365066"/>
<path d="M50.6 79.2997C45.7 79.2997 41.8 75.3997 41.8 70.4997C41.8 65.5997 45.7 61.6997 50.6 61.6997V64.6997C47.4 64.6997 44.8 67.2997 44.8 70.4997C44.8 73.6997 47.4 76.2997 50.6 76.2997V79.2997Z" fill="#365066"/>
</svg>
