<svg xmlns="http://www.w3.org/2000/svg" viewBox="0 0 120 120"><defs><style>.cls-1{fill:none;}.cls-2{fill:#ffffff;}</style></defs><g id="progettare"><rect class="cls-1" width="120" height="120"/><path class="cls-2" d="M67.24,37.61,56.39,26.08,54,23.49,51.5,25.81,40,36.64l-3,2.82L14.21,60.88l-1.55,1.46,0,0-.17.16-.05.06a1.41,1.41,0,0,0,.15,1.92l1.18,1.25L25,77.75,26.25,79a1.56,1.56,0,0,0,1.12.51,1.11,1.11,0,0,0,.59-.16s0,0,0,0l.16-.13.22-.21h0l1.55-1.46L37,70.94h0l.06-4.18-.07.07-9.12,8.57-.49.47L15.78,63.53l.49-.46L37,43.58l3-2.82L53.55,28l.28-.26,11.6,12.33-.28.26L51.66,53l1.23,3L67.21,42.51l2.46-2.32Z"/><path class="cls-2" d="M70.87,21.41H70.7L54,23.49,51.5,25.81l2,2.18.28-.26,11.6,12.33-.28.26,2.06,2.19,2.46-2.32,3.1-16.57A1.91,1.91,0,0,0,70.87,21.41ZM67.16,38.08,55.92,26.13l.47-.05,13.16-1.51-2.31,13Z"/><path class="cls-2" d="M27.86,75.39l-.49.47L15.78,63.53l.49-.46-2.06-2.19-1.55,1.46,0,0-.22.22A8.46,8.46,0,0,0,12.3,74.3l4.12,4.37a8.43,8.43,0,0,0,6.16,2.67,8.33,8.33,0,0,0,5.38-2s0,0,0,0l.16-.13.22-.21h0l1.55-1.46Zm-5.28,3a5.41,5.41,0,0,1-4-1.72l-4.12-4.38a5.47,5.47,0,0,1-.73-6.49,5.25,5.25,0,0,1,.38-.58L25.63,77.4a4.48,4.48,0,0,1-.6.35A5.3,5.3,0,0,1,22.58,78.34Z"/><polygon class="cls-2" points="56.97 37.02 39.98 53 36.98 55.83 24.88 67.21 23.07 65.28 36.98 52.19 39.98 49.37 55.16 35.09 56.97 37.02"/><path class="cls-2" d="M108.89,97,90.74,14H41.49A5.48,5.48,0,0,0,36,19.49V43l3-2.82V19.49A2.49,2.49,0,0,1,41.49,17H88.32l16.57,77h-15v13H41.49c-1.37,0-2.6-1.63-2.6-3V68a7.74,7.74,0,0,1-3,1v36c0,3,2.57,5,5.6,5h51.4V97ZM38.94,69.22q0,.44,0,.87a11.87,11.87,0,0,0,.1,1.58V68.51C39,68.74,39,69,38.94,69.22Zm0,0q0,.44,0,.87a11.87,11.87,0,0,0,.1,1.58V68.51C39,68.74,39,69,38.94,69.22Z"/><path class="cls-2" d="M52.89,53v3a13.36,13.36,0,0,0-6,1.43,13.11,13.11,0,0,0-5.25,4.9,12.86,12.86,0,0,0-1.75,5.09c0,.23-.06.47-.07.71s0,.58,0,.87a11.82,11.82,0,0,0,.1,1.57A13.07,13.07,0,0,0,52.89,82v3a16.09,16.09,0,0,1-13-6.57,15.81,15.81,0,0,1-3-7.57s0-.06,0-.09A14.65,14.65,0,0,1,36.8,69a14.81,14.81,0,0,1,.1-1.78c0-.17,0-.34.07-.51a15.77,15.77,0,0,1,2.93-7.14,16.05,16.05,0,0,1,11.68-6.51C52,53,52.45,53,52.89,53Z"/><path class="cls-2" d="M52.89,77.59a8.8,8.8,0,1,1,0-17.59v3a5.8,5.8,0,1,0,0,11.59Z"/><rect class="cls-1" width="120" height="120"/></g></svg>
