<svg xmlns="http://www.w3.org/2000/svg" viewBox="0 0 120 120"><defs><style>.cls-1{fill:#365066;}.cls-2{fill:none;}</style></defs><g id="realizzare"><path class="cls-1" d="M53.84,37.23h-.11a2.83,2.83,0,0,0,.1,5.66h.11a2.83,2.83,0,0,0-.1-5.66Z"/><path class="cls-1" d="M67.31,37.25a2.91,2.91,0,0,0-1.07.21,2.83,2.83,0,0,0,1.07,5.45,2.87,2.87,0,0,0,1.07-.21,2.83,2.83,0,0,0-1.07-5.45Z"/><path class="cls-1" d="M80.56,37.25a2.87,2.87,0,0,0-1.07.21,2.83,2.83,0,0,0,1.07,5.45,2.87,2.87,0,0,0,1.07-.21,2.83,2.83,0,0,0-1.07-5.45Z"/><rect class="cls-2" x="66.92" y="81" width="32.05" height="18"/><path class="cls-1" d="M93.81,37.25a2.87,2.87,0,0,0-1.07.21,2.83,2.83,0,0,0,1.07,5.45,2.87,2.87,0,0,0,1.07-.21,2.83,2.83,0,0,0-1.07-5.45Z"/><path class="cls-1" d="M102,28V21.51l-56.06,0V28H35.49A15.8,15.8,0,0,0,7,28a14.76,14.76,0,0,0-1,3H18.7v7H5.94a14.76,14.76,0,0,0,1,3,15.8,15.8,0,0,0,28.52,0H45.91V64.23A16.68,16.68,0,0,0,62.52,81h1.4v21H102V41h12V28ZM33.39,38a12.11,12.11,0,0,1-1.34,3,12.75,12.75,0,0,1-21.63,0H21.74V28H10.42a12.75,12.75,0,0,1,21.63,0,12.11,12.11,0,0,1,1.34,3,12.26,12.26,0,0,1,0,7Zm12.52-.06H36.53a14.64,14.64,0,0,0,0-6.88h9.38ZM88.72,24.57H98.91V39.83a5.1,5.1,0,1,1-10.19,0Zm-13.25,0H85.66V39.83a5.1,5.1,0,1,1-10.19,0Zm-13.25,0H72.41V39.83a5.1,5.1,0,1,1-10.19,0ZM49,24.55H59.16V39.83a5.1,5.1,0,0,1-10.19,0ZM62.52,77.91A13.63,13.63,0,0,1,49,64.23v-18l0-.1,0,0a8.13,8.13,0,0,0,11.71-1.6,8.14,8.14,0,0,0,13.26,0,8.14,8.14,0,0,0,13.25,0,8.13,8.13,0,0,0,11.72,1.61l0,0,0,31.75ZM99,99h-32V81H99Zm12-61h-9V31h9Z"/><rect class="cls-2" width="120" height="120"/></g></svg>