<svg width="58" height="53" viewBox="0 0 58 53" fill="none" xmlns="http://www.w3.org/2000/svg">
<path fill-rule="evenodd" clip-rule="evenodd" d="M3.4698 25.562C3.83984 25.562 4.1398 25.862 4.1398 26.232V50.919H53.4798V26.232C53.4798 25.862 53.7798 25.562 54.1498 25.562C54.5198 25.562 54.8198 25.862 54.8198 26.232V51.589C54.8198 51.959 54.5198 52.259 54.1498 52.259H3.4698C3.09977 52.259 2.7998 51.959 2.7998 51.589V26.232C2.7998 25.862 3.09977 25.562 3.4698 25.562Z" fill="#212121"/>
<path fill-rule="evenodd" clip-rule="evenodd" d="M28.345 12.3263C28.6045 12.0761 29.0155 12.0761 29.275 12.3263L32.3046 15.2467H50.314C50.5419 15.2467 50.7542 15.3625 50.8775 15.5542L57.5135 25.8692C57.6461 26.0753 57.6555 26.3375 57.5381 26.5526C57.4207 26.7678 57.1951 26.9017 56.95 26.9017H42.735C42.5616 26.9017 42.3949 26.8344 42.27 26.714L31.581 16.4103C31.5729 16.4029 31.5651 16.3954 31.5574 16.3876L28.81 13.7393L26.0626 16.3876C26.0549 16.3954 26.047 16.403 26.039 16.4104L15.35 26.714C15.2251 26.8344 15.0584 26.9017 14.885 26.9017H0.670001C0.424869 26.9017 0.199307 26.7678 0.0818791 26.5526C-0.0355485 26.3375 -0.0260928 26.0753 0.106533 25.8692L6.74253 15.5542C6.86584 15.3625 7.0781 15.2467 7.306 15.2467H25.3154L28.345 12.3263ZM23.9252 16.5867H7.67164L1.89771 25.5617H14.6147L20.72 19.6763L23.9252 16.5867ZM33.6948 16.5867L36.9 19.6763L43.0054 25.5617H55.7223L49.9484 16.5867H33.6948Z" fill="#212121"/>
<path fill-rule="evenodd" clip-rule="evenodd" d="M28.8132 22.5929C26.0971 22.5929 23.8962 24.794 23.8962 27.5089C23.8962 30.2238 26.0971 32.4249 28.8132 32.4249C31.5281 32.4249 33.7292 30.2239 33.7292 27.5089C33.7292 24.794 31.5281 22.5929 28.8132 22.5929ZM22.5562 27.5089C22.5562 24.0538 25.3572 21.2529 28.8132 21.2529C32.2682 21.2529 35.0692 24.0539 35.0692 27.5089C35.0692 30.964 32.2682 33.7649 28.8132 33.7649C25.3572 33.7649 22.5562 30.964 22.5562 27.5089Z" fill="#212121"/>
<path fill-rule="evenodd" clip-rule="evenodd" d="M28.8126 23.4272C29.1827 23.4272 29.4826 23.7272 29.4826 24.0972V27.6252C29.4826 27.9953 29.1827 28.2952 28.8126 28.2952H25.9566C25.5866 28.2952 25.2866 27.9953 25.2866 27.6252C25.2866 27.2552 25.5866 26.9552 25.9566 26.9552H28.1426V24.0972C28.1426 23.7272 28.4426 23.4272 28.8126 23.4272Z" fill="#212121"/>
<path fill-rule="evenodd" clip-rule="evenodd" d="M22.4927 36.609C22.4927 36.2389 22.7926 35.939 23.1627 35.939H34.4617C34.8317 35.939 35.1317 36.2389 35.1317 36.609V51.589C35.1317 51.959 34.8317 52.259 34.4617 52.259C34.0916 52.259 33.7917 51.959 33.7917 51.589V37.279H23.8327V51.589C23.8327 51.959 23.5327 52.259 23.1627 52.259C22.7926 52.259 22.4927 51.959 22.4927 51.589V36.609Z" fill="#212121"/>
<path fill-rule="evenodd" clip-rule="evenodd" d="M5.85645 30.9857C5.85645 30.6156 6.15641 30.3157 6.52645 30.3157H11.1684C11.5385 30.3157 11.8384 30.6156 11.8384 30.9857V36.9787C11.8384 37.3487 11.5385 37.6487 11.1684 37.6487H6.52645C6.15641 37.6487 5.85645 37.3487 5.85645 36.9787V30.9857ZM7.19645 31.6557V36.3087H10.4984V31.6557H7.19645Z" fill="#212121"/>
<path fill-rule="evenodd" clip-rule="evenodd" d="M5.85645 34.3341C5.85645 33.964 6.15641 33.6641 6.52645 33.6641H11.1684C11.5385 33.6641 11.8384 33.964 11.8384 34.3341C11.8384 34.7041 11.5385 35.0041 11.1684 35.0041H6.52645C6.15641 35.0041 5.85645 34.7041 5.85645 34.3341Z" fill="#212121"/>
<path fill-rule="evenodd" clip-rule="evenodd" d="M13.7769 30.9857C13.7769 30.6156 14.0768 30.3157 14.4469 30.3157H19.0889C19.4589 30.3157 19.7589 30.6156 19.7589 30.9857V36.9787C19.7589 37.3487 19.4589 37.6487 19.0889 37.6487H14.4469C14.0768 37.6487 13.7769 37.3487 13.7769 36.9787V30.9857ZM15.1169 31.6557V36.3087H18.4189V31.6557H15.1169Z" fill="#212121"/>
<path fill-rule="evenodd" clip-rule="evenodd" d="M13.7764 34.3341C13.7764 33.964 14.0763 33.6641 14.4464 33.6641H19.0884C19.4584 33.6641 19.7584 33.964 19.7584 34.3341C19.7584 34.7041 19.4584 35.0041 19.0884 35.0041H14.4464C14.0763 35.0041 13.7764 34.7041 13.7764 34.3341Z" fill="#212121"/>
<path fill-rule="evenodd" clip-rule="evenodd" d="M5.85645 40.0846C5.85645 39.7145 6.15641 39.4146 6.52645 39.4146H11.1684C11.5385 39.4146 11.8384 39.7145 11.8384 40.0846V46.0776C11.8384 46.4476 11.5385 46.7476 11.1684 46.7476H6.52645C6.15641 46.7476 5.85645 46.4476 5.85645 46.0776V40.0846ZM7.19645 40.7546V45.4076H10.4984V40.7546H7.19645Z" fill="#212121"/>
<path fill-rule="evenodd" clip-rule="evenodd" d="M13.7769 40.0846C13.7769 39.7145 14.0768 39.4146 14.4469 39.4146H19.0889C19.4589 39.4146 19.7589 39.7145 19.7589 40.0846V46.0776C19.7589 46.4476 19.4589 46.7476 19.0889 46.7476H14.4469C14.0768 46.7476 13.7769 46.4476 13.7769 46.0776V40.0846ZM15.1169 40.7546V45.4076H18.4189V40.7546H15.1169Z" fill="#212121"/>
<path fill-rule="evenodd" clip-rule="evenodd" d="M45.7866 30.9857C45.7866 30.6156 46.0866 30.3157 46.4566 30.3157H51.0996C51.4697 30.3157 51.7696 30.6156 51.7696 30.9857V36.9787C51.7696 37.3487 51.4697 37.6487 51.0996 37.6487H46.4566C46.0866 37.6487 45.7866 37.3487 45.7866 36.9787V30.9857ZM47.1266 31.6557V36.3087H50.4296V31.6557H47.1266Z" fill="#212121"/>
<path fill-rule="evenodd" clip-rule="evenodd" d="M45.7856 34.3341C45.7856 33.964 46.0856 33.6641 46.4556 33.6641H51.0986C51.4687 33.6641 51.7686 33.964 51.7686 34.3341C51.7686 34.7041 51.4687 35.0041 51.0986 35.0041H46.4556C46.0856 35.0041 45.7856 34.7041 45.7856 34.3341Z" fill="#212121"/>
<path fill-rule="evenodd" clip-rule="evenodd" d="M37.8667 30.9857C37.8667 30.6156 38.1667 30.3157 38.5367 30.3157H43.1797C43.5497 30.3157 43.8497 30.6156 43.8497 30.9857V36.9787C43.8497 37.3487 43.5497 37.6487 43.1797 37.6487H38.5367C38.1667 37.6487 37.8667 37.3487 37.8667 36.9787V30.9857ZM39.2067 31.6557V36.3087H42.5097V31.6557H39.2067Z" fill="#212121"/>
<path fill-rule="evenodd" clip-rule="evenodd" d="M37.8657 34.3341C37.8657 33.964 38.1657 33.6641 38.5357 33.6641H43.1787C43.5488 33.6641 43.8487 33.964 43.8487 34.3341C43.8487 34.7041 43.5488 35.0041 43.1787 35.0041H38.5357C38.1657 35.0041 37.8657 34.7041 37.8657 34.3341Z" fill="#212121"/>
<path fill-rule="evenodd" clip-rule="evenodd" d="M45.7866 40.0846C45.7866 39.7145 46.0866 39.4146 46.4566 39.4146H51.0996C51.4697 39.4146 51.7696 39.7145 51.7696 40.0846V46.0776C51.7696 46.4476 51.4697 46.7476 51.0996 46.7476H46.4566C46.0866 46.7476 45.7866 46.4476 45.7866 46.0776V40.0846ZM47.1266 40.7546V45.4076H50.4296V40.7546H47.1266Z" fill="#212121"/>
<path fill-rule="evenodd" clip-rule="evenodd" d="M37.8667 40.0846C37.8667 39.7145 38.1667 39.4146 38.5367 39.4146H43.1797C43.5497 39.4146 43.8497 39.7145 43.8497 40.0846V46.0776C43.8497 46.4476 43.5497 46.7476 43.1797 46.7476H38.5367C38.1667 46.7476 37.8667 46.4476 37.8667 46.0776V40.0846ZM39.2067 40.7546V45.4076H42.5097V40.7546H39.2067Z" fill="#212121"/>
<path fill-rule="evenodd" clip-rule="evenodd" d="M22.4927 39.8629C22.4927 39.4928 22.7926 39.1929 23.1627 39.1929H34.3987C34.7687 39.1929 35.0687 39.4928 35.0687 39.8629C35.0687 40.2329 34.7687 40.5329 34.3987 40.5329H23.1627C22.7926 40.5329 22.4927 40.2329 22.4927 39.8629Z" fill="#212121"/>
<path fill-rule="evenodd" clip-rule="evenodd" d="M28.8126 39.5459C29.1826 39.5459 29.4826 39.8459 29.4826 40.2159V51.5889C29.4826 51.9589 29.1826 52.2589 28.8126 52.2589C28.4425 52.2589 28.1426 51.9589 28.1426 51.5889V40.2159C28.1426 39.8459 28.4425 39.5459 28.8126 39.5459Z" fill="#212121"/>
<path fill-rule="evenodd" clip-rule="evenodd" d="M28.7808 0C29.1509 0 29.4508 0.299969 29.4508 0.67V12.809C29.4508 13.179 29.1509 13.479 28.7808 13.479C28.4108 13.479 28.1108 13.179 28.1108 12.809V0.67C28.1108 0.299969 28.4108 0 28.7808 0Z" fill="#212121"/>
<path fill-rule="evenodd" clip-rule="evenodd" d="M28.1567 2.80965C28.1567 2.43962 28.4567 2.13965 28.8267 2.13965H38.5397C38.7884 2.13965 39.0167 2.2774 39.1326 2.49744C39.2484 2.71749 39.2329 2.98361 39.0922 3.18869L37.4073 5.64465L39.0922 8.10061C39.2329 8.30568 39.2484 8.57181 39.1326 8.79185C39.0167 9.0119 38.7884 9.14965 38.5397 9.14965H28.8267C28.4567 9.14965 28.1567 8.84968 28.1567 8.47965C28.1567 8.10962 28.4567 7.80965 28.8267 7.80965H37.2676L36.0423 6.02369C35.8856 5.79529 35.8856 5.49401 36.0423 5.26561L37.2676 3.47965H28.8267C28.4567 3.47965 28.1567 3.17968 28.1567 2.80965Z" fill="#212121"/>
</svg>
