<svg width="213" height="213" viewBox="0 0 213 213" fill="none" xmlns="http://www.w3.org/2000/svg">
<g clip-path="url(#clip0_59_27692)">
<path d="M55.2163 163.183C58.1982 163.183 61.1131 162.298 63.5925 160.642C66.0718 158.985 68.0042 156.63 69.1453 153.876C70.2865 151.121 70.585 148.089 70.0033 145.165C69.4216 142.24 67.9856 139.554 65.8771 137.445C63.7686 135.337 61.0822 133.901 58.1576 133.319C55.233 132.737 52.2016 133.036 49.4467 134.177C46.6918 135.318 44.3372 137.25 42.6805 139.73C41.0239 142.209 40.1397 145.124 40.1397 148.106C40.1373 150.087 40.5257 152.048 41.2825 153.878C42.0394 155.709 43.1498 157.372 44.5503 158.772C45.9508 160.172 47.6137 161.283 49.444 162.04C51.2742 162.797 53.2358 163.185 55.2163 163.183V163.183ZM55.2163 138.35C57.1458 138.35 59.0319 138.923 60.6362 139.995C62.2405 141.067 63.4908 142.59 64.2292 144.373C64.9676 146.155 65.1608 148.117 64.7844 150.009C64.4079 151.902 63.4788 153.64 62.1145 155.004C60.7502 156.368 59.0119 157.298 57.1195 157.674C55.2271 158.05 53.2656 157.857 51.4831 157.119C49.7005 156.38 48.1769 155.13 47.1049 153.526C46.033 151.922 45.4608 150.035 45.4608 148.106C45.4608 145.519 46.4886 143.037 48.3182 141.208C50.1477 139.378 52.629 138.35 55.2163 138.35V138.35Z" fill="white"/>
<path d="M56.6183 168.504H53.8335C49.0273 168.509 44.4192 170.42 41.0207 173.819C37.6221 177.217 35.7108 181.825 35.7061 186.631V202.205H74.728V186.631C74.728 181.827 72.8206 177.219 69.4249 173.82C66.0291 170.421 61.4229 168.509 56.6183 168.504V168.504ZM69.4068 196.883H41.0272V186.631C41.0319 183.236 42.3827 179.982 44.7833 177.581C47.1839 175.181 50.4385 173.83 53.8335 173.825H56.6183C60.0116 173.83 63.2644 175.181 65.6622 177.582C68.06 179.983 69.4068 183.238 69.4068 186.631V196.883Z" fill="white"/>
<path d="M106.424 163.183C109.406 163.183 112.321 162.298 114.8 160.642C117.28 158.985 119.212 156.63 120.353 153.876C121.494 151.121 121.793 148.089 121.211 145.165C120.63 142.24 119.194 139.554 117.085 137.445C114.977 135.337 112.29 133.901 109.366 133.319C106.441 132.737 103.41 133.036 100.655 134.177C97.8998 135.318 95.5452 137.25 93.8885 139.73C92.2319 142.209 91.3477 145.124 91.3477 148.106C91.3477 152.105 92.9361 155.939 95.7635 158.767C98.5909 161.594 102.426 163.183 106.424 163.183V163.183ZM106.424 138.35C108.354 138.35 110.24 138.923 111.844 139.995C113.448 141.067 114.699 142.59 115.437 144.373C116.176 146.155 116.369 148.117 115.992 150.009C115.616 151.902 114.687 153.64 113.322 155.004C111.958 156.368 110.22 157.298 108.328 157.674C106.435 158.05 104.474 157.857 102.691 157.119C100.908 156.38 99.3849 155.13 98.3129 153.526C97.241 151.922 96.6688 150.035 96.6688 148.106C96.6735 145.52 97.7028 143.041 99.5313 141.213C101.36 139.384 103.838 138.355 106.424 138.35V138.35Z" fill="white"/>
<path d="M107.808 168.504H105.041C102.656 168.504 100.294 168.975 98.0912 169.889C95.8884 170.803 93.8877 172.143 92.2037 173.832C90.5197 175.521 89.1856 177.526 88.2777 179.731C87.3699 181.937 86.9062 184.3 86.9132 186.685V202.205H125.935V186.631C125.935 181.824 124.025 177.213 120.626 173.813C117.226 170.414 112.615 168.504 107.808 168.504ZM120.614 196.883H92.2343V186.631C92.239 183.236 93.5898 179.982 95.9904 177.581C98.391 175.181 101.646 173.83 105.041 173.825H107.808C109.493 173.827 111.162 174.162 112.718 174.81C114.274 175.457 115.687 176.406 116.877 177.6C118.066 178.794 119.008 180.211 119.65 181.77C120.291 183.329 120.619 184.999 120.614 186.685V196.883Z" fill="white"/>
<path d="M158.092 163.183C161.074 163.183 163.989 162.298 166.468 160.642C168.948 158.985 170.88 156.63 172.021 153.876C173.162 151.121 173.461 148.089 172.879 145.165C172.298 142.24 170.862 139.554 168.753 137.445C166.645 135.337 163.958 133.901 161.034 133.319C158.109 132.737 155.078 133.036 152.323 134.177C149.568 135.318 147.213 137.25 145.557 139.73C143.9 142.209 143.016 145.124 143.016 148.106C143.013 150.087 143.402 152.048 144.159 153.878C144.915 155.709 146.026 157.372 147.426 158.772C148.827 160.172 150.49 161.283 152.32 162.04C154.15 162.797 156.112 163.185 158.092 163.183V163.183ZM158.092 138.35C160.022 138.35 161.908 138.923 163.512 139.995C165.116 141.067 166.367 142.59 167.105 144.373C167.844 146.155 168.037 148.117 167.66 150.009C167.284 151.902 166.355 153.64 164.99 155.004C163.626 156.368 161.888 157.298 159.995 157.674C158.103 158.05 156.142 157.857 154.359 157.119C152.576 156.38 151.053 155.13 149.981 153.526C148.909 151.922 148.337 150.035 148.337 148.106C148.337 145.519 149.365 143.037 151.194 141.208C153.024 139.378 155.505 138.35 158.092 138.35Z" fill="white"/>
<path d="M159.494 168.504H156.71C151.903 168.509 147.295 170.42 143.897 173.819C140.498 177.217 138.587 181.825 138.582 186.631V202.205H177.604V186.631C177.604 181.827 175.697 177.219 172.301 173.82C168.905 170.421 164.299 168.509 159.494 168.504V168.504ZM172.283 196.883H143.903V186.631C143.908 183.236 145.259 179.982 147.659 177.581C150.06 175.181 153.315 173.83 156.71 173.825H159.494C162.888 173.83 166.14 175.181 168.538 177.582C170.936 179.983 172.283 183.238 172.283 186.631V196.883Z" fill="white"/>
<path d="M109.085 101.103H103.764V122.387H109.085V101.103Z" fill="white"/>
<path d="M84.1669 98.8691L80.4043 95.1064L57.8285 117.682L61.5911 121.445L84.1669 98.8691Z" fill="white"/>
<path d="M132.518 95.1221L128.755 98.8848L151.331 121.461L155.093 117.698L132.518 95.1221Z" fill="white"/>
<path d="M127.177 49.5581C126.801 44.3109 124.452 39.401 120.601 35.8166C116.751 32.2322 111.685 30.2394 106.425 30.2394C101.164 30.2394 96.0988 32.2322 92.2483 35.8166C88.3978 39.401 86.0481 44.3109 85.6721 49.5581C85.6721 50.037 85.6721 50.5336 85.6721 51.0303C85.6716 52.7775 85.8921 54.5177 86.3284 56.2096C86.3284 56.5111 86.4703 56.7949 86.559 57.0787C86.559 57.0787 90.1064 64.9363 90.9223 67.721C91.4012 69.2997 91.9688 71.8361 92.5187 74.4967C93.6007 79.6227 94.5762 85.139 94.5762 85.139H118.309C118.309 85.139 120.597 72.2086 121.998 67.5437C122.814 64.8121 126.344 57.0077 126.344 57.0077C126.486 56.5288 126.503 56.4401 126.574 56.1386C127.01 54.4468 127.231 52.7065 127.23 50.9593C127.23 50.5336 127.213 50.037 127.177 49.5581ZM98.9751 79.8178C98.6735 78.2215 98.301 76.3591 97.9286 74.4967H114.921C114.548 76.3768 114.176 78.2392 113.874 79.8178H98.9751ZM121.413 54.9857V55.3227C120.65 57.0964 117.865 63.4641 116.978 66.1956C116.73 67.0293 116.464 68.1113 116.18 69.3174H96.7756C96.4918 68.1467 96.2258 67.0825 95.9775 66.2666C95.1438 63.4996 92.2704 57.0077 91.5077 55.305C91.5077 55.1985 91.5077 55.0921 91.419 54.9502C91.0973 53.6986 90.9364 52.4112 90.9401 51.119C90.9401 50.711 90.9401 50.3917 90.9401 50.1257V50.0015C91.2055 46.0897 92.9466 42.4246 95.8114 39.7477C98.6761 37.0707 102.451 35.5816 106.371 35.5816C110.292 35.5816 114.067 37.0707 116.932 39.7477C119.796 42.4246 121.537 46.0897 121.803 50.0015V50.1257C121.803 50.4095 121.803 50.7288 121.803 51.119C121.842 52.4194 121.711 53.7193 121.413 54.9857ZM108.997 61.3356V69.1755H103.675V61.1937C103.675 60.4881 103.956 59.8114 104.455 59.3124C104.954 58.8135 105.63 58.5331 106.336 58.5331C107.042 58.5331 107.718 58.8135 108.217 59.3124C108.716 59.8114 108.997 60.4881 108.997 61.1937V61.3356ZM106.425 10.6426C107.13 10.6426 107.807 10.9229 108.306 11.4218C108.805 11.9208 109.085 12.5975 109.085 13.3032V18.6243C109.085 19.33 108.805 20.0067 108.306 20.5057C107.807 21.0046 107.13 21.2849 106.425 21.2849C105.719 21.2849 105.042 21.0046 104.543 20.5057C104.044 20.0067 103.764 19.33 103.764 18.6243V13.3032C103.764 12.5975 104.044 11.9208 104.543 11.4218C105.042 10.9229 105.719 10.6426 106.425 10.6426V10.6426ZM88.0312 14.7221C88.4989 14.72 88.9587 14.8421 89.3638 15.0758C89.7689 15.3095 90.1047 15.6465 90.337 16.0524L93.8845 22.1895C94.0617 22.4917 94.1772 22.826 94.224 23.1732C94.2709 23.5204 94.2483 23.8734 94.1575 24.2117C94.0668 24.5501 93.9096 24.867 93.6953 25.1441C93.4809 25.4211 93.2136 25.6528 92.9089 25.8257C92.5122 26.062 92.0581 26.1847 91.5964 26.1804C91.1287 26.1825 90.6688 26.0605 90.2637 25.8268C89.8586 25.5931 89.5228 25.256 89.2905 24.8501L85.7431 18.713C85.3884 18.1037 85.29 17.3785 85.4696 16.6968C85.6492 16.015 86.092 15.4324 86.7009 15.0769C87.1049 14.8424 87.5641 14.7199 88.0312 14.7221V14.7221ZM125.297 14.7221C124.829 14.72 124.37 14.8421 123.964 15.0758C123.559 15.3095 123.224 15.6465 122.991 16.0524L119.444 22.1895C119.089 22.7988 118.991 23.524 119.17 24.2058C119.35 24.8876 119.793 25.4702 120.402 25.8257C120.705 25.9998 121.041 26.1123 121.388 26.1566C121.735 26.201 122.088 26.1763 122.426 26.084C122.764 25.9917 123.08 25.8336 123.357 25.6189C123.633 25.4041 123.865 25.1368 124.038 24.8324L127.585 18.6953C127.763 18.3931 127.878 18.0588 127.925 17.7116C127.972 17.3644 127.949 17.0114 127.858 16.6731C127.768 16.3347 127.61 16.0178 127.396 15.7408C127.182 15.4637 126.914 15.232 126.61 15.0592C126.213 14.8228 125.759 14.7001 125.297 14.7044V14.7221Z" fill="white"/>
</g>
<defs>
<clipPath id="clip0_59_27692">
<rect width="212.847" height="212.847" fill="white"/>
</clipPath>
</defs>
</svg>
