<svg width="213" height="213" viewBox="0 0 213 213" fill="none" xmlns="http://www.w3.org/2000/svg">
<path d="M128.754 28.3798L163.484 168.504H127.708V196.884H44.9102C43.3606 196.884 41.8734 196.273 40.7711 195.184C39.6687 194.095 39.0401 192.615 39.0214 191.066V34.304C39.0167 33.5277 39.1656 32.7581 39.4595 32.0396C39.7533 31.321 40.1863 30.6677 40.7336 30.1171C41.2809 29.5665 41.9317 29.1295 42.6484 28.8314C43.3652 28.5332 44.1339 28.3798 44.9102 28.3798H128.754ZM132.905 23.0586H44.9102C43.4351 23.0586 41.9745 23.3497 40.6121 23.9153C39.2498 24.4808 38.0124 25.3097 36.971 26.3544C35.9296 27.3991 35.1046 28.6391 34.5434 30.0033C33.9821 31.3674 33.6956 32.8289 33.7003 34.304V191.066C33.7143 194.028 34.9022 196.864 37.0034 198.952C39.1047 201.04 41.948 202.21 44.9102 202.205H133.029V173.825H170.277L132.905 23.0586Z" fill="white"/>
<path d="M110.753 55.9784C112.66 56.0216 114.513 56.6179 116.088 57.6948C117.662 58.7717 118.89 60.2829 119.621 62.0445C121.856 67.0287 120.491 72.9352 115.843 78.2564L95.9067 98.2285L76.041 78.3805C71.3229 73.4673 69.8507 67.7382 71.9614 62.7718C72.7243 60.8871 74.0232 59.2675 75.6973 58.1137C77.3714 56.9598 79.3471 56.3222 81.3799 56.2799C84.9274 56.2799 88.7763 58.2133 92.2528 61.9026L96.226 66.0886L100.093 61.7785C103.481 57.9827 107.188 55.9784 110.735 55.9784M110.735 50.6572C106.052 50.6572 100.873 52.8921 96.1018 58.231C91.2241 53.0872 86.0448 50.9588 81.3622 50.9588C68.077 50.9588 58.8713 68.2171 72.2275 82.1054L95.9067 105.767L119.781 81.8925C132.676 67.4012 123.577 50.6572 110.753 50.6572H110.735Z" fill="white"/>
<path d="M181.611 37.6025L163.182 48.2449L165.842 52.8566L184.271 42.2142L181.611 37.6025Z" fill="white"/>
<path d="M188.015 72.7227H166.73V78.0438H188.015V72.7227Z" fill="white"/>
<path d="M165.842 96.1357L163.182 100.747L181.611 111.39L184.271 106.778L165.842 96.1357Z" fill="white"/>
</svg>
