<svg width="213" height="213" viewBox="0 0 213 213" fill="none" xmlns="http://www.w3.org/2000/svg">
<path d="M177.372 143.672V143.796C176.785 143.71 176.192 143.669 175.599 143.672H177.372Z" fill="white"/>
<path d="M175.599 172.051C176.191 172.051 176.784 172.016 177.372 171.944V172.051H175.599Z" fill="white"/>
<path d="M182.694 14.1896C180.894 14.1821 179.102 14.433 177.373 14.9346V35.4743H10.6426V177.372H182.694C187.868 177.372 192.831 175.317 196.49 171.658C200.149 167.999 202.205 163.036 202.205 157.861V33.7006C202.205 28.526 200.149 23.5633 196.49 19.9042C192.831 16.2452 187.868 14.1896 182.694 14.1896ZM184.468 171.945C183.879 172.016 183.287 172.052 182.694 172.051H15.9638V40.7955H177.373V143.672H182.694C183.287 143.668 183.88 143.71 184.468 143.796C187.89 144.235 191.036 145.906 193.315 148.496C195.595 151.087 196.852 154.419 196.852 157.87C196.852 161.321 195.595 164.653 193.315 167.244C191.036 169.835 187.89 171.506 184.468 171.945ZM196.884 144.47C195.065 142.53 192.867 140.986 190.425 139.934C187.984 138.881 185.352 138.342 182.694 138.35V19.5108C186.457 19.5108 190.066 21.0058 192.728 23.6669C195.389 26.328 196.884 29.9372 196.884 33.7006V144.47Z" fill="white"/>
<path d="M42.5693 69.1749V74.4961H113.518V69.1749H42.5693Z" fill="white"/>
<path d="M42.5693 85.1388V90.46H113.518V85.1388H42.5693Z" fill="white"/>
<path d="M42.5693 101.103V106.424H88.6862V101.103H42.5693Z" fill="white"/>
<path d="M108.197 127.708V143.671H47.8905V127.708H108.197ZM113.518 122.387H42.5693V148.993H113.518V122.387Z" fill="white"/>
</svg>
