<svg width="120" height="120" viewBox="0 0 120 120" fill="none" xmlns="http://www.w3.org/2000/svg">
<g clip-path="url(#clip0_270_22632)">
<path d="M31.1299 92C32.811 92 34.4544 91.5015 35.8522 90.5675C37.2501 89.6335 38.3395 88.306 38.9829 86.7528C39.6262 85.1996 39.7945 83.4906 39.4666 81.8417C39.1386 80.1929 38.329 78.6783 37.1403 77.4896C35.9516 76.3008 34.437 75.4913 32.7882 75.1633C31.1393 74.8353 29.4303 75.0037 27.8771 75.647C26.3239 76.2904 24.9964 77.3798 24.0624 78.7776C23.1284 80.1755 22.6299 81.8188 22.6299 83.5C22.6286 84.6166 22.8475 85.7225 23.2742 86.7544C23.7009 87.7862 24.327 88.7238 25.1165 89.5133C25.9061 90.3029 26.8437 90.929 27.8755 91.3556C28.9074 91.7823 30.0133 92.0013 31.1299 92V92ZM31.1299 78C32.2177 78 33.2811 78.3226 34.1855 78.9269C35.09 79.5313 35.7949 80.3902 36.2112 81.3952C36.6275 82.4002 36.7364 83.5061 36.5242 84.573C36.312 85.6399 35.7882 86.6199 35.019 87.3891C34.2498 88.1583 33.2698 88.6821 32.2029 88.8943C31.136 89.1065 30.0301 88.9976 29.0251 88.5813C28.0201 88.165 27.1612 87.4601 26.5568 86.5556C25.9525 85.6512 25.6299 84.5878 25.6299 83.5C25.6299 82.0413 26.2094 80.6424 27.2408 79.6109C28.2723 78.5795 29.6712 78 31.1299 78V78Z" fill="#365066"/>
<path d="M31.9199 95H30.3499C27.6402 95.0026 25.0422 96.0802 23.1262 97.9963C21.2101 99.9123 20.1325 102.51 20.1299 105.22V114H42.1299V105.22C42.1299 102.511 41.0545 99.9132 39.1401 97.9969C37.2256 96.0806 34.6287 95.0027 31.9199 95V95ZM39.1299 111H23.1299V105.22C23.1325 103.306 23.8941 101.471 25.2475 100.118C26.6009 98.7642 28.4358 98.0026 30.3499 98H31.9199C33.833 98.0026 35.6669 98.7645 37.0187 100.118C38.3706 101.472 39.1299 103.307 39.1299 105.22V111Z" fill="#365066"/>
<path d="M60 92C61.6811 92 63.3245 91.5015 64.7223 90.5675C66.1202 89.6335 67.2096 88.306 67.853 86.7528C68.4963 85.1996 68.6647 83.4906 68.3367 81.8417C68.0087 80.1929 67.1992 78.6783 66.0104 77.4896C64.8217 76.3008 63.3071 75.4913 61.6583 75.1633C60.0094 74.8353 58.3004 75.0037 56.7472 75.647C55.194 76.2904 53.8665 77.3798 52.9325 78.7776C51.9985 80.1755 51.5 81.8188 51.5 83.5C51.5 85.7543 52.3955 87.9163 53.9896 89.5104C55.5837 91.1045 57.7457 92 60 92V92ZM60 78C61.0878 78 62.1512 78.3226 63.0556 78.9269C63.9601 79.5313 64.6651 80.3902 65.0813 81.3952C65.4976 82.4002 65.6065 83.5061 65.3943 84.573C65.1821 85.6399 64.6583 86.6199 63.8891 87.3891C63.1199 88.1583 62.1399 88.6821 61.073 88.8943C60.0061 89.1065 58.9002 88.9976 57.8952 88.5813C56.8902 88.165 56.0313 87.4601 55.4269 86.5556C54.8226 85.6512 54.5 84.5878 54.5 83.5C54.5026 82.0421 55.083 80.6447 56.1138 79.6138C57.1447 78.5829 58.5421 78.0026 60 78V78Z" fill="#365066"/>
<path d="M60.78 95H59.22C57.8754 95 56.544 95.2654 55.3021 95.7808C54.0602 96.2963 52.9322 97.0518 51.9828 98.004C51.0334 98.9562 50.2812 100.086 49.7694 101.33C49.2575 102.573 48.9961 103.905 49 105.25V114H71V105.22C71 102.51 69.9233 99.91 68.0067 97.9934C66.0901 96.0768 63.4906 95 60.78 95ZM68 111H52V105.22C52.0027 103.306 52.7642 101.471 54.1177 100.118C55.4711 98.7642 57.306 98.0027 59.22 98H60.78C61.7303 98.0013 62.6711 98.19 63.5484 98.5552C64.4257 98.9203 65.2225 99.4549 65.893 100.128C66.5636 100.802 67.0949 101.601 67.4564 102.479C67.8179 103.358 68.0027 104.3 68 105.25V111Z" fill="#365066"/>
<path d="M89.1299 92C90.811 92 92.4544 91.5015 93.8522 90.5675C95.2501 89.6335 96.3395 88.306 96.9829 86.7528C97.6262 85.1996 97.7945 83.4906 97.4666 81.8417C97.1386 80.1929 96.329 78.6783 95.1403 77.4896C93.9516 76.3008 92.437 75.4913 90.7882 75.1633C89.1393 74.8353 87.4303 75.0037 85.8771 75.647C84.3239 76.2904 82.9964 77.3798 82.0624 78.7776C81.1284 80.1755 80.6299 81.8188 80.6299 83.5C80.6286 84.6166 80.8475 85.7225 81.2742 86.7544C81.7009 87.7862 82.327 88.7238 83.1166 89.5133C83.9061 90.3029 84.8437 90.929 85.8755 91.3556C86.9074 91.7823 88.0133 92.0013 89.1299 92V92ZM89.1299 78C90.2177 78 91.2811 78.3226 92.1855 78.9269C93.09 79.5313 93.7949 80.3902 94.2112 81.3952C94.6275 82.4002 94.7364 83.5061 94.5242 84.573C94.312 85.6399 93.7882 86.6199 93.019 87.3891C92.2498 88.1583 91.2698 88.6821 90.2029 88.8943C89.136 89.1065 88.0301 88.9976 87.0251 88.5813C86.0201 88.165 85.1612 87.4601 84.5568 86.5556C83.9525 85.6512 83.6299 84.5878 83.6299 83.5C83.6299 82.0413 84.2094 80.6424 85.2408 79.6109C86.2723 78.5795 87.6712 78 89.1299 78Z" fill="#365066"/>
<path d="M89.9199 95H88.3499C85.6402 95.0026 83.0422 96.0802 81.1262 97.9963C79.2101 99.9123 78.1325 102.51 78.1299 105.22V114H100.13V105.22C100.13 102.511 99.0545 99.9132 97.1401 97.9969C95.2256 96.0806 92.6287 95.0027 89.9199 95V95ZM97.1299 111H81.1299V105.22C81.1325 103.306 81.8941 101.471 83.2475 100.118C84.6009 98.7642 86.4358 98.0026 88.3499 98H89.9199C91.833 98.0026 93.6669 98.7645 95.0187 100.118C96.3706 101.472 97.1299 103.307 97.1299 105.22V111Z" fill="#365066"/>
<path d="M61.5 57H58.5V69H61.5V57Z" fill="#365066"/>
<path d="M47.4514 55.7409L45.3301 53.6196L32.6022 66.3476L34.7235 68.4689L47.4514 55.7409Z" fill="#365066"/>
<path d="M74.7112 53.6287L72.5898 55.75L85.3178 68.4779L87.4391 66.3566L74.7112 53.6287Z" fill="#365066"/>
<path d="M71.7004 27.94C71.4884 24.9817 70.1637 22.2136 67.9928 20.1927C65.822 18.1719 62.9662 17.0484 60.0004 17.0484C57.0345 17.0484 54.1788 18.1719 52.0079 20.1927C49.8371 22.2136 48.5124 24.9817 48.3004 27.94C48.3004 28.21 48.3004 28.49 48.3004 28.77C48.3001 29.755 48.4244 30.7362 48.6704 31.69C48.6704 31.86 48.7504 32.02 48.8004 32.18C48.8004 32.18 50.8004 36.61 51.2604 38.18C51.5304 39.07 51.8504 40.5 52.1604 42C52.7704 44.89 53.3204 48 53.3204 48H66.7004C66.7004 48 67.9904 40.71 68.7804 38.08C69.2404 36.54 71.2304 32.14 71.2304 32.14C71.3104 31.87 71.3204 31.82 71.3604 31.65C71.6063 30.6962 71.7307 29.715 71.7304 28.73C71.7304 28.49 71.7204 28.21 71.7004 27.94ZM55.8004 45C55.6304 44.1 55.4204 43.05 55.2104 42H64.7904C64.5804 43.06 64.3704 44.11 64.2004 45H55.8004ZM68.4504 31V31.19C68.0204 32.19 66.4504 35.78 65.9504 37.32C65.8104 37.79 65.6604 38.4 65.5004 39.08H54.5604C54.4004 38.42 54.2504 37.82 54.1104 37.36C53.6404 35.8 52.0204 32.14 51.5904 31.18C51.5904 31.12 51.5904 31.06 51.5404 30.98C51.359 30.2744 51.2683 29.5485 51.2704 28.82C51.2704 28.59 51.2704 28.41 51.2704 28.26V28.19C51.42 25.9846 52.4016 23.9183 54.0167 22.409C55.6319 20.8998 57.7599 20.0603 59.9704 20.0603C62.1809 20.0603 64.3089 20.8998 65.924 22.409C67.5391 23.9183 68.5207 25.9846 68.6704 28.19V28.26C68.6704 28.42 68.6704 28.6 68.6704 28.82C68.6924 29.5532 68.6185 30.286 68.4504 31ZM61.4504 34.58V39H58.4504V34.5C58.4504 34.1022 58.6084 33.7206 58.8897 33.4393C59.171 33.158 59.5526 33 59.9504 33C60.3482 33 60.7297 33.158 61.011 33.4393C61.2923 33.7206 61.4504 34.1022 61.4504 34.5V34.58ZM60.0004 6C60.3982 6 60.7797 6.15804 61.061 6.43934C61.3423 6.72064 61.5004 7.10218 61.5004 7.5V10.5C61.5004 10.8978 61.3423 11.2794 61.061 11.5607C60.7797 11.842 60.3982 12 60.0004 12C59.6026 12 59.221 11.842 58.9397 11.5607C58.6584 11.2794 58.5004 10.8978 58.5004 10.5V7.5C58.5004 7.10218 58.6584 6.72064 58.9397 6.43934C59.221 6.15804 59.6026 6 60.0004 6V6ZM49.6304 8.3C49.894 8.29881 50.1533 8.36761 50.3817 8.49937C50.6101 8.63113 50.7994 8.82114 50.9304 9.05L52.9304 12.51C53.0303 12.6803 53.0954 12.8689 53.1218 13.0646C53.1483 13.2603 53.1355 13.4593 53.0843 13.6501C53.0332 13.8408 52.9446 14.0195 52.8237 14.1757C52.7029 14.3319 52.5522 14.4626 52.3804 14.56C52.1567 14.6932 51.9007 14.7624 51.6404 14.76C51.3767 14.7612 51.1174 14.6924 50.8891 14.5606C50.6607 14.4289 50.4713 14.2389 50.3404 14.01L48.3404 10.55C48.1404 10.2065 48.085 9.79764 48.1862 9.41327C48.2875 9.02889 48.5371 8.70042 48.8804 8.5C49.1081 8.3678 49.367 8.29875 49.6304 8.3V8.3ZM70.6404 8.3C70.3767 8.29881 70.1174 8.36761 69.889 8.49937C69.6607 8.63113 69.4713 8.82114 69.3404 9.05L67.3404 12.51C67.1404 12.8535 67.0849 13.2624 67.1862 13.6467C67.2874 14.0311 67.5371 14.3596 67.8804 14.56C68.0517 14.6582 68.2407 14.7216 68.4365 14.7466C68.6323 14.7716 68.8312 14.7577 69.0216 14.7056C69.2121 14.6536 69.3904 14.5645 69.5464 14.4434C69.7023 14.3223 69.8328 14.1716 69.9304 14L71.9304 10.54C72.0303 10.3697 72.0954 10.1811 72.1218 9.98542C72.1483 9.78969 72.1355 9.59067 72.0843 9.39991C72.0332 9.20916 71.9446 9.03048 71.8237 8.87428C71.7029 8.71807 71.5522 8.58744 71.3804 8.49C71.1567 8.35676 70.9007 8.28757 70.6404 8.29V8.3Z" fill="#365066"/>
</g>
<defs>
<clipPath id="clip0_270_22632">
<rect width="120" height="120" fill="white"/>
</clipPath>
</defs>
</svg>
