<svg xmlns="http://www.w3.org/2000/svg" viewBox="0 0 160 160"><defs><style>.cls-1{opacity:0.5;}.cls-2,.cls-3,.cls-9{fill:none;}.cls-2,.cls-3{stroke:#cd16f9;stroke-width:0.13px;}.cls-3{stroke-linecap:square;}.cls-4{fill:#f0f6fc;}.cls-10,.cls-5{fill:#fff;}.cls-6{fill:#365066;}.cls-7{fill:#50a7ef;}.cls-8{fill:#65dde0;}.cls-10,.cls-9{stroke:#365066;stroke-miterlimit:10;stroke-width:3px;}</style></defs><g id="grid"><g id="Keylines" class="cls-1"><path id="NESW" class="cls-2" d="M8,152,152,8.08Z"/><path id="NWSE" class="cls-2" d="M8,8.08,152,152"/><path id="Southern-Tropic" class="cls-3" d="M8,104H152"/><path id="Northern-Tropic" class="cls-3" d="M8.05,56H152"/><path id="Equator" class="cls-3" d="M8,80H152"/><path id="Western-Tropic" class="cls-2" d="M104,152V8.05"/><path id="Eastern-Tropic" class="cls-2" d="M56,152V8"/><path id="Mean" class="cls-2" d="M80,152V8"/><path id="Core" class="cls-2" d="M110,80a30,30,0,1,0-30,30,30,30,0,0,0,30-30Z"/><path id="Circle" class="cls-2" d="M80,145a65,65,0,1,1,65-65,65,65,0,0,1-65,65"/><path id="Square" class="cls-2" d="M130.53,140H29.47A9.5,9.5,0,0,1,20,130.53V29.47A9.5,9.5,0,0,1,29.47,20H130.53A9.5,9.5,0,0,1,140,29.47V130.53a9.5,9.5,0,0,1-9.47,9.47"/><path id="Vertical-Rectangle" class="cls-2" d="M119,145H41a9,9,0,0,1-9-8.86V23.86A9,9,0,0,1,41,15h78a9,9,0,0,1,9,8.86V136.14a9,9,0,0,1-9,8.86"/><path id="Horizontal-Rectangle" class="cls-2" d="M136.14,128H23.86A9,9,0,0,1,15,119V41a9,9,0,0,1,8.86-9H136.14A9,9,0,0,1,145,41v78a9,9,0,0,1-8.86,9"/></g></g><g id="circle-2" data-name="circle"><path class="cls-4" d="M79,150A70,70,0,1,0,9,80,70,70,0,0,0,79,150Z"/></g><g id="linguagg_privacy"><path class="cls-5" d="M42.66,131.4c-5,0-9.16-4.65-9.16-10.35V31.85c0-5.71,4.11-10.35,9.16-10.35h42.1c5.06,0,9.17,4.64,9.17,10.35v89.2c0,5.7-4.11,10.35-9.17,10.35Z"/><path class="cls-6" d="M84.76,23c4.23,0,7.67,4,7.67,8.85v89.2c0,4.88-3.44,8.85-7.67,8.85H42.66c-4.22,0-7.66-4-7.66-8.85V31.85C35,27,38.44,23,42.66,23h42.1m0-3H42.66C36.77,20,32,25.31,32,31.85v89.2c0,6.54,4.77,11.85,10.66,11.85h42.1c5.89,0,10.67-5.31,10.67-11.85V31.85C95.43,25.31,90.65,20,84.76,20Z"/><ellipse class="cls-6" cx="63.71" cy="123.83" rx="3.14" ry="3.25"/><path class="cls-6" d="M92.69,117.51H34.31a1.51,1.51,0,0,1,0-3H92.69a1.51,1.51,0,0,1,0,3Z"/><rect class="cls-7" x="43" y="38" width="38.43" height="6"/><rect class="cls-8" x="43" y="57.83" width="38.43" height="12"/><rect class="cls-7" x="43" y="47.96" width="24.45" height="6"/><path class="cls-9" d="M88.05,84A14.75,14.75,0,0,0,64.64,98.45"/><path class="cls-10" d="M85.2,115.61H96.82a0,0,0,0,1,0,0v24.85A5.81,5.81,0,0,1,91,146.26h0a5.81,5.81,0,0,1-5.81-5.81V115.61A0,0,0,0,1,85.2,115.61Z" transform="translate(249.35 112.04) rotate(118)"/><path class="cls-5" d="M110.92,99l0,0-.07-.08A.12.12,0,0,1,110.92,99Z"/><path class="cls-6" d="M102.71,103.42h0l.08.06A.46.46,0,0,1,102.71,103.42Zm0,0h0l.08.06A.46.46,0,0,1,102.71,103.42Zm0,0h0l.08.06A.46.46,0,0,1,102.71,103.42Zm0,0h0l.08.06A.46.46,0,0,1,102.71,103.42Zm0,0h0l.08.06A.46.46,0,0,1,102.71,103.42Zm0,0h0l.08.06A.46.46,0,0,1,102.71,103.42Zm0,0h0l.08.06A.46.46,0,0,1,102.71,103.42Zm0,0h0l.08.06A.46.46,0,0,1,102.71,103.42Zm0,0h0l.08.06A.46.46,0,0,1,102.71,103.42Zm0,0h0l.08.06A.46.46,0,0,1,102.71,103.42Zm0,0h0l.08.06A.46.46,0,0,1,102.71,103.42ZM110.87,99l.07.08,0,0A.12.12,0,0,0,110.87,99Zm-8.16,4.47h0l.08.06A.46.46,0,0,1,102.71,103.42Zm0,0h0l.08.06A.46.46,0,0,1,102.71,103.42Zm0,0h0l.08.06A.46.46,0,0,1,102.71,103.42Zm0,0h0l.08.06A.46.46,0,0,1,102.71,103.42Zm0,0h0l.08.06A.46.46,0,0,1,102.71,103.42Zm0,0h0l.08.06A.46.46,0,0,1,102.71,103.42Zm0,0h0l.08.06A.46.46,0,0,1,102.71,103.42Z"/><path class="cls-6" d="M110.87,99l.07.08,0,0A.12.12,0,0,0,110.87,99Zm0,0,.07.08,0,0A.12.12,0,0,0,110.87,99Zm0,0,.07.08,0,0A.12.12,0,0,0,110.87,99Zm0,0,.07.08,0,0A.12.12,0,0,0,110.87,99Zm0,0,.07.08,0,0A.12.12,0,0,0,110.87,99Zm0,0,.07.08,0,0A.12.12,0,0,0,110.87,99Zm0,0,.07.08,0,0A.12.12,0,0,0,110.87,99Zm0,0,.07.08,0,0A.12.12,0,0,0,110.87,99Zm0,0,.07.08,0,0A.12.12,0,0,0,110.87,99Z"/><path class="cls-10" d="M101.14,120.79,84.69,92.3A5.58,5.58,0,0,0,77,90.17a5.9,5.9,0,0,0-2.16,8l16.36,28.32,8.22,14.25a8,8,0,0,0,10.89,2.89l27.72-16L118.39,93.66A4.66,4.66,0,0,0,112,91.94l-.1,0a4.66,4.66,0,0,0-1.69,6.38l7.4,12.82-7.55-13.07a4.56,4.56,0,0,0-6.28-1.44h0a4.57,4.57,0,0,0-2,6,.87.87,0,0,0,.1.19l7.54,13.06L102,103.05c0-.06-.07-.13-.1-.2a4.83,4.83,0,0,0-6.39-1.48l0,0a4.79,4.79,0,0,0-1.84,6.45Z"/><circle class="cls-6" cx="79.71" cy="95.18" r="2.37"/></g></svg>