<svg xmlns="http://www.w3.org/2000/svg" viewBox="0 0 160 160"><defs><style>.cls-1{fill:#f0f6fc;}.cls-2{fill:#fff;}.cls-3{fill:#365066;}.cls-4{fill:#80b9f2;}.cls-5{fill:#65dde0;}.cls-6{fill:#2079d4;}.cls-7{fill:none;}</style></defs><g id="pianifica_SEO" data-name="pianifica SEO"><path class="cls-1" d="M79,150A70,70,0,1,0,9,80,70,70,0,0,0,79,150Z"/><rect class="cls-2" x="33.5" y="24.5" width="93" height="120" rx="4.45"/><path class="cls-3" d="M122.05,26A3,3,0,0,1,125,29v111.1a3,3,0,0,1-3,2.95H38a3,3,0,0,1-3-2.95V29A3,3,0,0,1,38,26h84.1m0-3H38A6,6,0,0,0,32,29v111.1A6,6,0,0,0,38,146h84.1a6,6,0,0,0,6-5.95V29a6,6,0,0,0-6-5.95Z"/><path class="cls-3" d="M101,16H90V12a3,3,0,0,0-3-3H72a3,3,0,0,0-3,3v4H59a3,3,0,0,0-3,3V33h48V19A3,3,0,0,0,101,16Z"/><rect class="cls-2" x="45.5" y="87.5" width="17" height="17"/><path class="cls-3" d="M61,89v14H47V89H61m3-3H44v20H64V86Z"/><rect class="cls-2" x="45.5" y="115.5" width="17" height="17"/><path class="cls-3" d="M61,117v14H47V117H61m3-3H44v20H64V114Z"/><polygon class="cls-4" points="65.7 63.53 57.21 55.04 52.97 50.8 48.73 55.04 48.73 55.04 40.24 63.53 44.48 67.77 49.97 62.28 49.97 74.53 55.97 74.53 55.97 62.28 61.45 67.77 65.7 63.53"/><polygon class="cls-5" points="92.46 59.04 83.97 50.56 79.73 46.31 67 59.04 71.24 63.28 76.73 57.8 76.73 74.53 82.73 74.53 82.73 57.8 88.21 63.28 92.46 59.04"/><polygon class="cls-6" points="119.7 56.53 111.21 48.04 106.97 43.8 102.73 48.04 102.73 48.04 94.24 56.53 98.48 60.77 103.97 55.28 103.97 74.53 109.97 74.53 109.97 55.28 115.45 60.77 119.7 56.53"/><rect class="cls-4" x="70" y="121" width="46" height="6"/><rect class="cls-4" x="70" y="93" width="46" height="6"/><rect class="cls-7" width="160" height="160"/></g></svg>