<svg xmlns="http://www.w3.org/2000/svg" viewBox="0 0 160 160"><defs><style>.cls-1{fill:none;}.cls-2{fill:#f0f6fc;}.cls-3{fill:#50a7ef;}.cls-4{fill:#2079d4;}.cls-5{fill:#fff;}.cls-6{fill:#365066;}.cls-7{fill:#65dde0;}</style></defs><g id="fai_SEO" data-name="fai SEO"><rect class="cls-1" width="160" height="160"/><path class="cls-2" d="M79,150A70,70,0,1,0,9,80,70,70,0,0,0,79,150Z"/><polyline class="cls-3" points="20 31 20 140 104 140 104 20 31 20"/><polygon class="cls-4" points="31 20 31 31 20 31 31 20"/><rect class="cls-4" x="31" y="48" width="37" height="6"/><path class="cls-5" d="M31,62v6H57.92a35.51,35.51,0,0,1,3.36-6Z"/><path class="cls-5" d="M31,71v3H55.93c.24-1,.52-2,.85-3Z"/><path class="cls-5" d="M31,92v3H57.5c-.39-1-.74-2-1-3Z"/><path class="cls-5" d="M55,83H31v6H55.71a34.35,34.35,0,0,1-.65-5C55,83.67,55,83.33,55,83Z"/><path class="cls-5" d="M31,113v3H81.69a34.49,34.49,0,0,1-7.94-3Z"/><path class="cls-5" d="M62.78,104H31v6H69A35.33,35.33,0,0,1,62.78,104Z"/><path class="cls-5" d="M82,113a32.2,32.2,0,0,0,6,.93"/><path class="cls-5" d="M66.71,104A31.73,31.73,0,0,0,74,109.75"/><path class="cls-5" d="M138.32,125.93l-22.55-22.55A33.49,33.49,0,1,0,56.5,82q0,1,.06,1.92a33.78,33.78,0,0,0,.82,5.74A33.49,33.49,0,0,0,110,108.89l22.7,22.7a4,4,0,0,0,5.66,0A4,4,0,0,0,138.32,125.93Z"/><path class="cls-1" d="M115.86,105.6a36.84,36.84,0,0,1-3.63,3.44l21.49,21.49a2.5,2.5,0,1,0,3.54-3.53Z"/><path class="cls-1" d="M61.23,68A31.76,31.76,0,0,0,58,82c0,.61,0,1.22,0,1.82a32.55,32.55,0,0,0,.79,5.5,32,32,0,0,0,48.79,19.37c.85-.56,1.67-1.16,2.45-1.79a33.87,33.87,0,0,0,3.64-3.44c.67-.74,1.31-1.51,1.92-2.32,0,0,0,0,0,0A32,32,0,1,0,63,64.86"/><path class="cls-1" d="M115.86,105.6a36.84,36.84,0,0,1-3.63,3.44l21.49,21.49a2.5,2.5,0,1,0,3.54-3.53Z"/><path class="cls-6" d="M139.38,124.87l-21.6-21.59A35,35,0,1,0,61.28,62a35.51,35.51,0,0,0-3.36,6c-.43,1-.8,2-1.14,3s-.61,2-.85,3A35.17,35.17,0,0,0,55,82c0,.33,0,.67,0,1l.68,6c.07.33.55,2.34.75,3,.3,1,.65,2,1,3a35,35,0,0,0,16.25,18,34.49,34.49,0,0,0,7.94,3,35,35,0,0,0,28.11-5.14l21.8,21.79a5.5,5.5,0,0,0,7.78-7.78Zm-29.3-18c-.78.63-1.6,1.23-2.45,1.79A31.81,31.81,0,0,1,90,114c-.67,0-1.34,0-2-.07a32.2,32.2,0,0,1-6-.93A31.84,31.84,0,0,1,60,93.18L59.59,92c-.29-.88-.54-1.77-.75-2.68a32.55,32.55,0,0,1-.79-5.5c0-.6,0-1.21,0-1.82a32.09,32.09,0,0,1,3.23-14A33.29,33.29,0,0,1,63,64.86a32,32,0,1,1,52.64,36.27h0c-.61.81-1.25,1.58-1.92,2.32A33.87,33.87,0,0,1,110.08,106.9Zm27.18,23.63a2.51,2.51,0,0,1-3.54,0L112.23,109a36.84,36.84,0,0,0,3.63-3.44l21.4,21.4a2.5,2.5,0,0,1,0,3.53Z"/><path class="cls-6" d="M55,83c0,.33,0,.67,0,1a34.35,34.35,0,0,0,.65,5"/><rect class="cls-7" x="68" y="68" width="34" height="8"/><rect class="cls-4" x="68" y="90" width="42" height="8"/><rect class="cls-4" x="68" y="79" width="30.47" height="8"/></g></svg>