<svg xmlns="http://www.w3.org/2000/svg" viewBox="0 0 176 176"><defs><style>.cls-1{opacity:0.5;}.cls-2,.cls-3,.cls-4{fill:none;}.cls-2,.cls-3{stroke:#cd16f9;stroke-width:0.13px;}.cls-3{stroke-linecap:square;}.cls-5{fill:#365066;}.cls-6{fill:#65dde0;}.cls-7{fill:#2079d4;}.cls-8{fill:#50a7ef;}</style></defs><g id="grid"><g id="Keylines" class="cls-1"><path id="NESW" class="cls-2" d="M8.22,167l160-160Z"/><path id="NWSE" class="cls-2" d="M8.22,7l160,160"/><path id="Southern-Tropic" class="cls-3" d="M8.22,115h160"/><path id="Northern-Tropic" class="cls-3" d="M8.22,62h160"/><path id="Equator" class="cls-3" d="M8.22,88h160"/><path id="Western-Tropic" class="cls-2" d="M114.22,167V7"/><path id="Eastern-Tropic" class="cls-2" d="M61.34,167V6.94"/><path id="Mean" class="cls-2" d="M88,167V6.94"/><path id="Core" class="cls-2" d="M121,88a33,33,0,1,0-33,33,33,33,0,0,0,33-33Z"/><path id="Circle" class="cls-2" d="M88,161a73,73,0,1,1,73-73,73,73,0,0,1-73,73"/><path id="Square" class="cls-2" d="M144,154.5H32A10.52,10.52,0,0,1,21.5,144V32A10.53,10.53,0,0,1,32,21.5H144A10.53,10.53,0,0,1,154.5,32V144A10.52,10.52,0,0,1,144,154.5"/><path id="Vertical-Rectangle" class="cls-2" d="M131.06,161H44.94A10,10,0,0,1,35,151.05V25A10,10,0,0,1,44.94,15h86.12A10,10,0,0,1,141,25v126.1a10,10,0,0,1-9.94,9.95"/><path id="Horizontal-Rectangle" class="cls-2" d="M151.05,141H25A10,10,0,0,1,15,131.06V44.94A10,10,0,0,1,25,35h126.1A10,10,0,0,1,161,44.94v86.12a10,10,0,0,1-9.95,9.94"/></g></g><g id="kit_analitics"><rect class="cls-4" width="176" height="176"/><circle class="cls-5" cx="33" cy="45" r="3"/><circle class="cls-5" cx="42" cy="45" r="3"/><circle class="cls-5" cx="51" cy="45" r="3"/><path class="cls-5" d="M157.1,35H24.9A3.91,3.91,0,0,0,21,38.9v86.2a3.91,3.91,0,0,0,3.9,3.9H157.1a3.91,3.91,0,0,0,3.9-3.9V38.9A3.91,3.91,0,0,0,157.1,35Zm.9,90.1a.9.9,0,0,1-.9.9H24.9a.9.9,0,0,1-.9-.9V54H158ZM158,51H24V38.9a.9.9,0,0,1,.9-.9H157.1a.9.9,0,0,1,.9.9Z"/><rect class="cls-6" x="47" y="83" width="26" height="6"/><rect class="cls-7" x="47" y="91" width="44" height="6"/><rect class="cls-6" x="47" y="102" width="30" height="6"/><rect class="cls-7" x="47" y="110" width="44" height="6"/><path class="cls-8" d="M123,69a3,3,0,0,1,0,6H53a3,3,0,0,1,0-6h70m0-3H53a6,6,0,0,0,0,12h70a6,6,0,0,0,0-12Z"/><polygon class="cls-7" points="150 109.21 137.27 96.48 128.79 88 120.3 96.48 107.57 109.21 116.06 117.7 122.79 110.97 122.79 141 134.79 141 134.79 110.97 141.51 117.7 150 109.21"/></g></svg>