<svg xmlns="http://www.w3.org/2000/svg" viewBox="0 0 160 160"><defs><style>.cls-1{fill:#f0f6fc;}.cls-2{fill:#fff;}.cls-3{fill:#365066;}.cls-4{fill:#50a7ef;}.cls-5{fill:#65dde0;}.cls-6{fill:#2079d4;}.cls-7{fill:#80b9f2;}.cls-8{fill:none;}</style></defs><g id="privacy_social"><path class="cls-1" d="M79,150A70,70,0,1,0,9,80,70,70,0,0,0,79,150Z"/><path class="cls-2" d="M58.59,138.5c-5.05,0-9.16-4.64-9.16-10.35V39c0-5.7,4.11-10.35,9.16-10.35H100.7c5,0,9.16,4.65,9.16,10.35v89.2c0,5.71-4.11,10.35-9.16,10.35Z"/><ellipse class="cls-3" cx="79.64" cy="130.93" rx="3.14" ry="3.25"/><path class="cls-3" d="M100.7,27.1H58.59C52.7,27.1,47.93,32.41,47.93,39v89.2c0,6.54,4.77,11.85,10.66,11.85H100.7c5.88,0,10.66-5.31,10.66-11.85V39C111.36,32.41,106.58,27.1,100.7,27.1ZM50.93,39c0-4.88,3.44-8.85,7.66-8.85H100.7c4.22,0,7.66,4,7.66,8.85v83.27a1.17,1.17,0,0,0-.67-.22H50.93V39ZM100.7,137H58.59c-4.22,0-7.66-4-7.66-8.85V125h56.76a1.17,1.17,0,0,0,.67-.22v3.37C108.36,133,104.92,137,100.7,137Z"/><path class="cls-4" d="M63.14,48.87h-40A3.13,3.13,0,0,0,20,52V68.08a3.13,3.13,0,0,0,3.13,3.13H60.91L66.26,77V52A3.13,3.13,0,0,0,63.14,48.87Z"/><path class="cls-5" d="M137.41,74H104.24a2.59,2.59,0,0,0-2.59,2.59V90.61a2.59,2.59,0,0,0,2.59,2.59h31.33L140,98V76.54A2.59,2.59,0,0,0,137.41,74Z"/><path class="cls-6" d="M124,38H89.32a4,4,0,0,0-4,4V71.71l6.41-6.94H124a4,4,0,0,0,4-4V42A4,4,0,0,0,124,38Z"/><path class="cls-7" d="M90,95.63H87.19v-4.8a7.55,7.55,0,0,0-15.09,0V94.9H69.33V90.83a10.32,10.32,0,0,1,20.62,0Z"/><rect class="cls-6" x="66.64" y="94.46" width="26" height="17.92" rx="0.45"/><circle class="cls-2" cx="79.7" cy="101.05" r="2.37"/><circle class="cls-2" cx="79.7" cy="104.37" r="2.37"/><rect class="cls-8" width="160" height="160"/></g></svg>