<svg xmlns="http://www.w3.org/2000/svg" viewBox="0 0 160 160"><defs><style>.cls-1{fill:none;}.cls-2{fill:#f0f6fc;}.cls-3{fill:#fff;}.cls-4{fill:#365066;}.cls-5{fill:#80b9f2;}.cls-6{fill:#2079d4;}.cls-7{fill:#65dde0;}</style></defs><g id="interfacciaUtente"><rect class="cls-1" width="160" height="160"/><path class="cls-2" d="M79,150A70,70,0,1,0,9,80,70,70,0,0,0,79,150Z"/><rect class="cls-3" x="16.55" y="33.5" width="127" height="81" rx="1.67"/><circle class="cls-4" cx="23" cy="41" r="2"/><circle class="cls-4" cx="30" cy="41" r="2"/><circle class="cls-4" cx="37" cy="41" r="2"/><path class="cls-4" d="M141.88,32H18.23a3.17,3.17,0,0,0-3.18,3.17v77.66A3.17,3.17,0,0,0,18.23,116H141.88a3.17,3.17,0,0,0,3.17-3.17V35.17A3.17,3.17,0,0,0,141.88,32ZM18.23,35H141.88a.18.18,0,0,1,.17.17V47h-124V35.17A.18.18,0,0,1,18.23,35Zm123.65,78H18.23a.18.18,0,0,1-.18-.17V50h124v62.83A.18.18,0,0,1,141.88,113Z"/><rect class="cls-5" x="44" y="88" width="12" height="12"/><rect class="cls-6" x="26" y="88" width="12" height="12"/><rect class="cls-7" x="62" y="88" width="12" height="12"/><path class="cls-6" d="M129,57V88H88V57Zm-9.78,8.11L104.16,80.3l-9-9.06L88,77.75V82l7.17-6.52,9,9.07,15.06-15.2L129,79.22V75Zm-8.5,1.36a3.89,3.89,0,1,0-3.89,3.89A3.89,3.89,0,0,0,110.72,66.47Z"/><polygon class="cls-3" points="91.27 119.15 90.63 118.71 90.22 93.38 111.96 106.4 112.01 107.11 113.53 119.72 101.39 126.73 91.27 119.15"/><path class="cls-4" d="M91.76,96.05l18.57,11.12.19.12v.06l1.39,11.57-10.43,6-9.32-7,0,0v-.24l-.36-21.63m-2.05-4.57a1,1,0,0,0-1,1l.41,25.25,0,1.78,1.23.84,10.91,8.18,13.85-8L113.51,107l-.12-1.48-1.52-.91-21.67-13a.87.87,0,0,0-.49-.14Z"/><path class="cls-4" d="M100.78,113.16a1.49,1.49,0,0,1-1.3-.75L89.16,94.54a1.5,1.5,0,1,1,2.6-1.5l10.31,17.87a1.5,1.5,0,0,1-.54,2A1.59,1.59,0,0,1,100.78,113.16Z"/><polygon class="cls-3" points="103.69 130.02 115.22 123.36 118.8 128.23 106.11 135.55 103.69 130.02"/><path class="cls-4" d="M114.81,125.33l1.79,2.43-9.79,5.65-1.21-2.76,9.21-5.32m.82-3.94-13.85,8,3.63,8.3,15.59-9-5.37-7.3Z"/><rect class="cls-5" x="26" y="65" width="30" height="3"/><rect class="cls-5" x="26" y="71" width="30" height="3"/></g></svg>