<svg xmlns="http://www.w3.org/2000/svg" viewBox="0 0 176 176"><defs><style>.cls-1{fill:#65dde0;}.cls-2{fill:#2079d4;}.cls-3{fill:#365066;}.cls-4{fill:#fff;}.cls-5{fill:#50a7ef;}.cls-6{fill:#f0f6fc;}.cls-7{fill:none;}</style></defs><g id="kit_prototipazione-2" data-name="kit_prototipazione"><rect class="cls-1" x="65" y="57" width="39" height="12"/><rect class="cls-2" x="65" y="48" width="25" height="6"/><path class="cls-3" d="M105.75,35H65.25C59.59,35,55,40,55,46.13v84.05C55,136.33,59.34,141,65,141H94.86a7.35,7.35,0,0,1-1.24-2.39,4.52,4.52,0,0,1-.15-.61H65c-4,0-7-3.34-7-7.82V125h42.79l-1.73-3H58V46.13C58,41.65,61.25,38,65.25,38H106c4,0,7,3.52,7,8v64a6.38,6.38,0,0,1,3-.71V46C116,39.85,111.41,35,105.75,35Z"/><circle class="cls-3" cx="86" cy="131" r="3"/><path class="cls-4" d="M128.92,109l0,0-.07-.08A.12.12,0,0,1,128.92,109Z"/><path class="cls-3" d="M120.71,113.43h0l.08.06A.46.46,0,0,1,120.71,113.43Zm0,0h0l.08.06A.46.46,0,0,1,120.71,113.43Zm0,0h0l.08.06A.46.46,0,0,1,120.71,113.43Zm0,0h0l.08.06A.46.46,0,0,1,120.71,113.43Zm0,0h0l.08.06A.46.46,0,0,1,120.71,113.43Zm0,0h0l.08.06A.46.46,0,0,1,120.71,113.43Zm0,0h0l.08.06A.46.46,0,0,1,120.71,113.43Zm0,0h0l.08.06A.46.46,0,0,1,120.71,113.43Zm0,0h0l.08.06A.46.46,0,0,1,120.71,113.43Zm0,0h0l.08.06A.46.46,0,0,1,120.71,113.43Zm0,0h0l.08.06A.46.46,0,0,1,120.71,113.43Zm8.16-4.47.07.08,0,0A.12.12,0,0,0,128.87,109Zm-8.16,4.47h0l.08.06A.46.46,0,0,1,120.71,113.43Zm0,0h0l.08.06A.46.46,0,0,1,120.71,113.43Zm0,0h0l.08.06A.46.46,0,0,1,120.71,113.43Zm0,0h0l.08.06A.46.46,0,0,1,120.71,113.43Zm0,0h0l.08.06A.46.46,0,0,1,120.71,113.43Zm0,0h0l.08.06A.46.46,0,0,1,120.71,113.43Zm0,0h0l.08.06A.46.46,0,0,1,120.71,113.43Z"/><path class="cls-3" d="M128.87,109l.07.08,0,0A.12.12,0,0,0,128.87,109Zm0,0,.07.08,0,0A.12.12,0,0,0,128.87,109Zm0,0,.07.08,0,0A.12.12,0,0,0,128.87,109Zm0,0,.07.08,0,0A.12.12,0,0,0,128.87,109Zm0,0,.07.08,0,0A.12.12,0,0,0,128.87,109Zm0,0,.07.08,0,0A.12.12,0,0,0,128.87,109Zm0,0,.07.08,0,0A.12.12,0,0,0,128.87,109Zm0,0,.07.08,0,0A.12.12,0,0,0,128.87,109Zm0,0,.07.08,0,0A.12.12,0,0,0,128.87,109Z"/><path class="cls-3" d="M81.21,109A16.24,16.24,0,0,1,107,93.07l-1.81,2.39a13.25,13.25,0,0,0-21,13Z"/><path class="cls-3" d="M118.62,154.33l-21.44-11.4a7.22,7.22,0,0,1-3.56-4.32,4.52,4.52,0,0,1-.15-.61,7.2,7.2,0,0,1,.69-5,7.31,7.31,0,0,1,9.4-3.25l2.81,4.87-3.74-2a4.23,4.23,0,0,0-2-.51,4.6,4.6,0,0,0-1.27.19,4.3,4.3,0,0,0-2.86,5.38c0,.09.06.18.1.27a4.26,4.26,0,0,0,2,2.28l1.35.72,14.56,7.74,1.59,2.75A9.21,9.21,0,0,0,118.62,154.33Z"/><path class="cls-3" d="M137.69,102.92a6.18,6.18,0,0,0-8.43-2.27l-.09,0a6.16,6.16,0,0,0-2.95,4.13,5,5,0,0,0-.55-.16,6.45,6.45,0,0,0-7.69,4.91,6.63,6.63,0,0,0-2-.33,6.38,6.38,0,0,0-3,.71l-.28.15a6.27,6.27,0,0,0-2.39,2.46l-6.35-11a7.3,7.3,0,0,0-4.32-3.4,7,7,0,0,0-5.45.73,7.35,7.35,0,0,0-2.71,10L99.06,122l1.73,3,2.77,4.79,2.81,4.87,1.76,3.05,1.53,2.64,4.84,8.39,1.59,2.75a9.21,9.21,0,0,0,2.53,2.84,9.53,9.53,0,0,0,5.67,1.87,9.52,9.52,0,0,0,4.74-1.27l29-16.76Zm-10.16,49.41a6.46,6.46,0,0,1-4.92.65,5.25,5.25,0,0,1-.79-.27,6,6,0,0,1-2.46-1.78c-.26-.29-10.82-18.52-10.82-18.52l-6-10.41-8.42-14.58a4.41,4.41,0,0,1,1.61-5.94,4.16,4.16,0,0,1,2.09-.57,4.23,4.23,0,0,1,1.06.14,4.28,4.28,0,0,1,2.52,2l8.71,15.1c.08.15.15.3.24.45l2,3.39,3.7,6.39,1.83,3.16h0l2.6-1.5L116,122.36l-3-5.17-.23-.4a3.19,3.19,0,0,1,.23-2.85,3.49,3.49,0,0,1,1.27-1.26,3.19,3.19,0,0,1,1.72-.43,3.26,3.26,0,0,1,2.61,1.34l.12.22,7.43,12.85,2.6-1.5-7.48-13-.12-.24a3.06,3.06,0,0,1,1.39-4,3.37,3.37,0,0,1,2.45-.39,2.69,2.69,0,0,1,1.78,1.28l.12.21,0,0,7.4,12.82,2.6-1.5-7.42-12.85a3.17,3.17,0,0,1,1.17-4.3l.08,0a3.18,3.18,0,0,1,4.33,1.17L154,137.07Z"/><circle class="cls-3" cx="97.71" cy="105.19" r="2.37"/><polyline class="cls-5" points="16 63 16 123 55 123 55 54 25 54"/><polyline class="cls-2" points="16 63 25 63 25 54"/><rect class="cls-6" x="24" y="73" width="16" height="3"/><rect class="cls-6" x="24" y="79" width="26" height="3"/><rect class="cls-6" x="24" y="96" width="16" height="3"/><rect class="cls-6" x="24.07" y="102" width="25.93" height="3"/><rect class="cls-7" width="176" height="176"/></g></svg>