<svg xmlns="http://www.w3.org/2000/svg" viewBox="0 0 176 176"><defs><style>.cls-1{opacity:0.5;}.cls-2,.cls-3{fill:none;stroke:#cd16f9;stroke-width:0.13px;}.cls-3{stroke-linecap:square;}.cls-4{fill:#365066;}.cls-5{fill:#2079d4;}.cls-6{fill:#80b9f2;}.cls-7{fill:#65dde0;}</style></defs><g id="grid"><g id="Keylines" class="cls-1"><path id="NESW" class="cls-2" d="M8.22,167l160-160Z"/><path id="NWSE" class="cls-2" d="M8.22,7l160,160"/><path id="Southern-Tropic" class="cls-3" d="M8.22,115h160"/><path id="Northern-Tropic" class="cls-3" d="M8.22,62h160"/><path id="Equator" class="cls-3" d="M8.22,88h160"/><path id="Western-Tropic" class="cls-2" d="M114.22,167V7"/><path id="Eastern-Tropic" class="cls-2" d="M61.34,167V6.94"/><path id="Mean" class="cls-2" d="M88,167V6.94"/><path id="Core" class="cls-2" d="M121,88a33,33,0,1,0-33,33,33,33,0,0,0,33-33Z"/><path id="Circle" class="cls-2" d="M88,161a73,73,0,1,1,73-73,73,73,0,0,1-73,73"/><path id="Square" class="cls-2" d="M144,154.5H32A10.52,10.52,0,0,1,21.5,144V32A10.53,10.53,0,0,1,32,21.5H144A10.53,10.53,0,0,1,154.5,32V144A10.52,10.52,0,0,1,144,154.5"/><path id="Vertical-Rectangle" class="cls-2" d="M131.06,161H44.94A10,10,0,0,1,35,151.05V25A10,10,0,0,1,44.94,15h86.12A10,10,0,0,1,141,25v126.1a10,10,0,0,1-9.94,9.95"/><path id="Horizontal-Rectangle" class="cls-2" d="M151.05,141H25A10,10,0,0,1,15,131.06V44.94A10,10,0,0,1,25,35h126.1A10,10,0,0,1,161,44.94v86.12a10,10,0,0,1-9.95,9.94"/></g></g><g id="Kit_webdesign"><path class="cls-4" d="M154.52,38a.49.49,0,0,1,.48.48v87a.49.49,0,0,1-.48.48h-133a.49.49,0,0,1-.48-.48v-87a.49.49,0,0,1,.48-.48h133m0-3h-133A3.48,3.48,0,0,0,18,38.48v87A3.48,3.48,0,0,0,21.48,129h133a3.48,3.48,0,0,0,3.48-3.48v-87A3.48,3.48,0,0,0,154.52,35Z"/><circle class="cls-4" cx="30" cy="44" r="3"/><circle class="cls-4" cx="39" cy="44" r="3"/><circle class="cls-4" cx="48" cy="44" r="3"/><rect class="cls-4" x="21.05" y="50" width="135" height="3"/><path class="cls-5" d="M48.92,72.65,38,76.72l10.88,4.44v5.58L32,79.1V74.58l16.92-7.52Z"/><path class="cls-5" d="M51.39,90.48l12-29.17L68.31,63l-12,29.17Z"/><path class="cls-5" d="M82,76.72,71.08,72.65V67.06L88,74.58V79.1L71.08,86.74V81.16Z"/><rect class="cls-6" x="30" y="99" width="116" height="6"/><rect class="cls-6" x="30" y="111" width="116" height="6"/><rect class="cls-5" x="105.28" y="111" width="40.72" height="6"/><rect class="cls-7" x="126.26" y="111" width="11.11" height="6"/><rect class="cls-5" x="38.64" y="99" width="40.72" height="6"/><rect class="cls-5" x="117.62" y="99" width="14.81" height="6"/><rect class="cls-5" x="83.06" y="111" width="14.81" height="6"/><rect class="cls-5" x="33.7" y="111" width="27.15" height="6"/><rect class="cls-7" x="59.62" y="99" width="11.11" height="6"/></g></svg>