<svg xmlns="http://www.w3.org/2000/svg" viewBox="0 0 160 160"><defs><style>.cls-1{fill:none;}.cls-2{fill:#f0f6fc;}.cls-3{fill:#fff;}.cls-4{fill:#365066;}.cls-5{fill:#50a7ef;}.cls-6{fill:#65dde0;}.cls-7{fill:#80b9f2;}</style></defs><g id="proto_wireframes"><rect class="cls-1" width="160" height="160"/><path class="cls-2" d="M79,150A70,70,0,1,0,9,80,70,70,0,0,0,79,150Z"/><path class="cls-3" d="M66.2,118.36a10.3,10.3,0,0,0-7.93.34l-5.63-11.46,9.61-20a10.44,10.44,0,0,0-4.92-13.94l-10.56,22L36.08,73.53h0a10.45,10.45,0,0,0-4.8,14L41,107.29l-5.47,11.37A10.29,10.29,0,1,0,40.72,132l6.15-12.79,6.32,12.87a10.3,10.3,0,1,0,13-13.76ZM33.75,130.89a3.69,3.69,0,1,1,.49-5.19A3.69,3.69,0,0,1,33.75,130.89Zm31.6-.51a3.7,3.7,0,0,1-5.19.53,3.68,3.68,0,1,1,5.19-.53Z"/><path class="cls-4" d="M28.09,124.06a5.18,5.18,0,0,0-.69,7.3,5.19,5.19,0,0,0,9.16-2.82,5.06,5.06,0,0,0-1.17-3.79A5.2,5.2,0,0,0,28.09,124.06Zm4.7,5.67a2.19,2.19,0,0,1-3.08-.29,2.15,2.15,0,0,1-.5-1.59,2.2,2.2,0,0,1,.79-1.48,2.17,2.17,0,0,1,1.4-.5,2.18,2.18,0,0,1,2.18,2.39A2.14,2.14,0,0,1,32.79,129.73Z"/><path class="cls-4" d="M65.76,124a5.2,5.2,0,0,0-7.3.75,5.18,5.18,0,0,0,.75,7.3,5.22,5.22,0,0,0,3.27,1.15,5.18,5.18,0,0,0,3.28-9.2Zm-1.58,5.4a2.19,2.19,0,0,1-3.88-1.15,2.24,2.24,0,0,1,.48-1.6,2.2,2.2,0,0,1,3.09-.32,2.18,2.18,0,0,1,.79,1.47A2.15,2.15,0,0,1,64.18,129.43Z"/><path class="cls-4" d="M66.72,117A11.72,11.72,0,0,0,59,116.8l-4.7-9.57L63.6,87.9A12,12,0,0,0,58,72l-1.35-.64L46.75,91.86l-10-20.33-1.34.65a11.95,11.95,0,0,0-5.48,16l9.39,19.12-4.55,9.47a11.69,11.69,0,0,0-7.72.22A11.93,11.93,0,0,0,20,131.5a11.85,11.85,0,0,0,11.27,8.31,11.79,11.79,0,0,0,10.84-7.12l4.81-10,4.94,10A11.8,11.8,0,0,0,68,138.5,11.7,11.7,0,0,0,74,131.4,11.93,11.93,0,0,0,66.72,117ZM58,75.42A9,9,0,0,1,60.9,86.6l-8.27,17.21-4.2-8.53Zm-18.64,56a8.79,8.79,0,0,1-12.07,4.41,8.75,8.75,0,0,1-4.45-5.25,8.92,8.92,0,0,1,5.3-10.82,8.77,8.77,0,0,1,6.79.24l1.34.61L41,110.72l4.19,8.53Zm31.74-.91a8.82,8.82,0,0,1-11.3,5.79,8.88,8.88,0,0,1-5.24-4.87l-6-12.22-1.68-3.42-4.19-8.53L41,103.86l-8.35-17a8.93,8.93,0,0,1,2.82-11.21L45.1,95.3l1.68,3.42L51,107.25l1.68,3.42,4.92,10,1.33-.62a8.8,8.8,0,0,1,6.79-.29A8.89,8.89,0,0,1,71.08,130.54Z"/><rect class="cls-4" x="45" y="38" width="3" height="3"/><rect class="cls-4" x="45" y="32" width="3" height="3"/><rect class="cls-4" x="45" y="50" width="3" height="3"/><rect class="cls-4" x="45" y="44" width="3" height="3"/><rect class="cls-4" x="45" y="62" width="3" height="3"/><rect class="cls-4" x="45" y="56" width="3" height="3"/><rect class="cls-4" x="45" y="74" width="3" height="3"/><rect class="cls-4" x="45" y="80" width="3" height="3"/><rect class="cls-4" x="45" y="68" width="3" height="3"/><path class="cls-3" d="M88.42,123.5c-4.92,0-8.92-4.32-8.92-9.63V30.13c0-5.31,4-9.63,8.92-9.63h41.16c4.92,0,8.92,4.32,8.92,9.63v83.74c0,5.31-4,9.63-8.92,9.63Z"/><circle class="cls-4" cx="108.9" cy="116.06" r="3"/><path class="cls-4" d="M140,30.13C140,24,135.33,19,129.58,19H88.42C82.67,19,78,24,78,30.13v83.74C78,120,82.67,125,88.42,125h41.16c5.75,0,10.42-5,10.42-11.13Zm-3,83.74c0,4.48-3.33,8.13-7.42,8.13H88.42c-4.09,0-7.42-3.65-7.42-8.13V110h55.5a1.64,1.64,0,0,0,.5-.09Zm-.5-6.87H81V30.13C81,25.65,84.33,22,88.42,22h41.16c4.09,0,7.42,3.65,7.42,8.13v77A1.64,1.64,0,0,0,136.5,107Z"/><polygon class="cls-5" points="109 79.98 93 79.98 93 72.25 93 64 109 64 109 79.98"/><polygon class="cls-5" points="126.94 74 113 74 113 72.06 113 70 126.94 70 126.94 74"/><path class="cls-6" d="M109,101H93V85h16Z"/><path class="cls-6" d="M128,95H113V91h15Z"/><rect class="cls-7" x="93" y="47" width="33" height="3"/><rect class="cls-7" x="93" y="41" width="19" height="3"/></g></svg>