<svg width="160" height="160" viewBox="0 0 160 160" fill="none" xmlns="http://www.w3.org/2000/svg">
<path d="M80 150C118.66 150 150 118.66 150 80C150 41.3401 118.66 10 80 10C41.3401 10 10 41.3401 10 80C10 118.66 41.3401 150 80 150Z" fill="#F0F6FC"/>
<path d="M142.65 42.5H19.35C18.3283 42.5 17.5 43.3283 17.5 44.35V121.65C17.5 122.672 18.3283 123.5 19.35 123.5H142.65C143.672 123.5 144.5 122.672 144.5 121.65V44.35C144.5 43.3283 143.672 42.5 142.65 42.5Z" fill="white"/>
<path d="M25 53C26.1046 53 27 52.1046 27 51C27 49.8954 26.1046 49 25 49C23.8954 49 23 49.8954 23 51C23 52.1046 23.8954 53 25 53Z" fill="#365066"/>
<path d="M32 53C33.1046 53 34 52.1046 34 51C34 49.8954 33.1046 49 32 49C30.8954 49 30 49.8954 30 51C30 52.1046 30.8954 53 32 53Z" fill="#365066"/>
<path d="M39 53C40.1046 53 41 52.1046 41 51C41 49.8954 40.1046 49 39 49C37.8954 49 37 49.8954 37 51C37 52.1046 37.8954 53 39 53Z" fill="#365066"/>
<path d="M142.65 42H19.35C17.4998 42 16 43.4998 16 45.35V122.65C16 124.5 17.4998 126 19.35 126H142.65C144.5 126 146 124.5 146 122.65V45.35C146 43.4998 144.5 42 142.65 42ZM19.35 45H142.65C142.743 45 142.832 45.0369 142.897 45.1025C142.963 45.1682 143 45.2572 143 45.35V56H19V45.35C19 45.2572 19.0369 45.1682 19.1025 45.1025C19.1682 45.0369 19.2572 45 19.35 45ZM142.65 123H19.35C19.1567 123 19 122.843 19 122.65V59H143V122.65C143 122.843 142.843 123 142.65 123Z" fill="#365066"/>
<path d="M66.5 110.27V31.5632" stroke="#365066" stroke-width="3" stroke-linecap="round"/>
<path fill-rule="evenodd" clip-rule="evenodd" d="M67 36.2698H126L117.281 55.2698L126 74.2698H67V36.2698Z" fill="white" stroke="#365066" stroke-width="3" stroke-linecap="round" stroke-linejoin="round"/>
<path d="M102 54.2698V49.9418C102 45.7047 98.6421 42.2698 94.5 42.2698C90.3579 42.2698 87 45.7047 87 49.9418V53.6138" stroke="#80B9F2" stroke-width="3"/>
<path d="M104.45 53.2698H83.55C83.2462 53.2698 83 53.516 83 53.8198V67.7198C83 68.0235 83.2462 68.2698 83.55 68.2698H104.45C104.754 68.2698 105 68.0235 105 67.7198V53.8198C105 53.516 104.754 53.2698 104.45 53.2698Z" fill="#2079D4"/>
<path d="M94 60.2698C95.1046 60.2698 96 59.3743 96 58.2698C96 57.1652 95.1046 56.2698 94 56.2698C92.8954 56.2698 92 57.1652 92 58.2698C92 59.3743 92.8954 60.2698 94 60.2698Z" fill="white"/>
<path d="M94 63.2698C95.1046 63.2698 96 62.3743 96 61.2698C96 60.1652 95.1046 59.2698 94 59.2698C92.8954 59.2698 92 60.1652 92 61.2698C92 62.3743 92.8954 63.2698 94 63.2698Z" fill="white"/>
<path d="M54.3506 110.27H78.9997" stroke="#365066" stroke-width="3" stroke-linecap="round" stroke-linejoin="round"/>
</svg>
