<svg xmlns="http://www.w3.org/2000/svg" viewBox="0 0 160 160"><defs><style>.cls-1{opacity:0.5;}.cls-10,.cls-2,.cls-3{fill:none;}.cls-2,.cls-3{stroke:#cd16f9;stroke-width:0.13px;}.cls-3{stroke-linecap:square;}.cls-4{fill:#f0f6fc;}.cls-5{fill:#fff;}.cls-6{fill:#365066;}.cls-7{fill:#2079d4;}.cls-8{fill:#80b9f2;}.cls-9{fill:#65dde0;}</style></defs><g id="grid"><g id="Keylines" class="cls-1"><path id="NESW" class="cls-2" d="M8,152,152,8.08Z"/><path id="NWSE" class="cls-2" d="M8,8.08,152,152"/><path id="Southern-Tropic" class="cls-3" d="M8,104H152"/><path id="Northern-Tropic" class="cls-3" d="M8.05,56H152"/><path id="Equator" class="cls-3" d="M8,80H152"/><path id="Western-Tropic" class="cls-2" d="M104,152V8.05"/><path id="Eastern-Tropic" class="cls-2" d="M56,152V8"/><path id="Mean" class="cls-2" d="M80,152V8"/><path id="Core" class="cls-2" d="M110,80a30,30,0,1,0-30,30,30,30,0,0,0,30-30Z"/><path id="Circle" class="cls-2" d="M80,145a65,65,0,1,1,65-65,65,65,0,0,1-65,65"/><path id="Square" class="cls-2" d="M130.53,140H29.47A9.5,9.5,0,0,1,20,130.53V29.47A9.5,9.5,0,0,1,29.47,20H130.53A9.5,9.5,0,0,1,140,29.47V130.53a9.5,9.5,0,0,1-9.47,9.47"/><path id="Vertical-Rectangle" class="cls-2" d="M119,145H41a9,9,0,0,1-9-8.86V23.86A9,9,0,0,1,41,15h78a9,9,0,0,1,9,8.86V136.14a9,9,0,0,1-9,8.86"/><path id="Horizontal-Rectangle" class="cls-2" d="M136.14,128H23.86A9,9,0,0,1,15,119V41a9,9,0,0,1,8.86-9H136.14A9,9,0,0,1,145,41v78a9,9,0,0,1-8.86,9"/></g></g><g id="web_development" data-name="web development"><path class="cls-4" d="M79,150A70,70,0,1,0,9,80,70,70,0,0,0,79,150Z"/><rect class="cls-5" x="16.45" y="35.5" width="127" height="89" rx="1.82"/><path class="cls-6" d="M141.63,34H18.27A3.32,3.32,0,0,0,15,37.32v85.36A3.32,3.32,0,0,0,18.27,126H141.63a3.32,3.32,0,0,0,3.32-3.32V37.32A3.32,3.32,0,0,0,141.63,34ZM18.27,37H141.63a.32.32,0,0,1,.32.32V49H18V37.32A.32.32,0,0,1,18.27,37Zm123.36,86H18.27a.32.32,0,0,1-.32-.32V52H142v70.68A.32.32,0,0,1,141.63,123Z"/><circle class="cls-6" cx="23" cy="43" r="2"/><circle class="cls-6" cx="30" cy="43" r="2"/><circle class="cls-6" cx="37" cy="43" r="2"/><path class="cls-7" d="M49.15,69.06,38.77,73l10.38,4.3v5.41L33,75.31V70.93l16.15-7.28Z"/><path class="cls-7" d="M51.52,86.33,63,58.08l4.7,1.67L56.21,88Z"/><path class="cls-7" d="M80.7,73,70.31,69.06V63.65l16.16,7.28v4.38l-16.16,7.4V77.3Z"/><rect class="cls-8" x="33" y="95" width="94" height="6"/><rect class="cls-8" x="33" y="107" width="94" height="6"/><rect class="cls-7" x="94" y="107" width="33" height="6"/><rect class="cls-9" x="111" y="107" width="9" height="6"/><rect class="cls-7" x="40" y="95" width="33" height="6"/><rect class="cls-7" x="104" y="95" width="12" height="6"/><rect class="cls-7" x="76" y="107" width="12" height="6"/><rect class="cls-7" x="36" y="107" width="22" height="6"/><rect class="cls-9" x="57" y="95" width="9" height="6"/><rect class="cls-10" width="160" height="160"/></g></svg>