<svg xmlns="http://www.w3.org/2000/svg" viewBox="0 0 160 160"><defs><style>.cls-1{fill:none;}.cls-2{fill:#f0f6fc;}.cls-3{fill:#fff;}.cls-4{fill:#365066;}.cls-5{fill:#50a7ef;}.cls-6{fill:#2079d4;}.cls-7{fill:#65dde0;}</style></defs><g id="archi_scenari_duso"><rect class="cls-1" width="160" height="160"/><path class="cls-2" d="M79,150A70,70,0,1,0,9,80,70,70,0,0,0,79,150Z"/><ellipse class="cls-3" cx="36.48" cy="58.97" rx="14.5" ry="14.47"/><path class="cls-4" d="M36.48,46a13,13,0,1,1-13,13,13,13,0,0,1,13-13m0-3a16,16,0,1,0,16,16,16,16,0,0,0-16-16Z"/><path class="cls-3" d="M17.5,113.5V95.12A15.35,15.35,0,0,1,32.83,79.79h8.34A15.35,15.35,0,0,1,56.5,95.12V113.5Z"/><path class="cls-4" d="M41.17,81.29A13.85,13.85,0,0,1,55,95.12V112H19V95.12A13.85,13.85,0,0,1,32.83,81.29h8.34m0-3H32.83A16.84,16.84,0,0,0,16,95.12V115H58V95.12A16.84,16.84,0,0,0,41.17,78.29Z"/><path class="cls-4" d="M95.5,116h-17a1.5,1.5,0,0,1-1.5-1.5v-34A1.5,1.5,0,0,1,78.5,79H115V46H78.5a1.5,1.5,0,0,1,0-3h38a1.5,1.5,0,0,1,1.5,1.5v36a1.5,1.5,0,0,1-1.5,1.5H80v31H95.5a1.5,1.5,0,0,1,0,3Z"/><rect class="cls-5" x="96" y="66" width="42" height="28" rx="1"/><rect class="cls-6" x="96" y="100" width="42" height="28" rx="1"/><path class="cls-6" d="M138,59a1,1,0,0,1-1,1H97a1,1,0,0,1-1-1V33a1,1,0,0,1,1-1h40a1,1,0,0,1,1,1Z"/><path class="cls-7" d="M138,37a1,1,0,0,1-1,1H97a1,1,0,0,1-1-1V32.21c0-.11.45-.21,1-.21h40a1,1,0,0,1,1,1Z"/></g></svg>