<svg xmlns="http://www.w3.org/2000/svg" viewBox="0 0 176 176"><defs><style>.cls-1{opacity:0.5;}.cls-2,.cls-3,.cls-4{fill:none;}.cls-2,.cls-3{stroke:#cd16f9;stroke-width:0.13px;}.cls-3{stroke-linecap:square;}.cls-5{fill:#365066;}.cls-6{fill:#2079d4;}.cls-7{fill:#80b9f2;}.cls-8{fill:#65dde0;}.cls-9{fill:#fff;}</style></defs><g id="grid"><g id="Keylines" class="cls-1"><path id="NESW" class="cls-2" d="M8.22,167l160-160Z"/><path id="NWSE" class="cls-2" d="M8.22,7l160,160"/><path id="Southern-Tropic" class="cls-3" d="M8.22,115h160"/><path id="Northern-Tropic" class="cls-3" d="M8.22,62h160"/><path id="Equator" class="cls-3" d="M8.22,88h160"/><path id="Western-Tropic" class="cls-2" d="M114.22,167V7"/><path id="Eastern-Tropic" class="cls-2" d="M61.34,167V6.94"/><path id="Mean" class="cls-2" d="M88,167V6.94"/><path id="Core" class="cls-2" d="M121,88a33,33,0,1,0-33,33,33,33,0,0,0,33-33Z"/><path id="Circle" class="cls-2" d="M88,161a73,73,0,1,1,73-73,73,73,0,0,1-73,73"/><path id="Square" class="cls-2" d="M144,154.5H32A10.52,10.52,0,0,1,21.5,144V32A10.53,10.53,0,0,1,32,21.5H144A10.53,10.53,0,0,1,154.5,32V144A10.52,10.52,0,0,1,144,154.5"/><path id="Vertical-Rectangle" class="cls-2" d="M131.06,161H44.94A10,10,0,0,1,35,151.05V25A10,10,0,0,1,44.94,15h86.12A10,10,0,0,1,141,25v126.1a10,10,0,0,1-9.94,9.95"/><path id="Horizontal-Rectangle" class="cls-2" d="M151.05,141H25A10,10,0,0,1,15,131.06V44.94A10,10,0,0,1,25,35h126.1A10,10,0,0,1,161,44.94v86.12a10,10,0,0,1-9.95,9.94"/></g></g><g id="kit_prototipazione-2" data-name="kit_prototipazione"><rect class="cls-4" x="19.5" y="36.5" width="137" height="91" rx="1.98"/><path class="cls-5" d="M154.52,35h-133A3.48,3.48,0,0,0,18,38.48v87A3.48,3.48,0,0,0,21.48,129H97.19l-4-3H21.48a.49.49,0,0,1-.48-.48V53H155v72.52a.49.49,0,0,1-.48.48H113.86v.06L108.78,129h45.74a3.48,3.48,0,0,0,3.48-3.48v-87A3.48,3.48,0,0,0,154.52,35ZM155,50H21V38.48a.49.49,0,0,1,.48-.48h133a.49.49,0,0,1,.48.48Z"/><rect class="cls-6" x="30" y="103" width="38" height="6" rx="3"/><rect class="cls-7" x="45" y="66" width="9" height="8"/><rect class="cls-6" x="30" y="66" width="9" height="8"/><rect class="cls-8" x="59" y="66" width="9" height="8"/><rect class="cls-7" x="30" y="82" width="38" height="6"/><rect class="cls-7" x="30" y="91" width="53" height="6"/><rect class="cls-6" x="105" y="66" width="41" height="31"/><polygon class="cls-9" points="146 83.98 146 88.22 136.22 78.35 121.16 93.55 112.17 84.48 105 91.73 105 87.48 112.17 80.24 121.16 89.3 136.22 74.11 146 83.98"/><circle class="cls-9" cx="124" cy="76" r="2.5"/><path class="cls-9" d="M124,75a1,1,0,1,1-1,1,1,1,0,0,1,1-1m0-3a4,4,0,1,0,4,4,4,4,0,0,0-4-4Z"/><path class="cls-4" d="M115.55,126,114,112.9l-.06-.79L89.69,97.61l.44,28.24.22.15.49.34L94.4,129l7.72,5.78,10-5.78,3.53-2Zm-6.77,3H97.19l-4-3h20.68v.06Z"/><path class="cls-5" d="M117.24,126l-1.59-13.23-.13-1.65-1.7-1L89.67,95.65a1.08,1.08,0,0,0-.55-.15A1.12,1.12,0,0,0,88,96.62l.44,28.14,0,1.24v.74l1.37.94L91.6,129l10.4,7.78L115.48,129l2-1.14Zm-15,6.78-5-3.78-4-3-1.34-1,0,0v-.26L91.46,104,100,118.82a1.68,1.68,0,0,0,2.9-1.68l-8.54-14.78L112.11,113l.21.13v.06L113.86,126v.06L108.78,129Z"/><path class="cls-5" d="M118.14,129l-.13-.18-.31.18-15.14,8.75,4,9.25L124,137Zm-11.31,10.15,10.26-5.93,2,2.71-10.91,6.3Z"/><circle class="cls-5" cx="30" cy="44" r="3"/><circle class="cls-5" cx="39" cy="44" r="3"/><circle class="cls-5" cx="48" cy="44" r="3"/></g></svg>