<svg xmlns="http://www.w3.org/2000/svg" viewBox="0 0 160 160"><defs><style>.cls-1{fill:#f0f6fc;}.cls-2{fill:#fff;}.cls-3{fill:#365066;}.cls-4{fill:#50a7ef;}.cls-5{fill:#65dde0;}.cls-6{fill:#2079d4;}.cls-7{fill:none;}</style></defs><g id="privacy_social"><path class="cls-1" d="M79,150A70,70,0,1,0,9,80,70,70,0,0,0,79,150Z"/><circle class="cls-2" cx="106.77" cy="45.03" r="12.5"/><path class="cls-3" d="M106.77,34a11,11,0,1,1-11,11,11,11,0,0,1,11-11m0-3a14,14,0,1,0,14,14,14,14,0,0,0-14-14Z"/><path class="cls-2" d="M89.5,94.57v-16A13.59,13.59,0,0,1,103.07,65h7.86A13.59,13.59,0,0,1,124.5,78.6v16Z"/><path class="cls-3" d="M110.93,66.53A12.08,12.08,0,0,1,123,78.6V93.07H91V78.6a12.08,12.08,0,0,1,12.07-12.07h7.86m0-3h-7.86A15.07,15.07,0,0,0,88,78.6V96h38V78.6a15.07,15.07,0,0,0-15.07-15.07Z"/><path class="cls-4" d="M21,94.19H67.9V35L50.76,35a7.06,7.06,0,0,0,.61-2.87,7.23,7.23,0,0,0-14.46,0,7.06,7.06,0,0,0,.6,2.87H21Z"/><rect class="cls-2" x="27" y="49" width="29" height="3"/><rect class="cls-2" x="27" y="55" width="36" height="3"/><rect class="cls-2" x="27" y="61" width="22" height="3"/><rect class="cls-5" x="88" y="102" width="41.86" height="3"/><rect class="cls-5" x="88" y="108" width="51" height="3"/><rect class="cls-5" x="88" y="114" width="31" height="3"/><path class="cls-6" d="M67.87,127.67H21V80.8H37.73a7.19,7.19,0,0,0-.62,2.93,7.33,7.33,0,1,0,14-2.93H67.87Z"/><polygon class="cls-2" points="50.07 109.89 41.25 104.14 41.25 115.65 50.07 109.89"/><rect class="cls-7" width="160" height="160"/></g></svg>