<svg xmlns="http://www.w3.org/2000/svg" viewBox="0 0 176 176"><defs><style>.cls-1{fill:none;}.cls-2{fill:#365066;}.cls-3{fill:#65dde0;}.cls-4{fill:#2079d4;}.cls-5{fill:#50a7ef;}</style></defs><g id="kit_analitics"><rect class="cls-1" width="176" height="176"/><circle class="cls-2" cx="33" cy="45" r="3"/><circle class="cls-2" cx="42" cy="45" r="3"/><circle class="cls-2" cx="51" cy="45" r="3"/><path class="cls-2" d="M157.1,35H24.9A3.91,3.91,0,0,0,21,38.9v86.2a3.91,3.91,0,0,0,3.9,3.9H157.1a3.91,3.91,0,0,0,3.9-3.9V38.9A3.91,3.91,0,0,0,157.1,35Zm.9,90.1a.9.9,0,0,1-.9.9H24.9a.9.9,0,0,1-.9-.9V54H158ZM158,51H24V38.9a.9.9,0,0,1,.9-.9H157.1a.9.9,0,0,1,.9.9Z"/><rect class="cls-3" x="47" y="83" width="26" height="6"/><rect class="cls-4" x="47" y="92.5" width="44" height="3"/><rect class="cls-3" x="47" y="102" width="30" height="6"/><rect class="cls-4" x="47" y="111.5" width="44" height="3"/><path class="cls-5" d="M123,69a3,3,0,0,1,0,6H53a3,3,0,0,1,0-6h70m0-3H53a6,6,0,0,0,0,12h70a6,6,0,0,0,0-12Z"/><polygon class="cls-4" points="150 109.21 137.27 96.48 128.79 88 120.3 96.48 107.57 109.21 116.06 117.7 122.79 110.97 122.79 141 134.79 141 134.79 110.97 141.51 117.7 150 109.21"/></g></svg>