<svg xmlns="http://www.w3.org/2000/svg" viewBox="0 0 160 160"><defs><style>.cls-1{fill:none;}.cls-2{fill:#f0f6fc;}.cls-3,.cls-8{fill:#fff;}.cls-4{fill:#365066;}.cls-5{fill:#65dde0;}.cls-6{fill:#50a7ef;}.cls-7{fill:#2079d4;}.cls-8{font-size:24px;font-family:TitilliumWeb-SemiBold, Titillium Web;font-weight:600;letter-spacing:0.05em;}</style></defs><g id="linguagg_individua"><rect class="cls-1" width="160" height="160"/><path class="cls-2" d="M79,150A70,70,0,1,0,9,80,70,70,0,0,0,79,150Z"/><path class="cls-3" d="M44.1,143.5c-5.84,0-10.6-5.45-10.6-12.15V28.65c0-6.7,4.76-12.15,10.6-12.15H91.9c5.84,0,10.6,5.45,10.6,12.15v102.7c0,6.7-4.76,12.15-10.6,12.15Z"/><ellipse class="cls-4" cx="68" cy="134.64" rx="3.57" ry="3.71"/><path class="cls-4" d="M91.9,15H44.1C37.42,15,32,21.11,32,28.65v102.7C32,138.89,37.42,145,44.1,145H91.9c6.68,0,12.1-6.11,12.1-13.65V28.65C104,21.11,98.58,15,91.9,15ZM35,28.65C35,22.78,39.08,18,44.1,18H91.9c5,0,9.1,4.78,9.1,10.65V125l-.21,0H35V28.65ZM91.9,142H44.1c-5,0-9.1-4.78-9.1-10.65V128h65.79l.21,0v3.37C101,137.22,96.92,142,91.9,142Z"/><rect class="cls-5" x="43" y="84" width="33" height="6"/><rect class="cls-6" x="43" y="102" width="38" height="6"/><rect class="cls-6" x="43" y="93" width="27" height="6"/><rect class="cls-5" x="43" y="44" width="33" height="6"/><rect class="cls-6" x="43" y="62" width="33" height="6"/><rect class="cls-6" x="43" y="53" width="21" height="6"/><path class="cls-7" d="M141.77,30H88.23a4.18,4.18,0,0,0-4.18,4.19V50.4l0,0V72l7.39-8h50.38A4.18,4.18,0,0,0,146,59.81V34.19A4.18,4.18,0,0,0,141.77,30Z"/><path class="cls-7" d="M140.35,75H94.65A4.65,4.65,0,0,0,90,79.65V117l7.39-8h43a4.65,4.65,0,0,0,4.65-4.65V79.65A4.65,4.65,0,0,0,140.35,75Z"/><text class="cls-8" transform="translate(105.31 99.4)">Aa</text><path class="cls-3" d="M127,49.36V44.64h-2.69a8.6,8.6,0,0,0-.77-1.85l1.9-1.9-3.33-3.33-1.9,1.9a8.6,8.6,0,0,0-1.85-.77V36h-4.72v2.69a8.6,8.6,0,0,0-1.85.77l-1.9-1.9-3.33,3.33,1.9,1.9a8.6,8.6,0,0,0-.77,1.85H105v4.72h2.69a8.6,8.6,0,0,0,.77,1.85l-1.9,1.9,3.33,3.33,1.9-1.9a8.6,8.6,0,0,0,1.85.77V58h4.72V55.31a8.6,8.6,0,0,0,1.85-.77l1.9,1.9,3.33-3.33-1.9-1.9a8.6,8.6,0,0,0,.77-1.85Zm-11,3.28A5.64,5.64,0,1,1,121.64,47,5.65,5.65,0,0,1,116,52.64Z"/></g></svg>