<svg xmlns="http://www.w3.org/2000/svg" viewBox="0 0 160 160"><defs><style>.cls-1{fill:none;}.cls-2{fill:#f0f6fc;}.cls-3{fill:#50a7ef;}.cls-4{fill:#fff;}.cls-5{fill:#365066;}.cls-6{fill:#2079d4;}.cls-7{fill:#65dde0;}</style></defs><g id="interviste_protocollo"><rect class="cls-1" width="160" height="160"/><path class="cls-2" d="M79,150A70,70,0,1,0,9,80,70,70,0,0,0,79,150Z"/><path class="cls-3" d="M131,135.13V25a3,3,0,0,0-3-3H36V143h92a3,3,0,0,0,3-3Z"/><path class="cls-4" d="M127.94,132.07V21a3,3,0,0,0-3-3H35.06V140h89.88a3,3,0,0,0,3-3Z"/><path class="cls-5" d="M66,74.4a15.7,15.7,0,0,1-1.86-1.6l2.11-2.13A15,15,0,0,0,67.79,72Zm-4-4.11a17.52,17.52,0,0,1-1.6-2.87l2.75-1.2a14.46,14.46,0,0,0,1.32,2.37Zm-2.63-6A17,17,0,0,1,59,61.07L62,61a14.51,14.51,0,0,0,.37,2.69Zm2.7-6.08-3-.44a17.37,17.37,0,0,1,.78-3.18l2.84,1A14.14,14.14,0,0,0,62.11,58.24Zm1.77-5.11-2.6-1.49A17.27,17.27,0,0,1,63.17,49l2.28,1.95A14.36,14.36,0,0,0,63.88,53.13ZM67.39,49l-1.87-2.34a17.27,17.27,0,0,1,2.74-1.8l1.4,2.65A14.8,14.8,0,0,0,67.39,49Zm4.78-2.54-.89-2.86a17.71,17.71,0,0,1,3.2-.68l.35,3A15.16,15.16,0,0,0,72.17,46.48Zm8-.16a13.65,13.65,0,0,0-2.68-.45l.22-3a17.74,17.74,0,0,1,3.23.55Z"/><path class="cls-6" d="M116,55.79H97V64l-8-8.21H78c-1.16,0-2-1.31-2-2.73V34.55A2.36,2.36,0,0,1,78.1,32h37.8a2.36,2.36,0,0,1,2.1,2.55V53.06C118,54.48,117.16,55.79,116,55.79Z"/><path class="cls-3" d="M82.29,95H66v6l-6.86-6H49.71c-1,0-1.71-1.07-1.71-2.22V77.08A2,2,0,0,1,49.8,75H82.2A2,2,0,0,1,84,77.08v15.7C84,93.93,83.28,95,82.29,95Z"/><rect class="cls-7" x="48" y="110" width="36" height="6"/><rect class="cls-6" x="48" y="122" width="70" height="6"/><rect class="cls-5" x="32" y="18" width="4" height="125"/></g></svg>