<svg xmlns="http://www.w3.org/2000/svg" viewBox="0 0 160 160"><defs><style>.cls-1{opacity:0.5;}.cls-2,.cls-3,.cls-4{fill:none;}.cls-2,.cls-3{stroke:#cd16f9;stroke-width:0.13px;}.cls-3{stroke-linecap:square;}.cls-5{fill:#f0f6fc;}.cls-6{fill:#fff;}.cls-7{fill:#365066;}.cls-8{fill:#50a7ef;}.cls-9{fill:#65dde0;}.cls-10{fill:#2079d4;}</style></defs><g id="grid"><g id="Keylines" class="cls-1"><path id="NESW" class="cls-2" d="M8,152,152,8.08Z"/><path id="NWSE" class="cls-2" d="M8,8.08,152,152"/><path id="Southern-Tropic" class="cls-3" d="M8,104H152"/><path id="Northern-Tropic" class="cls-3" d="M8.05,56H152"/><path id="Equator" class="cls-3" d="M8,80H152"/><path id="Western-Tropic" class="cls-2" d="M104,152V8.05"/><path id="Eastern-Tropic" class="cls-2" d="M56,152V8"/><path id="Mean" class="cls-2" d="M80,152V8"/><path id="Core" class="cls-2" d="M110,80a30,30,0,1,0-30,30,30,30,0,0,0,30-30Z"/><path id="Circle" class="cls-2" d="M80,145a65,65,0,1,1,65-65,65,65,0,0,1-65,65"/><path id="Square" class="cls-2" d="M130.53,140H29.47A9.5,9.5,0,0,1,20,130.53V29.47A9.5,9.5,0,0,1,29.47,20H130.53A9.5,9.5,0,0,1,140,29.47V130.53a9.5,9.5,0,0,1-9.47,9.47"/><path id="Vertical-Rectangle" class="cls-2" d="M119,145H41a9,9,0,0,1-9-8.86V23.86A9,9,0,0,1,41,15h78a9,9,0,0,1,9,8.86V136.14a9,9,0,0,1-9,8.86"/><path id="Horizontal-Rectangle" class="cls-2" d="M136.14,128H23.86A9,9,0,0,1,15,119V41a9,9,0,0,1,8.86-9H136.14A9,9,0,0,1,145,41v78a9,9,0,0,1-8.86,9"/></g></g><g id="usability_result"><rect class="cls-4" width="160" height="160"/><path class="cls-5" d="M79,150A70,70,0,1,0,9,80,70,70,0,0,0,79,150Z"/><path class="cls-6" d="M43.17,138.51c-6,0-9.16-2.81-9.67-8.58V20.5h89V128a15.67,15.67,0,0,0,4.28,10.5Z"/><path class="cls-7" d="M121,22V128.09a17.31,17.31,0,0,0,2.69,8.91H43.17c-5.26,0-7.71-2.14-8.17-7.14V22h86m3-3H32V130c.81,9.53,8.14,10,11.17,10H131a14.27,14.27,0,0,1-7-12V19Z"/><path class="cls-7" d="M129.65,140h0a6.65,6.65,0,0,1-6.65-6.65v-9a.35.35,0,0,1,.35-.35h12.3a.35.35,0,0,1,.35.35v9.3A6.36,6.36,0,0,1,129.65,140Z"/><rect class="cls-6" x="43.87" y="113.48" width="62" height="7"/><ellipse class="cls-8" cx="57.69" cy="42" rx="10.67" ry="10.65"/><path class="cls-8" d="M71.91,80H44V66.46A11.62,11.62,0,0,1,55.4,55H61c6.2,0,10.95,5.3,10.95,11.5Z"/><rect class="cls-9" x="44" y="93" width="11.91" height="35" transform="translate(99.91 221) rotate(180)"/><rect class="cls-10" x="59" y="107.1" width="11.91" height="20.9" transform="translate(129.91 235.1) rotate(180)"/><rect class="cls-8" x="84" y="97" width="12" height="31"/><rect class="cls-10" x="99" y="94" width="12" height="34" transform="translate(210 222) rotate(180)"/><path class="cls-8" d="M80,54.1q0-6.57,5.35-6.57t5.34,6.57a7.65,7.65,0,0,1-1.39,5,5.54,5.54,0,0,1-7.91,0A7.71,7.71,0,0,1,80,54.1Zm4.14-2.66a7.4,7.4,0,0,0-.34,2.66,7.57,7.57,0,0,0,.34,2.68,1.32,1.32,0,0,0,2.46,0,7.57,7.57,0,0,0,.34-2.68,7.4,7.4,0,0,0-.34-2.66,1.34,1.34,0,0,0-2.46,0Zm1.32,27.41L95.69,46.6l2.87,1L88.29,79.78Zm7.92-6.43q0-6.57,5.34-6.57T104,72.42a7.71,7.71,0,0,1-1.38,5,5.55,5.55,0,0,1-7.92,0A7.71,7.71,0,0,1,93.34,72.42ZM98.68,69a1.25,1.25,0,0,0-1.25.81,7.24,7.24,0,0,0-.35,2.63,7.7,7.7,0,0,0,.35,2.69,1.31,1.31,0,0,0,2.45,0,7.64,7.64,0,0,0,.35-2.71,7.92,7.92,0,0,0-.32-2.66A1.22,1.22,0,0,0,98.68,69Z"/></g></svg>