<svg xmlns="http://www.w3.org/2000/svg" viewBox="0 0 160 160"><defs><style>.cls-1{fill:none;}.cls-2{fill:#f0f6fc;}.cls-3{fill:#65dde0;}.cls-4{fill:#fff;}.cls-5{fill:#365066;}.cls-6{fill:#50a7ef;}.cls-7{fill:#2079d4;}</style></defs><g id="interviste_rielabora"><rect class="cls-1" width="160" height="160"/><path class="cls-2" d="M79,150A70,70,0,1,0,9,80,70,70,0,0,0,79,150Z"/><path class="cls-3" d="M53.33,30.91H66v5.14l5.33-5.14h7.34c.77,0,1.33-.83,1.33-1.71V17.6A1.51,1.51,0,0,0,78.6,16H53.4A1.51,1.51,0,0,0,52,17.6V29.2C52,30.08,52.56,30.91,53.33,30.91Z"/><rect class="cls-4" x="27.5" y="53.5" width="111" height="73" rx="1.67"/><path class="cls-5" d="M136.83,55a.16.16,0,0,1,.17.17v69.66a.16.16,0,0,1-.17.17H29.17a.16.16,0,0,1-.17-.17V55.17a.16.16,0,0,1,.17-.17H136.83m0-3H29.17A3.17,3.17,0,0,0,26,55.17v69.66A3.17,3.17,0,0,0,29.17,128H136.83a3.17,3.17,0,0,0,3.17-3.17V55.17A3.17,3.17,0,0,0,136.83,52Z"/><path class="cls-6" d="M110,78a18,18,0,1,0,18,18H110Z"/><path class="cls-7" d="M128,96a18,18,0,0,0-18-18V96Z"/><rect class="cls-5" x="48" y="111" width="37" height="3"/><path class="cls-5" d="M137.22,69H28.5a1.5,1.5,0,0,1,0-3H137.22a1.5,1.5,0,0,1,0,3Z"/><polygon class="cls-7" points="52.96 85.55 82 37.16 23.93 37.16 52.96 85.55"/><path class="cls-7" d="M57.71,99.07l-8.57,6.22a.71.71,0,0,1-1.14-.56V74.15a.71.71,0,0,1,.72-.7h8.56a.71.71,0,0,1,.72.7V98.51A.7.7,0,0,1,57.71,99.07Z"/></g></svg>