<svg xmlns="http://www.w3.org/2000/svg" viewBox="0 0 176 176"><defs><style>.cls-1{fill:#365066;}.cls-2{fill:#50a7ef;}.cls-3{fill:#2079d4;}.cls-4{fill:#65dde0;}.cls-5{fill:none;}</style></defs><g id="kit_questionario"><path class="cls-1" d="M151.65,35H24.35A3.34,3.34,0,0,0,21,38.32v80.36A3.34,3.34,0,0,0,24.35,122h127.3a3.34,3.34,0,0,0,3.35-3.32V38.32A3.34,3.34,0,0,0,151.65,35Zm.33,83.68a.33.33,0,0,1-.33.32H24.35a.33.33,0,0,1-.33-.32V38.32a.33.33,0,0,1,.33-.32h127.3a.33.33,0,0,1,.33.32Z"/><path class="cls-1" d="M100,133H99V122H96v11H80V122H77v11H76a12,12,0,0,0-12,12h48A12,12,0,0,0,100,133Zm-24,3h24a9,9,0,0,1,8.49,6h-41A9,9,0,0,1,76,136Z"/><path class="cls-1" d="M66,55V73H48V55H66m3-3H45V76H69V52Z"/><path class="cls-1" d="M66,89v18H48V89H66m3-3H45v24H69V86Z"/><rect class="cls-2" x="83" y="56" width="56" height="6"/><rect class="cls-2" x="83" y="67" width="41" height="6"/><polygon class="cls-3" points="92 37.03 64.14 64.89 57.12 71.91 50.1 64.89 35.91 50.7 42.93 43.69 57.12 57.87 84.98 30.01 92 37.03"/><rect class="cls-4" x="83" y="89" width="56" height="6"/><rect class="cls-3" x="83" y="101" width="41" height="6"/><rect class="cls-5" width="176" height="176"/></g></svg>