<svg xmlns="http://www.w3.org/2000/svg" viewBox="0 0 160 160"><defs><style>.cls-1{opacity:0.5;}.cls-2,.cls-3,.cls-4{fill:none;}.cls-2,.cls-3{stroke:#cd16f9;stroke-width:0.13px;}.cls-3{stroke-linecap:square;}.cls-5{fill:#f0f6fc;}.cls-6{fill:#fff;}.cls-7{fill:#365066;}.cls-8{fill:#80b9f2;}.cls-9{fill:#2079d4;}.cls-10{fill:#65dde0;}</style></defs><g id="grid"><g id="Keylines" class="cls-1"><path id="NESW" class="cls-2" d="M8,152,152,8.08Z"/><path id="NWSE" class="cls-2" d="M8,8.08,152,152"/><path id="Southern-Tropic" class="cls-3" d="M8,104H152"/><path id="Northern-Tropic" class="cls-3" d="M8.05,56H152"/><path id="Equator" class="cls-3" d="M8,80H152"/><path id="Western-Tropic" class="cls-2" d="M104,152V8.05"/><path id="Eastern-Tropic" class="cls-2" d="M56,152V8"/><path id="Mean" class="cls-2" d="M80,152V8"/><path id="Core" class="cls-2" d="M110,80a30,30,0,1,0-30,30,30,30,0,0,0,30-30Z"/><path id="Circle" class="cls-2" d="M80,145a65,65,0,1,1,65-65,65,65,0,0,1-65,65"/><path id="Square" class="cls-2" d="M130.53,140H29.47A9.5,9.5,0,0,1,20,130.53V29.47A9.5,9.5,0,0,1,29.47,20H130.53A9.5,9.5,0,0,1,140,29.47V130.53a9.5,9.5,0,0,1-9.47,9.47"/><path id="Vertical-Rectangle" class="cls-2" d="M119,145H41a9,9,0,0,1-9-8.86V23.86A9,9,0,0,1,41,15h78a9,9,0,0,1,9,8.86V136.14a9,9,0,0,1-9,8.86"/><path id="Horizontal-Rectangle" class="cls-2" d="M136.14,128H23.86A9,9,0,0,1,15,119V41a9,9,0,0,1,8.86-9H136.14A9,9,0,0,1,145,41v78a9,9,0,0,1-8.86,9"/></g></g><g id="interfacciaUtente"><rect class="cls-4" width="160" height="160"/><path class="cls-5" d="M79,150A70,70,0,1,0,9,80,70,70,0,0,0,79,150Z"/><rect class="cls-6" x="16.55" y="33.5" width="127" height="81" rx="1.67"/><circle class="cls-7" cx="23" cy="41" r="2"/><circle class="cls-7" cx="30" cy="41" r="2"/><circle class="cls-7" cx="37" cy="41" r="2"/><path class="cls-7" d="M141.88,32H18.23a3.17,3.17,0,0,0-3.18,3.17v77.66A3.17,3.17,0,0,0,18.23,116H141.88a3.17,3.17,0,0,0,3.17-3.17V35.17A3.17,3.17,0,0,0,141.88,32ZM18.23,35H141.88a.18.18,0,0,1,.17.17V47h-124V35.17A.18.18,0,0,1,18.23,35Zm123.65,78H18.23a.18.18,0,0,1-.18-.17V50h124v62.83A.18.18,0,0,1,141.88,113Z"/><rect class="cls-8" x="44" y="88" width="12" height="12"/><rect class="cls-9" x="26" y="88" width="12" height="12"/><rect class="cls-10" x="62" y="88" width="12" height="12"/><path class="cls-9" d="M129,57V88H88V57Zm-9.78,8.11L104.16,80.3l-9-9.06L88,77.75V82l7.17-6.52,9,9.07,15.06-15.2L129,79.22V75Zm-8.5,1.36a3.89,3.89,0,1,0-3.89,3.89A3.89,3.89,0,0,0,110.72,66.47Z"/><polygon class="cls-6" points="91.27 119.15 90.63 118.71 90.22 93.38 111.96 106.4 112.01 107.11 113.53 119.72 101.39 126.73 91.27 119.15"/><path class="cls-7" d="M91.76,96.05l18.57,11.12.19.12v.06l1.39,11.57-10.43,6-9.32-7,0,0v-.24l-.36-21.63m-2.05-4.57a1,1,0,0,0-1,1l.41,25.25,0,1.78,1.23.84,10.91,8.18,13.85-8L113.51,107l-.12-1.48-1.52-.91-21.67-13a.87.87,0,0,0-.49-.14Z"/><path class="cls-7" d="M100.78,113.16a1.49,1.49,0,0,1-1.3-.75L89.16,94.54a1.5,1.5,0,1,1,2.6-1.5l10.31,17.87a1.5,1.5,0,0,1-.54,2A1.59,1.59,0,0,1,100.78,113.16Z"/><polygon class="cls-6" points="103.69 130.02 115.22 123.36 118.8 128.23 106.11 135.55 103.69 130.02"/><path class="cls-7" d="M114.81,125.33l1.79,2.43-9.79,5.65-1.21-2.76,9.21-5.32m.82-3.94-13.85,8,3.63,8.3,15.59-9-5.37-7.3Z"/><rect class="cls-8" x="26" y="65" width="30" height="3"/><rect class="cls-8" x="26" y="71" width="30" height="3"/></g></svg>