<svg xmlns="http://www.w3.org/2000/svg" viewBox="0 0 160 160"><defs><style>.cls-1{fill:none;}.cls-2{fill:#f0f6fc;}.cls-3{fill:#365066;}.cls-4{fill:#50a7ef;}.cls-5{fill:#2079d4;}.cls-6{fill:#fff;}.cls-7{fill:#65dde0;}</style></defs><g id="linguagg_analizza"><rect class="cls-1" width="160" height="160"/><path class="cls-2" d="M79,150A70,70,0,1,0,9,80,70,70,0,0,0,79,150Z"/><path class="cls-3" d="M43.5,79a1.5,1.5,0,0,0,0-3H35V36h7.79a1.5,1.5,0,0,0,0-3H32v86H42.5a1.5,1.5,0,0,0,0-3H35V79Z"/><rect class="cls-4" x="41" y="62" width="41" height="30" rx="0.9"/><rect class="cls-5" x="41" y="20" width="51" height="30" rx="1"/><polygon class="cls-6" points="71 35.77 63 30.5 63 41.04 71 35.77"/><path class="cls-5" d="M79,102.8v28.4a.88.88,0,0,1-.93.8H41.93a.88.88,0,0,1-.93-.8V102.8a.88.88,0,0,1,.93-.8H78.07A.88.88,0,0,1,79,102.8Z"/><circle class="cls-6" cx="64.72" cy="110.03" r="3.8"/><polygon class="cls-6" points="40.93 122.64 50.34 113.23 62.07 124.97 70.68 116.36 79 124.68 79 128.44 70.68 120.11 62.07 128.72 50.34 116.99 40.93 126.4 40.93 122.64"/><path class="cls-6" d="M145.4,118.56,125.05,98.21,124,97.13A33.49,33.49,0,1,0,64.5,76q0,1,.06,1.92a33.78,33.78,0,0,0,.82,5.74,33.47,33.47,0,0,0,52.83,19h0l1.07,1.07,20.45,20.45a3.86,3.86,0,0,0,5.47,0l.19-.18a3.87,3.87,0,0,0,0-5.47Z"/><path class="cls-3" d="M146.46,117.5,126,97A35,35,0,1,0,63,76c0,.67,0,1.34.06,2a35,35,0,0,0,55,26.67l20.61,20.61a5.37,5.37,0,0,0,7.59,0l.19-.19A5.36,5.36,0,0,0,146.46,117.5ZM66.84,83.32a32.55,32.55,0,0,1-.79-5.5c0-.6,0-1.21,0-1.82a32,32,0,1,1,57.72,19l-.36.47c-.2.26-.39.52-.6.77l-.44.51c-.21.25-.41.49-.63.73l-.19.2q-.56.6-1.14,1.17c-.38.38-.77.74-1.17,1.09l-.52.45c-.38.32-.77.63-1.16.94a32,32,0,0,1-50.67-18ZM144.34,123l-.19.19a2.38,2.38,0,0,1-3.35,0l-20.33-20.33a35.84,35.84,0,0,0,3.6-3.48l20.27,20.27A2.38,2.38,0,0,1,144.34,123Z"/><rect class="cls-7" x="76" y="61" width="34" height="8"/><rect class="cls-5" x="76" y="83" width="42" height="8"/><rect class="cls-5" x="76" y="72" width="30" height="8"/></g></svg>