<svg xmlns="http://www.w3.org/2000/svg" viewBox="0 0 176 176"><defs><style>.cls-1{fill:#365066;}.cls-2{fill:#65dde0;}.cls-3{fill:none;}.cls-4{fill:#2079d4;}.cls-5{fill:#80b9f2;}</style></defs><g id="linguagg_privacy"><rect class="cls-1" x="175" y="-41" width="11" height="67"/></g><g id="Kit_webdesign"><rect class="cls-2" x="126.26" y="111" width="11.11" height="6"/><rect class="cls-3" width="176" height="176"/><path class="cls-1" d="M154.52,38a.49.49,0,0,1,.48.48v87a.49.49,0,0,1-.48.48h-133a.49.49,0,0,1-.48-.48v-87a.49.49,0,0,1,.48-.48h133m0-3h-133A3.48,3.48,0,0,0,18,38.48v87A3.48,3.48,0,0,0,21.48,129h133a3.48,3.48,0,0,0,3.48-3.48v-87A3.48,3.48,0,0,0,154.52,35Z"/><circle class="cls-1" cx="30" cy="44" r="3"/><circle class="cls-1" cx="39" cy="44" r="3"/><circle class="cls-1" cx="48" cy="44" r="3"/><rect class="cls-1" x="21.05" y="50" width="135" height="3"/><path class="cls-4" d="M48.92,72.65,38,76.72l10.88,4.44v5.58L32,79.1V74.58l16.92-7.52Z"/><path class="cls-4" d="M51.39,90.48l12-29.17L68.31,63l-12,29.17Z"/><path class="cls-4" d="M82,76.72,71.08,72.65V67.06L88,74.58V79.1L71.08,86.74V81.16Z"/><rect class="cls-5" x="30" y="99" width="116" height="6"/><rect class="cls-5" x="30" y="111" width="116" height="6"/><rect class="cls-4" x="105.28" y="111" width="40.72" height="6"/><rect class="cls-4" x="38.64" y="99" width="40.72" height="6"/><rect class="cls-4" x="117.62" y="99" width="14.81" height="6"/><rect class="cls-4" x="83.06" y="111" width="14.81" height="6"/><rect class="cls-4" x="33.7" y="111" width="27.15" height="6"/><rect class="cls-2" x="59.62" y="99" width="11.11" height="6"/></g></svg>