<svg width="120" height="120" viewBox="0 0 120 120" fill="none" xmlns="http://www.w3.org/2000/svg">
<path d="M93 39V48M93 39H105V33H99V39H93ZM93 48H105V58H99V67H105V98H53V93H99V48H93Z" stroke="#365066" stroke-width="3" stroke-linejoin="round"/>
<path d="M115 58H99V67H115L111.5 62.5L115 58Z" stroke="black" stroke-width="3"/>
<path d="M115 58H99V67H115L111.5 62.5L115 58Z" stroke="#365066" stroke-width="3"/>
<path d="M93 88V28H99V39H93V48H99V93H47V88H93Z" stroke="#365066" stroke-width="3" stroke-linejoin="round"/>
<path d="M115 39H93V48H115L111.5 43.5L115 39Z" stroke="black" stroke-width="3"/>
<path d="M115 39H93V48H115L111.5 43.5L115 39Z" stroke="#365066" stroke-width="3"/>
<rect x="41" y="23" width="52" height="65" stroke="#365066" stroke-width="3" stroke-linejoin="round"/>
<rect x="51" y="35" width="8" height="8" stroke="#365066" stroke-width="3"/>
<line x1="49" y1="53.5" x2="85" y2="53.5" stroke="black" stroke-width="3"/>
<line x1="49" y1="53.5" x2="85" y2="53.5" stroke="#365066" stroke-width="3"/>
<line x1="49" y1="59.5" x2="85" y2="59.5" stroke="black" stroke-width="3"/>
<line x1="49" y1="59.5" x2="85" y2="59.5" stroke="#365066" stroke-width="3"/>
<line x1="49" y1="65.5" x2="85" y2="65.5" stroke="black" stroke-width="3"/>
<line x1="49" y1="65.5" x2="85" y2="65.5" stroke="#365066" stroke-width="3"/>
<line x1="49" y1="71.5" x2="85" y2="71.5" stroke="black" stroke-width="3"/>
<line x1="49" y1="71.5" x2="85" y2="71.5" stroke="#365066" stroke-width="3"/>
<line x1="49" y1="77.5" x2="85" y2="77.5" stroke="black" stroke-width="3"/>
<line x1="49" y1="77.5" x2="85" y2="77.5" stroke="#365066" stroke-width="3"/>
<path d="M19 24.2578L20.9721 26.4765L21.556 27.1333L22.4145 26.9451L25.3141 26.3094L25.6055 29.2635L25.6918 30.1381L26.4969 30.4905L29.2164 31.6805L27.7158 34.2417L27.2715 35L27.7158 35.7583L29.2164 38.3195L26.4969 39.5095L25.6918 39.8619L25.6055 40.7365L25.3141 43.6906L22.4145 43.0549L21.556 42.8667L20.9721 43.5235L19 45.7422L17.0279 43.5235L16.444 42.8667L15.5855 43.0549L12.6859 43.6906L12.3945 40.7365L12.3082 39.8619L11.5031 39.5095L8.78356 38.3195L10.2842 35.7583L10.7285 35L10.2842 34.2417L8.78356 31.6805L11.5031 30.4905L12.3082 30.1381L12.3945 29.2635L12.6859 26.3094L15.5855 26.9451L16.444 27.1333L17.0279 26.4765L19 24.2578Z" stroke="#365066" stroke-width="3"/>
</svg>
