<svg xmlns="http://www.w3.org/2000/svg" viewBox="0 0 120 120"><defs><style>.cls-1{fill:#ffffff;}.cls-2{fill:none;}</style></defs><g id="progettare"><path class="cls-1" d="M92.49,33.1v10h-72v-10Zm3-3h-78v16h78v-16Z"/><path class="cls-1" d="M92.49,33.1v10h-72v-10Zm3-3h-78v16h78v-16Z"/><path class="cls-1" d="M55.63,54.1v20H20.49v-20Zm3-3H17.49v26H58.63v-26Z"/><rect class="cls-1" x="61.49" y="62.1" width="17" height="3"/><rect class="cls-1" x="61.49" y="68.1" width="16" height="3"/><rect class="cls-1" x="61.49" y="74.1" width="19" height="3"/><path class="cls-1" d="M61.49,87.1v10h-10v-10Zm3-3h-16v16h16v-16Z"/><rect class="cls-1" x="38.49" y="97.1" width="36" height="3"/><path class="cls-1" d="M111.3,51.1h-3.81V23a2.93,2.93,0,0,0-2.93-2.92H8.41A2.92,2.92,0,0,0,5.49,23V84.18A2.92,2.92,0,0,0,8.41,87.1H84.49v9.81a3.18,3.18,0,0,0,3.18,3.19H111.3a3.19,3.19,0,0,0,3.19-3.19V54.28A3.18,3.18,0,0,0,111.3,51.1ZM84.49,54.28V84.1h-76v-61h96v28H87.67A3.18,3.18,0,0,0,84.49,54.28Zm27,42.63a.19.19,0,0,1-.19.19H87.67a.18.18,0,0,1-.18-.19V54.28a.18.18,0,0,1,.18-.18H111.3a.19.19,0,0,1,.19.18Z"/><rect class="cls-1" x="90.49" y="66.1" width="11" height="3"/><rect class="cls-1" x="90.49" y="60.1" width="18" height="3"/><path class="cls-1" d="M99.49,78.1v6h-6v-6Zm3-3h-12v12h12v-12Z"/><rect class="cls-2" width="120" height="120"/></g></svg>
