<svg width="160" height="160" viewBox="0 0 160 160" fill="none" xmlns="http://www.w3.org/2000/svg">
<g clip-path="url(#clip0_40002011_41526)">
<path d="M79 150C92.8447 150 106.378 145.895 117.89 138.203C129.401 130.511 138.373 119.579 143.672 106.788C148.97 93.997 150.356 79.9224 147.655 66.3437C144.954 52.765 138.287 40.2922 128.497 30.5026C118.708 20.7129 106.235 14.046 92.6563 11.3451C79.0777 8.6441 65.003 10.0303 52.2122 15.3285C39.4213 20.6266 28.4888 29.5987 20.7971 41.1101C13.1054 52.6216 9 66.1553 9 80C9 98.5652 16.375 116.37 29.5025 129.498C42.6301 142.625 60.4348 150 79 150V150Z" fill="#F0F6FC"/>
<path d="M141.88 33.5H18.22C17.2977 33.5 16.55 34.2477 16.55 35.17V112.83C16.55 113.752 17.2977 114.5 18.22 114.5H141.88C142.802 114.5 143.55 113.752 143.55 112.83V35.17C143.55 34.2477 142.802 33.5 141.88 33.5Z" fill="white"/>
<path d="M23 43C24.1046 43 25 42.1046 25 41C25 39.8954 24.1046 39 23 39C21.8954 39 21 39.8954 21 41C21 42.1046 21.8954 43 23 43Z" fill="#365066"/>
<path d="M30 43C31.1046 43 32 42.1046 32 41C32 39.8954 31.1046 39 30 39C28.8954 39 28 39.8954 28 41C28 42.1046 28.8954 43 30 43Z" fill="#365066"/>
<path d="M37 43C38.1046 43 39 42.1046 39 41C39 39.8954 38.1046 39 37 39C35.8954 39 35 39.8954 35 41C35 42.1046 35.8954 43 37 43Z" fill="#365066"/>
<path d="M141.88 32H18.23C17.8129 31.9987 17.3996 32.0797 17.0138 32.2384C16.6281 32.3972 16.2774 32.6304 15.982 32.9249C15.6866 33.2194 15.4522 33.5693 15.2922 33.9546C15.1323 34.3398 15.05 34.7529 15.05 35.17V112.83C15.05 113.247 15.1323 113.66 15.2922 114.045C15.4522 114.431 15.6866 114.781 15.982 115.075C16.2774 115.37 16.6281 115.603 17.0138 115.762C17.3996 115.92 17.8129 116.001 18.23 116H141.88C142.721 116 143.527 115.666 144.122 115.072C144.716 114.477 145.05 113.671 145.05 112.83V35.17C145.05 34.3293 144.716 33.523 144.122 32.9285C143.527 32.334 142.721 32 141.88 32V32ZM18.23 35H141.88C141.924 35.0024 141.966 35.0211 141.998 35.0525C142.029 35.0838 142.048 35.1257 142.05 35.17V47H18.05V35.17C18.0525 35.124 18.0726 35.0808 18.1061 35.0492C18.1396 35.0175 18.1839 34.9999 18.23 35V35ZM141.88 113H18.23C18.1839 113 18.1396 112.982 18.1061 112.951C18.0726 112.919 18.0525 112.876 18.05 112.83V50H142.05V112.83C142.048 112.874 142.029 112.916 141.998 112.948C141.966 112.979 141.924 112.998 141.88 113V113Z" fill="#365066"/>
<path d="M91.2697 119.15L90.6297 118.71L90.2197 93.3799L111.96 106.4L112.01 107.11L113.53 119.72L101.39 126.73L91.2697 119.15Z" fill="white"/>
<path d="M91.76 96.0499L110.33 107.17L110.52 107.29V107.35L111.91 118.92L101.48 124.92L92.16 117.92V117.68L91.8 96.0499M89.75 91.4799C89.4848 91.4799 89.2304 91.5852 89.0429 91.7728C88.8554 91.9603 88.75 92.2147 88.75 92.4799L89.16 117.73V119.51L90.39 120.35L101.3 128.53L115.15 120.53L113.51 107L113.39 105.52L111.87 104.61L90.2 91.6099C90.0543 91.5154 89.8836 91.4666 89.71 91.4699L89.75 91.4799Z" fill="#365066"/>
<path d="M100.78 113.16C100.516 113.161 100.257 113.092 100.029 112.961C99.8003 112.829 99.611 112.639 99.48 112.41L89.16 94.5399C89.0615 94.3692 88.9976 94.1807 88.9719 93.9853C88.9463 93.7899 88.9594 93.5914 89.0104 93.401C89.0615 93.2106 89.1496 93.0322 89.2696 92.8759C89.3896 92.7195 89.5393 92.5884 89.71 92.4899C89.8807 92.3914 90.0692 92.3275 90.2646 92.3018C90.46 92.2762 90.6585 92.2893 90.8489 92.3403C91.0393 92.3914 91.2177 92.4795 91.374 92.5995C91.5304 92.7195 91.6615 92.8692 91.76 93.0399L102.07 110.91C102.254 111.249 102.301 111.646 102.201 112.018C102.1 112.391 101.86 112.71 101.53 112.91C101.305 113.055 101.047 113.141 100.78 113.16V113.16Z" fill="#365066"/>
<path d="M103.69 130.02L115.22 123.36L118.8 128.23L106.11 135.55L103.69 130.02Z" fill="white"/>
<path d="M114.81 125.33L116.6 127.76L106.81 133.41L105.6 130.65L114.81 125.33M115.63 121.39L101.78 129.39L105.41 137.69L121 128.69L115.63 121.39V121.39Z" fill="#365066"/>
<path d="M33 67H37.64L40.328 84.984H40.808L44.712 67H49.832L53.736 84.984H54.216L56.904 67H61.544L57.384 88.76H50.696L47.272 72.216L43.848 88.76H37.16L33 67Z" fill="#2079D4"/>
<path d="M62.75 67H67.39L70.078 84.984H70.558L74.462 67H79.582L83.486 84.984H83.966L86.654 67H91.294L87.134 88.76H80.446L77.022 72.216L73.598 88.76H66.91L62.75 67Z" fill="#2079D4"/>
<path d="M92.5 67H97.14L99.828 84.984H100.308L104.212 67H109.332L113.236 84.984H113.716L116.404 67H121.044L116.884 88.76H110.196L106.772 72.216L103.348 88.76H96.66L92.5 67Z" fill="#2079D4"/>
<path d="M122.496 88.76V83.448H127.104V88.76H122.496Z" fill="#2079D4"/>
</g>
<defs>
<clipPath id="clip0_40002011_41526">
<rect width="160" height="160" fill="white"/>
</clipPath>
</defs>
</svg>
