<svg width="132" height="120" viewBox="0 0 132 120" fill="none" xmlns="http://www.w3.org/2000/svg">
<path d="M19.9545 93.4882C19.0587 93.4854 18.2002 93.1292 17.5657 92.4968C16.9306 91.8637 16.5719 91.005 16.5684 90.1079V27.097C16.5723 26.2015 16.9284 25.3434 17.5597 24.7082C18.1932 24.0736 19.0519 23.7152 19.9486 23.7109H112.043C112.94 23.7145 113.799 24.073 114.432 24.7082C115.063 25.3434 115.42 26.2015 115.424 27.097V90.1201C115.418 91.0154 115.062 91.873 114.432 92.509C113.797 93.1403 112.939 93.4961 112.043 93.5001L19.9545 93.4882Z" fill="#EAF4FE"/>
<path d="M115.123 90.0946C115.124 90.4985 115.045 90.8984 114.89 91.2715C114.735 91.6445 114.508 91.9835 114.222 92.2683C113.645 92.8454 112.863 93.1697 112.048 93.17H19.953C19.5433 93.174 19.137 93.0947 18.7586 92.9372C18.3833 92.7826 18.0423 92.5552 17.7553 92.2683C17.4722 91.9817 17.2471 91.6431 17.0924 91.2711C16.9331 90.893 16.8519 90.487 16.8535 90.0766V27.0956C16.8519 26.6854 16.9331 26.2791 17.0924 25.9012C17.2471 25.5274 17.4721 25.1868 17.7553 24.8979C18.0442 24.6147 18.3848 24.3896 18.7586 24.2349C19.137 24.0776 19.5433 23.9984 19.953 24.0021H112.048C112.458 23.9996 112.864 24.0787 113.242 24.2349C113.615 24.3912 113.954 24.6184 114.24 24.9039C114.528 25.1876 114.755 25.5269 114.909 25.9012C115.063 26.2804 115.142 26.6861 115.141 27.0956L115.123 90.0946Z" fill="#0058B0"/>
<path d="M110.304 28.4102H21.6914V84.9713H110.304V28.4102Z" fill="#C5E1F9"/>
<path d="M62.4086 28.4093L64.1167 23.9961H50.0163L48.3086 28.4093H62.4086Z" fill="#02509E"/>
<path d="M26.3783 84.9707L23.2012 93.1705H37.3013L40.4783 84.9707H26.3783Z" fill="#02509E"/>
<path d="M71.4626 28.4093L73.1765 23.9961H68.6437L66.9355 28.4093H71.4626Z" fill="#02509E"/>
<path d="M45.0092 84.9707L41.8262 93.1705H46.359L49.5421 84.9707H45.0092Z" fill="#02509E"/>
<path d="M132 89.6816H0.0175781V93.5455H132V89.6816Z" fill="#C5E1F9"/>
<path d="M0.162109 93.5469C1.72678 95.2012 4.59336 95.8461 6.57608 95.8461H125.396C127.373 95.8461 130.245 95.2012 131.804 93.5469H0.162109Z" fill="#9AC7F7"/>
<path d="M57.0332 89.6836V90.1015C57.0339 90.2815 57.0684 90.4598 57.1347 90.627C57.205 90.7938 57.3065 90.9458 57.4335 91.075C57.5605 91.2045 57.7129 91.3063 57.8812 91.3734C58.0494 91.4451 58.2302 91.4817 58.4127 91.481H73.6175C73.7983 91.4814 73.9769 91.4448 74.143 91.3734C74.3123 91.3078 74.4651 91.2059 74.591 91.075C74.7219 90.9491 74.8238 90.7963 74.8898 90.627C74.9608 90.4609 74.9974 90.2823 74.997 90.1015V89.6836H57.0332Z" fill="#9AC7F7"/>
<path d="M91.1571 40.7891H40.8425C39.8991 40.7891 39.1348 41.5534 39.1348 42.4968V70.3205C39.1348 71.2638 39.8991 72.0286 40.8425 72.0286H91.1571C92.1005 72.0286 92.8649 71.2638 92.8649 70.3205V42.4968C92.8649 41.5534 92.1005 40.7891 91.1571 40.7891Z" fill="white"/>
<path fill-rule="evenodd" clip-rule="evenodd" d="M43.615 49.4248C43.4414 49.4183 43.2682 49.4488 43.1071 49.5144C42.9468 49.5808 42.8022 49.6805 42.6831 49.8071C42.4453 50.0693 42.3187 50.4144 42.3309 50.7684C42.3244 51.1286 42.4568 51.4772 42.7011 51.7419C42.8201 51.8682 42.9647 51.9679 43.125 52.0346C43.285 52.1046 43.4586 52.1372 43.6329 52.13C43.8044 52.1365 43.9755 52.106 44.1344 52.0404C44.2933 51.9744 44.4357 51.8743 44.5526 51.748C44.7905 51.4855 44.9171 51.1404 44.9049 50.7864C44.9113 50.4313 44.7858 50.0865 44.5526 49.819C44.4371 49.688 44.2944 49.584 44.1344 49.5144C43.9755 49.4488 43.8044 49.4179 43.6329 49.4248" fill="#2A66C4"/>
<path d="M50.9235 53.8751H49.1318V57.0642H46.9043V46.0996H50.9235C53.5194 46.0996 54.8193 47.3676 54.8232 49.9036C54.8935 50.9822 54.5352 52.0446 53.8257 52.8599C53.4379 53.2197 52.9802 53.4959 52.4806 53.6706C51.9813 53.8453 51.4511 53.9149 50.9235 53.8751ZM49.1318 51.97H50.9235C52.034 51.97 52.5835 51.2713 52.5835 49.9036C52.6305 49.3874 52.4885 48.8716 52.1836 48.4527C52.0128 48.2894 51.8091 48.1653 51.5863 48.0882C51.3683 48.0104 51.1362 47.9799 50.9055 47.9985H49.1139L49.1318 51.97Z" fill="#2A66C4"/>
<path d="M85.6211 46.1172H58.3828V48.5538H85.6211V46.1172Z" fill="#9AC7F7"/>
<path d="M85.6211 50.584H58.3828V53.0206H85.6211V50.584Z" fill="#9AC7F7"/>
<path d="M85.6211 55.0449H58.3828V57.4815H85.6211V55.0449Z" fill="#9AC7F7"/>
<path d="M73.181 63.627H58.8242C58.4218 63.627 58.0957 63.953 58.0957 64.3555V67.3176C58.0957 67.72 58.4218 68.0464 58.8242 68.0464H73.181C73.5835 68.0464 73.9095 67.72 73.9095 67.3176V64.3555C73.9095 63.953 73.5835 63.627 73.181 63.627Z" fill="#2A66C4"/>
<path d="M91.6109 48.8091C83.7935 48.7732 83.7992 36.8652 91.6109 36.8652C99.4222 36.8652 99.4222 48.7732 91.6109 48.8091Z" fill="white"/>
<path d="M91.6118 47.7401C85.1919 47.7401 85.1919 37.9456 91.6118 37.9219C98.0318 37.8979 98.0497 47.7222 91.6118 47.7401Z" fill="#00CF86"/>
<path d="M91.1315 45.0471L89.2383 43.16L90.1519 42.2701L91.1315 43.2436L93.3888 40.9863L94.3027 41.8763L91.1315 45.0471Z" fill="white"/>
<path d="M80.9586 67.5945L78.7333 66.9531L77.0488 72.7966L79.2742 73.438L80.9586 67.5945Z" fill="#0066CC"/>
<path d="M68.4575 76.1128L64.2363 71.7389L65.9064 70.1309L70.1229 74.5098L68.4575 76.1128Z" fill="#0066CC"/>
<path d="M66.4857 82.9453L60.5898 84.4145L61.1498 86.6592L67.0456 85.19L66.4857 82.9453Z" fill="#0066CC"/>
<path d="M74.2 90.9574L71.9747 90.3164L70.2949 96.1499L72.5203 96.7912L74.2 90.9574Z" fill="#0066CC"/>
<path d="M90.0802 77.0879L84.1797 78.5524L84.7396 80.8065L90.6402 79.3419L90.0802 77.0879Z" fill="#0066CC"/>
<path d="M105.88 101.18L90.7287 90.9289L75.582 80.6777L76.1947 98.964L76.807 117.241L85.9813 107.511L92.327 118.997L99.1035 115.245L92.7481 103.759L105.88 101.18Z" fill="#D68D21"/>
<path d="M90.7287 90.9289L75.582 80.6777V81.2904L95.4617 117.264L99.0892 115.25L92.7338 103.764L105.866 101.184L90.7287 90.9289Z" fill="#FDCA2F"/>
</svg>
