<svg xmlns="http://www.w3.org/2000/svg" viewBox="0 0 120 120"><defs><style>.cls-1{fill:#fff;}.cls-2{fill:#ffffff;}.cls-3{fill:none;}</style></defs><g id="validare"><path class="cls-1" d="M83.78,49.34v0a.8.8,0,0,0,0-.15A.38.38,0,0,1,83.78,49.34Z"/><path class="cls-2" d="M70,49h0a.69.69,0,0,1,0,.13A.61.61,0,0,0,70,49Zm0,0h0a.69.69,0,0,1,0,.13A.61.61,0,0,0,70,49Zm0,0h0a.69.69,0,0,1,0,.13A.61.61,0,0,0,70,49Zm0,0h0a.69.69,0,0,1,0,.13A.61.61,0,0,0,70,49Zm0,0h0a.69.69,0,0,1,0,.13A.61.61,0,0,0,70,49Zm0,0h0a.69.69,0,0,1,0,.13A.61.61,0,0,0,70,49Zm0,0h0a.69.69,0,0,1,0,.13A.61.61,0,0,0,70,49Zm0,0h0a.69.69,0,0,1,0,.13A.61.61,0,0,0,70,49Zm0,0h0a.69.69,0,0,1,0,.13A.61.61,0,0,0,70,49Zm0,0h0a.69.69,0,0,1,0,.13A.61.61,0,0,0,70,49Zm0,0h0a.69.69,0,0,1,0,.13A.61.61,0,0,0,70,49Zm13.72.29a.8.8,0,0,1,0,.15v0A.38.38,0,0,0,83.75,49.24ZM70,49h0a.69.69,0,0,1,0,.13A.61.61,0,0,0,70,49Zm0,0h0a.69.69,0,0,1,0,.13A.61.61,0,0,0,70,49Zm0,0h0a.69.69,0,0,1,0,.13A.61.61,0,0,0,70,49Zm0,0h0a.69.69,0,0,1,0,.13A.61.61,0,0,0,70,49Zm0,0h0a.69.69,0,0,1,0,.13A.61.61,0,0,0,70,49Zm0,0h0a.69.69,0,0,1,0,.13A.61.61,0,0,0,70,49Zm0,0h0a.69.69,0,0,1,0,.13A.61.61,0,0,0,70,49Z"/><path class="cls-2" d="M83.75,49.24a.8.8,0,0,1,0,.15v0A.38.38,0,0,0,83.75,49.24Zm0,0a.8.8,0,0,1,0,.15v0A.38.38,0,0,0,83.75,49.24Zm0,0a.8.8,0,0,1,0,.15v0A.38.38,0,0,0,83.75,49.24Zm0,0a.8.8,0,0,1,0,.15v0A.38.38,0,0,0,83.75,49.24Zm0,0a.8.8,0,0,1,0,.15v0A.38.38,0,0,0,83.75,49.24Zm0,0a.8.8,0,0,1,0,.15v0A.38.38,0,0,0,83.75,49.24Zm0,0a.8.8,0,0,1,0,.15v0A.38.38,0,0,0,83.75,49.24Zm0,0a.8.8,0,0,1,0,.15v0A.38.38,0,0,0,83.75,49.24Zm0,0a.8.8,0,0,1,0,.15v0A.38.38,0,0,0,83.75,49.24Z"/><path class="cls-2" d="M36.8,100.45a14.2,14.2,0,0,0,1.35,2.16Z"/><path class="cls-1" d="M81.29,65.86v0a1.1,1.1,0,0,0,0-.16A.45.45,0,0,1,81.29,65.86Z"/><path class="cls-2" d="M67.54,65.46h0a.78.78,0,0,1,0,.14A.7.7,0,0,0,67.54,65.46Zm0,0h0a.78.78,0,0,1,0,.14A.7.7,0,0,0,67.54,65.46Zm0,0h0a.78.78,0,0,1,0,.14A.7.7,0,0,0,67.54,65.46Zm0,0h0a.78.78,0,0,1,0,.14A.7.7,0,0,0,67.54,65.46Zm0,0h0a.78.78,0,0,1,0,.14A.7.7,0,0,0,67.54,65.46Zm0,0h0a.78.78,0,0,1,0,.14A.7.7,0,0,0,67.54,65.46Zm0,0h0a.78.78,0,0,1,0,.14A.7.7,0,0,0,67.54,65.46Zm13.74.37a.25.25,0,0,1,0,.08v0A0,0,0,0,0,81.28,65.83Zm-13.74-.37h0a.78.78,0,0,1,0,.14A.7.7,0,0,0,67.54,65.46Zm0,0h0a.78.78,0,0,1,0,.14A.7.7,0,0,0,67.54,65.46Zm0,0h0a.78.78,0,0,1,0,.14A.7.7,0,0,0,67.54,65.46Zm0,0h0a.78.78,0,0,1,0,.14A.7.7,0,0,0,67.54,65.46Zm0,0h0a.78.78,0,0,1,0,.14A.7.7,0,0,0,67.54,65.46Zm0,0h0a.78.78,0,0,1,0,.14A.7.7,0,0,0,67.54,65.46Zm0,0h0a.78.78,0,0,1,0,.14A.7.7,0,0,0,67.54,65.46Zm0,0h0a.78.78,0,0,1,0,.14A.7.7,0,0,0,67.54,65.46Zm0,0h0a.78.78,0,0,1,0,.14A.7.7,0,0,0,67.54,65.46Zm0,0h0a.78.78,0,0,1,0,.14A.7.7,0,0,0,67.54,65.46Zm0,0h0a.78.78,0,0,1,0,.14A.7.7,0,0,0,67.54,65.46Z"/><path class="cls-2" d="M81.28,65.83a.25.25,0,0,1,0,.08v0A0,0,0,0,0,81.28,65.83Zm0,0a.25.25,0,0,1,0,.08v0A0,0,0,0,0,81.28,65.83Zm0,0a.25.25,0,0,1,0,.08v0A0,0,0,0,0,81.28,65.83Zm0,0a.25.25,0,0,1,0,.08v0A0,0,0,0,0,81.28,65.83Zm0,0a.25.25,0,0,1,0,.08v0A0,0,0,0,0,81.28,65.83Zm0,0a.25.25,0,0,1,0,.08v0A0,0,0,0,0,81.28,65.83Zm0,0a.25.25,0,0,1,0,.08v0A0,0,0,0,0,81.28,65.83Zm0,0a.25.25,0,0,1,0,.08v0A0,0,0,0,0,81.28,65.83Zm0,0a.25.25,0,0,1,0,.08v0A0,0,0,0,0,81.28,65.83Z"/><path class="cls-2" d="M49.23,21.29a3.5,3.5,0,1,1-7,.27,3.33,3.33,0,0,1,.13-1,3.48,3.48,0,0,1,6.73,0A2.89,2.89,0,0,1,49.23,21.29Z"/><path class="cls-2" d="M99.44,48.51a8.52,8.52,0,0,0-8.61-8.41h-.16a8.67,8.67,0,0,0-7,3.59,9.12,9.12,0,0,0-14.5,0A9.08,9.08,0,0,0,56,42.12V21.87a9.5,9.5,0,0,0-.1-1.42H81.33l-4.88,4.88,2.13,2.12,6.36-6.36L87.06,19l-8.48-8.48L76.45,12.6l4.85,4.85H54.94A10,10,0,0,0,45.88,12a10.48,10.48,0,0,0-9.27,5.5H16.45v3H35.59a9.78,9.78,0,0,0-.14,1.63V65.94l-2.16-3.46a8.57,8.57,0,1,0-14.54,9.08l18,28.86s0,0,0,0l1.35,2.16s0,0,0,0a13.87,13.87,0,0,0,11,5.3H99.45Zm-64,44.11L21.3,70a5.57,5.57,0,1,1,9.44-5.9l4.71,7.53ZM49.13,105A10.8,10.8,0,0,1,40.75,101a9.89,9.89,0,0,1-1.55-2.57,9.63,9.63,0,0,1-.75-3.76V22.08a6.34,6.34,0,0,1,.21-1.63,7,7,0,0,1,1.62-3,7.57,7.57,0,0,1,5.6-2.5,7,7,0,0,1,5.52,2.5,6.53,6.53,0,0,1,1.42,3A7.35,7.35,0,0,1,53,21.87v25.8q0,.36,0,.72l0,22.1h3V47.82a5.94,5.94,0,0,1,11.72.25c0,.13,0,.25,0,.37V70.38h3V48l0-.17c.14-2.67,2.63-4.76,5.67-4.76s5.69,2.24,5.69,5V70.38h3V48.51a5.52,5.52,0,0,1,5.61-5.41h.16a5.52,5.52,0,0,1,5.61,5.41V105Z"/><rect class="cls-3" width="120" height="120"/></g></svg>
