<svg width="18" height="18" viewBox="0 0 18 18" fill="none" xmlns="http://www.w3.org/2000/svg">
<path d="M18 0V6H17V1.7L9.4 9.4L8.6 8.6L16.3 1H12V0H18ZM14 16.5C14 16.6326 13.9473 16.7598 13.8536 16.8536C13.7598 16.9473 13.6326 17 13.5 17H1.5C1.36739 17 1.24021 16.9473 1.14645 16.8536C1.05268 16.7598 1 16.6326 1 16.5V4.5C1 4.36739 1.05268 4.24021 1.14645 4.14645C1.24021 4.05268 1.36739 4 1.5 4H9V3H1.5C1.10218 3 0.720644 3.15804 0.43934 3.43934C0.158035 3.72064 0 4.10218 0 4.5V16.5C0 16.8978 0.158035 17.2794 0.43934 17.5607C0.720644 17.842 1.10218 18 1.5 18H13.5C13.8978 18 14.2794 17.842 14.5607 17.5607C14.842 17.2794 15 16.8978 15 16.5V9H14V16.5Z" fill="#395064"/>
</svg>
