<svg width="20" height="20" viewBox="0 0 20 20" fill="none" xmlns="http://www.w3.org/2000/svg">
<path d="M10 0C8.02219 0 6.08879 0.58649 4.4443 1.6853C2.79981 2.78412 1.51809 4.3459 0.761209 6.17317C0.00433284 8.00043 -0.193701 10.0111 0.192152 11.9509C0.578004 13.8907 1.53041 15.6725 2.92894 17.0711C4.32746 18.4696 6.10929 19.422 8.0491 19.8079C9.98891 20.1937 11.9996 19.9957 13.8268 19.2388C15.6541 18.4819 17.2159 17.2002 18.3147 15.5557C19.4135 13.9112 20 11.9778 20 10C20 8.68678 19.7413 7.38642 19.2388 6.17317C18.7363 4.95991 17.9997 3.85752 17.0711 2.92893C16.1425 2.00035 15.0401 1.26375 13.8268 0.761205C12.6136 0.258658 11.3132 0 10 0ZM10 19C8.21997 19 6.47991 18.4722 4.99987 17.4832C3.51983 16.4943 2.36628 15.0887 1.68509 13.4442C1.0039 11.7996 0.82567 9.99002 1.17294 8.24419C1.5202 6.49836 2.37737 4.89471 3.63604 3.63604C4.89472 2.37737 6.49836 1.5202 8.24419 1.17293C9.99002 0.825665 11.7996 1.0039 13.4442 1.68508C15.0887 2.36627 16.4943 3.51983 17.4832 4.99987C18.4722 6.47991 19 8.21997 19 10C19 12.3869 18.0518 14.6761 16.364 16.364C14.6761 18.0518 12.387 19 10 19ZM9.3 4H10.8V6H9.3V4ZM9.3 7H10.8V16H9.3V7Z" fill="#395064"/>
</svg>
