<svg width="18" height="18" viewBox="0 0 18 18" fill="none" xmlns="http://www.w3.org/2000/svg">
<path d="M16.9 0.900041C16.6291 0.615645 16.3033 0.389227 15.9424 0.23452C15.5814 0.0798134 15.1927 4.09121e-05 14.8 4.09121e-05C14.3921 -0.00205456 13.9878 0.0763649 13.6103 0.230805C13.2328 0.385244 12.8895 0.612668 12.6 0.900041L1 12.6L0 17.8L5.2 16.8L16.9 5.20004C17.1873 4.92049 17.4156 4.5862 17.5715 4.21693C17.7274 3.84765 17.8078 3.45088 17.8078 3.05004C17.8078 2.6492 17.7274 2.25243 17.5715 1.88315C17.4156 1.51388 17.1873 1.17959 16.9 0.900041ZM11.2 3.70004L11.9 3.00004L14.8 5.90004L14.1 6.60004L11.2 3.70004ZM10.5 4.50004L11.6 5.50004L3.2 13.9L2.1 12.8L10.5 4.50004ZM2.1 15.7C2.0331 15.6038 1.94311 15.5259 1.83828 15.4735C1.73344 15.4211 1.61713 15.3958 1.5 15.4L1.8 13.9L3.9 16L2.4 16.3C2.40422 16.1829 2.37897 16.0666 2.32655 15.9618C2.27414 15.8569 2.19624 15.7669 2.1 15.7ZM5 15.7L3.9 14.6L12.3 6.20004L13.3 7.30004L5 15.7ZM16.2 4.50004L15.5 5.20004L12.6 2.30004L13.3 1.60004C13.7058 1.21705 14.242 1.00257 14.8 1.00004C15.3275 1.00756 15.8307 1.22321 16.2 1.60004C16.5729 1.99069 16.781 2.50999 16.781 3.05004C16.781 3.5901 16.5729 4.10939 16.2 4.50004Z" fill="#0066CC"/>
</svg>
