<svg xmlns="http://www.w3.org/2000/svg" viewBox="0 0 160 160"><defs><style>.cls-1{fill:none;}.cls-2{fill:#f0f6fc;}.cls-3{fill:#365066;}.cls-4{fill:#2079d4;}.cls-5{fill:#50a7ef;}.cls-6{fill:#fff;}</style></defs><g id="schematizza_contesto"><rect class="cls-1" width="160" height="160"/><path class="cls-2" d="M79,150A70,70,0,1,0,9,80,70,70,0,0,0,79,150Z"/><path class="cls-3" d="M67.44,79.87c-9.75,0-20.42-2-29.19-8.58-7.91-5.93-10.48-12.72-10.58-13a1.5,1.5,0,1,1,2.81-1c.39,1,9.9,25.12,49.81,18.53a1.5,1.5,0,1,1,.49,3A82.63,82.63,0,0,1,67.44,79.87Z"/><path class="cls-3" d="M74,140.05a1.49,1.49,0,0,1-1.3-.75,1.51,1.51,0,0,1,.55-2.05c1-.55,23.14-13.92,10-52.19a1.5,1.5,0,0,1,2.84-1c4,11.69,7.2,28.67-.3,43.17C81.3,136.05,75,139.7,74.76,139.86A1.51,1.51,0,0,1,74,140.05Z"/><path class="cls-3" d="M95.85,74.18A83.82,83.82,0,0,1,84,73.29a1.5,1.5,0,0,1,.43-3c40.05,5.74,49-18.55,49.4-19.59a1.5,1.5,0,0,1,2.84,1C136.59,52,128.52,74.18,95.85,74.18Z"/><rect class="cls-4" x="117.5" y="23.5" width="26" height="31" rx="0.88" transform="translate(169.5 -91.5) rotate(90)"/><polygon class="cls-5" points="28 28 13 40.56 13 59 43 59 43 40.56 28 28"/><rect class="cls-4" x="44" y="126" width="32" height="18" rx="0.8" transform="translate(120 270) rotate(180)"/><path class="cls-6" d="M81.11,113.94a33.83,33.83,0,1,1,33.83-33.82A33.86,33.86,0,0,1,81.11,113.94Z"/><path class="cls-3" d="M81,48A32,32,0,1,1,49,80,32.07,32.07,0,0,1,81,48m0-3a35,35,0,1,0,35,35A35,35,0,0,0,81,45Z"/><circle class="cls-6" cx="81.05" cy="67" r="8.54"/><path class="cls-3" d="M81.05,59.92A7.08,7.08,0,1,1,74,67a7.09,7.09,0,0,1,7.08-7.08m0-2.92a10,10,0,1,0,10,10,10,10,0,0,0-10-10Z"/><path class="cls-6" d="M69.51,102.3V90.92a9.2,9.2,0,0,1,9-9.39h5.13a9.2,9.2,0,0,1,9,9.39V102.3Z"/><path class="cls-3" d="M83.48,83a7.86,7.86,0,0,1,7.57,8v10h-20V91a7.9,7.9,0,0,1,7.61-8Zm-5.13-3c-5.75,0-10.3,5.09-10.3,11.11V104H94V91.11C94,85.09,89.23,80,83.48,80Z"/></g></svg>